o plane_00
v -1 -0.273449242 3
v -2 0.469012976 2
v -2 0.207219511 3
v -1 -0.0116557032 2
v 0 -0.479942828 3
v -2 0.647697389 1
v 0 -0.218149304 2
v 1 -0.273449242 3
v -1 0.167028695 1
v -2 0.68716228 0
v 1 -0.0116557032 2
v 2 0.207219511 3
v 2 0.469012976 2
v 0 -0.0394648984 1
v -1 0.206493616 0
v -2 0.531297147 -1
v -1 0.0506284684 -1
v 1 0.167028695 1
v 2 0.647697389 1
v 0 0 0
v 0 -0.155865088 -1
v 1 0.206493616 0
v 2 0.68716228 0
v 1 0.0506284684 -1
v 2 0.531297147 -1
vt 0.75 0
vt 1 0.25
vt 1 0
vt 0.75 0.25
vt 0.5 0
vt 1 0.5
vt 0.5 0.25
vt 0.25 0
vt 0.75 0.5
vt 1 0.75
vt 0.25 0.25
vt 0 0
vt 0 0.25
vt 0.5 0.5
vt 0.75 0.75
vt 1 1
vt 0.75 1
vt 0.25 0.5
vt 0 0.5
vt 0.5 0.75
vt 0.5 1
vt 0.25 0.75
vt 0 0.75
vt 0.25 1
vt 0 1
vn 0.309470087 0.919908226 0.240825996
vn 0.425111324 0.88441664 0.192580968
vn 0.421642721 0.877200305 0.229645327
vn 0.318962842 0.925457656 0.204428479
vn 0 0.967398584 0.253258705
vn 0.431221485 0.897128403 0.0959624872
vn 0 0.976360559 0.216148287
vn -0.309470087 0.919908226 0.240825996
vn 0.324790597 0.940153718 0.103063129
vn 0.432657957 0.900116801 -0.0509585068
vn -0.318962872 0.925457656 0.204428494
vn -0.421642721 0.877200305 0.229645327
vn -0.425111324 0.88441664 0.192580968
vn 0 0.994000971 0.109371223
vn 0.326687098 0.943513393 -0.0552986152
vn 0.429008394 0.892524064 -0.139113382
vn 0.317830473 0.936836183 -0.1460201
vn -0.324790627 0.940153718 0.103063129
vn -0.431221485 0.897128284 0.0959624723
vn 0 0.9982692 -0.0588097163
vn 0 0.988069952 -0.154005647
vn -0.326687098 0.943513393 -0.0552986152
vn -0.432657957 0.900116801 -0.0509585068
vn -0.317830473 0.936836183 -0.1460201
vn -0.429008335 0.892524064 -0.139113396
g submesh_0
usemtl submesh_0
f 1/1/1 2/2/2 3/3/3
f 1/1/1 4/4/4 2/2/2
f 5/5/5 4/4/4 1/1/1
f 4/4/4 6/6/6 2/2/2
f 5/5/5 7/7/7 4/4/4
f 8/8/8 7/7/7 5/5/5
f 4/4/4 9/9/9 6/6/6
f 7/7/7 9/9/9 4/4/4
f 9/9/9 10/10/10 6/6/6
f 8/8/8 11/11/11 7/7/7
f 12/12/12 11/11/11 8/8/8
f 12/12/12 13/13/13 11/11/11
f 7/7/7 14/14/14 9/9/9
f 11/11/11 14/14/14 7/7/7
f 9/9/9 15/15/15 10/10/10
f 14/14/14 15/15/15 9/9/9
f 15/15/15 16/16/16 10/10/10
f 15/15/15 17/17/17 16/16/16
f 13/13/13 18/18/18 11/11/11
f 11/11/11 18/18/18 14/14/14
f 13/13/13 19/19/19 18/18/18
f 14/14/14 20/20/20 15/15/15
f 20/20/20 17/17/17 15/15/15
f 18/18/18 20/20/20 14/14/14
f 20/20/20 21/21/21 17/17/17
f 19/19/19 22/22/22 18/18/18
f 18/18/18 22/22/22 20/20/20
f 22/22/22 21/21/21 20/20/20
f 19/19/19 23/23/23 22/22/22
f 22/22/22 24/24/24 21/21/21
f 23/23/23 24/24/24 22/22/22
f 23/23/23 25/25/25 24/24/24
