o Sphere_04
v -0.156434476 0.00465328991 0
v -0.293892831 0.00648202002 -0.0954915658
v -0.148778126 0.00465328991 -0.0483409427
v -0.309017003 0.00648202002 0
v -0.148778036 0.00465328991 0.0483409129
v -0.431770921 0.00948406756 -0.140290871
v -0.293892652 0.00648202002 0.0954915062
v -0.126558155 0.00465328991 0.0919498876
v -0.453990519 0.00948406756 0
v -0.55901736 0.0128532201 -0.181635737
v -0.25 0.00648202002 0.181635648
v -0.0919498801 0.00465328991 0.126558155
v -0.431770653 0.00948406756 0.140290797
v -0.587785244 0.0128532201 0
v -0.672498941 0.0222084075 -0.218508139
v -0.181635633 0.00648202002 0.25000003
v -0.0483409092 0.00465328991 0.148778036
v -0.367286056 0.00948406756 0.266848952
v -0.559017003 0.0128532201 0.181635633
v -0.707106769 0.0222084075 0
v -0.769421399 0.0331616551 -0.250000149
v -0.0954914987 0.00648202002 0.293892652
v 4.6621107e-09 0.00465328991 0.156434491
v -0.266848922 0.00948406756 0.367286086
v -0.47552827 0.0128532201 0.345491529
v -0.672498524 0.0222084075 0.21850802
v -0.809017003 0.0331616551 0
v -0.847398102 0.049820438 -0.275336325
v 9.20942433e-09 0.00648202002 0.309017032
v 0.0483409241 0.00465328991 0.148778051
v -0.140290782 0.00948406756 0.431770682
v -0.345491499 0.0128532201 0.4755283
v -0.572061419 0.0222084075 0.415626973
v -0.769420922 0.0331616551 0.25
v -0.891006529 0.049820438 0
v -0.904509127 0.0783384591 -0.293892801
v 0.0954915285 0.00648202002 0.293892682
v 0.091949895 0.00465328991 0.12655817
v 1.35299718e-08 0.00948406756 0.453990579
v -0.181635618 0.0128532201 0.559017062
v -0.415626913 0.0222084075 0.572061419
v -0.654508531 0.0331616551 0.4755283
v -0.847397566 0.049820438 0.275336176
v -0.95105654 0.0783384591 0
v -0.939348042 0.126057491 -0.305212677
v -0.987688363 0.126057491 0
v -0.951057136 0.172215104 -0.309017181
v -0.904508531 0.0783384591 0.293892652
v -0.720839441 0.049820438 0.523720562
v -0.47552827 0.0331616551 0.654508531
v -0.21850799 0.0222084075 0.672498584
v -1 0.172215104 0
v -0.939348042 0.267475635 -0.305212677
v -0.939347506 0.126057491 0.305212498
v -0.769420922 0.0783384591 0.559017062
v -0.523720503 0.049820438 0.7208395
v -0.987688363 0.267475635 0
v -0.904509127 0.42005825 -0.293892801
v -0.95105654 0.172215104 0.309017003
v -0.799056649 0.126057491 0.580548704
v -0.95105654 0.42005825 0
v -0.847398102 0.565031767 -0.275336325
v -0.939347506 0.267475635 0.305212498
v -0.891006529 0.565031767 0
v -0.769421399 0.698826492 -0.250000149
v -0.249999985 0.0331616551 0.769420981
v -0.559017003 0.0783384591 0.769420981
v -0.809017003 0.172215104 0.587785304
v -0.904508531 0.42005825 0.293892652
v -0.809017003 0.698826492 0
v -0.672498941 0.818148017 -0.218508139
v -0.275336146 0.049820438 0.847397625
v -0.580548644 0.126057491 0.799056709
v -0.799056649 0.267475635 0.580548704
v -0.847397566 0.565031767 0.275336176
v -0.707106769 0.818148017 0
v -0.55901736 0.92005825 -0.181635737
v -0.293892622 0.0783384591 0.904508591
v -0.587785244 0.172215104 0.809017062
v -0.769420922 0.42005825 0.559017062
v -0.769420922 0.698826492 0.25
v -0.587785244 0.92005825 0
v -0.431770921 1.00204778 -0.140290871
v -0.305212468 0.126057491 0.939347565
v -0.580548644 0.267475635 0.799056709
v -0.720839441 0.565031767 0.523720562
v -0.672498524 0.818148017 0.21850802
v -0.453990519 1.00204778 0
v -0.293892831 1.06209779 -0.0954915658
v -0.309016973 0.172215104 0.9510566
v -0.559017003 0.42005825 0.769420981
v -0.654508531 0.698826492 0.4755283
v -0.559017003 0.92005825 0.181635633
v -0.309017003 1.06209779 0
v -0.148778126 1.09872961 -0.0483409427
v -0.305212468 0.267475635 0.939347565
v -0.523720503 0.565031767 0.7208395
v -0.572061419 0.818148017 0.415626973
v -0.431770653 1.00204778 0.140290797
v -0.156434476 1.09872961 0
v 0 1.11104131 0
v -0.293892652 1.06209779 0.0954915062
v -0.47552827 0.92005825 0.345491529
v -0.47552827 0.698826492 0.654508531
v -0.293892622 0.42005825 0.904508591
v -0.148778036 1.09872961 0.0483409129
v 0 1.11104131 0
v -0.367286056 1.00204778 0.266848952
v -0.415626913 0.818148017 0.572061419
v -0.275336146 0.565031767 0.847397625
v -0.25 1.06209779 0.181635648
v -0.345491499 0.92005825 0.4755283
v -0.249999985 0.698826492 0.769420981
v -0.126558155 1.09872961 0.0919498876
v 0 1.11104131 0
v -0.266848922 1.00204778 0.367286086
v -0.21850799 0.818148017 0.672498584
v -0.181635633 1.06209779 0.25000003
v -0.181635618 0.92005825 0.559017062
v -0.0919498801 1.09872961 0.126558155
v 0 1.11104131 0
v -0.140290782 1.00204778 0.431770682
v -0.0954914987 1.06209779 0.293892652
v -0.0483409092 1.09872961 0.148778036
v 0 1.11104131 0
v 2.41105855e-08 0.698826492 0.809017122
v 2.10734239e-08 0.818148017 0.707106829
v 1.75173653e-08 0.92005825 0.587785304
v 1.35299718e-08 1.00204778 0.453990579
v 9.20942433e-09 1.06209779 0.309017032
v 2.65540638e-08 0.565031767 0.891006649
v 4.6621107e-09 1.09872961 0.156434491
v 0 1.11104131 0
v 2.83436936e-08 0.42005825 0.951056659
v 2.9435407e-08 0.267475635 0.987688482
v 2.98023224e-08 0.172215104 1.00000012
v 2.9435407e-08 0.126057491 0.987688482
v 2.83436936e-08 0.0783384591 0.951056659
v 2.65540638e-08 0.049820438 0.891006649
v 2.41105855e-08 0.0331616551 0.809017122
v 2.10734239e-08 0.0222084075 0.707106829
v 1.75173653e-08 0.0128532201 0.587785304
v 0.140290812 0.00948406756 0.431770712
v 0.181635663 0.0128532201 0.559017062
v 0.21850805 0.0222084075 0.672498584
v 0.25000006 0.0331616551 0.769420981
v 0.275336206 0.049820438 0.847397685
v 0.181635678 0.00648202002 0.25000006
v 0.126558185 0.00465328991 0.091949895
v 0.266848981 0.00948406756 0.367286116
v 0.25000006 0.00648202002 0.181635678
v 0.148778066 0.00465328991 0.0483409241
v 0.345491558 0.0128532201 0.47552833
v 0.415627003 0.0222084075 0.572061479
v 0.293892711 0.00648202002 0.0954915285
v 0.156434521 0.00465328991 0
v 0.367286116 0.00948406756 0.266848981
v 0.309017062 0.00648202002 0
v 0.148778066 0.00465328991 -0.0483409241
v 0.475528359 0.0128532201 0.345491558
v 0.431770772 0.00948406756 0.140290812
v 0.475528359 0.0331616551 0.654508591
v 0.293892711 0.00648202002 -0.0954915285
v 0.126558185 0.00465328991 -0.0919499025
v 0.453990638 0.00948406756 0
v 0.559017122 0.0128532201 0.181635663
v 0.572061539 0.0222084075 0.415627003
v 0.250000089 0.00648202002 -0.181635693
v 0.0919499174 0.00465328991 -0.1265582
v 0.431770772 0.00948406756 -0.140290812
v 0.587785363 0.0128532201 0
v 0.672498703 0.0222084075 0.21850805
v 0.65450865 0.0331616551 0.475528359
v 0.181635708 0.00648202002 -0.250000089
v 0.0483409353 0.00465328991 -0.148778096
v 0.367286146 0.00948406756 -0.266849011
v 0.559017122 0.0128532201 -0.181635663
v 0.707106948 0.0222084075 0
v 0.0954915509 0.00648202002 -0.293892771
v 0 0.00465328991 -0.156434551
v 0.266849041 0.00948406756 -0.367286175
v 0.475528389 0.0128532201 -0.345491588
v 0 0.00648202002 -0.309017152
v -0.0483409353 0.00465328991 -0.148778111
v 0.140290856 0.00948406756 -0.431770831
v -0.0954915509 0.00648202002 -0.293892801
v -0.0919499323 0.00465328991 -0.126558229
v 0.769421101 0.0331616551 0.25000006
v 0.672498703 0.0222084075 -0.21850805
v 0.345491648 0.0128532201 -0.475528419
v 0 0.00948406756 -0.453990728
v -0.181635737 0.00648202002 -0.250000149
v -0.126558229 0.00465328991 -0.0919499323
v 0.809017181 0.0331616551 0
v 0.572061539 0.0222084075 -0.415627062
v 0.181635723 0.0128532201 -0.559017241
v -0.140290856 0.00948406756 -0.431770861
v -0.250000179 0.00648202002 -0.181635737
v -0.148778126 0.00465328991 -0.0483409427
v -0.293892831 0.00648202002 -0.0954915658
v -0.266849101 0.00948406756 -0.367286265
v -0.367286295 0.00948406756 -0.266849101
v -0.431770921 0.00948406756 -0.140290871
v 0 0.0128532201 -0.587785542
v 0.415627092 0.0222084075 -0.572061598
v -0.181635723 0.0128532201 -0.559017301
v -0.475528568 0.0128532201 -0.345491707
v -0.55901736 0.0128532201 -0.181635737
v -0.345491707 0.0128532201 -0.475528538
v 0.218508124 0.0222084075 -0.672498822
v -0.572061777 0.0222084075 -0.415627182
v -0.672498941 0.0222084075 -0.218508139
v 0 0.0222084075 -0.707107127
v -0.415627182 0.0222084075 -0.572061718
v -0.218508124 0.0222084075 -0.672498882
v -0.654508948 0.0331616551 -0.475528538
v -0.769421399 0.0331616551 -0.250000149
v -0.475528538 0.0331616551 -0.654508889
v -0.250000119 0.0331616551 -0.769421279
v 0 0.0331616551 -0.80901736
v 0.250000119 0.0331616551 -0.76942122
v -0.720839918 0.049820438 -0.523720801
v -0.847398102 0.049820438 -0.275336325
v -0.523720801 0.049820438 -0.720839858
v -0.275336295 0.049820438 -0.847397983
v 0 0.049820438 -0.891006947
v -0.769421399 0.0783384591 -0.55901736
v -0.904509127 0.0783384591 -0.293892801
v -0.55901736 0.0783384591 -0.769421339
v -0.293892771 0.0783384591 -0.904509008
v -0.799057186 0.126057491 -0.580549002
v -0.939348042 0.126057491 -0.305212677
v -0.580549002 0.126057491 -0.799057126
v -0.809017539 0.172215104 -0.587785602
v -0.951057136 0.172215104 -0.309017181
v 0.275336295 0.049820438 -0.847397983
v 0 0.0783384591 -0.951057017
v -0.305212647 0.126057491 -0.939347923
v -0.587785602 0.172215104 -0.809017479
v -0.799057186 0.267475635 -0.580549002
v -0.939348042 0.267475635 -0.305212677
v 0.293892771 0.0783384591 -0.904508948
v 0 0.126057491 -0.987688839
v -0.309017152 0.172215104 -0.951057017
v -0.580549002 0.267475635 -0.799057126
v -0.769421399 0.42005825 -0.55901736
v -0.904509127 0.42005825 -0.293892801
v 0.305212647 0.126057491 -0.939347863
v 0 0.172215104 -1.00000048
v -0.305212647 0.267475635 -0.939347923
v -0.55901736 0.42005825 -0.769421339
v -0.720839918 0.565031767 -0.523720801
v -0.847398102 0.565031767 -0.275336325
v 0.309017152 0.172215104 -0.951056957
v 0 0.267475635 -0.987688839
v -0.293892771 0.42005825 -0.904509008
v -0.523720801 0.565031767 -0.720839858
v -0.654508948 0.698826492 -0.475528538
v -0.769421399 0.698826492 -0.250000149
v 0.305212647 0.267475635 -0.939347863
v 0 0.42005825 -0.951057017
v -0.275336295 0.565031767 -0.847397983
v -0.475528538 0.698826492 -0.654508889
v -0.572061777 0.818148017 -0.415627182
v -0.672498941 0.818148017 -0.218508139
v 0.293892771 0.42005825 -0.904508948
v 0 0.565031767 -0.891006947
v -0.250000119 0.698826492 -0.769421279
v -0.415627182 0.818148017 -0.572061718
v -0.475528568 0.92005825 -0.345491707
v -0.55901736 0.92005825 -0.181635737
v 0.275336295 0.565031767 -0.847397983
v 0 0.698826492 -0.80901736
v -0.218508124 0.818148017 -0.672498882
v -0.345491707 0.92005825 -0.475528538
v -0.367286295 1.00204778 -0.266849101
v -0.431770921 1.00204778 -0.140290871
v 0.250000119 0.698826492 -0.76942122
v 0 0.818148017 -0.707107127
v -0.181635723 0.92005825 -0.559017301
v -0.266849101 1.00204778 -0.367286265
v -0.250000179 1.06209779 -0.181635737
v -0.293892831 1.06209779 -0.0954915658
v 0.218508124 0.818148017 -0.672498822
v 0 0.92005825 -0.587785542
v -0.140290856 1.00204778 -0.431770861
v -0.181635737 1.06209779 -0.250000149
v -0.126558229 1.09872961 -0.0919499323
v -0.148778126 1.09872961 -0.0483409427
v 0 1.11104131 0
v -0.0919499323 1.09872961 -0.126558229
v 0 1.11104131 0
v -0.0954915509 1.06209779 -0.293892801
v -0.0483409353 1.09872961 -0.148778111
v 0 1.11104131 0
v 0 1.00204778 -0.453990728
v 0 1.06209779 -0.309017152
v 0 1.09872961 -0.156434551
v 0 1.11104131 0
v 0.0483409353 1.09872961 -0.148778096
v 0 1.11104131 0
v 0.0954915509 1.06209779 -0.293892771
v 0.140290856 1.00204778 -0.431770831
v 0.0919499174 1.09872961 -0.1265582
v 0 1.11104131 0
v 0.181635708 1.06209779 -0.250000089
v 0.181635723 0.92005825 -0.559017241
v 0.266849041 1.00204778 -0.367286175
v 0.126558185 1.09872961 -0.0919499025
v 0 1.11104131 0
v 0.345491648 0.92005825 -0.475528419
v 0.250000089 1.06209779 -0.181635693
v 0.415627092 0.818148017 -0.572061598
v 0.367286146 1.00204778 -0.266849011
v 0.148778066 1.09872961 -0.0483409241
v 0 1.11104131 0
v 0.293892711 1.06209779 -0.0954915285
v 0.475528389 0.92005825 -0.345491588
v 0.475528449 0.698826492 -0.65450877
v 0.156434521 1.09872961 0
v 0 1.11104131 0
v 0.431770772 1.00204778 -0.140290812
v 0.572061539 0.818148017 -0.415627062
v 0.523720682 0.565031767 -0.720839679
v 0.309017062 1.06209779 0
v 0.559017122 0.92005825 -0.181635663
v 0.65450871 0.698826492 -0.475528389
v 0.559017241 0.42005825 -0.76942122
v 0.148778066 1.09872961 0.0483409241
v 0 1.11104131 0
v 0.453990638 1.00204778 0
v 0.672498703 0.818148017 -0.21850805
v 0.72083962 0.565031767 -0.523720622
v 0.580548882 0.267475635 -0.799056947
v 0.293892711 1.06209779 0.0954915285
v 0.587785363 0.92005825 0
v 0.769421101 0.698826492 -0.25000006
v 0.76942116 0.42005825 -0.559017181
v 0.587785482 0.172215104 -0.809017301
v 0.126558185 1.09872961 0.091949895
v 0 1.11104131 0
v 0.707106948 0.818148017 0
v 0.847397804 0.565031767 -0.275336206
v 0.799056888 0.267475635 -0.580548823
v 0.580548882 0.126057491 -0.799056947
v 0.809017181 0.698826492 0
v 0.90450877 0.42005825 -0.293892711
v 0.809017241 0.172215104 -0.587785423
v 0.559017241 0.0783384591 -0.76942122
v 0.891006768 0.565031767 0
v 0.939347684 0.267475635 -0.305212557
v 0.799056888 0.126057491 -0.580548823
v 0.523720682 0.049820438 -0.720839679
v 0.951056778 0.42005825 0
v 0.951056778 0.172215104 -0.309017062
v 0.76942116 0.0783384591 -0.559017181
v 0.475528449 0.0331616551 -0.65450877
v 0.72083962 0.049820438 -0.523720622
v 0.65450871 0.0331616551 -0.475528389
v 0.939347684 0.126057491 -0.305212557
v 0.987688601 0.267475635 0
v 0.90450877 0.0783384591 -0.293892711
v 0.769421101 0.0331616551 -0.25000006
v 0.847397804 0.049820438 -0.275336206
v 1.00000024 0.172215104 0
v 0.891006768 0.049820438 0
v 0.951056778 0.0783384591 0
v 0.987688601 0.126057491 0
v 0.847397804 0.049820438 0.275336206
v 0.90450877 0.0783384591 0.293892711
v 0.939347684 0.126057491 0.305212557
v 0.951056778 0.172215104 0.309017062
v 0.939347684 0.267475635 0.305212557
v 0.72083962 0.049820438 0.523720622
v 0.769421101 0.0783384591 0.559017122
v 0.799056828 0.126057491 0.580548763
v 0.809017181 0.172215104 0.587785363
v 0.523720622 0.049820438 0.72083956
v 0.559017122 0.0783384591 0.769421041
v 0.293892711 0.0783384591 0.90450865
v 0.305212557 0.126057491 0.939347565
v 0.580548763 0.126057491 0.799056768
v 0.309017062 0.172215104 0.951056659
v 0.587785363 0.172215104 0.809017122
v 0.305212557 0.267475635 0.939347565
v 0.580548763 0.267475635 0.799056768
v 0.293892711 0.42005825 0.90450865
v 0.799056828 0.267475635 0.580548763
v 0.559017122 0.42005825 0.769421041
v 0.275336206 0.565031767 0.847397685
v 0.769421101 0.42005825 0.559017122
v 0.523720622 0.565031767 0.72083956
v 0.25000006 0.698826492 0.769420981
v 0.90450877 0.42005825 0.293892711
v 0.72083962 0.565031767 0.523720622
v 0.847397804 0.565031767 0.275336206
v 0.475528359 0.698826492 0.654508591
v 0.21850805 0.818148017 0.672498584
v 0.769421101 0.698826492 0.25000006
v 0.65450865 0.698826492 0.475528359
v 0.415627003 0.818148017 0.572061479
v 0.181635663 0.92005825 0.559017062
v 0.672498703 0.818148017 0.21850805
v 0.572061539 0.818148017 0.415627003
v 0.345491558 0.92005825 0.47552833
v 0.140290812 1.00204778 0.431770712
v 0.559017122 0.92005825 0.181635663
v 0.475528359 0.92005825 0.345491558
v 0.266848981 1.00204778 0.367286116
v 0.0954915285 1.06209779 0.293892682
v 0.431770772 1.00204778 0.140290812
v 0.367286116 1.00204778 0.266848981
v 0.25000006 1.06209779 0.181635678
v 0.181635678 1.06209779 0.25000006
v 0.0483409241 1.09872961 0.148778051
v 0 1.11104131 0
v 0.091949895 1.09872961 0.12655817
v 0 1.11104131 0
v 0 1.11104131 0
vt 0.950000167 0.0500000007
vt 1.00000012 0.100000001
vt 1.00000012 0.0500000007
vt 0.950000167 0.100000001
vt 0.900000155 0.0500000007
vt 1.00000012 0.150000006
vt 0.900000155 0.100000001
vt 0.850000143 0.0500000007
vt 0.950000167 0.150000006
vt 1.00000012 0.200000003
vt 0.850000143 0.100000001
vt 0.800000131 0.0500000007
vt 0.900000155 0.150000006
vt 0.950000167 0.200000003
vt 1.00000012 0.25
vt 0.800000131 0.100000001
vt 0.750000119 0.0500000007
vt 0.850000143 0.150000006
vt 0.900000155 0.200000003
vt 0.950000167 0.25
vt 1.00000012 0.300000012
vt 0.750000119 0.100000001
vt 0.700000107 0.0500000007
vt 0.800000131 0.150000006
vt 0.850000143 0.200000003
vt 0.900000155 0.25
vt 0.950000167 0.300000012
vt 1.00000012 0.350000024
vt 0.700000107 0.100000001
vt 0.650000095 0.0500000007
vt 0.750000119 0.150000006
vt 0.800000131 0.200000003
vt 0.850000143 0.25
vt 0.900000155 0.300000012
vt 0.950000167 0.350000024
vt 1.00000012 0.400000036
vt 0.650000095 0.100000001
vt 0.600000083 0.0500000007
vt 0.700000107 0.150000006
vt 0.750000119 0.200000003
vt 0.800000131 0.25
vt 0.850000143 0.300000012
vt 0.900000155 0.350000024
vt 0.950000167 0.400000036
vt 1.00000012 0.450000048
vt 0.950000167 0.450000048
vt 1.00000012 0.50000006
vt 0.900000155 0.400000036
vt 0.850000143 0.350000024
vt 0.800000131 0.300000012
vt 0.750000119 0.25
vt 0.950000167 0.50000006
vt 1.00000012 0.550000072
vt 0.900000155 0.450000048
vt 0.850000143 0.400000036
vt 0.800000131 0.350000024
vt 0.950000167 0.550000072
vt 1.00000012 0.600000083
vt 0.900000155 0.50000006
vt 0.850000143 0.450000048
vt 0.950000167 0.600000083
vt 1.00000012 0.650000095
vt 0.900000155 0.550000072
vt 0.950000167 0.650000095
vt 1.00000012 0.700000107
vt 0.750000119 0.300000012
vt 0.800000131 0.400000036
vt 0.850000143 0.50000006
vt 0.900000155 0.600000083
vt 0.950000167 0.700000107
vt 1.00000012 0.750000119
vt 0.750000119 0.350000024
vt 0.800000131 0.450000048
vt 0.850000143 0.550000072
vt 0.900000155 0.650000095
vt 0.950000167 0.750000119
vt 1.00000012 0.800000131
vt 0.750000119 0.400000036
vt 0.800000131 0.50000006
vt 0.850000143 0.600000083
vt 0.900000155 0.700000107
vt 0.950000167 0.800000131
vt 1.00000012 0.850000143
vt 0.750000119 0.450000048
vt 0.800000131 0.550000072
vt 0.850000143 0.650000095
vt 0.900000155 0.750000119
vt 0.950000167 0.850000143
vt 1.00000012 0.900000155
vt 0.750000119 0.50000006
vt 0.800000131 0.600000083
vt 0.850000143 0.700000107
vt 0.900000155 0.800000131
vt 0.950000167 0.900000155
vt 1.00000012 0.950000167
vt 0.750000119 0.550000072
vt 0.800000131 0.650000095
vt 0.850000143 0.750000119
vt 0.900000155 0.850000143
vt 0.950000167 0.950000167
vt 0.974999964 1
vt 0.900000155 0.900000155
vt 0.850000143 0.800000131
vt 0.800000131 0.700000107
vt 0.750000119 0.600000083
vt 0.900000155 0.950000167
vt 0.925000012 1
vt 0.850000143 0.850000143
vt 0.800000131 0.750000119
vt 0.750000119 0.650000095
vt 0.850000143 0.900000155
vt 0.800000131 0.800000131
vt 0.750000119 0.700000107
vt 0.850000143 0.950000167
vt 0.875 1
vt 0.800000131 0.850000143
vt 0.750000119 0.750000119
vt 0.800000131 0.900000155
vt 0.750000119 0.800000131
vt 0.800000131 0.950000167
vt 0.824999988 1
vt 0.750000119 0.850000143
vt 0.750000119 0.900000155
vt 0.750000119 0.950000167
vt 0.774999976 1
vt 0.700000107 0.700000107
vt 0.700000107 0.750000119
vt 0.700000107 0.800000131
vt 0.700000107 0.850000143
vt 0.700000107 0.900000155
vt 0.700000107 0.650000095
vt 0.700000107 0.950000167
vt 0.724999964 1
vt 0.700000107 0.600000083
vt 0.700000107 0.550000072
vt 0.700000107 0.50000006
vt 0.700000107 0.450000048
vt 0.700000107 0.400000036
vt 0.700000107 0.350000024
vt 0.700000107 0.300000012
vt 0.700000107 0.25
vt 0.700000107 0.200000003
vt 0.650000095 0.150000006
vt 0.650000095 0.200000003
vt 0.650000095 0.25
vt 0.650000095 0.300000012
vt 0.650000095 0.350000024
vt 0.600000083 0.100000001
vt 0.550000072 0.0500000007
vt 0.600000083 0.150000006
vt 0.550000072 0.100000001
vt 0.50000006 0.0500000007
vt 0.600000083 0.200000003
vt 0.600000083 0.25
vt 0.50000006 0.100000001
vt 0.450000048 0.0500000007
vt 0.550000072 0.150000006
vt 0.450000048 0.100000001
vt 0.400000036 0.0500000007
vt 0.550000072 0.200000003
vt 0.50000006 0.150000006
vt 0.600000083 0.300000012
vt 0.400000036 0.100000001
vt 0.350000024 0.0500000007
vt 0.450000048 0.150000006
vt 0.50000006 0.200000003
vt 0.550000072 0.25
vt 0.350000024 0.100000001
vt 0.300000012 0.0500000007
vt 0.400000036 0.150000006
vt 0.450000048 0.200000003
vt 0.50000006 0.25
vt 0.550000072 0.300000012
vt 0.300000012 0.100000001
vt 0.25 0.0500000007
vt 0.350000024 0.150000006
vt 0.400000036 0.200000003
vt 0.450000048 0.25
vt 0.25 0.100000001
vt 0.200000003 0.0500000007
vt 0.300000012 0.150000006
vt 0.350000024 0.200000003
vt 0.200000003 0.100000001
vt 0.150000006 0.0500000007
vt 0.25 0.150000006
vt 0.150000006 0.100000001
vt 0.100000001 0.0500000007
vt 0.50000006 0.300000012
vt 0.400000036 0.25
vt 0.300000012 0.200000003
vt 0.200000003 0.150000006
vt 0.100000001 0.100000001
vt 0.0500000007 0.0500000007
vt 0.450000048 0.300000012
vt 0.350000024 0.25
vt 0.25 0.200000003
vt 0.150000006 0.150000006
vt 0.0500000007 0.100000001
vt 0 0.0500000007
vt 0 0.100000001
vt 0.100000001 0.150000006
vt 0.0500000007 0.150000006
vt 0 0.150000006
vt 0.200000003 0.200000003
vt 0.300000012 0.25
vt 0.150000006 0.200000003
vt 0.0500000007 0.200000003
vt 0 0.200000003
vt 0.100000001 0.200000003
vt 0.25 0.25
vt 0.0500000007 0.25
vt 0 0.25
vt 0.200000003 0.25
vt 0.100000001 0.25
vt 0.150000006 0.25
vt 0.0500000007 0.300000012
vt 0 0.300000012
vt 0.100000001 0.300000012
vt 0.150000006 0.300000012
vt 0.200000003 0.300000012
vt 0.25 0.300000012
vt 0.0500000007 0.350000024
vt 0 0.350000024
vt 0.100000001 0.350000024
vt 0.150000006 0.350000024
vt 0.200000003 0.350000024
vt 0.0500000007 0.400000036
vt 0 0.400000036
vt 0.100000001 0.400000036
vt 0.150000006 0.400000036
vt 0.0500000007 0.450000048
vt 0 0.450000048
vt 0.100000001 0.450000048
vt 0.0500000007 0.50000006
vt 0 0.50000006
vt 0.25 0.350000024
vt 0.200000003 0.400000036
vt 0.150000006 0.450000048
vt 0.100000001 0.50000006
vt 0.0500000007 0.550000072
vt 0 0.550000072
vt 0.25 0.400000036
vt 0.200000003 0.450000048
vt 0.150000006 0.50000006
vt 0.100000001 0.550000072
vt 0.0500000007 0.600000083
vt 0 0.600000083
vt 0.25 0.450000048
vt 0.200000003 0.50000006
vt 0.150000006 0.550000072
vt 0.100000001 0.600000083
vt 0.0500000007 0.650000095
vt 0 0.650000095
vt 0.25 0.50000006
vt 0.200000003 0.550000072
vt 0.150000006 0.600000083
vt 0.100000001 0.650000095
vt 0.0500000007 0.700000107
vt 0 0.700000107
vt 0.25 0.550000072
vt 0.200000003 0.600000083
vt 0.150000006 0.650000095
vt 0.100000001 0.700000107
vt 0.0500000007 0.750000119
vt 0 0.750000119
vt 0.25 0.600000083
vt 0.200000003 0.650000095
vt 0.150000006 0.700000107
vt 0.100000001 0.750000119
vt 0.0500000007 0.800000131
vt 0 0.800000131
vt 0.25 0.650000095
vt 0.200000003 0.700000107
vt 0.150000006 0.750000119
vt 0.100000001 0.800000131
vt 0.0500000007 0.850000143
vt 0 0.850000143
vt 0.25 0.700000107
vt 0.200000003 0.750000119
vt 0.150000006 0.800000131
vt 0.100000001 0.850000143
vt 0.0500000007 0.900000155
vt 0 0.900000155
vt 0.25 0.750000119
vt 0.200000003 0.800000131
vt 0.150000006 0.850000143
vt 0.100000001 0.900000155
vt 0.0500000007 0.950000167
vt 0 0.950000167
vt 0.0250000004 1
vt 0.100000001 0.950000167
vt 0.075000003 1
vt 0.150000006 0.900000155
vt 0.150000006 0.950000167
vt 0.125 1
vt 0.200000003 0.850000143
vt 0.200000003 0.900000155
vt 0.200000003 0.950000167
vt 0.175000012 1
vt 0.25 0.950000167
vt 0.225000009 1
vt 0.25 0.900000155
vt 0.25 0.850000143
vt 0.300000012 0.950000167
vt 0.275000006 1
vt 0.300000012 0.900000155
vt 0.25 0.800000131
vt 0.300000012 0.850000143
vt 0.350000024 0.950000167
vt 0.325000018 1
vt 0.300000012 0.800000131
vt 0.350000024 0.900000155
vt 0.300000012 0.750000119
vt 0.350000024 0.850000143
vt 0.400000036 0.950000167
vt 0.375 1
vt 0.400000036 0.900000155
vt 0.350000024 0.800000131
vt 0.300000012 0.700000107
vt 0.450000048 0.950000167
vt 0.425000012 1
vt 0.400000036 0.850000143
vt 0.350000024 0.750000119
vt 0.300000012 0.650000095
vt 0.450000048 0.900000155
vt 0.400000036 0.800000131
vt 0.350000024 0.700000107
vt 0.300000012 0.600000083
vt 0.50000006 0.950000167
vt 0.475000024 1
vt 0.450000048 0.850000143
vt 0.400000036 0.750000119
vt 0.350000024 0.650000095
vt 0.300000012 0.550000072
vt 0.50000006 0.900000155
vt 0.450000048 0.800000131
vt 0.400000036 0.700000107
vt 0.350000024 0.600000083
vt 0.300000012 0.50000006
vt 0.550000072 0.950000167
vt 0.524999976 1
vt 0.450000048 0.750000119
vt 0.400000036 0.650000095
vt 0.350000024 0.550000072
vt 0.300000012 0.450000048
vt 0.450000048 0.700000107
vt 0.400000036 0.600000083
vt 0.350000024 0.50000006
vt 0.300000012 0.400000036
vt 0.450000048 0.650000095
vt 0.400000036 0.550000072
vt 0.350000024 0.450000048
vt 0.300000012 0.350000024
vt 0.450000048 0.600000083
vt 0.400000036 0.50000006
vt 0.350000024 0.400000036
vt 0.300000012 0.300000012
vt 0.350000024 0.350000024
vt 0.350000024 0.300000012
vt 0.400000036 0.450000048
vt 0.450000048 0.550000072
vt 0.400000036 0.400000036
vt 0.400000036 0.300000012
vt 0.400000036 0.350000024
vt 0.450000048 0.50000006
vt 0.450000048 0.350000024
vt 0.450000048 0.400000036
vt 0.450000048 0.450000048
vt 0.50000006 0.350000024
vt 0.50000006 0.400000036
vt 0.50000006 0.450000048
vt 0.50000006 0.50000006
vt 0.50000006 0.550000072
vt 0.550000072 0.350000024
vt 0.550000072 0.400000036
vt 0.550000072 0.450000048
vt 0.550000072 0.50000006
vt 0.600000083 0.350000024
vt 0.600000083 0.400000036
vt 0.650000095 0.400000036
vt 0.650000095 0.450000048
vt 0.600000083 0.450000048
vt 0.650000095 0.50000006
vt 0.600000083 0.50000006
vt 0.650000095 0.550000072
vt 0.600000083 0.550000072
vt 0.650000095 0.600000083
vt 0.550000072 0.550000072
vt 0.600000083 0.600000083
vt 0.650000095 0.650000095
vt 0.550000072 0.600000083
vt 0.600000083 0.650000095
vt 0.650000095 0.700000107
vt 0.50000006 0.600000083
vt 0.550000072 0.650000095
vt 0.50000006 0.650000095
vt 0.600000083 0.700000107
vt 0.650000095 0.750000119
vt 0.50000006 0.700000107
vt 0.550000072 0.700000107
vt 0.600000083 0.750000119
vt 0.650000095 0.800000131
vt 0.50000006 0.750000119
vt 0.550000072 0.750000119
vt 0.600000083 0.800000131
vt 0.650000095 0.850000143
vt 0.50000006 0.800000131
vt 0.550000072 0.800000131
vt 0.600000083 0.850000143
vt 0.650000095 0.900000155
vt 0.50000006 0.850000143
vt 0.550000072 0.850000143
vt 0.550000072 0.900000155
vt 0.600000083 0.900000155
vt 0.650000095 0.950000167
vt 0.675000012 1
vt 0.600000083 0.950000167
vt 0.574999988 1
vt 0.625 1
vn -0.200361207 -0.979722083 0
vn -0.317251682 -0.942722499 -0.103081062
vn -0.190554842 -0.979722083 -0.0619152486
vn -0.333578169 -0.94272244 0
vn -0.190554842 -0.979722083 0.0619153976
vn -0.447711557 -0.882265806 -0.145469978
vn -0.317251742 -0.94272244 0.103081502
vn -0.162095651 -0.979722083 0.117769413
vn -0.470751822 -0.882265687 0
vn -0.570314407 -0.800251901 -0.18530573
vn -0.2698704 -0.94272244 0.196072489
vn -0.11776939 -0.979722083 0.162095621
vn -0.447711617 -0.882265627 0.145470247
vn -0.599664092 -0.800251842 0
vn -0.680317819 -0.698788702 -0.221047819
vn -0.196072295 -0.94272244 0.26987046
vn -0.0619150586 -0.979722083 0.190554604
vn -0.380846232 -0.882265627 0.276701182
vn -0.570314467 -0.800251782 0.18530637
vn -0.715328395 -0.698788464 0
vn -0.774475098 -0.580400646 -0.251641303
vn -0.10308136 -0.94272244 0.317251652
vn 0 -0.979722202 0.200360805
vn -0.276700974 -0.882265627 0.380846232
vn -0.485138476 -0.800251782 0.352473825
vn -0.6803177 -0.698788464 0.221048579
vn -0.814331174 -0.580400527 0
vn -0.850279689 -0.447993606 -0.276271671
vn 0 -0.94272244 0.333578199
vn 0.0619149953 -0.979722083 0.190554664
vn -0.145470336 -0.882265627 0.447711617
vn -0.352473795 -0.800251722 0.485138625
vn -0.578712881 -0.698788464 0.420459479
vn -0.774474978 -0.580400527 0.251642078
vn -0.894036829 -0.447993547 0
vn -0.905805647 -0.304788619 -0.294313103
vn 0.103081279 -0.94272244 0.317251682
vn 0.117769346 -0.979722083 0.162095472
vn 0 -0.882265627 0.470752001
vn -0.18530637 -0.800251782 0.570314467
vn -0.420459569 -0.698788345 0.578712821
vn -0.658807755 -0.580400527 0.478651762
vn -0.85027957 -0.447993636 0.276272535
vn -0.952420115 -0.304788411 0
vn -0.939674616 -0.154248685 -0.305317789
vn -0.988031983 -0.15424861 0
vn -0.951056778 0 -0.309016049
vn -0.905805349 -0.3047885 0.294313937
vn -0.723291039 -0.447993547 0.525501609
vn -0.478651941 -0.580400586 0.658807695
vn -0.221048698 -0.698788524 0.68031764
vn -1 0 0
vn -0.939674616 0.15424867 -0.305317789
vn -0.939674318 -0.154248551 0.305318683
vn -0.770524025 -0.30478856 0.559818447
vn -0.525501609 -0.447993547 0.72329098
vn -0.988031983 0.15424861 0
vn -0.905805528 0.304788619 -0.294313073
vn -0.95105654 0 0.309017062
vn -0.799334764 -0.154248595 0.580750644
vn -0.952420056 0.3047885 0
vn -0.850279689 0.447993606 -0.276271671
vn -0.939674318 0.154248551 0.305318683
vn -0.894036829 0.447993606 0
vn -0.774475038 0.580400705 -0.251641303
vn -0.251642257 -0.580400586 0.774474919
vn -0.559818447 -0.304788589 0.770523965
vn -0.809017003 0 0.587785244
vn -0.905805349 0.30478847 0.294313937
vn -0.814331174 0.580400527 0
vn -0.68031776 0.698788702 -0.221047848
vn -0.276272625 -0.447993547 0.85027945
vn -0.580750644 -0.154248551 0.799334764
vn -0.799334764 0.15424861 0.580750704
vn -0.85027957 0.447993606 0.276272535
vn -0.715328455 0.698788464 0
vn -0.570314467 0.800251901 -0.185305819
vn -0.294314086 -0.304788619 0.90580523
vn -0.587785244 0 0.809017003
vn -0.770524025 0.30478856 0.559818447
vn -0.774474978 0.580400527 0.251642048
vn -0.599664092 0.800251842 0
vn -0.447711498 0.882265806 -0.145469949
vn -0.305318713 -0.15424861 0.939674318
vn -0.580750644 0.154248595 0.799334645
vn -0.723291039 0.447993606 0.525501549
vn -0.6803177 0.698788464 0.221048594
vn -0.470751822 0.882265687 0
vn -0.317251652 0.942722499 -0.103081048
vn -0.309017032 0 0.95105654
vn -0.559818387 0.304788589 0.770523965
vn -0.658807695 0.580400646 0.478651822
vn -0.570314467 0.800251842 0.185306475
vn -0.33357814 0.94272244 0
vn -0.190554842 0.979722083 -0.0619148277
vn -0.305318773 0.15424864 0.939674318
vn -0.525501549 0.447993606 0.72329098
vn -0.578712821 0.698788464 0.420459569
vn -0.447711617 0.882265627 0.145470351
vn -0.200361162 0.979722083 0
vn 0 1 0
vn -0.317251742 0.94272244 0.103081398
vn -0.485138565 0.800251722 0.352473766
vn -0.478651881 0.580400646 0.658807695
vn -0.294314057 0.304788619 0.90580523
vn -0.190554872 0.979722083 0.061915148
vn 0 1 0
vn -0.380846262 0.882265627 0.276701093
vn -0.420459479 0.698788404 0.578712881
vn -0.276272595 0.447993577 0.85027945
vn -0.26987043 0.94272244 0.1960724
vn -0.352473795 0.800251722 0.485138565
vn -0.251642287 0.580400646 0.77447474
vn -0.162095666 0.979722083 0.117768958
vn 0 1 0
vn -0.276700974 0.882265627 0.380846232
vn -0.221048698 0.698788524 0.68031764
vn -0.196072325 0.94272244 0.2698704
vn -0.18530634 0.800251782 0.570314527
vn -0.11776939 0.979722083 0.162095562
vn 0 1 0
vn -0.145470381 0.882265627 0.447711736
vn -0.103081375 0.94272244 0.317251652
vn -0.0619150586 0.979722083 0.190554753
vn 0 1 0
vn 0 0.580400646 0.814331055
vn 0 0.698788464 0.715328395
vn 0 0.800251842 0.599664092
vn 0 0.882265508 0.47075209
vn 0 0.94272244 0.333578169
vn 0 0.447993606 0.894036829
vn 0 0.979722202 0.200360745
vn 0 1 0
vn 0 0.304788589 0.952420056
vn 0 0.154248625 0.988031983
vn 0 0 1
vn 0 -0.154248625 0.988031983
vn 0 -0.304788589 0.952420056
vn 0 -0.447993606 0.894036829
vn 0 -0.580400527 0.814331174
vn 0 -0.698788524 0.715328395
vn 0 -0.800251842 0.599664092
vn 0.145470262 -0.882265627 0.447711736
vn 0.185306296 -0.800251842 0.570314467
vn 0.221048564 -0.698788464 0.680317819
vn 0.251642108 -0.580400527 0.774474978
vn 0.276272535 -0.447993636 0.85027957
vn 0.196072325 -0.94272244 0.269870371
vn 0.162095591 -0.979722083 0.117769167
vn 0.276700914 -0.882265627 0.380846262
vn 0.2698704 -0.942722499 0.196072072
vn 0.190554827 -0.979722083 0.0619153678
vn 0.352473676 -0.800251782 0.485138506
vn 0.42045939 -0.698788464 0.578712881
vn 0.317251682 -0.94272244 0.103081353
vn 0.200361177 -0.979722083 0
vn 0.380846232 -0.882265627 0.276700974
vn 0.333578199 -0.94272244 0
vn 0.190554813 -0.979722083 -0.0619153604
vn 0.485138327 -0.800251782 0.352473855
vn 0.447711676 -0.882265627 0.145470336
vn 0.478651702 -0.580400646 0.658807755
vn 0.317251682 -0.94272244 -0.10308145
vn 0.162095621 -0.979722083 -0.117769599
vn 0.470751941 -0.882265627 0
vn 0.570314407 -0.800251842 0.185306445
vn 0.578712761 -0.698788464 0.420459539
vn 0.2698704 -0.94272244 -0.196072251
vn 0.11776939 -0.979722023 -0.162095964
vn 0.447711587 -0.882265687 -0.145470202
vn 0.599664032 -0.800251842 0
vn 0.6803177 -0.698788643 0.221048594
vn 0.658807576 -0.580400705 0.478651851
vn 0.19607234 -0.94272244 -0.26987052
vn 0.0619150326 -0.979722083 -0.190554976
vn 0.380846173 -0.882265687 -0.276700914
vn 0.570314407 -0.800251901 -0.185306385
vn 0.715328395 -0.698788464 0
vn 0.103081353 -0.94272244 -0.317251623
vn 0 -0.979722083 -0.200361282
vn 0.276701063 -0.882265687 -0.380846173
vn 0.485138416 -0.800251842 -0.352473736
vn 0 -0.942722499 -0.333577901
vn -0.0619149804 -0.979722083 -0.190554649
vn 0.145470366 -0.882265687 -0.447711438
vn -0.103081226 -0.942722619 -0.317251235
vn -0.117769301 -0.979722083 -0.162095234
vn 0.774474919 -0.580400705 0.251642108
vn 0.6803177 -0.698788464 -0.221048594
vn 0.352473766 -0.800251842 -0.485138327
vn 0 -0.882265687 -0.470751643
vn -0.196072176 -0.942722499 -0.269870162
vn -0.162095517 -0.979722083 -0.117769495
vn 0.814331055 -0.580400646 0
vn 0.578712761 -0.698788524 -0.420459449
vn 0.185306519 -0.800251842 -0.570314348
vn -0.145470187 -0.882265806 -0.447711408
vn -0.269870281 -0.942722499 -0.196072266
vn -0.190554842 -0.979722083 -0.0619152486
vn -0.317251682 -0.942722499 -0.103081062
vn -0.276700824 -0.882265806 -0.380846083
vn -0.380846053 -0.882265687 -0.276700974
vn -0.447711557 -0.882265806 -0.145469978
vn 0 -0.800251842 -0.599664092
vn 0.420459509 -0.698788524 -0.578712642
vn -0.185306281 -0.800251901 -0.570314288
vn -0.485138208 -0.800251901 -0.352473736
vn -0.570314407 -0.800251901 -0.18530573
vn -0.352473468 -0.800251901 -0.485138386
vn 0.221048757 -0.698788524 -0.680317581
vn -0.578712523 -0.698788702 -0.420459419
vn -0.680317819 -0.698788702 -0.221047819
vn 0 -0.698788524 -0.715328336
vn -0.42045927 -0.698788643 -0.578712821
vn -0.221048549 -0.698788524 -0.68031764
vn -0.658807576 -0.580400825 -0.478651792
vn -0.774475098 -0.580400646 -0.251641303
vn -0.478651673 -0.580400765 -0.658807755
vn -0.251641989 -0.580400646 -0.774474919
vn 0 -0.580400705 -0.814331055
vn 0.251642287 -0.580400765 -0.77447474
vn -0.72329092 -0.447993606 -0.525501668
vn -0.850279689 -0.447993606 -0.276271671
vn -0.52550143 -0.447993636 -0.723291039
vn -0.276272327 -0.447993785 -0.85027945
vn 0 -0.447993815 -0.89403671
vn -0.770523965 -0.304788589 -0.559818506
vn -0.905805647 -0.304788619 -0.294313103
vn -0.559818268 -0.304788649 -0.770524085
vn -0.294313788 -0.304788679 -0.90580523
vn -0.799334645 -0.15424858 -0.580750644
vn -0.939674616 -0.154248685 -0.305317789
vn -0.580750525 -0.154248714 -0.799334884
vn -0.809017003 0 -0.587785244
vn -0.951056778 0 -0.309016049
vn 0.276272714 -0.447993815 -0.850279391
vn 0 -0.304788679 -0.952420056
vn -0.305318505 -0.154248714 -0.939674437
vn -0.587785065 0 -0.809017122
vn -0.799334645 0.154248551 -0.580750644
vn -0.939674616 0.15424867 -0.305317789
vn 0.294314146 -0.304788619 -0.90580523
vn 0 -0.15424861 -0.988031983
vn -0.309016705 0 -0.95105654
vn -0.580750525 0.1542487 -0.799334884
vn -0.770523906 0.304788649 -0.559818566
vn -0.905805528 0.304788619 -0.294313073
vn 0.305318922 -0.15424867 -0.939674318
vn 0 0 -1
vn -0.305318505 0.1542487 -0.939674437
vn -0.559818268 0.304788679 -0.770524085
vn -0.723290861 0.447993755 -0.525501668
vn -0.850279689 0.447993606 -0.276271671
vn 0.309017241 0 -0.95105648
vn 0 0.154248625 -0.988031983
vn -0.294313788 0.304788679 -0.90580523
vn -0.52550143 0.447993726 -0.723291039
vn -0.658807516 0.580400825 -0.478651732
vn -0.774475038 0.580400705 -0.251641303
vn 0.305318922 0.15424867 -0.939674318
vn 0 0.304788709 -0.952420056
vn -0.276272357 0.447993726 -0.85027945
vn -0.478651613 0.580400765 -0.658807695
vn -0.578712463 0.698788762 -0.420459509
vn -0.68031776 0.698788702 -0.221047848
vn 0.294314146 0.304788649 -0.905805171
vn 0 0.447993815 -0.89403671
vn -0.251641959 0.580400646 -0.774474919
vn -0.42045927 0.698788643 -0.578712761
vn -0.485138148 0.800251901 -0.352473885
vn -0.570314467 0.800251901 -0.185305819
vn 0.276272625 0.447993785 -0.850279272
vn 0 0.580400705 -0.814330935
vn -0.221048549 0.698788524 -0.6803177
vn -0.352473497 0.800251901 -0.485138506
vn -0.380846083 0.882265687 -0.276701182
vn -0.447711498 0.882265806 -0.145469949
vn 0.251642257 0.580400765 -0.77447474
vn 0 0.698788524 -0.715328336
vn -0.185306296 0.800251901 -0.570314288
vn -0.276700824 0.882265627 -0.380846381
vn -0.269870251 0.94272244 -0.196072519
vn -0.317251652 0.942722499 -0.103081048
vn 0.221048728 0.698788524 -0.68031764
vn 0 0.800251901 -0.599663913
vn -0.145470157 0.882265687 -0.447711438
vn -0.196072191 0.94272244 -0.269870609
vn -0.162095502 0.979722083 -0.1177691
vn -0.190554842 0.979722083 -0.0619148277
vn 0 1 0
vn -0.117769286 0.979722083 -0.162095502
vn 0 1 0
vn -0.103081226 0.942722499 -0.317251474
vn -0.0619149804 0.979722083 -0.190554887
vn 0 1 0
vn 0 0.882265806 -0.470751613
vn 0 0.942722619 -0.333577752
vn 0 0.979722083 -0.200361177
vn 0 1 0
vn 0.06191504 0.979722083 -0.190554842
vn 0 1 0
vn 0.103081346 0.942722499 -0.317251384
vn 0.145470381 0.882265806 -0.447711349
vn 0.117769375 0.979722083 -0.162095457
vn 0 1 0
vn 0.19607237 0.942722499 -0.269870311
vn 0.185306504 0.800251842 -0.570314348
vn 0.276701003 0.882265687 -0.380845994
vn 0.162095577 0.979722083 -0.117768869
vn 0 1 0
vn 0.352473795 0.800251842 -0.485138357
vn 0.2698704 0.942722499 -0.196072042
vn 0.420459509 0.698788524 -0.578712642
vn 0.380846232 0.882265687 -0.276700824
vn 0.190554783 0.979722083 -0.0619150884
vn 0 1 0
vn 0.317251682 0.94272244 -0.103081338
vn 0.485138416 0.800251842 -0.352473617
vn 0.478651971 0.580400705 -0.658807516
vn 0.200361177 0.979722083 0
vn 0 1 0
vn 0.447711587 0.882265687 -0.145470306
vn 0.578712761 0.698788643 -0.42045933
vn 0.525501788 0.447993726 -0.723290741
vn 0.333578169 0.94272244 0
vn 0.570314407 0.800251901 -0.18530637
vn 0.658807755 0.580400646 -0.478651702
vn 0.559818625 0.304788649 -0.770523906
vn 0.190554827 0.979722083 0.0619153753
vn 0 1 0
vn 0.470751941 0.882265627 0
vn 0.6803177 0.698788643 -0.221048594
vn 0.723291039 0.447993696 -0.52550143
vn 0.580750942 0.15424861 -0.799334526
vn 0.317251652 0.94272244 0.103081591
vn 0.599664032 0.800251842 0
vn 0.774474919 0.580400705 -0.251642078
vn 0.770524085 0.304788589 -0.559818268
vn 0.587785423 0 -0.809016824
vn 0.162095651 0.979722083 0.117769398
vn 0 1 0
vn 0.715328395 0.698788524 0
vn 0.85027945 0.447993726 -0.276272506
vn 0.799334824 0.154248565 -0.580750525
vn 0.580750942 -0.15424861 -0.799334526
vn 0.814331055 0.580400646 0
vn 0.90580523 0.304788589 -0.294313908
vn 0.809017062 0 -0.587785184
vn 0.559818566 -0.304788649 -0.770523787
vn 0.89403671 0.447993755 0
vn 0.939674437 0.154248461 -0.305318624
vn 0.799334824 -0.154248536 -0.580750585
vn 0.525501788 -0.447993755 -0.723290741
vn 0.952420056 0.304788679 0
vn 0.95105654 0 -0.309016973
vn 0.770524085 -0.304788649 -0.559818327
vn 0.478651971 -0.580400705 -0.658807516
vn 0.72329098 -0.447993696 -0.52550143
vn 0.658807814 -0.580400586 -0.478651673
vn 0.939674437 -0.154248461 -0.305318654
vn 0.988032103 0.154248297 0
vn 0.90580523 -0.304788589 -0.294313908
vn 0.774474919 -0.580400586 -0.251642078
vn 0.85027945 -0.447993726 -0.276272476
vn 1 0 0
vn 0.894036651 -0.447993815 0
vn 0.952420056 -0.304788768 0
vn 0.988032103 -0.154248297 0
vn 0.850279391 -0.447993845 0.276272476
vn 0.90580523 -0.304788709 0.294314027
vn 0.939674437 -0.154248312 0.305318743
vn 0.95105654 0 0.309017092
vn 0.939674437 0.154248297 0.305318743
vn 0.723290861 -0.447993785 0.525501668
vn 0.770524025 -0.304788381 0.559818506
vn 0.799334645 -0.154248416 0.580750704
vn 0.809016883 0 0.587785304
vn 0.525501549 -0.447993636 0.72329098
vn 0.559818387 -0.304788411 0.770524085
vn 0.294313908 -0.30478853 0.905805349
vn 0.305318594 -0.1542487 0.939674437
vn 0.580750585 -0.154248595 0.799334824
vn 0.309016824 0 0.95105654
vn 0.587785184 0 0.809017062
vn 0.305318594 0.15424864 0.939674437
vn 0.580750644 0.154248565 0.799334764
vn 0.294313908 0.30478853 0.905805349
vn 0.799334645 0.154248416 0.580750704
vn 0.559818327 0.304788381 0.770524085
vn 0.276272565 0.447993636 0.85027957
vn 0.770523965 0.30478844 0.559818506
vn 0.525501549 0.447993696 0.72329098
vn 0.251642168 0.580400527 0.774474978
vn 0.90580523 0.304788589 0.294313967
vn 0.723290861 0.447993755 0.525501668
vn 0.85027945 0.447993785 0.276272506
vn 0.478651732 0.580400705 0.658807755
vn 0.221048534 0.698788464 0.680317819
vn 0.774474919 0.580400705 0.251642138
vn 0.658807576 0.580400646 0.478651881
vn 0.42045939 0.698788464 0.578712881
vn 0.185306311 0.800251901 0.570314407
vn 0.68031764 0.698788524 0.221048549
vn 0.578712761 0.698788464 0.420459539
vn 0.352473646 0.800251842 0.485138416
vn 0.145470291 0.882265627 0.447711766
vn 0.570314407 0.800251842 0.185306489
vn 0.485138327 0.800251842 0.352473766
vn 0.276700914 0.882265687 0.380846143
vn 0.103081279 0.94272244 0.317251891
vn 0.447711617 0.882265627 0.145470574
vn 0.380846202 0.882265687 0.276701003
vn 0.269870341 0.942722499 0.196072161
vn 0.19607231 0.942722499 0.269870341
vn 0.0619150028 0.979722083 0.190554678
vn 0 1 0
vn 0.117769346 0.979722083 0.162095815
vn 0 1 0
vn 0 1 0
g submesh_0
usemtl submesh_0
f 1/1/1 2/2/2 3/3/3
f 1/1/1 4/4/4 2/2/2
f 5/5/5 4/4/4 1/1/1
f 4/4/4 6/6/6 2/2/2
f 5/5/5 7/7/7 4/4/4
f 8/8/8 7/7/7 5/5/5
f 4/4/4 9/9/9 6/6/6
f 7/7/7 9/9/9 4/4/4
f 9/9/9 10/10/10 6/6/6
f 8/8/8 11/11/11 7/7/7
f 12/12/12 11/11/11 8/8/8
f 7/7/7 13/13/13 9/9/9
f 11/11/11 13/13/13 7/7/7
f 9/9/9 14/14/14 10/10/10
f 13/13/13 14/14/14 9/9/9
f 14/14/14 15/15/15 10/10/10
f 12/12/12 16/16/16 11/11/11
f 17/17/17 16/16/16 12/12/12
f 11/11/11 18/18/18 13/13/13
f 16/16/16 18/18/18 11/11/11
f 13/13/13 19/19/19 14/14/14
f 18/18/18 19/19/19 13/13/13
f 14/14/14 20/20/20 15/15/15
f 19/19/19 20/20/20 14/14/14
f 20/20/20 21/21/21 15/15/15
f 17/17/17 22/22/22 16/16/16
f 23/23/23 22/22/22 17/17/17
f 16/16/16 24/24/24 18/18/18
f 22/22/22 24/24/24 16/16/16
f 18/18/18 25/25/25 19/19/19
f 24/24/24 25/25/25 18/18/18
f 19/19/19 26/26/26 20/20/20
f 25/25/25 26/26/26 19/19/19
f 20/20/20 27/27/27 21/21/21
f 26/26/26 27/27/27 20/20/20
f 27/27/27 28/28/28 21/21/21
f 23/23/23 29/29/29 22/22/22
f 30/30/30 29/29/29 23/23/23
f 22/22/22 31/31/31 24/24/24
f 29/29/29 31/31/31 22/22/22
f 24/24/24 32/32/32 25/25/25
f 31/31/31 32/32/32 24/24/24
f 25/25/25 33/33/33 26/26/26
f 32/32/32 33/33/33 25/25/25
f 26/26/26 34/34/34 27/27/27
f 33/33/33 34/34/34 26/26/26
f 27/27/27 35/35/35 28/28/28
f 34/34/34 35/35/35 27/27/27
f 35/35/35 36/36/36 28/28/28
f 30/30/30 37/37/37 29/29/29
f 38/38/38 37/37/37 30/30/30
f 29/29/29 39/39/39 31/31/31
f 37/37/37 39/39/39 29/29/29
f 31/31/31 40/40/40 32/32/32
f 39/39/39 40/40/40 31/31/31
f 32/32/32 41/41/41 33/33/33
f 40/40/40 41/41/41 32/32/32
f 33/33/33 42/42/42 34/34/34
f 41/41/41 42/42/42 33/33/33
f 34/34/34 43/43/43 35/35/35
f 42/42/42 43/43/43 34/34/34
f 35/35/35 44/44/44 36/36/36
f 43/43/43 44/44/44 35/35/35
f 44/44/44 45/45/45 36/36/36
f 44/44/44 46/46/46 45/45/45
f 46/46/46 47/47/47 45/45/45
f 43/43/43 48/48/48 44/44/44
f 48/48/48 46/46/46 44/44/44
f 42/42/42 49/49/49 43/43/43
f 49/49/49 48/48/48 43/43/43
f 41/41/41 50/50/50 42/42/42
f 50/50/50 49/49/49 42/42/42
f 40/40/40 51/51/51 41/41/41
f 51/51/51 50/50/50 41/41/41
f 46/46/46 52/52/52 47/47/47
f 52/52/52 53/53/53 47/47/47
f 48/48/48 54/54/54 46/46/46
f 54/54/54 52/52/52 46/46/46
f 49/49/49 55/55/55 48/48/48
f 55/55/55 54/54/54 48/48/48
f 50/50/50 56/56/56 49/49/49
f 56/56/56 55/55/55 49/49/49
f 52/52/52 57/57/57 53/53/53
f 57/57/57 58/58/58 53/53/53
f 54/54/54 59/59/59 52/52/52
f 59/59/59 57/57/57 52/52/52
f 55/55/55 60/60/60 54/54/54
f 60/60/60 59/59/59 54/54/54
f 57/57/57 61/61/61 58/58/58
f 61/61/61 62/62/62 58/58/58
f 59/59/59 63/63/63 57/57/57
f 63/63/63 61/61/61 57/57/57
f 61/61/61 64/64/64 62/62/62
f 64/64/64 65/65/65 62/62/62
f 66/66/66 56/56/56 50/50/50
f 51/51/51 66/66/66 50/50/50
f 56/56/56 67/67/67 55/55/55
f 67/67/67 60/60/60 55/55/55
f 60/60/60 68/68/68 59/59/59
f 68/68/68 63/63/63 59/59/59
f 63/63/63 69/69/69 61/61/61
f 69/69/69 64/64/64 61/61/61
f 64/64/64 70/70/70 65/65/65
f 70/70/70 71/71/71 65/65/65
f 66/66/66 72/72/72 56/56/56
f 72/72/72 67/67/67 56/56/56
f 67/67/67 73/73/73 60/60/60
f 73/73/73 68/68/68 60/60/60
f 68/68/68 74/74/74 63/63/63
f 74/74/74 69/69/69 63/63/63
f 69/69/69 75/75/75 64/64/64
f 75/75/75 70/70/70 64/64/64
f 70/70/70 76/76/76 71/71/71
f 76/76/76 77/77/77 71/71/71
f 72/72/72 78/78/78 67/67/67
f 78/78/78 73/73/73 67/67/67
f 73/73/73 79/79/79 68/68/68
f 79/79/79 74/74/74 68/68/68
f 74/74/74 80/80/80 69/69/69
f 80/80/80 75/75/75 69/69/69
f 75/75/75 81/81/81 70/70/70
f 81/81/81 76/76/76 70/70/70
f 76/76/76 82/82/82 77/77/77
f 82/82/82 83/83/83 77/77/77
f 78/78/78 84/84/84 73/73/73
f 84/84/84 79/79/79 73/73/73
f 79/79/79 85/85/85 74/74/74
f 85/85/85 80/80/80 74/74/74
f 80/80/80 86/86/86 75/75/75
f 86/86/86 81/81/81 75/75/75
f 81/81/81 87/87/87 76/76/76
f 87/87/87 82/82/82 76/76/76
f 82/82/82 88/88/88 83/83/83
f 88/88/88 89/89/89 83/83/83
f 84/84/84 90/90/90 79/79/79
f 90/90/90 85/85/85 79/79/79
f 85/85/85 91/91/91 80/80/80
f 91/91/91 86/86/86 80/80/80
f 86/86/86 92/92/92 81/81/81
f 92/92/92 87/87/87 81/81/81
f 87/87/87 93/93/93 82/82/82
f 93/93/93 88/88/88 82/82/82
f 88/88/88 94/94/94 89/89/89
f 94/94/94 95/95/95 89/89/89
f 90/90/90 96/96/96 85/85/85
f 96/96/96 91/91/91 85/85/85
f 91/91/91 97/97/97 86/86/86
f 97/97/97 92/92/92 86/86/86
f 92/92/92 98/98/98 87/87/87
f 98/98/98 93/93/93 87/87/87
f 93/93/93 99/99/99 88/88/88
f 99/99/99 94/94/94 88/88/88
f 94/94/94 100/100/100 95/95/95
f 100/100/100 101/101/101 95/95/95
f 102/102/102 100/100/100 94/94/94
f 99/99/99 102/102/102 94/94/94
f 103/103/103 99/99/99 93/93/93
f 98/98/98 103/103/103 93/93/93
f 104/104/104 98/98/98 92/92/92
f 97/97/97 104/104/104 92/92/92
f 105/105/105 97/97/97 91/91/91
f 96/96/96 105/105/105 91/91/91
f 102/102/102 106/106/106 100/100/100
f 106/106/106 107/107/107 100/100/100
f 108/108/108 102/102/102 99/99/99
f 103/103/103 108/108/108 99/99/99
f 109/109/109 103/103/103 98/98/98
f 104/104/104 109/109/109 98/98/98
f 110/110/110 104/104/104 97/97/97
f 105/105/105 110/110/110 97/97/97
f 111/111/111 106/106/106 102/102/102
f 108/108/108 111/111/111 102/102/102
f 112/112/112 108/108/108 103/103/103
f 109/109/109 112/112/112 103/103/103
f 113/113/113 109/109/109 104/104/104
f 110/110/110 113/113/113 104/104/104
f 111/111/111 114/114/114 106/106/106
f 114/114/114 115/115/115 106/106/106
f 116/116/116 111/111/111 108/108/108
f 112/112/112 116/116/116 108/108/108
f 117/117/117 112/112/112 109/109/109
f 113/113/113 117/117/117 109/109/109
f 118/118/118 114/114/114 111/111/111
f 116/116/116 118/118/118 111/111/111
f 119/119/119 116/116/116 112/112/112
f 117/117/117 119/119/119 112/112/112
f 118/118/118 120/120/120 114/114/114
f 120/120/120 121/121/121 114/114/114
f 122/122/122 118/118/118 116/116/116
f 119/119/119 122/122/122 116/116/116
f 123/123/123 120/120/120 118/118/118
f 122/122/122 123/123/123 118/118/118
f 123/123/123 124/124/124 120/120/120
f 124/124/124 125/125/125 120/120/120
f 126/126/126 117/117/117 113/113/113
f 127/127/127 119/119/119 117/117/117
f 126/126/126 127/127/127 117/117/117
f 128/128/128 122/122/122 119/119/119
f 127/127/127 128/128/128 119/119/119
f 129/129/129 123/123/123 122/122/122
f 128/128/128 129/129/129 122/122/122
f 130/130/130 124/124/124 123/123/123
f 129/129/129 130/130/130 123/123/123
f 131/131/131 126/126/126 113/113/113
f 131/131/131 113/113/113 110/110/110
f 130/130/130 132/132/132 124/124/124
f 132/132/132 133/133/133 124/124/124
f 134/134/134 131/131/131 110/110/110
f 134/134/134 110/110/110 105/105/105
f 135/135/135 134/134/134 105/105/105
f 135/135/135 105/105/105 96/96/96
f 136/136/136 135/135/135 96/96/96
f 136/136/136 96/96/96 90/90/90
f 137/137/137 136/136/136 90/90/90
f 137/137/137 90/90/90 84/84/84
f 138/138/138 137/137/137 84/84/84
f 138/138/138 84/84/84 78/78/78
f 139/139/139 138/138/138 78/78/78
f 139/139/139 78/78/78 72/72/72
f 140/140/140 139/139/139 72/72/72
f 140/140/140 72/72/72 66/66/66
f 141/141/141 140/140/140 66/66/66
f 141/141/141 66/66/66 51/51/51
f 142/142/142 141/141/141 51/51/51
f 142/142/142 51/51/51 40/40/40
f 39/39/39 142/142/142 40/40/40
f 143/143/143 142/142/142 39/39/39
f 37/37/37 143/143/143 39/39/39
f 144/144/144 141/141/141 142/142/142
f 143/143/143 144/144/144 142/142/142
f 145/145/145 140/140/140 141/141/141
f 144/144/144 145/145/145 141/141/141
f 146/146/146 139/139/139 140/140/140
f 145/145/145 146/146/146 140/140/140
f 147/147/147 138/138/138 139/139/139
f 146/146/146 147/147/147 139/139/139
f 148/148/148 143/143/143 37/37/37
f 38/38/38 148/148/148 37/37/37
f 149/149/149 148/148/148 38/38/38
f 150/150/150 144/144/144 143/143/143
f 148/148/148 150/150/150 143/143/143
f 149/149/149 151/151/151 148/148/148
f 151/151/151 150/150/150 148/148/148
f 152/152/152 151/151/151 149/149/149
f 153/153/153 145/145/145 144/144/144
f 150/150/150 153/153/153 144/144/144
f 154/154/154 146/146/146 145/145/145
f 153/153/153 154/154/154 145/145/145
f 152/152/152 155/155/155 151/151/151
f 156/156/156 155/155/155 152/152/152
f 151/151/151 157/157/157 150/150/150
f 157/157/157 153/153/153 150/150/150
f 155/155/155 157/157/157 151/151/151
f 156/156/156 158/158/158 155/155/155
f 159/159/159 158/158/158 156/156/156
f 157/157/157 160/160/160 153/153/153
f 160/160/160 154/154/154 153/153/153
f 155/155/155 161/161/161 157/157/157
f 158/158/158 161/161/161 155/155/155
f 161/161/161 160/160/160 157/157/157
f 154/154/154 162/162/162 146/146/146
f 162/162/162 147/147/147 146/146/146
f 159/159/159 163/163/163 158/158/158
f 164/164/164 163/163/163 159/159/159
f 158/158/158 165/165/165 161/161/161
f 163/163/163 165/165/165 158/158/158
f 161/161/161 166/166/166 160/160/160
f 165/165/165 166/166/166 161/161/161
f 160/160/160 167/167/167 154/154/154
f 167/167/167 162/162/162 154/154/154
f 166/166/166 167/167/167 160/160/160
f 164/164/164 168/168/168 163/163/163
f 169/169/169 168/168/168 164/164/164
f 163/163/163 170/170/170 165/165/165
f 168/168/168 170/170/170 163/163/163
f 165/165/165 171/171/171 166/166/166
f 170/170/170 171/171/171 165/165/165
f 166/166/166 172/172/172 167/167/167
f 171/171/171 172/172/172 166/166/166
f 167/167/167 173/173/173 162/162/162
f 172/172/172 173/173/173 167/167/167
f 169/169/169 174/174/174 168/168/168
f 175/175/175 174/174/174 169/169/169
f 168/168/168 176/176/176 170/170/170
f 174/174/174 176/176/176 168/168/168
f 170/170/170 177/177/177 171/171/171
f 176/176/176 177/177/177 170/170/170
f 171/171/171 178/178/178 172/172/172
f 177/177/177 178/178/178 171/171/171
f 175/175/175 179/179/179 174/174/174
f 180/180/180 179/179/179 175/175/175
f 174/174/174 181/181/181 176/176/176
f 179/179/179 181/181/181 174/174/174
f 176/176/176 182/182/182 177/177/177
f 181/181/181 182/182/182 176/176/176
f 180/180/180 183/183/183 179/179/179
f 184/184/184 183/183/183 180/180/180
f 179/179/179 185/185/185 181/181/181
f 183/183/183 185/185/185 179/179/179
f 184/184/184 186/186/186 183/183/183
f 187/187/187 186/186/186 184/184/184
f 178/178/178 188/188/188 172/172/172
f 172/172/172 188/188/188 173/173/173
f 177/177/177 189/189/189 178/178/178
f 182/182/182 189/189/189 177/177/177
f 181/181/181 190/190/190 182/182/182
f 185/185/185 190/190/190 181/181/181
f 183/183/183 191/191/191 185/185/185
f 186/186/186 191/191/191 183/183/183
f 187/187/187 192/192/192 186/186/186
f 193/193/193 192/192/192 187/187/187
f 178/178/178 194/194/194 188/188/188
f 189/189/189 194/194/194 178/178/178
f 182/182/182 195/195/195 189/189/189
f 190/190/190 195/195/195 182/182/182
f 185/185/185 196/196/196 190/190/190
f 191/191/191 196/196/196 185/185/185
f 186/186/186 197/197/197 191/191/191
f 192/192/192 197/197/197 186/186/186
f 193/193/193 198/198/198 192/192/192
f 199/199/199 198/198/198 193/193/193
f 199/199/199 200/200/200 198/198/198
f 198/198/198 201/201/201 192/192/192
f 192/192/192 201/201/201 197/197/197
f 200/200/200 202/202/202 198/198/198
f 198/198/198 202/202/202 201/201/201
f 200/200/200 203/203/203 202/202/202
f 197/197/197 204/204/204 191/191/191
f 191/191/191 204/204/204 196/196/196
f 196/196/196 205/205/205 190/190/190
f 190/190/190 205/205/205 195/195/195
f 201/201/201 206/206/206 197/197/197
f 197/197/197 206/206/206 204/204/204
f 203/203/203 207/207/207 202/202/202
f 203/203/203 208/208/208 207/207/207
f 202/202/202 209/209/209 201/201/201
f 201/201/201 209/209/209 206/206/206
f 202/202/202 207/207/207 209/209/209
f 204/204/204 210/210/210 196/196/196
f 196/196/196 210/210/210 205/205/205
f 208/208/208 211/211/211 207/207/207
f 208/208/208 212/212/212 211/211/211
f 206/206/206 213/213/213 204/204/204
f 204/204/204 213/213/213 210/210/210
f 207/207/207 214/214/214 209/209/209
f 207/207/207 211/211/211 214/214/214
f 209/209/209 215/215/215 206/206/206
f 206/206/206 215/215/215 213/213/213
f 209/209/209 214/214/214 215/215/215
f 212/212/212 216/216/216 211/211/211
f 212/212/212 217/217/217 216/216/216
f 211/211/211 218/218/218 214/214/214
f 211/211/211 216/216/216 218/218/218
f 214/214/214 219/219/219 215/215/215
f 214/214/214 218/218/218 219/219/219
f 215/215/215 220/220/220 213/213/213
f 215/215/215 219/219/219 220/220/220
f 213/213/213 221/221/221 210/210/210
f 213/213/213 220/220/220 221/221/221
f 217/217/217 222/222/222 216/216/216
f 217/217/217 223/223/223 222/222/222
f 216/216/216 224/224/224 218/218/218
f 216/216/216 222/222/222 224/224/224
f 218/218/218 225/225/225 219/219/219
f 218/218/218 224/224/224 225/225/225
f 219/219/219 226/226/226 220/220/220
f 219/219/219 225/225/225 226/226/226
f 223/223/223 227/227/227 222/222/222
f 223/223/223 228/228/228 227/227/227
f 222/222/222 229/229/229 224/224/224
f 222/222/222 227/227/227 229/229/229
f 224/224/224 230/230/230 225/225/225
f 224/224/224 229/229/229 230/230/230
f 228/228/228 231/231/231 227/227/227
f 228/228/228 232/232/232 231/231/231
f 227/227/227 233/233/233 229/229/229
f 227/227/227 231/231/231 233/233/233
f 232/232/232 234/234/234 231/231/231
f 232/232/232 235/235/235 234/234/234
f 220/220/220 226/226/226 236/236/236
f 220/220/220 236/236/236 221/221/221
f 225/225/225 237/237/237 226/226/226
f 225/225/225 230/230/230 237/237/237
f 229/229/229 238/238/238 230/230/230
f 229/229/229 233/233/233 238/238/238
f 231/231/231 239/239/239 233/233/233
f 231/231/231 234/234/234 239/239/239
f 235/235/235 240/240/240 234/234/234
f 235/235/235 241/241/241 240/240/240
f 226/226/226 242/242/242 236/236/236
f 226/226/226 237/237/237 242/242/242
f 230/230/230 243/243/243 237/237/237
f 230/230/230 238/238/238 243/243/243
f 233/233/233 244/244/244 238/238/238
f 233/233/233 239/239/239 244/244/244
f 234/234/234 245/245/245 239/239/239
f 234/234/234 240/240/240 245/245/245
f 241/241/241 246/246/246 240/240/240
f 241/241/241 247/247/247 246/246/246
f 237/237/237 248/248/248 242/242/242
f 237/237/237 243/243/243 248/248/248
f 238/238/238 249/249/249 243/243/243
f 238/238/238 244/244/244 249/249/249
f 239/239/239 250/250/250 244/244/244
f 239/239/239 245/245/245 250/250/250
f 240/240/240 251/251/251 245/245/245
f 240/240/240 246/246/246 251/251/251
f 247/247/247 252/252/252 246/246/246
f 247/247/247 253/253/253 252/252/252
f 243/243/243 254/254/254 248/248/248
f 243/243/243 249/249/249 254/254/254
f 244/244/244 255/255/255 249/249/249
f 244/244/244 250/250/250 255/255/255
f 245/245/245 256/256/256 250/250/250
f 245/245/245 251/251/251 256/256/256
f 246/246/246 257/257/257 251/251/251
f 246/246/246 252/252/252 257/257/257
f 253/253/253 258/258/258 252/252/252
f 253/253/253 259/259/259 258/258/258
f 249/249/249 260/260/260 254/254/254
f 249/249/249 255/255/255 260/260/260
f 250/250/250 261/261/261 255/255/255
f 250/250/250 256/256/256 261/261/261
f 251/251/251 262/262/262 256/256/256
f 251/251/251 257/257/257 262/262/262
f 252/252/252 263/263/263 257/257/257
f 252/252/252 258/258/258 263/263/263
f 259/259/259 264/264/264 258/258/258
f 259/259/259 265/265/265 264/264/264
f 255/255/255 266/266/266 260/260/260
f 255/255/255 261/261/261 266/266/266
f 256/256/256 267/267/267 261/261/261
f 256/256/256 262/262/262 267/267/267
f 257/257/257 268/268/268 262/262/262
f 257/257/257 263/263/263 268/268/268
f 258/258/258 269/269/269 263/263/263
f 258/258/258 264/264/264 269/269/269
f 265/265/265 270/270/270 264/264/264
f 265/265/265 271/271/271 270/270/270
f 261/261/261 272/272/272 266/266/266
f 261/261/261 267/267/267 272/272/272
f 262/262/262 273/273/273 267/267/267
f 262/262/262 268/268/268 273/273/273
f 263/263/263 274/274/274 268/268/268
f 263/263/263 269/269/269 274/274/274
f 264/264/264 275/275/275 269/269/269
f 264/264/264 270/270/270 275/275/275
f 271/271/271 276/276/276 270/270/270
f 271/271/271 277/277/277 276/276/276
f 267/267/267 278/278/278 272/272/272
f 267/267/267 273/273/273 278/278/278
f 268/268/268 279/279/279 273/273/273
f 268/268/268 274/274/274 279/279/279
f 269/269/269 280/280/280 274/274/274
f 269/269/269 275/275/275 280/280/280
f 270/270/270 281/281/281 275/275/275
f 270/270/270 276/276/276 281/281/281
f 277/277/277 282/282/282 276/276/276
f 277/277/277 283/283/283 282/282/282
f 273/273/273 284/284/284 278/278/278
f 273/273/273 279/279/279 284/284/284
f 274/274/274 285/285/285 279/279/279
f 274/274/274 280/280/280 285/285/285
f 275/275/275 286/286/286 280/280/280
f 275/275/275 281/281/281 286/286/286
f 276/276/276 287/287/287 281/281/281
f 276/276/276 282/282/282 287/287/287
f 283/283/283 288/288/288 282/282/282
f 283/283/283 289/289/289 288/288/288
f 289/289/289 290/290/290 288/288/288
f 282/282/282 288/288/288 291/291/291
f 282/282/282 291/291/291 287/287/287
f 288/288/288 292/292/292 291/291/291
f 281/281/281 287/287/287 293/293/293
f 281/281/281 293/293/293 286/286/286
f 287/287/287 291/291/291 294/294/294
f 287/287/287 294/294/294 293/293/293
f 291/291/291 295/295/295 294/294/294
f 280/280/280 286/286/286 296/296/296
f 280/280/280 296/296/296 285/285/285
f 286/286/286 293/293/293 297/297/297
f 286/286/286 297/297/297 296/296/296
f 293/293/293 294/294/294 298/298/298
f 293/293/293 298/298/298 297/297/297
f 294/294/294 299/299/299 298/298/298
f 297/297/297 298/298/298 300/300/300
f 298/298/298 301/301/301 300/300/300
f 296/296/296 297/297/297 302/302/302
f 297/297/297 300/300/300 302/302/302
f 285/285/285 296/296/296 303/303/303
f 296/296/296 302/302/302 303/303/303
f 302/302/302 300/300/300 304/304/304
f 300/300/300 305/305/305 304/304/304
f 302/302/302 304/304/304 306/306/306
f 303/303/303 302/302/302 306/306/306
f 285/285/285 303/303/303 307/307/307
f 279/279/279 285/285/285 307/307/307
f 279/279/279 307/307/307 284/284/284
f 307/307/307 303/303/303 308/308/308
f 303/303/303 306/306/306 308/308/308
f 306/306/306 304/304/304 309/309/309
f 304/304/304 310/310/310 309/309/309
f 284/284/284 307/307/307 311/311/311
f 307/307/307 308/308/308 311/311/311
f 308/308/308 306/306/306 312/312/312
f 306/306/306 309/309/309 312/312/312
f 284/284/284 311/311/311 313/313/313
f 278/278/278 284/284/284 313/313/313
f 311/311/311 308/308/308 314/314/314
f 308/308/308 312/312/312 314/314/314
f 312/312/312 309/309/309 315/315/315
f 309/309/309 316/316/316 315/315/315
f 312/312/312 315/315/315 317/317/317
f 314/314/314 312/312/312 317/317/317
f 311/311/311 314/314/314 318/318/318
f 313/313/313 311/311/311 318/318/318
f 278/278/278 313/313/313 319/319/319
f 272/272/272 278/278/278 319/319/319
f 317/317/317 315/315/315 320/320/320
f 315/315/315 321/321/321 320/320/320
f 314/314/314 317/317/317 322/322/322
f 318/318/318 314/314/314 322/322/322
f 313/313/313 318/318/318 323/323/323
f 319/319/319 313/313/313 323/323/323
f 272/272/272 319/319/319 324/324/324
f 266/266/266 272/272/272 324/324/324
f 317/317/317 320/320/320 325/325/325
f 322/322/322 317/317/317 325/325/325
f 318/318/318 322/322/322 326/326/326
f 323/323/323 318/318/318 326/326/326
f 319/319/319 323/323/323 327/327/327
f 324/324/324 319/319/319 327/327/327
f 266/266/266 324/324/324 328/328/328
f 260/260/260 266/266/266 328/328/328
f 325/325/325 320/320/320 329/329/329
f 320/320/320 330/330/330 329/329/329
f 322/322/322 325/325/325 331/331/331
f 326/326/326 322/322/322 331/331/331
f 323/323/323 326/326/326 332/332/332
f 327/327/327 323/323/323 332/332/332
f 324/324/324 327/327/327 333/333/333
f 328/328/328 324/324/324 333/333/333
f 260/260/260 328/328/328 334/334/334
f 254/254/254 260/260/260 334/334/334
f 325/325/325 329/329/329 335/335/335
f 331/331/331 325/325/325 335/335/335
f 326/326/326 331/331/331 336/336/336
f 332/332/332 326/326/326 336/336/336
f 327/327/327 332/332/332 337/337/337
f 333/333/333 327/327/327 337/337/337
f 328/328/328 333/333/333 338/338/338
f 334/334/334 328/328/328 338/338/338
f 254/254/254 334/334/334 339/339/339
f 248/248/248 254/254/254 339/339/339
f 335/335/335 329/329/329 340/340/340
f 329/329/329 341/341/341 340/340/340
f 332/332/332 336/336/336 342/342/342
f 337/337/337 332/332/332 342/342/342
f 333/333/333 337/337/337 343/343/343
f 338/338/338 333/333/333 343/343/343
f 334/334/334 338/338/338 344/344/344
f 339/339/339 334/334/334 344/344/344
f 248/248/248 339/339/339 345/345/345
f 242/242/242 248/248/248 345/345/345
f 337/337/337 342/342/342 346/346/346
f 343/343/343 337/337/337 346/346/346
f 338/338/338 343/343/343 347/347/347
f 344/344/344 338/338/338 347/347/347
f 339/339/339 344/344/344 348/348/348
f 345/345/345 339/339/339 348/348/348
f 242/242/242 345/345/345 349/349/349
f 236/236/236 242/242/242 349/349/349
f 343/343/343 346/346/346 350/350/350
f 347/347/347 343/343/343 350/350/350
f 344/344/344 347/347/347 351/351/351
f 348/348/348 344/344/344 351/351/351
f 345/345/345 348/348/348 352/352/352
f 349/349/349 345/345/345 352/352/352
f 236/236/236 349/349/349 353/353/353
f 221/221/221 236/236/236 353/353/353
f 347/347/347 350/350/350 354/354/354
f 351/351/351 347/347/347 354/354/354
f 348/348/348 351/351/351 355/355/355
f 352/352/352 348/348/348 355/355/355
f 349/349/349 352/352/352 356/356/356
f 353/353/353 349/349/349 356/356/356
f 221/221/221 353/353/353 357/357/357
f 210/210/210 221/221/221 357/357/357
f 210/210/210 357/357/357 205/205/205
f 357/357/357 353/353/353 358/358/358
f 353/353/353 356/356/356 358/358/358
f 205/205/205 357/357/357 359/359/359
f 357/357/357 358/358/358 359/359/359
f 205/205/205 359/359/359 195/195/195
f 356/356/356 352/352/352 360/360/360
f 352/352/352 355/355/355 360/360/360
f 355/355/355 351/351/351 361/361/361
f 351/351/351 354/354/354 361/361/361
f 358/358/358 356/356/356 362/362/362
f 356/356/356 360/360/360 362/362/362
f 195/195/195 359/359/359 363/363/363
f 195/195/195 363/363/363 189/189/189
f 189/189/189 363/363/363 194/194/194
f 359/359/359 358/358/358 364/364/364
f 359/359/359 364/364/364 363/363/363
f 358/358/358 362/362/362 364/364/364
f 360/360/360 355/355/355 365/365/365
f 355/355/355 361/361/361 365/365/365
f 363/363/363 366/366/366 194/194/194
f 363/363/363 364/364/364 366/366/366
f 364/364/364 362/362/362 367/367/367
f 364/364/364 367/367/367 366/366/366
f 362/362/362 360/360/360 368/368/368
f 360/360/360 365/365/365 368/368/368
f 362/362/362 368/368/368 367/367/367
f 194/194/194 366/366/366 369/369/369
f 194/194/194 369/369/369 188/188/188
f 366/366/366 367/367/367 370/370/370
f 366/366/366 370/370/370 369/369/369
f 367/367/367 368/368/368 371/371/371
f 367/367/367 371/371/371 370/370/370
f 368/368/368 365/365/365 372/372/372
f 368/368/368 372/372/372 371/371/371
f 365/365/365 361/361/361 373/373/373
f 365/365/365 373/373/373 372/372/372
f 188/188/188 369/369/369 374/374/374
f 188/188/188 374/374/374 173/173/173
f 369/369/369 370/370/370 375/375/375
f 369/369/369 375/375/375 374/374/374
f 370/370/370 371/371/371 376/376/376
f 370/370/370 376/376/376 375/375/375
f 371/371/371 372/372/372 377/377/377
f 371/371/371 377/377/377 376/376/376
f 173/173/173 374/374/374 378/378/378
f 173/173/173 378/378/378 162/162/162
f 162/162/162 378/378/378 147/147/147
f 374/374/374 375/375/375 379/379/379
f 374/374/374 379/379/379 378/378/378
f 378/378/378 380/380/380 147/147/147
f 378/378/378 379/379/379 380/380/380
f 147/147/147 380/380/380 138/138/138
f 380/380/380 137/137/137 138/138/138
f 380/380/380 381/381/381 137/137/137
f 379/379/379 381/381/381 380/380/380
f 381/381/381 136/136/136 137/137/137
f 375/375/375 382/382/382 379/379/379
f 375/375/375 376/376/376 382/382/382
f 379/379/379 382/382/382 381/381/381
f 381/381/381 383/383/383 136/136/136
f 382/382/382 383/383/383 381/381/381
f 383/383/383 135/135/135 136/136/136
f 376/376/376 384/384/384 382/382/382
f 382/382/382 384/384/384 383/383/383
f 376/376/376 377/377/377 384/384/384
f 383/383/383 385/385/385 135/135/135
f 384/384/384 385/385/385 383/383/383
f 385/385/385 134/134/134 135/135/135
f 377/377/377 386/386/386 384/384/384
f 384/384/384 386/386/386 385/385/385
f 385/385/385 387/387/387 134/134/134
f 386/386/386 387/387/387 385/385/385
f 387/387/387 131/131/131 134/134/134
f 377/377/377 388/388/388 386/386/386
f 372/372/372 388/388/388 377/377/377
f 372/372/372 373/373/373 388/388/388
f 386/386/386 389/389/389 387/387/387
f 388/388/388 389/389/389 386/386/386
f 387/387/387 390/390/390 131/131/131
f 389/389/389 390/390/390 387/387/387
f 390/390/390 126/126/126 131/131/131
f 373/373/373 391/391/391 388/388/388
f 388/388/388 391/391/391 389/389/389
f 389/389/389 392/392/392 390/390/390
f 391/391/391 392/392/392 389/389/389
f 390/390/390 393/393/393 126/126/126
f 392/392/392 393/393/393 390/390/390
f 393/393/393 127/127/127 126/126/126
f 373/373/373 394/394/394 391/391/391
f 361/361/361 394/394/394 373/373/373
f 361/361/361 354/354/354 394/394/394
f 391/391/391 395/395/395 392/392/392
f 394/394/394 395/395/395 391/391/391
f 354/354/354 396/396/396 394/394/394
f 394/394/394 396/396/396 395/395/395
f 354/354/354 350/350/350 396/396/396
f 392/392/392 397/397/397 393/393/393
f 395/395/395 397/397/397 392/392/392
f 393/393/393 398/398/398 127/127/127
f 397/397/397 398/398/398 393/393/393
f 398/398/398 128/128/128 127/127/127
f 350/350/350 399/399/399 396/396/396
f 350/350/350 346/346/346 399/399/399
f 396/396/396 400/400/400 395/395/395
f 395/395/395 400/400/400 397/397/397
f 396/396/396 399/399/399 400/400/400
f 397/397/397 401/401/401 398/398/398
f 400/400/400 401/401/401 397/397/397
f 398/398/398 402/402/402 128/128/128
f 401/401/401 402/402/402 398/398/398
f 402/402/402 129/129/129 128/128/128
f 346/346/346 403/403/403 399/399/399
f 346/346/346 342/342/342 403/403/403
f 399/399/399 404/404/404 400/400/400
f 400/400/400 404/404/404 401/401/401
f 399/399/399 403/403/403 404/404/404
f 401/401/401 405/405/405 402/402/402
f 404/404/404 405/405/405 401/401/401
f 402/402/402 406/406/406 129/129/129
f 405/405/405 406/406/406 402/402/402
f 406/406/406 130/130/130 129/129/129
f 342/342/342 407/407/407 403/403/403
f 342/342/342 336/336/336 407/407/407
f 403/403/403 408/408/408 404/404/404
f 404/404/404 408/408/408 405/405/405
f 403/403/403 407/407/407 408/408/408
f 405/405/405 409/409/409 406/406/406
f 408/408/408 409/409/409 405/405/405
f 406/406/406 410/410/410 130/130/130
f 409/409/409 410/410/410 406/406/406
f 410/410/410 132/132/132 130/130/130
f 336/336/336 411/411/411 407/407/407
f 336/336/336 331/331/331 411/411/411
f 331/331/331 335/335/335 411/411/411
f 407/407/407 412/412/412 408/408/408
f 408/408/408 412/412/412 409/409/409
f 407/407/407 411/411/411 412/412/412
f 411/411/411 335/335/335 413/413/413
f 411/411/411 413/413/413 412/412/412
f 335/335/335 340/340/340 413/413/413
f 412/412/412 414/414/414 409/409/409
f 409/409/409 414/414/414 410/410/410
f 412/412/412 413/413/413 414/414/414
f 410/410/410 415/415/415 132/132/132
f 414/414/414 415/415/415 410/410/410
f 415/415/415 416/416/416 132/132/132
f 413/413/413 340/340/340 417/417/417
f 413/413/413 417/417/417 414/414/414
f 414/414/414 417/417/417 415/415/415
f 340/340/340 418/418/418 417/417/417
f 417/417/417 419/419/419 415/415/415
