o pSphere1
v -0.00373095204 -0.0498458669 0
v -0.007725426 -0.0493844151 0
v -0.00387465674 -0.0498458669 0
v -0.00743890135 -0.0493844151 0
v -0.00349537865 -0.0498458669 0
v -0.0115285646 -0.0486184955 0
v -0.00696920743 -0.0493844151 0
v -0.00317373755 -0.0498458669 0
v -0.011100987 -0.0486184955 0
v -0.0152606247 -0.0475528277 0
v -0.00632790802 -0.0493844151 0
v -0.00277394825 -0.0498458669 0
v -0.0104000689 -0.0486184955 0
v -0.014694632 -0.0475528277 0
v -0.0188986007 -0.046193976 0
v -0.00553079415 -0.0493844151 0
v -0.00230585504 -0.0498458669 0
v -0.00944306515 -0.0486184955 0
v -0.0137668084 -0.0475528277 0
v -0.0181976799 -0.046193976 0
v -0.022420058 -0.0445503257 0
v -0.00459749438 -0.0493844151 0
v -0.00178098434 -0.0498458669 0
v -0.00825354084 -0.0486184955 0
v -0.0125000011 -0.0475528277 0
v -0.0170486737 -0.046193976 0
v -0.0215885323 -0.0445503257 0
v -0.0258032847 -0.0426320061 0
v -0.00355098839 -0.0493844151 0
v -0.00121225964 -0.0498458669 0
v -0.00686078751 -0.0486184955 0
v -0.010925401 -0.0475528277 0
v -0.015479872 -0.046193976 0
v -0.0202254262 -0.0445503257 0
v -0.0248462819 -0.0426320061 0
v -0.0290274322 -0.0404508486 0
v -0.00241704541 -0.0493844151 0
v -0.000613685115 -0.0498458669 0
v -0.00529909972 -0.0486184955 0
v -0.00908178184 -0.0475528277 0
v -0.0135299033 -0.046193976 0
v -0.0183643047 -0.0445503257 0
v -0.023277482 -0.0426320061 0
v -0.0279508494 -0.0404508486 0
v -0.0320726149 -0.0380202979 0
v -0.0308830924 -0.0380202979 0
v -0.0349200591 -0.0353553332 0
v -0.0261860248 -0.0404508486 0
v -0.0211355109 -0.0426320061 0
v -0.0160509888 -0.0445503257 0
v -0.0112467855 -0.046193976 0
v -0.0336249284 -0.0353553332 0
v -0.0375522077 -0.0324723981 0
v -0.0289331246 -0.0380202979 0
v -0.0237764139 -0.0404508486 0
v -0.018473113 -0.0426320061 0
v -0.0361594558 -0.0324723981 0
v -0.0399528369 -0.0293892566 0
v -0.0315018408 -0.0353553332 0
v -0.0262707267 -0.0380202979 0
v -0.0384710506 -0.0293892566 0
v -0.0421071425 -0.0261249207 0
v -0.0338763371 -0.0324723981 0
v -0.0405454524 -0.0261249207 0
v -0.0440018438 -0.0226995144 0
v -0.0133424466 -0.0445503257 0
v -0.0207813475 -0.0404508486 0
v -0.0286030732 -0.0353553332 0
v -0.036041975 -0.0293892566 0
v -0.0423698835 -0.0226995144 0
v -0.0456252582 -0.0191341601 0
v -0.0153558478 -0.0426320061 0
v -0.0229614582 -0.0380202979 0
v -0.0307590719 -0.0324723981 0
v -0.0379854068 -0.0261249207 0
v -0.0439330861 -0.0191341601 0
v -0.046967376 -0.0154508362 0
v -0.0172745753 -0.0404508486 0
v -0.0250000022 -0.0353553332 0
v -0.0327254273 -0.0293892566 0
v -0.0396946408 -0.0226995144 0
v -0.0452254303 -0.0154508362 0
v -0.0480199233 -0.0116722537 0
v -0.0190868024 -0.0380202979 0
v -0.0268844143 -0.0324723981 0
v -0.0344900228 -0.0261249207 0
v -0.0411591418 -0.0191341601 0
v -0.0462389402 -0.0116722537 0
v -0.0487764142 -0.00782170612 0
v -0.0207813494 -0.0353553332 0
v -0.0286030732 -0.0293892566 0
v -0.036041975 -0.0226995144 0
v -0.0423698835 -0.0154508362 0
v -0.0469673723 -0.00782170612 0
v -0.0492321849 -0.00392293604 0
v -0.0223477744 -0.0324723981 0
v -0.0301453862 -0.0261249207 0
v -0.0373717174 -0.0191341601 0
v -0.0433194004 -0.0116722537 0
v -0.0474062376 -0.00392293604 0
v -0.0493844151 0 0
v -0.0237764157 -0.0293892566 0
v -0.0315018445 -0.0226995144 0
v -0.0384710506 -0.0154508362 0
v -0.0440018438 -0.00782170612 0
v -0.0475528277 0 0
v -0.0492321849 0.00392293604 0
v -0.0250584707 -0.0261249207 0
v -0.0326640792 -0.0191341601 0
v -0.0393331945 -0.0116722537 0
v -0.0444129966 -0.00392293604 0
v -0.0474062376 0.00392293604 0
v -0.0487764142 0.00782170612 0
v -0.0261860322 -0.0226995144 0
v -0.0336249322 -0.0154508362 0
v -0.0399528369 -0.00782170612 0
v -0.0445503257 0 0
v -0.0469673723 0.00782170612 0
v -0.0480199233 0.0116722537 0
v -0.0271521416 -0.0191341601 0
v -0.034378469 -0.0116722537 0
v -0.0403261557 -0.00392293604 0
v -0.0444129966 0.00392293604 0
v -0.0462389402 0.0116722537 0
v -0.046967376 0.0154508362 0
v -0.0279508568 -0.0154508362 0
v -0.0349200591 -0.00782170612 0
v -0.0404508524 0 0
v -0.0440018438 0.00782170612 0
v -0.0452254303 0.0154508362 0
v -0.0456252582 0.0191341601 0
v -0.0285772365 -0.0116722537 0
v -0.0352463536 -0.00392293604 0
v -0.0403261557 0.00392293604 0
v -0.0433194004 0.0116722537 0
v -0.0439330861 0.0191341601 0
v -0.0440018438 0.0226995144 0
v -0.0290274378 -0.00782170612 0
v -0.0353553407 0 0
v -0.0399528369 0.00782170612 0
v -0.0423698835 0.0154508362 0
v -0.0423698835 0.0226995144 0
v -0.0421071425 0.0261249207 0
v -0.0292986669 -0.00392293604 0
v -0.0352463536 0.00392293604 0
v -0.0393331945 0.0116722537 0
v -0.0411591418 0.0191341601 0
v -0.0405454524 0.0261249207 0
v -0.0399528369 0.0293892566 0
v -0.0293892641 0 0
v -0.0349200591 0.00782170612 0
v -0.0384710506 0.0154508362 0
v -0.0396946408 0.0226995144 0
v -0.0384710506 0.0293892566 0
v -0.0375522077 0.0324723981 0
v -0.0292986669 0.00392293604 0
v -0.034378469 0.0116722537 0
v -0.0373717174 0.0191341601 0
v -0.0379854068 0.0261249207 0
v -0.0361594558 0.0324723981 0
v -0.0349200591 0.0353553332 0
v -0.0290274378 0.00782170612 0
v -0.0336249322 0.0154508362 0
v -0.036041975 0.0226995144 0
v -0.036041975 0.0293892566 0
v -0.0336249284 0.0353553332 0
v -0.0320726149 0.0380202979 0
v -0.0285772365 0.0116722537 0
v -0.0326640792 0.0191341601 0
v -0.0344900228 0.0261249207 0
v -0.0338763371 0.0324723981 0
v -0.0308830924 0.0380202979 0
v -0.0290274322 0.0404508486 0
v -0.0279508568 0.0154508362 0
v -0.0315018445 0.0226995144 0
v -0.0327254273 0.0293892566 0
v -0.0315018408 0.0353553332 0
v -0.0279508494 0.0404508486 0
v -0.0258032847 0.0426320061 0
v -0.0271521416 0.0191341601 0
v -0.0301453862 0.0261249207 0
v -0.0307590719 0.0324723981 0
v -0.0289331246 0.0380202979 0
v -0.0248462819 0.0426320061 0
v -0.022420058 0.0445503257 0
v -0.0261860322 0.0226995144 0
v -0.0286030732 0.0293892566 0
v -0.0286030732 0.0353553332 0
v -0.0261860248 0.0404508486 0
v -0.0215885323 0.0445503257 0
v -0.0188986007 0.046193976 0
v -0.0250584707 0.0261249207 0
v -0.0268844143 0.0324723981 0
v -0.0262707267 0.0380202979 0
v -0.023277482 0.0426320061 0
v -0.0181976799 0.046193976 0
v -0.0152606247 0.0475528277 0
v -0.0237764157 0.0293892566 0
v -0.0250000022 0.0353553332 0
v -0.0237764139 0.0404508486 0
v -0.0202254262 0.0445503257 0
v -0.014694632 0.0475528277 0
v -0.0115285646 0.0486184955 0
v -0.0223477744 0.0324723981 0
v -0.0229614582 0.0380202979 0
v -0.0211355109 0.0426320061 0
v -0.0170486737 0.046193976 0
v -0.011100987 0.0486184955 0
v -0.007725426 0.0493844151 0
v -0.0207813494 0.0353553332 0
v -0.0207813475 0.0404508486 0
v -0.0183643047 0.0445503257 0
v -0.0137668084 0.0475528277 0
v -0.00743890135 0.0493844151 0
v -0.00387465674 0.0498458669 0
v -0.00373095204 0.0498458669 0
v -0.0104000689 0.0486184955 0
v -0.00696920743 0.0493844151 0
v -0.00349537865 0.0498458669 0
v -0.015479872 0.046193976 0
v -0.018473113 0.0426320061 0
v -0.0125000011 0.0475528277 0
v -0.00944306515 0.0486184955 0
v -0.00632790802 0.0493844151 0
v -0.00317373755 0.0498458669 0
v -0.0160509888 0.0445503257 0
v -0.0135299033 0.046193976 0
v -0.010925401 0.0475528277 0
v -0.00825354084 0.0486184955 0
v -0.00553079415 0.0493844151 0
v -0.00277394825 0.0498458669 0
v -0.00459749438 0.0493844151 0
v -0.00230585504 0.0498458669 0
v -0.00686078751 0.0486184955 0
v -0.00908178184 0.0475528277 0
v -0.0112467855 0.046193976 0
v -0.0133424466 0.0445503257 0
v -0.00355098839 0.0493844151 0
v -0.00178098434 0.0498458669 0
v -0.00529909972 0.0486184955 0
v -0.00701453956 0.0475528277 0
v -0.00868673343 0.046193976 0
v -0.00241704541 0.0493844151 0
v -0.00121225964 0.0498458669 0
v -0.00360692921 0.0486184955 0
v -0.00477457466 0.0475528277 0
v -0.00122358662 0.0493844151 0
v -0.000613685115 0.0498458669 0
v -0.00182594429 0.0486184955 0
v 8.15869317e-10 0.0493844151 0
v 4.09196094e-10 0.0498458669 0
v -0.0103053702 0.0445503257 0
v -0.00591278402 0.046193976 0
v -0.00241704448 0.0475528277 0
v 1.21751242e-09 0.0486184955 0
v 0.00122358836 0.0493844151 0
v 0.000613685988 0.0498458669 0
v -0.00701453909 0.0445503257 0
v -0.00299324258 0.046193976 0
v 1.61164926e-09 0.0475528277 0
v 0.00182594685 0.0486184955 0
v 0.00241704728 0.0493844151 0
v 0.00121226057 0.0498458669 0
v -0.00355098676 0.0445503257 0
v 1.99584971e-09 0.046193976 0
v 0.00241704797 0.0475528277 0
v 0.00360693177 0.0486184955 0
v 0.00355099025 0.0493844151 0
v 0.00178098527 0.0498458669 0
v 2.36774511e-09 0.0445503257 0
v 0.00299324724 0.046193976 0
v 0.00477457885 0.0475528277 0
v 0.00529910205 0.0486184955 0
v 0.00459749624 0.0493844151 0
v 0.00230585621 0.0498458669 0
v 0.00355099165 0.0445503257 0
v 0.00591278821 0.046193976 0
v 0.00701454282 0.0475528277 0
v 0.00686079124 0.0486184955 0
v 0.00553079648 0.0493844151 0
v 0.00277394918 0.0498458669 0
v 0.00701454375 0.0445503257 0
v 0.00868673809 0.046193976 0
v 0.0090817865 0.0475528277 0
v 0.00825354457 0.0486184955 0
v 0.00632791035 0.0493844151 0
v 0.00317373872 0.0498458669 0
v 0.0103053749 0.0445503257 0
v 0.0112467892 0.046193976 0
v 0.0109254057 0.0475528277 0
v 0.00944306795 0.0486184955 0
v 0.00696920976 0.0493844151 0
v 0.00349537982 0.0498458669 0
v 0.0133424532 0.0445503257 0
v 0.0135299098 0.046193976 0
v 0.0125000058 0.0475528277 0
v 0.0104000708 0.0486184955 0
v 0.00743890367 0.0493844151 0
v 0.00373095321 0.0498458669 0
v 0.00772542832 0.0493844151 0
v 0.00387465837 0.0498458669 0
v 0.0115285683 0.0486184955 0
v 0.0111009916 0.0486184955 0
v 0.0152606303 0.0475528277 0
v 0.0146946367 0.0475528277 0
v 0.0188986063 0.046193976 0
v 0.0137668131 0.0475528277 0
v 0.0181976855 0.046193976 0
v 0.0224200655 0.0445503257 0
v 0.0170486793 0.046193976 0
v 0.0215885397 0.0445503257 0
v 0.025803294 0.0426320061 0
v 0.0154798767 0.046193976 0
v 0.024846293 0.0426320061 0
v 0.0290274415 0.0404508486 0
v 0.0202254336 0.0445503257 0
v 0.0183643103 0.0445503257 0
v 0.0279508587 0.0404508486 0
v 0.0320726261 0.0380202979 0
v 0.0232774895 0.0426320061 0
v 0.0160509944 0.0445503257 0
v 0.0308831017 0.0380202979 0
v 0.0349200703 0.0353553332 0
v 0.0261860341 0.0404508486 0
v 0.0211355183 0.0426320061 0
v 0.0184731223 0.0426320061 0
v 0.0336249396 0.0353553332 0
v 0.0375522226 0.0324723981 0
v 0.0289331377 0.0380202979 0
v 0.0237764232 0.0404508486 0
v 0.0153558552 0.0426320061 0
v 0.0361594707 0.0324723981 0
v 0.0399528481 0.0293892566 0
v 0.031501852 0.0353553332 0
v 0.0262707379 0.0380202979 0
v 0.020781355 0.0404508486 0
v 0.0118604749 0.0426320061 0
v 0.0384710655 0.0293892566 0
v 0.0421071574 0.0261249207 0
v 0.0338763483 0.0324723981 0
v 0.0286030862 0.0353553332 0
v 0.0229614675 0.0380202979 0
v 0.0172745828 0.0404508486 0
v 0.00807305239 0.0426320061 0
v 0.0405454673 0.0261249207 0
v 0.0440018587 0.0226995144 0
v 0.0360419899 0.0293892566 0
v 0.0307590831 0.0324723981 0
v 0.0250000134 0.0353553332 0
v 0.019086808 0.0380202979 0
v 0.0133424532 0.0404508486 0
v 0.00408684323 0.0426320061 0
v 0.00908178743 0.0404508486 0
v 0.0147421714 0.0380202979 0
v 0.0207813587 0.0353553332 0
v 0.0268844236 0.0324723981 0
v 2.72504219e-09 0.0426320061 0
v 0.0045974981 0.0404508486 0
v 0.0100345323 0.0380202979 0
v 0.0160509981 0.0353553332 0
v -0.00408683717 0.0426320061 0
v 3.06553871e-09 0.0404508486 0
v 0.00507980818 0.0380202979 0
v -0.00807304587 0.0426320061 0
v -0.00459749158 0.0404508486 0
v -0.0118604684 0.0426320061 0
v 0.0223477818 0.0324723981 0
v 0.0109254094 0.0353553332 0
v 3.38713591e-09 0.0380202979 0
v -0.00908178091 0.0404508486 0
v -0.0153558478 0.0426320061 0
v -0.0133424457 0.0404508486 0
v -0.0172745753 0.0404508486 0
v -0.00507980119 0.0380202979 0
v 0.00553079927 0.0353553332 0
v -0.0100345239 0.0380202979 0
v -0.0147421639 0.0380202979 0
v -0.0190868024 0.0380202979 0
v 3.6878498e-09 0.0353553332 0
v -0.00553079182 0.0353553332 0
v -0.0109254001 0.0353553332 0
v -0.0160509888 0.0353553332 0
v -0.0172608551 0.0324723981 0
v -0.0117489183 0.0324723981 0
v -0.00594768254 0.0324723981 0
v 3.96582633e-09 0.0324723981 0
v 0.00594769185 0.0324723981 0
v -0.0183643047 0.0293892566 0
v -0.0124999993 0.0293892566 0
v -0.0063279043 0.0293892566 0
v 4.21935287e-09 0.0293892566 0
v -0.0193545297 0.0261249207 0
v -0.0131740151 0.0261249207 0
v -0.00666911341 0.0261249207 0
v -0.0202254262 0.0226995144 0
v -0.0137668084 0.0226995144 0
v -0.0209716298 0.0191341601 0
v 0.00632791407 0.0293892566 0
v 4.44686554e-09 0.0261249207 0
v -0.00696920417 0.0226995144 0
v -0.0142747229 0.0191341601 0
v -0.0215885341 0.0154508362 0
v 0.00666912226 0.0261249207 0
v 4.64696193e-09 0.0226995144 0
v -0.00722632743 0.0191341601 0
v -0.0146946311 0.0154508362 0
v -0.0220723357 0.0116722537 0
v 0.00696921395 0.0226995144 0
v 4.81840745e-09 0.0191341601 0
v -0.00743889855 0.0154508362 0
v -0.0150239402 0.0116722537 0
v -0.022420058 0.00782170612 0
v 0.00722633814 0.0191341601 0
v 4.96014652e-09 0.0154508362 0
v -0.00760560576 0.0116722537 0
v -0.0152606247 0.00782170612 0
v -0.0226295516 0.00392293604 0
v 0.00743890926 0.0154508362 0
v 5.07130427e-09 0.0116722537 0
v -0.00772542227 0.00782170612 0
v -0.0154032204 0.00392293604 0
v -0.0226995256 0 0
v 0.00760561693 0.0116722537 0
v 5.15119636e-09 0.00782170612 0
v -0.00779760815 0.00392293604 0
v -0.0154508483 0 0
v -0.0226295516 -0.00392293604 0
v 0.00772543298 0.00782170612 0
v 5.19932941e-09 0.00392293604 0
v -0.00782172009 0 0
v -0.0154032204 -0.00392293604 0
v -0.022420058 -0.00782170612 0
v 0.00779761933 0.00392293604 0
v 5.21540633e-09 0 0
v -0.00779760815 -0.00392293604 0
v -0.0152606247 -0.00782170612 0
v -0.0220723357 -0.0116722537 0
v 0.00782173127 0 0
v 5.19932941e-09 -0.00392293604 0
v -0.00772542227 -0.00782170612 0
v -0.0150239402 -0.0116722537 0
v -0.0215885341 -0.0154508362 0
v 0.00779761933 -0.00392293604 0
v 5.15119636e-09 -0.00782170612 0
v -0.00760560576 -0.0116722537 0
v -0.0146946311 -0.0154508362 0
v -0.0209716298 -0.0191341601 0
v 0.00772543298 -0.00782170612 0
v 5.07130427e-09 -0.0116722537 0
v -0.00743889855 -0.0154508362 0
v -0.0142747229 -0.0191341601 0
v -0.0202254262 -0.0226995144 0
v 0.00760561693 -0.0116722537 0
v 4.96014652e-09 -0.0154508362 0
v -0.00722632743 -0.0191341601 0
v -0.0137668084 -0.0226995144 0
v -0.0193545297 -0.0261249207 0
v 0.00743890926 -0.0154508362 0
v 4.81840745e-09 -0.0191341601 0
v -0.00696920417 -0.0226995144 0
v -0.0131740151 -0.0261249207 0
v -0.0183643047 -0.0293892566 0
v 0.00722633814 -0.0191341601 0
v 4.64696193e-09 -0.0226995144 0
v -0.00666911341 -0.0261249207 0
v -0.0124999993 -0.0293892566 0
v -0.0172608551 -0.0324723981 0
v 0.00696921395 -0.0226995144 0
v 4.44686554e-09 -0.0261249207 0
v -0.0063279043 -0.0293892566 0
v -0.0117489183 -0.0324723981 0
v -0.0160509888 -0.0353553332 0
v 0.00666912226 -0.0261249207 0
v 4.21935287e-09 -0.0293892566 0
v -0.00594768254 -0.0324723981 0
v -0.0109254001 -0.0353553332 0
v -0.0147421639 -0.0380202979 0
v 0.00632791407 -0.0293892566 0
v 3.96582633e-09 -0.0324723981 0
v -0.00553079182 -0.0353553332 0
v -0.0100345239 -0.0380202979 0
v -0.0133424457 -0.0404508486 0
v 0.00594769185 -0.0324723981 0
v 3.6878498e-09 -0.0353553332 0
v -0.00507980119 -0.0380202979 0
v -0.00908178091 -0.0404508486 0
v -0.0118604684 -0.0426320061 0
v 0.00553079927 -0.0353553332 0
v 3.38713591e-09 -0.0380202979 0
v -0.00459749158 -0.0404508486 0
v -0.00807304587 -0.0426320061 0
v -0.0103053702 -0.0445503257 0
v 0.00507980818 -0.0380202979 0
v 3.06553871e-09 -0.0404508486 0
v -0.00408683717 -0.0426320061 0
v -0.00701453909 -0.0445503257 0
v -0.00868673343 -0.046193976 0
v 0.0045974981 -0.0404508486 0
v 2.72504219e-09 -0.0426320061 0
v -0.00355098676 -0.0445503257 0
v -0.00591278402 -0.046193976 0
v -0.00701453956 -0.0475528277 0
v -0.00477457466 -0.0475528277 0
v -0.00360692921 -0.0486184955 0
v -0.00299324258 -0.046193976 0
v 2.36774511e-09 -0.0445503257 0
v -0.00241704448 -0.0475528277 0
v -0.00122358662 -0.0493844151 0
v 4.09196094e-10 -0.0498458669 0
v -0.00182594429 -0.0486184955 0
v 8.15869317e-10 -0.0493844151 0
v 0.000613685988 -0.0498458669 0
v 1.99584971e-09 -0.046193976 0
v 1.21751242e-09 -0.0486184955 0
v 0.00122358836 -0.0493844151 0
v 0.00121226057 -0.0498458669 0
v 1.61164926e-09 -0.0475528277 0
v 0.00241704728 -0.0493844151 0
v 0.00178098527 -0.0498458669 0
v 0.00182594685 -0.0486184955 0
v 0.00241704797 -0.0475528277 0
v 0.00299324724 -0.046193976 0
v 0.00355099025 -0.0493844151 0
v 0.00230585621 -0.0498458669 0
v 0.00360693177 -0.0486184955 0
v 0.00459749624 -0.0493844151 0
v 0.00277394918 -0.0498458669 0
v 0.00477457885 -0.0475528277 0
v 0.00529910205 -0.0486184955 0
v 0.00355099165 -0.0445503257 0
v 0.00553079648 -0.0493844151 0
v 0.00317373872 -0.0498458669 0
v 0.00686079124 -0.0486184955 0
v 0.00701454282 -0.0475528277 0
v 0.00591278821 -0.046193976 0
v 0.00408684323 -0.0426320061 0
v 0.00632791035 -0.0493844151 0
v 0.00349537982 -0.0498458669 0
v 0.00825354457 -0.0486184955 0
v 0.0090817865 -0.0475528277 0
v 0.00868673809 -0.046193976 0
v 0.00701454375 -0.0445503257 0
v 0.00807305239 -0.0426320061 0
v 0.00696920976 -0.0493844151 0
v 0.00373095321 -0.0498458669 0
v 0.00944306795 -0.0486184955 0
v 0.0109254057 -0.0475528277 0
v 0.0112467892 -0.046193976 0
v 0.0103053749 -0.0445503257 0
v 0.00908178743 -0.0404508486 0
v 0.00743890367 -0.0493844151 0
v 0.00387465837 -0.0498458669 0
v 0.00772542832 -0.0493844151 0
v 0.0118604749 -0.0426320061 0
v 0.0133424532 -0.0445503257 0
v 0.0100345323 -0.0380202979 0
v 0.0104000708 -0.0486184955 0
v 0.0111009916 -0.0486184955 0
v 0.0115285683 -0.0486184955 0
v 0.0133424532 -0.0404508486 0
v 0.0109254094 -0.0353553332 0
v 0.0125000058 -0.0475528277 0
v 0.0146946367 -0.0475528277 0
v 0.0152606303 -0.0475528277 0
v 0.0137668131 -0.0475528277 0
v 0.0135299098 -0.046193976 0
v 0.0181976855 -0.046193976 0
v 0.0188986063 -0.046193976 0
v 0.0170486793 -0.046193976 0
v 0.0154798767 -0.046193976 0
v 0.0160509944 -0.0445503257 0
v 0.0215885397 -0.0445503257 0
v 0.0224200655 -0.0445503257 0
v 0.0202254336 -0.0445503257 0
v 0.0183643103 -0.0445503257 0
v 0.0153558552 -0.0426320061 0
v 0.024846293 -0.0426320061 0
v 0.025803294 -0.0426320061 0
v 0.0232774895 -0.0426320061 0
v 0.0211355183 -0.0426320061 0
v 0.0184731223 -0.0426320061 0
v 0.0172745828 -0.0404508486 0
v 0.0279508587 -0.0404508486 0
v 0.0290274415 -0.0404508486 0
v 0.0261860341 -0.0404508486 0
v 0.0237764232 -0.0404508486 0
v 0.020781355 -0.0404508486 0
v 0.0147421714 -0.0380202979 0
v 0.0308831017 -0.0380202979 0
v 0.0320726261 -0.0380202979 0
v 0.0289331377 -0.0380202979 0
v 0.0262707379 -0.0380202979 0
v 0.0229614675 -0.0380202979 0
v 0.019086808 -0.0380202979 0
v 0.0160509981 -0.0353553332 0
v 0.0336249396 -0.0353553332 0
v 0.0349200703 -0.0353553332 0
v 0.031501852 -0.0353553332 0
v 0.0286030862 -0.0353553332 0
v 0.0250000134 -0.0353553332 0
v 0.0207813587 -0.0353553332 0
v 0.0117489267 -0.0324723981 0
v 0.0361594707 -0.0324723981 0
v 0.0375522226 -0.0324723981 0
v 0.0338763483 -0.0324723981 0
v 0.0307590831 -0.0324723981 0
v 0.0268844236 -0.0324723981 0
v 0.0223477818 -0.0324723981 0
v 0.0125000104 -0.0293892566 0
v 0.0384710655 -0.0293892566 0
v 0.0399528481 -0.0293892566 0
v 0.0360419899 -0.0293892566 0
v 0.0327254422 -0.0293892566 0
v 0.0286030862 -0.0293892566 0
v 0.0405454673 -0.0261249207 0
v 0.0421071574 -0.0261249207 0
v 0.037985418 -0.0261249207 0
v 0.0344900377 -0.0261249207 0
v 0.0423698984 -0.0226995144 0
v 0.0440018587 -0.0226995144 0
v 0.039694652 -0.0226995144 0
v 0.0439331047 -0.0191341601 0
v 0.0456252769 -0.0191341601 0
v 0.023776425 -0.0293892566 0
v 0.0301454011 -0.0261249207 0
v 0.0360419936 -0.0226995144 0
v 0.0411591567 -0.0191341601 0
v 0.0452254489 -0.0154508362 0
v 0.0469673909 -0.0154508362 0
v 0.0250584818 -0.0261249207 0
v 0.0315018557 -0.0226995144 0
v 0.0373717323 -0.0191341601 0
v 0.0423698984 -0.0154508362 0
v 0.0462389551 -0.0116722537 0
v 0.0480199419 -0.0116722537 0
v 0.0261860397 -0.0226995144 0
v 0.0326640941 -0.0191341601 0
v 0.0384710655 -0.0154508362 0
v 0.0433194153 -0.0116722537 0
v 0.0469673909 -0.00782170612 0
v 0.0487764366 -0.00782170612 0
v 0.0271521546 -0.0191341601 0
v 0.0336249433 -0.0154508362 0
v 0.0393332094 -0.0116722537 0
v 0.0440018587 -0.00782170612 0
v 0.0474062525 -0.00392293604 0
v 0.0492321998 -0.00392293604 0
v 0.0279508624 -0.0154508362 0
v 0.0343784839 -0.0116722537 0
v 0.0399528518 -0.00782170612 0
v 0.0444130115 -0.00392293604 0
v 0.0475528426 0 0
v 0.0493844338 0 0
v 0.0285772514 -0.0116722537 0
v 0.034920074 -0.00782170612 0
v 0.0403261706 -0.00392293604 0
v 0.0445503406 0 0
v 0.0474062525 0.00392293604 0
v 0.0492321998 0.00392293604 0
v 0.029027449 -0.00782170612 0
v 0.0352463685 -0.00392293604 0
v 0.0404508673 0 0
v 0.0444130115 0.00392293604 0
v 0.0469673909 0.00782170612 0
v 0.0487764366 0.00782170612 0
v 0.0292986818 -0.00392293604 0
v 0.0353553556 0 0
v 0.0403261706 0.00392293604 0
v 0.0440018587 0.00782170612 0
v 0.0462389551 0.0116722537 0
v 0.0480199419 0.0116722537 0
v 0.0293892752 0 0
v 0.0352463685 0.00392293604 0
v 0.0399528518 0.00782170612 0
v 0.0433194153 0.0116722537 0
v 0.0452254489 0.0154508362 0
v 0.0469673909 0.0154508362 0
v 0.0292986818 0.00392293604 0
v 0.034920074 0.00782170612 0
v 0.0393332094 0.0116722537 0
v 0.0423698984 0.0154508362 0
v 0.0439331047 0.0191341601 0
v 0.0456252769 0.0191341601 0
v 0.029027449 0.00782170612 0
v 0.0343784839 0.0116722537 0
v 0.0384710655 0.0154508362 0
v 0.0411591567 0.0191341601 0
v 0.0423698984 0.0226995144 0
v 0.039694652 0.0226995144 0
v 0.037985418 0.0261249207 0
v 0.0373717323 0.0191341601 0
v 0.0336249433 0.0154508362 0
v 0.0360419936 0.0226995144 0
v 0.0327254422 0.0293892566 0
v 0.0344900377 0.0261249207 0
v 0.0286030862 0.0293892566 0
v 0.0326640941 0.0191341601 0
v 0.0315018557 0.0226995144 0
v 0.0301454011 0.0261249207 0
v 0.023776425 0.0293892566 0
v 0.0250584818 0.0261249207 0
v 0.0261860397 0.0226995144 0
v 0.0271521546 0.0191341601 0
v 0.0172608662 0.0324723981 0
v 0.0183643121 0.0293892566 0
v 0.0117489267 0.0324723981 0
v 0.0125000104 0.0293892566 0
v 0.019354539 0.0261249207 0
v 0.0131740253 0.0261249207 0
v 0.0202254392 0.0226995144 0
v 0.0137668187 0.0226995144 0
v 0.0209716409 0.0191341601 0
v 0.014274735 0.0191341601 0
v 0.0279508624 0.0154508362 0
v 0.0215885453 0.0154508362 0
v 0.0146946423 0.0154508362 0
v 0.0285772514 0.0116722537 0
v 0.0220723487 0.0116722537 0
v 0.0150239524 0.0116722537 0
v 0.0224200692 0.00782170612 0
v 0.0152606368 0.00782170612 0
v 0.0226295628 0.00392293604 0
v 0.0154032297 0.00392293604 0
v 0.0226995368 0 0
v 0.0154508604 0 0
v 0.0226295628 -0.00392293604 0
v 0.0154032297 -0.00392293604 0
v 0.0224200692 -0.00782170612 0
v 0.0152606368 -0.00782170612 0
v 0.0220723487 -0.0116722537 0
v 0.0150239524 -0.0116722537 0
v 0.0215885453 -0.0154508362 0
v 0.0146946423 -0.0154508362 0
v 0.0209716409 -0.0191341601 0
v 0.014274735 -0.0191341601 0
v 0.0202254392 -0.0226995144 0
v 0.0137668187 -0.0226995144 0
v 0.019354539 -0.0261249207 0
v 0.0131740253 -0.0261249207 0
v 0.0183643121 -0.0293892566 0
v 0.0172608662 -0.0324723981 0
vt 0.944444418 0
vt 1 0.0263157785
vt 1 0
vt 0.944444418 0.0263157785
vt 0.888888896 0
vt 1 0.0526315868
vt 0.888888896 0.0263157785
vt 0.833333373 0
vt 0.944444418 0.0526315868
vt 1 0.0789473653
vt 0.833333373 0.0263157785
vt 0.777777791 0
vt 0.888888896 0.0526315868
vt 0.944444418 0.0789473653
vt 1 0.105263144
vt 0.777777791 0.0263157785
vt 0.722222209 0
vt 0.833333373 0.0526315868
vt 0.888888896 0.0789473653
vt 0.944444418 0.105263144
vt 1 0.131578952
vt 0.722222209 0.0263157785
vt 0.666666687 0
vt 0.777777791 0.0526315868
vt 0.833333373 0.0789473653
vt 0.888888896 0.105263144
vt 0.944444418 0.131578952
vt 1 0.157894731
vt 0.666666687 0.0263157785
vt 0.611111104 0
vt 0.722222209 0.0526315868
vt 0.777777791 0.0789473653
vt 0.833333373 0.105263144
vt 0.888888896 0.131578952
vt 0.944444418 0.157894731
vt 1 0.184210539
vt 0.611111104 0.0263157785
vt 0.555555582 0
vt 0.666666687 0.0526315868
vt 0.722222209 0.0789473653
vt 0.777777791 0.105263144
vt 0.833333373 0.131578952
vt 0.888888896 0.157894731
vt 0.944444418 0.184210539
vt 1 0.210526317
vt 0.944444418 0.210526317
vt 1 0.236842096
vt 0.888888896 0.184210539
vt 0.833333373 0.157894731
vt 0.777777791 0.131578952
vt 0.722222209 0.105263144
vt 0.944444418 0.236842096
vt 1 0.263157904
vt 0.888888896 0.210526317
vt 0.833333373 0.184210539
vt 0.777777791 0.157894731
vt 0.944444418 0.263157904
vt 1 0.289473683
vt 0.888888896 0.236842096
vt 0.833333373 0.210526317
vt 0.944444418 0.289473683
vt 1 0.315789461
vt 0.888888896 0.263157904
vt 0.944444418 0.315789461
vt 1 0.342105269
vt 0.722222209 0.131578952
vt 0.777777791 0.184210539
vt 0.833333373 0.236842096
vt 0.888888896 0.289473683
vt 0.944444418 0.342105269
vt 1 0.368421048
vt 0.722222209 0.157894731
vt 0.777777791 0.210526317
vt 0.833333373 0.263157904
vt 0.888888896 0.315789461
vt 0.944444418 0.368421048
vt 1 0.394736826
vt 0.722222209 0.184210539
vt 0.777777791 0.236842096
vt 0.833333373 0.289473683
vt 0.888888896 0.342105269
vt 0.944444418 0.394736826
vt 1 0.421052635
vt 0.722222209 0.210526317
vt 0.777777791 0.263157904
vt 0.833333373 0.315789461
vt 0.888888896 0.368421048
vt 0.944444418 0.421052635
vt 1 0.447368413
vt 0.722222209 0.236842096
vt 0.777777791 0.289473683
vt 0.833333373 0.342105269
vt 0.888888896 0.394736826
vt 0.944444418 0.447368413
vt 1 0.473684222
vt 0.722222209 0.263157904
vt 0.777777791 0.315789461
vt 0.833333373 0.368421048
vt 0.888888896 0.421052635
vt 0.944444418 0.473684222
vt 1 0.5
vt 0.722222209 0.289473683
vt 0.777777791 0.342105269
vt 0.833333373 0.394736826
vt 0.888888896 0.447368413
vt 0.944444418 0.5
vt 1 0.526315808
vt 0.722222209 0.315789461
vt 0.777777791 0.368421048
vt 0.833333373 0.421052635
vt 0.888888896 0.473684222
vt 0.944444418 0.526315808
vt 1 0.552631557
vt 0.722222209 0.342105269
vt 0.777777791 0.394736826
vt 0.833333373 0.447368413
vt 0.888888896 0.5
vt 0.944444418 0.552631557
vt 1 0.578947365
vt 0.722222209 0.368421048
vt 0.777777791 0.421052635
vt 0.833333373 0.473684222
vt 0.888888896 0.526315808
vt 0.944444418 0.578947365
vt 1 0.605263174
vt 0.722222209 0.394736826
vt 0.777777791 0.447368413
vt 0.833333373 0.5
vt 0.888888896 0.552631557
vt 0.944444418 0.605263174
vt 1 0.631578922
vt 0.722222209 0.421052635
vt 0.777777791 0.473684222
vt 0.833333373 0.526315808
vt 0.888888896 0.578947365
vt 0.944444418 0.631578922
vt 1 0.657894731
vt 0.722222209 0.447368413
vt 0.777777791 0.5
vt 0.833333373 0.552631557
vt 0.888888896 0.605263174
vt 0.944444418 0.657894731
vt 1 0.684210539
vt 0.722222209 0.473684222
vt 0.777777791 0.526315808
vt 0.833333373 0.578947365
vt 0.888888896 0.631578922
vt 0.944444418 0.684210539
vt 1 0.710526347
vt 0.722222209 0.5
vt 0.777777791 0.552631557
vt 0.833333373 0.605263174
vt 0.888888896 0.657894731
vt 0.944444418 0.710526347
vt 1 0.736842096
vt 0.722222209 0.526315808
vt 0.777777791 0.578947365
vt 0.833333373 0.631578922
vt 0.888888896 0.684210539
vt 0.944444418 0.736842096
vt 1 0.763157904
vt 0.722222209 0.552631557
vt 0.777777791 0.605263174
vt 0.833333373 0.657894731
vt 0.888888896 0.710526347
vt 0.944444418 0.763157904
vt 1 0.789473653
vt 0.722222209 0.578947365
vt 0.777777791 0.631578922
vt 0.833333373 0.684210539
vt 0.888888896 0.736842096
vt 0.944444418 0.789473653
vt 1 0.815789461
vt 0.722222209 0.605263174
vt 0.777777791 0.657894731
vt 0.833333373 0.710526347
vt 0.888888896 0.763157904
vt 0.944444418 0.815789461
vt 1 0.842105269
vt 0.722222209 0.631578922
vt 0.777777791 0.684210539
vt 0.833333373 0.736842096
vt 0.888888896 0.789473653
vt 0.944444418 0.842105269
vt 1 0.868421078
vt 0.722222209 0.657894731
vt 0.777777791 0.710526347
vt 0.833333373 0.763157904
vt 0.888888896 0.815789461
vt 0.944444418 0.868421078
vt 1 0.894736886
vt 0.722222209 0.684210539
vt 0.777777791 0.736842096
vt 0.833333373 0.789473653
vt 0.888888896 0.842105269
vt 0.944444418 0.894736886
vt 1 0.921052635
vt 0.722222209 0.710526347
vt 0.777777791 0.763157904
vt 0.833333373 0.815789461
vt 0.888888896 0.868421078
vt 0.944444418 0.921052635
vt 1 0.947368383
vt 0.722222209 0.736842096
vt 0.777777791 0.789473653
vt 0.833333373 0.842105269
vt 0.888888896 0.894736886
vt 0.944444418 0.947368383
vt 1 0.973684192
vt 0.722222209 0.763157904
vt 0.777777791 0.815789461
vt 0.833333373 0.868421078
vt 0.888888896 0.921052635
vt 0.944444418 0.973684192
vt 1 1
vt 0.944444418 1
vt 0.888888896 0.947368383
vt 0.888888896 0.973684192
vt 0.888888896 1
vt 0.833333373 0.894736886
vt 0.777777791 0.842105269
vt 0.833333373 0.921052635
vt 0.833333373 0.947368383
vt 0.833333373 0.973684192
vt 0.833333373 1
vt 0.777777791 0.868421078
vt 0.777777791 0.894736886
vt 0.777777791 0.921052635
vt 0.777777791 0.947368383
vt 0.777777791 0.973684192
vt 0.777777791 1
vt 0.722222209 0.973684192
vt 0.722222209 1
vt 0.722222209 0.947368383
vt 0.722222209 0.921052635
vt 0.722222209 0.894736886
vt 0.722222209 0.868421078
vt 0.666666687 0.973684192
vt 0.666666687 1
vt 0.666666687 0.947368383
vt 0.666666687 0.921052635
vt 0.666666687 0.894736886
vt 0.611111104 0.973684192
vt 0.611111104 1
vt 0.611111104 0.947368383
vt 0.611111104 0.921052635
vt 0.555555582 0.973684192
vt 0.555555582 1
vt 0.555555582 0.947368383
vt 0.5 0.973684192
vt 0.5 1
vt 0.666666687 0.868421078
vt 0.611111104 0.894736886
vt 0.555555582 0.921052635
vt 0.5 0.947368383
vt 0.444444448 0.973684192
vt 0.444444448 1
vt 0.611111104 0.868421078
vt 0.555555582 0.894736886
vt 0.5 0.921052635
vt 0.444444448 0.947368383
vt 0.388888896 0.973684192
vt 0.388888896 1
vt 0.555555582 0.868421078
vt 0.5 0.894736886
vt 0.444444448 0.921052635
vt 0.388888896 0.947368383
vt 0.333333313 0.973684192
vt 0.333333313 1
vt 0.5 0.868421078
vt 0.444444448 0.894736886
vt 0.388888896 0.921052635
vt 0.333333313 0.947368383
vt 0.277777791 0.973684192
vt 0.277777791 1
vt 0.444444448 0.868421078
vt 0.388888896 0.894736886
vt 0.333333313 0.921052635
vt 0.277777791 0.947368383
vt 0.222222209 0.973684192
vt 0.222222209 1
vt 0.388888896 0.868421078
vt 0.333333313 0.894736886
vt 0.277777791 0.921052635
vt 0.222222209 0.947368383
vt 0.166666657 0.973684192
vt 0.166666657 1
vt 0.333333313 0.868421078
vt 0.277777791 0.894736886
vt 0.222222209 0.921052635
vt 0.166666657 0.947368383
vt 0.111111104 0.973684192
vt 0.111111104 1
vt 0.277777791 0.868421078
vt 0.222222209 0.894736886
vt 0.166666657 0.921052635
vt 0.111111104 0.947368383
vt 0.0555555522 0.973684192
vt 0.0555555522 1
vt 0 0.973684192
vt 0 1
vt 0 0.947368383
vt 0.0555555522 0.947368383
vt 0 0.921052635
vt 0.0555555522 0.921052635
vt 0 0.894736886
vt 0.111111104 0.921052635
vt 0.0555555522 0.894736886
vt 0 0.868421078
vt 0.111111104 0.894736886
vt 0.0555555522 0.868421078
vt 0 0.842105269
vt 0.166666657 0.894736886
vt 0.0555555522 0.842105269
vt 0 0.815789461
vt 0.111111104 0.868421078
vt 0.166666657 0.868421078
vt 0.0555555522 0.815789461
vt 0 0.789473653
vt 0.111111104 0.842105269
vt 0.222222209 0.868421078
vt 0.0555555522 0.789473653
vt 0 0.763157904
vt 0.111111104 0.815789461
vt 0.166666657 0.842105269
vt 0.222222209 0.842105269
vt 0.0555555522 0.763157904
vt 0 0.736842096
vt 0.111111104 0.789473653
vt 0.166666657 0.815789461
vt 0.277777791 0.842105269
vt 0.0555555522 0.736842096
vt 0 0.710526347
vt 0.111111104 0.763157904
vt 0.166666657 0.789473653
vt 0.222222209 0.815789461
vt 0.333333313 0.842105269
vt 0.0555555522 0.710526347
vt 0 0.684210539
vt 0.111111104 0.736842096
vt 0.166666657 0.763157904
vt 0.222222209 0.789473653
vt 0.277777791 0.815789461
vt 0.388888896 0.842105269
vt 0.0555555522 0.684210539
vt 0 0.657894731
vt 0.111111104 0.710526347
vt 0.166666657 0.736842096
vt 0.222222209 0.763157904
vt 0.277777791 0.789473653
vt 0.333333313 0.815789461
vt 0.444444448 0.842105269
vt 0.388888896 0.815789461
vt 0.333333313 0.789473653
vt 0.277777791 0.763157904
vt 0.222222209 0.736842096
vt 0.5 0.842105269
vt 0.444444448 0.815789461
vt 0.388888896 0.789473653
vt 0.333333313 0.763157904
vt 0.555555582 0.842105269
vt 0.5 0.815789461
vt 0.444444448 0.789473653
vt 0.611111104 0.842105269
vt 0.555555582 0.815789461
vt 0.666666687 0.842105269
vt 0.277777791 0.736842096
vt 0.388888896 0.763157904
vt 0.5 0.789473653
vt 0.611111104 0.815789461
vt 0.722222209 0.842105269
vt 0.666666687 0.815789461
vt 0.722222209 0.815789461
vt 0.555555582 0.789473653
vt 0.444444448 0.763157904
vt 0.611111104 0.789473653
vt 0.666666687 0.789473653
vt 0.722222209 0.789473653
vt 0.5 0.763157904
vt 0.555555582 0.763157904
vt 0.611111104 0.763157904
vt 0.666666687 0.763157904
vt 0.666666687 0.736842096
vt 0.611111104 0.736842096
vt 0.555555582 0.736842096
vt 0.5 0.736842096
vt 0.444444448 0.736842096
vt 0.666666687 0.710526347
vt 0.611111104 0.710526347
vt 0.555555582 0.710526347
vt 0.5 0.710526347
vt 0.666666687 0.684210539
vt 0.611111104 0.684210539
vt 0.555555582 0.684210539
vt 0.666666687 0.657894731
vt 0.611111104 0.657894731
vt 0.666666687 0.631578922
vt 0.444444448 0.710526347
vt 0.5 0.684210539
vt 0.555555582 0.657894731
vt 0.611111104 0.631578922
vt 0.666666687 0.605263174
vt 0.444444448 0.684210539
vt 0.5 0.657894731
vt 0.555555582 0.631578922
vt 0.611111104 0.605263174
vt 0.666666687 0.578947365
vt 0.444444448 0.657894731
vt 0.5 0.631578922
vt 0.555555582 0.605263174
vt 0.611111104 0.578947365
vt 0.666666687 0.552631557
vt 0.444444448 0.631578922
vt 0.5 0.605263174
vt 0.555555582 0.578947365
vt 0.611111104 0.552631557
vt 0.666666687 0.526315808
vt 0.444444448 0.605263174
vt 0.5 0.578947365
vt 0.555555582 0.552631557
vt 0.611111104 0.526315808
vt 0.666666687 0.5
vt 0.444444448 0.578947365
vt 0.5 0.552631557
vt 0.555555582 0.526315808
vt 0.611111104 0.5
vt 0.666666687 0.473684222
vt 0.444444448 0.552631557
vt 0.5 0.526315808
vt 0.555555582 0.5
vt 0.611111104 0.473684222
vt 0.666666687 0.447368413
vt 0.444444448 0.526315808
vt 0.5 0.5
vt 0.555555582 0.473684222
vt 0.611111104 0.447368413
vt 0.666666687 0.421052635
vt 0.444444448 0.5
vt 0.5 0.473684222
vt 0.555555582 0.447368413
vt 0.611111104 0.421052635
vt 0.666666687 0.394736826
vt 0.444444448 0.473684222
vt 0.5 0.447368413
vt 0.555555582 0.421052635
vt 0.611111104 0.394736826
vt 0.666666687 0.368421048
vt 0.444444448 0.447368413
vt 0.5 0.421052635
vt 0.555555582 0.394736826
vt 0.611111104 0.368421048
vt 0.666666687 0.342105269
vt 0.444444448 0.421052635
vt 0.5 0.394736826
vt 0.555555582 0.368421048
vt 0.611111104 0.342105269
vt 0.666666687 0.315789461
vt 0.444444448 0.394736826
vt 0.5 0.368421048
vt 0.555555582 0.342105269
vt 0.611111104 0.315789461
vt 0.666666687 0.289473683
vt 0.444444448 0.368421048
vt 0.5 0.342105269
vt 0.555555582 0.315789461
vt 0.611111104 0.289473683
vt 0.666666687 0.263157904
vt 0.444444448 0.342105269
vt 0.5 0.315789461
vt 0.555555582 0.289473683
vt 0.611111104 0.263157904
vt 0.666666687 0.236842096
vt 0.444444448 0.315789461
vt 0.5 0.289473683
vt 0.555555582 0.263157904
vt 0.611111104 0.236842096
vt 0.666666687 0.210526317
vt 0.444444448 0.289473683
vt 0.5 0.263157904
vt 0.555555582 0.236842096
vt 0.611111104 0.210526317
vt 0.666666687 0.184210539
vt 0.444444448 0.263157904
vt 0.5 0.236842096
vt 0.555555582 0.210526317
vt 0.611111104 0.184210539
vt 0.666666687 0.157894731
vt 0.444444448 0.236842096
vt 0.5 0.210526317
vt 0.555555582 0.184210539
vt 0.611111104 0.157894731
vt 0.666666687 0.131578952
vt 0.444444448 0.210526317
vt 0.5 0.184210539
vt 0.555555582 0.157894731
vt 0.611111104 0.131578952
vt 0.666666687 0.105263144
vt 0.444444448 0.184210539
vt 0.5 0.157894731
vt 0.555555582 0.131578952
vt 0.611111104 0.105263144
vt 0.666666687 0.0789473653
vt 0.611111104 0.0789473653
vt 0.611111104 0.0526315868
vt 0.555555582 0.105263144
vt 0.5 0.131578952
vt 0.555555582 0.0789473653
vt 0.555555582 0.0263157785
vt 0.5 0
vt 0.555555582 0.0526315868
vt 0.5 0.0263157785
vt 0.444444448 0
vt 0.5 0.105263144
vt 0.5 0.0526315868
vt 0.444444448 0.0263157785
vt 0.388888896 0
vt 0.5 0.0789473653
vt 0.388888896 0.0263157785
vt 0.333333313 0
vt 0.444444448 0.0526315868
vt 0.444444448 0.0789473653
vt 0.444444448 0.105263144
vt 0.333333313 0.0263157785
vt 0.277777791 0
vt 0.388888896 0.0526315868
vt 0.277777791 0.0263157785
vt 0.222222209 0
vt 0.388888896 0.0789473653
vt 0.333333313 0.0526315868
vt 0.444444448 0.131578952
vt 0.222222209 0.0263157785
vt 0.166666657 0
vt 0.277777791 0.0526315868
vt 0.333333313 0.0789473653
vt 0.388888896 0.105263144
vt 0.444444448 0.157894731
vt 0.166666657 0.0263157785
vt 0.111111104 0
vt 0.222222209 0.0526315868
vt 0.277777791 0.0789473653
vt 0.333333313 0.105263144
vt 0.388888896 0.131578952
vt 0.388888896 0.157894731
vt 0.111111104 0.0263157785
vt 0.0555555522 0
vt 0.166666657 0.0526315868
vt 0.222222209 0.0789473653
vt 0.277777791 0.105263144
vt 0.333333313 0.131578952
vt 0.388888896 0.184210539
vt 0.0555555522 0.0263157785
vt 0 0
vt 0 0.0263157785
vt 0.333333313 0.157894731
vt 0.277777791 0.131578952
vt 0.388888896 0.210526317
vt 0.111111104 0.0526315868
vt 0.0555555522 0.0526315868
vt 0 0.0526315868
vt 0.333333313 0.184210539
vt 0.388888896 0.236842096
vt 0.166666657 0.0789473653
vt 0.0555555522 0.0789473653
vt 0 0.0789473653
vt 0.111111104 0.0789473653
vt 0.222222209 0.105263144
vt 0.0555555522 0.105263144
vt 0 0.105263144
vt 0.111111104 0.105263144
vt 0.166666657 0.105263144
vt 0.222222209 0.131578952
vt 0.0555555522 0.131578952
vt 0 0.131578952
vt 0.111111104 0.131578952
vt 0.166666657 0.131578952
vt 0.277777791 0.157894731
vt 0.0555555522 0.157894731
vt 0 0.157894731
vt 0.111111104 0.157894731
vt 0.166666657 0.157894731
vt 0.222222209 0.157894731
vt 0.277777791 0.184210539
vt 0.0555555522 0.184210539
vt 0 0.184210539
vt 0.111111104 0.184210539
vt 0.166666657 0.184210539
vt 0.222222209 0.184210539
vt 0.333333313 0.210526317
vt 0.0555555522 0.210526317
vt 0 0.210526317
vt 0.111111104 0.210526317
vt 0.166666657 0.210526317
vt 0.222222209 0.210526317
vt 0.277777791 0.210526317
vt 0.333333313 0.236842096
vt 0.0555555522 0.236842096
vt 0 0.236842096
vt 0.111111104 0.236842096
vt 0.166666657 0.236842096
vt 0.222222209 0.236842096
vt 0.277777791 0.236842096
vt 0.388888896 0.263157904
vt 0.0555555522 0.263157904
vt 0 0.263157904
vt 0.111111104 0.263157904
vt 0.166666657 0.263157904
vt 0.222222209 0.263157904
vt 0.277777791 0.263157904
vt 0.388888896 0.289473683
vt 0.0555555522 0.289473683
vt 0 0.289473683
vt 0.111111104 0.289473683
vt 0.166666657 0.289473683
vt 0.222222209 0.289473683
vt 0.0555555522 0.315789461
vt 0 0.315789461
vt 0.111111104 0.315789461
vt 0.166666657 0.315789461
vt 0.0555555522 0.342105269
vt 0 0.342105269
vt 0.111111104 0.342105269
vt 0.0555555522 0.368421048
vt 0 0.368421048
vt 0.277777791 0.289473683
vt 0.222222209 0.315789461
vt 0.166666657 0.342105269
vt 0.111111104 0.368421048
vt 0.0555555522 0.394736826
vt 0 0.394736826
vt 0.277777791 0.315789461
vt 0.222222209 0.342105269
vt 0.166666657 0.368421048
vt 0.111111104 0.394736826
vt 0.0555555522 0.421052635
vt 0 0.421052635
vt 0.277777791 0.342105269
vt 0.222222209 0.368421048
vt 0.166666657 0.394736826
vt 0.111111104 0.421052635
vt 0.0555555522 0.447368413
vt 0 0.447368413
vt 0.277777791 0.368421048
vt 0.222222209 0.394736826
vt 0.166666657 0.421052635
vt 0.111111104 0.447368413
vt 0.0555555522 0.473684222
vt 0 0.473684222
vt 0.277777791 0.394736826
vt 0.222222209 0.421052635
vt 0.166666657 0.447368413
vt 0.111111104 0.473684222
vt 0.0555555522 0.5
vt 0 0.5
vt 0.277777791 0.421052635
vt 0.222222209 0.447368413
vt 0.166666657 0.473684222
vt 0.111111104 0.5
vt 0.0555555522 0.526315808
vt 0 0.526315808
vt 0.277777791 0.447368413
vt 0.222222209 0.473684222
vt 0.166666657 0.5
vt 0.111111104 0.526315808
vt 0.0555555522 0.552631557
vt 0 0.552631557
vt 0.277777791 0.473684222
vt 0.222222209 0.5
vt 0.166666657 0.526315808
vt 0.111111104 0.552631557
vt 0.0555555522 0.578947365
vt 0 0.578947365
vt 0.277777791 0.5
vt 0.222222209 0.526315808
vt 0.166666657 0.552631557
vt 0.111111104 0.578947365
vt 0.0555555522 0.605263174
vt 0 0.605263174
vt 0.277777791 0.526315808
vt 0.222222209 0.552631557
vt 0.166666657 0.578947365
vt 0.111111104 0.605263174
vt 0.0555555522 0.631578922
vt 0 0.631578922
vt 0.277777791 0.552631557
vt 0.222222209 0.578947365
vt 0.166666657 0.605263174
vt 0.111111104 0.631578922
vt 0.0555555522 0.657894731
vt 0.111111104 0.657894731
vt 0.111111104 0.684210539
vt 0.166666657 0.631578922
vt 0.222222209 0.605263174
vt 0.166666657 0.657894731
vt 0.166666657 0.710526347
vt 0.166666657 0.684210539
vt 0.222222209 0.710526347
vt 0.222222209 0.631578922
vt 0.222222209 0.657894731
vt 0.222222209 0.684210539
vt 0.277777791 0.710526347
vt 0.277777791 0.684210539
vt 0.277777791 0.657894731
vt 0.277777791 0.631578922
vt 0.333333313 0.736842096
vt 0.333333313 0.710526347
vt 0.388888896 0.736842096
vt 0.388888896 0.710526347
vt 0.333333313 0.684210539
vt 0.388888896 0.684210539
vt 0.333333313 0.657894731
vt 0.388888896 0.657894731
vt 0.333333313 0.631578922
vt 0.388888896 0.631578922
vt 0.277777791 0.605263174
vt 0.333333313 0.605263174
vt 0.388888896 0.605263174
vt 0.277777791 0.578947365
vt 0.333333313 0.578947365
vt 0.388888896 0.578947365
vt 0.333333313 0.552631557
vt 0.388888896 0.552631557
vt 0.333333313 0.526315808
vt 0.388888896 0.526315808
vt 0.333333313 0.5
vt 0.388888896 0.5
vt 0.333333313 0.473684222
vt 0.388888896 0.473684222
vt 0.333333313 0.447368413
vt 0.388888896 0.447368413
vt 0.333333313 0.421052635
vt 0.388888896 0.421052635
vt 0.333333313 0.394736826
vt 0.388888896 0.394736826
vt 0.333333313 0.368421048
vt 0.388888896 0.368421048
vt 0.333333313 0.342105269
vt 0.388888896 0.342105269
vt 0.333333313 0.315789461
vt 0.388888896 0.315789461
vt 0.333333313 0.289473683
vt 0.333333313 0.263157904
vn 0 0 1
vn 0 0 1
vn 0 0 1
vn 0 0 1
vn 0 0 1
vn 0 0 1
vn 0 0 1
vn 0 0 1
vn 0 0 1
vn 0 0 1
vn 0 0 1
vn 0 0 1
vn 0 0 1
vn 0 0 1
vn 0 0 1
vn 0 0 1
vn 0 0 1
vn 0 0 1
vn 0 0 1
vn 0 0 1
vn 0 0 1
vn 0 0 1
vn 0 0 1
vn 0 0 1
vn 0 0 1
vn 0 0 1
vn 0 0 1
vn 0 0 1
vn 0 0 1
vn 0 0 1
vn 0 0 1
vn 0 0 1
vn 0 0 1
vn 0 0 1
vn 0 0 1
vn 0 0 1
vn 0 0 1
vn 0 0 1
vn 0 0 1
vn 0 0 1
vn 0 0 1
vn 0 0 1
vn 0 0 1
vn 0 0 1
vn 0 0 1
vn 0 0 1
vn 0 0 1
vn 0 0 1
vn 0 0 1
vn 0 0 1
vn 0 0 1
vn 0 0 1
vn 0 0 1
vn 0 0 1
vn 0 0 1
vn 0 0 1
vn 0 0 1
vn 0 0 1
vn 0 0 1
vn 0 0 1
vn 0 0 1
vn 0 0 1
vn 0 0 1
vn 0 0 1
vn 0 0 1
vn 0 0 1
vn 0 0 1
vn 0 0 1
vn 0 0 1
vn 0 0 1
vn 0 0 1
vn 0 0 1
vn 0 0 1
vn 0 0 1
vn 0 0 1
vn 0 0 1
vn 0 0 1
vn 0 0 1
vn 0 0 1
vn 0 0 1
vn 0 0 1
vn 0 0 1
vn 0 0 1
vn 0 0 1
vn 0 0 1
vn 0 0 1
vn 0 0 1
vn 0 0 1
vn 0 0 1
vn 0 0 1
vn 0 0 1
vn 0 0 1
vn 0 0 1
vn 0 0 1
vn 0 0 1
vn 0 0 1
vn 0 0 1
vn 0 0 1
vn 0 0 1
vn 0 0 1
vn 0 0 1
vn 0 0 1
vn 0 0 1
vn 0 0 1
vn 0 0 1
vn 0 0 1
vn 0 0 1
vn 0 0 1
vn 0 0 1
vn 0 0 1
vn 0 0 1
vn 0 0 1
vn 0 0 1
vn 0 0 1
vn 0 0 1
vn 0 0 1
vn 0 0 1
vn 0 0 1
vn 0 0 1
vn 0 0 1
vn 0 0 1
vn 0 0 1
vn 0 0 1
vn 0 0 1
vn 0 0 1
vn 0 0 1
vn 0 0 1
vn 0 0 1
vn 0 0 1
vn 0 0 1
vn 0 0 1
vn 0 0 1
vn 0 0 1
vn 0 0 1
vn 0 0 1
vn 0 0 1
vn 0 0 1
vn 0 0 1
vn 0 0 1
vn 0 0 1
vn 0 0 1
vn 0 0 1
vn 0 0 1
vn 0 0 1
vn 0 0 1
vn 0 0 1
vn 0 0 1
vn 0 0 1
vn 0 0 1
vn 0 0 1
vn 0 0 1
vn 0 0 1
vn 0 0 1
vn 0 0 1
vn 0 0 1
vn 0 0 1
vn 0 0 1
vn 0 0 1
vn 0 0 1
vn 0 0 1
vn 0 0 1
vn 0 0 1
vn 0 0 1
vn 0 0 1
vn 0 0 1
vn 0 0 1
vn 0 0 1
vn 0 0 1
vn 0 0 1
vn 0 0 1
vn 0 0 1
vn 0 0 1
vn 0 0 1
vn 0 0 1
vn 0 0 1
vn 0 0 1
vn 0 0 1
vn 0 0 1
vn 0 0 1
vn 0 0 1
vn 0 0 1
vn 0 0 1
vn 0 0 1
vn 0 0 1
vn 0 0 1
vn 0 0 1
vn 0 0 1
vn 0 0 1
vn 0 0 1
vn 0 0 1
vn 0 0 1
vn 0 0 1
vn 0 0 1
vn 0 0 1
vn 0 0 1
vn 0 0 1
vn 0 0 1
vn 0 0 1
vn 0 0 1
vn 0 0 1
vn 0 0 1
vn 0 0 1
vn 0 0 1
vn 0 0 1
vn 0 0 1
vn 0 0 1
vn 0 0 1
vn 0 0 1
vn 0 0 1
vn 0 0 1
vn 0 0 1
vn 0 0 1
vn 0 0 1
vn 0 0 1
vn 0 0 1
vn 0 0 1
vn 0 0 1
vn 0 0 1
vn 0 0 1
vn 0 0 1
vn 0 0 1
vn 0 0 1
vn 0 0 1
vn 0 0 1
vn 0 0 1
vn 0 0 1
vn 0 0 1
vn 0 0 1
vn 0 0 1
vn 0 0 1
vn 0 0 1
vn 0 0 1
vn 0 0 1
vn 0 0 1
vn 0 0 1
vn 0 0 1
vn 0 0 1
vn 0 0 1
vn 0 0 1
vn 0 0 1
vn 0 0 1
vn 0 0 1
vn 0 0 1
vn 0 0 1
vn 0 0 1
vn 0 0 1
vn 0 0 1
vn 0 0 1
vn 0 0 1
vn 0 0 1
vn 0 0 1
vn 0 0 1
vn 0 0 1
vn 0 0 1
vn 0 0 1
vn 0 0 1
vn 0 0 1
vn 0 0 1
vn 0 0 1
vn 0 0 1
vn 0 0 1
vn 0 0 1
vn 0 0 1
vn 0 0 1
vn 0 0 1
vn 0 0 1
vn 0 0 1
vn 0 0 1
vn 0 0 1
vn 0 0 1
vn 0 0 1
vn 0 0 1
vn 0 0 1
vn 0 0 1
vn 0 0 1
vn 0 0 1
vn 0 0 1
vn 0 0 1
vn 0 0 1
vn 0 0 1
vn 0 0 1
vn 0 0 1
vn 0 0 1
vn 0 0 1
vn 0 0 1
vn 0 0 1
vn 0 0 1
vn 0 0 1
vn 0 0 1
vn 0 0 1
vn 0 0 1
vn 0 0 1
vn 0 0 1
vn 0 0 1
vn 0 0 1
vn 0 0 1
vn 0 0 1
vn 0 0 1
vn 0 0 1
vn 0 0 1
vn 0 0 1
vn 0 0 1
vn 0 0 1
vn 0 0 1
vn 0 0 1
vn 0 0 1
vn 0 0 1
vn 0 0 1
vn 0 0 1
vn 0 0 1
vn 0 0 1
vn 0 0 1
vn 0 0 1
vn 0 0 1
vn 0 0 1
vn 0 0 1
vn 0 0 1
vn 0 0 1
vn 0 0 1
vn 0 0 1
vn 0 0 1
vn 0 0 1
vn 0 0 1
vn 0 0 1
vn 0 0 1
vn 0 0 1
vn 0 0 1
vn 0 0 1
vn 0 0 1
vn 0 0 1
vn 0 0 1
vn 0 0 1
vn 0 0 1
vn 0 0 1
vn 0 0 1
vn 0 0 1
vn 0 0 1
vn 0 0 1
vn 0 0 1
vn 0 0 1
vn 0 0 1
vn 0 0 1
vn 0 0 1
vn 0 0 1
vn 0 0 1
vn 0 0 1
vn 0 0 1
vn 0 0 1
vn 0 0 1
vn 0 0 1
vn 0 0 1
vn 0 0 1
vn 0 0 1
vn 0 0 1
vn 0 0 1
vn 0 0 1
vn 0 0 1
vn 0 0 1
vn 0 0 1
vn 0 0 1
vn 0 0 1
vn 0 0 1
vn 0 0 1
vn 0 0 1
vn 0 0 1
vn 0 0 1
vn 0 0 1
vn 0 0 1
vn 0 0 1
vn 0 0 1
vn 0 0 1
vn 0 0 1
vn 0 0 1
vn 0 0 1
vn 0 0 1
vn 0 0 1
vn 0 0 1
vn 0 0 1
vn 0 0 1
vn 0 0 1
vn 0 0 1
vn 0 0 1
vn 0 0 1
vn 0 0 1
vn 0 0 1
vn 0 0 1
vn 0 0 1
vn 0 0 1
vn 0 0 1
vn 0 0 1
vn 0 0 1
vn 0 0 1
vn 0 0 1
vn 0 0 1
vn 0 0 1
vn 0 0 1
vn 0 0 1
vn 0 0 1
vn 0 0 1
vn 0 0 1
vn 0 0 1
vn 0 0 1
vn 0 0 1
vn 0 0 1
vn 0 0 1
vn 0 0 1
vn 0 0 1
vn 0 0 1
vn 0 0 1
vn 0 0 1
vn 0 0 1
vn 0 0 1
vn 0 0 1
vn 0 0 1
vn 0 0 1
vn 0 0 1
vn 0 0 1
vn 0 0 1
vn 0 0 1
vn 0 0 1
vn 0 0 1
vn 0 0 1
vn 0 0 1
vn 0 0 1
vn 0 0 1
vn 0 0 1
vn 0 0 1
vn 0 0 1
vn 0 0 1
vn 0 0 1
vn 0 0 1
vn 0 0 1
vn 0 0 1
vn 0 0 1
vn 0 0 1
vn 0 0 1
vn 0 0 1
vn 0 0 1
vn 0 0 1
vn 0 0 1
vn 0 0 1
vn 0 0 1
vn 0 0 1
vn 0 0 1
vn 0 0 1
vn 0 0 1
vn 0 0 1
vn 0 0 1
vn 0 0 1
vn 0 0 1
vn 0 0 1
vn 0 0 1
vn 0 0 1
vn 0 0 1
vn 0 0 1
vn 0 0 1
vn 0 0 1
vn 0 0 1
vn 0 0 1
vn 0 0 1
vn 0 0 1
vn 0 0 1
vn 0 0 1
vn 0 0 1
vn 0 0 1
vn 0 0 1
vn 0 0 1
vn 0 0 1
vn 0 0 1
vn 0 0 1
vn 0 0 1
vn 0 0 1
vn 0 0 1
vn 0 0 1
vn 0 0 1
vn 0 0 1
vn 0 0 1
vn 0 0 1
vn 0 0 1
vn 0 0 1
vn 0 0 1
vn 0 0 1
vn 0 0 1
vn 0 0 1
vn 0 0 1
vn 0 0 1
vn 0 0 1
vn 0 0 1
vn 0 0 1
vn 0 0 1
vn 0 0 1
vn 0 0 1
vn 0 0 1
vn 0 0 1
vn 0 0 1
vn 0 0 1
vn 0 0 1
vn 0 0 1
vn 0 0 1
vn 0 0 1
vn 0 0 1
vn 0 0 1
vn 0 0 1
vn 0 0 1
vn 0 0 1
vn 0 0 1
vn 0 0 1
vn 0 0 1
vn 0 0 1
vn 0 0 1
vn 0 0 1
vn 0 0 1
vn 0 0 1
vn 0 0 1
vn 0 0 1
vn 0 0 1
vn 0 0 1
vn 0 0 1
vn 0 0 1
vn 0 0 1
vn 0 0 1
vn 0 0 1
vn 0 0 1
vn 0 0 1
vn 0 0 1
vn 0 0 1
vn 0 0 1
vn 0 0 1
vn 0 0 1
vn 0 0 1
vn 0 0 1
vn 0 0 1
vn 0 0 1
vn 0 0 1
vn 0 0 1
vn 0 0 1
vn 0 0 1
vn 0 0 1
vn 0 0 1
vn 0 0 1
vn 0 0 1
vn 0 0 1
vn 0 0 1
vn 0 0 1
vn 0 0 1
vn 0 0 1
vn 0 0 1
vn 0 0 1
vn 0 0 1
vn 0 0 1
vn 0 0 1
vn 0 0 1
vn 0 0 1
vn 0 0 1
vn 0 0 1
vn 0 0 1
vn 0 0 1
vn 0 0 1
vn 0 0 1
vn 0 0 1
vn 0 0 1
vn 0 0 1
vn 0 0 1
vn 0 0 1
vn 0 0 1
vn 0 0 1
vn 0 0 1
vn 0 0 1
vn 0 0 1
vn 0 0 1
vn 0 0 1
vn 0 0 1
vn 0 0 1
vn 0 0 1
vn 0 0 1
vn 0 0 1
vn 0 0 1
vn 0 0 1
vn 0 0 1
vn 0 0 1
vn 0 0 1
vn 0 0 1
vn 0 0 1
vn 0 0 1
vn 0 0 1
vn 0 0 1
vn 0 0 1
vn 0 0 1
vn 0 0 1
vn 0 0 1
vn 0 0 1
vn 0 0 1
vn 0 0 1
vn 0 0 1
vn 0 0 1
vn 0 0 1
vn 0 0 1
vn 0 0 1
vn 0 0 1
vn 0 0 1
vn 0 0 1
vn 0 0 1
vn 0 0 1
vn 0 0 1
vn 0 0 1
vn 0 0 1
vn 0 0 1
vn 0 0 1
vn 0 0 1
vn 0 0 1
vn 0 0 1
vn 0 0 1
vn 0 0 1
vn 0 0 1
vn 0 0 1
vn 0 0 1
vn 0 0 1
vn 0 0 1
vn 0 0 1
vn 0 0 1
vn 0 0 1
vn 0 0 1
vn 0 0 1
vn 0 0 1
vn 0 0 1
vn 0 0 1
vn 0 0 1
vn 0 0 1
vn 0 0 1
vn 0 0 1
vn 0 0 1
vn 0 0 1
vn 0 0 1
vn 0 0 1
vn 0 0 1
vn 0 0 1
vn 0 0 1
vn 0 0 1
vn 0 0 1
vn 0 0 1
vn 0 0 1
vn 0 0 1
vn 0 0 1
vn 0 0 1
vn 0 0 1
vn 0 0 1
vn 0 0 1
vn 0 0 1
vn 0 0 1
vn 0 0 1
vn 0 0 1
vn 0 0 1
vn 0 0 1
vn 0 0 1
vn 0 0 1
vn 0 0 1
vn 0 0 1
vn 0 0 1
vn 0 0 1
vn 0 0 1
vn 0 0 1
vn 0 0 1
vn 0 0 1
vn 0 0 1
vn 0 0 1
vn 0 0 1
vn 0 0 1
vn 0 0 1
vn 0 0 1
vn 0 0 1
vn 0 0 1
vn 0 0 1
vn 0 0 1
vn 0 0 1
vn 0 0 1
vn 0 0 1
vn 0 0 1
vn 0 0 1
vn 0 0 1
vn 0 0 1
vn 0 0 1
vn 0 0 1
vn 0 0 1
vn 0 0 1
vn 0 0 1
vn 0 0 1
vn 0 0 1
vn 0 0 1
vn 0 0 1
vn 0 0 1
vn 0 0 1
vn 0 0 1
vn 0 0 1
vn 0 0 1
vn 0 0 1
vn 0 0 1
vn 0 0 1
vn 0 0 1
vn 0 0 1
vn 0 0 1
vn 0 0 1
vn 0 0 1
vn 0 0 1
vn 0 0 1
vn 0 0 1
vn 0 0 1
vn 0 0 1
vn 0 0 1
vn 0 0 1
vn 0 0 1
vn 0 0 1
vn 0 0 1
vn 0 0 1
vn 0 0 1
vn 0 0 1
vn 0 0 1
vn 0 0 1
vn 0 0 1
vn 0 0 1
vn 0 0 1
vn 0 0 1
vn 0 0 1
vn 0 0 1
vn 0 0 1
vn 0 0 1
vn 0 0 1
vn 0 0 1
vn 0 0 1
vn 0 0 1
vn 0 0 1
vn 0 0 1
vn 0 0 1
vn 0 0 1
vn 0 0 1
vn 0 0 1
vn 0 0 1
vn 0 0 1
vn 0 0 1
vn 0 0 1
vn 0 0 1
vn 0 0 1
g submesh_0
usemtl submesh_0
f 1/1/1 2/2/2 3/3/3
f 1/1/1 4/4/4 2/2/2
f 5/5/5 4/4/4 1/1/1
f 4/4/4 6/6/6 2/2/2
f 5/5/5 7/7/7 4/4/4
f 8/8/8 7/7/7 5/5/5
f 4/4/4 9/9/9 6/6/6
f 7/7/7 9/9/9 4/4/4
f 9/9/9 10/10/10 6/6/6
f 8/8/8 11/11/11 7/7/7
f 12/12/12 11/11/11 8/8/8
f 7/7/7 13/13/13 9/9/9
f 11/11/11 13/13/13 7/7/7
f 9/9/9 14/14/14 10/10/10
f 13/13/13 14/14/14 9/9/9
f 14/14/14 15/15/15 10/10/10
f 12/12/12 16/16/16 11/11/11
f 17/17/17 16/16/16 12/12/12
f 11/11/11 18/18/18 13/13/13
f 16/16/16 18/18/18 11/11/11
f 13/13/13 19/19/19 14/14/14
f 18/18/18 19/19/19 13/13/13
f 14/14/14 20/20/20 15/15/15
f 19/19/19 20/20/20 14/14/14
f 20/20/20 21/21/21 15/15/15
f 17/17/17 22/22/22 16/16/16
f 23/23/23 22/22/22 17/17/17
f 16/16/16 24/24/24 18/18/18
f 22/22/22 24/24/24 16/16/16
f 18/18/18 25/25/25 19/19/19
f 24/24/24 25/25/25 18/18/18
f 19/19/19 26/26/26 20/20/20
f 25/25/25 26/26/26 19/19/19
f 20/20/20 27/27/27 21/21/21
f 26/26/26 27/27/27 20/20/20
f 27/27/27 28/28/28 21/21/21
f 23/23/23 29/29/29 22/22/22
f 30/30/30 29/29/29 23/23/23
f 22/22/22 31/31/31 24/24/24
f 29/29/29 31/31/31 22/22/22
f 24/24/24 32/32/32 25/25/25
f 31/31/31 32/32/32 24/24/24
f 25/25/25 33/33/33 26/26/26
f 32/32/32 33/33/33 25/25/25
f 26/26/26 34/34/34 27/27/27
f 33/33/33 34/34/34 26/26/26
f 27/27/27 35/35/35 28/28/28
f 34/34/34 35/35/35 27/27/27
f 35/35/35 36/36/36 28/28/28
f 30/30/30 37/37/37 29/29/29
f 38/38/38 37/37/37 30/30/30
f 29/29/29 39/39/39 31/31/31
f 37/37/37 39/39/39 29/29/29
f 31/31/31 40/40/40 32/32/32
f 39/39/39 40/40/40 31/31/31
f 32/32/32 41/41/41 33/33/33
f 40/40/40 41/41/41 32/32/32
f 33/33/33 42/42/42 34/34/34
f 41/41/41 42/42/42 33/33/33
f 34/34/34 43/43/43 35/35/35
f 42/42/42 43/43/43 34/34/34
f 35/35/35 44/44/44 36/36/36
f 43/43/43 44/44/44 35/35/35
f 44/44/44 45/45/45 36/36/36
f 44/44/44 46/46/46 45/45/45
f 46/46/46 47/47/47 45/45/45
f 43/43/43 48/48/48 44/44/44
f 48/48/48 46/46/46 44/44/44
f 42/42/42 49/49/49 43/43/43
f 49/49/49 48/48/48 43/43/43
f 41/41/41 50/50/50 42/42/42
f 50/50/50 49/49/49 42/42/42
f 40/40/40 51/51/51 41/41/41
f 51/51/51 50/50/50 41/41/41
f 46/46/46 52/52/52 47/47/47
f 52/52/52 53/53/53 47/47/47
f 48/48/48 54/54/54 46/46/46
f 54/54/54 52/52/52 46/46/46
f 49/49/49 55/55/55 48/48/48
f 55/55/55 54/54/54 48/48/48
f 50/50/50 56/56/56 49/49/49
f 56/56/56 55/55/55 49/49/49
f 52/52/52 57/57/57 53/53/53
f 57/57/57 58/58/58 53/53/53
f 54/54/54 59/59/59 52/52/52
f 59/59/59 57/57/57 52/52/52
f 55/55/55 60/60/60 54/54/54
f 60/60/60 59/59/59 54/54/54
f 57/57/57 61/61/61 58/58/58
f 61/61/61 62/62/62 58/58/58
f 59/59/59 63/63/63 57/57/57
f 63/63/63 61/61/61 57/57/57
f 61/61/61 64/64/64 62/62/62
f 64/64/64 65/65/65 62/62/62
f 66/66/66 56/56/56 50/50/50
f 51/51/51 66/66/66 50/50/50
f 56/56/56 67/67/67 55/55/55
f 67/67/67 60/60/60 55/55/55
f 60/60/60 68/68/68 59/59/59
f 68/68/68 63/63/63 59/59/59
f 63/63/63 69/69/69 61/61/61
f 69/69/69 64/64/64 61/61/61
f 64/64/64 70/70/70 65/65/65
f 70/70/70 71/71/71 65/65/65
f 66/66/66 72/72/72 56/56/56
f 72/72/72 67/67/67 56/56/56
f 67/67/67 73/73/73 60/60/60
f 73/73/73 68/68/68 60/60/60
f 68/68/68 74/74/74 63/63/63
f 74/74/74 69/69/69 63/63/63
f 69/69/69 75/75/75 64/64/64
f 75/75/75 70/70/70 64/64/64
f 70/70/70 76/76/76 71/71/71
f 76/76/76 77/77/77 71/71/71
f 72/72/72 78/78/78 67/67/67
f 78/78/78 73/73/73 67/67/67
f 73/73/73 79/79/79 68/68/68
f 79/79/79 74/74/74 68/68/68
f 74/74/74 80/80/80 69/69/69
f 80/80/80 75/75/75 69/69/69
f 75/75/75 81/81/81 70/70/70
f 81/81/81 76/76/76 70/70/70
f 76/76/76 82/82/82 77/77/77
f 82/82/82 83/83/83 77/77/77
f 78/78/78 84/84/84 73/73/73
f 84/84/84 79/79/79 73/73/73
f 79/79/79 85/85/85 74/74/74
f 85/85/85 80/80/80 74/74/74
f 80/80/80 86/86/86 75/75/75
f 86/86/86 81/81/81 75/75/75
f 81/81/81 87/87/87 76/76/76
f 87/87/87 82/82/82 76/76/76
f 82/82/82 88/88/88 83/83/83
f 88/88/88 89/89/89 83/83/83
f 84/84/84 90/90/90 79/79/79
f 90/90/90 85/85/85 79/79/79
f 85/85/85 91/91/91 80/80/80
f 91/91/91 86/86/86 80/80/80
f 86/86/86 92/92/92 81/81/81
f 92/92/92 87/87/87 81/81/81
f 87/87/87 93/93/93 82/82/82
f 93/93/93 88/88/88 82/82/82
f 88/88/88 94/94/94 89/89/89
f 94/94/94 95/95/95 89/89/89
f 90/90/90 96/96/96 85/85/85
f 96/96/96 91/91/91 85/85/85
f 91/91/91 97/97/97 86/86/86
f 97/97/97 92/92/92 86/86/86
f 92/92/92 98/98/98 87/87/87
f 98/98/98 93/93/93 87/87/87
f 93/93/93 99/99/99 88/88/88
f 99/99/99 94/94/94 88/88/88
f 94/94/94 100/100/100 95/95/95
f 100/100/100 101/101/101 95/95/95
f 96/96/96 102/102/102 91/91/91
f 102/102/102 97/97/97 91/91/91
f 97/97/97 103/103/103 92/92/92
f 103/103/103 98/98/98 92/92/92
f 98/98/98 104/104/104 93/93/93
f 104/104/104 99/99/99 93/93/93
f 99/99/99 105/105/105 94/94/94
f 105/105/105 100/100/100 94/94/94
f 100/100/100 106/106/106 101/101/101
f 106/106/106 107/107/107 101/101/101
f 102/102/102 108/108/108 97/97/97
f 108/108/108 103/103/103 97/97/97
f 103/103/103 109/109/109 98/98/98
f 109/109/109 104/104/104 98/98/98
f 104/104/104 110/110/110 99/99/99
f 110/110/110 105/105/105 99/99/99
f 105/105/105 111/111/111 100/100/100
f 111/111/111 106/106/106 100/100/100
f 106/106/106 112/112/112 107/107/107
f 112/112/112 113/113/113 107/107/107
f 108/108/108 114/114/114 103/103/103
f 114/114/114 109/109/109 103/103/103
f 109/109/109 115/115/115 104/104/104
f 115/115/115 110/110/110 104/104/104
f 110/110/110 116/116/116 105/105/105
f 116/116/116 111/111/111 105/105/105
f 111/111/111 117/117/117 106/106/106
f 117/117/117 112/112/112 106/106/106
f 112/112/112 118/118/118 113/113/113
f 118/118/118 119/119/119 113/113/113
f 114/114/114 120/120/120 109/109/109
f 120/120/120 115/115/115 109/109/109
f 115/115/115 121/121/121 110/110/110
f 121/121/121 116/116/116 110/110/110
f 116/116/116 122/122/122 111/111/111
f 122/122/122 117/117/117 111/111/111
f 117/117/117 123/123/123 112/112/112
f 123/123/123 118/118/118 112/112/112
f 118/118/118 124/124/124 119/119/119
f 124/124/124 125/125/125 119/119/119
f 120/120/120 126/126/126 115/115/115
f 126/126/126 121/121/121 115/115/115
f 121/121/121 127/127/127 116/116/116
f 127/127/127 122/122/122 116/116/116
f 122/122/122 128/128/128 117/117/117
f 128/128/128 123/123/123 117/117/117
f 123/123/123 129/129/129 118/118/118
f 129/129/129 124/124/124 118/118/118
f 124/124/124 130/130/130 125/125/125
f 130/130/130 131/131/131 125/125/125
f 126/126/126 132/132/132 121/121/121
f 132/132/132 127/127/127 121/121/121
f 127/127/127 133/133/133 122/122/122
f 133/133/133 128/128/128 122/122/122
f 128/128/128 134/134/134 123/123/123
f 134/134/134 129/129/129 123/123/123
f 129/129/129 135/135/135 124/124/124
f 135/135/135 130/130/130 124/124/124
f 130/130/130 136/136/136 131/131/131
f 136/136/136 137/137/137 131/131/131
f 132/132/132 138/138/138 127/127/127
f 138/138/138 133/133/133 127/127/127
f 133/133/133 139/139/139 128/128/128
f 139/139/139 134/134/134 128/128/128
f 134/134/134 140/140/140 129/129/129
f 140/140/140 135/135/135 129/129/129
f 135/135/135 141/141/141 130/130/130
f 141/141/141 136/136/136 130/130/130
f 136/136/136 142/142/142 137/137/137
f 142/142/142 143/143/143 137/137/137
f 138/138/138 144/144/144 133/133/133
f 144/144/144 139/139/139 133/133/133
f 139/139/139 145/145/145 134/134/134
f 145/145/145 140/140/140 134/134/134
f 140/140/140 146/146/146 135/135/135
f 146/146/146 141/141/141 135/135/135
f 141/141/141 147/147/147 136/136/136
f 147/147/147 142/142/142 136/136/136
f 142/142/142 148/148/148 143/143/143
f 148/148/148 149/149/149 143/143/143
f 144/144/144 150/150/150 139/139/139
f 150/150/150 145/145/145 139/139/139
f 145/145/145 151/151/151 140/140/140
f 151/151/151 146/146/146 140/140/140
f 146/146/146 152/152/152 141/141/141
f 152/152/152 147/147/147 141/141/141
f 147/147/147 153/153/153 142/142/142
f 153/153/153 148/148/148 142/142/142
f 148/148/148 154/154/154 149/149/149
f 154/154/154 155/155/155 149/149/149
f 150/150/150 156/156/156 145/145/145
f 156/156/156 151/151/151 145/145/145
f 151/151/151 157/157/157 146/146/146
f 157/157/157 152/152/152 146/146/146
f 152/152/152 158/158/158 147/147/147
f 158/158/158 153/153/153 147/147/147
f 153/153/153 159/159/159 148/148/148
f 159/159/159 154/154/154 148/148/148
f 154/154/154 160/160/160 155/155/155
f 160/160/160 161/161/161 155/155/155
f 156/156/156 162/162/162 151/151/151
f 162/162/162 157/157/157 151/151/151
f 157/157/157 163/163/163 152/152/152
f 163/163/163 158/158/158 152/152/152
f 158/158/158 164/164/164 153/153/153
f 164/164/164 159/159/159 153/153/153
f 159/159/159 165/165/165 154/154/154
f 165/165/165 160/160/160 154/154/154
f 160/160/160 166/166/166 161/161/161
f 166/166/166 167/167/167 161/161/161
f 162/162/162 168/168/168 157/157/157
f 168/168/168 163/163/163 157/157/157
f 163/163/163 169/169/169 158/158/158
f 169/169/169 164/164/164 158/158/158
f 164/164/164 170/170/170 159/159/159
f 170/170/170 165/165/165 159/159/159
f 165/165/165 171/171/171 160/160/160
f 171/171/171 166/166/166 160/160/160
f 166/166/166 172/172/172 167/167/167
f 172/172/172 173/173/173 167/167/167
f 168/168/168 174/174/174 163/163/163
f 174/174/174 169/169/169 163/163/163
f 169/169/169 175/175/175 164/164/164
f 175/175/175 170/170/170 164/164/164
f 170/170/170 176/176/176 165/165/165
f 176/176/176 171/171/171 165/165/165
f 171/171/171 177/177/177 166/166/166
f 177/177/177 172/172/172 166/166/166
f 172/172/172 178/178/178 173/173/173
f 178/178/178 179/179/179 173/173/173
f 174/174/174 180/180/180 169/169/169
f 180/180/180 175/175/175 169/169/169
f 175/175/175 181/181/181 170/170/170
f 181/181/181 176/176/176 170/170/170
f 176/176/176 182/182/182 171/171/171
f 182/182/182 177/177/177 171/171/171
f 177/177/177 183/183/183 172/172/172
f 183/183/183 178/178/178 172/172/172
f 178/178/178 184/184/184 179/179/179
f 184/184/184 185/185/185 179/179/179
f 180/180/180 186/186/186 175/175/175
f 186/186/186 181/181/181 175/175/175
f 181/181/181 187/187/187 176/176/176
f 187/187/187 182/182/182 176/176/176
f 182/182/182 188/188/188 177/177/177
f 188/188/188 183/183/183 177/177/177
f 183/183/183 189/189/189 178/178/178
f 189/189/189 184/184/184 178/178/178
f 184/184/184 190/190/190 185/185/185
f 190/190/190 191/191/191 185/185/185
f 186/186/186 192/192/192 181/181/181
f 192/192/192 187/187/187 181/181/181
f 187/187/187 193/193/193 182/182/182
f 193/193/193 188/188/188 182/182/182
f 188/188/188 194/194/194 183/183/183
f 194/194/194 189/189/189 183/183/183
f 189/189/189 195/195/195 184/184/184
f 195/195/195 190/190/190 184/184/184
f 190/190/190 196/196/196 191/191/191
f 196/196/196 197/197/197 191/191/191
f 192/192/192 198/198/198 187/187/187
f 198/198/198 193/193/193 187/187/187
f 193/193/193 199/199/199 188/188/188
f 199/199/199 194/194/194 188/188/188
f 194/194/194 200/200/200 189/189/189
f 200/200/200 195/195/195 189/189/189
f 195/195/195 201/201/201 190/190/190
f 201/201/201 196/196/196 190/190/190
f 196/196/196 202/202/202 197/197/197
f 202/202/202 203/203/203 197/197/197
f 198/198/198 204/204/204 193/193/193
f 204/204/204 199/199/199 193/193/193
f 199/199/199 205/205/205 194/194/194
f 205/205/205 200/200/200 194/194/194
f 200/200/200 206/206/206 195/195/195
f 206/206/206 201/201/201 195/195/195
f 201/201/201 207/207/207 196/196/196
f 207/207/207 202/202/202 196/196/196
f 202/202/202 208/208/208 203/203/203
f 208/208/208 209/209/209 203/203/203
f 204/204/204 210/210/210 199/199/199
f 210/210/210 205/205/205 199/199/199
f 205/205/205 211/211/211 200/200/200
f 211/211/211 206/206/206 200/200/200
f 206/206/206 212/212/212 201/201/201
f 212/212/212 207/207/207 201/201/201
f 207/207/207 213/213/213 202/202/202
f 213/213/213 208/208/208 202/202/202
f 208/208/208 214/214/214 209/209/209
f 214/214/214 215/215/215 209/209/209
f 214/214/214 216/216/216 215/215/215
f 217/217/217 214/214/214 208/208/208
f 213/213/213 217/217/217 208/208/208
f 218/218/218 216/216/216 214/214/214
f 217/217/217 218/218/218 214/214/214
f 218/218/218 219/219/219 216/216/216
f 220/220/220 213/213/213 207/207/207
f 212/212/212 220/220/220 207/207/207
f 221/221/221 212/212/212 206/206/206
f 211/211/211 221/221/221 206/206/206
f 222/222/222 217/217/217 213/213/213
f 220/220/220 222/222/222 213/213/213
f 223/223/223 218/218/218 217/217/217
f 222/222/222 223/223/223 217/217/217
f 224/224/224 219/219/219 218/218/218
f 223/223/223 224/224/224 218/218/218
f 224/224/224 225/225/225 219/219/219
f 226/226/226 220/220/220 212/212/212
f 221/221/221 226/226/226 212/212/212
f 227/227/227 222/222/222 220/220/220
f 226/226/226 227/227/227 220/220/220
f 228/228/228 223/223/223 222/222/222
f 227/227/227 228/228/228 222/222/222
f 229/229/229 224/224/224 223/223/223
f 228/228/228 229/229/229 223/223/223
f 230/230/230 225/225/225 224/224/224
f 229/229/229 230/230/230 224/224/224
f 230/230/230 231/231/231 225/225/225
f 232/232/232 231/231/231 230/230/230
f 232/232/232 233/233/233 231/231/231
f 234/234/234 230/230/230 229/229/229
f 234/234/234 232/232/232 230/230/230
f 235/235/235 229/229/229 228/228/228
f 235/235/235 234/234/234 229/229/229
f 236/236/236 228/228/228 227/227/227
f 236/236/236 235/235/235 228/228/228
f 237/237/237 227/227/227 226/226/226
f 237/237/237 236/236/236 227/227/227
f 238/238/238 233/233/233 232/232/232
f 238/238/238 239/239/239 233/233/233
f 240/240/240 232/232/232 234/234/234
f 240/240/240 238/238/238 232/232/232
f 241/241/241 234/234/234 235/235/235
f 241/241/241 240/240/240 234/234/234
f 242/242/242 235/235/235 236/236/236
f 242/242/242 241/241/241 235/235/235
f 243/243/243 239/239/239 238/238/238
f 243/243/243 244/244/244 239/239/239
f 245/245/245 238/238/238 240/240/240
f 245/245/245 243/243/243 238/238/238
f 246/246/246 240/240/240 241/241/241
f 246/246/246 245/245/245 240/240/240
f 247/247/247 244/244/244 243/243/243
f 247/247/247 248/248/248 244/244/244
f 249/249/249 243/243/243 245/245/245
f 249/249/249 247/247/247 243/243/243
f 250/250/250 248/248/248 247/247/247
f 250/250/250 251/251/251 248/248/248
f 252/252/252 242/242/242 236/236/236
f 252/252/252 236/236/236 237/237/237
f 253/253/253 241/241/241 242/242/242
f 253/253/253 246/246/246 241/241/241
f 254/254/254 245/245/245 246/246/246
f 254/254/254 249/249/249 245/245/245
f 255/255/255 247/247/247 249/249/249
f 255/255/255 250/250/250 247/247/247
f 256/256/256 251/251/251 250/250/250
f 256/256/256 257/257/257 251/251/251
f 258/258/258 242/242/242 252/252/252
f 258/258/258 253/253/253 242/242/242
f 259/259/259 246/246/246 253/253/253
f 259/259/259 254/254/254 246/246/246
f 260/260/260 249/249/249 254/254/254
f 260/260/260 255/255/255 249/249/249
f 261/261/261 250/250/250 255/255/255
f 261/261/261 256/256/256 250/250/250
f 262/262/262 257/257/257 256/256/256
f 262/262/262 263/263/263 257/257/257
f 264/264/264 253/253/253 258/258/258
f 264/264/264 259/259/259 253/253/253
f 265/265/265 254/254/254 259/259/259
f 265/265/265 260/260/260 254/254/254
f 266/266/266 255/255/255 260/260/260
f 266/266/266 261/261/261 255/255/255
f 267/267/267 256/256/256 261/261/261
f 267/267/267 262/262/262 256/256/256
f 268/268/268 263/263/263 262/262/262
f 268/268/268 269/269/269 263/263/263
f 270/270/270 259/259/259 264/264/264
f 270/270/270 265/265/265 259/259/259
f 271/271/271 260/260/260 265/265/265
f 271/271/271 266/266/266 260/260/260
f 272/272/272 261/261/261 266/266/266
f 272/272/272 267/267/267 261/261/261
f 273/273/273 262/262/262 267/267/267
f 273/273/273 268/268/268 262/262/262
f 274/274/274 269/269/269 268/268/268
f 274/274/274 275/275/275 269/269/269
f 276/276/276 265/265/265 270/270/270
f 276/276/276 271/271/271 265/265/265
f 277/277/277 266/266/266 271/271/271
f 277/277/277 272/272/272 266/266/266
f 278/278/278 267/267/267 272/272/272
f 278/278/278 273/273/273 267/267/267
f 279/279/279 268/268/268 273/273/273
f 279/279/279 274/274/274 268/268/268
f 280/280/280 275/275/275 274/274/274
f 280/280/280 281/281/281 275/275/275
f 282/282/282 271/271/271 276/276/276
f 282/282/282 277/277/277 271/271/271
f 283/283/283 272/272/272 277/277/277
f 283/283/283 278/278/278 272/272/272
f 284/284/284 273/273/273 278/278/278
f 284/284/284 279/279/279 273/273/273
f 285/285/285 274/274/274 279/279/279
f 285/285/285 280/280/280 274/274/274
f 286/286/286 281/281/281 280/280/280
f 286/286/286 287/287/287 281/281/281
f 288/288/288 277/277/277 282/282/282
f 288/288/288 283/283/283 277/277/277
f 289/289/289 278/278/278 283/283/283
f 289/289/289 284/284/284 278/278/278
f 290/290/290 279/279/279 284/284/284
f 290/290/290 285/285/285 279/279/279
f 291/291/291 280/280/280 285/285/285
f 291/291/291 286/286/286 280/280/280
f 292/292/292 287/287/287 286/286/286
f 292/292/292 293/293/293 287/287/287
f 294/294/294 283/283/283 288/288/288
f 294/294/294 289/289/289 283/283/283
f 295/295/295 284/284/284 289/289/289
f 295/295/295 290/290/290 284/284/284
f 296/296/296 285/285/285 290/290/290
f 296/296/296 291/291/291 285/285/285
f 297/297/297 286/286/286 291/291/291
f 297/297/297 292/292/292 286/286/286
f 298/298/298 293/293/293 292/292/292
f 298/298/298 299/299/299 293/293/293
f 300/300/300 299/299/299 298/298/298
f 300/300/300 301/301/301 299/299/299
f 302/302/302 300/300/300 298/298/298
f 303/303/303 298/298/298 292/292/292
f 302/302/302 298/298/298 303/303/303
f 303/303/303 292/292/292 297/297/297
f 304/304/304 302/302/302 303/303/303
f 304/304/304 303/303/303 305/305/305
f 305/305/305 303/303/303 297/297/297
f 306/306/306 304/304/304 305/305/305
f 307/307/307 297/297/297 291/291/291
f 305/305/305 297/297/297 307/307/307
f 307/307/307 291/291/291 296/296/296
f 306/306/306 305/305/305 308/308/308
f 308/308/308 305/305/305 307/307/307
f 309/309/309 306/306/306 308/308/308
f 310/310/310 307/307/307 296/296/296
f 308/308/308 307/307/307 310/310/310
f 309/309/309 308/308/308 311/311/311
f 311/311/311 308/308/308 310/310/310
f 312/312/312 309/309/309 311/311/311
f 310/310/310 296/296/296 313/313/313
f 313/313/313 296/296/296 290/290/290
f 313/313/313 290/290/290 295/295/295
f 312/312/312 311/311/311 314/314/314
f 315/315/315 312/312/312 314/314/314
f 311/311/311 310/310/310 316/316/316
f 316/316/316 310/310/310 313/313/313
f 314/314/314 311/311/311 316/316/316
f 317/317/317 313/313/313 295/295/295
f 316/316/316 313/313/313 317/317/317
f 315/315/315 314/314/314 318/318/318
f 319/319/319 315/315/315 318/318/318
f 314/314/314 316/316/316 320/320/320
f 320/320/320 316/316/316 317/317/317
f 318/318/318 314/314/314 320/320/320
f 317/317/317 295/295/295 321/321/321
f 321/321/321 295/295/295 289/289/289
f 321/321/321 289/289/289 294/294/294
f 319/319/319 318/318/318 322/322/322
f 323/323/323 319/319/319 322/322/322
f 318/318/318 320/320/320 324/324/324
f 322/322/322 318/318/318 324/324/324
f 320/320/320 317/317/317 325/325/325
f 325/325/325 317/317/317 321/321/321
f 324/324/324 320/320/320 325/325/325
f 326/326/326 321/321/321 294/294/294
f 325/325/325 321/321/321 326/326/326
f 323/323/323 322/322/322 327/327/327
f 328/328/328 323/323/323 327/327/327
f 322/322/322 324/324/324 329/329/329
f 327/327/327 322/322/322 329/329/329
f 324/324/324 325/325/325 330/330/330
f 330/330/330 325/325/325 326/326/326
f 329/329/329 324/324/324 330/330/330
f 326/326/326 294/294/294 331/331/331
f 331/331/331 294/294/294 288/288/288
f 328/328/328 327/327/327 332/332/332
f 333/333/333 328/328/328 332/332/332
f 327/327/327 329/329/329 334/334/334
f 332/332/332 327/327/327 334/334/334
f 329/329/329 330/330/330 335/335/335
f 334/334/334 329/329/329 335/335/335
f 330/330/330 326/326/326 336/336/336
f 336/336/336 326/326/326 331/331/331
f 335/335/335 330/330/330 336/336/336
f 331/331/331 288/288/288 337/337/337
f 337/337/337 288/288/288 282/282/282
f 333/333/333 332/332/332 338/338/338
f 339/339/339 333/333/333 338/338/338
f 332/332/332 334/334/334 340/340/340
f 338/338/338 332/332/332 340/340/340
f 334/334/334 335/335/335 341/341/341
f 340/340/340 334/334/334 341/341/341
f 335/335/335 336/336/336 342/342/342
f 341/341/341 335/335/335 342/342/342
f 336/336/336 331/331/331 343/343/343
f 343/343/343 331/331/331 337/337/337
f 342/342/342 336/336/336 343/343/343
f 337/337/337 282/282/282 344/344/344
f 344/344/344 282/282/282 276/276/276
f 339/339/339 338/338/338 345/345/345
f 346/346/346 339/339/339 345/345/345
f 338/338/338 340/340/340 347/347/347
f 345/345/345 338/338/338 347/347/347
f 340/340/340 341/341/341 348/348/348
f 347/347/347 340/340/340 348/348/348
f 341/341/341 342/342/342 349/349/349
f 348/348/348 341/341/341 349/349/349
f 342/342/342 343/343/343 350/350/350
f 349/349/349 342/342/342 350/350/350
f 343/343/343 337/337/337 351/351/351
f 350/350/350 343/343/343 351/351/351
f 351/351/351 337/337/337 344/344/344
f 344/344/344 276/276/276 352/352/352
f 352/352/352 276/276/276 270/270/270
f 351/351/351 344/344/344 353/353/353
f 353/353/353 344/344/344 352/352/352
f 350/350/350 351/351/351 354/354/354
f 354/354/354 351/351/351 353/353/353
f 349/349/349 350/350/350 355/355/355
f 355/355/355 350/350/350 354/354/354
f 348/348/348 349/349/349 356/356/356
f 356/356/356 349/349/349 355/355/355
f 352/352/352 270/270/270 357/357/357
f 357/357/357 270/270/270 264/264/264
f 353/353/353 352/352/352 358/358/358
f 358/358/358 352/352/352 357/357/357
f 354/354/354 353/353/353 359/359/359
f 359/359/359 353/353/353 358/358/358
f 355/355/355 354/354/354 360/360/360
f 360/360/360 354/354/354 359/359/359
f 357/357/357 264/264/264 361/361/361
f 361/361/361 264/264/264 258/258/258
f 358/358/358 357/357/357 362/362/362
f 362/362/362 357/357/357 361/361/361
f 359/359/359 358/358/358 363/363/363
f 363/363/363 358/358/358 362/362/362
f 361/361/361 258/258/258 364/364/364
f 364/364/364 258/258/258 252/252/252
f 362/362/362 361/361/361 365/365/365
f 365/365/365 361/361/361 364/364/364
f 364/364/364 252/252/252 366/366/366
f 366/366/366 252/252/252 237/237/237
f 367/367/367 355/355/355 360/360/360
f 356/356/356 355/355/355 367/367/367
f 360/360/360 359/359/359 368/368/368
f 368/368/368 359/359/359 363/363/363
f 363/363/363 362/362/362 369/369/369
f 369/369/369 362/362/362 365/365/365
f 365/365/365 364/364/364 370/370/370
f 370/370/370 364/364/364 366/366/366
f 366/366/366 237/237/237 371/371/371
f 371/371/371 237/237/237 226/226/226
f 371/371/371 226/226/226 221/221/221
f 372/372/372 366/366/366 371/371/371
f 370/370/370 366/366/366 372/372/372
f 373/373/373 371/371/371 221/221/221
f 372/372/372 371/371/371 373/373/373
f 373/373/373 221/221/221 211/211/211
f 374/374/374 365/365/365 370/370/370
f 369/369/369 365/365/365 374/374/374
f 375/375/375 363/363/363 369/369/369
f 368/368/368 363/363/363 375/375/375
f 376/376/376 370/370/370 372/372/372
f 374/374/374 370/370/370 376/376/376
f 377/377/377 372/372/372 373/373/373
f 376/376/376 372/372/372 377/377/377
f 378/378/378 373/373/373 211/211/211
f 377/377/377 373/373/373 378/378/378
f 378/378/378 211/211/211 205/205/205
f 210/210/210 378/378/378 205/205/205
f 379/379/379 369/369/369 374/374/374
f 375/375/375 369/369/369 379/379/379
f 380/380/380 374/374/374 376/376/376
f 379/379/379 374/374/374 380/380/380
f 381/381/381 376/376/376 377/377/377
f 380/380/380 376/376/376 381/381/381
f 382/382/382 377/377/377 378/378/378
f 382/382/382 378/378/378 210/210/210
f 381/381/381 377/377/377 382/382/382
f 383/383/383 382/382/382 210/210/210
f 383/383/383 210/210/210 204/204/204
f 384/384/384 381/381/381 382/382/382
f 384/384/384 382/382/382 383/383/383
f 385/385/385 380/380/380 381/381/381
f 385/385/385 381/381/381 384/384/384
f 386/386/386 379/379/379 380/380/380
f 386/386/386 380/380/380 385/385/385
f 387/387/387 375/375/375 379/379/379
f 387/387/387 379/379/379 386/386/386
f 388/388/388 383/383/383 204/204/204
f 388/388/388 204/204/204 198/198/198
f 389/389/389 384/384/384 383/383/383
f 389/389/389 383/383/383 388/388/388
f 390/390/390 385/385/385 384/384/384
f 390/390/390 384/384/384 389/389/389
f 391/391/391 386/386/386 385/385/385
f 391/391/391 385/385/385 390/390/390
f 392/392/392 388/388/388 198/198/198
f 392/392/392 198/198/198 192/192/192
f 393/393/393 389/389/389 388/388/388
f 393/393/393 388/388/388 392/392/392
f 394/394/394 390/390/390 389/389/389
f 394/394/394 389/389/389 393/393/393
f 395/395/395 392/392/392 192/192/192
f 395/395/395 192/192/192 186/186/186
f 396/396/396 393/393/393 392/392/392
f 396/396/396 392/392/392 395/395/395
f 397/397/397 395/395/395 186/186/186
f 397/397/397 186/186/186 180/180/180
f 398/398/398 386/386/386 391/391/391
f 398/398/398 387/387/387 386/386/386
f 399/399/399 391/391/391 390/390/390
f 399/399/399 390/390/390 394/394/394
f 400/400/400 394/394/394 393/393/393
f 400/400/400 393/393/393 396/396/396
f 401/401/401 396/396/396 395/395/395
f 401/401/401 395/395/395 397/397/397
f 402/402/402 397/397/397 180/180/180
f 402/402/402 180/180/180 174/174/174
f 403/403/403 398/398/398 391/391/391
f 403/403/403 391/391/391 399/399/399
f 404/404/404 399/399/399 394/394/394
f 404/404/404 394/394/394 400/400/400
f 405/405/405 400/400/400 396/396/396
f 405/405/405 396/396/396 401/401/401
f 406/406/406 401/401/401 397/397/397
f 406/406/406 397/397/397 402/402/402
f 407/407/407 402/402/402 174/174/174
f 407/407/407 174/174/174 168/168/168
f 408/408/408 403/403/403 399/399/399
f 408/408/408 399/399/399 404/404/404
f 409/409/409 404/404/404 400/400/400
f 409/409/409 400/400/400 405/405/405
f 410/410/410 405/405/405 401/401/401
f 410/410/410 401/401/401 406/406/406
f 411/411/411 406/406/406 402/402/402
f 411/411/411 402/402/402 407/407/407
f 412/412/412 407/407/407 168/168/168
f 412/412/412 168/168/168 162/162/162
f 413/413/413 408/408/408 404/404/404
f 413/413/413 404/404/404 409/409/409
f 414/414/414 409/409/409 405/405/405
f 414/414/414 405/405/405 410/410/410
f 415/415/415 410/410/410 406/406/406
f 415/415/415 406/406/406 411/411/411
f 416/416/416 411/411/411 407/407/407
f 416/416/416 407/407/407 412/412/412
f 417/417/417 412/412/412 162/162/162
f 417/417/417 162/162/162 156/156/156
f 418/418/418 413/413/413 409/409/409
f 418/418/418 409/409/409 414/414/414
f 419/419/419 414/414/414 410/410/410
f 419/419/419 410/410/410 415/415/415
f 420/420/420 415/415/415 411/411/411
f 420/420/420 411/411/411 416/416/416
f 421/421/421 416/416/416 412/412/412
f 421/421/421 412/412/412 417/417/417
f 422/422/422 417/417/417 156/156/156
f 422/422/422 156/156/156 150/150/150
f 423/423/423 418/418/418 414/414/414
f 423/423/423 414/414/414 419/419/419
f 424/424/424 419/419/419 415/415/415
f 424/424/424 415/415/415 420/420/420
f 425/425/425 420/420/420 416/416/416
f 425/425/425 416/416/416 421/421/421
f 426/426/426 421/421/421 417/417/417
f 426/426/426 417/417/417 422/422/422
f 427/427/427 422/422/422 150/150/150
f 427/427/427 150/150/150 144/144/144
f 428/428/428 423/423/423 419/419/419
f 428/428/428 419/419/419 424/424/424
f 429/429/429 424/424/424 420/420/420
f 429/429/429 420/420/420 425/425/425
f 430/430/430 425/425/425 421/421/421
f 430/430/430 421/421/421 426/426/426
f 431/431/431 426/426/426 422/422/422
f 431/431/431 422/422/422 427/427/427
f 432/432/432 427/427/427 144/144/144
f 432/432/432 144/144/144 138/138/138
f 433/433/433 428/428/428 424/424/424
f 433/433/433 424/424/424 429/429/429
f 434/434/434 429/429/429 425/425/425
f 434/434/434 425/425/425 430/430/430
f 435/435/435 430/430/430 426/426/426
f 435/435/435 426/426/426 431/431/431
f 436/436/436 431/431/431 427/427/427
f 436/436/436 427/427/427 432/432/432
f 437/437/437 432/432/432 138/138/138
f 437/437/437 138/138/138 132/132/132
f 438/438/438 433/433/433 429/429/429
f 438/438/438 429/429/429 434/434/434
f 439/439/439 434/434/434 430/430/430
f 439/439/439 430/430/430 435/435/435
f 440/440/440 435/435/435 431/431/431
f 440/440/440 431/431/431 436/436/436
f 441/441/441 436/436/436 432/432/432
f 441/441/441 432/432/432 437/437/437
f 442/442/442 437/437/437 132/132/132
f 442/442/442 132/132/132 126/126/126
f 443/443/443 438/438/438 434/434/434
f 443/443/443 434/434/434 439/439/439
f 444/444/444 439/439/439 435/435/435
f 444/444/444 435/435/435 440/440/440
f 445/445/445 440/440/440 436/436/436
f 445/445/445 436/436/436 441/441/441
f 446/446/446 441/441/441 437/437/437
f 446/446/446 437/437/437 442/442/442
f 447/447/447 442/442/442 126/126/126
f 447/447/447 126/126/126 120/120/120
f 448/448/448 443/443/443 439/439/439
f 448/448/448 439/439/439 444/444/444
f 449/449/449 444/444/444 440/440/440
f 449/449/449 440/440/440 445/445/445
f 450/450/450 445/445/445 441/441/441
f 450/450/450 441/441/441 446/446/446
f 451/451/451 446/446/446 442/442/442
f 451/451/451 442/442/442 447/447/447
f 452/452/452 447/447/447 120/120/120
f 452/452/452 120/120/120 114/114/114
f 453/453/453 448/448/448 444/444/444
f 453/453/453 444/444/444 449/449/449
f 454/454/454 449/449/449 445/445/445
f 454/454/454 445/445/445 450/450/450
f 455/455/455 450/450/450 446/446/446
f 455/455/455 446/446/446 451/451/451
f 456/456/456 451/451/451 447/447/447
f 456/456/456 447/447/447 452/452/452
f 457/457/457 452/452/452 114/114/114
f 457/457/457 114/114/114 108/108/108
f 458/458/458 453/453/453 449/449/449
f 458/458/458 449/449/449 454/454/454
f 459/459/459 454/454/454 450/450/450
f 459/459/459 450/450/450 455/455/455
f 460/460/460 455/455/455 451/451/451
f 460/460/460 451/451/451 456/456/456
f 461/461/461 456/456/456 452/452/452
f 461/461/461 452/452/452 457/457/457
f 462/462/462 457/457/457 108/108/108
f 462/462/462 108/108/108 102/102/102
f 463/463/463 458/458/458 454/454/454
f 463/463/463 454/454/454 459/459/459
f 464/464/464 459/459/459 455/455/455
f 464/464/464 455/455/455 460/460/460
f 465/465/465 460/460/460 456/456/456
f 465/465/465 456/456/456 461/461/461
f 466/466/466 461/461/461 457/457/457
f 466/466/466 457/457/457 462/462/462
f 467/467/467 462/462/462 102/102/102
f 467/467/467 102/102/102 96/96/96
f 468/468/468 463/463/463 459/459/459
f 468/468/468 459/459/459 464/464/464
f 469/469/469 464/464/464 460/460/460
f 469/469/469 460/460/460 465/465/465
f 470/470/470 465/465/465 461/461/461
f 470/470/470 461/461/461 466/466/466
f 471/471/471 466/466/466 462/462/462
f 471/471/471 462/462/462 467/467/467
f 472/472/472 467/467/467 96/96/96
f 472/472/472 96/96/96 90/90/90
f 473/473/473 468/468/468 464/464/464
f 473/473/473 464/464/464 469/469/469
f 474/474/474 469/469/469 465/465/465
f 474/474/474 465/465/465 470/470/470
f 475/475/475 470/470/470 466/466/466
f 475/475/475 466/466/466 471/471/471
f 476/476/476 471/471/471 467/467/467
f 476/476/476 467/467/467 472/472/472
f 477/477/477 472/472/472 90/90/90
f 477/477/477 90/90/90 84/84/84
f 478/478/478 473/473/473 469/469/469
f 478/478/478 469/469/469 474/474/474
f 479/479/479 474/474/474 470/470/470
f 479/479/479 470/470/470 475/475/475
f 480/480/480 475/475/475 471/471/471
f 480/480/480 471/471/471 476/476/476
f 481/481/481 476/476/476 472/472/472
f 481/481/481 472/472/472 477/477/477
f 482/482/482 477/477/477 84/84/84
f 482/482/482 84/84/84 78/78/78
f 483/483/483 478/478/478 474/474/474
f 483/483/483 474/474/474 479/479/479
f 484/484/484 479/479/479 475/475/475
f 484/484/484 475/475/475 480/480/480
f 485/485/485 480/480/480 476/476/476
f 485/485/485 476/476/476 481/481/481
f 486/486/486 481/481/481 477/477/477
f 486/486/486 477/477/477 482/482/482
f 487/487/487 482/482/482 78/78/78
f 487/487/487 78/78/78 72/72/72
f 488/488/488 483/483/483 479/479/479
f 488/488/488 479/479/479 484/484/484
f 489/489/489 484/484/484 480/480/480
f 489/489/489 480/480/480 485/485/485
f 490/490/490 485/485/485 481/481/481
f 490/490/490 481/481/481 486/486/486
f 491/491/491 486/486/486 482/482/482
f 491/491/491 482/482/482 487/487/487
f 492/492/492 487/487/487 72/72/72
f 492/492/492 72/72/72 66/66/66
f 493/493/493 488/488/488 484/484/484
f 493/493/493 484/484/484 489/489/489
f 494/494/494 489/489/489 485/485/485
f 494/494/494 485/485/485 490/490/490
f 495/495/495 490/490/490 486/486/486
f 495/495/495 486/486/486 491/491/491
f 496/496/496 491/491/491 487/487/487
f 496/496/496 487/487/487 492/492/492
f 497/497/497 492/492/492 66/66/66
f 497/497/497 66/66/66 51/51/51
f 498/498/498 493/493/493 489/489/489
f 498/498/498 489/489/489 494/494/494
f 499/499/499 494/494/494 490/490/490
f 499/499/499 490/490/490 495/495/495
f 500/500/500 495/495/495 491/491/491
f 500/500/500 491/491/491 496/496/496
f 501/501/501 496/496/496 492/492/492
f 501/501/501 492/492/492 497/497/497
f 502/502/502 497/497/497 51/51/51
f 502/502/502 51/51/51 40/40/40
f 39/39/39 502/502/502 40/40/40
f 503/503/503 497/497/497 502/502/502
f 503/503/503 501/501/501 497/497/497
f 504/504/504 502/502/502 39/39/39
f 504/504/504 503/503/503 502/502/502
f 37/37/37 504/504/504 39/39/39
f 505/505/505 496/496/496 501/501/501
f 505/505/505 500/500/500 496/496/496
f 506/506/506 495/495/495 500/500/500
f 506/506/506 499/499/499 495/495/495
f 507/507/507 501/501/501 503/503/503
f 507/507/507 505/505/505 501/501/501
f 508/508/508 504/504/504 37/37/37
f 38/38/38 508/508/508 37/37/37
f 509/509/509 508/508/508 38/38/38
f 510/510/510 503/503/503 504/504/504
f 508/508/508 510/510/510 504/504/504
f 510/510/510 507/507/507 503/503/503
f 509/509/509 511/511/511 508/508/508
f 511/511/511 510/510/510 508/508/508
f 512/512/512 511/511/511 509/509/509
f 513/513/513 500/500/500 505/505/505
f 513/513/513 506/506/506 500/500/500
f 514/514/514 507/507/507 510/510/510
f 511/511/511 514/514/514 510/510/510
f 512/512/512 515/515/515 511/511/511
f 515/515/515 514/514/514 511/511/511
f 516/516/516 515/515/515 512/512/512
f 517/517/517 505/505/505 507/507/507
f 514/514/514 517/517/517 507/507/507
f 517/517/517 513/513/513 505/505/505
f 516/516/516 518/518/518 515/515/515
f 519/519/519 518/518/518 516/516/516
f 515/515/515 520/520/520 514/514/514
f 520/520/520 517/517/517 514/514/514
f 518/518/518 520/520/520 515/515/515
f 521/521/521 513/513/513 517/517/517
f 520/520/520 521/521/521 517/517/517
f 522/522/522 506/506/506 513/513/513
f 521/521/521 522/522/522 513/513/513
f 519/519/519 523/523/523 518/518/518
f 524/524/524 523/523/523 519/519/519
f 518/518/518 525/525/525 520/520/520
f 525/525/525 521/521/521 520/520/520
f 523/523/523 525/525/525 518/518/518
f 524/524/524 526/526/526 523/523/523
f 527/527/527 526/526/526 524/524/524
f 525/525/525 528/528/528 521/521/521
f 528/528/528 522/522/522 521/521/521
f 523/523/523 529/529/529 525/525/525
f 526/526/526 529/529/529 523/523/523
f 529/529/529 528/528/528 525/525/525
f 522/522/522 530/530/530 506/506/506
f 530/530/530 499/499/499 506/506/506
f 527/527/527 531/531/531 526/526/526
f 532/532/532 531/531/531 527/527/527
f 526/526/526 533/533/533 529/529/529
f 531/531/531 533/533/533 526/526/526
f 529/529/529 534/534/534 528/528/528
f 533/533/533 534/534/534 529/529/529
f 528/528/528 535/535/535 522/522/522
f 535/535/535 530/530/530 522/522/522
f 534/534/534 535/535/535 528/528/528
f 530/530/530 536/536/536 499/499/499
f 536/536/536 494/494/494 499/499/499
f 536/536/536 498/498/498 494/494/494
f 532/532/532 537/537/537 531/531/531
f 538/538/538 537/537/537 532/532/532
f 531/531/531 539/539/539 533/533/533
f 537/537/537 539/539/539 531/531/531
f 533/533/533 540/540/540 534/534/534
f 539/539/539 540/540/540 533/533/533
f 534/534/534 541/541/541 535/535/535
f 540/540/540 541/541/541 534/534/534
f 535/535/535 542/542/542 530/530/530
f 542/542/542 536/536/536 530/530/530
f 541/541/541 542/542/542 535/535/535
f 543/543/543 498/498/498 536/536/536
f 542/542/542 543/543/543 536/536/536
f 538/538/538 544/544/544 537/537/537
f 545/545/545 544/544/544 538/538/538
f 537/537/537 546/546/546 539/539/539
f 544/544/544 546/546/546 537/537/537
f 539/539/539 547/547/547 540/540/540
f 546/546/546 547/547/547 539/539/539
f 540/540/540 548/548/548 541/541/541
f 547/547/547 548/548/548 540/540/540
f 541/541/541 549/549/549 542/542/542
f 549/549/549 543/543/543 542/542/542
f 548/548/548 549/549/549 541/541/541
f 543/543/543 550/550/550 498/498/498
f 550/550/550 493/493/493 498/498/498
f 545/545/545 551/551/551 544/544/544
f 552/552/552 551/551/551 545/545/545
f 552/552/552 553/553/553 551/551/551
f 549/549/549 554/554/554 543/543/543
f 554/554/554 550/550/550 543/543/543
f 548/548/548 555/555/555 549/549/549
f 555/555/555 554/554/554 549/549/549
f 550/550/550 556/556/556 493/493/493
f 556/556/556 488/488/488 493/493/493
f 551/551/551 557/557/557 544/544/544
f 544/544/544 557/557/557 546/546/546
f 553/553/553 558/558/558 551/551/551
f 551/551/551 558/558/558 557/557/557
f 553/553/553 559/559/559 558/558/558
f 554/554/554 560/560/560 550/550/550
f 560/560/560 556/556/556 550/550/550
f 556/556/556 561/561/561 488/488/488
f 561/561/561 483/483/483 488/488/488
f 557/557/557 562/562/562 546/546/546
f 546/546/546 562/562/562 547/547/547
f 559/559/559 563/563/563 558/558/558
f 559/559/559 564/564/564 563/563/563
f 558/558/558 565/565/565 557/557/557
f 557/557/557 565/565/565 562/562/562
f 558/558/558 563/563/563 565/565/565
f 562/562/562 566/566/566 547/547/547
f 547/547/547 566/566/566 548/548/548
f 566/566/566 555/555/555 548/548/548
f 564/564/564 567/567/567 563/563/563
f 564/564/564 568/568/568 567/567/567
f 563/563/563 569/569/569 565/565/565
f 563/563/563 567/567/567 569/569/569
f 565/565/565 570/570/570 562/562/562
f 562/562/562 570/570/570 566/566/566
f 565/565/565 569/569/569 570/570/570
f 566/566/566 571/571/571 555/555/555
f 570/570/570 571/571/571 566/566/566
f 568/568/568 572/572/572 567/567/567
f 568/568/568 573/573/573 572/572/572
f 567/567/567 574/574/574 569/569/569
f 567/567/567 572/572/572 574/574/574
f 569/569/569 575/575/575 570/570/570
f 570/570/570 575/575/575 571/571/571
f 569/569/569 574/574/574 575/575/575
f 571/571/571 576/576/576 555/555/555
f 555/555/555 576/576/576 554/554/554
f 576/576/576 560/560/560 554/554/554
f 573/573/573 577/577/577 572/572/572
f 573/573/573 578/578/578 577/577/577
f 572/572/572 579/579/579 574/574/574
f 572/572/572 577/577/577 579/579/579
f 574/574/574 580/580/580 575/575/575
f 574/574/574 579/579/579 580/580/580
f 575/575/575 581/581/581 571/571/571
f 571/571/571 581/581/581 576/576/576
f 575/575/575 580/580/580 581/581/581
f 576/576/576 582/582/582 560/560/560
f 581/581/581 582/582/582 576/576/576
f 578/578/578 583/583/583 577/577/577
f 578/578/578 584/584/584 583/583/583
f 577/577/577 585/585/585 579/579/579
f 577/577/577 583/583/583 585/585/585
f 579/579/579 586/586/586 580/580/580
f 579/579/579 585/585/585 586/586/586
f 580/580/580 587/587/587 581/581/581
f 581/581/581 587/587/587 582/582/582
f 580/580/580 586/586/586 587/587/587
f 582/582/582 588/588/588 560/560/560
f 560/560/560 588/588/588 556/556/556
f 588/588/588 561/561/561 556/556/556
f 584/584/584 589/589/589 583/583/583
f 584/584/584 590/590/590 589/589/589
f 583/583/583 591/591/591 585/585/585
f 583/583/583 589/589/589 591/591/591
f 585/585/585 592/592/592 586/586/586
f 585/585/585 591/591/591 592/592/592
f 586/586/586 593/593/593 587/587/587
f 586/586/586 592/592/592 593/593/593
f 587/587/587 594/594/594 582/582/582
f 582/582/582 594/594/594 588/588/588
f 587/587/587 593/593/593 594/594/594
f 588/588/588 595/595/595 561/561/561
f 594/594/594 595/595/595 588/588/588
f 590/590/590 596/596/596 589/589/589
f 590/590/590 597/597/597 596/596/596
f 589/589/589 598/598/598 591/591/591
f 589/589/589 596/596/596 598/598/598
f 591/591/591 599/599/599 592/592/592
f 591/591/591 598/598/598 599/599/599
f 592/592/592 600/600/600 593/593/593
f 592/592/592 599/599/599 600/600/600
f 593/593/593 601/601/601 594/594/594
f 594/594/594 601/601/601 595/595/595
f 593/593/593 600/600/600 601/601/601
f 595/595/595 602/602/602 561/561/561
f 561/561/561 602/602/602 483/483/483
f 602/602/602 478/478/478 483/483/483
f 597/597/597 603/603/603 596/596/596
f 597/597/597 604/604/604 603/603/603
f 596/596/596 605/605/605 598/598/598
f 596/596/596 603/603/603 605/605/605
f 598/598/598 606/606/606 599/599/599
f 598/598/598 605/605/605 606/606/606
f 599/599/599 607/607/607 600/600/600
f 599/599/599 606/606/606 607/607/607
f 600/600/600 608/608/608 601/601/601
f 600/600/600 607/607/607 608/608/608
f 602/602/602 609/609/609 478/478/478
f 609/609/609 473/473/473 478/478/478
f 604/604/604 610/610/610 603/603/603
f 604/604/604 611/611/611 610/610/610
f 603/603/603 612/612/612 605/605/605
f 603/603/603 610/610/610 612/612/612
f 605/605/605 613/613/613 606/606/606
f 605/605/605 612/612/612 613/613/613
f 606/606/606 614/614/614 607/607/607
f 606/606/606 613/613/613 614/614/614
f 611/611/611 615/615/615 610/610/610
f 611/611/611 616/616/616 615/615/615
f 610/610/610 617/617/617 612/612/612
f 610/610/610 615/615/615 617/617/617
f 612/612/612 618/618/618 613/613/613
f 612/612/612 617/617/617 618/618/618
f 616/616/616 619/619/619 615/615/615
f 616/616/616 620/620/620 619/619/619
f 615/615/615 621/621/621 617/617/617
f 615/615/615 619/619/619 621/621/621
f 620/620/620 622/622/622 619/619/619
f 620/620/620 623/623/623 622/622/622
f 607/607/607 614/614/614 624/624/624
f 607/607/607 624/624/624 608/608/608
f 613/613/613 625/625/625 614/614/614
f 613/613/613 618/618/618 625/625/625
f 617/617/617 626/626/626 618/618/618
f 617/617/617 621/621/621 626/626/626
f 619/619/619 627/627/627 621/621/621
f 619/619/619 622/622/622 627/627/627
f 623/623/623 628/628/628 622/622/622
f 623/623/623 629/629/629 628/628/628
f 614/614/614 630/630/630 624/624/624
f 614/614/614 625/625/625 630/630/630
f 618/618/618 631/631/631 625/625/625
f 618/618/618 626/626/626 631/631/631
f 621/621/621 632/632/632 626/626/626
f 621/621/621 627/627/627 632/632/632
f 622/622/622 633/633/633 627/627/627
f 622/622/622 628/628/628 633/633/633
f 629/629/629 634/634/634 628/628/628
f 629/629/629 635/635/635 634/634/634
f 625/625/625 636/636/636 630/630/630
f 625/625/625 631/631/631 636/636/636
f 626/626/626 637/637/637 631/631/631
f 626/626/626 632/632/632 637/637/637
f 627/627/627 638/638/638 632/632/632
f 627/627/627 633/633/633 638/638/638
f 628/628/628 639/639/639 633/633/633
f 628/628/628 634/634/634 639/639/639
f 635/635/635 640/640/640 634/634/634
f 635/635/635 641/641/641 640/640/640
f 631/631/631 642/642/642 636/636/636
f 631/631/631 637/637/637 642/642/642
f 632/632/632 643/643/643 637/637/637
f 632/632/632 638/638/638 643/643/643
f 633/633/633 644/644/644 638/638/638
f 633/633/633 639/639/639 644/644/644
f 634/634/634 645/645/645 639/639/639
f 634/634/634 640/640/640 645/645/645
f 641/641/641 646/646/646 640/640/640
f 641/641/641 647/647/647 646/646/646
f 637/637/637 648/648/648 642/642/642
f 637/637/637 643/643/643 648/648/648
f 638/638/638 649/649/649 643/643/643
f 638/638/638 644/644/644 649/649/649
f 639/639/639 650/650/650 644/644/644
f 639/639/639 645/645/645 650/650/650
f 640/640/640 651/651/651 645/645/645
f 640/640/640 646/646/646 651/651/651
f 647/647/647 652/652/652 646/646/646
f 647/647/647 653/653/653 652/652/652
f 643/643/643 654/654/654 648/648/648
f 643/643/643 649/649/649 654/654/654
f 644/644/644 655/655/655 649/649/649
f 644/644/644 650/650/650 655/655/655
f 645/645/645 656/656/656 650/650/650
f 645/645/645 651/651/651 656/656/656
f 646/646/646 657/657/657 651/651/651
f 646/646/646 652/652/652 657/657/657
f 653/653/653 658/658/658 652/652/652
f 653/653/653 659/659/659 658/658/658
f 649/649/649 660/660/660 654/654/654
f 649/649/649 655/655/655 660/660/660
f 650/650/650 661/661/661 655/655/655
f 650/650/650 656/656/656 661/661/661
f 651/651/651 662/662/662 656/656/656
f 651/651/651 657/657/657 662/662/662
f 652/652/652 663/663/663 657/657/657
f 652/652/652 658/658/658 663/663/663
f 659/659/659 664/664/664 658/658/658
f 659/659/659 665/665/665 664/664/664
f 655/655/655 666/666/666 660/660/660
f 655/655/655 661/661/661 666/666/666
f 656/656/656 667/667/667 661/661/661
f 656/656/656 662/662/662 667/667/667
f 657/657/657 668/668/668 662/662/662
f 657/657/657 663/663/663 668/668/668
f 658/658/658 669/669/669 663/663/663
f 658/658/658 664/664/664 669/669/669
f 665/665/665 670/670/670 664/664/664
f 665/665/665 671/671/671 670/670/670
f 661/661/661 672/672/672 666/666/666
f 661/661/661 667/667/667 672/672/672
f 662/662/662 673/673/673 667/667/667
f 662/662/662 668/668/668 673/673/673
f 663/663/663 674/674/674 668/668/668
f 663/663/663 669/669/669 674/674/674
f 664/664/664 675/675/675 669/669/669
f 664/664/664 670/670/670 675/675/675
f 671/671/671 676/676/676 670/670/670
f 671/671/671 677/677/677 676/676/676
f 667/667/667 678/678/678 672/672/672
f 667/667/667 673/673/673 678/678/678
f 668/668/668 679/679/679 673/673/673
f 668/668/668 674/674/674 679/679/679
f 669/669/669 680/680/680 674/674/674
f 669/669/669 675/675/675 680/680/680
f 670/670/670 681/681/681 675/675/675
f 670/670/670 676/676/676 681/681/681
f 677/677/677 682/682/682 676/676/676
f 677/677/677 683/683/683 682/682/682
f 673/673/673 684/684/684 678/678/678
f 673/673/673 679/679/679 684/684/684
f 674/674/674 685/685/685 679/679/679
f 674/674/674 680/680/680 685/685/685
f 675/675/675 686/686/686 680/680/680
f 675/675/675 681/681/681 686/686/686
f 676/676/676 687/687/687 681/681/681
f 676/676/676 682/682/682 687/687/687
f 683/683/683 688/688/688 682/682/682
f 683/683/683 346/346/346 688/688/688
f 346/346/346 345/345/345 688/688/688
f 682/682/682 688/688/688 689/689/689
f 682/682/682 689/689/689 687/687/687
f 688/688/688 345/345/345 690/690/690
f 688/688/688 690/690/690 689/689/689
f 345/345/345 347/347/347 690/690/690
f 681/681/681 687/687/687 691/691/691
f 681/681/681 691/691/691 686/686/686
f 680/680/680 686/686/686 692/692/692
f 680/680/680 692/692/692 685/685/685
f 687/687/687 689/689/689 693/693/693
f 687/687/687 693/693/693 691/691/691
f 690/690/690 347/347/347 694/694/694
f 347/347/347 348/348/348 694/694/694
f 694/694/694 348/348/348 356/356/356
f 689/689/689 690/690/690 695/695/695
f 690/690/690 694/694/694 695/695/695
f 689/689/689 695/695/695 693/693/693
f 694/694/694 356/356/356 696/696/696
f 695/695/695 694/694/694 696/696/696
f 696/696/696 356/356/356 367/367/367
f 686/686/686 691/691/691 697/697/697
f 686/686/686 697/697/697 692/692/692
f 691/691/691 693/693/693 698/698/698
f 691/691/691 698/698/698 697/697/697
f 693/693/693 695/695/695 699/699/699
f 695/695/695 696/696/696 699/699/699
f 693/693/693 699/699/699 698/698/698
f 696/696/696 367/367/367 700/700/700
f 699/699/699 696/696/696 700/700/700
f 698/698/698 699/699/699 701/701/701
f 699/699/699 700/700/700 701/701/701
f 697/697/697 698/698/698 702/702/702
f 698/698/698 701/701/701 702/702/702
f 692/692/692 697/697/697 703/703/703
f 697/697/697 702/702/702 703/703/703
f 700/700/700 367/367/367 704/704/704
f 367/367/367 360/360/360 704/704/704
f 704/704/704 360/360/360 368/368/368
f 701/701/701 700/700/700 705/705/705
f 700/700/700 704/704/704 705/705/705
f 704/704/704 368/368/368 706/706/706
f 705/705/705 704/704/704 706/706/706
f 706/706/706 368/368/368 375/375/375
f 706/706/706 375/375/375 387/387/387
f 707/707/707 706/706/706 387/387/387
f 705/705/705 706/706/706 707/707/707
f 707/707/707 387/387/387 398/398/398
f 701/701/701 705/705/705 708/708/708
f 702/702/702 701/701/701 708/708/708
f 708/708/708 705/705/705 707/707/707
f 709/709/709 707/707/707 398/398/398
f 708/708/708 707/707/707 709/709/709
f 709/709/709 398/398/398 403/403/403
f 702/702/702 708/708/708 710/710/710
f 710/710/710 708/708/708 709/709/709
f 703/703/703 702/702/702 710/710/710
f 711/711/711 709/709/709 403/403/403
f 710/710/710 709/709/709 711/711/711
f 711/711/711 403/403/403 408/408/408
f 703/703/703 710/710/710 712/712/712
f 712/712/712 710/710/710 711/711/711
f 713/713/713 711/711/711 408/408/408
f 712/712/712 711/711/711 713/713/713
f 713/713/713 408/408/408 413/413/413
f 714/714/714 703/703/703 712/712/712
f 692/692/692 703/703/703 714/714/714
f 685/685/685 692/692/692 714/714/714
f 715/715/715 712/712/712 713/713/713
f 714/714/714 712/712/712 715/715/715
f 716/716/716 713/713/713 413/413/413
f 715/715/715 713/713/713 716/716/716
f 716/716/716 413/413/413 418/418/418
f 685/685/685 714/714/714 717/717/717
f 717/717/717 714/714/714 715/715/715
f 679/679/679 685/685/685 717/717/717
f 679/679/679 717/717/717 684/684/684
f 717/717/717 715/715/715 718/718/718
f 718/718/718 715/715/715 716/716/716
f 684/684/684 717/717/717 718/718/718
f 719/719/719 716/716/716 418/418/418
f 718/718/718 716/716/716 719/719/719
f 719/719/719 418/418/418 423/423/423
f 684/684/684 718/718/718 720/720/720
f 720/720/720 718/718/718 719/719/719
f 678/678/678 684/684/684 720/720/720
f 721/721/721 719/719/719 423/423/423
f 720/720/720 719/719/719 721/721/721
f 721/721/721 423/423/423 428/428/428
f 678/678/678 720/720/720 722/722/722
f 722/722/722 720/720/720 721/721/721
f 672/672/672 678/678/678 722/722/722
f 723/723/723 721/721/721 428/428/428
f 722/722/722 721/721/721 723/723/723
f 723/723/723 428/428/428 433/433/433
f 672/672/672 722/722/722 724/724/724
f 724/724/724 722/722/722 723/723/723
f 666/666/666 672/672/672 724/724/724
f 725/725/725 723/723/723 433/433/433
f 724/724/724 723/723/723 725/725/725
f 725/725/725 433/433/433 438/438/438
f 666/666/666 724/724/724 726/726/726
f 726/726/726 724/724/724 725/725/725
f 660/660/660 666/666/666 726/726/726
f 727/727/727 725/725/725 438/438/438
f 726/726/726 725/725/725 727/727/727
f 727/727/727 438/438/438 443/443/443
f 660/660/660 726/726/726 728/728/728
f 728/728/728 726/726/726 727/727/727
f 654/654/654 660/660/660 728/728/728
f 729/729/729 727/727/727 443/443/443
f 728/728/728 727/727/727 729/729/729
f 729/729/729 443/443/443 448/448/448
f 654/654/654 728/728/728 730/730/730
f 730/730/730 728/728/728 729/729/729
f 648/648/648 654/654/654 730/730/730
f 731/731/731 729/729/729 448/448/448
f 730/730/730 729/729/729 731/731/731
f 731/731/731 448/448/448 453/453/453
f 648/648/648 730/730/730 732/732/732
f 732/732/732 730/730/730 731/731/731
f 642/642/642 648/648/648 732/732/732
f 733/733/733 731/731/731 453/453/453
f 732/732/732 731/731/731 733/733/733
f 733/733/733 453/453/453 458/458/458
f 642/642/642 732/732/732 734/734/734
f 734/734/734 732/732/732 733/733/733
f 636/636/636 642/642/642 734/734/734
f 735/735/735 733/733/733 458/458/458
f 734/734/734 733/733/733 735/735/735
f 735/735/735 458/458/458 463/463/463
f 636/636/636 734/734/734 736/736/736
f 736/736/736 734/734/734 735/735/735
f 630/630/630 636/636/636 736/736/736
f 737/737/737 735/735/735 463/463/463
f 736/736/736 735/735/735 737/737/737
f 737/737/737 463/463/463 468/468/468
f 630/630/630 736/736/736 738/738/738
f 738/738/738 736/736/736 737/737/737
f 624/624/624 630/630/630 738/738/738
f 739/739/739 737/737/737 468/468/468
f 738/738/738 737/737/737 739/739/739
f 739/739/739 468/468/468 473/473/473
f 609/609/609 739/739/739 473/473/473
f 624/624/624 738/738/738 740/740/740
f 740/740/740 738/738/738 739/739/739
f 740/740/740 739/739/739 609/609/609
f 608/608/608 624/624/624 740/740/740
f 741/741/741 740/740/740 609/609/609
f 608/608/608 740/740/740 741/741/741
f 741/741/741 609/609/609 602/602/602
f 601/601/601 608/608/608 741/741/741
f 595/595/595 741/741/741 602/602/602
f 601/601/601 741/741/741 595/595/595
