o disk_10
v -0.222286344 5.96525666e-17 -0.974200368
v -7.3283034e-17 0.00878120121 -0.922163427
v -8.32667268e-17 6.12323426e-17 -1
v -0.204984337 0.00878120121 -0.898371935
v -0.433430761 5.51067459e-17 -0.899961412
v -0.187682331 0.0244164225 -0.822543561
v -6.41124863e-17 0.0244164225 -0.844326854
v -0.399693996 0.00878120121 -0.82991153
v -0.623364806 4.78583078e-17 -0.781585515
v -0.170380324 0.0436227657 -0.746715128
v -5.57008866e-17 0.0436227657 -0.76649034
v -0.574844241 0.00878120121 -0.720749557
v -0.781585515 3.81700839e-17 -0.623364806
v -0.36595723 0.0244164225 -0.759861648
v -0.153078318 0.0748531669 -0.670886755
v -4.79940151e-17 0.0748531669 -0.688653767
v -0.720749557 0.00878120121 -0.574844241
v -0.899961412 2.65399791e-17 -0.433430761
v -0.526323676 0.0244164225 -0.659913659
v -0.477803081 0.0436227657 -0.599077702
v -0.332220495 0.0436227657 -0.689811707
v -0.135776311 0.0944827199 -0.595058322
v -4.09376681e-17 0.0944827199 -0.610817194
v -0.298483729 0.0748531669 -0.619761825
v -0.118474312 0.102191627 -0.519229889
v -3.44776291e-17 0.102191627 -0.532980621
v -0.264746964 0.0944827199 -0.549711943
v -0.101172306 0.0944827199 -0.443401515
v -2.85596911e-17 0.0944827199 -0.455144078
v -0.659913659 0.0244164225 -0.526323676
v -0.429282516 0.0748531669 -0.538241804
v -0.231010199 0.102191627 -0.479662031
v -0.0838703066 0.0748531669 -0.367573112
v -2.31296458e-17 0.0748531669 -0.377307504
v -0.380761951 0.0944827199 -0.477405876
v -0.197273448 0.0944827199 -0.409612119
v -0.0665683001 0.0436227657 -0.291744709
v -1.81332813e-17 0.0436227657 -0.299470961
v -0.332241356 0.102191627 -0.416569948
v -0.477405876 0.0944827199 -0.380761951
v -0.538241804 0.0748531669 -0.429282516
v -0.163536683 0.0748531669 -0.339562207
v -0.0492662974 0.0244164225 -0.215916291
v -1.35163868e-17 0.0244164225 -0.221634388
v -0.283720791 0.0944827199 -0.35573402
v -0.129799917 0.0436227657 -0.269512296
v -0.0319642909 8.57790927e-18 -0.140087888
v -9.22475376e-18 8.80507706e-18 -0.14379783
v -0.0960631594 0.0244164225 -0.199462399
v -0.0623264015 7.9242298e-18 -0.129412502
v -0.235200226 0.0748531669 -0.294898093
v -0.294898093 0.0748531669 -0.235200226
v -0.186679646 0.0436227657 -0.23406215
v -0.138159081 0.0244164225 -0.173226222
v -0.0896385014 6.88192101e-18 -0.112390295
v -0.112390295 5.48877515e-18 -0.0896385014
v -0.173226222 0.0244164225 -0.138159081
v -0.35573402 0.0944827199 -0.283720791
v -0.23406215 0.0436227657 -0.186679646
v -0.199462399 0.0244164225 -0.0960631594
v -0.129412502 3.81639132e-18 -0.0623264015
v -0.140087888 1.9572485e-18 -0.0319642909
v -0.269512296 0.0436227657 -0.129799917
v -0.215916291 0.0244164225 -0.0492662974
v -0.14379783 2.39631944e-32 -3.93543975e-16
v -0.291744709 0.0436227657 -0.0665683001
v -0.221634388 0.0244164225 -6.05831792e-16
v -0.140087888 -1.9572485e-18 0.0319642909
v -0.339562207 0.0748531669 -0.163536683
v -0.367573112 0.0748531669 -0.0838703066
v -0.299470961 0.0436227657 -8.19300189e-16
v -0.215916291 0.0244164225 0.0492662974
v -0.409612119 0.0944827199 -0.197273448
v -0.443401515 0.0944827199 -0.101172306
v -0.377307504 0.0748531669 -1.03374431e-15
v -0.199462399 0.0244164225 0.0960631594
v -0.129412502 -3.81639132e-18 0.0623264015
v -0.291744709 0.0436227657 0.0665683001
v -0.173226222 0.0244164225 0.138159081
v -0.112390295 -5.48877515e-18 0.0896385014
v -0.0896385014 -6.88192101e-18 0.112390295
v -0.269512296 0.0436227657 0.129799917
v -0.23406215 0.0436227657 0.186679646
v -0.138159081 0.0244164225 0.173226222
v -0.0960631594 0.0244164225 0.199462399
v -0.0623264015 -7.9242298e-18 0.129412502
v -0.0319642909 -8.57790927e-18 0.140087888
v -0.0492662974 0.0244164225 0.215916291
v 3.05721428e-16 -8.80507706e-18 0.14379783
v 4.73034179e-16 0.0244164225 0.221634388
v 0.0319642909 -8.57790927e-18 0.140087888
v -0.0665683001 0.0436227657 0.291744709
v -0.129799917 0.0436227657 0.269512296
v -0.186679646 0.0436227657 0.23406215
v -0.235200226 0.0748531669 0.294898093
v -0.294898093 0.0748531669 0.235200226
v -0.339562207 0.0748531669 0.163536683
v -0.35573402 0.0944827199 0.283720791
v -0.367573112 0.0748531669 0.0838703066
v -0.409612119 0.0944827199 0.197273448
v -0.455144078 0.0944827199 -1.2489595e-15
v -0.443401515 0.0944827199 0.101172306
v -0.519229889 0.102191627 -0.118474312
v -0.532980621 0.102191627 -1.46474083e-15
v -0.479662031 0.102191627 -0.231010199
v -0.416569948 0.102191627 -0.332241356
v -0.549711943 0.0944827199 -0.264746964
v -0.595058322 0.0944827199 -0.135776311
v -0.610817194 0.0944827199 -1.68088363e-15
v -0.519229889 0.102191627 0.118474312
v -0.670886755 0.0748531669 -0.153078318
v -0.619761825 0.0748531669 -0.298483729
v -0.479662031 0.102191627 0.231010199
v -0.599077702 0.0436227657 -0.477803081
v -0.689811707 0.0436227657 -0.332220495
v -0.746715128 0.0436227657 -0.170380324
v -0.759861648 0.0244164225 -0.36595723
v -0.416569948 0.102191627 0.332241356
v -0.822543561 0.0244164225 -0.187682331
v -0.82991153 0.00878120121 -0.399693996
v -0.974200368 1.36111122e-17 -0.222286344
v -0.898371935 0.00878120121 -0.204984337
v -1 1.66215371e-31 -2.75985061e-15
v -0.844326854 0.0244164225 -2.3294323e-15
v -0.922163427 0.00878120121 -2.54497275e-15
v -0.974200368 -1.36111122e-17 0.222286344
v -0.898371935 0.00878120121 0.204984337
v -0.899961412 -2.65399791e-17 0.433430761
v -0.822543561 0.0244164225 0.187682331
v -0.82991153 0.00878120121 0.399693996
v -0.781585515 -3.81700839e-17 0.623364806
v -0.76649034 0.0436227657 -2.11343402e-15
v -0.746715128 0.0436227657 0.170380324
v -0.688653767 0.0748531669 -1.89718291e-15
v -0.670886755 0.0748531669 0.153078318
v -0.595058322 0.0944827199 0.135776311
v -0.759861648 0.0244164225 0.36595723
v -0.720749557 0.00878120121 0.574844241
v -0.623364806 -4.78583078e-17 0.781585515
v -0.689811707 0.0436227657 0.332220495
v -0.599077702 0.0436227657 0.477803081
v -0.659913659 0.0244164225 0.526323676
v -0.574844241 0.00878120121 0.720749557
v -0.433430761 -5.51067459e-17 0.899961412
v -0.619761825 0.0748531669 0.298483729
v -0.549711943 0.0944827199 0.264746964
v -0.538241804 0.0748531669 0.429282516
v -0.477405876 0.0944827199 0.380761951
v -0.380761951 0.0944827199 0.477405876
v -0.399693996 0.00878120121 0.82991153
v -0.222286344 -5.96525666e-17 0.974200368
v -0.204984337 0.00878120121 0.898371935
v 2.16703236e-15 -6.12323426e-17 1
v -0.36595723 0.0244164225 0.759861648
v -0.429282516 0.0748531669 0.538241804
v 1.99240127e-15 0.00878120121 0.922163427
v 0.222286344 -5.96525666e-17 0.974200368
v -0.526323676 0.0244164225 0.659913659
v -0.477803081 0.0436227657 0.599077702
v -0.332220495 0.0436227657 0.689811707
v -0.187682331 0.0244164225 0.822543561
v -0.298483729 0.0748531669 0.619761825
v 1.81955912e-15 0.0244164225 0.844326854
v -0.170380324 0.0436227657 0.746715128
v 0.204984337 0.00878120121 0.898371935
v 0.433430761 -5.51067459e-17 0.899961412
v -0.264746964 0.0944827199 0.549711943
v -0.153078318 0.0748531669 0.670886755
v 0.187682331 0.0244164225 0.822543561
v 0.399693996 0.00878120121 0.82991153
v 0.623364806 -4.78583078e-17 0.781585515
v 1.64827106e-15 0.0436227657 0.76649034
v 0.170380324 0.0436227657 0.746715128
v 0.574844241 0.00878120121 0.720749557
v 0.781585515 -3.81700839e-17 0.623364806
v 0.36595723 0.0244164225 0.759861648
v 0.720749557 0.00878120121 0.574844241
v 0.899961412 -2.65399791e-17 0.433430761
v 0.526323676 0.0244164225 0.659913659
v 0.477803081 0.0436227657 0.599077702
v 0.332220495 0.0436227657 0.689811707
v 0.153078318 0.0748531669 0.670886755
v 0.82991153 0.00878120121 0.399693996
v 0.974200368 -1.36111122e-17 0.222286344
v 0.659913659 0.0244164225 0.526323676
v 0.898371935 0.00878120121 0.204984337
v 1 4.65612607e-32 -7.03840439e-16
v 0.759861648 0.0244164225 0.36595723
v 1.47830204e-15 0.0748531669 0.688653767
v 0.298483729 0.0748531669 0.619761825
v 0.135776311 0.0944827199 0.595058322
v 1.30941712e-15 0.0944827199 0.610817194
v 0.922163427 0.00878120121 -6.53591904e-16
v 0.974200368 1.36111122e-17 -0.222286344
v -0.135776311 0.0944827199 0.595058322
v -0.231010199 0.102191627 0.479662031
v 0.898371935 0.00878120121 -0.204984337
v 0.899961412 2.65399791e-17 -0.433430761
v 0.82991153 0.00878120121 -0.399693996
v 0.781585515 3.81700839e-17 -0.623364806
v 0.822543561 0.0244164225 -0.187682331
v 0.844326854 0.0244164225 -6.01596628e-16
v -0.118474312 0.102191627 0.519229889
v -0.332241356 0.102191627 0.416569948
v -0.283720791 0.0944827199 0.35573402
v -0.197273448 0.0944827199 0.409612119
v -0.163536683 0.0748531669 0.339562207
v -0.101172306 0.0944827199 0.443401515
v -0.0838703066 0.0748531669 0.367573112
v 6.40021642e-16 0.0436227657 0.299470961
v 8.0691879e-16 0.0748531669 0.377307504
v 9.73960411e-16 0.0944827199 0.455144078
v 0.0492662974 0.0244164225 0.215916291
v 0.0665683001 0.0436227657 0.291744709
v 0.0960631594 0.0244164225 0.199462399
v 0.0623264015 -7.9242298e-18 0.129412502
v 1.14138166e-15 0.102191627 0.532980621
v 0.0838703066 0.0748531669 0.367573112
v 0.129799917 0.0436227657 0.269512296
v 0.138159081 0.0244164225 0.173226222
v 0.0896385014 -6.88192101e-18 0.112390295
v 0.112390295 -5.48877515e-18 0.0896385014
v 0.118474312 0.102191627 0.519229889
v 0.101172306 0.0944827199 0.443401515
v 0.163536683 0.0748531669 0.339562207
v 0.186679646 0.0436227657 0.23406215
v 0.173226222 0.0244164225 0.138159081
v 0.264746964 0.0944827199 0.549711943
v 0.231010199 0.102191627 0.479662031
v 0.197273448 0.0944827199 0.409612119
v 0.235200226 0.0748531669 0.294898093
v 0.294898093 0.0748531669 0.235200226
v 0.283720791 0.0944827199 0.35573402
v 0.429282516 0.0748531669 0.538241804
v 0.380761951 0.0944827199 0.477405876
v 0.332241356 0.102191627 0.416569948
v 0.477405876 0.0944827199 0.380761951
v 0.538241804 0.0748531669 0.429282516
v 0.35573402 0.0944827199 0.283720791
v 0.23406215 0.0436227657 0.186679646
v 0.269512296 0.0436227657 0.129799917
v 0.599077702 0.0436227657 0.477803081
v 0.689811707 0.0436227657 0.332220495
v 0.619761825 0.0748531669 0.298483729
v 0.822543561 0.0244164225 0.187682331
v 0.746715128 0.0436227657 0.170380324
v 0.549711943 0.0944827199 0.264746964
v 0.670886755 0.0748531669 0.153078318
v 0.76649034 0.0436227657 -5.48131643e-16
v 0.746715128 0.0436227657 -0.170380324
v 0.759861648 0.0244164225 -0.36595723
v 0.479662031 0.102191627 0.231010199
v 0.595058322 0.0944827199 0.135776311
v 0.416569948 0.102191627 0.332241356
v 0.409612119 0.0944827199 0.197273448
v 0.519229889 0.102191627 0.118474312
v 0.610817194 0.0944827199 -4.37900919e-16
v 0.339562207 0.0748531669 0.163536683
v 0.443401515 0.0944827199 0.101172306
v 0.688653767 0.0748531669 -4.93474089e-16
v 0.670886755 0.0748531669 -0.153078318
v 0.367573112 0.0748531669 0.0838703066
v 0.595058322 0.0944827199 -0.135776311
v 0.689811707 0.0436227657 -0.332220495
v 0.599077702 0.0436227657 -0.477803081
v 0.619761825 0.0748531669 -0.298483729
v 0.659913659 0.0244164225 -0.526323676
v 0.720749557 0.00878120121 -0.574844241
v 0.623364806 4.78583078e-17 -0.781585515
v 0.574844241 0.00878120121 -0.720749557
v 0.433430761 5.51067459e-17 -0.899961412
v 0.526323676 0.0244164225 -0.659913659
v 0.399693996 0.00878120121 -0.82991153
v 0.222286344 5.96525666e-17 -0.974200368
v 0.36595723 0.0244164225 -0.759861648
v 0.204984337 0.00878120121 -0.898371935
v -8.32667268e-17 6.12323426e-17 -1
v -7.3283034e-17 0.00878120121 -0.922163427
v -6.41124863e-17 0.0244164225 -0.844326854
v 0.187682331 0.0244164225 -0.822543561
v 0.332220495 0.0436227657 -0.689811707
v 0.170380324 0.0436227657 -0.746715128
v -5.57008866e-17 0.0436227657 -0.76649034
v 0.477803081 0.0436227657 -0.599077702
v 0.153078318 0.0748531669 -0.670886755
v -4.79940151e-17 0.0748531669 -0.688653767
v -4.09376681e-17 0.0944827199 -0.610817194
v 0.298483729 0.0748531669 -0.619761825
v 0.429282516 0.0748531669 -0.538241804
v 0.264746964 0.0944827199 -0.549711943
v 0.135776311 0.0944827199 -0.595058322
v 0.538241804 0.0748531669 -0.429282516
v 0.118474312 0.102191627 -0.519229889
v -3.44776291e-17 0.102191627 -0.532980621
v -2.85596911e-17 0.0944827199 -0.455144078
v 0.380761951 0.0944827199 -0.477405876
v 0.231010199 0.102191627 -0.479662031
v 0.549711943 0.0944827199 -0.264746964
v 0.101172306 0.0944827199 -0.443401515
v -2.31296458e-17 0.0748531669 -0.377307504
v 0.477405876 0.0944827199 -0.380761951
v 0.519229889 0.102191627 -0.118474312
v 0.479662031 0.102191627 -0.231010199
v 0.416569948 0.102191627 -0.332241356
v 0.532980621 0.102191627 -3.81689298e-16
v 0.443401515 0.0944827199 -0.101172306
v 0.455144078 0.0944827199 -3.25116286e-16
v 0.409612119 0.0944827199 -0.197273448
v 0.367573112 0.0748531669 -0.0838703066
v 0.377307504 0.0748531669 -2.6845894e-16
v 0.332241356 0.102191627 -0.416569948
v 0.283720791 0.0944827199 -0.35573402
v 0.35573402 0.0944827199 -0.283720791
v 0.235200226 0.0748531669 -0.294898093
v 0.197273448 0.0944827199 -0.409612119
v 0.339562207 0.0748531669 -0.163536683
v 0.291744709 0.0436227657 -0.0665683001
v 0.163536683 0.0748531669 -0.339562207
v 0.294898093 0.0748531669 -0.235200226
v 0.0838703066 0.0748531669 -0.367573112
v -1.81332813e-17 0.0436227657 -0.299470961
v 0.269512296 0.0436227657 -0.129799917
v 0.299470961 0.0436227657 -2.11994334e-16
v 0.129799917 0.0436227657 -0.269512296
v 0.0665683001 0.0436227657 -0.291744709
v -1.35163868e-17 0.0244164225 -0.221634388
v 0.23406215 0.0436227657 -0.186679646
v 0.215916291 0.0244164225 -0.0492662974
v 0.291744709 0.0436227657 0.0665683001
v 0.0492662974 0.0244164225 -0.215916291
v -9.22475376e-18 8.80507706e-18 -0.14379783
v 0.0319642909 8.57790927e-18 -0.140087888
v 0.0960631594 0.0244164225 -0.199462399
v 0.0623264015 7.9242298e-18 -0.129412502
v 0.0896385014 6.88192101e-18 -0.112390295
v 0.138159081 0.0244164225 -0.173226222
v 0.221634388 0.0244164225 -1.55999553e-16
v 0.199462399 0.0244164225 0.0960631594
v 0.129412502 -3.81639132e-18 0.0623264015
v 0.140087888 -1.9572485e-18 0.0319642909
v 0.215916291 0.0244164225 0.0492662974
v 0.14379783 6.40762338e-33 -1.00751664e-16
v 0.140087888 1.9572485e-18 -0.0319642909
v 0.199462399 0.0244164225 -0.0960631594
v 0.129412502 3.81639132e-18 -0.0623264015
v 0.173226222 0.0244164225 -0.138159081
v 0.112390295 5.48877515e-18 -0.0896385014
v 0.186679646 0.0436227657 -0.23406215
vt 0.964256048 0
vt 1 0.0833333358
vt 1 0
vt 0.964256048 0.0833333358
vt 0.928584218 0
vt 0.964256048 0.166666672
vt 1 0.166666672
vt 0.928584218 0.0833333358
vt 0.892882407 0
vt 0.964256048 0.25
vt 1 0.25
vt 0.892882407 0.0833333358
vt 0.857117593 0
vt 0.928584218 0.166666672
vt 0.964256048 0.333333343
vt 1 0.333333343
vt 0.857117593 0.0833333358
vt 0.821415782 0
vt 0.892882407 0.166666672
vt 0.892882407 0.25
vt 0.928584218 0.25
vt 0.964256048 0.416666657
vt 1 0.416666657
vt 0.928584218 0.333333343
vt 0.964256048 0.5
vt 1 0.5
vt 0.928584218 0.416666657
vt 0.964256048 0.588651717
vt 1 0.588651717
vt 0.857117593 0.166666672
vt 0.892882407 0.333333343
vt 0.928584218 0.5
vt 0.964256048 0.680849135
vt 1 0.680849135
vt 0.892882407 0.416666657
vt 0.928584218 0.588651717
vt 0.964256048 0.785456121
vt 1 0.785456121
vt 0.892882407 0.5
vt 0.857117593 0.416666657
vt 0.857117593 0.333333343
vt 0.928584218 0.680849135
vt 0.964256048 0.888290286
vt 1 0.888290286
vt 0.892882407 0.588651717
vt 0.928584218 0.785456121
vt 0.964256048 0.998842359
vt 1 0.998842359
vt 0.928584218 0.888290286
vt 0.928584218 0.998842359
vt 0.892882407 0.680849135
vt 0.857117593 0.680849135
vt 0.892882407 0.785456121
vt 0.892882407 0.888290286
vt 0.892882407 0.998842359
vt 0.857117593 0.998842359
vt 0.857117593 0.888290286
vt 0.857117593 0.588651717
vt 0.857117593 0.785456121
vt 0.821415782 0.888290286
vt 0.821415782 0.998842359
vt 0.785743952 0.998842359
vt 0.821415782 0.785456121
vt 0.785743952 0.888290286
vt 0.75 0.998842359
vt 0.785743952 0.785456121
vt 0.75 0.888290286
vt 0.714256048 0.998842359
vt 0.821415782 0.680849135
vt 0.785743952 0.680849135
vt 0.75 0.785456121
vt 0.714256048 0.888290286
vt 0.821415782 0.588651717
vt 0.785743952 0.588651717
vt 0.75 0.680849135
vt 0.678584218 0.888290286
vt 0.678584218 0.998842359
vt 0.714256048 0.785456121
vt 0.642882407 0.888290286
vt 0.642882407 0.998842359
vt 0.607117593 0.998842359
vt 0.678584218 0.785456121
vt 0.642882407 0.785456121
vt 0.607117593 0.888290286
vt 0.571415782 0.888290286
vt 0.571415782 0.998842359
vt 0.535743952 0.998842359
vt 0.535743952 0.888290286
vt 0.5 0.998842359
vt 0.5 0.888290286
vt 0.464256018 0.998842359
vt 0.535743952 0.785456121
vt 0.571415782 0.785456121
vt 0.607117593 0.785456121
vt 0.607117593 0.680849135
vt 0.642882407 0.680849135
vt 0.678584218 0.680849135
vt 0.642882407 0.588651717
vt 0.714256048 0.680849135
vt 0.678584218 0.588651717
vt 0.75 0.588651717
vt 0.714256048 0.588651717
vt 0.785743952 0.5
vt 0.75 0.5
vt 0.821415782 0.5
vt 0.857117593 0.5
vt 0.821415782 0.416666657
vt 0.785743952 0.416666657
vt 0.75 0.416666657
vt 0.714256048 0.5
vt 0.785743952 0.333333343
vt 0.821415782 0.333333343
vt 0.678584218 0.5
vt 0.857117593 0.25
vt 0.821415782 0.25
vt 0.785743952 0.25
vt 0.821415782 0.166666672
vt 0.642882407 0.5
vt 0.785743952 0.166666672
vt 0.821415782 0.0833333358
vt 0.785743952 0
vt 0.785743952 0.0833333358
vt 0.75 0
vt 0.75 0.166666672
vt 0.75 0.0833333358
vt 0.714256048 0
vt 0.714256048 0.0833333358
vt 0.678584218 0
vt 0.714256048 0.166666672
vt 0.678584218 0.0833333358
vt 0.642882407 0
vt 0.75 0.25
vt 0.714256048 0.25
vt 0.75 0.333333343
vt 0.714256048 0.333333343
vt 0.714256048 0.416666657
vt 0.678584218 0.166666672
vt 0.642882407 0.0833333358
vt 0.607117593 0
vt 0.678584218 0.25
vt 0.642882407 0.25
vt 0.642882407 0.166666672
vt 0.607117593 0.0833333358
vt 0.571415782 0
vt 0.678584218 0.333333343
vt 0.678584218 0.416666657
vt 0.642882407 0.333333343
vt 0.642882407 0.416666657
vt 0.607117593 0.416666657
vt 0.571415782 0.0833333358
vt 0.535743952 0
vt 0.535743952 0.0833333358
vt 0.5 0
vt 0.571415782 0.166666672
vt 0.607117593 0.333333343
vt 0.5 0.0833333358
vt 0.464256018 0
vt 0.607117593 0.166666672
vt 0.607117593 0.25
vt 0.571415782 0.25
vt 0.535743952 0.166666672
vt 0.571415782 0.333333343
vt 0.5 0.166666672
vt 0.535743952 0.25
vt 0.464256018 0.0833333358
vt 0.428584188 0
vt 0.571415782 0.416666657
vt 0.535743952 0.333333343
vt 0.464256018 0.166666672
vt 0.428584188 0.0833333358
vt 0.392882407 0
vt 0.5 0.25
vt 0.464256018 0.25
vt 0.392882407 0.0833333358
vt 0.357117593 0
vt 0.428584188 0.166666672
vt 0.357117593 0.0833333358
vt 0.321415812 0
vt 0.392882407 0.166666672
vt 0.392882407 0.25
vt 0.428584188 0.25
vt 0.464256018 0.333333343
vt 0.321415812 0.0833333358
vt 0.285743982 0
vt 0.357117593 0.166666672
vt 0.285743982 0.0833333358
vt 0.25 0
vt 0.321415812 0.166666672
vt 0.5 0.333333343
vt 0.428584188 0.333333343
vt 0.464256018 0.416666657
vt 0.5 0.416666657
vt 0.25 0.0833333358
vt 0.214256018 0
vt 0.535743952 0.416666657
vt 0.571415782 0.5
vt 0.214256018 0.0833333358
vt 0.178584188 0
vt 0.178584188 0.0833333358
vt 0.142882407 0
vt 0.214256018 0.166666672
vt 0.25 0.166666672
vt 0.535743952 0.5
vt 0.607117593 0.5
vt 0.607117593 0.588651717
vt 0.571415782 0.588651717
vt 0.571415782 0.680849135
vt 0.535743952 0.588651717
vt 0.535743952 0.680849135
vt 0.5 0.785456121
vt 0.5 0.680849135
vt 0.5 0.588651717
vt 0.464256018 0.888290286
vt 0.464256018 0.785456121
vt 0.428584188 0.888290286
vt 0.428584188 0.998842359
vt 0.5 0.5
vt 0.464256018 0.680849135
vt 0.428584188 0.785456121
vt 0.392882407 0.888290286
vt 0.392882407 0.998842359
vt 0.357117593 0.998842359
vt 0.464256018 0.5
vt 0.464256018 0.588651717
vt 0.428584188 0.680849135
vt 0.392882407 0.785456121
vt 0.357117593 0.888290286
vt 0.428584188 0.416666657
vt 0.428584188 0.5
vt 0.428584188 0.588651717
vt 0.392882407 0.680849135
vt 0.357117593 0.680849135
vt 0.392882407 0.588651717
vt 0.392882407 0.333333343
vt 0.392882407 0.416666657
vt 0.392882407 0.5
vt 0.357117593 0.416666657
vt 0.357117593 0.333333343
vt 0.357117593 0.588651717
vt 0.357117593 0.785456121
vt 0.321415812 0.785456121
vt 0.357117593 0.25
vt 0.321415812 0.25
vt 0.321415812 0.333333343
vt 0.285743982 0.166666672
vt 0.285743982 0.25
vt 0.321415812 0.416666657
vt 0.285743982 0.333333343
vt 0.25 0.25
vt 0.214256018 0.25
vt 0.178584188 0.166666672
vt 0.321415812 0.5
vt 0.285743982 0.416666657
vt 0.357117593 0.5
vt 0.321415812 0.588651717
vt 0.285743982 0.5
vt 0.25 0.416666657
vt 0.321415812 0.680849135
vt 0.285743982 0.588651717
vt 0.25 0.333333343
vt 0.214256018 0.333333343
vt 0.285743982 0.680849135
vt 0.214256018 0.416666657
vt 0.178584188 0.25
vt 0.142882407 0.25
vt 0.178584188 0.333333343
vt 0.142882407 0.166666672
vt 0.142882407 0.0833333358
vt 0.107117586 0
vt 0.107117586 0.0833333358
vt 0.0714158118 0
vt 0.107117586 0.166666672
vt 0.0714158118 0.0833333358
vt 0.0357439741 0
vt 0.0714158118 0.166666672
vt 0.0357439741 0.0833333358
vt 0 0
vt 0 0.0833333358
vt 0 0.166666672
vt 0.0357439741 0.166666672
vt 0.0714158118 0.25
vt 0.0357439741 0.25
vt 0 0.25
vt 0.107117586 0.25
vt 0.0357439741 0.333333343
vt 0 0.333333343
vt 0 0.416666657
vt 0.0714158118 0.333333343
vt 0.107117586 0.333333343
vt 0.0714158118 0.416666657
vt 0.0357439741 0.416666657
vt 0.142882407 0.333333343
vt 0.0357439741 0.5
vt 0 0.5
vt 0 0.588651717
vt 0.107117586 0.416666657
vt 0.0714158118 0.5
vt 0.178584188 0.416666657
vt 0.0357439741 0.588651717
vt 0 0.680849135
vt 0.142882407 0.416666657
vt 0.214256018 0.5
vt 0.178584188 0.5
vt 0.142882407 0.5
vt 0.25 0.5
vt 0.214256018 0.588651717
vt 0.25 0.588651717
vt 0.178584188 0.588651717
vt 0.214256018 0.680849135
vt 0.25 0.680849135
vt 0.107117586 0.5
vt 0.107117586 0.588651717
vt 0.142882407 0.588651717
vt 0.107117586 0.680849135
vt 0.0714158118 0.588651717
vt 0.178584188 0.680849135
vt 0.214256018 0.785456121
vt 0.0714158118 0.680849135
vt 0.142882407 0.680849135
vt 0.0357439741 0.680849135
vt 0 0.785456121
vt 0.178584188 0.785456121
vt 0.25 0.785456121
vt 0.0714158118 0.785456121
vt 0.0357439741 0.785456121
vt 0 0.888290286
vt 0.142882407 0.785456121
vt 0.214256018 0.888290286
vt 0.285743982 0.785456121
vt 0.0357439741 0.888290286
vt 0 0.998842359
vt 0.0357439741 0.998842359
vt 0.0714158118 0.888290286
vt 0.0714158118 0.998842359
vt 0.107117586 0.998842359
vt 0.107117586 0.888290286
vt 0.25 0.888290286
vt 0.321415812 0.888290286
vt 0.321415812 0.998842359
vt 0.285743982 0.998842359
vt 0.285743982 0.888290286
vt 0.25 0.998842359
vt 0.214256018 0.998842359
vt 0.178584188 0.888290286
vt 0.178584188 0.998842359
vt 0.142882407 0.888290286
vt 0.142882407 0.998842359
vt 0.107117586 0.785456121
vn 0 1 0
vn 0 1 0
vn 0 1 0
vn 0 1 0
vn 0 1 0
vn 0 1 0
vn 0 1 0
vn 0 1 0
vn 0 1 0
vn 0 1 0
vn 0 1 0
vn 0 1 0
vn 0 1 0
vn 0 1 0
vn 0 1 0
vn 0 1 0
vn 0 1 0
vn 0 1 0
vn 0 1 0
vn 0 1 0
vn 0 1 0
vn 0 1 0
vn 0 1 0
vn 0 1 0
vn 0 1 0
vn 0 1 0
vn 0 1 0
vn 0 1 0
vn 0 1 0
vn 0 1 0
vn 0 1 0
vn 0 1 0
vn 0 1 0
vn 0 1 0
vn 0 1 0
vn 0 1 0
vn 0 1 0
vn 0 1 0
vn 0 1 0
vn 0 1 0
vn 0 1 0
vn 0 1 0
vn 0 1 0
vn 0 1 0
vn 0 1 0
vn 0 1 0
vn 0 1 0
vn 0 1 0
vn 0 1 0
vn 0 1 0
vn 0 1 0
vn 0 1 0
vn 0 1 0
vn 0 1 0
vn 0 1 0
vn 0 1 0
vn 0 1 0
vn 0 1 0
vn 0 1 0
vn 0 1 0
vn 0 1 0
vn 0 1 0
vn 0 1 0
vn 0 1 0
vn 0 1 0
vn 0 1 0
vn 0 1 0
vn 0 1 0
vn 0 1 0
vn 0 1 0
vn 0 1 0
vn 0 1 0
vn 0 1 0
vn 0 1 0
vn 0 1 0
vn 0 1 0
vn 0 1 0
vn 0 1 0
vn 0 1 0
vn 0 1 0
vn 0 1 0
vn 0 1 0
vn 0 1 0
vn 0 1 0
vn 0 1 0
vn 0 1 0
vn 0 1 0
vn 0 1 0
vn 0 1 0
vn 0 1 0
vn 0 1 0
vn 0 1 0
vn 0 1 0
vn 0 1 0
vn 0 1 0
vn 0 1 0
vn 0 1 0
vn 0 1 0
vn 0 1 0
vn 0 1 0
vn 0 1 0
vn 0 1 0
vn 0 1 0
vn 0 1 0
vn 0 1 0
vn 0 1 0
vn 0 1 0
vn 0 1 0
vn 0 1 0
vn 0 1 0
vn 0 1 0
vn 0 1 0
vn 0 1 0
vn 0 1 0
vn 0 1 0
vn 0 1 0
vn 0 1 0
vn 0 1 0
vn 0 1 0
vn 0 1 0
vn 0 1 0
vn 0 1 0
vn 0 1 0
vn 0 1 0
vn 0 1 0
vn 0 1 0
vn 0 1 0
vn 0 1 0
vn 0 1 0
vn 0 1 0
vn 0 1 0
vn 0 1 0
vn 0 1 0
vn 0 1 0
vn 0 1 0
vn 0 1 0
vn 0 1 0
vn 0 1 0
vn 0 1 0
vn 0 1 0
vn 0 1 0
vn 0 1 0
vn 0 1 0
vn 0 1 0
vn 0 1 0
vn 0 1 0
vn 0 1 0
vn 0 1 0
vn 0 1 0
vn 0 1 0
vn 0 1 0
vn 0 1 0
vn 0 1 0
vn 0 1 0
vn 0 1 0
vn 0 1 0
vn 0 1 0
vn 0 1 0
vn 0 1 0
vn 0 1 0
vn 0 1 0
vn 0 1 0
vn 0 1 0
vn 0 1 0
vn 0 1 0
vn 0 1 0
vn 0 1 0
vn 0 1 0
vn 0 1 0
vn 0 1 0
vn 0 1 0
vn 0 1 0
vn 0 1 0
vn 0 1 0
vn 0 1 0
vn 0 1 0
vn 0 1 0
vn 0 1 0
vn 0 1 0
vn 0 1 0
vn 0 1 0
vn 0 1 0
vn 0 1 0
vn 0 1 0
vn 0 1 0
vn 0 1 0
vn 0 1 0
vn 0 1 0
vn 0 1 0
vn 0 1 0
vn 0 1 0
vn 0 1 0
vn 0 1 0
vn 0 1 0
vn 0 1 0
vn 0 1 0
vn 0 1 0
vn 0 1 0
vn 0 1 0
vn 0 1 0
vn 0 1 0
vn 0 1 0
vn 0 1 0
vn 0 1 0
vn 0 1 0
vn 0 1 0
vn 0 1 0
vn 0 1 0
vn 0 1 0
vn 0 1 0
vn 0 1 0
vn 0 1 0
vn 0 1 0
vn 0 1 0
vn 0 1 0
vn 0 1 0
vn 0 1 0
vn 0 1 0
vn 0 1 0
vn 0 1 0
vn 0 1 0
vn 0 1 0
vn 0 1 0
vn 0 1 0
vn 0 1 0
vn 0 1 0
vn 0 1 0
vn 0 1 0
vn 0 1 0
vn 0 1 0
vn 0 1 0
vn 0 1 0
vn 0 1 0
vn 0 1 0
vn 0 1 0
vn 0 1 0
vn 0 1 0
vn 0 1 0
vn 0 1 0
vn 0 1 0
vn 0 1 0
vn 0 1 0
vn 0 1 0
vn 0 1 0
vn 0 1 0
vn 0 1 0
vn 0 1 0
vn 0 1 0
vn 0 1 0
vn 0 1 0
vn 0 1 0
vn 0 1 0
vn 0 1 0
vn 0 1 0
vn 0 1 0
vn 0 1 0
vn 0 1 0
vn 0 1 0
vn 0 1 0
vn 0 1 0
vn 0 1 0
vn 0 1 0
vn 0 1 0
vn 0 1 0
vn 0 1 0
vn 0 1 0
vn 0 1 0
vn 0 1 0
vn 0 1 0
vn 0 1 0
vn 0 1 0
vn 0 1 0
vn 0 1 0
vn 0 1 0
vn 0 1 0
vn 0 1 0
vn 0 1 0
vn 0 1 0
vn 0 1 0
vn 0 1 0
vn 0 1 0
vn 0 1 0
vn 0 1 0
vn 0 1 0
vn 0 1 0
vn 0 1 0
vn 0 1 0
vn 0 1 0
vn 0 1 0
vn 0 1 0
vn 0 1 0
vn 0 1 0
vn 0 1 0
vn 0 1 0
vn 0 1 0
vn 0 1 0
vn 0 1 0
vn 0 1 0
vn 0 1 0
vn 0 1 0
vn 0 1 0
vn 0 1 0
vn 0 1 0
vn 0 1 0
vn 0 1 0
vn 0 1 0
vn 0 1 0
vn 0 1 0
vn 0 1 0
vn 0 1 0
vn 0 1 0
vn 0 1 0
vn 0 1 0
vn 0 1 0
vn 0 1 0
vn 0 1 0
vn 0 1 0
vn 0 1 0
vn 0 1 0
vn 0 1 0
vn 0 1 0
vn 0 1 0
vn 0 1 0
vn 0 1 0
vn 0 1 0
vn 0 1 0
vn 0 1 0
vn 0 1 0
vn 0 1 0
vn 0 1 0
vn 0 1 0
vn 0 1 0
vn 0 1 0
vn 0 1 0
vn 0 1 0
vn 0 1 0
vn 0 1 0
vn 0 1 0
vn 0 1 0
vn 0 1 0
vn 0 1 0
vn 0 1 0
vn 0 1 0
vn 0 1 0
vn 0 1 0
vn 0 1 0
vn 0 1 0
vn 0 1 0
g submesh_0
usemtl submesh_0
f 1/1/1 2/2/2 3/3/3
f 1/1/1 4/4/4 2/2/2
f 5/5/5 4/4/4 1/1/1
f 2/2/2 4/4/4 6/6/6
f 2/2/2 6/6/6 7/7/7
f 5/5/5 8/8/8 4/4/4
f 6/6/6 4/4/4 8/8/8
f 9/9/9 8/8/8 5/5/5
f 7/7/7 6/6/6 10/10/10
f 7/7/7 10/10/10 11/11/11
f 9/9/9 12/12/12 8/8/8
f 13/13/13 12/12/12 9/9/9
f 6/6/6 8/8/8 14/14/14
f 10/10/10 6/6/6 14/14/14
f 11/11/11 10/10/10 15/15/15
f 11/11/11 15/15/15 16/16/16
f 13/13/13 17/17/17 12/12/12
f 18/18/18 17/17/17 13/13/13
f 8/8/8 12/12/12 19/19/19
f 8/8/8 19/19/19 14/14/14
f 19/19/19 12/12/12 17/17/17
f 14/14/14 19/19/19 20/20/20
f 10/10/10 14/14/14 21/21/21
f 15/15/15 10/10/10 21/21/21
f 14/14/14 20/20/20 21/21/21
f 16/16/16 15/15/15 22/22/22
f 16/16/16 22/22/22 23/23/23
f 15/15/15 21/21/21 24/24/24
f 20/20/20 24/24/24 21/21/21
f 22/22/22 15/15/15 24/24/24
f 23/23/23 22/22/22 25/25/25
f 23/23/23 25/25/25 26/26/26
f 22/22/22 24/24/24 27/27/27
f 25/25/25 22/22/22 27/27/27
f 26/26/26 25/25/25 28/28/28
f 26/26/26 28/28/28 29/29/29
f 19/19/19 17/17/17 30/30/30
f 20/20/20 19/19/19 30/30/30
f 20/20/20 31/31/31 24/24/24
f 31/31/31 27/27/27 24/24/24
f 25/25/25 27/27/27 32/32/32
f 28/28/28 25/25/25 32/32/32
f 29/29/29 28/28/28 33/33/33
f 29/29/29 33/33/33 34/34/34
f 31/31/31 35/35/35 27/27/27
f 32/32/32 27/27/27 35/35/35
f 28/28/28 32/32/32 36/36/36
f 33/33/33 28/28/28 36/36/36
f 34/34/34 33/33/33 37/37/37
f 34/34/34 37/37/37 38/38/38
f 32/32/32 35/35/35 39/39/39
f 39/39/39 36/36/36 32/32/32
f 40/40/40 35/35/35 31/31/31
f 39/39/39 35/35/35 40/40/40
f 41/41/41 31/31/31 20/20/20
f 40/40/40 31/31/31 41/41/41
f 33/33/33 36/36/36 42/42/42
f 37/37/37 33/33/33 42/42/42
f 38/38/38 37/37/37 43/43/43
f 38/38/38 43/43/43 44/44/44
f 39/39/39 45/45/45 36/36/36
f 45/45/45 42/42/42 36/36/36
f 37/37/37 42/42/42 46/46/46
f 43/43/43 37/37/37 46/46/46
f 44/44/44 43/43/43 47/47/47
f 44/44/44 47/47/47 48/48/48
f 47/47/47 43/43/43 49/49/49
f 43/43/43 46/46/46 49/49/49
f 47/47/47 49/49/49 50/50/50
f 46/46/46 42/42/42 51/51/51
f 45/45/45 51/51/51 42/42/42
f 52/52/52 51/51/51 45/45/45
f 46/46/46 51/51/51 53/53/53
f 53/53/53 49/49/49 46/46/46
f 53/53/53 51/51/51 52/52/52
f 54/54/54 50/50/50 49/49/49
f 53/53/53 54/54/54 49/49/49
f 54/54/54 55/55/55 50/50/50
f 56/56/56 55/55/55 54/54/54
f 57/57/57 54/54/54 53/53/53
f 56/56/56 54/54/54 57/57/57
f 52/52/52 45/45/45 58/58/58
f 58/58/58 45/45/45 39/39/39
f 53/53/53 52/52/52 59/59/59
f 57/57/57 53/53/53 59/59/59
f 60/60/60 56/56/56 57/57/57
f 60/60/60 61/61/61 56/56/56
f 62/62/62 61/61/61 60/60/60
f 63/63/63 57/57/57 59/59/59
f 52/52/52 63/63/63 59/59/59
f 63/63/63 60/60/60 57/57/57
f 62/62/62 60/60/60 64/64/64
f 65/65/65 62/62/62 64/64/64
f 66/66/66 64/64/64 60/60/60
f 66/66/66 60/60/60 63/63/63
f 65/65/65 64/64/64 67/67/67
f 67/67/67 64/64/64 66/66/66
f 67/67/67 68/68/68 65/65/65
f 52/52/52 69/69/69 63/63/63
f 63/63/63 70/70/70 66/66/66
f 63/63/63 69/69/69 70/70/70
f 67/67/67 66/66/66 71/71/71
f 71/71/71 66/66/66 70/70/70
f 67/67/67 72/72/72 68/68/68
f 71/71/71 72/72/72 67/67/67
f 73/73/73 69/69/69 52/52/52
f 73/73/73 52/52/52 58/58/58
f 74/74/74 70/70/70 69/69/69
f 74/74/74 69/69/69 73/73/73
f 71/71/71 70/70/70 75/75/75
f 75/75/75 70/70/70 74/74/74
f 68/68/68 72/72/72 76/76/76
f 68/68/68 76/76/76 77/77/77
f 71/71/71 78/78/78 72/72/72
f 75/75/75 78/78/78 71/71/71
f 79/79/79 77/77/77 76/76/76
f 79/79/79 80/80/80 77/77/77
f 81/81/81 80/80/80 79/79/79
f 72/72/72 82/82/82 76/76/76
f 72/72/72 78/78/78 82/82/82
f 83/83/83 79/79/79 76/76/76
f 83/83/83 76/76/76 82/82/82
f 81/81/81 79/79/79 84/84/84
f 84/84/84 79/79/79 83/83/83
f 85/85/85 81/81/81 84/84/84
f 85/85/85 86/86/86 81/81/81
f 87/87/87 86/86/86 85/85/85
f 87/87/87 85/85/85 88/88/88
f 89/89/89 87/87/87 88/88/88
f 89/89/89 88/88/88 90/90/90
f 90/90/90 91/91/91 89/89/89
f 92/92/92 88/88/88 85/85/85
f 90/90/90 88/88/88 92/92/92
f 93/93/93 85/85/85 84/84/84
f 92/92/92 85/85/85 93/93/93
f 84/84/84 83/83/83 94/94/94
f 93/93/93 84/84/84 94/94/94
f 83/83/83 95/95/95 94/94/94
f 95/95/95 93/93/93 94/94/94
f 82/82/82 96/96/96 83/83/83
f 83/83/83 96/96/96 95/95/95
f 82/82/82 97/97/97 96/96/96
f 78/78/78 97/97/97 82/82/82
f 95/95/95 96/96/96 98/98/98
f 98/98/98 96/96/96 97/97/97
f 78/78/78 99/99/99 97/97/97
f 75/75/75 99/99/99 78/78/78
f 98/98/98 97/97/97 100/100/100
f 99/99/99 100/100/100 97/97/97
f 101/101/101 99/99/99 75/75/75
f 75/75/75 74/74/74 101/101/101
f 99/99/99 102/102/102 100/100/100
f 101/101/101 102/102/102 99/99/99
f 101/101/101 74/74/74 103/103/103
f 103/103/103 74/74/74 73/73/73
f 104/104/104 102/102/102 101/101/101
f 101/101/101 103/103/103 104/104/104
f 103/103/103 73/73/73 105/105/105
f 105/105/105 73/73/73 58/58/58
f 105/105/105 58/58/58 106/106/106
f 58/58/58 39/39/39 106/106/106
f 39/39/39 40/40/40 106/106/106
f 40/40/40 105/105/105 106/106/106
f 40/40/40 107/107/107 105/105/105
f 41/41/41 107/107/107 40/40/40
f 105/105/105 108/108/108 103/103/103
f 105/105/105 107/107/107 108/108/108
f 103/103/103 109/109/109 104/104/104
f 103/103/103 108/108/108 109/109/109
f 104/104/104 110/110/110 102/102/102
f 109/109/109 110/110/110 104/104/104
f 107/107/107 111/111/111 108/108/108
f 109/109/109 108/108/108 111/111/111
f 41/41/41 112/112/112 107/107/107
f 107/107/107 112/112/112 111/111/111
f 102/102/102 110/110/110 113/113/113
f 102/102/102 113/113/113 100/100/100
f 114/114/114 112/112/112 41/41/41
f 41/41/41 20/20/20 114/114/114
f 20/20/20 30/30/30 114/114/114
f 114/114/114 115/115/115 112/112/112
f 30/30/30 115/115/115 114/114/114
f 112/112/112 116/116/116 111/111/111
f 112/112/112 115/115/115 116/116/116
f 30/30/30 117/117/117 115/115/115
f 17/17/17 117/117/117 30/30/30
f 118/118/118 100/100/100 113/113/113
f 118/118/118 98/98/98 100/100/100
f 115/115/115 119/119/119 116/116/116
f 115/115/115 117/117/117 119/119/119
f 17/17/17 120/120/120 117/117/117
f 18/18/18 120/120/120 17/17/17
f 121/121/121 120/120/120 18/18/18
f 117/117/117 120/120/120 122/122/122
f 121/121/121 122/122/122 120/120/120
f 117/117/117 122/122/122 119/119/119
f 123/123/123 122/122/122 121/121/121
f 116/116/116 119/119/119 124/124/124
f 124/124/124 119/119/119 122/122/122
f 123/123/123 125/125/125 122/122/122
f 124/124/124 122/122/122 125/125/125
f 126/126/126 125/125/125 123/123/123
f 126/126/126 127/127/127 125/125/125
f 128/128/128 127/127/127 126/126/126
f 125/125/125 127/127/127 129/129/129
f 125/125/125 129/129/129 124/124/124
f 128/128/128 130/130/130 127/127/127
f 129/129/129 127/127/127 130/130/130
f 131/131/131 130/130/130 128/128/128
f 116/116/116 124/124/124 132/132/132
f 111/111/111 116/116/116 132/132/132
f 124/124/124 129/129/129 133/133/133
f 124/124/124 133/133/133 132/132/132
f 111/111/111 132/132/132 134/134/134
f 109/109/109 111/111/111 134/134/134
f 132/132/132 135/135/135 134/134/134
f 132/132/132 133/133/133 135/135/135
f 134/134/134 136/136/136 109/109/109
f 134/134/134 135/135/135 136/136/136
f 109/109/109 136/136/136 110/110/110
f 133/133/133 129/129/129 137/137/137
f 129/129/129 130/130/130 137/137/137
f 131/131/131 138/138/138 130/130/130
f 139/139/139 138/138/138 131/131/131
f 135/135/135 133/133/133 140/140/140
f 133/133/133 137/137/137 140/140/140
f 137/137/137 141/141/141 140/140/140
f 130/130/130 142/142/142 137/137/137
f 130/130/130 138/138/138 142/142/142
f 137/137/137 142/142/142 141/141/141
f 139/139/139 143/143/143 138/138/138
f 142/142/142 138/138/138 143/143/143
f 144/144/144 143/143/143 139/139/139
f 135/135/135 140/140/140 145/145/145
f 136/136/136 135/135/135 145/145/145
f 141/141/141 145/145/145 140/140/140
f 110/110/110 136/136/136 146/146/146
f 136/136/136 145/145/145 146/146/146
f 110/110/110 146/146/146 113/113/113
f 147/147/147 146/146/146 145/145/145
f 141/141/141 147/147/147 145/145/145
f 113/113/113 146/146/146 148/148/148
f 147/147/147 148/148/148 146/146/146
f 113/113/113 148/148/148 118/118/118
f 149/149/149 148/148/148 147/147/147
f 118/118/118 148/148/148 149/149/149
f 144/144/144 150/150/150 143/143/143
f 151/151/151 150/150/150 144/144/144
f 151/151/151 152/152/152 150/150/150
f 153/153/153 152/152/152 151/151/151
f 143/143/143 150/150/150 154/154/154
f 154/154/154 150/150/150 152/152/152
f 155/155/155 147/147/147 141/141/141
f 149/149/149 147/147/147 155/155/155
f 153/153/153 156/156/156 152/152/152
f 157/157/157 156/156/156 153/153/153
f 143/143/143 154/154/154 158/158/158
f 142/142/142 143/143/143 158/158/158
f 141/141/141 142/142/142 158/158/158
f 141/141/141 158/158/158 159/159/159
f 155/155/155 141/141/141 159/159/159
f 158/158/158 154/154/154 160/160/160
f 158/158/158 160/160/160 159/159/159
f 154/154/154 152/152/152 161/161/161
f 160/160/160 154/154/154 161/161/161
f 159/159/159 162/162/162 155/155/155
f 159/159/159 160/160/160 162/162/162
f 163/163/163 161/161/161 152/152/152
f 163/163/163 152/152/152 156/156/156
f 160/160/160 161/161/161 164/164/164
f 162/162/162 160/160/160 164/164/164
f 164/164/164 161/161/161 163/163/163
f 157/157/157 165/165/165 156/156/156
f 166/166/166 165/165/165 157/157/157
f 155/155/155 162/162/162 167/167/167
f 155/155/155 167/167/167 149/149/149
f 162/162/162 164/164/164 168/168/168
f 167/167/167 162/162/162 168/168/168
f 156/156/156 165/165/165 169/169/169
f 156/156/156 169/169/169 163/163/163
f 166/166/166 170/170/170 165/165/165
f 169/169/169 165/165/165 170/170/170
f 171/171/171 170/170/170 166/166/166
f 164/164/164 163/163/163 172/172/172
f 168/168/168 164/164/164 172/172/172
f 163/163/163 169/169/169 173/173/173
f 163/163/163 173/173/173 172/172/172
f 171/171/171 174/174/174 170/170/170
f 175/175/175 174/174/174 171/171/171
f 169/169/169 170/170/170 176/176/176
f 173/173/173 169/169/169 176/176/176
f 175/175/175 177/177/177 174/174/174
f 178/178/178 177/177/177 175/175/175
f 170/170/170 174/174/174 179/179/179
f 170/170/170 179/179/179 176/176/176
f 179/179/179 174/174/174 177/177/177
f 176/176/176 179/179/179 180/180/180
f 173/173/173 176/176/176 181/181/181
f 176/176/176 180/180/180 181/181/181
f 172/172/172 173/173/173 182/182/182
f 182/182/182 173/173/173 181/181/181
f 178/178/178 183/183/183 177/177/177
f 184/184/184 183/183/183 178/178/178
f 179/179/179 177/177/177 185/185/185
f 180/180/180 179/179/179 185/185/185
f 184/184/184 186/186/186 183/183/183
f 187/187/187 186/186/186 184/184/184
f 177/177/177 183/183/183 188/188/188
f 177/177/177 188/188/188 185/185/185
f 188/188/188 183/183/183 186/186/186
f 172/172/172 182/182/182 189/189/189
f 168/168/168 172/172/172 189/189/189
f 182/182/182 181/181/181 190/190/190
f 180/180/180 190/190/190 181/181/181
f 189/189/189 182/182/182 191/191/191
f 191/191/191 182/182/182 190/190/190
f 192/192/192 168/168/168 189/189/189
f 189/189/189 191/191/191 192/192/192
f 187/187/187 193/193/193 186/186/186
f 194/194/194 193/193/193 187/187/187
f 192/192/192 195/195/195 168/168/168
f 167/167/167 168/168/168 195/195/195
f 196/196/196 167/167/167 195/195/195
f 149/149/149 167/167/167 196/196/196
f 194/194/194 197/197/197 193/193/193
f 198/198/198 197/197/197 194/194/194
f 198/198/198 199/199/199 197/197/197
f 200/200/200 199/199/199 198/198/198
f 193/193/193 197/197/197 201/201/201
f 201/201/201 197/197/197 199/199/199
f 202/202/202 186/186/186 193/193/193
f 193/193/193 201/201/201 202/202/202
f 203/203/203 195/195/195 192/192/192
f 196/196/196 195/195/195 203/203/203
f 149/149/149 196/196/196 204/204/204
f 118/118/118 149/149/149 204/204/204
f 205/205/205 118/118/118 204/204/204
f 196/196/196 205/205/205 204/204/204
f 205/205/205 98/98/98 118/118/118
f 95/95/95 98/98/98 205/205/205
f 196/196/196 206/206/206 205/205/205
f 206/206/206 95/95/95 205/205/205
f 203/203/203 206/206/206 196/196/196
f 206/206/206 207/207/207 95/95/95
f 95/95/95 207/207/207 93/93/93
f 208/208/208 207/207/207 206/206/206
f 203/203/203 208/208/208 206/206/206
f 93/93/93 207/207/207 209/209/209
f 208/208/208 209/209/209 207/207/207
f 93/93/93 209/209/209 92/92/92
f 210/210/210 92/92/92 209/209/209
f 90/90/90 92/92/92 210/210/210
f 211/211/211 209/209/209 208/208/208
f 210/210/210 209/209/209 211/211/211
f 212/212/212 208/208/208 203/203/203
f 211/211/211 208/208/208 212/212/212
f 210/210/210 213/213/213 90/90/90
f 90/90/90 213/213/213 91/91/91
f 211/211/211 214/214/214 210/210/210
f 210/210/210 214/214/214 213/213/213
f 91/91/91 213/213/213 215/215/215
f 91/91/91 215/215/215 216/216/216
f 212/212/212 203/203/203 217/217/217
f 203/203/203 192/192/192 217/217/217
f 212/212/212 218/218/218 211/211/211
f 211/211/211 218/218/218 214/214/214
f 213/213/213 214/214/214 219/219/219
f 213/213/213 219/219/219 215/215/215
f 220/220/220 216/216/216 215/215/215
f 220/220/220 221/221/221 216/216/216
f 222/222/222 221/221/221 220/220/220
f 192/192/192 223/223/223 217/217/217
f 192/192/192 191/191/191 223/223/223
f 217/217/217 224/224/224 212/212/212
f 212/212/212 224/224/224 218/218/218
f 217/217/217 223/223/223 224/224/224
f 214/214/214 218/218/218 225/225/225
f 214/214/214 225/225/225 219/219/219
f 226/226/226 220/220/220 215/215/215
f 226/226/226 215/215/215 219/219/219
f 222/222/222 220/220/220 227/227/227
f 227/227/227 220/220/220 226/226/226
f 223/223/223 191/191/191 228/228/228
f 191/191/191 190/190/190 228/228/228
f 224/224/224 223/223/223 229/229/229
f 223/223/223 228/228/228 229/229/229
f 218/218/218 224/224/224 230/230/230
f 218/218/218 230/230/230 225/225/225
f 224/224/224 229/229/229 230/230/230
f 219/219/219 225/225/225 231/231/231
f 219/219/219 231/231/231 226/226/226
f 226/226/226 231/231/231 232/232/232
f 233/233/233 231/231/231 225/225/225
f 233/233/233 225/225/225 230/230/230
f 232/232/232 231/231/231 233/233/233
f 234/234/234 228/228/228 190/190/190
f 180/180/180 234/234/234 190/190/190
f 229/229/229 228/228/228 235/235/235
f 234/234/234 235/235/235 228/228/228
f 236/236/236 230/230/230 229/229/229
f 236/236/236 233/233/233 230/230/230
f 229/229/229 235/235/235 236/236/236
f 237/237/237 235/235/235 234/234/234
f 236/236/236 235/235/235 237/237/237
f 238/238/238 234/234/234 180/180/180
f 237/237/237 234/234/234 238/238/238
f 239/239/239 233/233/233 236/236/236
f 232/232/232 233/233/233 239/239/239
f 226/226/226 232/232/232 240/240/240
f 227/227/227 226/226/226 240/240/240
f 241/241/241 227/227/227 240/240/240
f 232/232/232 241/241/241 240/240/240
f 238/238/238 180/180/180 242/242/242
f 180/180/180 185/185/185 242/242/242
f 185/185/185 243/243/243 242/242/242
f 185/185/185 188/188/188 243/243/243
f 242/242/242 244/244/244 238/238/238
f 242/242/242 243/243/243 244/244/244
f 243/243/243 188/188/188 245/245/245
f 188/188/188 186/186/186 245/245/245
f 202/202/202 245/245/245 186/186/186
f 243/243/243 245/245/245 246/246/246
f 244/244/244 243/243/243 246/246/246
f 246/246/246 245/245/245 202/202/202
f 238/238/238 244/244/244 247/247/247
f 238/238/238 247/247/247 237/237/237
f 244/244/244 246/246/246 248/248/248
f 247/247/247 244/244/244 248/248/248
f 246/246/246 202/202/202 249/249/249
f 248/248/248 246/246/246 249/249/249
f 202/202/202 250/250/250 249/249/249
f 202/202/202 201/201/201 250/250/250
f 250/250/250 201/201/201 251/251/251
f 201/201/201 199/199/199 251/251/251
f 237/237/237 247/247/247 252/252/252
f 247/247/247 248/248/248 253/253/253
f 252/252/252 247/247/247 253/253/253
f 237/237/237 252/252/252 254/254/254
f 236/236/236 237/237/237 254/254/254
f 239/239/239 236/236/236 254/254/254
f 252/252/252 239/239/239 254/254/254
f 252/252/252 255/255/255 239/239/239
f 255/255/255 232/232/232 239/239/239
f 252/252/252 253/253/253 256/256/256
f 256/256/256 255/255/255 252/252/252
f 257/257/257 253/253/253 248/248/248
f 256/256/256 253/253/253 257/257/257
f 255/255/255 258/258/258 232/232/232
f 232/232/232 258/258/258 241/241/241
f 259/259/259 258/258/258 255/255/255
f 256/256/256 259/259/259 255/255/255
f 257/257/257 248/248/248 260/260/260
f 248/248/248 249/249/249 260/260/260
f 249/249/249 261/261/261 260/260/260
f 249/249/249 250/250/250 261/261/261
f 241/241/241 258/258/258 262/262/262
f 259/259/259 262/262/262 258/258/258
f 260/260/260 263/263/263 257/257/257
f 260/260/260 261/261/261 263/263/263
f 261/261/261 250/250/250 264/264/264
f 250/250/250 251/251/251 264/264/264
f 251/251/251 265/265/265 264/264/264
f 261/261/261 264/264/264 266/266/266
f 263/263/263 261/261/261 266/266/266
f 265/265/265 266/266/266 264/264/264
f 251/251/251 267/267/267 265/265/265
f 199/199/199 267/267/267 251/251/251
f 199/199/199 268/268/268 267/267/267
f 200/200/200 268/268/268 199/199/199
f 269/269/269 268/268/268 200/200/200
f 269/269/269 270/270/270 268/268/268
f 267/267/267 268/268/268 270/270/270
f 271/271/271 270/270/270 269/269/269
f 265/265/265 267/267/267 272/272/272
f 267/267/267 270/270/270 272/272/272
f 271/271/271 273/273/273 270/270/270
f 274/274/274 273/273/273 271/271/271
f 270/270/270 273/273/273 275/275/275
f 270/270/270 275/275/275 272/272/272
f 274/274/274 276/276/276 273/273/273
f 275/275/275 273/273/273 276/276/276
f 277/277/277 276/276/276 274/274/274
f 277/277/277 278/278/278 276/276/276
f 279/279/279 276/276/276 278/278/278
f 275/275/275 276/276/276 280/280/280
f 279/279/279 280/280/280 276/276/276
f 272/272/272 275/275/275 281/281/281
f 281/281/281 275/275/275 280/280/280
f 282/282/282 280/280/280 279/279/279
f 281/281/281 280/280/280 282/282/282
f 282/282/282 279/279/279 283/283/283
f 272/272/272 281/281/281 284/284/284
f 265/265/265 272/272/272 284/284/284
f 285/285/285 282/282/282 283/283/283
f 285/285/285 283/283/283 286/286/286
f 287/287/287 285/285/285 286/286/286
f 288/288/288 281/281/281 282/282/282
f 284/284/284 281/281/281 288/288/288
f 288/288/288 282/282/282 285/285/285
f 289/289/289 265/265/265 284/284/284
f 284/284/284 288/288/288 289/289/289
f 290/290/290 288/288/288 285/285/285
f 289/289/289 288/288/288 290/290/290
f 287/287/287 291/291/291 285/285/285
f 290/290/290 285/285/285 291/291/291
f 289/289/289 292/292/292 265/265/265
f 265/265/265 292/292/292 266/266/266
f 293/293/293 291/291/291 287/287/287
f 293/293/293 287/287/287 294/294/294
f 295/295/295 293/293/293 294/294/294
f 289/289/289 290/290/290 296/296/296
f 296/296/296 292/292/292 289/289/289
f 297/297/297 290/290/290 291/291/291
f 297/297/297 291/291/291 293/293/293
f 296/296/296 290/290/290 297/297/297
f 292/292/292 298/298/298 266/266/266
f 263/263/263 266/266/266 298/298/298
f 295/295/295 299/299/299 293/293/293
f 300/300/300 299/299/299 295/295/295
f 296/296/296 301/301/301 292/292/292
f 292/292/292 301/301/301 298/298/298
f 302/302/302 263/263/263 298/298/298
f 257/257/257 263/263/263 302/302/302
f 303/303/303 298/298/298 301/301/301
f 302/302/302 298/298/298 303/303/303
f 304/304/304 301/301/301 296/296/296
f 303/303/303 301/301/301 304/304/304
f 257/257/257 302/302/302 305/305/305
f 256/256/256 257/257/257 305/305/305
f 306/306/306 302/302/302 303/303/303
f 305/305/305 302/302/302 306/306/306
f 307/307/307 256/256/256 305/305/305
f 305/305/305 306/306/306 307/307/307
f 307/307/307 259/259/259 256/256/256
f 306/306/306 303/303/303 308/308/308
f 304/304/304 308/308/308 303/303/303
f 307/307/307 306/306/306 309/309/309
f 309/309/309 306/306/306 308/308/308
f 310/310/310 259/259/259 307/307/307
f 307/307/307 309/309/309 310/310/310
f 310/310/310 262/262/262 259/259/259
f 304/304/304 296/296/296 311/311/311
f 296/296/296 297/297/297 311/311/311
f 312/312/312 304/304/304 311/311/311
f 297/297/297 312/312/312 311/311/311
f 304/304/304 313/313/313 308/308/308
f 312/312/312 313/313/313 304/304/304
f 314/314/314 313/313/313 312/312/312
f 297/297/297 315/315/315 312/312/312
f 315/315/315 314/314/314 312/312/312
f 293/293/293 315/315/315 297/297/297
f 293/293/293 299/299/299 315/315/315
f 309/309/309 308/308/308 316/316/316
f 313/313/313 316/316/316 308/308/308
f 310/310/310 309/309/309 317/317/317
f 317/317/317 309/309/309 316/316/316
f 299/299/299 318/318/318 315/315/315
f 315/315/315 318/318/318 314/314/314
f 313/313/313 319/319/319 316/316/316
f 314/314/314 319/319/319 313/313/313
f 299/299/299 320/320/320 318/318/318
f 300/300/300 320/320/320 299/299/299
f 321/321/321 320/320/320 300/300/300
f 322/322/322 316/316/316 319/319/319
f 317/317/317 316/316/316 322/322/322
f 310/310/310 317/317/317 323/323/323
f 323/323/323 262/262/262 310/310/310
f 324/324/324 318/318/318 320/320/320
f 314/314/314 318/318/318 324/324/324
f 321/321/321 325/325/325 320/320/320
f 324/324/324 320/320/320 325/325/325
f 326/326/326 325/325/325 321/321/321
f 327/327/327 319/319/319 314/314/314
f 322/322/322 319/319/319 327/327/327
f 328/328/328 317/317/317 322/322/322
f 323/323/323 317/317/317 328/328/328
f 323/323/323 329/329/329 262/262/262
f 241/241/241 262/262/262 329/329/329
f 326/326/326 330/330/330 325/325/325
f 331/331/331 330/330/330 326/326/326
f 331/331/331 332/332/332 330/330/330
f 325/325/325 330/330/330 333/333/333
f 332/332/332 333/333/333 330/330/330
f 332/332/332 334/334/334 333/333/333
f 325/325/325 333/333/333 324/324/324
f 333/333/333 334/334/334 335/335/335
f 324/324/324 333/333/333 336/336/336
f 333/333/333 335/335/335 336/336/336
f 323/323/323 328/328/328 337/337/337
f 337/337/337 329/329/329 323/323/323
f 329/329/329 338/338/338 241/241/241
f 241/241/241 338/338/338 227/227/227
f 338/338/338 222/222/222 227/227/227
f 338/338/338 339/339/339 222/222/222
f 340/340/340 339/339/339 338/338/338
f 329/329/329 341/341/341 338/338/338
f 340/340/340 338/338/338 341/341/341
f 337/337/337 341/341/341 329/329/329
f 342/342/342 340/340/340 341/341/341
f 342/342/342 341/341/341 337/337/337
f 337/337/337 343/343/343 342/342/342
f 337/337/337 328/328/328 343/343/343
f 343/343/343 328/328/328 344/344/344
f 328/328/328 322/322/322 344/344/344
f 343/343/343 344/344/344 345/345/345
f 327/327/327 344/344/344 322/322/322
f 346/346/346 345/345/345 344/344/344
f 327/327/327 346/346/346 344/344/344
f 346/346/346 347/347/347 345/345/345
f 335/335/335 347/347/347 346/346/346
f 335/335/335 346/346/346 336/336/336
f 336/336/336 346/346/346 327/327/327
f 336/336/336 327/327/327 348/348/348
f 324/324/324 336/336/336 348/348/348
f 327/327/327 314/314/314 348/348/348
f 314/314/314 324/324/324 348/348/348
