o plane_07
v 1.97812796 -0.179800794 -7.1098503e-17
v 1.97812796 0.179800794 7.1098503e-17
v 0 0.179800794 7.1098503e-17
v 0 -0.179800794 -7.1098503e-17
v -1.97812796 -0.179800794 -7.1098503e-17
v 0 -0.179800794 -7.1098503e-17
v 0 0.179800794 7.1098503e-17
v -1.97812796 0.179800794 7.1098503e-17
v -0.179800794 -1.97812796 3.28210338e-16
v 0.179800794 -1.97812796 5.50254943e-16
v 0.179800794 0 -3.28210338e-16
v -0.179800794 0 -5.50254943e-16
v -0.179800794 1.97812796 3.28210338e-16
v -0.179800794 0 -5.50254943e-16
v 0.179800794 0 -3.28210338e-16
v 0.179800794 1.97812796 5.50254943e-16
vt 3.95476818e-05 3.95476818e-05
vt 3.95476818e-05 0.999960423
vt 0.999960423 0.999960423
vt 0.999960423 3.95476818e-05
vt 3.95476818e-05 3.95476818e-05
vt 0.999960423 3.95476818e-05
vt 0.999960423 0.999960423
vt 3.95476818e-05 0.999960423
vt 3.95476818e-05 3.95476818e-05
vt 3.95476818e-05 0.999960423
vt 0.999960423 0.999960423
vt 0.999960423 3.95476818e-05
vt 3.95476818e-05 3.95476818e-05
vt 0.999960423 3.95476818e-05
vt 0.999960423 0.999960423
vt 3.95476818e-05 0.999960423
vn 0 0 1
vn 0 0 1
vn 0 0 1
vn 0 0 1
vn 0 0 1
vn 0 0 1
vn 0 0 1
vn 0 0 1
vn 0 0 1
vn 0 0 1
vn 0 0 1
vn 0 0 1
vn 0 0 1
vn 0 0 1
vn 0 0 1
vn 0 0 1
g submesh_0
usemtl submesh_0
f 1/1/1 2/2/2 3/3/3
f 1/1/1 3/3/3 4/4/4
f 5/5/5 6/6/6 7/7/7
f 5/5/5 7/7/7 8/8/8
f 9/9/9 10/10/10 11/11/11
f 9/9/9 11/11/11 12/12/12
f 13/13/13 14/14/14 15/15/15
f 13/13/13 15/15/15 16/16/16
