o Ifritdefault_twist_00
v -0.0659488514 2.80442595 -1.89669609
v -0.527253032 2.66013622 -1.73272753
v -0.554999769 2.80442595 -1.81667662
v -0.073824279 2.66013622 -1.83428311
v 0.427414715 2.80442595 -1.84908688
v -0.0929029658 2.51488781 -1.75946546
v -0.510504603 2.51488781 -1.63722646
v 0.390596628 2.66013622 -1.8166033
v 0.892140269 2.80442595 -1.67702854
v -0.123444408 2.36878729 -1.67168915
v -0.505046844 2.36878729 -1.52977073
v 0.342159271 2.51488781 -1.77094305
v 0.834992111 2.66013622 -1.68086886
v 1.29453385 2.80442595 -1.38779962
v -0.165548533 2.22197127 -1.57049215
v -0.511020899 2.22197127 -1.41007221
v -0.219244942 2.07421803 -1.45523429
v -0.528411448 2.07421803 -1.27764618
v 0.209522635 2.22197127 -1.63732493
v 0.765625238 2.51488781 -1.6708926
v 1.22742522 2.66013622 -1.4320569
v 1.60972965 2.80442595 -1.00527394
v 0.281836063 2.36878729 -1.71139717
v 0.683726788 2.36878729 -1.64624286
v 1.14735019 2.51488781 -1.46203959
v 1.54331887 2.66013622 -1.0911603
v 1.81667662 2.80442595 -0.554999769
v 0.589142382 2.22197127 -1.606107
v 1.05391192 2.36878729 -1.47676075
v 1.46310151 2.51488781 -1.16252005
v 1.76157522 2.66013622 -0.680946469
v 1.89669609 2.80442595 -0.0659488514
v 0.125106126 2.07421803 -1.54794753
v 0.94686228 2.22197127 -1.47525513
v 1.69179082 2.51488781 -0.792338014
v 1.86313081 2.66013622 -0.227517754
v 1.84908688 2.80442595 0.427414715
v 1.81402981 2.51488781 -0.374736369
v 1.845451 2.66013622 0.236903161
v 1.67702854 2.80442595 0.892140269
v 1.8255074 2.51488781 0.0603258535
v 1.74859345 2.36878729 -0.506408811
v 1.60667491 2.36878729 -0.888011217
v 1.70971656 2.66013622 0.681298614
v 1.38779962 2.80442595 1.29453385
v 1.72545695 2.51488781 0.483791828
v 1.4609046 2.66013622 1.07373178
v 1.00527394 2.80442595 1.60972965
v 1.36856639 2.36878729 -1.21826196
v 1.25933552 2.22197127 -1.25729775
v 1.50569284 2.22197127 -0.96679157
v 0.825830758 2.07421803 -1.45655382
v 1.51660407 2.51488781 0.865516841
v 1.12000799 2.66013622 1.38962543
v 0.554999769 2.80442595 1.81667662
v 1.21708441 2.51488781 1.1812681
v 1.55366492 2.36878729 0.670947611
v 0.709794223 2.66013622 1.60788178
v 0.0659488514 2.80442595 1.89669609
v 1.13488197 2.07421803 -1.27861905
v 1.72314703 2.36878729 0.300762415
v 0.84690243 2.51488781 1.40995741
v 0.256365448 2.66013622 1.70943725
v -0.427414715 2.80442595 1.84908688
v 1.78830147 2.36878729 -0.101128325
v 0.429300755 2.51488781 1.5321964
v -0.208055452 2.66013622 1.69175744
v -0.892140269 2.80442595 1.67702854
v -0.00576147856 2.51488781 1.54367399
v 0.583312988 2.36878729 1.36562908
v 0.964915395 2.36878729 1.22371054
v -0.652450919 2.66013622 1.55602312
v -1.29453385 2.80442595 1.38779962
v -0.429227442 2.51488781 1.44362354
v -1.04488409 2.66013622 1.30721116
v -1.60972965 2.80442595 1.00527394
v 1.29516625 2.36878729 0.985601962
v -0.810952425 2.51488781 1.23477066
v -1.36077774 2.66013622 0.966314495
v -1.81667662 2.80442595 0.554999769
v -1.12670374 2.51488781 0.935250998
v -0.594043374 2.36878729 1.17070055
v -0.223858178 2.36878729 1.34018266
v -1.57903409 2.66013622 0.556100726
v -1.89669609 2.80442595 0.0659488514
v -1.35539305 2.51488781 0.56506902
v -1.68058956 2.66013622 0.102671988
v -1.84908688 2.80442595 -0.427414715
v 0.178032547 2.36878729 1.4053371
v -1.47763205 2.51488781 0.147467345
v -1.66290975 2.66013622 -0.361748934
v -1.67702854 2.80442595 -0.892140269
v -1.48910964 2.51488781 -0.287594885
v -1.28872478 2.36878729 0.200348631
v -1.14680636 2.36878729 0.581951022
v -1.52717543 2.66013622 -0.806144416
v -1.38779962 2.80442595 -1.29453385
v -1.38905919 2.51488781 -0.711060822
v -1.27836347 2.66013622 -1.19857752
v -1.00527394 2.80442595 -1.60972965
v -0.908697784 2.36878729 0.912201822
v -1.18020618 2.51488781 -1.09278584
v -1.26327848 2.36878729 -0.60682255
v -1.09379637 2.36878729 -0.977007747
v -1.15033638 2.22197127 -0.49352181
v -1.3284328 2.36878729 -0.204931825
v -0.880686641 2.51488781 -1.40853715
v -1.18155432 2.22197127 -0.113902055
v -1.11472154 2.22197127 0.261169106
v -0.954301596 2.22197127 0.606641471
v -0.955972373 2.07421803 0.32975468
v -0.937466741 2.66013622 -1.51447117
v -0.527253032 2.66013622 -1.73272753
v -0.554999769 2.80442595 -1.81667662
v -0.510504603 2.51488781 -1.63722646
v -0.505046844 2.36878729 -1.52977073
v -0.835297585 2.36878729 -1.2916621
v -0.511020899 2.22197127 -1.41007221
v -0.801527023 2.22197127 -1.163715
v -0.528411448 2.07421803 -1.27764618
v -1.01948452 2.22197127 -0.851241708
v -0.779357195 2.07421803 -1.02437222
v -0.55704391 1.92521 -1.13198602
v -0.957291961 2.07421803 -0.715321064
v -0.768599093 1.92521 -0.873324931
v -0.596394122 1.77488899 -0.972998023
v -0.907066405 1.92521 -0.569131553
v -0.768799365 1.77488899 -0.710733771
v -0.645357192 1.62338769 -0.801142693
v -0.778989017 1.62338769 -0.537363589
v -0.702205539 1.47044027 -0.616945744
v -0.797494471 1.47044027 -0.354095489
v -0.764121115 1.31592882 -0.421822131
v -0.821615696 1.31592882 -0.162775114
v -0.826722085 1.15987444 -0.218466267
v -0.822461605 1.47044027 -0.0755657181
v -0.840796351 1.62338769 -0.248136237
v -0.775439322 1.47044027 0.200041175
v -0.868487656 1.77488899 -0.413061798
v -0.963197887 1.92521 -0.239722326
v -0.888801157 1.77488899 -0.0998630449
v -1.05033195 2.07421803 -0.371133566
v -0.929888964 1.92521 0.0927708372
v -1.04868567 2.07421803 -0.0145963905
v -0.826651156 1.62338769 0.0472225361
v -0.825261235 1.77488899 0.207494691
v -0.812702894 1.92521 0.405779213
v -0.734623134 1.62338769 0.328234524
v -0.619466364 1.92521 0.678397655
v -0.68526566 1.77488899 0.488470852
v -0.573812902 1.62338769 0.576453507
v -0.65695554 1.47044027 0.453283846
v -0.778384268 2.07421803 0.638921201
v -0.525110304 2.07421803 0.889866889
v -0.478164494 1.77488899 0.724299669
v -0.707944274 2.22197127 0.897147596
v -0.395471007 2.22197127 1.11510503
v -0.216059178 2.07421803 1.06780171
v -0.0377511419 2.22197127 1.2459569
v -0.360805243 1.92521 0.889952838
v -0.0566118509 1.92521 1.02842021
v -0.215900227 1.77488899 0.896704853
v -0.354960531 1.62338769 0.775301576
v 0.341868609 2.22197127 1.27717483
v -0.477659672 1.47044027 0.667888582
v 0.716939747 2.22197127 1.21034205
v 1.06241214 2.22197127 1.04992211
v 0.829016566 2.07421803 1.06648207
v 0.484665483 2.07421803 1.15919542
v 1.35291827 2.22197127 0.803564847
v 0.128128305 2.07421803 1.1608417
v 0.272797376 1.92521 1.08455169
v 0.605290532 1.92521 1.05124271
v 0.0817717239 1.77488899 0.996393144
v 0.394970477 1.77488899 1.01670671
v 0.198045954 1.62338769 0.970740676
v 1.57087576 2.22197127 0.491091579
v 1.70172763 2.22197127 0.133371726
v 1.56706357 2.07421803 0.326568902
v -0.0911814198 1.62338769 0.908933401
v -0.249526396 1.47044027 0.829522312
v 1.73294556 2.22197127 -0.246248037
v 1.3891288 2.07421803 0.635620058
v 0.0133238733 1.47044027 0.924811244
v -0.395465434 1.31592882 0.759891808
v 1.66611278 2.22197127 -0.621319175
v 1.56574404 2.07421803 -0.718506813
v 1.138183 2.07421803 0.888894022
v 0.9182989 1.92521 0.934056699
v 1.19091737 1.92521 0.74082011
v 0.983304381 1.77488899 0.813171148
v 1.65845728 2.07421803 -0.37415573
v 1.38815594 2.07421803 -1.02767336
v 0.702328205 1.77488899 0.953166723
v 1.66010356 2.07421803 -0.0176185742
v 1.59707129 1.92521 -0.151443616
v 1.56376243 1.92521 -0.483936757
v 1.44657636 1.92521 -0.796945155
v 1.25333989 1.92521 -1.06956363
v 1.54093993 1.92521 0.177965626
v 1.30800462 1.77488899 -0.855398893
v 1.40247262 1.92521 0.482159019
v 1.21913314 1.77488899 0.606069982
v 1.39153838 1.77488899 0.34380573
v 1.49122667 1.77488899 0.0461337529
v 1.51154017 1.77488899 -0.267064989
v 1.0226357 1.62338769 0.703757226
v 1.44800019 1.77488899 -0.574422717
v 1.22148371 1.62338769 0.484904885
v 1.41692293 1.62338769 -0.0681016073
v 0.774416685 1.62338769 0.864567518
v 1.35511553 1.62338769 0.221125767
v 0.493404716 1.62338769 0.95659548
v 0.291853637 1.47044027 0.949778318
v 0.567460537 1.47044027 0.902756095
v 0.820703208 1.47044027 0.784272313
v 1.03530788 1.47044027 0.604976416
v 1.19694161 1.47044027 0.376843154
v 1.02074575 1.31592882 0.51542151
v 0.84072727 1.31592882 0.710442185
v 0.616898596 1.31592882 0.852961302
v 0.363271654 1.31592882 0.930963635
v 1.29223061 1.47044027 0.113992892
v 0.0980788618 1.31592882 0.941571712
v -0.160968155 1.31592882 0.884077191
v 0.834928334 1.15987444 0.640175164
v 0.642386496 1.15987444 0.803827167
v 0.413315505 1.15987444 0.910508215
v 0.164538831 1.15987444 0.955124497
v -0.0873282775 1.15987444 0.934696257
v 0.979291499 1.15987444 0.432714999
v 0.444492459 1.00307167 0.883068144
v 0.215602979 1.00307167 0.959629118
v 0.646179497 1.00307167 0.750589728
v -0.0252019092 1.00307167 0.975159407
v 0.805472672 1.00307167 0.569333375
v 0.461822748 0.846607625 0.841525614
v 0.633133352 0.846607625 0.686724842
v 1.06583428 1.15987444 0.195302486
v 0.913185179 1.00307167 0.353347301
v 1.1449312 1.31592882 0.280924201
v 1.20242572 1.31592882 0.0218771994
v 0.827437997 0.846607625 0.272006214
v 0.962123036 1.00307167 0.117056645
v 0.757215023 0.846607625 0.492008775
v 1.08626246 1.15987444 -0.0565646216
v 1.19181764 1.31592882 -0.243315592
v 1.04164624 1.15987444 -0.305341274
v 0.946592808 1.00307167 -0.12374825
v 0.839112222 0.846607625 0.0414106399
v 1.31719768 1.47044027 -0.164536878
v 1.40277767 1.62338769 -0.363460362
v 1.31074965 1.62338769 -0.644472361
v 1.27017546 1.47044027 -0.440143764
v 1.11381531 1.31592882 -0.49694252
v 0.934965134 1.15987444 -0.534412265
v 1.14993942 1.62338769 -0.892691374
v 1.15169168 1.47044027 -0.693386436
v 0.971296191 1.31592882 -0.720771194
v 0.870031774 1.00307167 -0.352637708
v 0.77131319 1.15987444 -0.726954162
v 0.737553358 1.00307167 -0.554324746
v 0.68325603 0.846607625 -0.389233857
v 1.10090351 1.77488899 -1.09122765
v 0.789166212 0.846607625 -0.184013411
v 0.994678736 1.92521 -1.28111875
v 0.690485358 1.92521 -1.41958606
v 0.838639259 1.77488899 -1.26363289
v 0.931087077 1.62338769 -1.09153938
v 0.972395778 1.47044027 -0.907991171
v 0.776275456 1.31592882 -0.900789738
v 0.744262516 1.47044027 -1.0696249
v 0.667307973 1.62338769 -1.22517121
v 0.563853025 1.15987444 -0.871317327
v 0.556297064 1.00307167 -0.71361798
v 0.528455257 0.846607625 -0.560544491
v 0.317070991 0.691284776 -0.559404194
v 0.333739191 0.846607625 -0.684626162
v 0.490255862 0.691284776 -0.421596199
v 0.378080577 1.62338769 -1.28697848
v 0.481412262 1.47044027 -1.16491389
v 0.540967286 1.77488899 -1.36332119
v 0.361076087 1.92521 -1.47571754
v 0.227768525 1.77488899 -1.38363469
v 0.481643289 2.07421803 -1.54959381
v 0.0285829399 1.92521 -1.44240868
v -0.284425437 1.92521 -1.32522261
v -0.55704391 1.92521 -1.13198602
v -0.360565364 1.77488899 -1.18009913
v -0.596394122 1.77488899 -0.972998023
v -0.0795892105 1.77488899 -1.3200947
v -0.446509182 1.62338769 -1.01999509
v -0.645357192 1.62338769 -0.801142693
v -0.198290169 1.62338769 -1.18080533
v -0.540571809 1.47044027 -0.845079064
v -0.702205539 1.47044027 -0.616945744
v -0.325967103 1.47044027 -1.02437496
v -0.639935791 1.31592882 -0.656319439
v -0.764121115 1.31592882 -0.421822131
v 0.0827218071 1.62338769 -1.27283335
v -0.0727244094 1.47044027 -1.14285862
v 0.202882484 1.47044027 -1.18988097
v -0.459917217 1.31592882 -0.851340115
v -0.7401793 1.15987444 -0.455878794
v -0.826722085 1.15987444 -0.218466267
v -0.236088529 1.31592882 -0.993859231
v 0.0175383911 1.31592882 -1.07186151
v -0.595816135 1.15987444 -0.663338959
v -0.834366798 1.00307167 -0.24845621
v -0.883304656 1.00307167 -0.0121655585
v -0.403274268 1.15987444 -0.826990962
v 0.282731175 1.31592882 -1.0824697
v -0.91311872 0.846607625 -0.0411477461
v -0.924792945 0.846607625 0.189447835
v -0.726654291 1.00307167 -0.464442313
v -0.567361057 1.00307167 -0.645698607
v -0.174203292 1.15987444 -0.933671951
v 0.541778207 1.31592882 -1.02497506
v 0.326440483 1.15987444 -0.957860053
v -0.965047717 0.691284776 0.157205433
v -0.940032482 0.691284776 0.3771106
v -0.842895746 0.846607625 -0.261150301
v -0.933035612 0.691284776 -0.0618363097
v -0.977299333 0.540158451 0.333435565
v -0.916919708 0.540158451 0.537693918
v 0.0745733753 1.15987444 -0.978288293
v 0.340310931 1.00307167 -0.821330428
v 0.10402029 1.00307167 -0.870268285
v 0.113736629 0.846607625 -0.754849136
v -0.136784598 1.00307167 -0.854738057
v -0.94073087 0.397550583 0.47416839
v -0.84731853 0.397550583 0.658658504
v -0.849673748 0.261536747 0.575034499
v -0.725087106 0.261536747 0.736080289
v -0.983910024 0.397550583 0.271892607
v 0.113521993 0.691284776 -0.646305561
v -0.116858952 0.846607625 -0.766523361
v -0.365674078 1.00307167 -0.778177023
v -0.547503471 0.846607625 -0.610667169
v -0.983483493 0.540158451 0.12048611
v -0.973972082 0.397550583 0.0653406903
v -0.846134245 0.691284776 -0.2653853
v -0.718814075 0.846607625 -0.455866367
v -0.935059309 0.540158451 -0.086931996
v -0.708326221 0.691284776 -0.438570172
v -0.34228301 0.846607625 -0.716577291
v -0.833321631 0.540158451 -0.274059296
v -0.530804336 0.691284776 -0.570820093
v -0.32542491 0.691284776 -0.653302431
v -0.687116563 0.540158451 -0.429010183
v -0.909570336 0.397550583 -0.131165996
v -0.105519749 0.691284776 -0.678317666
v -0.301950365 0.540158451 -0.601815462
v -0.506208718 0.540158451 -0.541435838
v -0.643990576 0.397550583 -0.443755925
v -0.0890009031 0.540158451 -0.607999682
v -0.797072053 0.397550583 -0.304728836
v -0.459500492 0.397550583 -0.537168205
v -0.855410159 0.261536747 -0.204800874
v -0.733206213 0.261536747 -0.367662013
v -0.572160423 0.261536747 -0.492248654
v -0.931958675 0.261536747 -0.0160819571
v -0.768922091 0.128616601 -0.319383681
v -0.634986818 0.128616601 -0.474110812
v -0.85698843 0.128616601 -0.134658292
v -0.384588063 0.261536747 -0.571565151
v -0.257224709 0.397550583 -0.580347359
v -0.465927213 0.128616601 -0.589501858
v -0.747252703 0.00490750652 -0.306159198
v -0.641997337 0.00490750652 -0.488649905
v -0.800299048 0.00490750652 -0.102277756
v -0.493575603 0.00490750652 -0.638218164
v -0.799488366 0.00490750652 0.108433023
v -0.273034364 0.128616601 -0.657850146
v -0.311900228 0.00490750652 -0.744874716
v -0.894937813 0.128616601 0.0664787218
v -0.744874716 0.00490750652 0.311900228
v -0.183016568 0.261536747 -0.600314081
v -0.0689192116 0.128616601 -0.672552228
v -0.108433023 0.00490750652 -0.799488366
v -0.880235732 0.128616601 0.270593852
v -0.638218164 0.00490750652 0.493575603
v -0.957739174 0.261536747 0.185890645
v -0.928990185 0.261536747 0.387462139
v -0.811887443 0.128616601 0.463486731
v -0.488649905 0.00490750652 0.641997337
v -0.696496427 0.128616601 0.632546365
v -0.541769266 0.128616601 0.766481638
v -0.306159198 0.00490750652 0.747252703
v 0.132217795 0.128616601 -0.634602845
v 0.102277756 0.00490750652 -0.800299048
v 0.0189560317 0.261536747 -0.574533582
v 0.316943169 0.128616601 -0.546536505
v 0.306159198 0.00490750652 -0.747252703
v 0.488649905 0.00490750652 -0.641997337
v -0.0506727956 0.397550583 -0.570409417
v 0.20767495 0.261536747 -0.497985095
v 0.145833895 0.397550583 -0.506007731
v 0.118417203 0.540158451 -0.559575438
v 0.305544496 0.540158451 -0.45783779
v 0.460495383 0.540158451 -0.311632693
v 0.319396704 0.397550583 -0.393509388
v 0.370536089 0.261536747 -0.375781089
v 0.622505784 0.691284776 -0.24407433
v 0.458423823 0.397550583 -0.240427956
v 0.4716703 0.128616601 -0.412601233
v 0.704988122 0.691284776 -0.0386948921
v 0.572921038 0.540158451 -0.130724847
v 0.495122731 0.261536747 -0.214735359
v 0.587061405 0.128616601 -0.243541628
v 0.638218164 0.00490750652 -0.493575603
v 0.730003357 0.691284776 0.181210279
v 0.551836133 0.397550583 -0.0559378564
v 0.633300662 0.540158451 0.0735335127
v 0.697991252 0.691284776 0.400252014
v 0.655409634 0.128616601 -0.0506487638
v 0.744874716 0.00490750652 -0.311900228
v 0.574439228 0.261536747 -0.0271629747
v 0.595015228 0.397550583 0.146337926
v 0.585077345 0.397550583 0.352889836
v 0.639484882 0.540158451 0.28648296
v 0.611089885 0.691284776 0.603801012
v 0.670111716 0.128616601 0.153466374
v 0.799488366 0.00490750652 -0.108433023
v 0.603188157 0.261536747 0.17440851
v 0.632162333 0.128616601 0.35460338
v 0.800299048 0.00490750652 0.102277756
v 0.577407658 0.261536747 0.376381099
v 0.544095993 0.128616601 0.539328754
v 0.747252703 0.00490750652 0.306159198
v 0.641997337 0.00490750652 0.488649905
v 0.500859201 0.261536747 0.565100014
v 0.5206756 0.397550583 0.549396515
v 0.41016075 0.128616601 0.694055915
v 0.378655165 0.261536747 0.727961183
v 0.241101131 0.128616601 0.80944699
v 0.493575603 0.00490750652 0.638218164
v 0.0482082702 0.128616601 0.877795279
v 0.311900228 0.00490750652 0.744874716
v 0.108433023 0.00490750652 0.799488366
v 0.217609435 0.261536747 0.852547824
v 0.408177286 0.397550583 0.72295934
v 0.25509584 0.397550583 0.861986458
v 0.0300370492 0.261536747 0.931864262
v 0.343117893 0.540158451 0.835979283
v -0.155906871 0.128616601 0.892497301
v -0.102277756 0.00490750652 0.800299048
v 0.0706057549 0.397550583 0.955398798
v 0.48932299 0.540158451 0.681028366
v -0.357043892 0.128616601 0.854547918
v -0.306159198 0.00490750652 0.747252703
v -0.541769266 0.128616601 0.766481638
v -0.562225938 0.261536747 0.858284235
v -0.725087106 0.261536747 0.736080289
v 0.591060638 0.540158451 0.493901074
v 0.47328189 0.691284776 0.776985884
v 0.295760006 0.691284776 0.909235835
v 0.256602287 0.846607625 0.947435796
v 0.0903805792 0.691284776 0.991718173
v 0.0311782435 0.846607625 0.997381806
v 0.162210062 0.540158451 0.948404908
v -0.0420483053 0.540158451 1.00878453
v -0.129524589 0.691284776 1.01673341
v -0.199417338 0.846607625 0.985707641
v -0.348566324 0.691284776 0.984721303
v -0.25499776 0.540158451 1.01496875
v -0.552115321 0.691284776 0.897819936
v -0.131670028 0.397550583 0.998577893
v -0.26149255 1.00307167 0.92622155
v -0.419419885 0.846607625 0.915484667
v -0.324740797 1.15987444 0.848153532
v -0.477478653 1.00307167 0.818509042
v -0.590486109 1.31592882 0.579873264
v -0.532200933 1.15987444 0.703790367
v -0.614135921 0.846607625 0.791402936
v -0.733005226 1.31592882 0.35604459
v -0.658734977 1.00307167 0.659215808
v -0.811007559 1.31592882 0.10241767
v -0.695852935 1.15987444 0.511248469
v -0.768936753 0.846607625 0.620092332
v -0.802533984 1.15987444 0.282177508
v -0.791213393 1.00307167 0.4575288
v -0.847150326 1.15987444 0.0334008373
v -0.883304656 1.00307167 -0.0121655585
v -0.867774427 1.00307167 0.228639334
v -0.924792945 0.846607625 0.189447835
v -0.874846876 0.846607625 0.414871901
v -0.940032482 0.691284776 0.3771106
v -0.725300193 0.691284776 0.760011911
v -0.857550144 0.691284776 0.582490027
v -0.916919708 0.540158451 0.537693918
v -0.804494083 0.540158451 0.718601763
v -0.84731853 0.397550583 0.658658504
v -0.649543166 0.540158451 0.86480689
v -0.708291471 0.397550583 0.811739922
v -0.534728646 0.397550583 0.924238265
v -0.462415874 0.540158451 0.966544509
v -0.338221937 0.397550583 0.988639951
v -0.373507053 0.261536747 0.934832752
v -0.171534434 0.261536747 0.960613191
vt 1 0.958307266
vt 0.966594338 1
vt 1 1
vt 0.966594338 0.958307266
vt 1 0.916692734
vt 0.931687534 0.958307266
vt 0.931687534 1
vt 0.966594338 0.916692734
vt 1 0.875
vt 0.895176232 0.958307266
vt 0.895176232 1
vt 0.931687534 0.916692734
vt 0.966594338 0.875
vt 1 0.833307266
vt 0.856954455 0.958307266
vt 0.856954455 1
vt 0.816806257 0.958307266
vt 0.816806257 1
vt 0.856954455 0.916692734
vt 0.931687534 0.875
vt 0.966594338 0.833307266
vt 1 0.791692734
vt 0.895176232 0.916692734
vt 0.895176232 0.875
vt 0.931687534 0.833307266
vt 0.966594338 0.791692734
vt 1 0.75
vt 0.856954455 0.875
vt 0.895176232 0.833307266
vt 0.931687534 0.791692734
vt 0.966594338 0.75
vt 1 0.708307266
vt 0.816806257 0.916692734
vt 0.856954455 0.833307266
vt 0.931687534 0.75
vt 0.966594338 0.708307266
vt 1 0.666692734
vt 0.931687534 0.708307266
vt 0.966594338 0.666692734
vt 1 0.625
vt 0.931687534 0.666692734
vt 0.895176232 0.708307266
vt 0.895176232 0.75
vt 0.966594338 0.625
vt 1 0.583307266
vt 0.931687534 0.625
vt 0.966594338 0.583307266
vt 1 0.541692734
vt 0.895176232 0.791692734
vt 0.856954455 0.791692734
vt 0.856954455 0.75
vt 0.816806257 0.833307266
vt 0.931687534 0.583307266
vt 0.966594338 0.541692734
vt 1 0.5
vt 0.931687534 0.541692734
vt 0.895176232 0.583307266
vt 0.966594338 0.5
vt 1 0.458307266
vt 0.816806257 0.791692734
vt 0.895176232 0.625
vt 0.931687534 0.5
vt 0.966594338 0.458307266
vt 1 0.416692734
vt 0.895176232 0.666692734
vt 0.931687534 0.458307266
vt 0.966594338 0.416692734
vt 1 0.375
vt 0.931687534 0.416692734
vt 0.895176232 0.458307266
vt 0.895176232 0.5
vt 0.966594338 0.375
vt 1 0.333307266
vt 0.931687534 0.375
vt 0.966594338 0.333307266
vt 1 0.291692734
vt 0.895176232 0.541692734
vt 0.931687534 0.333307266
vt 0.966594338 0.291692734
vt 1 0.25
vt 0.931687534 0.291692734
vt 0.895176232 0.333307266
vt 0.895176232 0.375
vt 0.966594338 0.25
vt 1 0.208307266
vt 0.931687534 0.25
vt 0.966594338 0.208307266
vt 1 0.166692734
vt 0.895176232 0.416692734
vt 0.931687534 0.208307266
vt 0.966594338 0.166692734
vt 1 0.125
vt 0.931687534 0.166692734
vt 0.895176232 0.208307266
vt 0.895176232 0.25
vt 0.966594338 0.125
vt 1 0.0833072662
vt 0.931687534 0.125
vt 0.966594338 0.0833072662
vt 1 0.04169273
vt 0.895176232 0.291692734
vt 0.931687534 0.0833072662
vt 0.895176232 0.125
vt 0.895176232 0.0833072662
vt 0.856954455 0.125
vt 0.895176232 0.166692734
vt 0.931687534 0.04169273
vt 0.856954455 0.166692734
vt 0.856954455 0.208307266
vt 0.856954455 0.25
vt 0.816806257 0.208307266
vt 0.966594338 0.04169273
vt 0.966594338 0
vt 1 0
vt 0.931687534 0
vt 0.895176232 0
vt 0.895176232 0.04169273
vt 0.856954455 0
vt 0.856954455 0.04169273
vt 0.816806257 0
vt 0.856954455 0.0833072662
vt 0.816806257 0.04169273
vt 0.774459004 0
vt 0.816806257 0.0833072662
vt 0.774459004 0.04169273
vt 0.729681253 0
vt 0.774459004 0.0833072662
vt 0.729681253 0.04169273
vt 0.682276428 0
vt 0.682276428 0.04169273
vt 0.631900489 0
vt 0.631900489 0.04169273
vt 0.578226209 0
vt 0.578226209 0.04169273
vt 0.520961702 0
vt 0.631900489 0.0833072662
vt 0.682276428 0.0833072662
vt 0.631900489 0.125
vt 0.729681253 0.0833072662
vt 0.774459004 0.125
vt 0.729681253 0.125
vt 0.816806257 0.125
vt 0.774459004 0.166692734
vt 0.816806257 0.166692734
vt 0.682276428 0.125
vt 0.729681253 0.166692734
vt 0.774459004 0.208307266
vt 0.682276428 0.166692734
vt 0.774459004 0.25
vt 0.729681253 0.208307266
vt 0.682276428 0.208307266
vt 0.631900489 0.166692734
vt 0.816806257 0.25
vt 0.816806257 0.291692734
vt 0.729681253 0.25
vt 0.856954455 0.291692734
vt 0.856954455 0.333307266
vt 0.816806257 0.333307266
vt 0.856954455 0.375
vt 0.774459004 0.291692734
vt 0.774459004 0.333307266
vt 0.729681253 0.291692734
vt 0.682276428 0.25
vt 0.856954455 0.416692734
vt 0.631900489 0.208307266
vt 0.856954455 0.458307266
vt 0.856954455 0.5
vt 0.816806257 0.458307266
vt 0.816806257 0.416692734
vt 0.856954455 0.541692734
vt 0.816806257 0.375
vt 0.774459004 0.375
vt 0.774459004 0.416692734
vt 0.729681253 0.333307266
vt 0.729681253 0.375
vt 0.682276428 0.333307266
vt 0.856954455 0.583307266
vt 0.856954455 0.625
vt 0.816806257 0.583307266
vt 0.682276428 0.291692734
vt 0.631900489 0.25
vt 0.856954455 0.666692734
vt 0.816806257 0.541692734
vt 0.631900489 0.291692734
vt 0.578226209 0.208307266
vt 0.856954455 0.708307266
vt 0.816806257 0.708307266
vt 0.816806257 0.5
vt 0.774459004 0.458307266
vt 0.774459004 0.5
vt 0.729681253 0.458307266
vt 0.816806257 0.666692734
vt 0.816806257 0.75
vt 0.729681253 0.416692734
vt 0.816806257 0.625
vt 0.774459004 0.625
vt 0.774459004 0.666692734
vt 0.774459004 0.708307266
vt 0.774459004 0.75
vt 0.774459004 0.583307266
vt 0.729681253 0.708307266
vt 0.774459004 0.541692734
vt 0.729681253 0.5
vt 0.729681253 0.541692734
vt 0.729681253 0.583307266
vt 0.729681253 0.625
vt 0.682276428 0.458307266
vt 0.729681253 0.666692734
vt 0.682276428 0.5
vt 0.682276428 0.583307266
vt 0.682276428 0.416692734
vt 0.682276428 0.541692734
vt 0.682276428 0.375
vt 0.631900489 0.333307266
vt 0.631900489 0.375
vt 0.631900489 0.416692734
vt 0.631900489 0.458307266
vt 0.631900489 0.5
vt 0.578226209 0.458307266
vt 0.578226209 0.416692734
vt 0.578226209 0.375
vt 0.578226209 0.333307266
vt 0.631900489 0.541692734
vt 0.578226209 0.291692734
vt 0.578226209 0.25
vt 0.520961702 0.416692734
vt 0.520961702 0.375
vt 0.520961702 0.333307266
vt 0.520961702 0.291692734
vt 0.520961702 0.25
vt 0.520961702 0.458307266
vt 0.460136503 0.333307266
vt 0.460136503 0.291692734
vt 0.460136503 0.375
vt 0.460136503 0.25
vt 0.460136503 0.416692734
vt 0.396021336 0.333307266
vt 0.396021336 0.375
vt 0.520961702 0.5
vt 0.460136503 0.458307266
vt 0.578226209 0.5
vt 0.578226209 0.541692734
vt 0.396021336 0.458307266
vt 0.460136503 0.5
vt 0.396021336 0.416692734
vt 0.520961702 0.541692734
vt 0.578226209 0.583307266
vt 0.520961702 0.583307266
vt 0.460136503 0.541692734
vt 0.396021336 0.5
vt 0.631900489 0.583307266
vt 0.682276428 0.625
vt 0.682276428 0.666692734
vt 0.631900489 0.625
vt 0.578226209 0.625
vt 0.520961702 0.625
vt 0.682276428 0.708307266
vt 0.631900489 0.666692734
vt 0.578226209 0.666692734
vt 0.460136503 0.583307266
vt 0.520961702 0.666692734
vt 0.460136503 0.625
vt 0.396021336 0.583307266
vt 0.729681253 0.75
vt 0.396021336 0.541692734
vt 0.774459004 0.791692734
vt 0.774459004 0.833307266
vt 0.729681253 0.791692734
vt 0.682276428 0.75
vt 0.631900489 0.708307266
vt 0.578226209 0.708307266
vt 0.631900489 0.75
vt 0.682276428 0.791692734
vt 0.520961702 0.708307266
vt 0.460136503 0.666692734
vt 0.396021336 0.625
vt 0.328958124 0.625
vt 0.396021336 0.666692734
vt 0.328958124 0.583307266
vt 0.682276428 0.833307266
vt 0.631900489 0.791692734
vt 0.729681253 0.833307266
vt 0.774459004 0.875
vt 0.729681253 0.875
vt 0.816806257 0.875
vt 0.774459004 0.916692734
vt 0.774459004 0.958307266
vt 0.774459004 1
vt 0.729681253 0.958307266
vt 0.729681253 1
vt 0.729681253 0.916692734
vt 0.682276428 0.958307266
vt 0.682276428 1
vt 0.682276428 0.916692734
vt 0.631900489 0.958307266
vt 0.631900489 1
vt 0.631900489 0.916692734
vt 0.578226209 0.958307266
vt 0.578226209 1
vt 0.682276428 0.875
vt 0.631900489 0.875
vt 0.631900489 0.833307266
vt 0.578226209 0.916692734
vt 0.520961702 0.958307266
vt 0.520961702 1
vt 0.578226209 0.875
vt 0.578226209 0.833307266
vt 0.520961702 0.916692734
vt 0.460136503 0.958307266
vt 0.460136503 1
vt 0.520961702 0.875
vt 0.578226209 0.791692734
vt 0.396021336 0.958307266
vt 0.396021336 1
vt 0.460136503 0.916692734
vt 0.460136503 0.875
vt 0.520961702 0.833307266
vt 0.578226209 0.75
vt 0.520961702 0.75
vt 0.328958124 0.958307266
vt 0.328958124 1
vt 0.396021336 0.916692734
vt 0.328958124 0.916692734
vt 0.260554284 0.958307266
vt 0.260554284 1
vt 0.520961702 0.791692734
vt 0.460136503 0.708307266
vt 0.460136503 0.75
vt 0.396021336 0.708307266
vt 0.460136503 0.791692734
vt 0.193428457 0.958307266
vt 0.193428457 1
vt 0.127486318 0.958307266
vt 0.127486318 1
vt 0.193428457 0.916692734
vt 0.328958124 0.666692734
vt 0.396021336 0.75
vt 0.460136503 0.833307266
vt 0.396021336 0.833307266
vt 0.260554284 0.916692734
vt 0.193428457 0.875
vt 0.328958124 0.875
vt 0.396021336 0.875
vt 0.260554284 0.875
vt 0.328958124 0.833307266
vt 0.396021336 0.791692734
vt 0.260554284 0.833307266
vt 0.328958124 0.791692734
vt 0.328958124 0.75
vt 0.260554284 0.791692734
vt 0.193428457 0.833307266
vt 0.328958124 0.708307266
vt 0.260554284 0.708307266
vt 0.260554284 0.75
vt 0.193428457 0.75
vt 0.260554284 0.666692734
vt 0.193428457 0.791692734
vt 0.193428457 0.708307266
vt 0.127486318 0.791692734
vt 0.127486318 0.75
vt 0.127486318 0.708307266
vt 0.127486318 0.833307266
vt 0.0617603734 0.75
vt 0.0617603734 0.708307266
vt 0.0617603734 0.791692734
vt 0.127486318 0.666692734
vt 0.193428457 0.666692734
vt 0.0617603734 0.666692734
vt 0 0.75
vt 0 0.708307266
vt 0 0.791692734
vt 0 0.666692734
vt 0 0.833307266
vt 0.0617603734 0.625
vt 0 0.625
vt 0.0617603734 0.833307266
vt 0 0.875
vt 0.127486318 0.625
vt 0.0617603734 0.583307266
vt 0 0.583307266
vt 0.0617603734 0.875
vt 0 0.916692734
vt 0.127486318 0.875
vt 0.127486318 0.916692734
vt 0.0617603734 0.916692734
vt 0 0.958307266
vt 0.0617603734 0.958307266
vt 0.0617603734 1
vt 0 1
vt 0.0617603734 0.541692734
vt 0 0.541692734
vt 0.127486318 0.583307266
vt 0.0617603734 0.5
vt 0 0.5
vt 0 0.458307266
vt 0.193428457 0.625
vt 0.127486318 0.541692734
vt 0.193428457 0.583307266
vt 0.260554284 0.625
vt 0.260554284 0.583307266
vt 0.260554284 0.541692734
vt 0.193428457 0.541692734
vt 0.127486318 0.5
vt 0.328958124 0.541692734
vt 0.193428457 0.5
vt 0.0617603734 0.458307266
vt 0.328958124 0.5
vt 0.260554284 0.5
vt 0.127486318 0.458307266
vt 0.0617603734 0.416692734
vt 0 0.416692734
vt 0.328958124 0.458307266
vt 0.193428457 0.458307266
vt 0.260554284 0.458307266
vt 0.328958124 0.416692734
vt 0.0617603734 0.375
vt 0 0.375
vt 0.127486318 0.416692734
vt 0.193428457 0.416692734
vt 0.193428457 0.375
vt 0.260554284 0.416692734
vt 0.328958124 0.375
vt 0.0617603734 0.333307266
vt 0 0.333307266
vt 0.127486318 0.375
vt 0.0617603734 0.291692734
vt 0 0.291692734
vt 0.127486318 0.333307266
vt 0.0617603734 0.25
vt 0 0.25
vt 0 0.208307266
vt 0.127486318 0.291692734
vt 0.193428457 0.333307266
vt 0.0617603734 0.208307266
vt 0.127486318 0.25
vt 0.0617603734 0.166692734
vt 0 0.166692734
vt 0.0617603734 0.125
vt 0 0.125
vt 0 0.0833072662
vt 0.127486318 0.208307266
vt 0.193428457 0.291692734
vt 0.193428457 0.25
vt 0.127486318 0.166692734
vt 0.260554284 0.291692734
vt 0.0617603734 0.0833072662
vt 0 0.04169273
vt 0.193428457 0.208307266
vt 0.260554284 0.333307266
vt 0.0617603734 0.04169273
vt 0 0
vt 0.0617603734 0
vt 0.127486318 0.04169273
vt 0.127486318 0
vt 0.260554284 0.375
vt 0.328958124 0.333307266
vt 0.328958124 0.291692734
vt 0.396021336 0.291692734
vt 0.328958124 0.25
vt 0.396021336 0.25
vt 0.260554284 0.25
vt 0.260554284 0.208307266
vt 0.328958124 0.208307266
vt 0.396021336 0.208307266
vt 0.328958124 0.166692734
vt 0.260554284 0.166692734
vt 0.328958124 0.125
vt 0.193428457 0.166692734
vt 0.460136503 0.208307266
vt 0.396021336 0.166692734
vt 0.520961702 0.208307266
vt 0.460136503 0.166692734
vt 0.578226209 0.166692734
vt 0.520961702 0.166692734
vt 0.396021336 0.125
vt 0.578226209 0.125
vt 0.460136503 0.125
vt 0.578226209 0.0833072662
vt 0.520961702 0.125
vt 0.396021336 0.0833072662
vt 0.520961702 0.0833072662
vt 0.460136503 0.0833072662
vt 0.520961702 0.04169273
vt 0.460136503 0
vt 0.460136503 0.04169273
vt 0.396021336 0
vt 0.396021336 0.04169273
vt 0.328958124 0
vt 0.328958124 0.0833072662
vt 0.328958124 0.04169273
vt 0.260554284 0
vt 0.260554284 0.04169273
vt 0.193428457 0
vt 0.260554284 0.0833072662
vt 0.193428457 0.04169273
vt 0.193428457 0.0833072662
vt 0.260554284 0.125
vt 0.193428457 0.125
vt 0.127486318 0.0833072662
vt 0.127486318 0.125
vn -0.0512950644 -0.390984952 -0.918966591
vn -0.289871842 -0.532696009 -0.795115888
vn -0.272733182 -0.52294296 -0.80755645
vn -0.0790774003 -0.416802406 -0.905550897
vn 0.204570845 -0.253563017 -0.945439875
vn -0.133892 -0.461798191 -0.87682122
vn -0.335278481 -0.552837968 -0.762862027
vn 0.161365345 -0.297118992 -0.941106439
vn 0.466340601 -0.14026621 -0.87341392
vn -0.192080244 -0.494856685 -0.84747982
vn -0.385761231 -0.562776923 -0.731074929
vn 0.0980156511 -0.366282344 -0.925327063
vn 0.410307616 -0.194898859 -0.890877128
vn 0.691256344 -0.0699837878 -0.719212651
vn -0.254734695 -0.514939308 -0.81850338
vn -0.442931801 -0.560820222 -0.699494183
vn -0.323515624 -0.520500481 -0.790200591
vn -0.508710086 -0.544254422 -0.667084098
vn -0.0391870476 -0.465709448 -0.884069562
vn 0.344710946 -0.281722128 -0.895436823
vn 0.6342417 -0.124536343 -0.763038695
vn 0.858903289 -0.0525639206 -0.509433091
vn 0.031119965 -0.422919005 -0.905632913
vn 0.272804707 -0.357978582 -0.892988682
vn 0.574451029 -0.218334287 -0.788882852
vn 0.810131252 -0.0943538845 -0.578605831
vn 0.961800098 -0.0975867733 -0.255768031
vn 0.196224853 -0.421187311 -0.885492504
vn 0.504549325 -0.305734724 -0.807438135
vn 0.761650205 -0.183680817 -0.621410012
vn 0.930559039 -0.114448592 -0.34779498
vn 0.9824211 -0.186502934 0.00808618218
vn -0.11358355 -0.493539214 -0.862274766
vn 0.426761687 -0.383094668 -0.819214821
vn 0.895944178 -0.188546866 -0.402161837
vn 0.979538262 -0.178554893 -0.0928592756
vn 0.916876614 -0.307051361 0.255061954
vn 0.961273849 -0.228541836 -0.154016808
vn 0.948956251 -0.273696691 0.156755343
vn 0.76719743 -0.447108001 0.459894061
vn 0.950973034 -0.294421673 0.0946895704
vn 0.933155179 -0.28548044 -0.218454108
vn 0.849305391 -0.265725225 -0.456147373
vn 0.836232007 -0.39465636 0.380739242
vn 0.574074864 -0.566758752 0.590950608
vn 0.862605393 -0.385708243 0.327324182
vn 0.660562396 -0.514592946 0.546673119
vn 0.369696945 -0.661044359 0.652950585
vn 0.700759172 -0.271532804 -0.659701824
vn 0.62880379 -0.354038477 -0.692287862
vn 0.790286303 -0.342974484 -0.507755756
vn 0.343280941 -0.447694451 -0.825668216
vn 0.709280133 -0.482896417 0.513549089
vn 0.458935052 -0.614021063 0.642150044
vn 0.170431644 -0.733882129 0.657548606
vn 0.520181179 -0.569528937 0.636434078
vn 0.755365193 -0.458153725 0.468528003
vn 0.250991315 -0.69459337 0.674198329
vn -0.000479639333 -0.781452537 0.623964369
vn 0.547969997 -0.427625358 -0.718933463
vn 0.883310139 -0.386809707 0.264842391
vn 0.312033087 -0.646021485 0.696628749
vn 0.0605962239 -0.752022862 0.656345785
vn -0.145470336 -0.812564671 0.564426363
vn 0.945399046 -0.324836433 0.0264938828
vn 0.110774159 -0.704658747 0.700845957
vn -0.102015801 -0.789558768 0.605136037
vn -0.2698358 -0.833290517 0.482509673
vn -0.0681347623 -0.745243073 0.6633026
vn 0.172458798 -0.647969425 0.741885126
vn 0.381006449 -0.592751086 0.709563375
vn -0.242241144 -0.81496942 0.526444793
vn -0.371270776 -0.843496919 0.388163537
vn -0.226754352 -0.7745502 0.590469778
vn -0.358360022 -0.828980029 0.429383546
vn -0.453081071 -0.845585942 0.282315701
vn 0.583769619 -0.52641511 0.618142426
vn -0.360117495 -0.792050958 0.492920488
vn -0.451106399 -0.833313942 0.319516808
vn -0.516913414 -0.840869486 0.160434261
vn -0.467210114 -0.799086511 0.378385276
vn -0.35607639 -0.741534293 0.568626821
vn -0.201590717 -0.720765054 0.663218677
vn -0.523303151 -0.830189884 0.192194179
vn -0.561029255 -0.827388406 0.0259741973
vn -0.550456703 -0.798582017 0.24344258
vn -0.57326293 -0.817813456 0.0505043752
vn -0.582741737 -0.803542852 -0.121371105
vn -0.0222871788 -0.688802063 0.724606752
vn -0.607636333 -0.788723886 0.0932344571
vn -0.598067105 -0.794754148 -0.103351749
vn -0.574534535 -0.766581237 -0.286815852
vn -0.636083782 -0.768603325 -0.0681642517
vn -0.647261977 -0.747924864 0.147174329
vn -0.579905987 -0.754358351 0.307656765
vn -0.590435386 -0.75891757 -0.274645686
vn -0.527852118 -0.710687339 -0.465075821
vn -0.629192591 -0.737702072 -0.244769976
vn -0.542631447 -0.705218017 -0.456309766
vn -0.432678044 -0.630585313 -0.644322813
vn -0.481721401 -0.751528978 0.450720221
vn -0.581092656 -0.692233026 -0.427954108
vn -0.675906181 -0.706780612 -0.208834991
vn -0.62740761 -0.670281887 -0.396335661
vn -0.731636703 -0.66162765 -0.164184168
vn -0.681212306 -0.731687486 -0.024151206
vn -0.486639559 -0.630347967 -0.604849935
vn -0.733704269 -0.67871964 0.0319020301
vn -0.691282868 -0.689631939 0.215721235
vn -0.609430373 -0.691512644 0.387820542
vn -0.736084938 -0.605660081 0.302249551
vn -0.446749806 -0.630158365 -0.63507086
vn -0.289871842 -0.532696009 -0.795115888
vn -0.272733182 -0.52294296 -0.80755645
vn -0.335278481 -0.552837968 -0.762862027
vn -0.385761231 -0.562776923 -0.731074929
vn -0.533406734 -0.621484518 -0.573789358
vn -0.442931801 -0.560820222 -0.699494183
vn -0.588729858 -0.600872755 -0.540693104
vn -0.508710086 -0.544254422 -0.667084098
vn -0.683084548 -0.635726213 -0.359510422
vn -0.654259741 -0.564382434 -0.503405154
vn -0.584990382 -0.508831024 -0.631567299
vn -0.749103069 -0.583091497 -0.314402431
vn -0.730786681 -0.505914807 -0.458258688
vn -0.672475636 -0.448426396 -0.588804126
vn -0.824394584 -0.504597664 -0.25642696
vn -0.816065073 -0.417497724 -0.399666578
vn -0.768268824 -0.355781436 -0.532149076
vn -0.901139855 -0.291817307 -0.320608348
vn -0.86227423 -0.226572081 -0.452933043
vn -0.967706442 -0.130170524 -0.215869755
vn -0.936135769 -0.0681993663 -0.344961762
vn -0.994943559 0.0473818481 -0.0885567814
vn -0.972934365 0.092394039 -0.21180661
vn -0.997795582 -0.0532930158 0.039546065
vn -0.968085945 -0.237356484 -0.0804462954
vn -0.95411253 0.00790015329 0.299344152
vn -0.902590871 -0.391115159 -0.17988503
vn -0.865866423 -0.49920702 -0.0326742977
vn -0.929464102 -0.363553286 0.0626530051
vn -0.796195865 -0.595495939 -0.10703589
vn -0.848603189 -0.491551667 0.195574909
vn -0.791730642 -0.601958454 0.103964366
vn -0.966111064 -0.187752917 0.177138954
vn -0.889261007 -0.339807481 0.306179196
vn -0.772643685 -0.486549109 0.407788873
vn -0.891810238 -0.152189076 0.42604351
vn -0.642525136 -0.478341877 0.598623693
vn -0.784706414 -0.327511519 0.526281297
vn -0.754190922 -0.140009046 0.641555429
vn -0.84205538 0.0425252728 0.537712038
vn -0.633701086 -0.602093935 0.485701293
vn -0.489083469 -0.592404187 0.640198767
vn -0.621574998 -0.319778562 0.715112627
vn -0.491122454 -0.684882283 0.538270295
vn -0.34200412 -0.672544837 0.656290054
vn -0.311891913 -0.580532551 0.752133906
vn -0.162777647 -0.65029031 0.742041767
vn -0.466221064 -0.469466835 0.749825895
vn -0.259106398 -0.464815527 0.846646547
vn -0.412977666 -0.320526093 0.852474332
vn -0.559993923 -0.143060386 0.816051841
vn 0.0379925705 -0.619185567 0.784325123
vn -0.676140189 0.0430135168 0.735516369
vn 0.245852605 -0.583450079 0.774042904
vn 0.456060261 -0.538433611 0.708588958
vn 0.329535455 -0.515665472 0.790882766
vn 0.114029452 -0.538262665 0.835027277
vn 0.647041738 -0.489090472 0.58491677
vn -0.106099263 -0.561611593 0.82057023
vn -0.0288618486 -0.458244354 0.88835752
vn 0.204737782 -0.45283258 0.867770195
vn -0.179781169 -0.334023446 0.925260544
vn 0.0678159818 -0.351714611 0.933647573
vn -0.0763346925 -0.20810017 0.9751243
vn 0.796331763 -0.44386816 0.410897583
vn 0.89600724 -0.399686903 0.1934461
vn 0.829262257 -0.443160146 0.340489805
vn -0.326274544 -0.165215522 0.930724919
vn -0.460761338 0.0186162926 0.887328744
vn 0.929860711 -0.364900738 -0.0469749495
vn 0.706776083 -0.462707639 0.535134852
vn -0.213172242 -0.033430472 0.976442516
vn -0.565427184 0.184649259 0.803863645
vn 0.893372118 -0.347774595 -0.284497738
vn 0.840891123 -0.412742823 -0.350065053
vn 0.534169912 -0.488899708 0.68966639
vn 0.420118928 -0.452738166 0.786465645
vn 0.611231148 -0.451526999 0.650015295
vn 0.512523592 -0.405163616 0.757074654
vn 0.90204215 -0.413397908 -0.124185346
vn 0.719701946 -0.416742861 -0.555296779
vn 0.306031823 -0.375059456 0.875028551
vn 0.897957563 -0.425103694 0.11383827
vn 0.886279702 -0.462320626 0.027711682
vn 0.860308886 -0.467711985 -0.202765942
vn 0.775965452 -0.476847738 -0.412908912
vn 0.639505744 -0.483470052 -0.597736657
vn 0.850691438 -0.457977384 0.258032441
vn 0.700422049 -0.536119759 -0.471152455
vn 0.759117842 -0.452210277 0.468237072
vn 0.682243347 -0.433532059 0.588722289
vn 0.799570441 -0.460856318 0.385095477
vn 0.856950045 -0.488053501 0.165651217
vn 0.858799398 -0.50854969 -0.0619735606
vn 0.600800276 -0.382694691 0.701843202
vn 0.8045609 -0.52384913 -0.279756576
vn 0.741642654 -0.439456135 0.506798387
vn 0.845285118 -0.53010118 0.0669755787
vn 0.411897421 -0.31950143 0.853381097
vn 0.823541343 -0.488552034 0.288264573
vn 0.178649485 -0.260243595 0.948871732
vn 0.043563664 -0.111772865 0.992778361
vn 0.296642601 -0.202412531 0.933291078
vn 0.515826881 -0.298027873 0.803182483
vn 0.678536415 -0.39061451 0.622100234
vn 0.78388387 -0.468743771 0.407191932
vn 0.73936075 -0.426487148 0.521012843
vn 0.611049116 -0.314815521 0.726298988
vn 0.415296167 -0.189862579 0.889652371
vn 0.172100544 -0.0637437254 0.983014822
vn 0.82773608 -0.530742228 0.182113931
vn -0.0849012733 0.0498065054 0.995143771
vn -0.338678539 0.133849531 0.931333065
vn 0.690524578 -0.363149047 0.625538647
vn 0.527921498 -0.223141462 0.819455206
vn 0.30374667 -0.0717201009 0.950049579
vn 0.051377669 0.0717691407 0.996097147
vn -0.206441194 0.185841337 0.960648239
vn 0.779181421 -0.478974968 0.404301018
vn 0.432961315 -0.130234763 0.891954839
vn 0.193198204 0.0310442206 0.980668485
vn 0.627245307 -0.288774252 0.723306835
vn -0.0670920387 0.169302151 0.983277857
vn 0.750315785 -0.424826562 0.506506264
vn 0.552610695 -0.217017502 0.804689288
vn 0.709880352 -0.359262824 0.605805278
vn 0.806580722 -0.564034998 0.176895574
vn 0.800531268 -0.530061185 0.279615432
vn 0.805201113 -0.514422476 0.294992566
vn 0.812287986 -0.578773081 0.0721795857
vn 0.815067649 -0.558964074 0.152393505
vn 0.795832157 -0.602718771 0.0581486151
vn 0.795498669 -0.473913938 0.377607614
vn 0.782365203 -0.621732831 -0.0367829688
vn 0.770872176 -0.62326479 -0.131518245
vn 0.718259692 -0.65803194 -0.226046696
vn 0.747480631 -0.648456991 -0.144139424
vn 0.786380589 -0.614614367 -0.0620857626
vn 0.815462649 -0.57784462 -0.0334115624
vn 0.815229118 -0.558973432 -0.151493475
vn 0.736727357 -0.577010214 -0.352550894
vn 0.758002818 -0.607448518 -0.237567022
vn 0.691928566 -0.647712588 -0.318909407
vn 0.622862935 -0.673788309 -0.397556275
vn 0.617279768 -0.586793184 -0.524060547
vn 0.660495102 -0.622332394 -0.420058012
vn 0.580117643 -0.655453742 -0.483574003
vn 0.665656328 -0.673875213 -0.320614815
vn 0.499005586 -0.671967924 -0.547222674
vn 0.555536389 -0.67905426 -0.479858935
vn 0.619610965 -0.659586132 -0.425474286
vn 0.552421331 -0.540016115 -0.634990692
vn 0.718718946 -0.646239102 -0.256550282
vn 0.46074301 -0.489456594 -0.740370214
vn 0.25569874 -0.497724652 -0.828787208
vn 0.36931929 -0.537468076 -0.758110464
vn 0.461130798 -0.583912373 -0.668135285
vn 0.529845655 -0.625584781 -0.572631955
vn 0.440499187 -0.649543285 -0.619720876
vn 0.367372602 -0.613054097 -0.69942981
vn 0.274933577 -0.570114851 -0.774196625
vn 0.349671602 -0.654928982 -0.669923663
vn 0.417958289 -0.665773451 -0.618107319
vn 0.491119623 -0.652447343 -0.577160358
vn 0.423217028 -0.570417702 -0.70392549
vn 0.332971454 -0.625193536 -0.705877542
vn 0.581242681 -0.592468262 -0.55779773
vn 0.0696346611 -0.54875499 -0.833078086
vn 0.177292451 -0.58568424 -0.790911674
vn 0.164674401 -0.531871557 -0.830659389
vn 0.031690117 -0.502396822 -0.86405623
vn -0.0573808439 -0.517815232 -0.853565931
vn 0.115878202 -0.469724655 -0.875174761
vn -0.193576694 -0.504952252 -0.841160715
vn -0.400558144 -0.508981943 -0.761899292
vn -0.584990382 -0.508831024 -0.631567299
vn -0.487944484 -0.476308405 -0.731464684
vn -0.672475636 -0.448426396 -0.588804126
vn -0.281268537 -0.497551173 -0.82056731
vn -0.586553156 -0.416763783 -0.694451809
vn -0.768268824 -0.355781436 -0.532149076
vn -0.378949255 -0.467532367 -0.798630655
vn -0.69364965 -0.324357003 -0.643150449
vn -0.86227423 -0.226572081 -0.452933043
vn -0.488063127 -0.409690082 -0.770680487
vn -0.799343944 -0.197682515 -0.567424774
vn -0.936135769 -0.0681993663 -0.344961762
vn -0.153323725 -0.513793528 -0.844101906
vn -0.258902192 -0.486757785 -0.834288061
vn -0.0314575993 -0.546158254 -0.837091088
vn -0.606594741 -0.31911236 -0.728155255
vn -0.886500001 -0.0494001657 -0.460084081
vn -0.972934365 0.092394039 -0.21180661
vn -0.37655881 -0.431707323 -0.81965369
vn -0.141957432 -0.520332694 -0.842082024
vn -0.725415111 -0.197152913 -0.659472287
vn -0.941572428 0.0891581848 -0.324795693
vn -0.973796129 0.217548504 -0.0662850365
vn -0.505708933 -0.344250023 -0.791043878
vn 0.0742074475 -0.581459939 -0.810183644
vn -0.968372166 0.179295167 -0.173518628
vn -0.957377315 0.276661366 0.0829882845
vn -0.828716397 -0.060924843 -0.55634284
vn -0.63869071 -0.227323413 -0.735117853
vn -0.265573591 -0.465809971 -0.84409225
vn 0.271129131 -0.625058949 -0.731976986
vn 0.170034111 -0.615951777 -0.769215047
vn -0.982045591 0.188195676 -0.0129913427
vn -0.938957751 0.24685812 0.239623502
vn -0.905105293 0.0540669635 -0.421736062
vn -0.957983017 0.105926909 -0.266548514
vn -0.98345691 0.0875878185 0.158559084
vn -0.907249033 0.104058795 0.40751797
vn -0.0384592749 -0.552638829 -0.832533062
vn 0.25453943 -0.635376871 -0.729044378
vn 0.058688432 -0.578630567 -0.81347549
vn 0.147351459 -0.578683674 -0.802130044
vn -0.166164398 -0.491964608 -0.854611218
vn -0.933011532 -0.139118627 0.331866533
vn -0.813281298 -0.156309471 0.560482681
vn -0.777489722 -0.43114993 0.457842171
vn -0.627426028 -0.446991265 0.637601376
vn -0.989657342 -0.116042987 0.0843344107
vn 0.23202534 -0.52692771 -0.817625523
vn -0.0714311227 -0.501519859 -0.862192214
vn -0.403596193 -0.377706438 -0.833335459
vn -0.550273538 -0.259602368 -0.793602943
vn -0.993559957 0.0581497811 -0.0972479284
vn -0.979665458 -0.0979221612 -0.175119489
vn -0.860306501 -0.00781366508 -0.509717107
vn -0.760833681 -0.10151013 -0.640958488
vn -0.935780644 0.00635133358 -0.352525473
vn -0.69074136 -0.137118489 -0.709982276
vn -0.312853873 -0.392304152 -0.864997029
vn -0.810060322 -0.0603032447 -0.583237231
vn -0.473588794 -0.258857161 -0.841847062
vn -0.227632865 -0.373283833 -0.899356663
vn -0.629699171 -0.128625542 -0.7661165
vn -0.901729882 -0.0827189758 -0.424312174
vn 0.0149825038 -0.464810908 -0.885283172
vn -0.151846662 -0.278642178 -0.948314905
vn -0.402439475 -0.205385625 -0.892109454
vn -0.571659386 -0.0554929338 -0.818612278
vn 0.0950314775 -0.336154044 -0.937000215
vn -0.764630139 -0.0647624508 -0.641207099
vn -0.337801665 -0.052544862 -0.939749479
vn -0.869036376 -0.128701836 -0.477715075
vn -0.721771717 -0.00730069168 -0.692092538
vn -0.513198495 0.113427155 -0.850741863
vn -0.941594064 -0.239685297 -0.236540541
vn -0.838395238 -0.121132411 -0.53143245
vn -0.671622574 0.129875153 -0.729421496
vn -0.898376167 -0.335024387 -0.284040183
vn -0.273017257 0.225723475 -0.93515265
vn -0.0854124725 -0.0488222092 -0.995148838
vn -0.43505615 0.363590032 -0.823728323
vn -0.868441105 -0.203560784 -0.452076346
vn -0.725124121 0.126627266 -0.676875472
vn -0.868807852 -0.461077452 -0.180500612
vn -0.483815134 0.416802615 -0.769544303
vn -0.786530733 -0.6153543 0.0520433597
vn -0.185713843 0.535074055 -0.824139595
vn -0.237941608 0.606952846 -0.758282304
vn -0.871773839 -0.487807542 -0.0453216732
vn -0.677162528 -0.694864213 0.24210462
vn -0.0189094339 0.312693208 -0.949665904
vn 0.0341616273 0.642721474 -0.765337944
vn -0.0348909907 0.716613054 -0.696597636
vn -0.79560858 -0.581987917 0.16821748
vn -0.55780375 -0.729652226 0.395553529
vn -0.945405126 -0.325573266 0.0145366304
vn -0.886447132 -0.388704032 0.251238316
vn -0.689516068 -0.634462237 0.349321395
vn -0.430069923 -0.733587503 0.526202738
vn -0.564565539 -0.656437933 0.500354886
vn -0.419992149 -0.647714615 0.635666847
vn -0.283009291 -0.702715695 0.652760684
vn 0.212619588 0.70604825 -0.675491512
vn 0.123302437 0.77821064 -0.615779757
vn 0.22570619 0.371544719 -0.900561631
vn 0.3647089 0.736904323 -0.56917423
vn 0.253857493 0.810446918 -0.527950943
vn 0.366491199 0.823185027 -0.43364805
vn 0.177979112 -0.055916544 -0.982444227
vn 0.442299634 0.407833606 -0.798775852
vn 0.429178894 -0.0689520016 -0.900583744
vn 0.330302417 -0.38629204 -0.861207783
vn 0.535462022 -0.4212327 -0.732013226
vn 0.69999212 -0.436609 -0.565140367
vn 0.645901144 -0.0802500248 -0.759191573
vn 0.634401917 0.413838625 -0.652894974
vn 0.70464766 -0.592858195 -0.389859855
vn 0.820921063 -0.101036087 -0.562032282
vn 0.496346861 0.743124604 -0.448782355
vn 0.79313767 -0.577113032 -0.194610476
vn 0.821663439 -0.441106856 -0.360962421
vn 0.791802824 0.392439902 -0.468016118
vn 0.607764781 0.730026901 -0.312542349
vn 0.462654471 0.822239876 -0.331470042
vn 0.841057897 -0.540580571 0.0198574178
vn 0.93724519 -0.123105198 -0.326215357
vn 0.89314574 -0.429286629 -0.134178028
vn 0.842469454 -0.480000556 0.244631842
vn 0.708659053 0.689217985 -0.150933221
vn 0.55218482 0.805421114 -0.215380579
vn 0.902010083 0.34992221 -0.252848119
vn 0.987378776 -0.139937207 -0.0741673112
vn 0.968977213 -0.162232324 0.186450556
vn 0.911266983 -0.399242938 0.100983158
vn 0.783850789 -0.397574812 0.476982445
vn 0.789980829 0.61152941 0.0442964882
vn 0.639441073 0.765238225 -0.0743340254
vn 0.961872876 0.273401052 -0.00724361185
vn 0.829626143 0.487695605 0.271796763
vn 0.711619735 0.695995986 0.0958484486
vn 0.952596188 0.171296865 0.251431614
vn 0.79941535 0.289226472 0.526576817
vn 0.760108829 0.571501493 0.309226036
vn 0.747174621 0.346044838 0.567435443
vn 0.867306828 0.0576509275 0.494424134
vn 0.883833528 -0.180221304 0.431692719
vn 0.660904109 0.036110159 0.749601066
vn 0.70688504 -0.0722844079 0.703625321
vn 0.436864406 -0.206130311 0.87559104
vn 0.61499244 0.0458533205 0.787198663
vn 0.180416718 -0.405510992 0.896108627
vn 0.375368446 -0.265424907 0.888058603
vn 0.10915792 -0.504204333 0.856657803
vn 0.490903825 -0.191900507 0.849816203
vn 0.742577374 -0.189795718 0.642305493
vn 0.548226774 -0.20130977 0.811739981
vn 0.25151518 -0.286540985 0.924464464
vn 0.606979251 -0.233944952 0.759503722
vn -0.0542459562 -0.535849392 0.842569172
vn -0.10737516 -0.63356936 0.766198814
vn 0.318344474 -0.206158057 0.925286829
vn 0.765301824 -0.302836806 0.567981482
vn -0.250843644 -0.608739376 0.752671242
vn -0.283009291 -0.702715695 0.652760684
vn -0.419992149 -0.647714615 0.635666847
vn -0.442773432 -0.440863967 0.780762851
vn -0.627426028 -0.446991265 0.637601376
vn 0.868745267 -0.358316153 0.341893613
vn 0.659746528 -0.291626424 0.692595482
vn 0.475721121 -0.167607486 0.863479733
vn 0.337162256 -0.0603907667 0.939507604
vn 0.238681018 -0.0422273315 0.970179439
vn 0.081928879 0.0863222554 0.992892861
vn 0.39449954 -0.162770927 0.904364824
vn 0.148262247 -0.0902294219 0.984823346
vn -0.0204241723 0.0730436221 0.997119665
vn -0.175137088 0.206966028 0.96254462
vn -0.26972267 0.168647334 0.948054731
vn -0.107016064 -0.0202509612 0.994051039
vn -0.499252766 0.232645676 0.834639192
vn 0.0725010559 -0.201727688 0.976754606
vn -0.312978208 0.272200108 0.909918547
vn -0.404789984 0.294459909 0.865701079
vn -0.441601396 0.26349473 0.857647121
vn -0.523096681 0.338268459 0.782268763
vn -0.749435782 0.204321295 0.629760921
vn -0.637769818 0.306156009 0.70676595
vn -0.605321765 0.34228453 0.718628526
vn -0.891402662 0.184517235 0.413950175
vn -0.701573133 0.363371909 0.612989485
vn -0.977226257 0.129491702 0.168109089
vn -0.79944855 0.308097661 0.51571101
vn -0.767615497 0.354589909 0.533884287
vn -0.916679561 0.272428453 0.292371869
vn -0.841203272 0.35147512 0.410904288
vn -0.977748752 0.204042092 0.0487264432
vn -0.973796129 0.217548504 -0.0662850365
vn -0.933611035 0.306720942 0.185183272
vn -0.957377315 0.276661366 0.0829882845
vn -0.884885013 0.335924715 0.322696567
vn -0.938957751 0.24685812 0.239623502
vn -0.692189574 0.266734272 0.670616448
vn -0.838186324 0.274255872 0.471410006
vn -0.907249033 0.104058795 0.40751797
vn -0.771173358 0.101009011 0.628560841
vn -0.813281298 -0.156309471 0.560482681
vn -0.587816358 0.0743848234 0.805567324
vn -0.639158309 -0.171749905 0.749652326
vn -0.426752508 -0.189079836 0.884381771
vn -0.360352993 0.0343235061 0.932184279
vn -0.183217406 -0.198095262 0.962906897
vn -0.232979894 -0.416942686 0.878566563
vn 0.00255783158 -0.365015984 0.930997729
g submesh_0
usemtl submesh_0
f 1/1/1 2/2/2 3/3/3
f 1/1/1 4/4/4 2/2/2
f 5/5/5 4/4/4 1/1/1
f 2/2/2 4/4/4 6/6/6
f 2/2/2 6/6/6 7/7/7
f 5/5/5 8/8/8 4/4/4
f 9/9/9 8/8/8 5/5/5
f 7/7/7 6/6/6 10/10/10
f 7/7/7 10/10/10 11/11/11
f 4/4/4 12/12/12 6/6/6
f 4/4/4 8/8/8 12/12/12
f 10/10/10 6/6/6 12/12/12
f 9/9/9 13/13/13 8/8/8
f 14/14/14 13/13/13 9/9/9
f 11/11/11 10/10/10 15/15/15
f 11/11/11 15/15/15 16/16/16
f 16/16/16 15/15/15 17/17/17
f 16/16/16 17/17/17 18/18/18
f 19/19/19 15/15/15 10/10/10
f 17/17/17 15/15/15 19/19/19
f 8/8/8 20/20/20 12/12/12
f 8/8/8 13/13/13 20/20/20
f 14/14/14 21/21/21 13/13/13
f 22/22/22 21/21/21 14/14/14
f 10/10/10 12/12/12 23/23/23
f 19/19/19 10/10/10 23/23/23
f 12/12/12 24/24/24 23/23/23
f 12/12/12 20/20/20 24/24/24
f 13/13/13 25/25/25 20/20/20
f 13/13/13 21/21/21 25/25/25
f 22/22/22 26/26/26 21/21/21
f 27/27/27 26/26/26 22/22/22
f 28/28/28 19/19/19 23/23/23
f 28/28/28 23/23/23 24/24/24
f 20/20/20 25/25/25 29/29/29
f 20/20/20 29/29/29 24/24/24
f 21/21/21 30/30/30 25/25/25
f 21/21/21 26/26/26 30/30/30
f 29/29/29 25/25/25 30/30/30
f 27/27/27 31/31/31 26/26/26
f 32/32/32 31/31/31 27/27/27
f 33/33/33 19/19/19 28/28/28
f 17/17/17 19/19/19 33/33/33
f 24/24/24 29/29/29 34/34/34
f 24/24/24 34/34/34 28/28/28
f 26/26/26 35/35/35 30/30/30
f 26/26/26 31/31/31 35/35/35
f 32/32/32 36/36/36 31/31/31
f 37/37/37 36/36/36 32/32/32
f 31/31/31 38/38/38 35/35/35
f 31/31/31 36/36/36 38/38/38
f 37/37/37 39/39/39 36/36/36
f 40/40/40 39/39/39 37/37/37
f 36/36/36 41/41/41 38/38/38
f 36/36/36 39/39/39 41/41/41
f 35/35/35 38/38/38 42/42/42
f 42/42/42 38/38/38 41/41/41
f 30/30/30 35/35/35 43/43/43
f 35/35/35 42/42/42 43/43/43
f 40/40/40 44/44/44 39/39/39
f 45/45/45 44/44/44 40/40/40
f 39/39/39 46/46/46 41/41/41
f 39/39/39 44/44/44 46/46/46
f 45/45/45 47/47/47 44/44/44
f 48/48/48 47/47/47 45/45/45
f 30/30/30 43/43/43 49/49/49
f 29/29/29 30/30/30 49/49/49
f 50/50/50 29/29/29 49/49/49
f 50/50/50 34/34/34 29/29/29
f 51/51/51 49/49/49 43/43/43
f 51/51/51 50/50/50 49/49/49
f 52/52/52 34/34/34 50/50/50
f 28/28/28 34/34/34 52/52/52
f 44/44/44 53/53/53 46/46/46
f 44/44/44 47/47/47 53/53/53
f 48/48/48 54/54/54 47/47/47
f 55/55/55 54/54/54 48/48/48
f 47/47/47 56/56/56 53/53/53
f 47/47/47 54/54/54 56/56/56
f 46/46/46 53/53/53 57/57/57
f 57/57/57 53/53/53 56/56/56
f 55/55/55 58/58/58 54/54/54
f 59/59/59 58/58/58 55/55/55
f 52/52/52 50/50/50 60/60/60
f 60/60/60 50/50/50 51/51/51
f 46/46/46 57/57/57 61/61/61
f 41/41/41 46/46/46 61/61/61
f 54/54/54 62/62/62 56/56/56
f 54/54/54 58/58/58 62/62/62
f 59/59/59 63/63/63 58/58/58
f 64/64/64 63/63/63 59/59/59
f 41/41/41 61/61/61 65/65/65
f 42/42/42 41/41/41 65/65/65
f 58/58/58 66/66/66 62/62/62
f 58/58/58 63/63/63 66/66/66
f 64/64/64 67/67/67 63/63/63
f 68/68/68 67/67/67 64/64/64
f 63/63/63 69/69/69 66/66/66
f 63/63/63 67/67/67 69/69/69
f 62/62/62 66/66/66 70/70/70
f 70/70/70 66/66/66 69/69/69
f 56/56/56 62/62/62 71/71/71
f 62/62/62 70/70/70 71/71/71
f 68/68/68 72/72/72 67/67/67
f 73/73/73 72/72/72 68/68/68
f 67/67/67 74/74/74 69/69/69
f 67/67/67 72/72/72 74/74/74
f 73/73/73 75/75/75 72/72/72
f 76/76/76 75/75/75 73/73/73
f 56/56/56 71/71/71 77/77/77
f 57/57/57 56/56/56 77/77/77
f 72/72/72 78/78/78 74/74/74
f 72/72/72 75/75/75 78/78/78
f 76/76/76 79/79/79 75/75/75
f 80/80/80 79/79/79 76/76/76
f 75/75/75 81/81/81 78/78/78
f 75/75/75 79/79/79 81/81/81
f 74/74/74 78/78/78 82/82/82
f 82/82/82 78/78/78 81/81/81
f 69/69/69 74/74/74 83/83/83
f 74/74/74 82/82/82 83/83/83
f 80/80/80 84/84/84 79/79/79
f 85/85/85 84/84/84 80/80/80
f 79/79/79 86/86/86 81/81/81
f 79/79/79 84/84/84 86/86/86
f 85/85/85 87/87/87 84/84/84
f 88/88/88 87/87/87 85/85/85
f 69/69/69 83/83/83 89/89/89
f 70/70/70 69/69/69 89/89/89
f 84/84/84 90/90/90 86/86/86
f 84/84/84 87/87/87 90/90/90
f 88/88/88 91/91/91 87/87/87
f 92/92/92 91/91/91 88/88/88
f 87/87/87 93/93/93 90/90/90
f 87/87/87 91/91/91 93/93/93
f 86/86/86 90/90/90 94/94/94
f 94/94/94 90/90/90 93/93/93
f 81/81/81 86/86/86 95/95/95
f 86/86/86 94/94/94 95/95/95
f 92/92/92 96/96/96 91/91/91
f 97/97/97 96/96/96 92/92/92
f 91/91/91 98/98/98 93/93/93
f 91/91/91 96/96/96 98/98/98
f 97/97/97 99/99/99 96/96/96
f 100/100/100 99/99/99 97/97/97
f 81/81/81 95/95/95 101/101/101
f 82/82/82 81/81/81 101/101/101
f 96/96/96 102/102/102 98/98/98
f 96/96/96 99/99/99 102/102/102
f 93/93/93 98/98/98 103/103/103
f 98/98/98 102/102/102 104/104/104
f 98/98/98 104/104/104 103/103/103
f 104/104/104 105/105/105 103/103/103
f 93/93/93 103/103/103 106/106/106
f 105/105/105 106/106/106 103/103/103
f 94/94/94 93/93/93 106/106/106
f 99/99/99 107/107/107 102/102/102
f 104/104/104 102/102/102 107/107/107
f 108/108/108 94/94/94 106/106/106
f 105/105/105 108/108/108 106/106/106
f 95/95/95 94/94/94 109/109/109
f 108/108/108 109/109/109 94/94/94
f 110/110/110 101/101/101 95/95/95
f 95/95/95 109/109/109 110/110/110
f 111/111/111 109/109/109 108/108/108
f 110/110/110 109/109/109 111/111/111
f 99/99/99 112/112/112 107/107/107
f 100/100/100 112/112/112 99/99/99
f 113/113/113 112/112/112 100/100/100
f 113/113/113 100/100/100 114/114/114
f 115/115/115 112/112/112 113/113/113
f 115/115/115 107/107/107 112/112/112
f 116/116/116 107/107/107 115/115/115
f 116/116/116 117/117/117 107/107/107
f 118/118/118 117/117/117 116/116/116
f 104/104/104 107/107/107 117/117/117
f 118/118/118 119/119/119 117/117/117
f 120/120/120 119/119/119 118/118/118
f 117/117/117 121/121/121 104/104/104
f 117/117/117 119/119/119 121/121/121
f 104/104/104 121/121/121 105/105/105
f 120/120/120 122/122/122 119/119/119
f 121/121/121 119/119/119 122/122/122
f 123/123/123 122/122/122 120/120/120
f 105/105/105 121/121/121 124/124/124
f 121/121/121 122/122/122 124/124/124
f 123/123/123 125/125/125 122/122/122
f 126/126/126 125/125/125 123/123/123
f 122/122/122 125/125/125 127/127/127
f 122/122/122 127/127/127 124/124/124
f 126/126/126 128/128/128 125/125/125
f 127/127/127 125/125/125 128/128/128
f 129/129/129 128/128/128 126/126/126
f 129/129/129 130/130/130 128/128/128
f 131/131/131 130/130/130 129/129/129
f 131/131/131 132/132/132 130/130/130
f 133/133/133 132/132/132 131/131/131
f 133/133/133 134/134/134 132/132/132
f 135/135/135 134/134/134 133/133/133
f 130/130/130 132/132/132 136/136/136
f 136/136/136 132/132/132 134/134/134
f 137/137/137 128/128/128 130/130/130
f 130/130/130 136/136/136 137/137/137
f 137/137/137 136/136/136 138/138/138
f 127/127/127 128/128/128 139/139/139
f 137/137/137 139/139/139 128/128/128
f 124/124/124 127/127/127 140/140/140
f 140/140/140 127/127/127 139/139/139
f 141/141/141 139/139/139 137/137/137
f 140/140/140 139/139/139 141/141/141
f 124/124/124 140/140/140 142/142/142
f 105/105/105 124/124/124 142/142/142
f 142/142/142 140/140/140 143/143/143
f 143/143/143 140/140/140 141/141/141
f 144/144/144 105/105/105 142/142/142
f 142/142/142 143/143/143 144/144/144
f 144/144/144 108/108/108 105/105/105
f 111/111/111 108/108/108 144/144/144
f 141/141/141 137/137/137 145/145/145
f 137/137/137 138/138/138 145/145/145
f 143/143/143 141/141/141 146/146/146
f 146/146/146 141/141/141 145/145/145
f 144/144/144 143/143/143 147/147/147
f 144/144/144 147/147/147 111/111/111
f 147/147/147 143/143/143 146/146/146
f 138/138/138 148/148/148 145/145/145
f 146/146/146 145/145/145 148/148/148
f 111/111/111 147/147/147 149/149/149
f 147/147/147 146/146/146 150/150/150
f 149/149/149 147/147/147 150/150/150
f 151/151/151 146/146/146 148/148/148
f 151/151/151 150/150/150 146/146/146
f 138/138/138 152/152/152 148/148/148
f 152/152/152 151/151/151 148/148/148
f 111/111/111 149/149/149 153/153/153
f 110/110/110 111/111/111 153/153/153
f 154/154/154 110/110/110 153/153/153
f 149/149/149 154/154/154 153/153/153
f 149/149/149 150/150/150 155/155/155
f 155/155/155 150/150/150 151/151/151
f 154/154/154 156/156/156 110/110/110
f 110/110/110 156/156/156 101/101/101
f 156/156/156 82/82/82 101/101/101
f 156/156/156 157/157/157 82/82/82
f 83/83/83 82/82/82 157/157/157
f 158/158/158 157/157/157 156/156/156
f 158/158/158 156/156/156 154/154/154
f 83/83/83 157/157/157 159/159/159
f 159/159/159 157/157/157 158/158/158
f 159/159/159 89/89/89 83/83/83
f 149/149/149 160/160/160 154/154/154
f 155/155/155 160/160/160 149/149/149
f 154/154/154 160/160/160 161/161/161
f 154/154/154 161/161/161 158/158/158
f 155/155/155 162/162/162 160/160/160
f 161/161/161 160/160/160 162/162/162
f 155/155/155 151/151/151 163/163/163
f 163/163/163 162/162/162 155/155/155
f 159/159/159 164/164/164 89/89/89
f 164/164/164 70/70/70 89/89/89
f 163/163/163 151/151/151 165/165/165
f 152/152/152 165/165/165 151/151/151
f 164/164/164 166/166/166 70/70/70
f 71/71/71 70/70/70 166/166/166
f 71/71/71 166/166/166 167/167/167
f 167/167/167 77/77/77 71/71/71
f 168/168/168 166/166/166 164/164/164
f 167/167/167 166/166/166 168/168/168
f 169/169/169 164/164/164 159/159/159
f 168/168/168 164/164/164 169/169/169
f 167/167/167 170/170/170 77/77/77
f 170/170/170 57/57/57 77/77/77
f 169/169/169 159/159/159 171/171/171
f 159/159/159 158/158/158 171/171/171
f 158/158/158 172/172/172 171/171/171
f 172/172/172 169/169/169 171/171/171
f 158/158/158 161/161/161 172/172/172
f 173/173/173 168/168/168 169/169/169
f 172/172/172 173/173/173 169/169/169
f 172/172/172 161/161/161 174/174/174
f 161/161/161 162/162/162 174/174/174
f 172/172/172 174/174/174 175/175/175
f 175/175/175 173/173/173 172/172/172
f 176/176/176 174/174/174 162/162/162
f 175/175/175 174/174/174 176/176/176
f 170/170/170 177/177/177 57/57/57
f 61/61/61 57/57/57 177/177/177
f 61/61/61 177/177/177 178/178/178
f 178/178/178 65/65/65 61/61/61
f 179/179/179 177/177/177 170/170/170
f 178/178/178 177/177/177 179/179/179
f 176/176/176 162/162/162 180/180/180
f 163/163/163 180/180/180 162/162/162
f 181/181/181 180/180/180 163/163/163
f 163/163/163 165/165/165 181/181/181
f 178/178/178 182/182/182 65/65/65
f 182/182/182 42/42/42 65/65/65
f 179/179/179 170/170/170 183/183/183
f 183/183/183 170/170/170 167/167/167
f 184/184/184 176/176/176 180/180/180
f 181/181/181 184/184/184 180/180/180
f 181/181/181 165/165/165 185/185/185
f 185/185/185 165/165/165 152/152/152
f 182/182/182 186/186/186 42/42/42
f 43/43/43 42/42/42 186/186/186
f 43/43/43 186/186/186 51/51/51
f 187/187/187 186/186/186 182/182/182
f 51/51/51 186/186/186 187/187/187
f 183/183/183 167/167/167 188/188/188
f 167/167/167 168/168/168 188/188/188
f 188/188/188 168/168/168 189/189/189
f 173/173/173 189/189/189 168/168/168
f 188/188/188 189/189/189 190/190/190
f 190/190/190 183/183/183 188/188/188
f 191/191/191 189/189/189 173/173/173
f 190/190/190 189/189/189 191/191/191
f 187/187/187 182/182/182 192/192/192
f 192/192/192 182/182/182 178/178/178
f 51/51/51 187/187/187 193/193/193
f 60/60/60 51/51/51 193/193/193
f 191/191/191 173/173/173 194/194/194
f 175/175/175 194/194/194 173/173/173
f 192/192/192 178/178/178 195/195/195
f 178/178/178 179/179/179 195/195/195
f 196/196/196 192/192/192 195/195/195
f 179/179/179 196/196/196 195/195/195
f 197/197/197 187/187/187 192/192/192
f 196/196/196 197/197/197 192/192/192
f 193/193/193 187/187/187 198/198/198
f 197/197/197 198/198/198 187/187/187
f 193/193/193 198/198/198 199/199/199
f 199/199/199 60/60/60 193/193/193
f 179/179/179 200/200/200 196/196/196
f 183/183/183 200/200/200 179/179/179
f 201/201/201 198/198/198 197/197/197
f 199/199/199 198/198/198 201/201/201
f 183/183/183 202/202/202 200/200/200
f 190/190/190 202/202/202 183/183/183
f 203/203/203 202/202/202 190/190/190
f 190/190/190 191/191/191 203/203/203
f 200/200/200 202/202/202 204/204/204
f 203/203/203 204/204/204 202/202/202
f 196/196/196 200/200/200 205/205/205
f 200/200/200 204/204/204 205/205/205
f 206/206/206 197/197/197 196/196/196
f 196/196/196 205/205/205 206/206/206
f 203/203/203 191/191/191 207/207/207
f 207/207/207 191/191/191 194/194/194
f 201/201/201 197/197/197 208/208/208
f 206/206/206 208/208/208 197/197/197
f 209/209/209 204/204/204 203/203/203
f 203/203/203 207/207/207 209/209/209
f 210/210/210 205/205/205 204/204/204
f 206/206/206 205/205/205 210/210/210
f 207/207/207 194/194/194 211/211/211
f 211/211/211 194/194/194 175/175/175
f 209/209/209 212/212/212 204/204/204
f 210/210/210 204/204/204 212/212/212
f 211/211/211 175/175/175 213/213/213
f 175/175/175 176/176/176 213/213/213
f 214/214/214 213/213/213 176/176/176
f 184/184/184 214/214/214 176/176/176
f 215/215/215 211/211/211 213/213/213
f 214/214/214 215/215/215 213/213/213
f 216/216/216 207/207/207 211/211/211
f 215/215/215 216/216/216 211/211/211
f 209/209/209 207/207/207 217/217/217
f 216/216/216 217/217/217 207/207/207
f 218/218/218 212/212/212 209/209/209
f 209/209/209 217/217/217 218/218/218
f 219/219/219 217/217/217 216/216/216
f 218/218/218 217/217/217 219/219/219
f 220/220/220 216/216/216 215/215/215
f 219/219/219 216/216/216 220/220/220
f 221/221/221 215/215/215 214/214/214
f 220/220/220 215/215/215 221/221/221
f 222/222/222 214/214/214 184/184/184
f 221/221/221 214/214/214 222/222/222
f 218/218/218 223/223/223 212/212/212
f 223/223/223 210/210/210 212/212/212
f 222/222/222 184/184/184 224/224/224
f 224/224/224 184/184/184 181/181/181
f 224/224/224 181/181/181 225/225/225
f 181/181/181 185/185/185 225/225/225
f 221/221/221 226/226/226 220/220/220
f 222/222/222 227/227/227 221/221/221
f 221/221/221 227/227/227 226/226/226
f 224/224/224 228/228/228 222/222/222
f 222/222/222 228/228/228 227/227/227
f 225/225/225 229/229/229 224/224/224
f 224/224/224 229/229/229 228/228/228
f 185/185/185 230/230/230 225/225/225
f 225/225/225 230/230/230 229/229/229
f 220/220/220 226/226/226 231/231/231
f 220/220/220 231/231/231 219/219/219
f 227/227/227 228/228/228 232/232/232
f 228/228/228 229/229/229 233/233/233
f 228/228/228 233/233/233 232/232/232
f 226/226/226 227/227/227 234/234/234
f 227/227/227 232/232/232 234/234/234
f 229/229/229 230/230/230 235/235/235
f 229/229/229 235/235/235 233/233/233
f 231/231/231 226/226/226 236/236/236
f 226/226/226 234/234/234 236/236/236
f 234/234/234 232/232/232 237/237/237
f 237/237/237 232/232/232 233/233/233
f 236/236/236 234/234/234 238/238/238
f 234/234/234 237/237/237 238/238/238
f 219/219/219 231/231/231 239/239/239
f 231/231/231 236/236/236 240/240/240
f 239/239/239 231/231/231 240/240/240
f 219/219/219 239/239/239 241/241/241
f 218/218/218 219/219/219 241/241/241
f 242/242/242 218/218/218 241/241/241
f 239/239/239 242/242/242 241/241/241
f 242/242/242 223/223/223 218/218/218
f 243/243/243 240/240/240 236/236/236
f 239/239/239 240/240/240 244/244/244
f 244/244/244 240/240/240 243/243/243
f 236/236/236 238/238/238 245/245/245
f 243/243/243 236/236/236 245/245/245
f 239/239/239 246/246/246 242/242/242
f 244/244/244 246/246/246 239/239/239
f 247/247/247 223/223/223 242/242/242
f 242/242/242 246/246/246 248/248/248
f 242/242/242 248/248/248 247/247/247
f 244/244/244 249/249/249 246/246/246
f 248/248/248 246/246/246 249/249/249
f 244/244/244 243/243/243 250/250/250
f 250/250/250 249/249/249 244/244/244
f 247/247/247 251/251/251 223/223/223
f 223/223/223 251/251/251 210/210/210
f 251/251/251 252/252/252 210/210/210
f 206/206/206 210/210/210 252/252/252
f 253/253/253 206/206/206 252/252/252
f 253/253/253 208/208/208 206/206/206
f 251/251/251 254/254/254 252/252/252
f 254/254/254 253/253/253 252/252/252
f 255/255/255 251/251/251 247/247/247
f 255/255/255 254/254/254 251/251/251
f 247/247/247 248/248/248 256/256/256
f 247/247/247 256/256/256 255/255/255
f 257/257/257 208/208/208 253/253/253
f 257/257/257 201/201/201 208/208/208
f 254/254/254 258/258/258 253/253/253
f 258/258/258 257/257/257 253/253/253
f 259/259/259 254/254/254 255/255/255
f 259/259/259 258/258/258 254/254/254
f 256/256/256 248/248/248 260/260/260
f 248/248/248 249/249/249 260/260/260
f 255/255/255 256/256/256 261/261/261
f 255/255/255 261/261/261 259/259/259
f 256/256/256 260/260/260 262/262/262
f 261/261/261 256/256/256 262/262/262
f 263/263/263 260/260/260 249/249/249
f 262/262/262 260/260/260 263/263/263
f 264/264/264 201/201/201 257/257/257
f 199/199/199 201/201/201 264/264/264
f 263/263/263 249/249/249 265/265/265
f 250/250/250 265/265/265 249/249/249
f 264/264/264 266/266/266 199/199/199
f 199/199/199 266/266/266 60/60/60
f 60/60/60 266/266/266 267/267/267
f 60/60/60 267/267/267 52/52/52
f 264/264/264 268/268/268 266/266/266
f 267/267/267 266/266/266 268/268/268
f 264/264/264 257/257/257 269/269/269
f 269/269/269 268/268/268 264/264/264
f 269/269/269 257/257/257 270/270/270
f 258/258/258 270/270/270 257/257/257
f 271/271/271 270/270/270 258/258/258
f 271/271/271 258/258/258 259/259/259
f 269/269/269 270/270/270 272/272/272
f 272/272/272 270/270/270 271/271/271
f 269/269/269 273/273/273 268/268/268
f 272/272/272 273/273/273 269/269/269
f 259/259/259 274/274/274 271/271/271
f 259/259/259 261/261/261 274/274/274
f 274/274/274 261/261/261 275/275/275
f 261/261/261 262/262/262 275/275/275
f 275/275/275 262/262/262 276/276/276
f 262/262/262 263/263/263 276/276/276
f 263/263/263 277/277/277 276/276/276
f 275/275/275 276/276/276 278/278/278
f 277/277/277 278/278/278 276/276/276
f 263/263/263 279/279/279 277/277/277
f 265/265/265 279/279/279 263/263/263
f 280/280/280 268/268/268 273/273/273
f 281/281/281 280/280/280 273/273/273
f 272/272/272 281/281/281 273/273/273
f 280/280/280 282/282/282 268/268/268
f 267/267/267 268/268/268 282/282/282
f 283/283/283 267/267/267 282/282/282
f 52/52/52 267/267/267 283/283/283
f 284/284/284 282/282/282 280/280/280
f 283/283/283 282/282/282 284/284/284
f 52/52/52 283/283/283 285/285/285
f 28/28/28 52/52/52 285/285/285
f 33/33/33 28/28/28 285/285/285
f 283/283/283 33/33/33 285/285/285
f 283/283/283 286/286/286 33/33/33
f 284/284/284 286/286/286 283/283/283
f 286/286/286 17/17/17 33/33/33
f 286/286/286 287/287/287 17/17/17
f 18/18/18 17/17/17 287/287/287
f 18/18/18 287/287/287 288/288/288
f 288/288/288 287/287/287 289/289/289
f 289/289/289 287/287/287 286/286/286
f 288/288/288 289/289/289 290/290/290
f 289/289/289 286/286/286 291/291/291
f 284/284/284 291/291/291 286/286/286
f 290/290/290 289/289/289 292/292/292
f 292/292/292 289/289/289 291/291/291
f 290/290/290 292/292/292 293/293/293
f 294/294/294 291/291/291 284/284/284
f 292/292/292 291/291/291 294/294/294
f 293/293/293 292/292/292 295/295/295
f 293/293/293 295/295/295 296/296/296
f 297/297/297 295/295/295 292/292/292
f 297/297/297 292/292/292 294/294/294
f 296/296/296 295/295/295 298/298/298
f 298/298/298 295/295/295 297/297/297
f 296/296/296 298/298/298 299/299/299
f 294/294/294 284/284/284 300/300/300
f 284/284/284 280/280/280 300/300/300
f 301/301/301 297/297/297 294/294/294
f 301/301/301 294/294/294 300/300/300
f 302/302/302 300/300/300 280/280/280
f 302/302/302 301/301/301 300/300/300
f 281/281/281 302/302/302 280/280/280
f 303/303/303 297/297/297 301/301/301
f 298/298/298 297/297/297 303/303/303
f 299/299/299 298/298/298 304/304/304
f 299/299/299 304/304/304 305/305/305
f 306/306/306 301/301/301 302/302/302
f 303/303/303 301/301/301 306/306/306
f 307/307/307 302/302/302 281/281/281
f 306/306/306 302/302/302 307/307/307
f 308/308/308 304/304/304 298/298/298
f 308/308/308 298/298/298 303/303/303
f 305/305/305 304/304/304 309/309/309
f 309/309/309 304/304/304 308/308/308
f 305/305/305 309/309/309 310/310/310
f 311/311/311 303/303/303 306/306/306
f 307/307/307 311/311/311 306/306/306
f 311/311/311 308/308/308 303/303/303
f 307/307/307 281/281/281 312/312/312
f 312/312/312 281/281/281 272/272/272
f 310/310/310 309/309/309 313/313/313
f 310/310/310 313/313/313 314/314/314
f 309/309/309 308/308/308 315/315/315
f 313/313/313 309/309/309 315/315/315
f 316/316/316 315/315/315 308/308/308
f 316/316/316 308/308/308 311/311/311
f 307/307/307 317/317/317 311/311/311
f 312/312/312 317/317/317 307/307/307
f 312/312/312 272/272/272 318/318/318
f 272/272/272 271/271/271 318/318/318
f 271/271/271 319/319/319 318/318/318
f 319/319/319 312/312/312 318/318/318
f 271/271/271 274/274/274 319/319/319
f 314/314/314 313/313/313 320/320/320
f 314/314/314 320/320/320 321/321/321
f 313/313/313 315/315/315 322/322/322
f 322/322/322 315/315/315 316/316/316
f 323/323/323 320/320/320 313/313/313
f 323/323/323 313/313/313 322/322/322
f 321/321/321 320/320/320 324/324/324
f 324/324/324 320/320/320 323/323/323
f 321/321/321 324/324/324 325/325/325
f 319/319/319 326/326/326 312/312/312
f 312/312/312 326/326/326 317/317/317
f 319/319/319 274/274/274 327/327/327
f 274/274/274 275/275/275 327/327/327
f 328/328/328 326/326/326 319/319/319
f 319/319/319 327/327/327 328/328/328
f 329/329/329 327/327/327 275/275/275
f 328/328/328 327/327/327 329/329/329
f 329/329/329 275/275/275 278/278/278
f 317/317/317 326/326/326 330/330/330
f 328/328/328 330/330/330 326/326/326
f 325/325/325 324/324/324 331/331/331
f 325/325/325 331/331/331 332/332/332
f 332/332/332 331/331/331 333/333/333
f 332/332/332 333/333/333 334/334/334
f 335/335/335 331/331/331 324/324/324
f 333/333/333 331/331/331 335/335/335
f 336/336/336 329/329/329 278/278/278
f 277/277/277 336/336/336 278/278/278
f 328/328/328 329/329/329 337/337/337
f 337/337/337 330/330/330 328/328/328
f 317/317/317 330/330/330 338/338/338
f 311/311/311 317/317/317 338/338/338
f 311/311/311 338/338/338 316/316/316
f 339/339/339 338/338/338 330/330/330
f 316/316/316 338/338/338 339/339/339
f 335/335/335 324/324/324 340/340/340
f 341/341/341 335/335/335 340/340/340
f 324/324/324 323/323/323 340/340/340
f 340/340/340 323/323/323 342/342/342
f 342/342/342 323/323/323 322/322/322
f 322/322/322 316/316/316 343/343/343
f 316/316/316 339/339/339 343/343/343
f 342/342/342 322/322/322 343/343/343
f 340/340/340 342/342/342 344/344/344
f 341/341/341 340/340/340 344/344/344
f 345/345/345 342/342/342 343/343/343
f 344/344/344 342/342/342 345/345/345
f 345/345/345 343/343/343 339/339/339
f 339/339/339 330/330/330 346/346/346
f 337/337/337 346/346/346 330/330/330
f 344/344/344 345/345/345 347/347/347
f 347/347/347 341/341/341 344/344/344
f 348/348/348 345/345/345 339/339/339
f 348/348/348 339/339/339 346/346/346
f 347/347/347 345/345/345 348/348/348
f 349/349/349 346/346/346 337/337/337
f 349/349/349 348/348/348 346/346/346
f 347/347/347 348/348/348 350/350/350
f 350/350/350 348/348/348 349/349/349
f 347/347/347 351/351/351 341/341/341
f 350/350/350 351/351/351 347/347/347
f 337/337/337 352/352/352 349/349/349
f 337/337/337 329/329/329 352/352/352
f 336/336/336 352/352/352 329/329/329
f 349/349/349 352/352/352 353/353/353
f 353/353/353 352/352/352 336/336/336
f 350/350/350 349/349/349 354/354/354
f 349/349/349 353/353/353 354/354/354
f 355/355/355 350/350/350 354/354/354
f 353/353/353 355/355/355 354/354/354
f 353/353/353 336/336/336 356/356/356
f 356/356/356 336/336/336 277/277/277
f 350/350/350 357/357/357 351/351/351
f 355/355/355 357/357/357 350/350/350
f 353/353/353 358/358/358 355/355/355
f 356/356/356 358/358/358 353/353/353
f 351/351/351 357/357/357 359/359/359
f 360/360/360 357/357/357 355/355/355
f 360/360/360 359/359/359 357/357/357
f 355/355/355 358/358/358 361/361/361
f 355/355/355 361/361/361 360/360/360
f 351/351/351 359/359/359 362/362/362
f 341/341/341 351/351/351 362/362/362
f 363/363/363 359/359/359 360/360/360
f 364/364/364 360/360/360 361/361/361
f 364/364/364 363/363/363 360/360/360
f 365/365/365 362/362/362 359/359/359
f 363/363/363 365/365/365 359/359/359
f 358/358/358 366/366/366 361/361/361
f 356/356/356 367/367/367 358/358/358
f 358/358/358 367/367/367 366/366/366
f 368/368/368 364/364/364 361/361/361
f 368/368/368 361/361/361 366/366/366
f 369/369/369 363/363/363 364/364/364
f 369/369/369 364/364/364 370/370/370
f 370/370/370 364/364/364 368/368/368
f 371/371/371 363/363/363 369/369/369
f 371/371/371 365/365/365 363/363/363
f 370/370/370 368/368/368 372/372/372
f 373/373/373 365/365/365 371/371/371
f 372/372/372 368/368/368 374/374/374
f 374/374/374 368/368/368 366/366/366
f 372/372/372 374/374/374 375/375/375
f 373/373/373 376/376/376 365/365/365
f 377/377/377 376/376/376 373/373/373
f 365/365/365 376/376/376 362/362/362
f 374/374/374 366/366/366 378/378/378
f 378/378/378 366/366/366 367/367/367
f 375/375/375 374/374/374 379/379/379
f 379/379/379 374/374/374 378/378/378
f 375/375/375 379/379/379 380/380/380
f 377/377/377 381/381/381 376/376/376
f 382/382/382 381/381/381 377/377/377
f 376/376/376 383/383/383 362/362/362
f 376/376/376 381/381/381 383/383/383
f 341/341/341 362/362/362 383/383/383
f 384/384/384 341/341/341 383/383/383
f 381/381/381 384/384/384 383/383/383
f 384/384/384 335/335/335 341/341/341
f 333/333/333 335/335/335 384/384/384
f 382/382/382 385/385/385 381/381/381
f 381/381/381 385/385/385 384/384/384
f 385/385/385 333/333/333 384/384/384
f 386/386/386 385/385/385 382/382/382
f 385/385/385 387/387/387 333/333/333
f 386/386/386 387/387/387 385/385/385
f 334/334/334 333/333/333 387/387/387
f 334/334/334 387/387/387 388/388/388
f 388/388/388 387/387/387 386/386/386
f 388/388/388 386/386/386 389/389/389
f 380/380/380 379/379/379 390/390/390
f 380/380/380 390/390/390 391/391/391
f 390/390/390 379/379/379 392/392/392
f 379/379/379 378/378/378 392/392/392
f 391/391/391 390/390/390 393/393/393
f 391/391/391 393/393/393 394/394/394
f 393/393/393 395/395/395 394/394/394
f 396/396/396 392/392/392 378/378/378
f 378/378/378 367/367/367 396/396/396
f 396/396/396 367/367/367 356/356/356
f 390/390/390 392/392/392 397/397/397
f 393/393/393 390/390/390 397/397/397
f 396/396/396 398/398/398 392/392/392
f 398/398/398 397/397/397 392/392/392
f 396/396/396 356/356/356 399/399/399
f 356/356/356 277/277/277 399/399/399
f 400/400/400 396/396/396 399/399/399
f 277/277/277 400/400/400 399/399/399
f 400/400/400 398/398/398 396/396/396
f 277/277/277 279/279/279 400/400/400
f 401/401/401 398/398/398 400/400/400
f 279/279/279 401/401/401 400/400/400
f 398/398/398 402/402/402 397/397/397
f 401/401/401 402/402/402 398/398/398
f 393/393/393 397/397/397 403/403/403
f 403/403/403 397/397/397 402/402/402
f 279/279/279 404/404/404 401/401/401
f 265/265/265 404/404/404 279/279/279
f 405/405/405 402/402/402 401/401/401
f 403/403/403 402/402/402 405/405/405
f 403/403/403 406/406/406 393/393/393
f 393/393/393 406/406/406 395/395/395
f 407/407/407 404/404/404 265/265/265
f 407/407/407 265/265/265 250/250/250
f 408/408/408 401/401/401 404/404/404
f 405/405/405 401/401/401 408/408/408
f 408/408/408 404/404/404 407/407/407
f 403/403/403 409/409/409 406/406/406
f 405/405/405 409/409/409 403/403/403
f 395/395/395 406/406/406 410/410/410
f 410/410/410 406/406/406 409/409/409
f 395/395/395 410/410/410 411/411/411
f 250/250/250 412/412/412 407/407/407
f 250/250/250 243/243/243 412/412/412
f 408/408/408 413/413/413 405/405/405
f 405/405/405 413/413/413 409/409/409
f 407/407/407 414/414/414 408/408/408
f 407/407/407 412/412/412 414/414/414
f 408/408/408 414/414/414 413/413/413
f 415/415/415 412/412/412 243/243/243
f 414/414/414 412/412/412 415/415/415
f 415/415/415 243/243/243 245/245/245
f 411/411/411 410/410/410 416/416/416
f 411/411/411 416/416/416 417/417/417
f 410/410/410 409/409/409 418/418/418
f 416/416/416 410/410/410 418/418/418
f 409/409/409 413/413/413 419/419/419
f 419/419/419 413/413/413 414/414/414
f 409/409/409 419/419/419 418/418/418
f 418/418/418 419/419/419 420/420/420
f 419/419/419 414/414/414 421/421/421
f 414/414/414 415/415/415 421/421/421
f 420/420/420 419/419/419 421/421/421
f 422/422/422 415/415/415 245/245/245
f 421/421/421 415/415/415 422/422/422
f 422/422/422 245/245/245 238/238/238
f 417/417/417 416/416/416 423/423/423
f 417/417/417 423/423/423 424/424/424
f 416/416/416 418/418/418 425/425/425
f 418/418/418 420/420/420 425/425/425
f 423/423/423 416/416/416 425/425/425
f 424/424/424 423/423/423 426/426/426
f 424/424/424 426/426/426 427/427/427
f 423/423/423 425/425/425 428/428/428
f 420/420/420 428/428/428 425/425/425
f 426/426/426 423/423/423 428/428/428
f 427/427/427 426/426/426 429/429/429
f 427/427/427 429/429/429 430/430/430
f 429/429/429 431/431/431 430/430/430
f 426/426/426 428/428/428 432/432/432
f 429/429/429 426/426/426 432/432/432
f 420/420/420 433/433/433 428/428/428
f 433/433/433 432/432/432 428/428/428
f 429/429/429 434/434/434 431/431/431
f 429/429/429 432/432/432 435/435/435
f 435/435/435 434/434/434 429/429/429
f 431/431/431 434/434/434 436/436/436
f 431/431/431 436/436/436 437/437/437
f 437/437/437 436/436/436 438/438/438
f 437/437/437 438/438/438 439/439/439
f 438/438/438 440/440/440 439/439/439
f 436/436/436 434/434/434 441/441/441
f 435/435/435 441/441/441 434/434/434
f 435/435/435 432/432/432 442/442/442
f 433/433/433 442/442/442 432/432/432
f 435/435/435 442/442/442 443/443/443
f 443/443/443 441/441/441 435/435/435
f 436/436/436 441/441/441 444/444/444
f 438/438/438 436/436/436 444/444/444
f 445/445/445 442/442/442 433/433/433
f 443/443/443 442/442/442 445/445/445
f 438/438/438 446/446/446 440/440/440
f 446/446/446 447/447/447 440/440/440
f 448/448/448 444/444/444 441/441/441
f 443/443/443 448/448/448 441/441/441
f 445/445/445 433/433/433 449/449/449
f 449/449/449 433/433/433 420/420/420
f 446/446/446 450/450/450 447/447/447
f 451/451/451 447/447/447 450/450/450
f 451/451/451 450/450/450 452/452/452
f 452/452/452 450/450/450 453/453/453
f 453/453/453 450/450/450 446/446/446
f 452/452/452 453/453/453 454/454/454
f 449/449/449 420/420/420 455/455/455
f 420/420/420 421/421/421 455/455/455
f 421/421/421 422/422/422 455/455/455
f 422/422/422 449/449/449 455/455/455
f 422/422/422 456/456/456 449/449/449
f 238/238/238 456/456/456 422/422/422
f 238/238/238 237/237/237 456/456/456
f 449/449/449 456/456/456 457/457/457
f 457/457/457 456/456/456 237/237/237
f 449/449/449 457/457/457 445/445/445
f 457/457/457 237/237/237 458/458/458
f 237/237/237 233/233/233 458/458/458
f 445/445/445 457/457/457 459/459/459
f 459/459/459 457/457/457 458/458/458
f 233/233/233 460/460/460 458/458/458
f 459/459/459 458/458/458 460/460/460
f 233/233/233 235/235/235 460/460/460
f 445/445/445 459/459/459 461/461/461
f 443/443/443 445/445/445 461/461/461
f 462/462/462 443/443/443 461/461/461
f 459/459/459 462/462/462 461/461/461
f 462/462/462 448/448/448 443/443/443
f 460/460/460 463/463/463 459/459/459
f 459/459/459 463/463/463 462/462/462
f 235/235/235 464/464/464 460/460/460
f 460/460/460 464/464/464 463/463/463
f 462/462/462 463/463/463 465/465/465
f 465/465/465 463/463/463 464/464/464
f 466/466/466 448/448/448 462/462/462
f 462/462/462 465/465/465 466/466/466
f 466/466/466 465/465/465 467/467/467
f 466/466/466 468/468/468 448/448/448
f 448/448/448 468/468/468 444/444/444
f 235/235/235 469/469/469 464/464/464
f 230/230/230 469/469/469 235/235/235
f 465/465/465 464/464/464 470/470/470
f 467/467/467 465/465/465 470/470/470
f 230/230/230 471/471/471 469/469/469
f 185/185/185 471/471/471 230/230/230
f 464/464/464 469/469/469 472/472/472
f 464/464/464 472/472/472 470/470/470
f 471/471/471 472/472/472 469/469/469
f 473/473/473 471/471/471 185/185/185
f 185/185/185 152/152/152 473/473/473
f 473/473/473 152/152/152 138/138/138
f 473/473/473 474/474/474 471/471/471
f 471/471/471 474/474/474 472/472/472
f 472/472/472 475/475/475 470/470/470
f 467/467/467 470/470/470 475/475/475
f 473/473/473 138/138/138 476/476/476
f 476/476/476 474/474/474 473/473/473
f 472/472/472 477/477/477 475/475/475
f 474/474/474 477/477/477 472/472/472
f 138/138/138 478/478/478 476/476/476
f 138/138/138 136/136/136 478/478/478
f 136/136/136 134/134/134 478/478/478
f 476/476/476 479/479/479 474/474/474
f 478/478/478 479/479/479 476/476/476
f 474/474/474 479/479/479 477/477/477
f 477/477/477 480/480/480 475/475/475
f 480/480/480 467/467/467 475/475/475
f 134/134/134 481/481/481 478/478/478
f 478/478/478 481/481/481 479/479/479
f 479/479/479 482/482/482 477/477/477
f 477/477/477 482/482/482 480/480/480
f 479/479/479 481/481/481 482/482/482
f 134/134/134 483/483/483 481/481/481
f 135/135/135 483/483/483 134/134/134
f 484/484/484 483/483/483 135/135/135
f 481/481/481 485/485/485 482/482/482
f 481/481/481 483/483/483 485/485/485
f 484/484/484 485/485/485 483/483/483
f 480/480/480 482/482/482 485/485/485
f 486/486/486 485/485/485 484/484/484
f 486/486/486 487/487/487 485/485/485
f 480/480/480 485/485/485 487/487/487
f 488/488/488 487/487/487 486/486/486
f 487/487/487 489/489/489 480/480/480
f 480/480/480 489/489/489 467/467/467
f 488/488/488 490/490/490 487/487/487
f 487/487/487 490/490/490 489/489/489
f 491/491/491 490/490/490 488/488/488
f 491/491/491 492/492/492 490/490/490
f 489/489/489 490/490/490 492/492/492
f 493/493/493 492/492/492 491/491/491
f 467/467/467 489/489/489 494/494/494
f 489/489/489 492/492/492 494/494/494
f 493/493/493 495/495/495 492/492/492
f 454/454/454 495/495/495 493/493/493
f 454/454/454 453/453/453 495/495/495
f 492/492/492 495/495/495 496/496/496
f 496/496/496 495/495/495 453/453/453
f 492/492/492 496/496/496 494/494/494
f 467/467/467 494/494/494 497/497/497
f 466/466/466 467/467/467 497/497/497
f 497/497/497 468/468/468 466/466/466
f 494/494/494 498/498/498 497/497/497
f 494/494/494 496/496/496 498/498/498
f 497/497/497 498/498/498 468/468/468
f 496/496/496 453/453/453 499/499/499
f 498/498/498 496/496/496 499/499/499
f 453/453/453 446/446/446 499/499/499
f 499/499/499 446/446/446 438/438/438
f 468/468/468 498/498/498 500/500/500
f 498/498/498 499/499/499 500/500/500
f 499/499/499 438/438/438 500/500/500
f 468/468/468 500/500/500 444/444/444
f 438/438/438 444/444/444 500/500/500
