o plane_13
v 1.97812796 -0.179800794 -7.1098503e-17
v 1.97812796 0.179800794 7.1098503e-17
v 0 0.179800794 7.1098503e-17
v 0 -0.179800794 -7.1098503e-17
v -1.97812796 -0.179800794 -7.1098503e-17
v 0 -0.179800794 -7.1098503e-17
v 0 0.179800794 7.1098503e-17
v -1.97812796 0.179800794 7.1098503e-17
vt 3.95476818e-05 3.95476818e-05
vt 3.95476818e-05 0.999960423
vt 0.999960423 0.999960423
vt 0.999960423 3.95476818e-05
vt 3.95476818e-05 3.95476818e-05
vt 0.999960423 3.95476818e-05
vt 0.999960423 0.999960423
vt 3.95476818e-05 0.999960423
vn 0 0 1
vn 0 0 1
vn 0 0 1
vn 0 0 1
vn 0 0 1
vn 0 0 1
vn 0 0 1
vn 0 0 1
g submesh_0
usemtl submesh_0
f 1/1/1 2/2/2 3/3/3
f 1/1/1 3/3/3 4/4/4
f 5/5/5 6/6/6 7/7/7
f 5/5/5 7/7/7 8/8/8
