o plane_10
v 1.61086607 0.491337389 -7.84826451e-17
v 1.8160944 0.388888896 -6.25381035e-17
v 1.8160944 0.5 -8.04061311e-17
v 1.61086607 0.382151306 -6.1042058e-17
v 1.40578413 0.474318802 -7.47037598e-17
v 1.61086607 0.272965223 -4.36014676e-17
v 1.8160944 0.277777791 -4.46700725e-17
v 1.40578413 0.368914634 -5.81029265e-17
v 1.20099413 0.448406279 -6.89500238e-17
v 1.61086607 0.163779125 -2.61608806e-17
v 1.8160944 0.166666672 -2.68020448e-17
v 1.20099413 0.348760426 -5.36277966e-17
v 0.996659517 0.41283083 -6.10506871e-17
v 1.40578413 0.263510436 -4.15020899e-17
v 1.61086607 0.0545930415 -8.72029353e-18
v 1.8160944 0.055555556 -8.93401466e-18
v 0.996659517 0.321090639 -4.74838696e-17
v 0.79296428 0.366520435 -5.07677138e-17
v 1.20099413 0.249114603 -3.83055695e-17
v 1.20099413 0.149468765 -2.29833407e-17
v 1.40578413 0.158106267 -2.49012533e-17
v 1.61086607 -0.0545930415 8.72029353e-18
v 1.8160944 -0.055555556 8.93401466e-18
v 1.8160944 -0.166666672 2.68020448e-17
v 1.40578413 0.0527020879 -8.30041748e-18
v 0.79296428 0.285071462 -3.94859992e-17
v 0.590197086 0.308003366 -3.77743177e-17
v 0.996659517 0.229350463 -3.39170488e-17
v 0.590197086 0.239558175 -2.93800227e-17
v 0.388776362 0.235233292 -2.16161121e-17
v 0.79296428 0.20362246 -2.82042847e-17
v 0.388776362 0.182959229 -1.6812532e-17
v 0.189346015 0.145300061 -1.64692539e-18
v 1.40578413 -0.0527020879 8.30041748e-18
v 1.20099413 0.0498229191 -7.66111357e-18
v 0.996659517 0.0458700918 -6.78341e-18
v 0.996659517 0.137610286 -2.03502296e-17
v 0.79296428 0.122173481 -1.69225718e-17
v 0.590197086 0.171112984 -2.0985731e-17
v 0.388776362 0.130685166 -1.20089519e-17
v 0.189346015 0.113011159 -1.28094201e-18
v 0.590197086 0.102667794 -1.25914392e-17
v 1.20099413 -0.0498229191 7.66111357e-18
v 0.111738682 0.0775449872 6.59412999e-18
v 0.111738682 0.0997006968 8.47816618e-18
v 0.79296428 0.0407244936 -5.64085727e-18
v 0.79296428 -0.0407244936 5.64085727e-18
v 0.590197086 0.0342225954 -4.19714627e-18
v 0.388776362 0.0784110948 -7.20537097e-18
v 0.189346015 0.0807222575 -9.14958538e-19
v 0.996659517 -0.0458700918 6.78341e-18
v 0.111738682 0.0553892776 4.71009255e-18
v 0.0441635847 0.0387909859 1.34511917e-17
v 0.0441635847 0.0498741232 1.72943878e-17
v 0.0135709047 0.0161731951 1.65555286e-17
v 0.0135709047 0.0207940396 2.12856799e-17
v 0.0135709047 0.0115522845 1.18253773e-17
v 0.0441635847 0.0277078487 9.60799398e-18
v 0.0135709047 0.0069313636 7.09522608e-18
v 0.0441635847 0.0166247152 5.76479622e-18
v 0.0135709047 0.00231045345 2.36507543e-18
v 0.111738682 0.0332335718 2.82605553e-18
v 0.0441635847 0.00554156955 1.92159867e-18
v 0.0135709047 -0.00231045345 -2.36507543e-18
v 0.189346015 0.048433356 -5.48975164e-19
v 0.0441635847 -0.00554156955 -1.92159867e-18
v 0.0135709047 -0.0069313636 -7.09522608e-18
v 0.111738682 0.0110778557 9.42018407e-19
v 0.388776362 0.0261370316 -2.40179025e-18
v 0.0441635847 -0.0166247152 -5.76479622e-18
v 0.0135709047 -0.0115522845 -1.18253773e-17
v 0.189346015 0.0161444508 -1.82991713e-19
v 0.111738682 -0.0110778557 -9.42018407e-19
v 0.388776362 -0.0261370316 2.40179025e-18
v 0.0441635847 -0.0277078487 -9.60799398e-18
v 0.0135709047 -0.0161731951 -1.65555286e-17
v 0.189346015 -0.0161444508 1.82991713e-19
v 0.111738682 -0.0332335718 -2.82605553e-18
v 0.590197086 -0.0342225954 4.19714627e-18
v 0.590197086 -0.102667794 1.25914392e-17
v 0.388776362 -0.0784110948 7.20537097e-18
v 0.189346015 -0.048433356 5.48975164e-19
v 0.111738682 -0.0553892776 -4.71009255e-18
v 0.0441635847 -0.0387909859 -1.34511917e-17
v 0.388776362 -0.130685166 1.20089519e-17
v 0.0441635847 -0.0498741232 -1.72943878e-17
v 0.0135709047 -0.0207940396 -2.12856799e-17
v 0.111738682 -0.0997006968 -8.47816618e-18
v 0.111738682 -0.0775449872 -6.59412999e-18
v 0.189346015 -0.145300061 1.64692539e-18
v 0.189346015 -0.0807222575 9.14958538e-19
v 0.189346015 -0.113011159 1.28094201e-18
v 0.388776362 -0.235233292 2.16161121e-17
v 0.388776362 -0.182959229 1.6812532e-17
v 0.590197086 -0.308003366 3.77743177e-17
v 0.590197086 -0.171112984 2.0985731e-17
v 0.590197086 -0.239558175 2.93800227e-17
v 0.79296428 -0.366520435 5.07677138e-17
v 0.79296428 -0.122173481 1.69225718e-17
v 0.79296428 -0.285071462 3.94859992e-17
v 0.996659517 -0.41283083 6.10506871e-17
v 0.79296428 -0.20362246 2.82042847e-17
v 0.996659517 -0.321090639 4.74838696e-17
v 1.20099413 -0.448406279 6.89500238e-17
v 0.996659517 -0.137610286 2.03502296e-17
v 0.996659517 -0.229350463 3.39170488e-17
v 1.20099413 -0.348760426 5.36277966e-17
v 1.40578413 -0.474318802 7.47037598e-17
v 1.20099413 -0.149468765 2.29833407e-17
v 1.20099413 -0.249114603 3.83055695e-17
v 1.40578413 -0.368914634 5.81029265e-17
v 1.61086607 -0.491337389 7.84826451e-17
v 1.40578413 -0.158106267 2.49012533e-17
v 1.40578413 -0.263510436 4.15020899e-17
v 1.61086607 -0.272965223 4.36014676e-17
v 1.61086607 -0.382151306 6.1042058e-17
v 1.8160944 -0.5 8.04061311e-17
v 1.8160944 -0.388888896 6.25381035e-17
v 1.8160944 -0.277777791 4.46700725e-17
v 1.61086607 -0.163779125 2.61608806e-17
v 0.0135709047 -0.0207940396 -2.12856799e-17
v 0 -0.0023053661 -1.79326156e-17
v 0 -0.00296405703 -2.30562186e-17
v 0.0135709047 -0.0161731951 -1.65555286e-17
v 0.0135709047 -0.0115522845 -1.18253773e-17
v 0 -0.00164670497 -1.28090109e-17
v 0.0135709047 -0.0069313636 -7.09522608e-18
v 0 -0.00098801963 -7.68540621e-18
v 0.0135709047 -0.00231045345 -2.36507543e-18
v 0 -0.000329341507 -2.56180214e-18
v 0.0135709047 0.00231045345 2.36507543e-18
v 0 0.000329341507 2.56180214e-18
v 0.0135709047 0.0069313636 7.09522608e-18
v 0 0.00098801963 7.68540621e-18
v 0.0135709047 0.0115522845 1.18253773e-17
v 0 0.00164670497 1.28090109e-17
v 0.0135709047 0.0161731951 1.65555286e-17
v 0 0.0023053661 1.79326156e-17
v 0.0135709047 0.0207940396 2.12856799e-17
v 0 0.00296405703 2.30562186e-17
vt 0.194029778 1
vt 0 0.888888896
vt 0 1
vt 0.194029778 0.888888896
vt 0.340184033 1
vt 0.194029778 0.777777791
vt 0 0.777777791
vt 0.340184033 0.888888896
vt 0.455516517 1
vt 0.194029778 0.666666687
vt 0 0.666666687
vt 0.455516517 0.888888896
vt 0.556342602 1
vt 0.340184033 0.777777791
vt 0.194029778 0.555555582
vt 0 0.555555582
vt 0.556342602 0.888888896
vt 0.648102462 1
vt 0.455516517 0.777777791
vt 0.455516517 0.666666687
vt 0.340184033 0.666666687
vt 0.194029778 0.444444448
vt 0 0.444444448
vt 0 0.333333343
vt 0.340184033 0.555555582
vt 0.648102462 0.888888896
vt 0.731683671 1
vt 0.556342602 0.777777791
vt 0.731683671 0.888888896
vt 0.807382345 1
vt 0.648102462 0.777777791
vt 0.807382345 0.888888896
vt 0.873486876 1
vt 0.340184033 0.444444448
vt 0.455516517 0.555555582
vt 0.556342602 0.555555582
vt 0.556342602 0.666666687
vt 0.648102462 0.666666687
vt 0.731683671 0.777777791
vt 0.807382345 0.777777791
vt 0.873486876 0.888888896
vt 0.731683671 0.666666687
vt 0.455516517 0.444444448
vt 0.913282633 0.888888896
vt 0.913282633 1
vt 0.648102462 0.555555582
vt 0.648102462 0.444444448
vt 0.731683671 0.555555582
vt 0.807382345 0.666666687
vt 0.873486876 0.777777791
vt 0.556342602 0.444444448
vt 0.913282633 0.777777791
vt 0.94793421 0.888888896
vt 0.94793421 1
vt 1 0.888888896
vt 1 1
vt 1 0.777777791
vt 0.94793421 0.777777791
vt 1 0.666666687
vt 0.94793421 0.666666687
vt 1 0.555555582
vt 0.913282633 0.666666687
vt 0.94793421 0.555555582
vt 1 0.444444448
vt 0.873486876 0.666666687
vt 0.94793421 0.444444448
vt 1 0.333333343
vt 0.913282633 0.555555582
vt 0.807382345 0.555555582
vt 0.94793421 0.333333343
vt 1 0.222222209
vt 0.873486876 0.555555582
vt 0.913282633 0.444444448
vt 0.807382345 0.444444448
vt 0.94793421 0.222222209
vt 1 0.111111104
vt 0.873486876 0.444444448
vt 0.913282633 0.333333343
vt 0.731683671 0.444444448
vt 0.731683671 0.333333343
vt 0.807382345 0.333333343
vt 0.873486876 0.333333343
vt 0.913282633 0.222222209
vt 0.94793421 0.111111104
vt 0.807382345 0.222222209
vt 0.94793421 0
vt 1 0
vt 0.913282633 0
vt 0.913282633 0.111111104
vt 0.873486876 0
vt 0.873486876 0.222222209
vt 0.873486876 0.111111104
vt 0.807382345 0
vt 0.807382345 0.111111104
vt 0.731683671 0
vt 0.731683671 0.222222209
vt 0.731683671 0.111111104
vt 0.648102462 0
vt 0.648102462 0.333333343
vt 0.648102462 0.111111104
vt 0.556342602 0
vt 0.648102462 0.222222209
vt 0.556342602 0.111111104
vt 0.455516517 0
vt 0.556342602 0.333333343
vt 0.556342602 0.222222209
vt 0.455516517 0.111111104
vt 0.340184033 0
vt 0.455516517 0.333333343
vt 0.455516517 0.222222209
vt 0.340184033 0.111111104
vt 0.194029778 0
vt 0.340184033 0.333333343
vt 0.340184033 0.222222209
vt 0.194029778 0.222222209
vt 0.194029778 0.111111104
vt 0.00369891524 0
vt 0 0.111111104
vt 0 0.222222209
vt 0.194029778 0.333333343
vt 1 0
vt 0.970580757 0.111111104
vt 0.970580757 0
vt 1 0.111111104
vt 1 0.222222209
vt 0.970580757 0.222222209
vt 1 0.333333343
vt 0.970580757 0.333333343
vt 1 0.444444448
vt 0.970580757 0.444444448
vt 1 0.555555582
vt 0.970580757 0.555555582
vt 1 0.666666687
vt 0.970580757 0.666666687
vt 1 0.777777791
vt 0.970580757 0.777777791
vt 1 0.888888896
vt 0.970580757 0.888888896
vt 1 1
vt 0.970580757 1
vn 0 0 1
vn 0 0 1
vn 0 0 1
vn 0 0 1
vn 0 0 1
vn 0 0 1
vn 0 0 1
vn 0 0 1
vn 0 0 1
vn 0 0 1
vn 0 0 1
vn 0 0 1
vn 0 0 1
vn 0 0 1
vn 0 0 1
vn 0 0 1
vn 0 0 1
vn 0 0 1
vn 0 0 1
vn 0 0 1
vn 0 0 1
vn 0 0 1
vn 0 0 1
vn 0 0 1
vn 0 0 1
vn 0 0 1
vn 0 0 1
vn 0 0 1
vn 0 0 1
vn 0 0 1
vn 0 0 1
vn 0 0 1
vn 0 0 1
vn 0 0 1
vn 0 0 1
vn 0 0 1
vn 0 0 1
vn 0 0 1
vn 0 0 1
vn 0 0 1
vn 0 0 1
vn 0 0 1
vn 0 0 1
vn 0 0 1
vn 0 0 1
vn 0 0 1
vn 0 0 1
vn 0 0 1
vn 0 0 1
vn 0 0 1
vn 0 0 1
vn 0 0 1
vn 0 0 1
vn 0 0 1
vn 0 0 1
vn 0 0 1
vn 0 0 1
vn 0 0 1
vn 0 0 1
vn 0 0 1
vn 0 0 1
vn 0 0 1
vn 0 0 1
vn 0 0 1
vn 0 0 1
vn 0 0 1
vn 0 0 1
vn 0 0 1
vn 0 0 1
vn 0 0 1
vn 0 0 1
vn 0 0 1
vn 0 0 1
vn 0 0 1
vn 0 0 1
vn 0 0 1
vn 0 0 1
vn 0 0 1
vn 0 0 1
vn 0 0 1
vn 0 0 1
vn 0 0 1
vn 0 0 1
vn 0 0 1
vn 0 0 1
vn 0 0 1
vn 0 0 1
vn 0 0 1
vn 0 0 1
vn 0 0 1
vn 0 0 1
vn 0 0 1
vn 0 0 1
vn 0 0 1
vn 0 0 1
vn 0 0 1
vn 0 0 1
vn 0 0 1
vn 0 0 1
vn 0 0 1
vn 0 0 1
vn 0 0 1
vn 0 0 1
vn 0 0 1
vn 0 0 1
vn 0 0 1
vn 0 0 1
vn 0 0 1
vn 0 0 1
vn 0 0 1
vn 0 0 1
vn 0 0 1
vn 0 0 1
vn 0 0 1
vn 0 0 1
vn 0 0 1
vn 0 0 1
vn 0 0 1
vn 0 0 1
vn 0 0 1
vn 0 0 1
vn 0 0 1
vn 0 0 1
vn 0 0 1
vn 0 0 1
vn 0 0 1
vn 0 0 1
vn 0 0 1
vn 0 0 1
vn 0 0 1
vn 0 0 1
vn 0 0 1
vn 0 0 1
vn 0 0 1
vn 0 0 1
vn 0 0 1
vn 0 0 1
vn 0 0 1
vn 0 0 1
vn 0 0 1
g submesh_0
usemtl submesh_0
f 1/1/1 2/2/2 3/3/3
f 1/1/1 4/4/4 2/2/2
f 5/5/5 4/4/4 1/1/1
f 2/2/2 4/4/4 6/6/6
f 2/2/2 6/6/6 7/7/7
f 5/5/5 8/8/8 4/4/4
f 6/6/6 4/4/4 8/8/8
f 9/9/9 8/8/8 5/5/5
f 7/7/7 6/6/6 10/10/10
f 7/7/7 10/10/10 11/11/11
f 9/9/9 12/12/12 8/8/8
f 13/13/13 12/12/12 9/9/9
f 6/6/6 8/8/8 14/14/14
f 10/10/10 6/6/6 14/14/14
f 11/11/11 10/10/10 15/15/15
f 11/11/11 15/15/15 16/16/16
f 13/13/13 17/17/17 12/12/12
f 18/18/18 17/17/17 13/13/13
f 8/8/8 12/12/12 19/19/19
f 8/8/8 19/19/19 14/14/14
f 19/19/19 12/12/12 17/17/17
f 14/14/14 19/19/19 20/20/20
f 10/10/10 14/14/14 21/21/21
f 15/15/15 10/10/10 21/21/21
f 14/14/14 20/20/20 21/21/21
f 16/16/16 15/15/15 22/22/22
f 16/16/16 22/22/22 23/23/23
f 22/22/22 24/24/24 23/23/23
f 15/15/15 21/21/21 25/25/25
f 20/20/20 25/25/25 21/21/21
f 22/22/22 15/15/15 25/25/25
f 18/18/18 26/26/26 17/17/17
f 27/27/27 26/26/26 18/18/18
f 19/19/19 17/17/17 28/28/28
f 20/20/20 19/19/19 28/28/28
f 27/27/27 29/29/29 26/26/26
f 30/30/30 29/29/29 27/27/27
f 17/17/17 26/26/26 31/31/31
f 17/17/17 31/31/31 28/28/28
f 31/31/31 26/26/26 29/29/29
f 30/30/30 32/32/32 29/29/29
f 33/33/33 32/32/32 30/30/30
f 22/22/22 25/25/25 34/34/34
f 20/20/20 35/35/35 25/25/25
f 34/34/34 25/25/25 35/35/35
f 36/36/36 35/35/35 20/20/20
f 20/20/20 28/28/28 37/37/37
f 36/36/36 20/20/20 37/37/37
f 28/28/28 38/38/38 37/37/37
f 28/28/28 31/31/31 38/38/38
f 38/38/38 36/36/36 37/37/37
f 31/31/31 29/29/29 39/39/39
f 38/38/38 31/31/31 39/39/39
f 29/29/29 32/32/32 40/40/40
f 29/29/29 40/40/40 39/39/39
f 33/33/33 41/41/41 32/32/32
f 41/41/41 40/40/40 32/32/32
f 38/38/38 39/39/39 42/42/42
f 40/40/40 42/42/42 39/39/39
f 34/34/34 35/35/35 43/43/43
f 43/43/43 35/35/35 36/36/36
f 44/44/44 41/41/41 33/33/33
f 44/44/44 33/33/33 45/45/45
f 42/42/42 46/46/46 38/38/38
f 38/38/38 46/46/46 36/36/36
f 36/36/36 46/46/46 47/47/47
f 42/42/42 48/48/48 46/46/46
f 47/47/47 46/46/46 48/48/48
f 40/40/40 49/49/49 42/42/42
f 49/49/49 48/48/48 42/42/42
f 41/41/41 50/50/50 40/40/40
f 50/50/50 49/49/49 40/40/40
f 43/43/43 36/36/36 51/51/51
f 36/36/36 47/47/47 51/51/51
f 52/52/52 41/41/41 44/44/44
f 52/52/52 50/50/50 41/41/41
f 53/53/53 44/44/44 45/45/45
f 53/53/53 45/45/45 54/54/54
f 55/55/55 53/53/53 54/54/54
f 55/55/55 54/54/54 56/56/56
f 57/57/57 53/53/53 55/55/55
f 58/58/58 44/44/44 53/53/53
f 57/57/57 58/58/58 53/53/53
f 58/58/58 52/52/52 44/44/44
f 59/59/59 58/58/58 57/57/57
f 59/59/59 60/60/60 58/58/58
f 60/60/60 52/52/52 58/58/58
f 61/61/61 60/60/60 59/59/59
f 62/62/62 50/50/50 52/52/52
f 60/60/60 62/62/62 52/52/52
f 61/61/61 63/63/63 60/60/60
f 63/63/63 62/62/62 60/60/60
f 64/64/64 63/63/63 61/61/61
f 62/62/62 65/65/65 50/50/50
f 50/50/50 65/65/65 49/49/49
f 64/64/64 66/66/66 63/63/63
f 67/67/67 66/66/66 64/64/64
f 63/63/63 68/68/68 62/62/62
f 68/68/68 65/65/65 62/62/62
f 66/66/66 68/68/68 63/63/63
f 65/65/65 69/69/69 49/49/49
f 49/49/49 69/69/69 48/48/48
f 67/67/67 70/70/70 66/66/66
f 71/71/71 70/70/70 67/67/67
f 68/68/68 72/72/72 65/65/65
f 65/65/65 72/72/72 69/69/69
f 66/66/66 73/73/73 68/68/68
f 70/70/70 73/73/73 66/66/66
f 73/73/73 72/72/72 68/68/68
f 48/48/48 69/69/69 74/74/74
f 72/72/72 74/74/74 69/69/69
f 71/71/71 75/75/75 70/70/70
f 76/76/76 75/75/75 71/71/71
f 73/73/73 77/77/77 72/72/72
f 72/72/72 77/77/77 74/74/74
f 70/70/70 78/78/78 73/73/73
f 75/75/75 78/78/78 70/70/70
f 78/78/78 77/77/77 73/73/73
f 48/48/48 74/74/74 79/79/79
f 47/47/47 48/48/48 79/79/79
f 74/74/74 80/80/80 79/79/79
f 80/80/80 47/47/47 79/79/79
f 77/77/77 81/81/81 74/74/74
f 74/74/74 81/81/81 80/80/80
f 78/78/78 82/82/82 77/77/77
f 77/77/77 82/82/82 81/81/81
f 75/75/75 83/83/83 78/78/78
f 83/83/83 82/82/82 78/78/78
f 76/76/76 84/84/84 75/75/75
f 84/84/84 83/83/83 75/75/75
f 82/82/82 85/85/85 81/81/81
f 80/80/80 81/81/81 85/85/85
f 86/86/86 84/84/84 76/76/76
f 86/86/86 76/76/76 87/87/87
f 88/88/88 84/84/84 86/86/86
f 88/88/88 89/89/89 84/84/84
f 84/84/84 89/89/89 83/83/83
f 90/90/90 89/89/89 88/88/88
f 83/83/83 91/91/91 82/82/82
f 89/89/89 91/91/91 83/83/83
f 82/82/82 91/91/91 85/85/85
f 90/90/90 92/92/92 89/89/89
f 89/89/89 92/92/92 91/91/91
f 93/93/93 92/92/92 90/90/90
f 91/91/91 92/92/92 94/94/94
f 93/93/93 94/94/94 92/92/92
f 91/91/91 94/94/94 85/85/85
f 95/95/95 94/94/94 93/93/93
f 94/94/94 96/96/96 85/85/85
f 80/80/80 85/85/85 96/96/96
f 95/95/95 97/97/97 94/94/94
f 94/94/94 97/97/97 96/96/96
f 98/98/98 97/97/97 95/95/95
f 96/96/96 99/99/99 80/80/80
f 80/80/80 99/99/99 47/47/47
f 98/98/98 100/100/100 97/97/97
f 101/101/101 100/100/100 98/98/98
f 97/97/97 102/102/102 96/96/96
f 97/97/97 100/100/100 102/102/102
f 96/96/96 102/102/102 99/99/99
f 101/101/101 103/103/103 100/100/100
f 102/102/102 100/100/100 103/103/103
f 104/104/104 103/103/103 101/101/101
f 47/47/47 99/99/99 105/105/105
f 47/47/47 105/105/105 51/51/51
f 105/105/105 43/43/43 51/51/51
f 99/99/99 102/102/102 106/106/106
f 99/99/99 106/106/106 105/105/105
f 102/102/102 103/103/103 106/106/106
f 104/104/104 107/107/107 103/103/103
f 108/108/108 107/107/107 104/104/104
f 105/105/105 109/109/109 43/43/43
f 106/106/106 109/109/109 105/105/105
f 103/103/103 110/110/110 106/106/106
f 103/103/103 107/107/107 110/110/110
f 106/106/106 110/110/110 109/109/109
f 108/108/108 111/111/111 107/107/107
f 110/110/110 107/107/107 111/111/111
f 112/112/112 111/111/111 108/108/108
f 43/43/43 109/109/109 113/113/113
f 43/43/43 113/113/113 34/34/34
f 109/109/109 110/110/110 114/114/114
f 110/110/110 111/111/111 114/114/114
f 109/109/109 114/114/114 113/113/113
f 111/111/111 115/115/115 114/114/114
f 115/115/115 113/113/113 114/114/114
f 112/112/112 116/116/116 111/111/111
f 111/111/111 116/116/116 115/115/115
f 117/117/117 116/116/116 112/112/112
f 117/117/117 118/118/118 116/116/116
f 115/115/115 116/116/116 118/118/118
f 115/115/115 118/118/118 119/119/119
f 24/24/24 115/115/115 119/119/119
f 34/34/34 113/113/113 120/120/120
f 115/115/115 120/120/120 113/113/113
f 24/24/24 120/120/120 115/115/115
f 34/34/34 120/120/120 22/22/22
f 22/22/22 120/120/120 24/24/24
f 121/121/121 122/122/122 123/123/123
f 121/121/121 124/124/124 122/122/122
f 122/122/122 124/124/124 125/125/125
f 122/122/122 125/125/125 126/126/126
f 126/126/126 125/125/125 127/127/127
f 126/126/126 127/127/127 128/128/128
f 128/128/128 127/127/127 129/129/129
f 128/128/128 129/129/129 130/130/130
f 130/130/130 129/129/129 131/131/131
f 130/130/130 131/131/131 132/132/132
f 132/132/132 131/131/131 133/133/133
f 132/132/132 133/133/133 134/134/134
f 134/134/134 133/133/133 135/135/135
f 134/134/134 135/135/135 136/136/136
f 136/136/136 135/135/135 137/137/137
f 136/136/136 137/137/137 138/138/138
f 138/138/138 137/137/137 139/139/139
f 138/138/138 139/139/139 140/140/140
