o disk_00
v 7.59959207e-08 0 0.729650259
v 7.91624188e-08 0 0.874336243
v 0.0856989473 0 0.870115995
v 0.0715174302 0 0.726128459
v 0.142347753 0 0.715630352
v 8.29678584e-08 0 1.02033615
v 0.10000927 0 1.01541126
v 0.199057728 0 1.00073051
v -0.0856986344 0 0.870115519
v 7.59959207e-08 0 0.729650259
v -0.0715171471 0 0.726128101
v -0.100008935 0 1.01541078
v -0.142347261 0 0.715629697
v -0.170574009 0 0.857535362
v -0.199057072 0 1.00072968
v -0.296183735 0 0.976388812
v -0.253802776 0 0.836677134
v -0.211803272 0 0.698223054
v -0.390464932 0 0.942667186
v -0.279224455 0 0.674108446
v -0.334593296 0 0.807780683
v -0.412153721 0 0.771086156
v -0.480976641 0 0.899844766
v -0.343950093 0 0.643486142
v -0.566867471 0 0.848378003
v -0.405371308 0 0.606681645
v -0.4857544 0 0.726983547
v -0.554665744 0 0.675862849
v -0.647285938 0 0.788720667
v -0.462879181 0 0.564020395
v -0.721485674 0 0.72148627
v -0.515939951 0 0.515940428
v -0.618248224 0 0.61824882
v -0.675862312 0 0.5546664
v -0.78872031 0 0.647286415
v -0.564019978 0 0.462879717
v -0.848377466 0 0.566868544
v -0.606681228 0 0.405371934
v -0.72698307 0 0.485755086
v -0.771085858 0 0.412154496
v -0.899844587 0 0.480977416
v -0.643485904 0 0.343950778
v -0.942666709 0 0.390465915
v -0.674108267 0 0.279225171
v -0.807780504 0 0.334594101
v -0.836677015 0 0.253803641
v -0.976388454 0 0.296184659
v -0.698222995 0 0.211803988
v -1.00072968 0 0.199057996
v -0.715629578 0 0.142347932
v -0.857535243 0 0.170574799
v -0.870115161 0 0.0856992677
v -1.01541018 0 0.100009643
v -0.726127744 0 0.0715176836
v -1.02033532 0 4.50901894e-07
v -0.729649782 0 3.36712276e-07
v -0.874335527 0 3.94518707e-07
v -0.870115221 0 -0.0856984854
v -1.0154103 0 -0.100008763
v -0.726127863 0 -0.071517013
v -1.00072992 0 -0.199057132
v -0.715629697 0 -0.142347276
v -0.857535481 0 -0.170574024
v -0.836677313 0 -0.253802896
v -0.976388752 0 -0.296183825
v -0.698223233 0 -0.211803347
v -0.942667067 0 -0.390465111
v -0.674108624 0 -0.279224575
v -0.807780921 0 -0.334593385
v -0.771086335 0 -0.41215381
v -0.899845183 0 -0.480976671
v -0.643486261 0 -0.343950212
v -0.848378062 0 -0.566867888
v -0.606681824 0 -0.405371428
v -0.726983726 0 -0.48575455
v -0.675862968 0 -0.554665923
v -0.788720965 0 -0.647285879
v -0.564020514 0 -0.4628793
v -0.72148633 0 -0.721485853
v -0.515940487 0 -0.515940189
v -0.61824894 0 -0.618248463
v -0.554666519 0 -0.675862551
v -0.647286654 0 -0.788720369
v -0.462879777 0 -0.564020157
v -0.566868305 0 -0.848377943
v -0.405371964 0 -0.606681466
v -0.485755146 0 -0.726983428
v -0.412154496 0 -0.771086156
v -0.480977535 0 -0.899844766
v -0.343950808 0 -0.643486142
v -0.390465826 0 -0.942667246
v -0.279225171 0 -0.674108565
v -0.334594101 0 -0.807780802
v -0.253803611 0 -0.836677313
v -0.296184659 0 -0.97638905
v -0.211803973 0 -0.698223233
v -0.199057937 0 -1.0007298
v -0.142347872 0 -0.715629816
v -0.170574725 0 -0.857535601
v -0.0856991783 0 -0.870115399
v -0.100009546 0 -1.01541054
v -0.0715175942 0 -0.726127923
v -3.36698008e-07 0 -1.02033567
v -2.25340472e-07 0 -0.729649901
v -2.821115e-07 0 -0.874335825
v 0.170574561 0 0.857536197
v 0.253803492 0 0.836677909
v 0.29618454 0 0.976389766
v 0.211803868 0 0.69822377
v 0.390465766 0 0.942668021
v 0.279225111 0 0.674109101
v 0.334594071 0 0.807781398
v 0.412154526 0 0.771086752
v 0.480977595 0 0.899845481
v 0.343950838 0 0.643486619
v 0.566868424 0 0.848378539
v 0.405372083 0 0.606682062
v 0.485755265 0 0.726983964
v 0.554666638 0 0.675863147
v 0.647286892 0 0.788721085
v 0.462879956 0 0.564020693
v 0.721486688 0 0.721486568
v 0.515940726 0 0.515940666
v 0.618249178 0 0.618249059
v 0.675863266 0 0.554666519
v 0.788721323 0 0.647286534
v 0.564020813 0 0.462879777
v 0.848378539 0 0.566868484
v 0.606682122 0 0.405371904
v 0.726984143 0 0.485755086
v 0.771086812 0 0.412154317
v 0.89984566 0 0.480977237
v 0.643486738 0 0.343950659
v 0.942667663 0 0.390465647
v 0.674109042 0 0.279224962
v 0.807781398 0 0.334593862
v 0.836677849 0 0.253803313
v 0.976389349 0 0.296184301
v 0.69822371 0 0.211803719
v 1.00073063 0 0.199057564
v 0.715630174 0 0.142347604
v 0.857536077 0 0.170574397
v 0.870115876 0 0.0856987908
v 1.0154109 0 0.100009114
v 0.72612834 0 0.0715172961
v 1.02033591 0 -1.70880327e-07
v 0.729650259 0 -1.05405903e-07
v 0.874336123 0 -1.39193105e-07
v 0.870115697 0 -0.0856990665
v 1.0154109 0 -0.100009426
v 0.726128221 0 -0.0715174973
v 1.0007304 0 -0.199057847
v 0.715630114 0 -0.142347798
v 0.857535899 0 -0.17057465
v 0.836677611 0 -0.253803551
v 0.97638911 0 -0.29618457
v 0.698223472 0 -0.211803913
v 0.942667305 0 -0.390465945
v 0.674108744 0 -0.279225141
v 0.8077811 0 -0.334594071
v 0.771086454 0 -0.412154496
v 0.899845302 0 -0.480977416
v 0.643486381 0 -0.343950778
v 0.848378062 0 -0.566868603
v 0.606681824 0 -0.405371964
v 0.726983726 0 -0.485755205
v 0.675862849 0 -0.554666638
v 0.788720906 0 -0.647286654
v 0.564020455 0 -0.462879837
v 0.721486211 0 -0.721486509
v 0.515940428 0 -0.515940666
v 0.618248701 0 -0.618249059
v 0.554666162 0 -0.675863147
v 0.647286415 0 -0.788720965
v 0.462879539 0 -0.564020634
v 0.566867948 0 -0.84837842
v 0.405371666 0 -0.606681943
v 0.485754818 0 -0.726983905
v 0.412154078 0 -0.771086574
v 0.480977058 0 -0.899845243
v 0.34395045 0 -0.6434865
v 0.390465289 0 -0.942667663
v 0.334593624 0 -0.8077811
v 0.279224753 0 -0.674108863
v 0.211803526 0 -0.698223472
v 0.253803104 0 -0.836677611
v 0.296184063 0 -0.976389408
v 0.14234744 0 -0.715629935
v 0.199057296 0 -1.00073004
v 0.170574203 0 -0.85753572
v 0.0856986269 0 -0.870115519
v 0.0715171546 0 -0.726127982
v 0.10000889 0 -1.01541066
v -2.25340472e-07 0 -0.729649901
v -3.36698008e-07 0 -1.02033567
v -2.821115e-07 0 -0.874335825
vt 0.5 1
vt 0.5 0.500392497
vt 0.514998734 0.500392497
vt 0.514998734 1
vt 0.529997468 1
vt 0.5 0
vt 0.514998674 0
vt 0.529997408 0
vt 0.483639836 0.500392497
vt 0.498638511 1
vt 0.482959092 1
vt 0.483639836 0
vt 0.467279702 1
vt 0.467279673 0.500392497
vt 0.467279643 0
vt 0.451600194 0
vt 0.451600224 0.500392497
vt 0.451600254 1
vt 0.435920775 0
vt 0.435920775 1
vt 0.435920775 0.500392497
vt 0.420241356 0.500392497
vt 0.420241386 0
vt 0.420241356 1
vt 0.404561996 0
vt 0.404561937 1
vt 0.404561967 0.500392497
vt 0.388882518 0.500392497
vt 0.388882548 0
vt 0.388882518 1
vt 0.373203099 0
vt 0.373203099 1
vt 0.373203099 0.500392497
vt 0.35752368 0.500392497
vt 0.35752362 0
vt 0.35752371 1
vt 0.341844141 0
vt 0.34184432 1
vt 0.341844231 0.500392497
vt 0.326164782 0.500392497
vt 0.326164782 0
vt 0.326164812 1
vt 0.310485423 0
vt 0.310485303 1
vt 0.310485363 0.500392497
vt 0.294805944 0.500392497
vt 0.294806004 0
vt 0.294805944 1
vt 0.279126585 0
vt 0.279126555 1
vt 0.279126555 0.500392497
vt 0.263447165 0.500392497
vt 0.263447225 0
vt 0.263447136 1
vt 0.247767836 0
vt 0.247767717 1
vt 0.247767776 0.500392497
vt 0.232088238 0.500392497
vt 0.232088223 0
vt 0.232088253 1
vt 0.21640861 0
vt 0.216408789 1
vt 0.2164087 0.500392497
vt 0.2007294 0.500392497
vt 0.200729355 0
vt 0.20072946 1
vt 0.1850501 0
vt 0.18505013 1
vt 0.185050115 0.500392497
vt 0.169370636 0.500392497
vt 0.169370621 0
vt 0.169370651 1
vt 0.153691143 0
vt 0.153691173 1
vt 0.153691158 0.500392497
vt 0.138011768 0.500392497
vt 0.138011739 0
vt 0.138011798 1
vt 0.122332327 0
vt 0.122332416 1
vt 0.122332372 0.500392497
vt 0.106652878 0.500392497
vt 0.106652848 0
vt 0.106652908 1
vt 0.0909733698 0
vt 0.0909733996 1
vt 0.0909733847 0.500392497
vt 0.0752940401 0.500392497
vt 0.0752940699 0
vt 0.0752940103 1
vt 0.0596147738 0
vt 0.0596146248 1
vt 0.0596146993 0.500392497
vt 0.0439352654 0.500392497
vt 0.0439352654 0
vt 0.0439352654 1
vt 0.0282557569 0
vt 0.028255906 1
vt 0.0282558315 0.500392497
vt 0.0141279157 0.500392497
vt 0.0141278785 0
vt 0.014127953 1
vt 0 0
vt 0 1
vt 0 0.500392497
vt 0.529997468 0.500392497
vt 0.545676827 0.500392497
vt 0.545676827 0
vt 0.545676827 1
vt 0.561356187 0
vt 0.561356246 1
vt 0.561356187 0.500392497
vt 0.577035666 0.500392497
vt 0.577035666 0
vt 0.577035666 1
vt 0.592715085 0
vt 0.592715085 1
vt 0.592715085 0.500392497
vt 0.608394504 0.500392497
vt 0.608394504 0
vt 0.608394504 1
vt 0.624073863 0
vt 0.624073863 1
vt 0.624073863 0.500392497
vt 0.639753222 0.500392497
vt 0.639753222 0
vt 0.639753222 1
vt 0.655432582 0
vt 0.655432642 1
vt 0.655432642 0.500392497
vt 0.67111212 0.500392497
vt 0.671112061 0
vt 0.67111212 1
vt 0.686791599 0
vt 0.686791599 1
vt 0.686791599 0.500392497
vt 0.702471077 0.500392497
vt 0.702471077 0
vt 0.702471018 1
vt 0.718150556 0
vt 0.718150437 1
vt 0.718150556 0.500392497
vt 0.733829975 0.500392497
vt 0.733829975 0
vt 0.733829856 1
vt 0.749509335 0
vt 0.749509275 1
vt 0.749509335 0.500392497
vt 0.765188694 0.500392497
vt 0.765188694 0
vt 0.765188694 1
vt 0.780868113 0
vt 0.780868113 1
vt 0.780868113 0.500392497
vt 0.796547532 0.500392497
vt 0.796547592 0
vt 0.796547532 1
vt 0.81222707 0
vt 0.812227011 1
vt 0.812227011 0.500392497
vt 0.82790643 0.500392497
vt 0.82790643 0
vt 0.827906489 1
vt 0.843585789 0
vt 0.843585908 1
vt 0.843585849 0.500392497
vt 0.859265268 0.500392497
vt 0.859265208 0
vt 0.859265268 1
vt 0.874944627 0
vt 0.874944627 1
vt 0.874944687 0.500392497
vt 0.890624046 0.500392497
vt 0.890623987 0
vt 0.890624046 1
vt 0.906303346 0
vt 0.906303465 1
vt 0.906303406 0.500392497
vt 0.921982884 0.500392497
vt 0.921982884 0
vt 0.921982884 1
vt 0.937662423 0
vt 0.937662423 0.500392497
vt 0.937662363 1
vt 0.953341782 1
vt 0.953341842 0.500392497
vt 0.953341842 0
vt 0.969021201 1
vt 0.969021261 0
vt 0.969021201 0.500392497
vt 0.984510601 0.500392497
vt 0.984510601 1
vt 0.98451066 0
vt 1 1
vt 1 0
vt 1 0.500392497
vn 0 1 0
vn 0 1 0
vn 0 1 0
vn 0 1 0
vn 0 1 0
vn 0 1 0
vn 0 1 0
vn 0 1 0
vn 0 1 0
vn 0 1 0
vn 0 1 0
vn 0 1 0
vn 0 1 0
vn 0 1 0
vn 0 1 0
vn 0 1 0
vn 0 1 0
vn 0 1 0
vn 0 1 0
vn 0 1 0
vn 0 1 0
vn 0 1 0
vn 0 1 0
vn 0 1 0
vn 0 1 0
vn 0 1 0
vn 0 1 0
vn 0 1 0
vn 0 1 0
vn 0 1 0
vn 0 1 0
vn 0 1 0
vn 0 1 0
vn 0 1 0
vn 0 1 0
vn 0 1 0
vn 0 1 0
vn 0 1 0
vn 0 1 0
vn 0 1 0
vn 0 1 0
vn 0 1 0
vn 0 1 0
vn 0 1 0
vn 0 1 0
vn 0 1 0
vn 0 1 0
vn 0 1 0
vn 0 1 0
vn 0 1 0
vn 0 1 0
vn 0 1 0
vn 0 1 0
vn 0 1 0
vn 0 1 0
vn 0 1 0
vn 0 1 0
vn 0 1 0
vn 0 1 0
vn 0 1 0
vn 0 1 0
vn 0 1 0
vn 0 1 0
vn 0 1 0
vn 0 1 0
vn 0 1 0
vn 0 1 0
vn 0 1 0
vn 0 1 0
vn 0 1 0
vn 0 1 0
vn 0 1 0
vn 0 1 0
vn 0 1 0
vn 0 1 0
vn 0 1 0
vn 0 1 0
vn 0 1 0
vn 0 1 0
vn 0 1 0
vn 0 1 0
vn 0 1 0
vn 0 1 0
vn 0 1 0
vn 0 1 0
vn 0 1 0
vn 0 1 0
vn 0 1 0
vn 0 1 0
vn 0 1 0
vn 0 1 0
vn 0 1 0
vn 0 1 0
vn 0 1 0
vn 0 1 0
vn 0 1 0
vn 0 1 0
vn 0 1 0
vn 0 1 0
vn 0 1 0
vn 0 1 0
vn 0 1 0
vn 0 1 0
vn 0 1 0
vn 0 1 0
vn 0 1 0
vn 0 1 0
vn 0 1 0
vn 0 1 0
vn 0 1 0
vn 0 1 0
vn 0 1 0
vn 0 1 0
vn 0 1 0
vn 0 1 0
vn 0 1 0
vn 0 1 0
vn 0 1 0
vn 0 1 0
vn 0 1 0
vn 0 1 0
vn 0 1 0
vn 0 1 0
vn 0 1 0
vn 0 1 0
vn 0 1 0
vn 0 1 0
vn 0 1 0
vn 0 1 0
vn 0 1 0
vn 0 1 0
vn 0 1 0
vn 0 1 0
vn 0 1 0
vn 0 1 0
vn 0 1 0
vn 0 1 0
vn 0 1 0
vn 0 1 0
vn 0 1 0
vn 0 1 0
vn 0 1 0
vn 0 1 0
vn 0 1 0
vn 0 1 0
vn 0 1 0
vn 0 1 0
vn 0 1 0
vn 0 1 0
vn 0 1 0
vn 0 1 0
vn 0 1 0
vn 0 1 0
vn 0 1 0
vn 0 1 0
vn 0 1 0
vn 0 1 0
vn 0 1 0
vn 0 1 0
vn 0 1 0
vn 0 1 0
vn 0 1 0
vn 0 1 0
vn 0 1 0
vn 0 1 0
vn 0 1 0
vn 0 1 0
vn 0 1 0
vn 0 1 0
vn 0 1 0
vn 0 1 0
vn 0 1 0
vn 0 1 0
vn 0 1 0
vn 0 1 0
vn 0 1 0
vn 0 1 0
vn 0 1 0
vn 0 1 0
vn 0 1 0
vn 0 1 0
vn 0 1 0
vn 0 1 0
vn 0 1 0
vn 0 1 0
vn 0 1 0
vn 0 1 0
vn 0 1 0
vn 0 1 0
vn 0 1 0
vn 0 1 0
vn 0 1 0
vn 0 1 0
vn 0 1 0
vn 0 1 0
vn 0 1 0
g submesh_0
usemtl submesh_0
f 1/1/1 2/2/2 3/3/3
f 1/1/1 3/3/3 4/4/4
f 5/5/5 4/4/4 3/3/3
f 6/6/6 3/3/3 2/2/2
f 6/6/6 7/7/7 3/3/3
f 8/8/8 3/3/3 7/7/7
f 6/6/6 2/2/2 9/9/9
f 10/10/10 9/9/9 2/2/2
f 10/10/10 11/11/11 9/9/9
f 6/6/6 9/9/9 12/12/12
f 13/13/13 9/9/9 11/11/11
f 14/14/14 12/12/12 9/9/9
f 13/13/13 14/14/14 9/9/9
f 14/14/14 15/15/15 12/12/12
f 14/14/14 16/16/16 15/15/15
f 13/13/13 17/17/17 14/14/14
f 14/14/14 17/17/17 16/16/16
f 13/13/13 18/18/18 17/17/17
f 19/19/19 16/16/16 17/17/17
f 20/20/20 17/17/17 18/18/18
f 19/19/19 17/17/17 21/21/21
f 20/20/20 21/21/21 17/17/17
f 19/19/19 21/21/21 22/22/22
f 20/20/20 22/22/22 21/21/21
f 19/19/19 22/22/22 23/23/23
f 20/20/20 24/24/24 22/22/22
f 25/25/25 23/23/23 22/22/22
f 26/26/26 22/22/22 24/24/24
f 25/25/25 22/22/22 27/27/27
f 26/26/26 27/27/27 22/22/22
f 25/25/25 27/27/27 28/28/28
f 26/26/26 28/28/28 27/27/27
f 25/25/25 28/28/28 29/29/29
f 26/26/26 30/30/30 28/28/28
f 31/31/31 29/29/29 28/28/28
f 32/32/32 28/28/28 30/30/30
f 31/31/31 28/28/28 33/33/33
f 32/32/32 33/33/33 28/28/28
f 31/31/31 33/33/33 34/34/34
f 32/32/32 34/34/34 33/33/33
f 31/31/31 34/34/34 35/35/35
f 32/32/32 36/36/36 34/34/34
f 37/37/37 35/35/35 34/34/34
f 38/38/38 34/34/34 36/36/36
f 37/37/37 34/34/34 39/39/39
f 38/38/38 39/39/39 34/34/34
f 37/37/37 39/39/39 40/40/40
f 38/38/38 40/40/40 39/39/39
f 37/37/37 40/40/40 41/41/41
f 38/38/38 42/42/42 40/40/40
f 43/43/43 41/41/41 40/40/40
f 44/44/44 40/40/40 42/42/42
f 43/43/43 40/40/40 45/45/45
f 44/44/44 45/45/45 40/40/40
f 43/43/43 45/45/45 46/46/46
f 44/44/44 46/46/46 45/45/45
f 43/43/43 46/46/46 47/47/47
f 44/44/44 48/48/48 46/46/46
f 49/49/49 47/47/47 46/46/46
f 50/50/50 46/46/46 48/48/48
f 49/49/49 46/46/46 51/51/51
f 50/50/50 51/51/51 46/46/46
f 49/49/49 51/51/51 52/52/52
f 50/50/50 52/52/52 51/51/51
f 49/49/49 52/52/52 53/53/53
f 50/50/50 54/54/54 52/52/52
f 55/55/55 53/53/53 52/52/52
f 56/56/56 52/52/52 54/54/54
f 55/55/55 52/52/52 57/57/57
f 56/56/56 57/57/57 52/52/52
f 55/55/55 57/57/57 58/58/58
f 56/56/56 58/58/58 57/57/57
f 55/55/55 58/58/58 59/59/59
f 56/56/56 60/60/60 58/58/58
f 61/61/61 59/59/59 58/58/58
f 62/62/62 58/58/58 60/60/60
f 61/61/61 58/58/58 63/63/63
f 62/62/62 63/63/63 58/58/58
f 61/61/61 63/63/63 64/64/64
f 62/62/62 64/64/64 63/63/63
f 61/61/61 64/64/64 65/65/65
f 62/62/62 66/66/66 64/64/64
f 67/67/67 65/65/65 64/64/64
f 68/68/68 64/64/64 66/66/66
f 67/67/67 64/64/64 69/69/69
f 68/68/68 69/69/69 64/64/64
f 67/67/67 69/69/69 70/70/70
f 68/68/68 70/70/70 69/69/69
f 67/67/67 70/70/70 71/71/71
f 68/68/68 72/72/72 70/70/70
f 73/73/73 71/71/71 70/70/70
f 74/74/74 70/70/70 72/72/72
f 73/73/73 70/70/70 75/75/75
f 74/74/74 75/75/75 70/70/70
f 73/73/73 75/75/75 76/76/76
f 74/74/74 76/76/76 75/75/75
f 73/73/73 76/76/76 77/77/77
f 74/74/74 78/78/78 76/76/76
f 79/79/79 77/77/77 76/76/76
f 80/80/80 76/76/76 78/78/78
f 79/79/79 76/76/76 81/81/81
f 80/80/80 81/81/81 76/76/76
f 79/79/79 81/81/81 82/82/82
f 80/80/80 82/82/82 81/81/81
f 79/79/79 82/82/82 83/83/83
f 80/80/80 84/84/84 82/82/82
f 85/85/85 83/83/83 82/82/82
f 86/86/86 82/82/82 84/84/84
f 85/85/85 82/82/82 87/87/87
f 86/86/86 87/87/87 82/82/82
f 85/85/85 87/87/87 88/88/88
f 86/86/86 88/88/88 87/87/87
f 85/85/85 88/88/88 89/89/89
f 86/86/86 90/90/90 88/88/88
f 91/91/91 89/89/89 88/88/88
f 92/92/92 88/88/88 90/90/90
f 91/91/91 88/88/88 93/93/93
f 92/92/92 93/93/93 88/88/88
f 91/91/91 93/93/93 94/94/94
f 92/92/92 94/94/94 93/93/93
f 91/91/91 94/94/94 95/95/95
f 92/92/92 96/96/96 94/94/94
f 97/97/97 95/95/95 94/94/94
f 98/98/98 94/94/94 96/96/96
f 97/97/97 94/94/94 99/99/99
f 98/98/98 99/99/99 94/94/94
f 97/97/97 99/99/99 100/100/100
f 98/98/98 100/100/100 99/99/99
f 97/97/97 100/100/100 101/101/101
f 98/98/98 102/102/102 100/100/100
f 103/103/103 101/101/101 100/100/100
f 104/104/104 100/100/100 102/102/102
f 103/103/103 100/100/100 105/105/105
f 104/104/104 105/105/105 100/100/100
f 8/8/8 106/106/106 3/3/3
f 8/8/8 107/107/107 106/106/106
f 5/5/5 3/3/3 106/106/106
f 5/5/5 106/106/106 107/107/107
f 8/8/8 108/108/108 107/107/107
f 5/5/5 107/107/107 109/109/109
f 110/110/110 107/107/107 108/108/108
f 111/111/111 109/109/109 107/107/107
f 110/110/110 112/112/112 107/107/107
f 111/111/111 107/107/107 112/112/112
f 110/110/110 113/113/113 112/112/112
f 111/111/111 112/112/112 113/113/113
f 110/110/110 114/114/114 113/113/113
f 111/111/111 113/113/113 115/115/115
f 116/116/116 113/113/113 114/114/114
f 117/117/117 115/115/115 113/113/113
f 116/116/116 118/118/118 113/113/113
f 117/117/117 113/113/113 118/118/118
f 116/116/116 119/119/119 118/118/118
f 117/117/117 118/118/118 119/119/119
f 116/116/116 120/120/120 119/119/119
f 117/117/117 119/119/119 121/121/121
f 122/122/122 119/119/119 120/120/120
f 123/123/123 121/121/121 119/119/119
f 122/122/122 124/124/124 119/119/119
f 123/123/123 119/119/119 124/124/124
f 122/122/122 125/125/125 124/124/124
f 123/123/123 124/124/124 125/125/125
f 122/122/122 126/126/126 125/125/125
f 123/123/123 125/125/125 127/127/127
f 128/128/128 125/125/125 126/126/126
f 129/129/129 127/127/127 125/125/125
f 128/128/128 130/130/130 125/125/125
f 129/129/129 125/125/125 130/130/130
f 128/128/128 131/131/131 130/130/130
f 129/129/129 130/130/130 131/131/131
f 128/128/128 132/132/132 131/131/131
f 129/129/129 131/131/131 133/133/133
f 134/134/134 131/131/131 132/132/132
f 135/135/135 133/133/133 131/131/131
f 134/134/134 136/136/136 131/131/131
f 135/135/135 131/131/131 136/136/136
f 134/134/134 137/137/137 136/136/136
f 135/135/135 136/136/136 137/137/137
f 134/134/134 138/138/138 137/137/137
f 135/135/135 137/137/137 139/139/139
f 140/140/140 137/137/137 138/138/138
f 141/141/141 139/139/139 137/137/137
f 140/140/140 142/142/142 137/137/137
f 141/141/141 137/137/137 142/142/142
f 140/140/140 143/143/143 142/142/142
f 141/141/141 142/142/142 143/143/143
f 140/140/140 144/144/144 143/143/143
f 141/141/141 143/143/143 145/145/145
f 146/146/146 143/143/143 144/144/144
f 147/147/147 145/145/145 143/143/143
f 146/146/146 148/148/148 143/143/143
f 147/147/147 143/143/143 148/148/148
f 146/146/146 149/149/149 148/148/148
f 147/147/147 148/148/148 149/149/149
f 146/146/146 150/150/150 149/149/149
f 147/147/147 149/149/149 151/151/151
f 152/152/152 149/149/149 150/150/150
f 153/153/153 151/151/151 149/149/149
f 152/152/152 154/154/154 149/149/149
f 153/153/153 149/149/149 154/154/154
f 152/152/152 155/155/155 154/154/154
f 153/153/153 154/154/154 155/155/155
f 152/152/152 156/156/156 155/155/155
f 153/153/153 155/155/155 157/157/157
f 158/158/158 155/155/155 156/156/156
f 159/159/159 157/157/157 155/155/155
f 158/158/158 160/160/160 155/155/155
f 159/159/159 155/155/155 160/160/160
f 158/158/158 161/161/161 160/160/160
f 159/159/159 160/160/160 161/161/161
f 158/158/158 162/162/162 161/161/161
f 159/159/159 161/161/161 163/163/163
f 164/164/164 161/161/161 162/162/162
f 165/165/165 163/163/163 161/161/161
f 164/164/164 166/166/166 161/161/161
f 165/165/165 161/161/161 166/166/166
f 164/164/164 167/167/167 166/166/166
f 165/165/165 166/166/166 167/167/167
f 164/164/164 168/168/168 167/167/167
f 165/165/165 167/167/167 169/169/169
f 170/170/170 167/167/167 168/168/168
f 171/171/171 169/169/169 167/167/167
f 170/170/170 172/172/172 167/167/167
f 171/171/171 167/167/167 172/172/172
f 170/170/170 173/173/173 172/172/172
f 171/171/171 172/172/172 173/173/173
f 170/170/170 174/174/174 173/173/173
f 171/171/171 173/173/173 175/175/175
f 176/176/176 173/173/173 174/174/174
f 177/177/177 175/175/175 173/173/173
f 176/176/176 178/178/178 173/173/173
f 177/177/177 173/173/173 178/178/178
f 176/176/176 179/179/179 178/178/178
f 177/177/177 178/178/178 179/179/179
f 176/176/176 180/180/180 179/179/179
f 177/177/177 179/179/179 181/181/181
f 182/182/182 179/179/179 180/180/180
f 183/183/183 181/181/181 179/179/179
f 182/182/182 183/183/183 179/179/179
f 183/183/183 184/184/184 181/181/181
f 183/183/183 185/185/185 184/184/184
f 182/182/182 186/186/186 183/183/183
f 183/183/183 186/186/186 185/185/185
f 182/182/182 187/187/187 186/186/186
f 188/188/188 185/185/185 186/186/186
f 189/189/189 186/186/186 187/187/187
f 188/188/188 186/186/186 190/190/190
f 189/189/189 190/190/190 186/186/186
f 188/188/188 190/190/190 191/191/191
f 189/189/189 191/191/191 190/190/190
f 188/188/188 191/191/191 192/192/192
f 189/189/189 193/193/193 191/191/191
f 194/194/194 192/192/192 191/191/191
f 195/195/195 191/191/191 193/193/193
f 194/194/194 191/191/191 196/196/196
f 195/195/195 196/196/196 191/191/191
