o sphere_05
v 0.259138882 -0.309016973 0.915072322
v 0.0358331017 -0.156434372 0.98703903
v 0.0632218421 -0.309016973 0.948953629
v -0.17016691 -0.156434372 0.972919822
v -0.207911238 0 0.97814858
v -0.135458305 -0.309016973 0.941361129
v -0.406736374 0 0.913546324
v -0.434198916 0.156434372 0.887130857
v -0.36872974 -0.156434372 0.916279376
v -0.328218132 -0.309016973 0.892626584
v -0.609155476 0.156434372 0.777469754
v -0.608927548 0.309016973 0.730559528
v -0.551177263 -0.156434372 0.819593132
v -0.506633341 -0.309016973 0.804880023
v -0.587785125 0 0.809017777
v -0.747512817 0.309016973 0.587991774
v -0.710269332 0.453990519 0.537969649
v -0.709535718 -0.156434372 0.687086701
v -0.66290617 -0.309016973 0.681956351
v -0.74314487 0 0.669131279
v -0.757488966 0.156434372 0.633829534
v -0.806598365 0.453990519 0.378540397
v -0.732625008 0.587785244 0.343176663
v -0.836883962 -0.156434372 0.524551272
v -0.79020679 -0.309016973 0.529227853
v -0.853428245 0.309016973 0.419726014
v -0.866025567 0 0.500000596
v -0.872716546 0.156434372 0.462487966
v -0.787965715 0.587785244 0.183356076
v -0.685013533 0.707106769 0.175377309
v -0.927656412 -0.156434372 0.339090496
v -0.882971525 -0.309016973 0.353369623
v -0.867675185 0.453990519 0.202567071
v -0.922044635 0.309016973 0.233116269
v -0.951056719 0 0.30901739
v -0.94980222 0.156434372 0.270933419
v -0.706507325 0.707106769 0.0291225594
v -0.585377276 0.809017003 0.0531550609
v -0.977885723 -0.156434372 0.1388098
v -0.937146187 -0.309016973 0.162067384
v -0.808868647 0.587785244 0.0155219836
v -0.890830398 0.453990519 0.0177406836
v -0.950363278 0.309016973 0.0363181569
v -0.994522214 0 0.104528688
v -0.985376894 0.156434372 0.067537792
v -0.58363694 0.809017003 -0.0697132945
v -0.453659147 0.891006529 -0.0173529349
v -0.697123349 0.707106769 -0.118404977
v -0.794420063 0.587785244 -0.15299046
v -0.875052094 0.453990519 -0.167861119
v -0.937146544 0.309016973 -0.16206722
v -0.977885902 0.156434372 -0.138809547
v -0.440137714 0.891006529 -0.111294769
v -0.306306243 0.95105654 -0.0408430845
v -0.556388855 0.809017003 -0.189534843
v -0.657271683 0.707106769 -0.260757685
v -0.745251477 0.587785244 -0.314816475
v -0.821029723 0.453990519 -0.346126586
v -0.291120976 0.95105654 -0.103635214
v -0.153616518 0.987688363 -0.029559413
v -0.407380134 0.891006529 -0.200372517
v -0.504823864 0.809017003 -0.301072776
v -0.588694096 0.707106769 -0.391713947
v -0.144113868 0.987688363 -0.0608521327
v 1.00450606e-13 1 8.92893954e-14
v -0.263212293 0.95105654 -0.161897987
v -0.35681811 0.891006529 -0.280692965
v -0.128312767 0.987688363 -0.0894853249
v 1.00450606e-13 1 8.92893954e-14
v -0.223799974 0.95105654 -0.213085026
v -0.431195676 0.809017003 -0.399452418
v -0.663511932 0.587785244 -0.462883562
v -0.106903769 0.987688363 -0.114207573
v 1.00450606e-13 1 8.92893954e-14
v -0.290661424 0.891006529 -0.348745793
v -0.494387776 0.707106769 -0.505550444
v -0.174606532 0.95105654 -0.254959255
v -0.338722169 0.809017003 -0.480374068
v -0.0808225796 0.987688363 -0.133938417
v 1.00450606e-13 1 8.92893954e-14
v -0.21180141 0.891006529 -0.40155679
v -0.117781945 0.95105654 -0.285690516
v -0.0512090437 0.987688363 -0.147815481
v 1.00450606e-13 1 8.92893954e-14
v -0.552773654 0.587785244 -0.590720356
v -0.378474355 0.707106769 -0.597292006
v -0.231444865 0.809017003 -0.540301025
v -0.123684682 0.891006529 -0.436817795
v -0.0558097214 0.95105654 -0.303935707
v -0.731124461 0.453990519 -0.509264588
v -0.0193574298 0.987688363 -0.15523231
v 1.00450606e-13 1 8.92893954e-14
v -0.882971942 0.309016973 -0.353369445
v -0.417876512 0.587785244 -0.692739785
v -0.246019751 0.707106769 -0.662928998
v -0.114052318 0.809017003 -0.576614261
v -0.0301623382 0.891006529 -0.45298776
v 0.00860164966 0.95105654 -0.308897465
v -0.609265506 0.453990519 -0.650145352
v -0.790207148 0.309016973 -0.529227734
v -0.927656591 0.156434372 -0.339090228
v 0.0133401928 0.987688363 -0.155864745
v 1.00450606e-13 1 8.92893954e-14
v -0.994522214 0 -0.104528412
v -0.985376775 -0.156434372 -0.0675375387
v -0.95036298 -0.309016973 -0.0363179557
v -0.951056838 0 -0.309017122
v -0.949802041 -0.156434372 -0.270933151
v -0.922044277 -0.309016973 -0.233115986
v -0.83688426 0.156434372 -0.524551034
v -0.872716427 -0.156434372 -0.462487638
v -0.853427887 -0.309016973 -0.419725716
v -0.866025567 0 -0.500000298
v -0.662906587 0.309016973 -0.681956232
v -0.757488847 -0.156434372 -0.633829176
v -0.74751246 -0.309016973 -0.587991416
v -0.74314487 0 -0.669130921
v -0.709535956 0.156434372 -0.687086463
v -0.460778773 0.453990519 -0.762611568
v -0.609155357 -0.156434372 -0.777469397
v -0.60892725 -0.309016973 -0.730559111
v -0.506633759 0.309016973 -0.804879904
v -0.587785244 0 -0.80901742
v -0.551177561 0.156434372 -0.819592834
v -0.264716148 0.587785244 -0.764483273
v -0.434198827 -0.156434372 -0.887130439
v -0.443728924 -0.309016973 -0.841197908
v -0.292153746 0.453990519 -0.841747999
v -0.328218609 0.309016973 -0.892626405
v -0.406736463 0 -0.913545966
v -0.368730038 0.156434372 -0.916279018
v -0.102812916 0.707106769 -0.699592829
v -0.240265742 -0.156434372 -0.958019614
v -0.259137511 -0.309016973 -0.915072143
v -0.0999864414 0.587785244 -0.80281502
v -0.110760182 0.453990519 -0.884095967
v -0.135458767 0.309016973 -0.941360891
v -0.207911387 0 -0.978148103
v -0.170167208 0.156434372 -0.972919464
v 0.00832486432 0.809017003 -0.587726712
v 0.044887349 0.707106769 -0.705681086
v 0.0691131279 0.587785244 -0.806059897
v 0.0754740909 0.453990519 -0.887804687
v 0.0632213205 0.309016973 -0.948953331
v 0.0358327255 0.156434372 -0.987038672
v 0.0646782443 0.891006529 -0.449360013
v 0.130338222 0.809017003 -0.573152602
v 0.190625787 0.707106769 -0.680927575
v 0.23519218 0.587785244 -0.774076164
v 0.258409798 0.453990519 -0.852712095
v 0.0726370886 0.95105654 -0.300358981
v 0.156692073 0.891006529 -0.426093042
v 0.246655107 0.809017003 -0.533528984
v 0.328033 0.707106769 -0.626414359
v 0.0454547852 0.987688363 -0.149685159
v 1.00450606e-13 1 8.92893954e-14
v 0.133497939 0.95105654 -0.278693259
v 0.241857678 0.891006529 -0.384203732
v 0.0755827799 0.987688363 -0.136963576
v 1.00450606e-13 1 8.92893954e-14
v 0.188524261 0.95105654 -0.244847372
v 0.352192044 0.809017003 -0.470587611
v 0.390992165 0.587785244 -0.708261549
v 0.102407433 0.987688363 -0.118256055
v 1.00450606e-13 1 8.92893954e-14
v 0.31645298 0.891006529 -0.3255229
v 0.451103568 0.707106769 -0.544523835
v 0.235311195 0.95105654 -0.20030047
v 0.44233647 0.809017003 -0.387079269
v 0.124756403 0.987688363 -0.0943801701
v 1.00450606e-13 1 8.92893954e-14
v 0.37721774 0.891006529 -0.252615184
v 0.271813869 0.95105654 -0.146999463
v 0.141652912 0.987688363 -0.0663794056
v 1.00450606e-13 1 8.92893954e-14
v 0.529703915 0.587785244 -0.611492515
v 0.554458737 0.707106769 -0.438834965
v 0.513148665 0.809017003 -0.286653757
v 0.421496242 0.891006529 -0.168666944
v 0.296436995 0.95105654 -0.0872738808
v 0.430051804 0.453990519 -0.780351877
v 0.152358517 0.987688363 -0.0354775637
v 1.00450606e-13 1 8.92893954e-14
v 0.259138316 0.309016973 -0.915072024
v 0.645265043 0.587785244 -0.487998277
v 0.6335814 0.707106769 -0.31396693
v 0.561533809 0.809017003 -0.173700079
v 0.447353363 0.891006529 -0.0773471743
v 0.308104366 0.95105654 -0.0237340257
v 0.582898378 0.453990519 -0.673886538
v 0.443729728 0.309016973 -0.841197729
v 0.240266576 0.156434372 -0.958019495
v 0.1564053 0.987688363 -0.0030251781
v 1.00450606e-13 1 8.92893954e-14
v 4.17232513e-07 0 -1.00000048
v -0.0358319022 -0.156434372 -0.987038732
v -0.0632205755 -0.309016973 -0.948953509
v 0.207912207 0 -0.978148103
v 0.170167983 -0.156434372 -0.972919524
v 0.135459468 -0.309016973 -0.94136101
v 0.434199631 0.156434372 -0.88713032
v 0.368730754 -0.156434372 -0.916279018
v 0.328219295 -0.309016973 -0.892626464
v 0.406737238 0 -0.913545847
v 0.608927965 0.309016973 -0.730558932
v 0.551178217 -0.156434372 -0.819592834
v 0.506634355 -0.309016973 -0.804879963
v 0.587785959 0 -0.80901742
v 0.609156072 0.156434372 -0.777469277
v 0.71026957 0.453990519 -0.537969172
v 0.709536552 -0.156434372 -0.687086463
v 0.662907064 -0.309016973 -0.681956232
v 0.747513175 0.309016973 -0.587991297
v 0.743145585 0 -0.669130921
v 0.757489502 0.156434372 -0.633829057
v 0.732625008 0.587785244 -0.343176216
v 0.836884677 -0.156434372 -0.524551094
v 0.790207565 -0.309016973 -0.529227853
v 0.806598544 0.453990519 -0.37853995
v 0.853428543 0.309016973 -0.419725627
v 0.866026163 0 -0.500000238
v 0.872717083 0.156434372 -0.462487578
v 0.685013473 0.707106769 -0.175377026
v 0.927657008 -0.156434372 -0.339090407
v 0.88297224 -0.309016973 -0.353369683
v 0.787965715 0.587785244 -0.183355734
v 0.867675304 0.453990519 -0.202566743
v 0.922044933 0.309016973 -0.233115867
v 0.951057315 0 -0.309017181
v 0.949802637 0.156434372 -0.270933121
v 0.585377157 0.809017003 -0.0531548783
v 0.706507206 0.707106769 -0.0291223247
v 0.808868647 0.587785244 -0.0155217554
v 0.890830576 0.453990519 -0.0177403931
v 0.950363576 0.309016973 -0.0363178998
v 0.985377252 0.156434372 -0.0675375909
v 0.453659028 0.891006529 0.0173530262
v 0.58363682 0.809017003 0.0697134137
v 0.69712323 0.707106769 0.118405163
v 0.794420004 0.587785244 0.152990654
v 0.875052154 0.453990519 0.167861313
v 0.306306124 0.95105654 0.040843118
v 0.440137565 0.891006529 0.111294828
v 0.556388736 0.809017003 0.189534903
v 0.657271624 0.707106769 0.260757744
v 0.153616428 0.987688363 0.0295594204
v 1.00450606e-13 1 8.92893954e-14
v 0.291120827 0.95105654 0.103635222
v 0.407380015 0.891006529 0.200372502
v 0.144113794 0.987688363 0.0608521216
v 1.00450606e-13 1 8.92893954e-14
v 0.263212174 0.95105654 0.161897957
v 0.504823744 0.809017003 0.301072806
v 0.745251536 0.587785244 0.314816654
v 0.128312707 0.987688363 0.0894853026
v 1.00450606e-13 1 8.92893954e-14
v 0.356817991 0.891006529 0.280692905
v 0.588694096 0.707106769 0.391714007
v 0.223799884 0.95105654 0.213084981
v 0.431195617 0.809017003 0.399452418
v 0.106903709 0.987688363 0.114207543
v 1.00450606e-13 1 8.92893954e-14
v 0.290661305 0.891006529 0.348745733
v 0.174606457 0.95105654 0.254959166
v 0.0808225274 0.987688363 0.133938357
v 1.00450606e-13 1 8.92893954e-14
v 0.663511932 0.587785244 0.462883562
v 0.494387776 0.707106769 0.505550444
v 0.33872211 0.809017003 0.480373949
v 0.21180135 0.891006529 0.401556671
v 0.117781892 0.95105654 0.285690397
v 0.821029842 0.453990519 0.346126646
v 0.0512090065 0.987688363 0.147815421
v 1.00450606e-13 1 8.92893954e-14
v 0.937146723 0.309016973 0.162067369
v 0.552773714 0.587785244 0.590720296
v 0.378474385 0.707106769 0.597291887
v 0.231444865 0.809017003 0.540300906
v 0.123684667 0.891006529 0.436817646
v 0.0558097027 0.95105654 0.303935617
v 0.73112458 0.453990519 0.509264588
v 0.882972121 0.309016973 0.353369474
v 0.97788626 0.156434372 0.138809636
v 0.0193574131 0.987688363 0.155232251
v 1.00450606e-13 1 8.92893954e-14
v 0.994522691 0 -0.104528584
v 0.977886319 -0.156434372 -0.13880983
v 0.937146842 -0.309016973 -0.162067562
v 0.994522691 0 0.104528397
v 0.985377312 -0.156434372 0.0675373897
v 0.950363576 -0.309016973 0.03631768
v 0.927656949 0.156434372 0.339090198
v 0.949802637 -0.156434372 0.270932883
v 0.922044933 -0.309016973 0.233115599
v 0.951057196 0 0.309016973
v 0.790207386 0.309016973 0.529227614
v 0.872717023 -0.156434372 0.46248731
v 0.853428543 -0.309016973 0.419725299
v 0.866026044 0 0.5
v 0.836884558 0.156434372 0.524550915
v 0.609265745 0.453990519 0.650145233
v 0.757489443 -0.156434372 0.633828759
v 0.747513235 -0.309016973 0.58799094
v 0.662906826 0.309016973 0.681955993
v 0.743145466 0 0.669130683
v 0.709536374 0.156434372 0.687086225
v 0.417876631 0.587785244 0.692739666
v 0.609156072 -0.156434372 0.77746892
v 0.608928025 -0.309016973 0.730558515
v 0.460778981 0.453990519 0.76261133
v 0.506634116 0.309016973 0.804879606
v 0.58778584 0 0.809017062
v 0.551178038 0.156434372 0.819592535
v 0.246019855 0.707106769 0.662928879
v 0.434199631 -0.156434372 0.887129843
v 0.443729818 -0.309016973 0.841197133
v 0.264716357 0.587785244 0.764482975
v 0.292154074 0.453990519 0.841747761
v 0.328219086 0.309016973 0.892626107
v 0.406737179 0 0.913545489
v 0.368730575 0.156434372 0.91627866
v 0.114052385 0.809017003 0.576614082
v 0.102813073 0.707106769 0.69959259
v 0.0999867022 0.587785244 0.802814782
v 0.110760592 0.453990519 0.884095669
v 0.135459274 0.309016973 0.941360593
v 0.170167893 0.156434372 0.972919106
v 0.0301623754 0.891006529 0.452987611
v -0.00832473394 0.809017003 0.587726474
v -0.0448871106 0.707106769 0.705680788
v -0.0691127777 0.587785244 0.806059718
v -0.0754735917 0.453990519 0.887804389
v -0.0086016329 0.95105654 0.308897376
v -0.0646781623 0.891006529 0.449359804
v -0.130338013 0.809017003 0.573152423
v -0.190625474 0.707106769 0.680927396
v -0.0133401901 0.987688363 0.155864686
v 1.00450606e-13 1 8.92893954e-14
v -0.072637029 0.95105654 0.300358832
v -0.156691939 0.891006529 0.426092863
v -0.0454547629 0.987688363 0.14968507
v 1.00450606e-13 1 8.92893954e-14
v -0.133497849 0.95105654 0.27869314
v -0.246654898 0.809017003 0.533528805
v -0.235191718 0.587785244 0.774075866
v -0.0755827427 0.987688363 0.136963516
v 1.00450606e-13 1 8.92893954e-14
v -0.241857499 0.891006529 0.384203583
v -0.328032583 0.707106769 0.62641412
v -0.188524157 0.95105654 0.244847253
v -0.352191746 0.809017003 0.470587432
v -0.102407388 0.987688363 0.118255988
v 1.00450606e-13 1 8.92893954e-14
v -0.316452742 0.891006529 0.32552278
v -0.235311046 0.95105654 0.200300351
v -0.124756336 0.987688363 0.0943801105
v 1.00450606e-13 1 8.92893954e-14
v -0.390991628 0.587785244 0.708261311
v -0.451103121 0.707106769 0.544523656
v -0.442336112 0.809017003 0.387079149
v -0.377217472 0.891006529 0.252615094
v -0.27181372 0.95105654 0.146999404
v -0.258409202 0.453990519 0.852711797
v -0.141652837 0.987688363 0.0663793758
v 1.00450606e-13 1 8.92893954e-14
v -0.0632206872 0.309016973 0.948953092
v -0.529703319 0.587785244 0.611492336
v -0.554458201 0.707106769 0.438834846
v -0.513148248 0.809017003 0.286653668
v -0.421495974 0.891006529 0.168666899
v -0.296436787 0.95105654 0.0872738436
v -0.430051029 0.453990519 0.780351639
v -0.259137571 0.309016973 0.915071726
v -0.0358319134 0.156434372 0.987038255
v -0.152358428 0.987688363 0.0354775414
v 1.00450606e-13 1 8.92893954e-14
v 0.207912207 0 0.978147626
v 0.240266666 -0.156434372 0.958018959
v 0.259138882 -0.309016973 0.915072322
v 0.0358331017 -0.156434372 0.98703903
v 5.06639481e-07 0 1
v -0.207911238 0 0.97814858
v -0.240265667 0.156434372 0.958019078
v -0.434198916 0.156434372 0.887130857
v -0.443728864 0.309016973 0.841197371
v -0.608927548 0.309016973 0.730559528
v -0.582897604 0.453990519 0.673886359
v -0.710269332 0.453990519 0.537969649
v -0.645264387 0.587785244 0.487998188
v -0.732625008 0.587785244 0.343176663
v -0.633580804 0.707106769 0.31396687
v -0.685013533 0.707106769 0.175377309
v -0.561533332 0.809017003 0.173700064
v -0.585377276 0.809017003 0.0531550609
v -0.447353065 0.891006529 0.0773471743
v -0.453659147 0.891006529 -0.0173529349
v -0.308104187 0.95105654 0.0237340219
v -0.306306243 0.95105654 -0.0408430845
v -0.15640521 0.987688363 0.00302517181
v 1.00450606e-13 1 8.92893954e-14
v -0.153616518 0.987688363 -0.029559413
v 1.00450606e-13 1 8.92893954e-14
vt 0 0
vt 0 0.0823947787
vt 0.0333333313 0
vt 0.0333333313 0.0823947787
vt 0 0.165915847
vt 0.0666666627 0
vt 0.0333333313 0.165915847
vt 0 0.249436915
vt 0.0666666627 0.0823947787
vt 0.100000024 0
vt 0.0333333313 0.249436915
vt 0 0.332957983
vt 0.100000024 0.0823947787
vt 0.133333325 0
vt 0.0666666627 0.165915847
vt 0.0333333313 0.332957983
vt 0 0.416479081
vt 0.133333325 0.0823947787
vt 0.166666687 0
vt 0.100000024 0.165915847
vt 0.0666666627 0.249436915
vt 0.0333333313 0.416479081
vt 0 0.500000179
vt 0.166666687 0.0823947787
vt 0.199999988 0
vt 0.0666666627 0.332957983
vt 0.133333325 0.165915847
vt 0.100000024 0.249436915
vt 0.0333333313 0.500000179
vt 0 0.583521128
vt 0.199999988 0.0823947787
vt 0.233333349 0
vt 0.0666666627 0.416479081
vt 0.100000024 0.332957983
vt 0.166666687 0.165915847
vt 0.133333325 0.249436915
vt 0.0333333313 0.583521128
vt 0 0.667042315
vt 0.233333349 0.0823947787
vt 0.266666681 0
vt 0.0666666627 0.500000179
vt 0.100000024 0.416479081
vt 0.133333325 0.332957983
vt 0.199999988 0.165915847
vt 0.166666687 0.249436915
vt 0.0333333313 0.667042315
vt 0 0.750563264
vt 0.0666666627 0.583521128
vt 0.100000024 0.500000179
vt 0.133333325 0.416479081
vt 0.166666687 0.332957983
vt 0.199999988 0.249436915
vt 0.0333333313 0.750563264
vt 0 0.834084511
vt 0.0666666627 0.667042315
vt 0.100000024 0.583521128
vt 0.133333325 0.500000179
vt 0.166666687 0.416479081
vt 0.0333333313 0.834084511
vt 0 0.917605519
vt 0.0666666627 0.750563264
vt 0.100000024 0.667042315
vt 0.133333325 0.583521128
vt 0.0333333313 0.917605519
vt 0.0166666806 1
vt 0.0666666627 0.834084511
vt 0.100000024 0.750563264
vt 0.0666666627 0.917605519
vt 0.0500000119 1
vt 0.100000024 0.834084511
vt 0.133333325 0.667042315
vt 0.166666687 0.500000179
vt 0.100000024 0.917605519
vt 0.0833333433 1
vt 0.133333325 0.750563264
vt 0.166666687 0.583521128
vt 0.133333325 0.834084511
vt 0.166666687 0.667042315
vt 0.133333325 0.917605519
vt 0.116666675 1
vt 0.166666687 0.750563264
vt 0.166666687 0.834084511
vt 0.166666687 0.917605519
vt 0.150000006 1
vt 0.199999988 0.500000179
vt 0.199999988 0.583521128
vt 0.199999988 0.667042315
vt 0.199999988 0.750563264
vt 0.199999988 0.834084511
vt 0.199999988 0.416479081
vt 0.199999988 0.917605519
vt 0.183333337 1
vt 0.199999988 0.332957983
vt 0.233333349 0.500000179
vt 0.233333349 0.583521128
vt 0.233333349 0.667042315
vt 0.233333349 0.750563264
vt 0.233333349 0.834084511
vt 0.233333349 0.416479081
vt 0.233333349 0.332957983
vt 0.233333349 0.249436915
vt 0.233333349 0.917605519
vt 0.216666698 1
vt 0.233333349 0.165915847
vt 0.266666681 0.0823947787
vt 0.300000012 0
vt 0.266666681 0.165915847
vt 0.300000012 0.0823947787
vt 0.333333343 0
vt 0.266666681 0.249436915
vt 0.333333343 0.0823947787
vt 0.366666675 0
vt 0.300000012 0.165915847
vt 0.266666681 0.332957983
vt 0.366666675 0.0823947787
vt 0.400000006 0
vt 0.333333343 0.165915847
vt 0.300000012 0.249436915
vt 0.266666681 0.416479081
vt 0.400000006 0.0823947787
vt 0.433333337 0
vt 0.300000012 0.332957983
vt 0.366666675 0.165915847
vt 0.333333343 0.249436915
vt 0.266666681 0.500000179
vt 0.433333337 0.0823947787
vt 0.466666669 0
vt 0.300000012 0.416479081
vt 0.333333343 0.332957983
vt 0.400000006 0.165915847
vt 0.366666675 0.249436915
vt 0.266666681 0.583521128
vt 0.466666669 0.0823947787
vt 0.5 0
vt 0.300000012 0.500000179
vt 0.333333343 0.416479081
vt 0.366666675 0.332957983
vt 0.433333337 0.165915847
vt 0.400000006 0.249436915
vt 0.266666681 0.667042315
vt 0.300000012 0.583521128
vt 0.333333343 0.500000179
vt 0.366666675 0.416479081
vt 0.400000006 0.332957983
vt 0.433333337 0.249436915
vt 0.266666681 0.750563264
vt 0.300000012 0.667042315
vt 0.333333343 0.583521128
vt 0.366666675 0.500000179
vt 0.400000006 0.416479081
vt 0.266666681 0.834084511
vt 0.300000012 0.750563264
vt 0.333333343 0.667042315
vt 0.366666675 0.583521128
vt 0.266666681 0.917605519
vt 0.25000003 1
vt 0.300000012 0.834084511
vt 0.333333343 0.750563264
vt 0.300000012 0.917605519
vt 0.283333361 1
vt 0.333333343 0.834084511
vt 0.366666675 0.667042315
vt 0.400000006 0.500000179
vt 0.333333343 0.917605519
vt 0.316666692 1
vt 0.366666675 0.750563264
vt 0.400000006 0.583521128
vt 0.366666675 0.834084511
vt 0.400000006 0.667042315
vt 0.366666675 0.917605519
vt 0.350000024 1
vt 0.400000006 0.750563264
vt 0.400000006 0.834084511
vt 0.400000006 0.917605519
vt 0.383333355 1
vt 0.433333337 0.500000179
vt 0.433333337 0.583521128
vt 0.433333337 0.667042315
vt 0.433333337 0.750563264
vt 0.433333337 0.834084511
vt 0.433333337 0.416479081
vt 0.433333337 0.917605519
vt 0.416666716 1
vt 0.433333337 0.332957983
vt 0.466666669 0.500000179
vt 0.466666669 0.583521128
vt 0.466666669 0.667042315
vt 0.466666669 0.750563264
vt 0.466666669 0.834084511
vt 0.466666669 0.416479081
vt 0.466666669 0.332957983
vt 0.466666669 0.249436915
vt 0.466666669 0.917605519
vt 0.450000048 1
vt 0.466666669 0.165915847
vt 0.5 0.0823947787
vt 0.533333361 0
vt 0.5 0.165915847
vt 0.533333361 0.0823947787
vt 0.566666722 0
vt 0.5 0.249436915
vt 0.566666722 0.0823947787
vt 0.600000083 0
vt 0.533333361 0.165915847
vt 0.5 0.332957983
vt 0.600000083 0.0823947787
vt 0.633333445 0
vt 0.566666722 0.165915847
vt 0.533333361 0.249436915
vt 0.5 0.416479081
vt 0.633333445 0.0823947787
vt 0.666666806 0
vt 0.533333361 0.332957983
vt 0.600000083 0.165915847
vt 0.566666722 0.249436915
vt 0.5 0.500000179
vt 0.666666806 0.0823947787
vt 0.700000167 0
vt 0.533333361 0.416479081
vt 0.566666722 0.332957983
vt 0.633333445 0.165915847
vt 0.600000083 0.249436915
vt 0.5 0.583521128
vt 0.700000167 0.0823947787
vt 0.733333528 0
vt 0.533333361 0.500000179
vt 0.566666722 0.416479081
vt 0.600000083 0.332957983
vt 0.666666806 0.165915847
vt 0.633333445 0.249436915
vt 0.5 0.667042315
vt 0.533333361 0.583521128
vt 0.566666722 0.500000179
vt 0.600000083 0.416479081
vt 0.633333445 0.332957983
vt 0.666666806 0.249436915
vt 0.5 0.750563264
vt 0.533333361 0.667042315
vt 0.566666722 0.583521128
vt 0.600000083 0.500000179
vt 0.633333445 0.416479081
vt 0.5 0.834084511
vt 0.533333361 0.750563264
vt 0.566666722 0.667042315
vt 0.600000083 0.583521128
vt 0.5 0.917605519
vt 0.483333379 1
vt 0.533333361 0.834084511
vt 0.566666722 0.750563264
vt 0.533333361 0.917605519
vt 0.516666651 1
vt 0.566666722 0.834084511
vt 0.600000083 0.667042315
vt 0.633333445 0.500000179
vt 0.566666722 0.917605519
vt 0.550000012 1
vt 0.600000083 0.750563264
vt 0.633333445 0.583521128
vt 0.600000083 0.834084511
vt 0.633333445 0.667042315
vt 0.600000083 0.917605519
vt 0.583333373 1
vt 0.633333445 0.750563264
vt 0.633333445 0.834084511
vt 0.633333445 0.917605519
vt 0.616666675 1
vt 0.666666806 0.500000179
vt 0.666666806 0.583521128
vt 0.666666806 0.667042315
vt 0.666666806 0.750563264
vt 0.666666806 0.834084511
vt 0.666666806 0.416479081
vt 0.666666806 0.917605519
vt 0.650000036 1
vt 0.666666806 0.332957983
vt 0.700000167 0.500000179
vt 0.700000167 0.583521128
vt 0.700000167 0.667042315
vt 0.700000167 0.750563264
vt 0.700000167 0.834084511
vt 0.700000167 0.416479081
vt 0.700000167 0.332957983
vt 0.700000167 0.249436915
vt 0.700000167 0.917605519
vt 0.683333337 1
vt 0.700000167 0.165915847
vt 0.733333528 0.0823947787
vt 0.766666889 0
vt 0.733333528 0.165915847
vt 0.766666889 0.0823947787
vt 0.80000025 0
vt 0.733333528 0.249436915
vt 0.80000025 0.0823947787
vt 0.833333611 0
vt 0.766666889 0.165915847
vt 0.733333528 0.332957983
vt 0.833333611 0.0823947787
vt 0.866666973 0
vt 0.80000025 0.165915847
vt 0.766666889 0.249436915
vt 0.733333528 0.416479081
vt 0.866666973 0.0823947787
vt 0.900000334 0
vt 0.766666889 0.332957983
vt 0.833333611 0.165915847
vt 0.80000025 0.249436915
vt 0.733333528 0.500000179
vt 0.900000334 0.0823947787
vt 0.933333695 0
vt 0.766666889 0.416479081
vt 0.80000025 0.332957983
vt 0.866666973 0.165915847
vt 0.833333611 0.249436915
vt 0.733333528 0.583521128
vt 0.933333695 0.0823947787
vt 0.966667056 0
vt 0.766666889 0.500000179
vt 0.80000025 0.416479081
vt 0.833333611 0.332957983
vt 0.900000334 0.165915847
vt 0.866666973 0.249436915
vt 0.733333528 0.667042315
vt 0.766666889 0.583521128
vt 0.80000025 0.500000179
vt 0.833333611 0.416479081
vt 0.866666973 0.332957983
vt 0.900000334 0.249436915
vt 0.733333528 0.750563264
vt 0.766666889 0.667042315
vt 0.80000025 0.583521128
vt 0.833333611 0.500000179
vt 0.866666973 0.416479081
vt 0.733333528 0.834084511
vt 0.766666889 0.750563264
vt 0.80000025 0.667042315
vt 0.833333611 0.583521128
vt 0.733333528 0.917605519
vt 0.716666698 1
vt 0.766666889 0.834084511
vt 0.80000025 0.750563264
vt 0.766666889 0.917605519
vt 0.75 1
vt 0.80000025 0.834084511
vt 0.833333611 0.667042315
vt 0.866666973 0.500000179
vt 0.80000025 0.917605519
vt 0.783333361 1
vt 0.833333611 0.750563264
vt 0.866666973 0.583521128
vt 0.833333611 0.834084511
vt 0.866666973 0.667042315
vt 0.833333611 0.917605519
vt 0.816666722 1
vt 0.866666973 0.750563264
vt 0.866666973 0.834084511
vt 0.866666973 0.917605519
vt 0.850000024 1
vt 0.900000334 0.500000179
vt 0.900000334 0.583521128
vt 0.900000334 0.667042315
vt 0.900000334 0.750563264
vt 0.900000334 0.834084511
vt 0.900000334 0.416479081
vt 0.900000334 0.917605519
vt 0.883333385 1
vt 0.900000334 0.332957983
vt 0.933333695 0.500000179
vt 0.933333695 0.583521128
vt 0.933333695 0.667042315
vt 0.933333695 0.750563264
vt 0.933333695 0.834084511
vt 0.933333695 0.416479081
vt 0.933333695 0.332957983
vt 0.933333695 0.249436915
vt 0.933333695 0.917605519
vt 0.916666687 1
vt 0.933333695 0.165915847
vt 0.966667056 0.0823947787
vt 1.00000036 0
vt 1.00000036 0.0823947787
vt 0.966667056 0.165915847
vt 1.00000036 0.165915847
vt 0.966667056 0.249436915
vt 1.00000036 0.249436915
vt 0.966667056 0.332957983
vt 1.00000036 0.332957983
vt 0.966667056 0.416479081
vt 1.00000036 0.416479081
vt 0.966667056 0.500000179
vt 1.00000036 0.500000179
vt 0.966667056 0.583521128
vt 1.00000036 0.583521128
vt 0.966667056 0.667042315
vt 1.00000036 0.667042315
vt 0.966667056 0.750563264
vt 1.00000036 0.750563264
vt 0.966667056 0.834084511
vt 1.00000036 0.834084511
vt 0.966667056 0.917605519
vt 0.950000048 1
vt 1.00000036 0.917605519
vt 0.983333349 1
vn 0.259212971 -0.304097086 0.916697085
vn 0.0357997268 -0.153546721 0.987492681
vn 0.0629543811 -0.304100543 0.95055759
vn -0.170295745 -0.153550386 0.973355889
vn -0.207909465 0 0.978148103
vn -0.136053741 -0.304100454 0.942874491
vn -0.406736583 0 0.91354543
vn -0.434349746 0.153552189 0.887559593
vn -0.368946582 -0.153550416 0.916679144
vn -0.329115361 -0.304100573 0.893983185
vn -0.609394312 0.153548792 0.777856886
vn -0.609652758 0.304102063 0.732014716
vn -0.551472545 -0.153550282 0.819939256
vn -0.507792652 -0.304100424 0.806020796
vn -0.587785125 0 0.809017062
vn -0.748526752 0.304099023 0.589263558
vn -0.711982846 0.448144168 0.540599048
vn -0.709896505 -0.153550178 0.687363923
vn -0.664277375 -0.304100633 0.682831168
vn -0.743144572 0 0.669130802
vn -0.757803082 0.153548807 0.634158671
vn -0.808822811 0.448142171 0.380754858
vn -0.735769689 0.58177036 0.346678793
vn -0.837294638 -0.153550342 0.52474761
vn -0.791729927 -0.304100364 0.529798746
vn -0.854684412 0.304098755 0.42075929
vn -0.866025329 0 0.50000006
vn -0.873092234 0.153548688 0.462744832
vn -0.791771173 0.581769288 0.186126515
vn -0.690000713 0.701368392 0.178833351
vn -0.928098798 -0.153550267 0.339197308
vn -0.884580135 -0.304100305 0.353611439
vn -0.87031132 0.448142409 0.204270676
vn -0.92348814 0.304099351 0.233865619
vn -0.95105648 0 0.309017092
vn -0.950223148 0.153548777 0.271106541
vn -0.712104797 0.701367795 0.0314650796
vn -0.592033327 0.804014385 0.0552934147
vn -0.978340805 -0.15354991 0.138822392
vn -0.938769937 -0.304099888 0.161969647
vn -0.813166916 0.581769288 0.0174407959
vn -0.893763244 0.44814238 0.0188590791
vn -0.951931059 0.30409947 0.0367513038
vn -0.994521856 0 0.104528598
vn -0.985824704 0.15354906 0.0676198155
vn -0.590592504 0.804014027 -0.0690070167
vn -0.461222738 0.887118161 -0.0171750635
vn -0.703085542 0.701367676 -0.117277637
vn -0.799023271 0.581769407 -0.152007312
vn -0.878153265 0.448142737 -0.167376906
vn -0.938770294 0.304099202 -0.161969483
vn -0.978341043 0.153548688 -0.138822302
vn -0.447572947 0.887118101 -0.112693802
vn -0.314401299 0.948348165 -0.0422788374
vn -0.563339353 0.804013968 -0.190290168
vn -0.663338125 0.701367557 -0.260894597
vn -0.749958694 0.581769228 -0.314811945
vn -0.824163973 0.448142529 -0.346297711
vn -0.298740506 0.948348165 -0.106723592
vn -0.162350267 0.986216903 -0.0319173522
vn -0.414362103 0.887118101 -0.203286946
vn -0.51146549 0.804013968 -0.303256661
vn -0.594599426 0.701367617 -0.393109202
vn -0.152165771 0.986216784 -0.0649764761
vn 0 1 0
vn -0.270023406 0.948348165 -0.166502744
vn -0.36304149 0.887118101 -0.284995377
vn -0.135331124 0.986216784 -0.0951944739
vn 0 1 0
vn -0.229505077 0.948348284 -0.219004661
vn -0.437238187 0.804014087 -0.402969062
vn -0.668117046 0.581769347 -0.463857651
vn -0.112581886 0.986216903 -0.121250205
vn 0 1 0
vn -0.295854241 0.887117982 -0.354248315
vn -0.499874115 0.701367795 -0.50814271
vn -0.178956181 0.948348284 -0.26193583
vn -0.343901426 0.804014087 -0.485070318
vn -0.0849122629 0.986216903 -0.142007813
vn 0 1 0
vn -0.215736896 0.887117863 -0.408018887
vn -0.120585971 0.948348165 -0.293419212
vn -0.0535314605 0.986216903 -0.156558469
vn 0 1 0
vn -0.557075799 0.581769288 -0.592630565
vn -0.383301765 0.701367676 -0.60096848
vn -0.23553443 0.804013968 -0.545971632
vn -0.126190633 0.887117982 -0.443956792
vn -0.0569457896 0.948348165 -0.312078506
vn -0.734154642 0.448142707 -0.510083437
vn -0.0198111776 0.986216903 -0.164267614
vn 0 1 0
vn -0.884580493 0.304098934 -0.353611469
vn -0.421687365 0.581769407 -0.695502818
vn -0.24997744 0.701367736 -0.667528629
vn -0.116873793 0.804014087 -0.583011031
vn -0.0311292801 0.887118101 -0.460491478
vn 0.00918314792 0.948348284 -0.317098051
vn -0.612059414 0.448142588 -0.651576161
vn -0.791730225 0.304099649 -0.529798746
vn -0.928099096 0.153549239 -0.339197129
vn 0.0147748506 0.986216784 -0.164797276
vn 0 1 0
vn -0.994521856 0 -0.104528338
vn -0.985824585 -0.153549716 -0.0676197037
vn -0.951930881 -0.304100186 -0.0367512815
vn -0.95105654 0 -0.309017032
vn -0.95022285 -0.153550386 -0.271106631
vn -0.923487842 -0.304100603 -0.233865649
vn -0.837294817 0.153549507 -0.52474755
vn -0.873092055 -0.15354991 -0.462744743
vn -0.854684055 -0.304099977 -0.420759171
vn -0.866025269 0 -0.500000238
vn -0.664277732 0.304099351 -0.682831347
vn -0.757802963 -0.153549626 -0.634158611
vn -0.748526633 -0.304099679 -0.58926332
vn -0.743144751 0 -0.669130802
vn -0.709896624 0.153548986 -0.687364101
vn -0.463213831 0.448142737 -0.764592171
vn -0.609394193 -0.153549716 -0.777856827
vn -0.609654844 -0.304099679 -0.732013941
vn -0.50779283 0.304099351 -0.806021094
vn -0.587785244 0 -0.809017003
vn -0.551472545 0.153549194 -0.819939494
vn -0.267869473 0.581769407 -0.767978132
vn -0.434351802 -0.153549597 -0.887559056
vn -0.444137931 -0.304099649 -0.842772186
vn -0.294123888 0.448142469 -0.844191611
vn -0.329115361 0.304099351 -0.893983662
vn -0.406736404 0 -0.913545549
vn -0.368946314 0.153549463 -0.916679442
vn -0.105727769 0.701367915 -0.704914629
vn -0.240326315 -0.153549477 -0.958470523
vn -0.259210378 -0.3040995 -0.916697085
vn -0.102344073 0.581769228 -0.806889176
vn -0.112179257 0.448142678 -0.886895716
vn -0.136053666 0.30409947 -0.942874789
vn -0.20791167 0 -0.978147566
vn -0.170295924 0.153549582 -0.973355889
vn 0.0068949922 0.804014087 -0.59457022
vn 0.0431427658 0.701367676 -0.711492896
vn 0.0676539317 0.581769228 -0.810535252
vn 0.0746683404 0.448142648 -0.890838265
vn 0.0629540831 0.304099679 -0.950557828
vn 0.0357975699 0.153549731 -0.987492323
vn 0.065292716 0.887118101 -0.456900924
vn 0.130362645 0.804014087 -0.580143869
vn 0.190127566 0.701367795 -0.686975062
vn 0.234695211 0.581769347 -0.778757036
vn 0.258252114 0.448142499 -0.855846941
vn 0.0749111101 0.948348284 -0.308259547
vn 0.158861056 0.887117982 -0.433341593
vn 0.248132482 0.804014027 -0.540362537
vn 0.328802824 0.701367855 -0.632433236
vn 0.0487153679 0.986216784 -0.158124372
vn 0 1 0
vn 0.137364984 0.948348165 -0.285948515
vn 0.24548611 0.887117982 -0.390842915
vn 0.0805267468 0.986216903 -0.144539922
vn 0 1 0
vn 0.193815216 0.948348284 -0.25113973
vn 0.355057955 0.804014087 -0.476964474
vn 0.391479254 0.581769288 -0.712943435
vn 0.108818583 0.986216903 -0.124638855
vn 0 1 0
vn 0.321382403 0.887117982 -0.331262648
vn 0.453108162 0.701367915 -0.550250888
vn 0.241794869 0.948348284 -0.205355436
vn 0.446465492 0.804014206 -0.392720997
vn 0.132354572 0.986216784 -0.0992911458
vn 0 1 0
vn 0.383232743 0.887118101 -0.257204711
vn 0.279206902 0.948348165 -0.150596067
vn 0.150106087 0.986216784 -0.0696031526
vn 0 1 0
vn 0.531153917 0.581769288 -0.61597079
vn 0.557610273 0.701367855 -0.444020182
vn 0.518360376 0.804014206 -0.291313797
vn 0.428334087 0.887118101 -0.1719051
vn 0.304416239 0.948348284 -0.0892546475
vn 0.430549324 0.448142767 -0.783450902
vn 0.161297292 0.986216784 -0.036874406
vn 0 1 0
vn 0.25921008 0.304099828 -0.916696966
vn 0.647614419 0.581769347 -0.492077202
vn 0.637742162 0.701367795 -0.318383455
vn 0.567600489 0.804014266 -0.177174509
vn 0.454715073 0.887118101 -0.0790928379
vn 0.316321045 0.948348284 -0.024013184
vn 0.584029317 0.448142886 -0.676814377
vn 0.444138259 0.304099709 -0.842771947
vn 0.240326062 0.153549835 -0.958470523
vn 0.165438935 0.986216784 -0.00253317272
vn 0 1 0
vn 0 0 -1
vn -0.0357973874 -0.153549224 -0.987492323
vn -0.0629542619 -0.304099411 -0.950557888
vn 0.207911909 0 -0.978147566
vn 0.170296147 -0.153549194 -0.973356009
vn 0.136053696 -0.304099351 -0.942874789
vn 0.434351921 0.153549626 -0.887558937
vn 0.368946612 -0.153549135 -0.916679382
vn 0.329115421 -0.304099411 -0.893983543
vn 0.406736791 0 -0.91354531
vn 0.609654844 0.304100096 -0.732013643
vn 0.551472723 -0.153549299 -0.819939315
vn 0.507793069 -0.30409956 -0.806020856
vn 0.587785304 0 -0.809016883
vn 0.609394014 0.153550103 -0.777856827
vn 0.711984575 0.448142678 -0.540597975
vn 0.709896743 -0.153549626 -0.687363803
vn 0.664277911 -0.304099441 -0.682831168
vn 0.748526633 0.304099709 -0.58926332
vn 0.743144989 0 -0.669130385
vn 0.757802844 0.153549999 -0.634158731
vn 0.735771239 0.581769288 -0.346677512
vn 0.837294817 -0.15354915 -0.524747491
vn 0.791730344 -0.3040995 -0.529798627
vn 0.808822453 0.448143035 -0.38075462
vn 0.854684055 0.304100037 -0.420759082
vn 0.866025507 0 -0.499999911
vn 0.873092115 0.153549701 -0.462744743
vn 0.690001726 0.701367736 -0.17883198
vn 0.928098977 -0.153549477 -0.339197248
vn 0.884580314 -0.304099768 -0.35361135
vn 0.791770875 0.581769586 -0.186126485
vn 0.870311081 0.448143065 -0.204270735
vn 0.923487961 0.304100096 -0.233865574
vn 0.95105654 0 -0.309016883
vn 0.950223029 0.153549567 -0.271106333
vn 0.592033744 0.804014087 -0.0552922338
vn 0.712104559 0.701367974 -0.0314649753
vn 0.813166618 0.581769586 -0.0174407251
vn 0.893762887 0.448143035 -0.0188588668
vn 0.951931 0.304099977 -0.0367509238
vn 0.985824585 0.153549939 -0.0676195771
vn 0.461222917 0.887118101 0.0171759892
vn 0.590592325 0.804014087 0.0690069199
vn 0.703085423 0.701367795 0.117277659
vn 0.799023032 0.581769586 0.152007416
vn 0.878152966 0.448143065 0.16737701
vn 0.314401269 0.948348284 0.0422789119
vn 0.447572976 0.887118161 0.112693749
vn 0.563339114 0.804014206 0.190290019
vn 0.663337827 0.701367974 0.260894299
vn 0.162350148 0.986216903 0.0319185145
vn 0 1 0
vn 0.298740566 0.948348045 0.106723621
vn 0.414361984 0.887118101 0.203286931
vn 0.152165771 0.986216784 0.0649765432
vn 0 1 0
vn 0.270023465 0.948348045 0.166502833
vn 0.511465251 0.804014206 0.303256392
vn 0.749958456 0.581769466 0.314811885
vn 0.135331124 0.986216784 0.0951945335
vn 0 1 0
vn 0.363041401 0.887118161 0.284995258
vn 0.594599247 0.701367915 0.393109053
vn 0.229505152 0.948348165 0.21900481
vn 0.437237948 0.804014087 0.402969182
vn 0.112581916 0.986216903 0.121250242
vn 0 1 0
vn 0.295854151 0.887118161 0.354247928
vn 0.178956166 0.948348165 0.2619358
vn 0.084912248 0.986217022 0.142007083
vn 0 1 0
vn 0.668116987 0.581769466 0.4638578
vn 0.499873698 0.701367855 0.508142948
vn 0.343901336 0.804014027 0.485070378
vn 0.215736717 0.887118161 0.40801841
vn 0.12058606 0.948348284 0.293418854
vn 0.824163795 0.448142797 0.346297711
vn 0.0535314977 0.986217022 0.156558126
vn 0 1 0
vn 0.938769937 0.304099888 0.161969647
vn 0.55707556 0.581769526 0.592630625
vn 0.383301705 0.701367855 0.600968361
vn 0.235534564 0.804014087 0.545971274
vn 0.126190484 0.887118101 0.443956673
vn 0.0569458678 0.948348165 0.312078297
vn 0.734154463 0.448142856 0.510083556
vn 0.884580255 0.304099679 0.353611559
vn 0.978340805 0.15354991 0.138822347
vn 0.0198112 0.986216903 0.164267704
vn 0 1 0
vn 0.994521856 0 -0.104528442
vn 0.978340924 -0.153549209 -0.138822407
vn 0.938770175 -0.304099441 -0.161969528
vn 0.994521856 0 0.104528666
vn 0.985824585 -0.153549373 0.0676198453
vn 0.951930881 -0.304100007 0.036751315
vn 0.928098977 0.15354903 0.339197457
vn 0.950223029 -0.153549612 0.271106601
vn 0.923487961 -0.304100066 0.233865708
vn 0.95105648 0 0.309017181
vn 0.791730106 0.304099619 0.529798865
vn 0.873092055 -0.153549626 0.462744862
vn 0.854684174 -0.304099888 0.420759112
vn 0.866025448 0 0.499999911
vn 0.837294638 0.153549805 0.52474761
vn 0.612059236 0.448142618 0.6515764
vn 0.757802844 -0.153550044 0.634158611
vn 0.748526335 -0.304100275 0.58926338
vn 0.664277494 0.304099679 0.682831347
vn 0.743144751 0 0.669130683
vn 0.709896624 0.153549567 0.687363982
vn 0.421687275 0.581769168 0.695502937
vn 0.609394133 -0.153549939 0.777856827
vn 0.609654486 -0.304100215 0.732014
vn 0.46321395 0.448142558 0.764592052
vn 0.507793009 0.30409959 0.806020916
vn 0.587785006 0 0.809017181
vn 0.551472604 0.153549209 0.819939375
vn 0.24997732 0.701367736 0.667528749
vn 0.434351653 -0.153550074 0.887559056
vn 0.444140285 -0.304097474 0.842771769
vn 0.267869234 0.581769347 0.767978251
vn 0.294123918 0.448142588 0.844191551
vn 0.329115272 0.304099292 0.893983662
vn 0.406736583 0 0.913545549
vn 0.368946373 0.153549254 0.916679442
vn 0.116873525 0.804014027 0.58301115
vn 0.105727643 0.701367676 0.704915047
vn 0.102344133 0.581769228 0.806889176
vn 0.112179264 0.448142499 0.886895776
vn 0.136053607 0.30409947 0.942874789
vn 0.170295626 0.15354915 0.973356009
vn 0.0311291385 0.887118101 0.460491657
vn -0.00689523667 0.804013968 0.594570398
vn -0.0431427807 0.701367736 0.711492777
vn -0.067654185 0.581769049 0.810535431
vn -0.0746680945 0.44814238 0.890838385
vn -0.0091833137 0.948348165 0.317098498
vn -0.0652925372 0.887118101 0.456900924
vn -0.130362496 0.804014027 0.580143988
vn -0.190127805 0.701367617 0.686975062
vn -0.0147749092 0.986216784 0.164797097
vn 0 1 0
vn -0.0749111846 0.948348165 0.308259606
vn -0.158860937 0.887117982 0.433341503
vn -0.0487153754 0.986216784 0.158124432
vn 0 1 0
vn -0.137365058 0.948348284 0.285948306
vn -0.248132631 0.804014027 0.540362477
vn -0.234695375 0.581769109 0.778757274
vn -0.0805267543 0.986216664 0.144540951
vn 0 1 0
vn -0.245486394 0.887117863 0.390842974
vn -0.328803152 0.701367557 0.632433474
vn -0.19381541 0.948348165 0.251140028
vn -0.355057925 0.804014027 0.476964682
vn -0.108818702 0.986216903 0.124638811
vn 0 1 0
vn -0.321382642 0.887117982 0.33126238
vn -0.241794914 0.948348165 0.20535557
vn -0.132354677 0.986216784 0.0992909744
vn 0 1 0
vn -0.391479313 0.581769049 0.712943733
vn -0.453108281 0.701367617 0.550251067
vn -0.446465731 0.804013968 0.392721266
vn -0.383233011 0.887118101 0.257204264
vn -0.27920711 0.948348165 0.150595963
vn -0.258252233 0.448142469 0.855846941
vn -0.150106207 0.986216784 0.0696029365
vn 0 1 0
vn -0.0629542544 0.304099262 0.950557888
vn -0.531154037 0.581769049 0.61597091
vn -0.557610691 0.701367378 0.444020241
vn -0.518360734 0.804013848 0.291313946
vn -0.428334355 0.887117982 0.171905398
vn -0.304416418 0.948348165 0.0892545655
vn -0.430549532 0.448142141 0.78345114
vn -0.259210616 0.304099143 0.916697085
vn -0.0357976705 0.153548956 0.987492442
vn -0.161297351 0.986216784 0.0368731581
vn 0 1 0
vn 0.20791167 0 0.978147566
vn 0.240328237 -0.15354684 0.958470523
vn 0.259212971 -0.304097086 0.916697085
vn 0.0357997268 -0.153546721 0.987492681
vn 0 0 1
vn -0.207909465 0 0.978148103
vn -0.240323976 0.153552637 0.958470643
vn -0.434349746 0.153552189 0.887559593
vn -0.444135606 0.30410248 0.842772365
vn -0.609652758 0.304102063 0.732014716
vn -0.584026992 0.448145092 0.676814914
vn -0.711982846 0.448144168 0.540599048
vn -0.647612154 0.581770957 0.492078334
vn -0.735769689 0.58177036 0.346678793
vn -0.637740612 0.70136869 0.318384916
vn -0.690000713 0.701368392 0.178833351
vn -0.567599773 0.804014504 0.177175924
vn -0.592033327 0.804014385 0.0552934147
vn -0.454714686 0.887118161 0.0790942535
vn -0.461222738 0.887118161 -0.0171750635
vn -0.316321015 0.948348284 0.0240134019
vn -0.314401299 0.948348165 -0.0422788374
vn -0.165438876 0.986216784 0.00253421976
vn 0 1 0
vn -0.162350267 0.986216903 -0.0319173522
vn 0 1 0
g submesh_0
usemtl submesh_0
f 1/1/1 2/2/2 3/3/3
f 2/2/2 4/4/4 3/3/3
f 2/2/2 5/5/5 4/4/4
f 3/3/3 4/4/4 6/6/6
f 5/5/5 7/7/7 4/4/4
f 5/5/5 8/8/8 7/7/7
f 4/4/4 9/9/9 6/6/6
f 4/4/4 7/7/7 9/9/9
f 6/6/6 9/9/9 10/10/10
f 8/8/8 11/11/11 7/7/7
f 8/8/8 12/12/12 11/11/11
f 9/9/9 13/13/13 10/10/10
f 10/10/10 13/13/13 14/14/14
f 7/7/7 15/15/15 9/9/9
f 7/7/7 11/11/11 15/15/15
f 9/9/9 15/15/15 13/13/13
f 12/12/12 16/16/16 11/11/11
f 12/12/12 17/17/17 16/16/16
f 13/13/13 18/18/18 14/14/14
f 14/14/14 18/18/18 19/19/19
f 15/15/15 20/20/20 13/13/13
f 13/13/13 20/20/20 18/18/18
f 11/11/11 21/21/21 15/15/15
f 11/11/11 16/16/16 21/21/21
f 15/15/15 21/21/21 20/20/20
f 17/17/17 22/22/22 16/16/16
f 17/17/17 23/23/23 22/22/22
f 18/18/18 24/24/24 19/19/19
f 19/19/19 24/24/24 25/25/25
f 16/16/16 26/26/26 21/21/21
f 16/16/16 22/22/22 26/26/26
f 20/20/20 27/27/27 18/18/18
f 18/18/18 27/27/27 24/24/24
f 21/21/21 28/28/28 20/20/20
f 21/21/21 26/26/26 28/28/28
f 20/20/20 28/28/28 27/27/27
f 23/23/23 29/29/29 22/22/22
f 23/23/23 30/30/30 29/29/29
f 24/24/24 31/31/31 25/25/25
f 25/25/25 31/31/31 32/32/32
f 22/22/22 33/33/33 26/26/26
f 22/22/22 29/29/29 33/33/33
f 26/26/26 34/34/34 28/28/28
f 26/26/26 33/33/33 34/34/34
f 27/27/27 35/35/35 24/24/24
f 24/24/24 35/35/35 31/31/31
f 28/28/28 36/36/36 27/27/27
f 28/28/28 34/34/34 36/36/36
f 27/27/27 36/36/36 35/35/35
f 30/30/30 37/37/37 29/29/29
f 30/30/30 38/38/38 37/37/37
f 31/31/31 39/39/39 32/32/32
f 32/32/32 39/39/39 40/40/40
f 29/29/29 41/41/41 33/33/33
f 29/29/29 37/37/37 41/41/41
f 33/33/33 42/42/42 34/34/34
f 33/33/33 41/41/41 42/42/42
f 34/34/34 43/43/43 36/36/36
f 34/34/34 42/42/42 43/43/43
f 35/35/35 44/44/44 31/31/31
f 31/31/31 44/44/44 39/39/39
f 36/36/36 45/45/45 35/35/35
f 36/36/36 43/43/43 45/45/45
f 35/35/35 45/45/45 44/44/44
f 38/38/38 46/46/46 37/37/37
f 38/38/38 47/47/47 46/46/46
f 37/37/37 48/48/48 41/41/41
f 37/37/37 46/46/46 48/48/48
f 41/41/41 49/49/49 42/42/42
f 41/41/41 48/48/48 49/49/49
f 42/42/42 50/50/50 43/43/43
f 42/42/42 49/49/49 50/50/50
f 43/43/43 51/51/51 45/45/45
f 43/43/43 50/50/50 51/51/51
f 45/45/45 52/52/52 44/44/44
f 45/45/45 51/51/51 52/52/52
f 47/47/47 53/53/53 46/46/46
f 47/47/47 54/54/54 53/53/53
f 46/46/46 55/55/55 48/48/48
f 46/46/46 53/53/53 55/55/55
f 48/48/48 56/56/56 49/49/49
f 48/48/48 55/55/55 56/56/56
f 49/49/49 57/57/57 50/50/50
f 49/49/49 56/56/56 57/57/57
f 50/50/50 58/58/58 51/51/51
f 50/50/50 57/57/57 58/58/58
f 54/54/54 59/59/59 53/53/53
f 54/54/54 60/60/60 59/59/59
f 53/53/53 61/61/61 55/55/55
f 53/53/53 59/59/59 61/61/61
f 55/55/55 62/62/62 56/56/56
f 55/55/55 61/61/61 62/62/62
f 56/56/56 63/63/63 57/57/57
f 56/56/56 62/62/62 63/63/63
f 60/60/60 64/64/64 59/59/59
f 60/60/60 65/65/65 64/64/64
f 59/59/59 66/66/66 61/61/61
f 59/59/59 64/64/64 66/66/66
f 61/61/61 67/67/67 62/62/62
f 61/61/61 66/66/66 67/67/67
f 64/64/64 68/68/68 66/66/66
f 64/64/64 69/69/69 68/68/68
f 66/66/66 68/68/68 70/70/70
f 66/66/66 70/70/70 67/67/67
f 62/62/62 67/67/67 71/71/71
f 62/62/62 71/71/71 63/63/63
f 57/57/57 63/63/63 72/72/72
f 57/57/57 72/72/72 58/58/58
f 68/68/68 73/73/73 70/70/70
f 68/68/68 74/74/74 73/73/73
f 67/67/67 70/70/70 75/75/75
f 67/67/67 75/75/75 71/71/71
f 63/63/63 71/71/71 76/76/76
f 63/63/63 76/76/76 72/72/72
f 70/70/70 73/73/73 77/77/77
f 70/70/70 77/77/77 75/75/75
f 71/71/71 75/75/75 78/78/78
f 71/71/71 78/78/78 76/76/76
f 73/73/73 79/79/79 77/77/77
f 73/73/73 80/80/80 79/79/79
f 75/75/75 77/77/77 81/81/81
f 75/75/75 81/81/81 78/78/78
f 77/77/77 79/79/79 82/82/82
f 77/77/77 82/82/82 81/81/81
f 79/79/79 83/83/83 82/82/82
f 79/79/79 84/84/84 83/83/83
f 72/72/72 76/76/76 85/85/85
f 76/76/76 78/78/78 86/86/86
f 76/76/76 86/86/86 85/85/85
f 78/78/78 81/81/81 87/87/87
f 78/78/78 87/87/87 86/86/86
f 81/81/81 82/82/82 88/88/88
f 81/81/81 88/88/88 87/87/87
f 82/82/82 83/83/83 89/89/89
f 82/82/82 89/89/89 88/88/88
f 72/72/72 85/85/85 90/90/90
f 58/58/58 72/72/72 90/90/90
f 83/83/83 91/91/91 89/89/89
f 83/83/83 92/92/92 91/91/91
f 58/58/58 90/90/90 93/93/93
f 51/51/51 58/58/58 93/93/93
f 51/51/51 93/93/93 52/52/52
f 85/85/85 86/86/86 94/94/94
f 86/86/86 87/87/87 95/95/95
f 86/86/86 95/95/95 94/94/94
f 87/87/87 88/88/88 96/96/96
f 87/87/87 96/96/96 95/95/95
f 88/88/88 89/89/89 97/97/97
f 88/88/88 97/97/97 96/96/96
f 89/89/89 91/91/91 98/98/98
f 89/89/89 98/98/98 97/97/97
f 90/90/90 85/85/85 99/99/99
f 85/85/85 94/94/94 99/99/99
f 93/93/93 90/90/90 100/100/100
f 90/90/90 99/99/99 100/100/100
f 52/52/52 93/93/93 101/101/101
f 93/93/93 100/100/100 101/101/101
f 91/91/91 102/102/102 98/98/98
f 91/91/91 103/103/103 102/102/102
f 52/52/52 101/101/101 104/104/104
f 44/44/44 52/52/52 104/104/104
f 44/44/44 104/104/104 39/39/39
f 39/39/39 104/104/104 105/105/105
f 39/39/39 105/105/105 40/40/40
f 40/40/40 105/105/105 106/106/106
f 104/104/104 101/101/101 107/107/107
f 104/104/104 107/107/107 105/105/105
f 105/105/105 108/108/108 106/106/106
f 105/105/105 107/107/107 108/108/108
f 106/106/106 108/108/108 109/109/109
f 101/101/101 100/100/100 110/110/110
f 101/101/101 110/110/110 107/107/107
f 108/108/108 111/111/111 109/109/109
f 109/109/109 111/111/111 112/112/112
f 107/107/107 113/113/113 108/108/108
f 107/107/107 110/110/110 113/113/113
f 108/108/108 113/113/113 111/111/111
f 100/100/100 114/114/114 110/110/110
f 100/100/100 99/99/99 114/114/114
f 111/111/111 115/115/115 112/112/112
f 112/112/112 115/115/115 116/116/116
f 113/113/113 117/117/117 111/111/111
f 111/111/111 117/117/117 115/115/115
f 110/110/110 118/118/118 113/113/113
f 110/110/110 114/114/114 118/118/118
f 113/113/113 118/118/118 117/117/117
f 99/99/99 119/119/119 114/114/114
f 99/99/99 94/94/94 119/119/119
f 115/115/115 120/120/120 116/116/116
f 116/116/116 120/120/120 121/121/121
f 114/114/114 122/122/122 118/118/118
f 114/114/114 119/119/119 122/122/122
f 117/117/117 123/123/123 115/115/115
f 115/115/115 123/123/123 120/120/120
f 118/118/118 124/124/124 117/117/117
f 118/118/118 122/122/122 124/124/124
f 117/117/117 124/124/124 123/123/123
f 94/94/94 125/125/125 119/119/119
f 94/94/94 95/95/95 125/125/125
f 120/120/120 126/126/126 121/121/121
f 121/121/121 126/126/126 127/127/127
f 119/119/119 128/128/128 122/122/122
f 119/119/119 125/125/125 128/128/128
f 122/122/122 129/129/129 124/124/124
f 122/122/122 128/128/128 129/129/129
f 123/123/123 130/130/130 120/120/120
f 120/120/120 130/130/130 126/126/126
f 124/124/124 131/131/131 123/123/123
f 124/124/124 129/129/129 131/131/131
f 123/123/123 131/131/131 130/130/130
f 95/95/95 132/132/132 125/125/125
f 95/95/95 96/96/96 132/132/132
f 126/126/126 133/133/133 127/127/127
f 127/127/127 133/133/133 134/134/134
f 125/125/125 135/135/135 128/128/128
f 125/125/125 132/132/132 135/135/135
f 128/128/128 136/136/136 129/129/129
f 128/128/128 135/135/135 136/136/136
f 129/129/129 137/137/137 131/131/131
f 129/129/129 136/136/136 137/137/137
f 130/130/130 138/138/138 126/126/126
f 126/126/126 138/138/138 133/133/133
f 131/131/131 139/139/139 130/130/130
f 131/131/131 137/137/137 139/139/139
f 130/130/130 139/139/139 138/138/138
f 96/96/96 140/140/140 132/132/132
f 96/96/96 97/97/97 140/140/140
f 132/132/132 141/141/141 135/135/135
f 132/132/132 140/140/140 141/141/141
f 135/135/135 142/142/142 136/136/136
f 135/135/135 141/141/141 142/142/142
f 136/136/136 143/143/143 137/137/137
f 136/136/136 142/142/142 143/143/143
f 137/137/137 144/144/144 139/139/139
f 137/137/137 143/143/143 144/144/144
f 139/139/139 145/145/145 138/138/138
f 139/139/139 144/144/144 145/145/145
f 97/97/97 146/146/146 140/140/140
f 97/97/97 98/98/98 146/146/146
f 140/140/140 147/147/147 141/141/141
f 140/140/140 146/146/146 147/147/147
f 141/141/141 148/148/148 142/142/142
f 141/141/141 147/147/147 148/148/148
f 142/142/142 149/149/149 143/143/143
f 142/142/142 148/148/148 149/149/149
f 143/143/143 150/150/150 144/144/144
f 143/143/143 149/149/149 150/150/150
f 98/98/98 151/151/151 146/146/146
f 98/98/98 102/102/102 151/151/151
f 146/146/146 152/152/152 147/147/147
f 146/146/146 151/151/151 152/152/152
f 147/147/147 153/153/153 148/148/148
f 147/147/147 152/152/152 153/153/153
f 148/148/148 154/154/154 149/149/149
f 148/148/148 153/153/153 154/154/154
f 102/102/102 155/155/155 151/151/151
f 102/102/102 156/156/156 155/155/155
f 151/151/151 157/157/157 152/152/152
f 151/151/151 155/155/155 157/157/157
f 152/152/152 158/158/158 153/153/153
f 152/152/152 157/157/157 158/158/158
f 155/155/155 159/159/159 157/157/157
f 155/155/155 160/160/160 159/159/159
f 157/157/157 159/159/159 161/161/161
f 157/157/157 161/161/161 158/158/158
f 153/153/153 158/158/158 162/162/162
f 153/153/153 162/162/162 154/154/154
f 149/149/149 154/154/154 163/163/163
f 149/149/149 163/163/163 150/150/150
f 159/159/159 164/164/164 161/161/161
f 159/159/159 165/165/165 164/164/164
f 158/158/158 161/161/161 166/166/166
f 158/158/158 166/166/166 162/162/162
f 154/154/154 162/162/162 167/167/167
f 154/154/154 167/167/167 163/163/163
f 161/161/161 164/164/164 168/168/168
f 161/161/161 168/168/168 166/166/166
f 162/162/162 166/166/166 169/169/169
f 162/162/162 169/169/169 167/167/167
f 164/164/164 170/170/170 168/168/168
f 164/164/164 171/171/171 170/170/170
f 166/166/166 168/168/168 172/172/172
f 166/166/166 172/172/172 169/169/169
f 168/168/168 170/170/170 173/173/173
f 168/168/168 173/173/173 172/172/172
f 170/170/170 174/174/174 173/173/173
f 170/170/170 175/175/175 174/174/174
f 163/163/163 167/167/167 176/176/176
f 167/167/167 169/169/169 177/177/177
f 167/167/167 177/177/177 176/176/176
f 169/169/169 172/172/172 178/178/178
f 169/169/169 178/178/178 177/177/177
f 172/172/172 173/173/173 179/179/179
f 172/172/172 179/179/179 178/178/178
f 173/173/173 174/174/174 180/180/180
f 173/173/173 180/180/180 179/179/179
f 163/163/163 176/176/176 181/181/181
f 150/150/150 163/163/163 181/181/181
f 174/174/174 182/182/182 180/180/180
f 174/174/174 183/183/183 182/182/182
f 150/150/150 181/181/181 184/184/184
f 144/144/144 150/150/150 184/184/184
f 144/144/144 184/184/184 145/145/145
f 176/176/176 177/177/177 185/185/185
f 177/177/177 178/178/178 186/186/186
f 177/177/177 186/186/186 185/185/185
f 178/178/178 179/179/179 187/187/187
f 178/178/178 187/187/187 186/186/186
f 179/179/179 180/180/180 188/188/188
f 179/179/179 188/188/188 187/187/187
f 180/180/180 182/182/182 189/189/189
f 180/180/180 189/189/189 188/188/188
f 181/181/181 176/176/176 190/190/190
f 176/176/176 185/185/185 190/190/190
f 184/184/184 181/181/181 191/191/191
f 181/181/181 190/190/190 191/191/191
f 145/145/145 184/184/184 192/192/192
f 184/184/184 191/191/191 192/192/192
f 182/182/182 193/193/193 189/189/189
f 182/182/182 194/194/194 193/193/193
f 145/145/145 192/192/192 195/195/195
f 138/138/138 145/145/145 195/195/195
f 138/138/138 195/195/195 133/133/133
f 133/133/133 195/195/195 196/196/196
f 133/133/133 196/196/196 134/134/134
f 134/134/134 196/196/196 197/197/197
f 195/195/195 192/192/192 198/198/198
f 195/195/195 198/198/198 196/196/196
f 196/196/196 199/199/199 197/197/197
f 196/196/196 198/198/198 199/199/199
f 197/197/197 199/199/199 200/200/200
f 192/192/192 191/191/191 201/201/201
f 192/192/192 201/201/201 198/198/198
f 199/199/199 202/202/202 200/200/200
f 200/200/200 202/202/202 203/203/203
f 198/198/198 204/204/204 199/199/199
f 198/198/198 201/201/201 204/204/204
f 199/199/199 204/204/204 202/202/202
f 191/191/191 205/205/205 201/201/201
f 191/191/191 190/190/190 205/205/205
f 202/202/202 206/206/206 203/203/203
f 203/203/203 206/206/206 207/207/207
f 204/204/204 208/208/208 202/202/202
f 202/202/202 208/208/208 206/206/206
f 201/201/201 209/209/209 204/204/204
f 201/201/201 205/205/205 209/209/209
f 204/204/204 209/209/209 208/208/208
f 190/190/190 210/210/210 205/205/205
f 190/190/190 185/185/185 210/210/210
f 206/206/206 211/211/211 207/207/207
f 207/207/207 211/211/211 212/212/212
f 205/205/205 213/213/213 209/209/209
f 205/205/205 210/210/210 213/213/213
f 208/208/208 214/214/214 206/206/206
f 206/206/206 214/214/214 211/211/211
f 209/209/209 215/215/215 208/208/208
f 209/209/209 213/213/213 215/215/215
f 208/208/208 215/215/215 214/214/214
f 185/185/185 216/216/216 210/210/210
f 185/185/185 186/186/186 216/216/216
f 211/211/211 217/217/217 212/212/212
f 212/212/212 217/217/217 218/218/218
f 210/210/210 219/219/219 213/213/213
f 210/210/210 216/216/216 219/219/219
f 213/213/213 220/220/220 215/215/215
f 213/213/213 219/219/219 220/220/220
f 214/214/214 221/221/221 211/211/211
f 211/211/211 221/221/221 217/217/217
f 215/215/215 222/222/222 214/214/214
f 215/215/215 220/220/220 222/222/222
f 214/214/214 222/222/222 221/221/221
f 186/186/186 223/223/223 216/216/216
f 186/186/186 187/187/187 223/223/223
f 217/217/217 224/224/224 218/218/218
f 218/218/218 224/224/224 225/225/225
f 216/216/216 226/226/226 219/219/219
f 216/216/216 223/223/223 226/226/226
f 219/219/219 227/227/227 220/220/220
f 219/219/219 226/226/226 227/227/227
f 220/220/220 228/228/228 222/222/222
f 220/220/220 227/227/227 228/228/228
f 221/221/221 229/229/229 217/217/217
f 217/217/217 229/229/229 224/224/224
f 222/222/222 230/230/230 221/221/221
f 222/222/222 228/228/228 230/230/230
f 221/221/221 230/230/230 229/229/229
f 187/187/187 231/231/231 223/223/223
f 187/187/187 188/188/188 231/231/231
f 223/223/223 232/232/232 226/226/226
f 223/223/223 231/231/231 232/232/232
f 226/226/226 233/233/233 227/227/227
f 226/226/226 232/232/232 233/233/233
f 227/227/227 234/234/234 228/228/228
f 227/227/227 233/233/233 234/234/234
f 228/228/228 235/235/235 230/230/230
f 228/228/228 234/234/234 235/235/235
f 230/230/230 236/236/236 229/229/229
f 230/230/230 235/235/235 236/236/236
f 188/188/188 237/237/237 231/231/231
f 188/188/188 189/189/189 237/237/237
f 231/231/231 238/238/238 232/232/232
f 231/231/231 237/237/237 238/238/238
f 232/232/232 239/239/239 233/233/233
f 232/232/232 238/238/238 239/239/239
f 233/233/233 240/240/240 234/234/234
f 233/233/233 239/239/239 240/240/240
f 234/234/234 241/241/241 235/235/235
f 234/234/234 240/240/240 241/241/241
f 189/189/189 242/242/242 237/237/237
f 189/189/189 193/193/193 242/242/242
f 237/237/237 243/243/243 238/238/238
f 237/237/237 242/242/242 243/243/243
f 238/238/238 244/244/244 239/239/239
f 238/238/238 243/243/243 244/244/244
f 239/239/239 245/245/245 240/240/240
f 239/239/239 244/244/244 245/245/245
f 193/193/193 246/246/246 242/242/242
f 193/193/193 247/247/247 246/246/246
f 242/242/242 248/248/248 243/243/243
f 242/242/242 246/246/246 248/248/248
f 243/243/243 249/249/249 244/244/244
f 243/243/243 248/248/248 249/249/249
f 246/246/246 250/250/250 248/248/248
f 246/246/246 251/251/251 250/250/250
f 248/248/248 250/250/250 252/252/252
f 248/248/248 252/252/252 249/249/249
f 244/244/244 249/249/249 253/253/253
f 244/244/244 253/253/253 245/245/245
f 240/240/240 245/245/245 254/254/254
f 240/240/240 254/254/254 241/241/241
f 250/250/250 255/255/255 252/252/252
f 250/250/250 256/256/256 255/255/255
f 249/249/249 252/252/252 257/257/257
f 249/249/249 257/257/257 253/253/253
f 245/245/245 253/253/253 258/258/258
f 245/245/245 258/258/258 254/254/254
f 252/252/252 255/255/255 259/259/259
f 252/252/252 259/259/259 257/257/257
f 253/253/253 257/257/257 260/260/260
f 253/253/253 260/260/260 258/258/258
f 255/255/255 261/261/261 259/259/259
f 255/255/255 262/262/262 261/261/261
f 257/257/257 259/259/259 263/263/263
f 257/257/257 263/263/263 260/260/260
f 259/259/259 261/261/261 264/264/264
f 259/259/259 264/264/264 263/263/263
f 261/261/261 265/265/265 264/264/264
f 261/261/261 266/266/266 265/265/265
f 254/254/254 258/258/258 267/267/267
f 258/258/258 260/260/260 268/268/268
f 258/258/258 268/268/268 267/267/267
f 260/260/260 263/263/263 269/269/269
f 260/260/260 269/269/269 268/268/268
f 263/263/263 264/264/264 270/270/270
f 263/263/263 270/270/270 269/269/269
f 264/264/264 265/265/265 271/271/271
f 264/264/264 271/271/271 270/270/270
f 254/254/254 267/267/267 272/272/272
f 241/241/241 254/254/254 272/272/272
f 265/265/265 273/273/273 271/271/271
f 265/265/265 274/274/274 273/273/273
f 241/241/241 272/272/272 275/275/275
f 235/235/235 241/241/241 275/275/275
f 235/235/235 275/275/275 236/236/236
f 267/267/267 268/268/268 276/276/276
f 268/268/268 269/269/269 277/277/277
f 268/268/268 277/277/277 276/276/276
f 269/269/269 270/270/270 278/278/278
f 269/269/269 278/278/278 277/277/277
f 270/270/270 271/271/271 279/279/279
f 270/270/270 279/279/279 278/278/278
f 271/271/271 273/273/273 280/280/280
f 271/271/271 280/280/280 279/279/279
f 272/272/272 267/267/267 281/281/281
f 267/267/267 276/276/276 281/281/281
f 275/275/275 272/272/272 282/282/282
f 272/272/272 281/281/281 282/282/282
f 236/236/236 275/275/275 283/283/283
f 275/275/275 282/282/282 283/283/283
f 273/273/273 284/284/284 280/280/280
f 273/273/273 285/285/285 284/284/284
f 236/236/236 283/283/283 286/286/286
f 229/229/229 236/236/236 286/286/286
f 229/229/229 286/286/286 224/224/224
f 224/224/224 286/286/286 287/287/287
f 224/224/224 287/287/287 225/225/225
f 225/225/225 287/287/287 288/288/288
f 286/286/286 283/283/283 289/289/289
f 286/286/286 289/289/289 287/287/287
f 287/287/287 290/290/290 288/288/288
f 287/287/287 289/289/289 290/290/290
f 288/288/288 290/290/290 291/291/291
f 283/283/283 282/282/282 292/292/292
f 283/283/283 292/292/292 289/289/289
f 290/290/290 293/293/293 291/291/291
f 291/291/291 293/293/293 294/294/294
f 289/289/289 295/295/295 290/290/290
f 289/289/289 292/292/292 295/295/295
f 290/290/290 295/295/295 293/293/293
f 282/282/282 296/296/296 292/292/292
f 282/282/282 281/281/281 296/296/296
f 293/293/293 297/297/297 294/294/294
f 294/294/294 297/297/297 298/298/298
f 295/295/295 299/299/299 293/293/293
f 293/293/293 299/299/299 297/297/297
f 292/292/292 300/300/300 295/295/295
f 292/292/292 296/296/296 300/300/300
f 295/295/295 300/300/300 299/299/299
f 281/281/281 301/301/301 296/296/296
f 281/281/281 276/276/276 301/301/301
f 297/297/297 302/302/302 298/298/298
f 298/298/298 302/302/302 303/303/303
f 296/296/296 304/304/304 300/300/300
f 296/296/296 301/301/301 304/304/304
f 299/299/299 305/305/305 297/297/297
f 297/297/297 305/305/305 302/302/302
f 300/300/300 306/306/306 299/299/299
f 300/300/300 304/304/304 306/306/306
f 299/299/299 306/306/306 305/305/305
f 276/276/276 307/307/307 301/301/301
f 276/276/276 277/277/277 307/307/307
f 302/302/302 308/308/308 303/303/303
f 303/303/303 308/308/308 309/309/309
f 301/301/301 310/310/310 304/304/304
f 301/301/301 307/307/307 310/310/310
f 304/304/304 311/311/311 306/306/306
f 304/304/304 310/310/310 311/311/311
f 305/305/305 312/312/312 302/302/302
f 302/302/302 312/312/312 308/308/308
f 306/306/306 313/313/313 305/305/305
f 306/306/306 311/311/311 313/313/313
f 305/305/305 313/313/313 312/312/312
f 277/277/277 314/314/314 307/307/307
f 277/277/277 278/278/278 314/314/314
f 308/308/308 315/315/315 309/309/309
f 309/309/309 315/315/315 316/316/316
f 307/307/307 317/317/317 310/310/310
f 307/307/307 314/314/314 317/317/317
f 310/310/310 318/318/318 311/311/311
f 310/310/310 317/317/317 318/318/318
f 311/311/311 319/319/319 313/313/313
f 311/311/311 318/318/318 319/319/319
f 312/312/312 320/320/320 308/308/308
f 308/308/308 320/320/320 315/315/315
f 313/313/313 321/321/321 312/312/312
f 313/313/313 319/319/319 321/321/321
f 312/312/312 321/321/321 320/320/320
f 278/278/278 322/322/322 314/314/314
f 278/278/278 279/279/279 322/322/322
f 314/314/314 323/323/323 317/317/317
f 314/314/314 322/322/322 323/323/323
f 317/317/317 324/324/324 318/318/318
f 317/317/317 323/323/323 324/324/324
f 318/318/318 325/325/325 319/319/319
f 318/318/318 324/324/324 325/325/325
f 319/319/319 326/326/326 321/321/321
f 319/319/319 325/325/325 326/326/326
f 321/321/321 327/327/327 320/320/320
f 321/321/321 326/326/326 327/327/327
f 279/279/279 328/328/328 322/322/322
f 279/279/279 280/280/280 328/328/328
f 322/322/322 329/329/329 323/323/323
f 322/322/322 328/328/328 329/329/329
f 323/323/323 330/330/330 324/324/324
f 323/323/323 329/329/329 330/330/330
f 324/324/324 331/331/331 325/325/325
f 324/324/324 330/330/330 331/331/331
f 325/325/325 332/332/332 326/326/326
f 325/325/325 331/331/331 332/332/332
f 280/280/280 333/333/333 328/328/328
f 280/280/280 284/284/284 333/333/333
f 328/328/328 334/334/334 329/329/329
f 328/328/328 333/333/333 334/334/334
f 329/329/329 335/335/335 330/330/330
f 329/329/329 334/334/334 335/335/335
f 330/330/330 336/336/336 331/331/331
f 330/330/330 335/335/335 336/336/336
f 284/284/284 337/337/337 333/333/333
f 284/284/284 338/338/338 337/337/337
f 333/333/333 339/339/339 334/334/334
f 333/333/333 337/337/337 339/339/339
f 334/334/334 340/340/340 335/335/335
f 334/334/334 339/339/339 340/340/340
f 337/337/337 341/341/341 339/339/339
f 337/337/337 342/342/342 341/341/341
f 339/339/339 341/341/341 343/343/343
f 339/339/339 343/343/343 340/340/340
f 335/335/335 340/340/340 344/344/344
f 335/335/335 344/344/344 336/336/336
f 331/331/331 336/336/336 345/345/345
f 331/331/331 345/345/345 332/332/332
f 341/341/341 346/346/346 343/343/343
f 341/341/341 347/347/347 346/346/346
f 340/340/340 343/343/343 348/348/348
f 340/340/340 348/348/348 344/344/344
f 336/336/336 344/344/344 349/349/349
f 336/336/336 349/349/349 345/345/345
f 343/343/343 346/346/346 350/350/350
f 343/343/343 350/350/350 348/348/348
f 344/344/344 348/348/348 351/351/351
f 344/344/344 351/351/351 349/349/349
f 346/346/346 352/352/352 350/350/350
f 346/346/346 353/353/353 352/352/352
f 348/348/348 350/350/350 354/354/354
f 348/348/348 354/354/354 351/351/351
f 350/350/350 352/352/352 355/355/355
f 350/350/350 355/355/355 354/354/354
f 352/352/352 356/356/356 355/355/355
f 352/352/352 357/357/357 356/356/356
f 345/345/345 349/349/349 358/358/358
f 349/349/349 351/351/351 359/359/359
f 349/349/349 359/359/359 358/358/358
f 351/351/351 354/354/354 360/360/360
f 351/351/351 360/360/360 359/359/359
f 354/354/354 355/355/355 361/361/361
f 354/354/354 361/361/361 360/360/360
f 355/355/355 356/356/356 362/362/362
f 355/355/355 362/362/362 361/361/361
f 345/345/345 358/358/358 363/363/363
f 332/332/332 345/345/345 363/363/363
f 356/356/356 364/364/364 362/362/362
f 356/356/356 365/365/365 364/364/364
f 332/332/332 363/363/363 366/366/366
f 326/326/326 332/332/332 366/366/366
f 326/326/326 366/366/366 327/327/327
f 358/358/358 359/359/359 367/367/367
f 359/359/359 360/360/360 368/368/368
f 359/359/359 368/368/368 367/367/367
f 360/360/360 361/361/361 369/369/369
f 360/360/360 369/369/369 368/368/368
f 361/361/361 362/362/362 370/370/370
f 361/361/361 370/370/370 369/369/369
f 362/362/362 364/364/364 371/371/371
f 362/362/362 371/371/371 370/370/370
f 363/363/363 358/358/358 372/372/372
f 358/358/358 367/367/367 372/372/372
f 366/366/366 363/363/363 373/373/373
f 363/363/363 372/372/372 373/373/373
f 327/327/327 366/366/366 374/374/374
f 366/366/366 373/373/373 374/374/374
f 364/364/364 375/375/375 371/371/371
f 364/364/364 376/376/376 375/375/375
f 327/327/327 374/374/374 377/377/377
f 320/320/320 327/327/327 377/377/377
f 320/320/320 377/377/377 315/315/315
f 315/315/315 377/377/377 378/378/378
f 315/315/315 378/378/378 316/316/316
f 316/316/316 378/378/378 379/379/379
f 378/378/378 380/380/380 379/379/379
f 377/377/377 381/381/381 378/378/378
f 378/378/378 381/381/381 380/380/380
f 377/377/377 374/374/374 381/381/381
f 381/381/381 382/382/382 380/380/380
f 374/374/374 383/383/383 381/381/381
f 381/381/381 383/383/383 382/382/382
f 374/374/374 373/373/373 383/383/383
f 383/383/383 384/384/384 382/382/382
f 373/373/373 385/385/385 383/383/383
f 383/383/383 385/385/385 384/384/384
f 373/373/373 372/372/372 385/385/385
f 385/385/385 386/386/386 384/384/384
f 372/372/372 387/387/387 385/385/385
f 385/385/385 387/387/387 386/386/386
f 372/372/372 367/367/367 387/387/387
f 387/387/387 388/388/388 386/386/386
f 367/367/367 389/389/389 387/387/387
f 387/387/387 389/389/389 388/388/388
f 367/367/367 368/368/368 389/389/389
f 389/389/389 390/390/390 388/388/388
f 368/368/368 391/391/391 389/389/389
f 389/389/389 391/391/391 390/390/390
f 368/368/368 369/369/369 391/391/391
f 391/391/391 392/392/392 390/390/390
f 369/369/369 393/393/393 391/391/391
f 391/391/391 393/393/393 392/392/392
f 369/369/369 370/370/370 393/393/393
f 393/393/393 394/394/394 392/392/392
f 370/370/370 395/395/395 393/393/393
f 393/393/393 395/395/395 394/394/394
f 370/370/370 371/371/371 395/395/395
f 395/395/395 396/396/396 394/394/394
f 371/371/371 397/397/397 395/395/395
f 395/395/395 397/397/397 396/396/396
f 371/371/371 375/375/375 397/397/397
f 397/397/397 398/398/398 396/396/396
f 375/375/375 399/399/399 397/397/397
f 397/397/397 399/399/399 398/398/398
f 375/375/375 400/400/400 399/399/399
f 399/399/399 401/401/401 398/398/398
f 399/399/399 402/402/402 401/401/401
