o disk_03
v -9.22475376e-18 8.80507706e-18 -0.14379783
v -0.0319642909 8.57790927e-18 -0.140087888
v 0 0 0
v -1.35163868e-17 1.35711925e-17 -0.221634388
v -0.0492662974 1.32210602e-17 -0.215916291
v -1.81332813e-17 1.83373071e-17 -0.299470961
v -0.0665683001 1.78642111e-17 -0.291744709
v -2.31296458e-17 2.31034225e-17 -0.377307504
v -0.0838703066 2.25073611e-17 -0.367573112
v -2.85596911e-17 2.78695379e-17 -0.455144078
v -0.101172306 2.71505128e-17 -0.443401515
v -3.44776291e-17 3.26356501e-17 -0.532980621
v -0.118474312 3.17936629e-17 -0.519229889
v -4.09376681e-17 3.74017655e-17 -0.610817194
v -0.135776311 3.6436813e-17 -0.595058322
v -4.79940151e-17 4.21678809e-17 -0.688653767
v -0.153078318 4.10799631e-17 -0.670886755
v -5.57008866e-17 4.69339963e-17 -0.76649034
v -0.170380324 4.57231164e-17 -0.746715128
v -6.41124863e-17 5.17001118e-17 -0.844326854
v -0.187682331 5.03662665e-17 -0.822543561
v -7.3283034e-17 5.64662272e-17 -0.922163427
v -0.163536683 2.07921889e-17 -0.339562207
v -0.197273448 2.50815075e-17 -0.409612119
v -0.231010199 2.93708277e-17 -0.479662031
v -0.264746964 3.36601463e-17 -0.549711943
v -0.298483729 3.79494682e-17 -0.619761825
v -0.332220495 4.22387868e-17 -0.689811707
v -0.477803081 3.66829323e-17 -0.599077702
v -0.36595723 4.65281054e-17 -0.759861648
v -0.429282516 3.29578038e-17 -0.538241804
v -0.380761951 2.92326787e-17 -0.477405876
v -0.332241356 2.55075518e-17 -0.416569948
v -0.477405876 2.33149442e-17 -0.380761951
v -0.538241804 2.62859718e-17 -0.429282516
v -0.283720791 2.1782425e-17 -0.35573402
v -0.399693996 5.0817424e-17 -0.82991153
v -0.526323676 4.04080575e-17 -0.659913659
v -0.204984337 5.50094166e-17 -0.898371935
v -0.222286344 5.96525666e-17 -0.974200368
v -8.32667268e-17 6.12323426e-17 -1
v -0.433430761 5.51067459e-17 -0.899961412
v -0.623364806 4.78583078e-17 -0.781585515
v -0.574844241 4.41331826e-17 -0.720749557
v -0.781585515 3.81700839e-17 -0.623364806
v -0.720749557 3.51990563e-17 -0.574844241
v -0.899961412 2.65399791e-17 -0.433430761
v -0.659913659 3.22280287e-17 -0.526323676
v -0.82991153 2.44741998e-17 -0.399693996
v -0.974200368 1.36111122e-17 -0.222286344
v -0.759861648 2.24084187e-17 -0.36595723
v -0.898371935 1.255167e-17 -0.204984337
v -1 1.66215371e-31 -2.75985061e-15
v -0.599077702 2.92570011e-17 -0.477803081
v -0.689811707 2.03426377e-17 -0.332220495
v -0.619761825 1.82768567e-17 -0.298483729
v -0.822543561 1.14922279e-17 -0.187682331
v -0.922163427 1.53156287e-31 -2.54497275e-15
v -0.974200368 -1.36111122e-17 0.222286344
v -0.746715128 1.04327857e-17 -0.170380324
v -0.844326854 1.40151723e-31 -2.3294323e-15
v -0.549711943 1.62110757e-17 -0.264746964
v -0.898371935 -1.255167e-17 0.204984337
v -0.899961412 -2.65399791e-17 0.433430761
v -0.670886755 9.37334352e-18 -0.153078318
v -0.822543561 -1.14922279e-17 0.187682331
v -0.82991153 -2.44741998e-17 0.399693996
v -0.781585515 -3.81700839e-17 0.623364806
v -0.76649034 1.27191956e-31 -2.11343402e-15
v -0.746715128 -1.04327857e-17 0.170380324
v -0.720749557 -3.51990563e-17 0.574844241
v -0.623364806 -4.78583078e-17 0.781585515
v -0.759861648 -2.24084187e-17 0.36595723
v -0.574844241 -4.41331826e-17 0.720749557
v -0.433430761 -5.51067459e-17 0.899961412
v -0.659913659 -3.22280287e-17 0.526323676
v -0.599077702 -2.92570011e-17 0.477803081
v -0.689811707 -2.03426377e-17 0.332220495
v -0.670886755 -9.37334352e-18 0.153078318
v -0.399693996 -5.0817424e-17 0.82991153
v -0.222286344 -5.96525666e-17 0.974200368
v -0.526323676 -4.04080575e-17 0.659913659
v -0.204984337 -5.50094166e-17 0.898371935
v 2.16703236e-15 -6.12323426e-17 1
v -0.36595723 -4.65281054e-17 0.759861648
v -0.688653767 1.1426729e-31 -1.89718291e-15
v -0.619761825 -1.82768567e-17 0.298483729
v -0.595058322 -8.31390135e-18 0.135776311
v -0.610817194 1.0136805e-31 -1.68088363e-15
v 1.99240127e-15 -5.64662272e-17 0.922163427
v 0.222286344 -5.96525666e-17 0.974200368
v -0.595058322 8.31390135e-18 -0.135776311
v -0.479662031 1.41452947e-17 -0.231010199
v 0.204984337 -5.50094166e-17 0.898371935
v 0.433430761 -5.51067459e-17 0.899961412
v 0.399693996 -5.0817424e-17 0.82991153
v 0.623364806 -4.78583078e-17 0.781585515
v 0.187682331 -5.03662665e-17 0.822543561
v 1.81955912e-15 -5.17001118e-17 0.844326854
v -0.519229889 7.25445917e-18 -0.118474312
v -0.416569948 2.03439166e-17 -0.332241356
v -0.35573402 1.73728873e-17 -0.283720791
v -0.294898093 1.44018597e-17 -0.235200226
v -0.409612119 1.20795145e-17 -0.197273448
v -0.187682331 -5.03662665e-17 0.822543561
v -0.332220495 -4.22387868e-17 0.689811707
v -0.235200226 1.80572998e-17 -0.294898093
v -0.129799917 1.65028686e-17 -0.269512296
v -0.186679646 1.4332173e-17 -0.23406215
v -0.0960631594 1.221355e-17 -0.199462399
v -0.0623264015 7.9242298e-18 -0.129412502
v 0 0 0
v -0.138159081 1.0607047e-17 -0.173226222
v -0.477803081 -3.66829323e-17 0.599077702
v -0.0896385014 6.88192101e-18 -0.112390295
v 0 0 0
v -0.112390295 5.48877515e-18 -0.0896385014
v 0 0 0
v -0.173226222 8.4598036e-18 -0.138159081
v -0.23406215 1.1430832e-17 -0.186679646
v -0.269512296 7.94795251e-18 -0.129799917
v -0.199462399 5.88217233e-18 -0.0960631594
v -0.339562207 1.00137335e-17 -0.163536683
v -0.443401515 6.195017e-18 -0.101172306
v -0.367573112 5.13557482e-18 -0.0838703066
v -0.129412502 3.81639132e-18 -0.0623264015
v 0 0 0
v -0.291744709 4.07613265e-18 -0.0665683001
v -0.140087888 1.9572485e-18 -0.0319642909
v 0 0 0
v -0.215916291 3.01669068e-18 -0.0492662974
v -0.14379783 2.39631944e-32 -3.93543975e-16
v 0 0 0
v -0.221634388 3.69135995e-32 -6.05831792e-16
v -0.299470961 4.98312391e-32 -8.19300189e-16
v -0.377307504 6.27258068e-32 -1.03374431e-15
v -0.140087888 -1.9572485e-18 0.0319642909
v 0 0 0
v -0.215916291 -3.01669068e-18 0.0492662974
v -0.455144078 7.56069973e-32 -1.2489595e-15
v -0.291744709 -4.07613265e-18 0.0665683001
v -0.367573112 -5.13557482e-18 0.0838703066
v -0.532980621 8.84845085e-32 -1.46474083e-15
v -0.443401515 -6.195017e-18 0.101172306
v -0.519229889 -7.25445917e-18 0.118474312
v -0.549711943 -1.62110757e-17 0.264746964
v -0.479662031 -1.41452947e-17 0.231010199
v -0.409612119 -1.20795145e-17 0.197273448
v -0.339562207 -1.00137335e-17 0.163536683
v -0.269512296 -7.94795251e-18 0.129799917
v -0.538241804 -2.62859718e-17 0.429282516
v -0.477405876 -2.33149442e-17 0.380761951
v -0.416569948 -2.03439166e-17 0.332241356
v -0.35573402 -1.73728873e-17 0.283720791
v -0.429282516 -3.29578038e-17 0.538241804
v -0.380761951 -2.92326787e-17 0.477405876
v -0.298483729 -3.79494682e-17 0.619761825
v -0.294898093 -1.44018597e-17 0.235200226
v -0.235200226 -1.80572998e-17 0.294898093
v -0.283720791 -2.1782425e-17 0.35573402
v -0.23406215 -1.1430832e-17 0.186679646
v -0.264746964 -3.36601463e-17 0.549711943
v -0.170380324 -4.57231164e-17 0.746715128
v -0.332241356 -2.55075518e-17 0.416569948
v -0.231010199 -2.93708277e-17 0.479662031
v -0.153078318 -4.10799631e-17 0.670886755
v 1.64827106e-15 -4.69339963e-17 0.76649034
v -0.197273448 -2.50815075e-17 0.409612119
v -0.135776311 -3.6436813e-17 0.595058322
v -0.118474312 -3.17936629e-17 0.519229889
v 1.30941712e-15 -3.74017655e-17 0.610817194
v 0.170380324 -4.57231164e-17 0.746715128
v 1.47830204e-15 -4.21678809e-17 0.688653767
v 0.153078318 -4.10799631e-17 0.670886755
v 0.36595723 -4.65281054e-17 0.759861648
v 0.135776311 -3.6436813e-17 0.595058322
v 0.332220495 -4.22387868e-17 0.689811707
v 0.477803081 -3.66829323e-17 0.599077702
v 0.298483729 -3.79494682e-17 0.619761825
v 0.526323676 -4.04080575e-17 0.659913659
v 0.574844241 -4.41331826e-17 0.720749557
v 0.781585515 -3.81700839e-17 0.623364806
v 0.720749557 -3.51990563e-17 0.574844241
v 0.899961412 -2.65399791e-17 0.433430761
v 0.659913659 -3.22280287e-17 0.526323676
v 0.82991153 -2.44741998e-17 0.399693996
v 0.974200368 -1.36111122e-17 0.222286344
v 0.759861648 -2.24084187e-17 0.36595723
v 0.898371935 -1.255167e-17 0.204984337
v 1 4.65612607e-32 -7.03840439e-16
v 0.922163427 4.22823261e-32 -6.53591904e-16
v 0.974200368 1.36111122e-17 -0.222286344
v 0.898371935 1.255167e-17 -0.204984337
v 0.899961412 2.65399791e-17 -0.433430761
v 0.82991153 2.44741998e-17 -0.399693996
v 0.781585515 3.81700839e-17 -0.623364806
v 0.822543561 1.14922279e-17 -0.187682331
v 0.844326854 3.8191306e-32 -6.01596628e-16
v 0.822543561 -1.14922279e-17 0.187682331
v 0.689811707 -2.03426377e-17 0.332220495
v 0.720749557 3.51990563e-17 -0.574844241
v 0.623364806 4.78583078e-17 -0.781585515
v 0.574844241 4.41331826e-17 -0.720749557
v 0.433430761 5.51067459e-17 -0.899961412
v 0.659913659 3.22280287e-17 -0.526323676
v 0.759861648 2.24084187e-17 -0.36595723
v 0.599077702 2.92570011e-17 -0.477803081
v 0.746715128 1.04327857e-17 -0.170380324
v 0.746715128 -1.04327857e-17 0.170380324
v 0.399693996 5.0817424e-17 -0.82991153
v 0.222286344 5.96525666e-17 -0.974200368
v 0.526323676 4.04080575e-17 -0.659913659
v 0.204984337 5.50094166e-17 -0.898371935
v -8.32667268e-17 6.12323426e-17 -1
v -7.3283034e-17 5.64662272e-17 -0.922163427
v -6.41124863e-17 5.17001118e-17 -0.844326854
v 0.36595723 4.65281054e-17 -0.759861648
v 0.187682331 5.03662665e-17 -0.822543561
v 0.332220495 4.22387868e-17 -0.689811707
v 0.170380324 4.57231164e-17 -0.746715128
v -5.57008866e-17 4.69339963e-17 -0.76649034
v 0.477803081 3.66829323e-17 -0.599077702
v 0.153078318 4.10799631e-17 -0.670886755
v -4.79940151e-17 4.21678809e-17 -0.688653767
v -4.09376681e-17 3.74017655e-17 -0.610817194
v 0.298483729 3.79494682e-17 -0.619761825
v 0.429282516 3.29578038e-17 -0.538241804
v 0.264746964 3.36601463e-17 -0.549711943
v 0.135776311 3.6436813e-17 -0.595058322
v 0.118474312 3.17936629e-17 -0.519229889
v -3.44776291e-17 3.26356501e-17 -0.532980621
v -2.85596911e-17 2.78695379e-17 -0.455144078
v 0.231010199 2.93708277e-17 -0.479662031
v 0.380761951 2.92326787e-17 -0.477405876
v 0.101172306 2.71505128e-17 -0.443401515
v -2.31296458e-17 2.31034225e-17 -0.377307504
v 0.538241804 2.62859718e-17 -0.429282516
v 0.197273448 2.50815075e-17 -0.409612119
v 0.0838703066 2.25073611e-17 -0.367573112
v -1.81332813e-17 1.83373071e-17 -0.299470961
v 0.163536683 2.07921889e-17 -0.339562207
v 0.235200226 1.80572998e-17 -0.294898093
v 0.283720791 2.1782425e-17 -0.35573402
v 0.0665683001 1.78642111e-17 -0.291744709
v -1.35163868e-17 1.35711925e-17 -0.221634388
v 0.129799917 1.65028686e-17 -0.269512296
v 0.0492662974 1.32210602e-17 -0.215916291
v -9.22475376e-18 8.80507706e-18 -0.14379783
v 0.0960631594 1.221355e-17 -0.199462399
v 0.0319642909 8.57790927e-18 -0.140087888
v 0 0 0
v 0.332241356 2.55075518e-17 -0.416569948
v 0.416569948 2.03439166e-17 -0.332241356
v 0.35573402 1.73728873e-17 -0.283720791
v 0.0623264015 7.9242298e-18 -0.129412502
v 0 0 0
v 0.0896385014 6.88192101e-18 -0.112390295
v 0 0 0
v 0.477405876 2.33149442e-17 -0.380761951
v 0.138159081 1.0607047e-17 -0.173226222
v 0.186679646 1.4332173e-17 -0.23406215
v 0.23406215 1.1430832e-17 -0.186679646
v 0.173226222 8.4598036e-18 -0.138159081
v 0.294898093 1.44018597e-17 -0.235200226
v 0.112390295 5.48877515e-18 -0.0896385014
v 0 0 0
v 0.129412502 3.81639132e-18 -0.0623264015
v 0 0 0
v 0.199462399 5.88217233e-18 -0.0960631594
v 0.269512296 7.94795251e-18 -0.129799917
v 0.339562207 1.00137335e-17 -0.163536683
v 0.140087888 1.9572485e-18 -0.0319642909
v 0 0 0
v 0.215916291 3.01669068e-18 -0.0492662974
v 0.409612119 1.20795145e-17 -0.197273448
v 0.291744709 4.07613265e-18 -0.0665683001
v 0.479662031 1.41452947e-17 -0.231010199
v 0.367573112 5.13557482e-18 -0.0838703066
v 0.549711943 1.62110757e-17 -0.264746964
v 0.443401515 6.195017e-18 -0.101172306
v 0.619761825 1.82768567e-17 -0.298483729
v 0.519229889 7.25445917e-18 -0.118474312
v 0.689811707 2.03426377e-17 -0.332220495
v 0.595058322 8.31390135e-18 -0.135776311
v 0.670886755 9.37334352e-18 -0.153078318
v 0.76649034 3.42674676e-32 -5.48131643e-16
v 0.688653767 3.04900783e-32 -4.93474089e-16
v 0.610817194 2.68384109e-32 -4.37900919e-16
v 0.670886755 -9.37334352e-18 0.153078318
v 0.532980621 2.32917314e-32 -3.81689298e-16
v 0.455144078 1.98293128e-32 -3.25116286e-16
v 0.519229889 -7.25445917e-18 0.118474312
v 0.377307504 1.64304238e-32 -2.6845894e-16
v 0.619761825 -1.82768567e-17 0.298483729
v 0.595058322 -8.31390135e-18 0.135776311
v 0.549711943 -1.62110757e-17 0.264746964
v 0.599077702 -2.92570011e-17 0.477803081
v 0.538241804 -2.62859718e-17 0.429282516
v 0.479662031 -1.41452947e-17 0.231010199
v 0.429282516 -3.29578038e-17 0.538241804
v 0.477405876 -2.33149442e-17 0.380761951
v 0.264746964 -3.36601463e-17 0.549711943
v 0.380761951 -2.92326787e-17 0.477405876
v 0.118474312 -3.17936629e-17 0.519229889
v 0.231010199 -2.93708277e-17 0.479662031
v 0.332241356 -2.55075518e-17 0.416569948
v 1.14138166e-15 -3.26356501e-17 0.532980621
v 0.101172306 -2.71505128e-17 0.443401515
v 9.73960411e-16 -2.78695379e-17 0.455144078
v 0.197273448 -2.50815075e-17 0.409612119
v 0.416569948 -2.03439166e-17 0.332241356
v 0.35573402 -1.73728873e-17 0.283720791
v -0.101172306 -2.71505128e-17 0.443401515
v 0.0838703066 -2.25073611e-17 0.367573112
v 0.283720791 -2.1782425e-17 0.35573402
v 0.294898093 -1.44018597e-17 0.235200226
v 0.409612119 -1.20795145e-17 0.197273448
v 0.163536683 -2.07921889e-17 0.339562207
v 8.0691879e-16 -2.31034225e-17 0.377307504
v -0.163536683 -2.07921889e-17 0.339562207
v 0.443401515 -6.195017e-18 0.101172306
v -0.0838703066 -2.25073611e-17 0.367573112
v 0.0665683001 -1.78642111e-17 0.291744709
v -0.129799917 -1.65028686e-17 0.269512296
v 0.339562207 -1.00137335e-17 0.163536683
v 0.367573112 -5.13557482e-18 0.0838703066
v 6.40021642e-16 -1.83373071e-17 0.299470961
v -0.186679646 -1.4332173e-17 0.23406215
v 0.269512296 -7.94795251e-18 0.129799917
v 0.299470961 1.30743331e-32 -2.11994334e-16
v 0.291744709 -4.07613265e-18 0.0665683001
v 0.221634388 9.74030929e-33 -1.55999553e-16
v 0.14379783 6.40762338e-33 -1.00751664e-16
v 0 0 0
v 0.215916291 -3.01669068e-18 0.0492662974
v 0.199462399 -5.88217233e-18 0.0960631594
v 0.140087888 -1.9572485e-18 0.0319642909
v 0 0 0
v 0.129412502 -3.81639132e-18 0.0623264015
v 0 0 0
v 0.112390295 -5.48877515e-18 0.0896385014
v 0 0 0
v 0.173226222 -8.4598036e-18 0.138159081
v 0.23406215 -1.1430832e-17 0.186679646
v 0.186679646 -1.4332173e-17 0.23406215
v 0.138159081 -1.0607047e-17 0.173226222
v 0.235200226 -1.80572998e-17 0.294898093
v 0.129799917 -1.65028686e-17 0.269512296
v 0.0960631594 -1.221355e-17 0.199462399
v 0.0492662974 -1.32210602e-17 0.215916291
v 0.0896385014 -6.88192101e-18 0.112390295
v 0 0 0
v 0.0623264015 -7.9242298e-18 0.129412502
v 0 0 0
v 0.0319642909 -8.57790927e-18 0.140087888
v 0 0 0
v 4.73034179e-16 -1.35711925e-17 0.221634388
v -0.0665683001 -1.78642111e-17 0.291744709
v 3.05721428e-16 -8.80507706e-18 0.14379783
v 0 0 0
v -0.0492662974 -1.32210602e-17 0.215916291
v -0.0960631594 -1.221355e-17 0.199462399
v -0.0319642909 -8.57790927e-18 0.140087888
v 0 0 0
v -0.138159081 -1.0607047e-17 0.173226222
v -0.0623264015 -7.9242298e-18 0.129412502
v 0 0 0
v -0.0896385014 -6.88192101e-18 0.112390295
v 0 0 0
v -0.173226222 -8.4598036e-18 0.138159081
v -0.199462399 -5.88217233e-18 0.0960631594
v -0.129412502 -3.81639132e-18 0.0623264015
v 0 0 0
v -0.112390295 -5.48877515e-18 0.0896385014
v 0 0 0
v 0 0 0
vt 1 0.916666687
vt 0.964256048 0.916666687
vt 1 1
vt 1 0.833333313
vt 0.964256048 0.833333313
vt 1 0.75
vt 0.964256048 0.75
vt 1 0.666666687
vt 0.964256048 0.666666687
vt 1 0.583333313
vt 0.964256048 0.583333313
vt 1 0.5
vt 0.964256048 0.5
vt 1 0.416666657
vt 0.964256048 0.416666657
vt 1 0.333333343
vt 0.964256048 0.333333343
vt 1 0.25
vt 0.964256048 0.25
vt 1 0.166666672
vt 0.964256048 0.166666672
vt 1 0.0833333358
vt 0.928584218 0.666666687
vt 0.928584218 0.583333313
vt 0.928584218 0.5
vt 0.928584218 0.416666657
vt 0.928584218 0.333333343
vt 0.928584218 0.25
vt 0.892882407 0.25
vt 0.928584218 0.166666672
vt 0.892882407 0.333333343
vt 0.892882407 0.416666657
vt 0.892882407 0.5
vt 0.857117593 0.416666657
vt 0.857117593 0.333333343
vt 0.892882407 0.583333313
vt 0.928584218 0.0833333358
vt 0.892882407 0.166666672
vt 0.964256048 0.0833333358
vt 0.964256048 0
vt 1 0
vt 0.928584218 0
vt 0.892882407 0
vt 0.892882407 0.0833333358
vt 0.857117593 0
vt 0.857117593 0.0833333358
vt 0.821415782 0
vt 0.857117593 0.166666672
vt 0.821415782 0.0833333358
vt 0.785743952 0
vt 0.821415782 0.166666672
vt 0.785743952 0.0833333358
vt 0.75 0
vt 0.857117593 0.25
vt 0.821415782 0.25
vt 0.821415782 0.333333343
vt 0.785743952 0.166666672
vt 0.75 0.0833333358
vt 0.714256048 0
vt 0.785743952 0.25
vt 0.75 0.166666672
vt 0.821415782 0.416666657
vt 0.714256048 0.0833333358
vt 0.678584218 0
vt 0.785743952 0.333333343
vt 0.714256048 0.166666672
vt 0.678584218 0.0833333358
vt 0.642882407 0
vt 0.75 0.25
vt 0.714256048 0.25
vt 0.642882407 0.0833333358
vt 0.607117593 0
vt 0.678584218 0.166666672
vt 0.607117593 0.0833333358
vt 0.571415782 0
vt 0.642882407 0.166666672
vt 0.642882407 0.25
vt 0.678584218 0.25
vt 0.714256048 0.333333343
vt 0.571415782 0.0833333358
vt 0.535743952 0
vt 0.607117593 0.166666672
vt 0.535743952 0.0833333358
vt 0.5 0
vt 0.571415782 0.166666672
vt 0.75 0.333333343
vt 0.678584218 0.333333343
vt 0.714256048 0.416666657
vt 0.75 0.416666657
vt 0.5 0.0833333358
vt 0.464256018 0
vt 0.785743952 0.416666657
vt 0.821415782 0.5
vt 0.464256018 0.0833333358
vt 0.428584188 0
vt 0.428584188 0.0833333358
vt 0.392882407 0
vt 0.464256018 0.166666672
vt 0.5 0.166666672
vt 0.785743952 0.5
vt 0.857117593 0.5
vt 0.857117593 0.583333313
vt 0.857117593 0.666666687
vt 0.821415782 0.583333313
vt 0.535743952 0.166666672
vt 0.571415782 0.25
vt 0.892882407 0.666666687
vt 0.928584218 0.75
vt 0.892882407 0.75
vt 0.928584218 0.833333313
vt 0.928584218 0.916666687
vt 0.964256048 1
vt 0.892882407 0.833333313
vt 0.607117593 0.25
vt 0.892882407 0.916666687
vt 0.928584218 1
vt 0.857117593 0.916666687
vt 0.892882407 1
vt 0.857117593 0.833333313
vt 0.857117593 0.75
vt 0.821415782 0.75
vt 0.821415782 0.833333313
vt 0.821415782 0.666666687
vt 0.785743952 0.583333313
vt 0.785743952 0.666666687
vt 0.821415782 0.916666687
vt 0.857117593 1
vt 0.785743952 0.75
vt 0.785743952 0.916666687
vt 0.821415782 1
vt 0.785743952 0.833333313
vt 0.75 0.916666687
vt 0.785743952 1
vt 0.75 0.833333313
vt 0.75 0.75
vt 0.75 0.666666687
vt 0.714256048 0.916666687
vt 0.75 1
vt 0.714256048 0.833333313
vt 0.75 0.583333313
vt 0.714256048 0.75
vt 0.714256048 0.666666687
vt 0.75 0.5
vt 0.714256048 0.583333313
vt 0.714256048 0.5
vt 0.678584218 0.416666657
vt 0.678584218 0.5
vt 0.678584218 0.583333313
vt 0.678584218 0.666666687
vt 0.678584218 0.75
vt 0.642882407 0.333333343
vt 0.642882407 0.416666657
vt 0.642882407 0.5
vt 0.642882407 0.583333313
vt 0.607117593 0.333333343
vt 0.607117593 0.416666657
vt 0.571415782 0.333333343
vt 0.642882407 0.666666687
vt 0.607117593 0.666666687
vt 0.607117593 0.583333313
vt 0.642882407 0.75
vt 0.571415782 0.416666657
vt 0.535743952 0.25
vt 0.607117593 0.5
vt 0.571415782 0.5
vt 0.535743952 0.333333343
vt 0.5 0.25
vt 0.571415782 0.583333313
vt 0.535743952 0.416666657
vt 0.535743952 0.5
vt 0.5 0.416666657
vt 0.464256018 0.25
vt 0.5 0.333333343
vt 0.464256018 0.333333343
vt 0.428584188 0.166666672
vt 0.464256018 0.416666657
vt 0.428584188 0.25
vt 0.392882407 0.25
vt 0.428584188 0.333333343
vt 0.392882407 0.166666672
vt 0.392882407 0.0833333358
vt 0.357117593 0
vt 0.357117593 0.0833333358
vt 0.321415812 0
vt 0.357117593 0.166666672
vt 0.321415812 0.0833333358
vt 0.285743982 0
vt 0.321415812 0.166666672
vt 0.285743982 0.0833333358
vt 0.25 0
vt 0.25 0.0833333358
vt 0.214256018 0
vt 0.214256018 0.0833333358
vt 0.178584188 0
vt 0.178584188 0.0833333358
vt 0.142882407 0
vt 0.214256018 0.166666672
vt 0.25 0.166666672
vt 0.285743982 0.166666672
vt 0.321415812 0.25
vt 0.142882407 0.0833333358
vt 0.107117586 0
vt 0.107117586 0.0833333358
vt 0.0714158118 0
vt 0.142882407 0.166666672
vt 0.178584188 0.166666672
vt 0.142882407 0.25
vt 0.214256018 0.25
vt 0.285743982 0.25
vt 0.0714158118 0.0833333358
vt 0.0357439741 0
vt 0.107117586 0.166666672
vt 0.0357439741 0.0833333358
vt 0 0
vt 0 0.0833333358
vt 0 0.166666672
vt 0.0714158118 0.166666672
vt 0.0357439741 0.166666672
vt 0.0714158118 0.25
vt 0.0357439741 0.25
vt 0 0.25
vt 0.107117586 0.25
vt 0.0357439741 0.333333343
vt 0 0.333333343
vt 0 0.416666657
vt 0.0714158118 0.333333343
vt 0.107117586 0.333333343
vt 0.0714158118 0.416666657
vt 0.0357439741 0.416666657
vt 0.0357439741 0.5
vt 0 0.5
vt 0 0.583333313
vt 0.0714158118 0.5
vt 0.107117586 0.416666657
vt 0.0357439741 0.583333313
vt 0 0.666666687
vt 0.142882407 0.333333343
vt 0.0714158118 0.583333313
vt 0.0357439741 0.666666687
vt 0 0.75
vt 0.0714158118 0.666666687
vt 0.107117586 0.666666687
vt 0.107117586 0.583333313
vt 0.0357439741 0.75
vt 0 0.833333313
vt 0.0714158118 0.75
vt 0.0357439741 0.833333313
vt 0 0.916666687
vt 0.0714158118 0.833333313
vt 0.0357439741 0.916666687
vt 0.0357439741 1
vt 0.107117586 0.5
vt 0.142882407 0.5
vt 0.142882407 0.583333313
vt 0.0714158118 0.916666687
vt 0.0714158118 1
vt 0.107117586 0.916666687
vt 0.107117586 1
vt 0.142882407 0.416666657
vt 0.107117586 0.833333313
vt 0.107117586 0.75
vt 0.142882407 0.75
vt 0.142882407 0.833333313
vt 0.142882407 0.666666687
vt 0.142882407 0.916666687
vt 0.142882407 1
vt 0.178584188 0.916666687
vt 0.178584188 1
vt 0.178584188 0.833333313
vt 0.178584188 0.75
vt 0.178584188 0.666666687
vt 0.214256018 0.916666687
vt 0.214256018 1
vt 0.214256018 0.833333313
vt 0.178584188 0.583333313
vt 0.214256018 0.75
vt 0.178584188 0.5
vt 0.214256018 0.666666687
vt 0.178584188 0.416666657
vt 0.214256018 0.583333313
vt 0.178584188 0.333333343
vt 0.214256018 0.5
vt 0.178584188 0.25
vt 0.214256018 0.416666657
vt 0.214256018 0.333333343
vt 0.25 0.25
vt 0.25 0.333333343
vt 0.25 0.416666657
vt 0.285743982 0.333333343
vt 0.25 0.5
vt 0.25 0.583333313
vt 0.285743982 0.5
vt 0.25 0.666666687
vt 0.321415812 0.333333343
vt 0.285743982 0.416666657
vt 0.321415812 0.416666657
vt 0.357117593 0.25
vt 0.357117593 0.333333343
vt 0.321415812 0.5
vt 0.392882407 0.333333343
vt 0.357117593 0.416666657
vt 0.428584188 0.416666657
vt 0.392882407 0.416666657
vt 0.464256018 0.5
vt 0.428584188 0.5
vt 0.392882407 0.5
vt 0.5 0.5
vt 0.464256018 0.583333313
vt 0.5 0.583333313
vt 0.428584188 0.583333313
vt 0.357117593 0.5
vt 0.357117593 0.583333313
vt 0.535743952 0.583333313
vt 0.464256018 0.666666687
vt 0.392882407 0.583333313
vt 0.357117593 0.666666687
vt 0.321415812 0.583333313
vt 0.428584188 0.666666687
vt 0.5 0.666666687
vt 0.571415782 0.666666687
vt 0.285743982 0.583333313
vt 0.535743952 0.666666687
vt 0.464256018 0.75
vt 0.571415782 0.75
vt 0.321415812 0.666666687
vt 0.285743982 0.666666687
vt 0.5 0.75
vt 0.607117593 0.75
vt 0.321415812 0.75
vt 0.25 0.75
vt 0.285743982 0.75
vt 0.25 0.833333313
vt 0.25 0.916666687
vt 0.25 1
vt 0.285743982 0.833333313
vt 0.321415812 0.833333313
vt 0.285743982 0.916666687
vt 0.285743982 1
vt 0.321415812 0.916666687
vt 0.321415812 1
vt 0.357117593 0.916666687
vt 0.357117593 1
vt 0.357117593 0.833333313
vt 0.357117593 0.75
vt 0.392882407 0.75
vt 0.392882407 0.833333313
vt 0.392882407 0.666666687
vt 0.428584188 0.75
vt 0.428584188 0.833333313
vt 0.464256018 0.833333313
vt 0.392882407 0.916666687
vt 0.392882407 1
vt 0.428584188 0.916666687
vt 0.428584188 1
vt 0.464256018 0.916666687
vt 0.464256018 1
vt 0.5 0.833333313
vt 0.535743952 0.75
vt 0.5 0.916666687
vt 0.5 1
vt 0.535743952 0.833333313
vt 0.571415782 0.833333313
vt 0.535743952 0.916666687
vt 0.535743952 1
vt 0.607117593 0.833333313
vt 0.571415782 0.916666687
vt 0.571415782 1
vt 0.607117593 0.916666687
vt 0.607117593 1
vt 0.642882407 0.833333313
vt 0.678584218 0.833333313
vt 0.678584218 0.916666687
vt 0.714256048 1
vt 0.642882407 0.916666687
vt 0.642882407 1
vt 0.678584218 1
vn 0 1 0
vn 0 1 0
vn 0 1 0
vn 0 1 0
vn 0 1 0
vn 0 1 0
vn 0 1 0
vn 0 1 0
vn 0 1 0
vn 0 1 0
vn 0 1 0
vn 0 1 0
vn 0 1 0
vn 0 1 0
vn 0 1 0
vn 0 1 0
vn 0 1 0
vn 0 1 0
vn 0 1 0
vn 0 1 0
vn 0 1 0
vn 0 1 0
vn 0 1 0
vn 0 1 0
vn 0 1 0
vn 0 1 0
vn 0 1 0
vn 0 1 0
vn 0 1 0
vn 0 1 0
vn 0 1 0
vn 0 1 0
vn 0 1 0
vn 0 1 0
vn 0 1 0
vn 0 1 0
vn 0 1 0
vn 0 1 0
vn 0 1 0
vn 0 1 0
vn 0 1 0
vn 0 1 0
vn 0 1 0
vn 0 1 0
vn 0 1 0
vn 0 1 0
vn 0 1 0
vn 0 1 0
vn 0 1 0
vn 0 1 0
vn 0 1 0
vn 0 1 0
vn 0 1 0
vn 0 1 0
vn 0 1 0
vn 0 1 0
vn 0 1 0
vn 0 1 0
vn 0 1 0
vn 0 1 0
vn 0 1 0
vn 0 1 0
vn 0 1 0
vn 0 1 0
vn 0 1 0
vn 0 1 0
vn 0 1 0
vn 0 1 0
vn 0 1 0
vn 0 1 0
vn 0 1 0
vn 0 1 0
vn 0 1 0
vn 0 1 0
vn 0 1 0
vn 0 1 0
vn 0 1 0
vn 0 1 0
vn 0 1 0
vn 0 1 0
vn 0 1 0
vn 0 1 0
vn 0 1 0
vn 0 1 0
vn 0 1 0
vn 0 1 0
vn 0 1 0
vn 0 1 0
vn 0 1 0
vn 0 1 0
vn 0 1 0
vn 0 1 0
vn 0 1 0
vn 0 1 0
vn 0 1 0
vn 0 1 0
vn 0 1 0
vn 0 1 0
vn 0 1 0
vn 0 1 0
vn 0 1 0
vn 0 1 0
vn 0 1 0
vn 0 1 0
vn 0 1 0
vn 0 1 0
vn 0 1 0
vn 0 1 0
vn 0 1 0
vn 0 1 0
vn 0 1 0
vn 0 1 0
vn 0 1 0
vn 0 1 0
vn 0 1 0
vn 0 1 0
vn 0 1 0
vn 0 1 0
vn 0 1 0
vn 0 1 0
vn 0 1 0
vn 0 1 0
vn 0 1 0
vn 0 1 0
vn 0 1 0
vn 0 1 0
vn 0 1 0
vn 0 1 0
vn 0 1 0
vn 0 1 0
vn 0 1 0
vn 0 1 0
vn 0 1 0
vn 0 1 0
vn 0 1 0
vn 0 1 0
vn 0 1 0
vn 0 1 0
vn 0 1 0
vn 0 1 0
vn 0 1 0
vn 0 1 0
vn 0 1 0
vn 0 1 0
vn 0 1 0
vn 0 1 0
vn 0 1 0
vn 0 1 0
vn 0 1 0
vn 0 1 0
vn 0 1 0
vn 0 1 0
vn 0 1 0
vn 0 1 0
vn 0 1 0
vn 0 1 0
vn 0 1 0
vn 0 1 0
vn 0 1 0
vn 0 1 0
vn 0 1 0
vn 0 1 0
vn 0 1 0
vn 0 1 0
vn 0 1 0
vn 0 1 0
vn 0 1 0
vn 0 1 0
vn 0 1 0
vn 0 1 0
vn 0 1 0
vn 0 1 0
vn 0 1 0
vn 0 1 0
vn 0 1 0
vn 0 1 0
vn 0 1 0
vn 0 1 0
vn 0 1 0
vn 0 1 0
vn 0 1 0
vn 0 1 0
vn 0 1 0
vn 0 1 0
vn 0 1 0
vn 0 1 0
vn 0 1 0
vn 0 1 0
vn 0 1 0
vn 0 1 0
vn 0 1 0
vn 0 1 0
vn 0 1 0
vn 0 1 0
vn 0 1 0
vn 0 1 0
vn 0 1 0
vn 0 1 0
vn 0 1 0
vn 0 1 0
vn 0 1 0
vn 0 1 0
vn 0 1 0
vn 0 1 0
vn 0 1 0
vn 0 1 0
vn 0 1 0
vn 0 1 0
vn 0 1 0
vn 0 1 0
vn 0 1 0
vn 0 1 0
vn 0 1 0
vn 0 1 0
vn 0 1 0
vn 0 1 0
vn 0 1 0
vn 0 1 0
vn 0 1 0
vn 0 1 0
vn 0 1 0
vn 0 1 0
vn 0 1 0
vn 0 1 0
vn 0 1 0
vn 0 1 0
vn 0 1 0
vn 0 1 0
vn 0 1 0
vn 0 1 0
vn 0 1 0
vn 0 1 0
vn 0 1 0
vn 0 1 0
vn 0 1 0
vn 0 1 0
vn 0 1 0
vn 0 1 0
vn 0 1 0
vn 0 1 0
vn 0 1 0
vn 0 1 0
vn 0 1 0
vn 0 1 0
vn 0 1 0
vn 0 1 0
vn 0 1 0
vn 0 1 0
vn 0 1 0
vn 0 1 0
vn 0 1 0
vn 0 1 0
vn 0 1 0
vn 0 1 0
vn 0 1 0
vn 0 1 0
vn 0 1 0
vn 0 1 0
vn 0 1 0
vn 0 1 0
vn 0 1 0
vn 0 1 0
vn 0 1 0
vn 0 1 0
vn 0 1 0
vn 0 1 0
vn 0 1 0
vn 0 1 0
vn 0 1 0
vn 0 1 0
vn 0 1 0
vn 0 1 0
vn 0 1 0
vn 0 1 0
vn 0 1 0
vn 0 1 0
vn 0 1 0
vn 0 1 0
vn 0 1 0
vn 0 1 0
vn 0 1 0
vn 0 1 0
vn 0 1 0
vn 0 1 0
vn 0 1 0
vn 0 1 0
vn 0 1 0
vn 0 1 0
vn 0 1 0
vn 0 1 0
vn 0 1 0
vn 0 1 0
vn 0 1 0
vn 0 1 0
vn 0 1 0
vn 0 1 0
vn 0 1 0
vn 0 1 0
vn 0 1 0
vn 0 1 0
vn 0 1 0
vn 0 1 0
vn 0 1 0
vn 0 1 0
vn 0 1 0
vn 0 1 0
vn 0 1 0
vn 0 1 0
vn 0 1 0
vn 0 1 0
vn 0 1 0
vn 0 1 0
vn 0 1 0
vn 0 1 0
vn 0 1 0
vn 0 1 0
vn 0 1 0
vn 0 1 0
vn 0 1 0
vn 0 1 0
vn 0 1 0
vn 0 1 0
vn 0 1 0
vn 0 1 0
vn 0 1 0
vn 0 1 0
vn 0 1 0
vn 0 1 0
vn 0 1 0
vn 0 1 0
vn 0 1 0
vn 0 1 0
vn 0 1 0
vn 0 1 0
vn 0 1 0
vn 0 1 0
vn 0 1 0
vn 0 1 0
vn 0 1 0
vn 0 1 0
vn 0 1 0
vn 0 1 0
vn 0 1 0
vn 0 1 0
vn 0 1 0
vn 0 1 0
vn 0 1 0
vn 0 1 0
vn 0 1 0
vn 0 1 0
vn 0 1 0
vn 0 1 0
vn 0 1 0
vn 0 1 0
vn 0 1 0
vn 0 1 0
vn 0 1 0
vn 0 1 0
vn 0 1 0
vn 0 1 0
vn 0 1 0
vn 0 1 0
vn 0 1 0
vn 0 1 0
vn 0 1 0
vn 0 1 0
vn 0 1 0
vn 0 1 0
vn 0 1 0
vn 0 1 0
vn 0 1 0
vn 0 1 0
vn 0 1 0
vn 0 1 0
vn 0 1 0
vn 0 1 0
g submesh_0
usemtl submesh_0
f 1/1/1 2/2/2 3/3/3
f 4/4/4 2/2/2 1/1/1
f 4/4/4 5/5/5 2/2/2
f 6/6/6 5/5/5 4/4/4
f 6/6/6 7/7/7 5/5/5
f 8/8/8 7/7/7 6/6/6
f 8/8/8 9/9/9 7/7/7
f 10/10/10 9/9/9 8/8/8
f 10/10/10 11/11/11 9/9/9
f 12/12/12 11/11/11 10/10/10
f 12/12/12 13/13/13 11/11/11
f 14/14/14 13/13/13 12/12/12
f 14/14/14 15/15/15 13/13/13
f 16/16/16 15/15/15 14/14/14
f 16/16/16 17/17/17 15/15/15
f 18/18/18 17/17/17 16/16/16
f 18/18/18 19/19/19 17/17/17
f 20/20/20 19/19/19 18/18/18
f 20/20/20 21/21/21 19/19/19
f 22/22/22 21/21/21 20/20/20
f 7/7/7 9/9/9 23/23/23
f 9/9/9 11/11/11 24/24/24
f 9/9/9 24/24/24 23/23/23
f 11/11/11 13/13/13 25/25/25
f 11/11/11 25/25/25 24/24/24
f 13/13/13 15/15/15 26/26/26
f 13/13/13 26/26/26 25/25/25
f 15/15/15 17/17/17 27/27/27
f 15/15/15 27/27/27 26/26/26
f 17/17/17 19/19/19 28/28/28
f 17/17/17 28/28/28 27/27/27
f 29/29/29 27/27/27 28/28/28
f 19/19/19 30/30/30 28/28/28
f 30/30/30 29/29/29 28/28/28
f 19/19/19 21/21/21 30/30/30
f 31/31/31 26/26/26 27/27/27
f 29/29/29 31/31/31 27/27/27
f 25/25/25 26/26/26 32/32/32
f 31/31/31 32/32/32 26/26/26
f 33/33/33 24/24/24 25/25/25
f 25/25/25 32/32/32 33/33/33
f 34/34/34 32/32/32 31/31/31
f 33/33/33 32/32/32 34/34/34
f 35/35/35 31/31/31 29/29/29
f 34/34/34 31/31/31 35/35/35
f 33/33/33 36/36/36 24/24/24
f 36/36/36 23/23/23 24/24/24
f 21/21/21 37/37/37 30/30/30
f 30/30/30 38/38/38 29/29/29
f 37/37/37 38/38/38 30/30/30
f 21/21/21 39/39/39 37/37/37
f 22/22/22 39/39/39 21/21/21
f 40/40/40 39/39/39 22/22/22
f 40/40/40 22/22/22 41/41/41
f 42/42/42 39/39/39 40/40/40
f 42/42/42 37/37/37 39/39/39
f 43/43/43 37/37/37 42/42/42
f 43/43/43 44/44/44 37/37/37
f 37/37/37 44/44/44 38/38/38
f 45/45/45 44/44/44 43/43/43
f 45/45/45 46/46/46 44/44/44
f 38/38/38 44/44/44 46/46/46
f 47/47/47 46/46/46 45/45/45
f 29/29/29 38/38/38 48/48/48
f 38/38/38 46/46/46 48/48/48
f 47/47/47 49/49/49 46/46/46
f 50/50/50 49/49/49 47/47/47
f 46/46/46 49/49/49 51/51/51
f 46/46/46 51/51/51 48/48/48
f 50/50/50 52/52/52 49/49/49
f 51/51/51 49/49/49 52/52/52
f 53/53/53 52/52/52 50/50/50
f 29/29/29 48/48/48 54/54/54
f 35/35/35 29/29/29 54/54/54
f 48/48/48 51/51/51 55/55/55
f 48/48/48 55/55/55 54/54/54
f 54/54/54 56/56/56 35/35/35
f 54/54/54 55/55/55 56/56/56
f 55/55/55 51/51/51 57/57/57
f 51/51/51 52/52/52 57/57/57
f 53/53/53 58/58/58 52/52/52
f 59/59/59 58/58/58 53/53/53
f 55/55/55 57/57/57 60/60/60
f 56/56/56 55/55/55 60/60/60
f 61/61/61 57/57/57 52/52/52
f 61/61/61 52/52/52 58/58/58
f 60/60/60 57/57/57 61/61/61
f 35/35/35 56/56/56 62/62/62
f 35/35/35 62/62/62 34/34/34
f 59/59/59 63/63/63 58/58/58
f 64/64/64 63/63/63 59/59/59
f 56/56/56 60/60/60 65/65/65
f 62/62/62 56/56/56 65/65/65
f 58/58/58 63/63/63 66/66/66
f 58/58/58 66/66/66 61/61/61
f 64/64/64 67/67/67 63/63/63
f 66/66/66 63/63/63 67/67/67
f 68/68/68 67/67/67 64/64/64
f 60/60/60 61/61/61 69/69/69
f 65/65/65 60/60/60 69/69/69
f 61/61/61 66/66/66 70/70/70
f 61/61/61 70/70/70 69/69/69
f 68/68/68 71/71/71 67/67/67
f 72/72/72 71/71/71 68/68/68
f 66/66/66 67/67/67 73/73/73
f 70/70/70 66/66/66 73/73/73
f 72/72/72 74/74/74 71/71/71
f 75/75/75 74/74/74 72/72/72
f 67/67/67 71/71/71 76/76/76
f 67/67/67 76/76/76 73/73/73
f 76/76/76 71/71/71 74/74/74
f 73/73/73 76/76/76 77/77/77
f 70/70/70 73/73/73 78/78/78
f 73/73/73 77/77/77 78/78/78
f 69/69/69 70/70/70 79/79/79
f 79/79/79 70/70/70 78/78/78
f 75/75/75 80/80/80 74/74/74
f 81/81/81 80/80/80 75/75/75
f 76/76/76 74/74/74 82/82/82
f 77/77/77 76/76/76 82/82/82
f 81/81/81 83/83/83 80/80/80
f 84/84/84 83/83/83 81/81/81
f 74/74/74 80/80/80 85/85/85
f 74/74/74 85/85/85 82/82/82
f 85/85/85 80/80/80 83/83/83
f 69/69/69 79/79/79 86/86/86
f 65/65/65 69/69/69 86/86/86
f 79/79/79 78/78/78 87/87/87
f 77/77/77 87/87/87 78/78/78
f 86/86/86 79/79/79 88/88/88
f 88/88/88 79/79/79 87/87/87
f 89/89/89 65/65/65 86/86/86
f 86/86/86 88/88/88 89/89/89
f 84/84/84 90/90/90 83/83/83
f 91/91/91 90/90/90 84/84/84
f 89/89/89 92/92/92 65/65/65
f 62/62/62 65/65/65 92/92/92
f 93/93/93 62/62/62 92/92/92
f 34/34/34 62/62/62 93/93/93
f 91/91/91 94/94/94 90/90/90
f 95/95/95 94/94/94 91/91/91
f 95/95/95 96/96/96 94/94/94
f 97/97/97 96/96/96 95/95/95
f 90/90/90 94/94/94 98/98/98
f 98/98/98 94/94/94 96/96/96
f 99/99/99 83/83/83 90/90/90
f 90/90/90 98/98/98 99/99/99
f 100/100/100 92/92/92 89/89/89
f 93/93/93 92/92/92 100/100/100
f 34/34/34 93/93/93 101/101/101
f 33/33/33 34/34/34 101/101/101
f 102/102/102 33/33/33 101/101/101
f 93/93/93 102/102/102 101/101/101
f 102/102/102 36/36/36 33/33/33
f 103/103/103 36/36/36 102/102/102
f 93/93/93 104/104/104 102/102/102
f 100/100/100 104/104/104 93/93/93
f 104/104/104 103/103/103 102/102/102
f 99/99/99 105/105/105 83/83/83
f 85/85/85 83/83/83 105/105/105
f 106/106/106 85/85/85 105/105/105
f 82/82/82 85/85/85 106/106/106
f 103/103/103 107/107/107 36/36/36
f 36/36/36 107/107/107 23/23/23
f 108/108/108 23/23/23 107/107/107
f 7/7/7 23/23/23 108/108/108
f 5/5/5 7/7/7 108/108/108
f 108/108/108 107/107/107 109/109/109
f 109/109/109 107/107/107 103/103/103
f 5/5/5 108/108/108 110/110/110
f 109/109/109 110/110/110 108/108/108
f 2/2/2 5/5/5 110/110/110
f 2/2/2 110/110/110 111/111/111
f 112/112/112 2/2/2 111/111/111
f 113/113/113 111/111/111 110/110/110
f 109/109/109 113/113/113 110/110/110
f 82/82/82 106/106/106 114/114/114
f 77/77/77 82/82/82 114/114/114
f 113/113/113 115/115/115 111/111/111
f 116/116/116 111/111/111 115/115/115
f 117/117/117 115/115/115 113/113/113
f 118/118/118 115/115/115 117/117/117
f 119/119/119 113/113/113 109/109/109
f 117/117/117 113/113/113 119/119/119
f 119/119/119 109/109/109 120/120/120
f 109/109/109 103/103/103 120/120/120
f 121/121/121 119/119/119 120/120/120
f 103/103/103 121/121/121 120/120/120
f 122/122/122 117/117/117 119/119/119
f 121/121/121 122/122/122 119/119/119
f 103/103/103 123/123/123 121/121/121
f 104/104/104 123/123/123 103/103/103
f 124/124/124 123/123/123 104/104/104
f 100/100/100 124/124/124 104/104/104
f 121/121/121 123/123/123 125/125/125
f 124/124/124 125/125/125 123/123/123
f 122/122/122 126/126/126 117/117/117
f 127/127/127 117/117/117 126/126/126
f 121/121/121 125/125/125 128/128/128
f 128/128/128 122/122/122 121/121/121
f 129/129/129 126/126/126 122/122/122
f 130/130/130 126/126/126 129/129/129
f 129/129/129 122/122/122 131/131/131
f 128/128/128 131/131/131 122/122/122
f 132/132/132 129/129/129 131/131/131
f 133/133/133 129/129/129 132/132/132
f 134/134/134 131/131/131 128/128/128
f 132/132/132 131/131/131 134/134/134
f 135/135/135 128/128/128 125/125/125
f 134/134/134 128/128/128 135/135/135
f 136/136/136 125/125/125 124/124/124
f 135/135/135 125/125/125 136/136/136
f 134/134/134 137/137/137 132/132/132
f 132/132/132 137/137/137 138/138/138
f 135/135/135 139/139/139 134/134/134
f 134/134/134 139/139/139 137/137/137
f 136/136/136 124/124/124 140/140/140
f 140/140/140 124/124/124 100/100/100
f 136/136/136 141/141/141 135/135/135
f 135/135/135 141/141/141 139/139/139
f 140/140/140 142/142/142 136/136/136
f 136/136/136 142/142/142 141/141/141
f 140/140/140 100/100/100 143/143/143
f 100/100/100 89/89/89 143/143/143
f 143/143/143 144/144/144 140/140/140
f 140/140/140 144/144/144 142/142/142
f 89/89/89 145/145/145 143/143/143
f 143/143/143 145/145/145 144/144/144
f 89/89/89 88/88/88 145/145/145
f 145/145/145 88/88/88 146/146/146
f 88/88/88 87/87/87 146/146/146
f 144/144/144 145/145/145 147/147/147
f 145/145/145 146/146/146 147/147/147
f 142/142/142 144/144/144 148/148/148
f 144/144/144 147/147/147 148/148/148
f 141/141/141 142/142/142 149/149/149
f 142/142/142 148/148/148 149/149/149
f 139/139/139 141/141/141 150/150/150
f 141/141/141 149/149/149 150/150/150
f 151/151/151 146/146/146 87/87/87
f 77/77/77 151/151/151 87/87/87
f 147/147/147 146/146/146 152/152/152
f 151/151/151 152/152/152 146/146/146
f 153/153/153 148/148/148 147/147/147
f 147/147/147 152/152/152 153/153/153
f 154/154/154 149/149/149 148/148/148
f 153/153/153 154/154/154 148/148/148
f 155/155/155 151/151/151 77/77/77
f 155/155/155 77/77/77 114/114/114
f 156/156/156 152/152/152 151/151/151
f 153/153/153 152/152/152 156/156/156
f 156/156/156 151/151/151 155/155/155
f 114/114/114 157/157/157 155/155/155
f 114/114/114 106/106/106 157/157/157
f 150/150/150 149/149/149 158/158/158
f 154/154/154 158/158/158 149/149/149
f 159/159/159 158/158/158 154/154/154
f 160/160/160 154/154/154 153/153/153
f 159/159/159 154/154/154 160/160/160
f 150/150/150 158/158/158 161/161/161
f 161/161/161 158/158/158 159/159/159
f 155/155/155 162/162/162 156/156/156
f 155/155/155 157/157/157 162/162/162
f 157/157/157 106/106/106 163/163/163
f 106/106/106 105/105/105 163/163/163
f 163/163/163 105/105/105 99/99/99
f 153/153/153 156/156/156 164/164/164
f 160/160/160 153/153/153 164/164/164
f 156/156/156 165/165/165 164/164/164
f 165/165/165 160/160/160 164/164/164
f 156/156/156 162/162/162 165/165/165
f 157/157/157 163/163/163 166/166/166
f 162/162/162 157/157/157 166/166/166
f 163/163/163 99/99/99 167/167/167
f 166/166/166 163/163/163 167/167/167
f 168/168/168 159/159/159 160/160/160
f 165/165/165 168/168/168 160/160/160
f 165/165/165 162/162/162 169/169/169
f 162/162/162 166/166/166 169/169/169
f 165/165/165 169/169/169 170/170/170
f 170/170/170 168/168/168 165/165/165
f 171/171/171 169/169/169 166/166/166
f 170/170/170 169/169/169 171/171/171
f 99/99/99 172/172/172 167/167/167
f 99/99/99 98/98/98 172/172/172
f 166/166/166 167/167/167 173/173/173
f 171/171/171 166/166/166 173/173/173
f 167/167/167 174/174/174 173/173/173
f 167/167/167 172/172/172 174/174/174
f 172/172/172 98/98/98 175/175/175
f 98/98/98 96/96/96 175/175/175
f 173/173/173 176/176/176 171/171/171
f 173/173/173 174/174/174 176/176/176
f 174/174/174 172/172/172 177/177/177
f 172/172/172 175/175/175 177/177/177
f 175/175/175 178/178/178 177/177/177
f 174/174/174 177/177/177 179/179/179
f 176/176/176 174/174/174 179/179/179
f 178/178/178 179/179/179 177/177/177
f 96/96/96 180/180/180 175/175/175
f 175/175/175 180/180/180 178/178/178
f 96/96/96 181/181/181 180/180/180
f 97/97/97 181/181/181 96/96/96
f 182/182/182 181/181/181 97/97/97
f 182/182/182 183/183/183 181/181/181
f 180/180/180 181/181/181 183/183/183
f 184/184/184 183/183/183 182/182/182
f 178/178/178 180/180/180 185/185/185
f 180/180/180 183/183/183 185/185/185
f 184/184/184 186/186/186 183/183/183
f 187/187/187 186/186/186 184/184/184
f 183/183/183 186/186/186 188/188/188
f 183/183/183 188/188/188 185/185/185
f 187/187/187 189/189/189 186/186/186
f 188/188/188 186/186/186 189/189/189
f 190/190/190 189/189/189 187/187/187
f 190/190/190 191/191/191 189/189/189
f 192/192/192 191/191/191 190/190/190
f 192/192/192 193/193/193 191/191/191
f 194/194/194 193/193/193 192/192/192
f 194/194/194 195/195/195 193/193/193
f 196/196/196 195/195/195 194/194/194
f 191/191/191 193/193/193 197/197/197
f 197/197/197 193/193/193 195/195/195
f 198/198/198 189/189/189 191/191/191
f 191/191/191 197/197/197 198/198/198
f 188/188/188 189/189/189 199/199/199
f 198/198/198 199/199/199 189/189/189
f 185/185/185 188/188/188 200/200/200
f 200/200/200 188/188/188 199/199/199
f 196/196/196 201/201/201 195/195/195
f 202/202/202 201/201/201 196/196/196
f 202/202/202 203/203/203 201/201/201
f 204/204/204 203/203/203 202/202/202
f 195/195/195 201/201/201 205/205/205
f 205/205/205 201/201/201 203/203/203
f 197/197/197 195/195/195 206/206/206
f 195/195/195 205/205/205 206/206/206
f 206/206/206 205/205/205 207/207/207
f 208/208/208 197/197/197 206/206/206
f 198/198/198 197/197/197 208/208/208
f 209/209/209 199/199/199 198/198/198
f 200/200/200 199/199/199 209/209/209
f 204/204/204 210/210/210 203/203/203
f 211/211/211 210/210/210 204/204/204
f 205/205/205 203/203/203 212/212/212
f 207/207/207 205/205/205 212/212/212
f 211/211/211 213/213/213 210/210/210
f 214/214/214 213/213/213 211/211/211
f 214/214/214 215/215/215 213/213/213
f 216/216/216 213/213/213 215/215/215
f 203/203/203 210/210/210 217/217/217
f 217/217/217 210/210/210 213/213/213
f 203/203/203 217/217/217 212/212/212
f 216/216/216 218/218/218 213/213/213
f 217/217/217 213/213/213 218/218/218
f 212/212/212 217/217/217 219/219/219
f 219/219/219 217/217/217 218/218/218
f 220/220/220 218/218/218 216/216/216
f 219/219/219 218/218/218 220/220/220
f 220/220/220 216/216/216 221/221/221
f 212/212/212 219/219/219 222/222/222
f 207/207/207 212/212/212 222/222/222
f 223/223/223 220/220/220 221/221/221
f 223/223/223 221/221/221 224/224/224
f 225/225/225 223/223/223 224/224/224
f 226/226/226 219/219/219 220/220/220
f 222/222/222 219/219/219 226/226/226
f 226/226/226 220/220/220 223/223/223
f 222/222/222 226/226/226 227/227/227
f 227/227/227 207/207/207 222/222/222
f 228/228/228 226/226/226 223/223/223
f 227/227/227 226/226/226 228/228/228
f 225/225/225 229/229/229 223/223/223
f 228/228/228 223/223/223 229/229/229
f 230/230/230 229/229/229 225/225/225
f 230/230/230 225/225/225 231/231/231
f 232/232/232 230/230/230 231/231/231
f 233/233/233 228/228/228 229/229/229
f 233/233/233 229/229/229 230/230/230
f 227/227/227 228/228/228 234/234/234
f 234/234/234 228/228/228 233/233/233
f 232/232/232 235/235/235 230/230/230
f 236/236/236 235/235/235 232/232/232
f 227/227/227 237/237/237 207/207/207
f 234/234/234 237/237/237 227/227/227
f 230/230/230 238/238/238 233/233/233
f 230/230/230 235/235/235 238/238/238
f 236/236/236 239/239/239 235/235/235
f 240/240/240 239/239/239 236/236/236
f 235/235/235 241/241/241 238/238/238
f 235/235/235 239/239/239 241/241/241
f 238/238/238 241/241/241 242/242/242
f 233/233/233 238/238/238 243/243/243
f 238/238/238 242/242/242 243/243/243
f 240/240/240 244/244/244 239/239/239
f 245/245/245 244/244/244 240/240/240
f 246/246/246 241/241/241 239/239/239
f 242/242/242 241/241/241 246/246/246
f 246/246/246 239/239/239 244/244/244
f 245/245/245 247/247/247 244/244/244
f 248/248/248 247/247/247 245/245/245
f 244/244/244 247/247/247 249/249/249
f 244/244/244 249/249/249 246/246/246
f 248/248/248 250/250/250 247/247/247
f 250/250/250 249/249/249 247/247/247
f 251/251/251 250/250/250 248/248/248
f 233/233/233 243/243/243 252/252/252
f 234/234/234 233/233/233 252/252/252
f 243/243/243 253/253/253 252/252/252
f 253/253/253 234/234/234 252/252/252
f 242/242/242 254/254/254 243/243/243
f 243/243/243 254/254/254 253/253/253
f 250/250/250 255/255/255 249/249/249
f 256/256/256 255/255/255 250/250/250
f 249/249/249 255/255/255 257/257/257
f 258/258/258 257/257/257 255/255/255
f 253/253/253 259/259/259 234/234/234
f 234/234/234 259/259/259 237/237/237
f 249/249/249 257/257/257 260/260/260
f 246/246/246 249/249/249 260/260/260
f 242/242/242 246/246/246 261/261/261
f 246/246/246 260/260/260 261/261/261
f 262/262/262 242/242/242 261/261/261
f 260/260/260 262/262/262 261/261/261
f 257/257/257 263/263/263 260/260/260
f 260/260/260 263/263/263 262/262/262
f 262/262/262 264/264/264 242/242/242
f 242/242/242 264/264/264 254/254/254
f 257/257/257 265/265/265 263/263/263
f 266/266/266 265/265/265 257/257/257
f 263/263/263 265/265/265 267/267/267
f 268/268/268 267/267/267 265/265/265
f 262/262/262 263/263/263 269/269/269
f 263/263/263 267/267/267 269/269/269
f 270/270/270 264/264/264 262/262/262
f 262/262/262 269/269/269 270/270/270
f 254/254/254 264/264/264 271/271/271
f 270/270/270 271/271/271 264/264/264
f 272/272/272 269/269/269 267/267/267
f 273/273/273 272/272/272 267/267/267
f 274/274/274 270/270/270 269/269/269
f 272/272/272 274/274/274 269/269/269
f 254/254/254 271/271/271 275/275/275
f 253/253/253 254/254/254 275/275/275
f 276/276/276 271/271/271 270/270/270
f 274/274/274 276/276/276 270/270/270
f 253/253/253 275/275/275 277/277/277
f 277/277/277 259/259/259 253/253/253
f 278/278/278 275/275/275 271/271/271
f 276/276/276 278/278/278 271/271/271
f 277/277/277 279/279/279 259/259/259
f 237/237/237 259/259/259 279/279/279
f 280/280/280 277/277/277 275/275/275
f 278/278/278 280/280/280 275/275/275
f 237/237/237 279/279/279 281/281/281
f 207/207/207 237/237/237 281/281/281
f 282/282/282 279/279/279 277/277/277
f 280/280/280 282/282/282 277/277/277
f 207/207/207 281/281/281 283/283/283
f 206/206/206 207/207/207 283/283/283
f 208/208/208 206/206/206 283/283/283
f 284/284/284 281/281/281 279/279/279
f 282/282/282 284/284/284 279/279/279
f 285/285/285 283/283/283 281/281/281
f 285/285/285 208/208/208 283/283/283
f 284/284/284 285/285/285 281/281/281
f 286/286/286 208/208/208 285/285/285
f 198/198/198 208/208/208 286/286/286
f 209/209/209 198/198/198 286/286/286
f 287/287/287 285/285/285 284/284/284
f 286/286/286 285/285/285 287/287/287
f 288/288/288 284/284/284 282/282/282
f 287/287/287 284/284/284 288/288/288
f 289/289/289 286/286/286 287/287/287
f 289/289/289 209/209/209 286/286/286
f 288/288/288 289/289/289 287/287/287
f 288/288/288 282/282/282 290/290/290
f 290/290/290 282/282/282 280/280/280
f 290/290/290 280/280/280 291/291/291
f 291/291/291 280/280/280 278/278/278
f 292/292/292 288/288/288 290/290/290
f 291/291/291 292/292/292 290/290/290
f 291/291/291 278/278/278 293/293/293
f 293/293/293 278/278/278 276/276/276
f 294/294/294 209/209/209 289/289/289
f 294/294/294 200/200/200 209/209/209
f 288/288/288 295/295/295 289/289/289
f 292/292/292 295/295/295 288/288/288
f 296/296/296 289/289/289 295/295/295
f 296/296/296 294/294/294 289/289/289
f 297/297/297 200/200/200 294/294/294
f 185/185/185 200/200/200 297/297/297
f 178/178/178 185/185/185 297/297/297
f 297/297/297 294/294/294 298/298/298
f 298/298/298 178/178/178 297/297/297
f 298/298/298 294/294/294 296/296/296
f 299/299/299 296/296/296 295/295/295
f 299/299/299 295/295/295 292/292/292
f 298/298/298 300/300/300 178/178/178
f 178/178/178 300/300/300 179/179/179
f 298/298/298 296/296/296 301/301/301
f 301/301/301 296/296/296 299/299/299
f 301/301/301 300/300/300 298/298/298
f 300/300/300 302/302/302 179/179/179
f 176/176/176 179/179/179 302/302/302
f 301/301/301 303/303/303 300/300/300
f 300/300/300 303/303/303 302/302/302
f 304/304/304 176/176/176 302/302/302
f 171/171/171 176/176/176 304/304/304
f 305/305/305 302/302/302 303/303/303
f 304/304/304 302/302/302 305/305/305
f 306/306/306 303/303/303 301/301/301
f 305/305/305 303/303/303 306/306/306
f 171/171/171 304/304/304 307/307/307
f 170/170/170 171/171/171 307/307/307
f 308/308/308 304/304/304 305/305/305
f 307/307/307 304/304/304 308/308/308
f 309/309/309 170/170/170 307/307/307
f 307/307/307 308/308/308 309/309/309
f 308/308/308 305/305/305 310/310/310
f 306/306/306 310/310/310 305/305/305
f 306/306/306 301/301/301 311/311/311
f 301/301/301 299/299/299 311/311/311
f 312/312/312 306/306/306 311/311/311
f 299/299/299 312/312/312 311/311/311
f 309/309/309 313/313/313 170/170/170
f 170/170/170 313/313/313 168/168/168
f 309/309/309 308/308/308 314/314/314
f 314/314/314 308/308/308 310/310/310
f 306/306/306 315/315/315 310/310/310
f 312/312/312 315/315/315 306/306/306
f 316/316/316 315/315/315 312/312/312
f 299/299/299 317/317/317 312/312/312
f 317/317/317 316/316/316 312/312/312
f 292/292/292 317/317/317 299/299/299
f 315/315/315 318/318/318 310/310/310
f 314/314/314 310/310/310 318/318/318
f 309/309/309 314/314/314 319/319/319
f 319/319/319 313/313/313 309/309/309
f 313/313/313 320/320/320 168/168/168
f 168/168/168 320/320/320 159/159/159
f 292/292/292 321/321/321 317/317/317
f 291/291/291 321/321/321 292/292/292
f 293/293/293 321/321/321 291/291/291
f 313/313/313 322/322/322 320/320/320
f 319/319/319 322/322/322 313/313/313
f 319/319/319 314/314/314 323/323/323
f 323/323/323 314/314/314 318/318/318
f 159/159/159 320/320/320 324/324/324
f 324/324/324 320/320/320 322/322/322
f 321/321/321 325/325/325 317/317/317
f 317/317/317 325/325/325 316/316/316
f 293/293/293 326/326/326 321/321/321
f 321/321/321 326/326/326 325/325/325
f 327/327/327 322/322/322 319/319/319
f 319/319/319 323/323/323 327/327/327
f 159/159/159 324/324/324 328/328/328
f 161/161/161 159/159/159 328/328/328
f 316/316/316 325/325/325 329/329/329
f 329/329/329 325/325/325 326/326/326
f 330/330/330 326/326/326 293/293/293
f 293/293/293 276/276/276 330/330/330
f 330/330/330 276/276/276 274/274/274
f 330/330/330 331/331/331 326/326/326
f 329/329/329 326/326/326 331/331/331
f 330/330/330 274/274/274 332/332/332
f 332/332/332 331/331/331 330/330/330
f 332/332/332 274/274/274 272/272/272
f 332/332/332 272/272/272 333/333/333
f 333/333/333 272/272/272 334/334/334
f 332/332/332 335/335/335 331/331/331
f 333/333/333 335/335/335 332/332/332
f 331/331/331 335/335/335 336/336/336
f 331/331/331 336/336/336 329/329/329
f 333/333/333 337/337/337 335/335/335
f 337/337/337 336/336/336 335/335/335
f 338/338/338 337/337/337 333/333/333
f 337/337/337 339/339/339 336/336/336
f 340/340/340 339/339/339 337/337/337
f 336/336/336 339/339/339 341/341/341
f 342/342/342 341/341/341 339/339/339
f 329/329/329 336/336/336 343/343/343
f 336/336/336 341/341/341 343/343/343
f 329/329/329 343/343/343 344/344/344
f 316/316/316 329/329/329 344/344/344
f 343/343/343 345/345/345 344/344/344
f 345/345/345 316/316/316 344/344/344
f 341/341/341 346/346/346 343/343/343
f 343/343/343 346/346/346 345/345/345
f 345/345/345 347/347/347 316/316/316
f 316/316/316 347/347/347 315/315/315
f 315/315/315 347/347/347 318/318/318
f 348/348/348 318/318/318 347/347/347
f 348/348/348 347/347/347 345/345/345
f 323/323/323 318/318/318 348/348/348
f 345/345/345 349/349/349 348/348/348
f 345/345/345 346/346/346 349/349/349
f 350/350/350 323/323/323 348/348/348
f 350/350/350 348/348/348 349/349/349
f 327/327/327 323/323/323 350/350/350
f 341/341/341 351/351/351 346/346/346
f 352/352/352 351/351/351 341/341/341
f 346/346/346 351/351/351 353/353/353
f 346/346/346 353/353/353 349/349/349
f 354/354/354 353/353/353 351/351/351
f 355/355/355 349/349/349 353/353/353
f 355/355/355 350/350/350 349/349/349
f 356/356/356 355/355/355 353/353/353
f 327/327/327 350/350/350 357/357/357
f 357/357/357 350/350/350 355/355/355
f 357/357/357 358/358/358 327/327/327
f 327/327/327 358/358/358 322/322/322
f 324/324/324 322/322/322 358/358/358
f 357/357/357 355/355/355 359/359/359
f 359/359/359 355/355/355 360/360/360
f 357/357/357 361/361/361 358/358/358
f 359/359/359 361/361/361 357/357/357
f 358/358/358 362/362/362 324/324/324
f 358/358/358 361/361/361 362/362/362
f 359/359/359 363/363/363 361/361/361
f 363/363/363 362/362/362 361/361/361
f 364/364/364 363/363/363 359/359/359
f 324/324/324 362/362/362 365/365/365
f 324/324/324 365/365/365 328/328/328
f 365/365/365 161/161/161 328/328/328
f 363/363/363 366/366/366 362/362/362
f 367/367/367 366/366/366 363/363/363
f 362/362/362 366/366/366 368/368/368
f 362/362/362 368/368/368 365/365/365
f 369/369/369 368/368/368 366/366/366
f 365/365/365 370/370/370 161/161/161
f 368/368/368 370/370/370 365/365/365
f 161/161/161 370/370/370 371/371/371
f 161/161/161 371/371/371 150/150/150
f 139/139/139 150/150/150 371/371/371
f 137/137/137 139/139/139 371/371/371
f 137/137/137 371/371/371 372/372/372
f 370/370/370 372/372/372 371/371/371
f 373/373/373 137/137/137 372/372/372
f 368/368/368 374/374/374 370/370/370
f 370/370/370 374/374/374 372/372/372
f 375/375/375 374/374/374 368/368/368
f 376/376/376 372/372/372 374/374/374
