o cylinder_07
v -0.970150232 0.9293859 -0.239055157
v -1 0.775539756 2.77555756e-17
v -1 0.9293859 2.77555756e-17
v -0.970150232 0.775539756 -0.239055157
v -0.884523392 0.9293859 -0.464283794
v -0.970150232 0.621693611 -0.239055157
v -1 0.621693611 2.77555756e-17
v -0.884523392 0.775539756 -0.464283794
v -0.748421252 0.9293859 -0.663087904
v -0.970150232 0.467847466 -0.239055157
v -1 0.467847466 -2.77555756e-17
v -0.884523392 0.621693611 -0.464283794
v -0.748421252 0.775539756 -0.663087904
v -0.567795455 0.9293859 -0.822472811
v -0.884523392 0.467847466 -0.464283794
v -0.970150232 0.314001322 -0.239055157
v -1 0.314001322 -2.77555756e-17
v -0.748421252 0.621693611 -0.663087904
v -0.567795455 0.775539756 -0.822472811
v -0.354186565 0.9293859 -0.933957994
v -0.748421252 0.467847466 -0.663087904
v -0.748421252 0.314001322 -0.663087904
v -0.567795455 0.621693611 -0.822472811
v -0.567795455 0.467847466 -0.822472811
v -0.354186565 0.775539756 -0.933957994
v -0.120442145 0.9293859 -0.992412269
v -0.354186565 0.621693611 -0.933957994
v -0.120442145 0.775539756 -0.992412269
v 0.120442145 0.9293859 -0.992412269
v -0.884523392 0.314001322 -0.464283794
v -0.884523392 0.160155177 -0.464283794
v -0.354186565 0.467847466 -0.933957994
v -0.120442145 0.621693611 -0.992412269
v 0.120442145 0.775539756 -0.992412269
v 0.354186565 0.9293859 -0.933957994
v -0.120442145 0.467847466 -0.992412269
v -0.354186565 0.314001322 -0.933957994
v 0.120442145 0.621693611 -0.992412269
v 0.354186565 0.775539756 -0.933957994
v 0.567795455 0.9293859 -0.822472811
v 0.120442145 0.467847466 -0.992412269
v 0.354186565 0.621693611 -0.933957994
v 0.567795455 0.775539756 -0.822472811
v 0.748421252 0.9293859 -0.663087904
v -0.567795455 0.314001322 -0.822472811
v -0.120442145 0.314001322 -0.992412269
v 0.354186565 0.467847466 -0.933957994
v 0.567795455 0.621693611 -0.822472811
v 0.748421252 0.775539756 -0.663087904
v 0.884523392 0.9293859 -0.464283794
v 0.567795455 0.467847466 -0.822472811
v 0.354186565 0.314001322 -0.933957994
v 0.748421252 0.621693611 -0.663087904
v 0.884523392 0.775539756 -0.464283794
v 0.970150232 0.9293859 -0.239055157
v 0.748421252 0.467847466 -0.663087904
v 0.884523392 0.621693611 -0.464283794
v 0.970150232 0.775539756 -0.239055157
v 1 0.9293859 1.88450114e-15
v 0.120442145 0.314001322 -0.992412269
v 0.567795455 0.314001322 -0.822472811
v 0.884523392 0.467847466 -0.464283794
v 0.884523392 0.314001322 -0.464283794
v 0.970150232 0.621693611 -0.239055157
v 0.970150232 0.467847466 -0.239055157
v 0.748421252 0.314001322 -0.663087904
v 0.748421252 0.160155177 -0.663087904
v 0.567795455 0.160155177 -0.822472811
v 0.354186565 0.160155177 -0.933957994
v 0.120442145 0.160155177 -0.992412269
v 0.354186565 0 -0.933957994
v 0.567795455 0 -0.822472811
v 0.748421252 0 -0.663087904
v 0.120442145 0 -0.992412269
v 0.884523392 0 -0.464283794
v -0.120442145 0.160155177 -0.992412269
v -0.120442145 0 -0.992412269
v -0.354186565 0 -0.933957994
v 0.884523392 0.160155177 -0.464283794
v 0.970150232 0 -0.239055157
v -0.354186565 0.160155177 -0.933957994
v 0.970150232 0.160155177 -0.239055157
v 1 0 1.82898998e-15
v -0.567795455 0.160155177 -0.822472811
v -0.567795455 0 -0.822472811
v -0.748421252 0.160155177 -0.663087904
v -0.748421252 0 -0.663087904
v -0.884523392 0 -0.464283794
v -0.970150232 0 -0.239055157
v 0.970150232 0.314001322 -0.239055157
v -0.970150232 0.160155177 -0.239055157
v -1 0.160155177 -8.32667268e-17
v -1 0 -2.77555756e-17
v 1 0.160155177 1.82898998e-15
v 0.970150232 0 0.239055157
v 1 0.467847466 1.82898998e-15
v 1 0.314001322 1.88450114e-15
v 0.970150232 0.160155177 0.239055157
v 0.884523392 0.160155177 0.464283794
v 0.884523392 0 0.464283794
v 0.748421252 0 0.663087904
v 0.970150232 0.314001322 0.239055157
v 1 0.621693611 1.88450114e-15
v 0.748421252 0.160155177 0.663087904
v 0.748421252 0.314001322 0.663087904
v 0.567795455 0 0.822472811
v 0.567795455 0.160155177 0.822472811
v 0.354186565 0 0.933957994
v 0.884523392 0.314001322 0.464283794
v 0.970150232 0.467847466 0.239055157
v 0.884523392 0.467847466 0.464283794
v 1 0.775539756 1.88450114e-15
v 0.970150232 0.9293859 0.239055157
v 0.970150232 0.621693611 0.239055157
v 0.970150232 0.775539756 0.239055157
v 0.884523392 0.9293859 0.464283794
v 0.884523392 0.621693611 0.464283794
v 0.884523392 0.775539756 0.464283794
v 0.748421252 0.9293859 0.663087904
v 0.748421252 0.467847466 0.663087904
v 0.748421252 0.775539756 0.663087904
v 0.567795455 0.9293859 0.822472811
v 0.748421252 0.621693611 0.663087904
v 0.567795455 0.467847466 0.822472811
v 0.567795455 0.775539756 0.822472811
v 0.354186565 0.9293859 0.933957994
v 0.567795455 0.621693611 0.822472811
v 0.354186565 0.775539756 0.933957994
v 0.120442145 0.9293859 0.992412269
v 0.354186565 0.621693611 0.933957994
v 0.120442145 0.775539756 0.992412269
v -0.120442145 0.9293859 0.992412269
v 0.567795455 0.314001322 0.822472811
v 0.354186565 0.467847466 0.933957994
v 0.120442145 0.621693611 0.992412269
v -0.120442145 0.775539756 0.992412269
v -0.354186565 0.9293859 0.933957994
v 0.354186565 0.160155177 0.933957994
v 0.354186565 0.314001322 0.933957994
v 0.120442145 0.467847466 0.992412269
v 0.120442145 0.160155177 0.992412269
v 0.120442145 0 0.992412269
v -0.120442145 0 0.992412269
v 0.120442145 0.314001322 0.992412269
v -0.120442145 0.160155177 0.992412269
v -0.354186565 0 0.933957994
v -0.120442145 0.467847466 0.992412269
v -0.354186565 0.160155177 0.933957994
v -0.567795455 0 0.822472811
v -0.120442145 0.314001322 0.992412269
v -0.354186565 0.314001322 0.933957994
v -0.120442145 0.621693611 0.992412269
v -0.567795455 0.160155177 0.822472811
v -0.748421252 0 0.663087904
v -0.354186565 0.467847466 0.933957994
v -0.354186565 0.621693611 0.933957994
v -0.567795455 0.314001322 0.822472811
v -0.567795455 0.467847466 0.822472811
v -0.748421252 0.467847466 0.663087904
v -0.748421252 0.160155177 0.663087904
v -0.884523392 0 0.464283794
v -0.748421252 0.314001322 0.663087904
v -0.354186565 0.775539756 0.933957994
v -0.567795455 0.9293859 0.822472811
v -0.567795455 0.621693611 0.822472811
v -0.567795455 0.775539756 0.822472811
v -0.748421252 0.9293859 0.663087904
v -0.884523392 0.160155177 0.464283794
v -0.970150232 0 0.239055157
v -0.884523392 0.314001322 0.464283794
v -0.748421252 0.621693611 0.663087904
v -0.748421252 0.775539756 0.663087904
v -0.884523392 0.9293859 0.464283794
v -0.970150232 0.160155177 0.239055157
v -1 0 -2.77555756e-17
v -1 0.160155177 -8.32667268e-17
v -0.970150232 0.314001322 0.239055157
v -1 0.314001322 -2.77555756e-17
v -0.884523392 0.621693611 0.464283794
v -0.884523392 0.775539756 0.464283794
v -0.970150232 0.9293859 0.239055157
v -0.884523392 0.467847466 0.464283794
v -0.970150232 0.467847466 0.239055157
v -1 0.467847466 -2.77555756e-17
v -0.970150232 0.621693611 0.239055157
v -1 0.621693611 2.77555756e-17
v -0.970150232 0.775539756 0.239055157
v -1 0.775539756 2.77555756e-17
v -1 0.9293859 2.77555756e-17
vt 0.0384897888 0.999587417
vt 0 0.833787382
vt 0 0.999587417
vt 0.0384897888 0.833787382
vt 0.076903373 0.999587417
vt 0.0384897888 0.667987704
vt 0 0.667987704
vt 0.076903373 0.833787382
vt 0.115369111 0.999587417
vt 0.0384898186 0.502187788
vt 0 0.502187788
vt 0.076903373 0.667987704
vt 0.115369111 0.833787382
vt 0.15387705 0.999587417
vt 0.0769034028 0.502187788
vt 0.0384898186 0.336388081
vt 0 0.336388081
vt 0.115369111 0.667987704
vt 0.15387705 0.833787382
vt 0.192300647 0.999587417
vt 0.115369141 0.502187788
vt 0.115369141 0.336388081
vt 0.15387705 0.667987704
vt 0.153877079 0.502187788
vt 0.192300647 0.833787501
vt 0.230742663 0.999587417
vt 0.192300647 0.667987704
vt 0.230742663 0.833787501
vt 0.269257307 0.999587417
vt 0.0769034028 0.336388081
vt 0.0769034028 0.170588285
vt 0.192300677 0.502187908
vt 0.230742663 0.667987704
vt 0.269257307 0.833787501
vt 0.307699323 0.999587417
vt 0.230742693 0.502187908
vt 0.192300677 0.336388081
vt 0.269257307 0.667987704
vt 0.307699323 0.833787501
vt 0.346122921 0.999587417
vt 0.269257307 0.502187908
vt 0.307699323 0.667987704
vt 0.346122921 0.833787501
vt 0.384630829 0.999587417
vt 0.153877079 0.336388081
vt 0.230742693 0.336388081
vt 0.307699323 0.502187908
vt 0.346122921 0.667987704
vt 0.384630859 0.833787501
vt 0.423096567 0.999587417
vt 0.346122921 0.502187908
vt 0.307699323 0.336388081
vt 0.384630859 0.667987704
vt 0.423096597 0.833787501
vt 0.461510152 0.999587417
vt 0.384630859 0.502187908
vt 0.423096597 0.667987704
vt 0.461510152 0.833787501
vt 0.49999997 0.999587417
vt 0.269257307 0.336388081
vt 0.346122921 0.336388081
vt 0.423096597 0.502187908
vt 0.423096597 0.336388081
vt 0.461510181 0.667987704
vt 0.461510181 0.502187908
vt 0.384630859 0.336388081
vt 0.384630859 0.170588285
vt 0.346122921 0.170588285
vt 0.307699323 0.170588285
vt 0.269257307 0.170588285
vt 0.307699323 0.00478842854
vt 0.346122921 0.00478842854
vt 0.384630859 0.00478842854
vt 0.269257307 0.00478842854
vt 0.423096597 0.00478842854
vt 0.230742693 0.170588285
vt 0.230742693 0.00478842854
vt 0.192300677 0.00478842854
vt 0.423096597 0.170588285
vt 0.461510181 0.00478842854
vt 0.192300677 0.170588285
vt 0.461510181 0.170588285
vt 0.5 0.00478842854
vt 0.153877079 0.170588285
vt 0.153877079 0.00478842854
vt 0.115369141 0.170588285
vt 0.115369141 0.00478842854
vt 0.0769034028 0.00478842854
vt 0.0384898186 0.00478842854
vt 0.461510181 0.336388081
vt 0.0384898186 0.170588285
vt 0 0.170588285
vt 0 0.00478842854
vt 0.5 0.170588285
vt 0.538489819 0.00478842854
vt 0.5 0.502187908
vt 0.5 0.336388081
vt 0.538489819 0.170588285
vt 0.576903403 0.170588285
vt 0.576903403 0.00478842854
vt 0.615369141 0.00478842854
vt 0.538489819 0.336388081
vt 0.49999997 0.667987704
vt 0.615369141 0.170588285
vt 0.615369141 0.336388081
vt 0.653877079 0.00478842854
vt 0.653877079 0.170588285
vt 0.692300677 0.00478842854
vt 0.576903403 0.336388081
vt 0.538489819 0.502187908
vt 0.576903403 0.502187908
vt 0.49999997 0.833787501
vt 0.538489819 0.999587417
vt 0.538489819 0.667987704
vt 0.538489819 0.833787501
vt 0.576903403 0.999587417
vt 0.576903403 0.667987704
vt 0.576903403 0.833787501
vt 0.615369141 0.999587417
vt 0.615369141 0.502187908
vt 0.615369141 0.833787501
vt 0.653877079 0.999587417
vt 0.615369141 0.667987704
vt 0.653877079 0.502187908
vt 0.653877079 0.833787501
vt 0.692300677 0.999587417
vt 0.653877079 0.667987704
vt 0.692300677 0.833787501
vt 0.730742693 0.999587417
vt 0.692300677 0.667987704
vt 0.730742693 0.833787501
vt 0.769257307 0.999587417
vt 0.653877079 0.336388081
vt 0.692300677 0.502187908
vt 0.730742693 0.667987704
vt 0.769257307 0.833787501
vt 0.807699323 0.999587417
vt 0.692300677 0.170588285
vt 0.692300677 0.336388081
vt 0.730742693 0.502187908
vt 0.730742693 0.170588285
vt 0.730742693 0.00478842854
vt 0.769257307 0.00478842854
vt 0.730742693 0.336388081
vt 0.769257307 0.170588285
vt 0.807699323 0.00478842854
vt 0.769257307 0.502187908
vt 0.807699323 0.170588285
vt 0.846122921 0.00478842854
vt 0.769257307 0.336388081
vt 0.807699323 0.336388081
vt 0.769257307 0.667987704
vt 0.846122921 0.170588285
vt 0.884630859 0.00478842854
vt 0.807699323 0.502187908
vt 0.807699323 0.667987704
vt 0.846122921 0.336388081
vt 0.846122921 0.502188027
vt 0.884630859 0.502188027
vt 0.884630859 0.170588285
vt 0.923096597 0.00478842854
vt 0.884630859 0.336388081
vt 0.807699323 0.833787501
vt 0.846122861 0.999587417
vt 0.846122861 0.667987704
vt 0.846122861 0.83378762
vt 0.884630799 0.999587417
vt 0.923096597 0.170588285
vt 0.961510181 0.00478842854
vt 0.923096597 0.336388081
vt 0.884630799 0.667987704
vt 0.884630799 0.83378762
vt 0.923096538 0.999587417
vt 0.961510181 0.170588285
vt 1 0.00478842854
vt 1 0.170588285
vt 0.961510181 0.336388081
vt 1 0.336388081
vt 0.923096538 0.667987704
vt 0.923096538 0.83378762
vt 0.961510122 0.999587417
vt 0.923096597 0.502188027
vt 0.961510181 0.502188027
vt 1 0.502188027
vt 0.961510122 0.667987704
vt 1 0.667987704
vt 0.961510122 0.83378762
vt 1 0.83378762
vt 1 0.999587417
vn -0.97043407 0 -0.241366312
vn -1 0 0
vn -1 0 0
vn -0.97043407 0 -0.241366267
vn -0.886160612 0 -0.463378191
vn -0.97043407 0 -0.241366237
vn -1 0 0
vn -0.886160672 0 -0.463378161
vn -0.749132991 0 -0.662419558
vn -0.97043407 0 -0.241366267
vn -1 0 0
vn -0.886160672 0 -0.463378102
vn -0.74913317 0 -0.662419498
vn -0.566292644 0 -0.824204326
vn -0.886160672 0 -0.463378042
vn -0.97043407 0 -0.241366237
vn -1 0 0
vn -0.74913317 0 -0.662419498
vn -0.566292703 0 -0.824204147
vn -0.355117798 0 -0.934821546
vn -0.74913317 0 -0.662419498
vn -0.74913317 0 -0.662419438
vn -0.566292703 0 -0.824204147
vn -0.566292703 0 -0.824204206
vn -0.355117798 0 -0.934821546
vn -0.122234426 0 -0.992501318
vn -0.355117798 0 -0.934821546
vn -0.122234449 0 -0.992501318
vn 0.122234426 0 -0.992501318
vn -0.886160672 0 -0.463378042
vn -0.886160672 0 -0.463378161
vn -0.355117768 0 -0.934821546
vn -0.122234449 0 -0.992501318
vn 0.122234449 0 -0.992501318
vn 0.355117798 0 -0.934821546
vn -0.122234449 0 -0.992501318
vn -0.355117738 0 -0.934821665
vn 0.122234456 0 -0.992501318
vn 0.355117798 0 -0.934821546
vn 0.566292644 0 -0.824204326
vn 0.122234456 0 -0.992501318
vn 0.355117798 0 -0.934821546
vn 0.566292703 0 -0.824204206
vn 0.749132991 0 -0.662419558
vn -0.566292703 0 -0.824204206
vn -0.122234456 0 -0.992501318
vn 0.355117738 0 -0.934821665
vn 0.566292703 0 -0.824204147
vn 0.74913317 0 -0.662419498
vn 0.886160612 0 -0.463378191
vn 0.566292703 0 -0.824204206
vn 0.355117738 0 -0.934821665
vn 0.74913317 0 -0.662419498
vn 0.886160672 0 -0.463378161
vn 0.97043407 0 -0.241366312
vn 0.74913317 0 -0.662419438
vn 0.886160672 0 -0.463378102
vn 0.97043407 0 -0.241366267
vn 1 0 0
vn 0.122234441 0 -0.992501318
vn 0.566292703 0 -0.824204206
vn 0.886160672 0 -0.463378102
vn 0.886160672 0 -0.463378042
vn 0.97043407 0 -0.241366237
vn 0.97043407 0 -0.241366237
vn 0.74913317 0 -0.662419438
vn 0.74913317 0 -0.662419498
vn 0.566292703 0 -0.824204147
vn 0.355117708 0 -0.934821665
vn 0.122234344 0 -0.992501318
vn 0.355117589 0 -0.934821665
vn 0.566292822 0 -0.824204087
vn 0.749133229 0 -0.662419438
vn 0.12223424 0 -0.992501318
vn 0.886160672 0 -0.463378161
vn -0.122234344 0 -0.992501318
vn -0.12223424 0 -0.992501318
vn -0.355117589 0 -0.934821665
vn 0.886160672 0 -0.463378161
vn 0.97043407 0 -0.241366252
vn -0.355117679 0 -0.934821665
vn 0.97043407 0 -0.241366237
vn 1 0 0
vn -0.566292703 0 -0.824204147
vn -0.566292822 0 -0.824204087
vn -0.74913317 0 -0.662419498
vn -0.749133229 0 -0.662419438
vn -0.886160672 0 -0.463378161
vn -0.97043407 0 -0.241366252
vn 0.97043407 0 -0.241366237
vn -0.97043407 0 -0.241366237
vn -1 0 0
vn -1 0 0
vn 1 0 0
vn 0.97043407 0 0.241366252
vn 1 0 0
vn 1 0 0
vn 0.97043407 0 0.241366237
vn 0.886160672 0 0.463378161
vn 0.886160672 0 0.463378161
vn 0.749133229 0 0.662419438
vn 0.97043407 0 0.241366237
vn 1 0 0
vn 0.74913317 0 0.662419498
vn 0.74913317 0 0.662419438
vn 0.566292822 0 0.824204087
vn 0.566292703 0 0.824204147
vn 0.355117589 0 0.934821665
vn 0.886160672 0 0.463378042
vn 0.97043407 0 0.241366267
vn 0.886160672 0 0.463378042
vn 1 0 0
vn 0.97043407 0 0.241366312
vn 0.97043407 0 0.241366237
vn 0.97043407 0 0.241366267
vn 0.886160612 0 0.463378191
vn 0.886160672 0 0.463378102
vn 0.886160672 0 0.463378161
vn 0.749132991 0 0.662419558
vn 0.74913317 0 0.662419498
vn 0.74913317 0 0.662419498
vn 0.566292644 0 0.824204326
vn 0.74913317 0 0.662419498
vn 0.566292703 0 0.824204206
vn 0.566292703 0 0.824204147
vn 0.355117798 0 0.934821546
vn 0.566292703 0 0.824204147
vn 0.355117798 0 0.934821546
vn 0.122234426 0 0.992501318
vn 0.355117798 0 0.934821546
vn 0.122234449 0 0.992501318
vn -0.122234426 0 0.992501318
vn 0.566292703 0 0.824204206
vn 0.355117768 0 0.934821546
vn 0.122234449 0 0.992501318
vn -0.122234449 0 0.992501318
vn -0.355117798 0 0.934821546
vn 0.355117679 0 0.934821665
vn 0.355117738 0 0.934821665
vn 0.122234449 0 0.992501318
vn 0.122234344 0 0.992501318
vn 0.12223424 0 0.992501318
vn -0.12223424 0 0.992501318
vn 0.122234456 0 0.992501318
vn -0.122234344 0 0.992501318
vn -0.355117589 0 0.934821665
vn -0.122234456 0 0.992501318
vn -0.355117708 0 0.934821665
vn -0.566292822 0 0.824204087
vn -0.122234441 0 0.992501318
vn -0.355117738 0 0.934821665
vn -0.122234456 0 0.992501318
vn -0.566292703 0 0.824204147
vn -0.749133229 0 0.662419438
vn -0.355117738 0 0.934821665
vn -0.355117798 0 0.934821546
vn -0.566292703 0 0.824204206
vn -0.566292703 0 0.824204206
vn -0.74913317 0 0.662419438
vn -0.74913317 0 0.662419498
vn -0.886160672 0 0.463378161
vn -0.74913317 0 0.662419438
vn -0.355117798 0 0.934821546
vn -0.566292644 0 0.824204326
vn -0.566292703 0 0.824204147
vn -0.566292703 0 0.824204206
vn -0.749132991 0 0.662419558
vn -0.886160672 0 0.463378161
vn -0.97043407 0 0.241366252
vn -0.886160672 0 0.463378042
vn -0.74913317 0 0.662419498
vn -0.74913317 0 0.662419498
vn -0.886160612 0 0.463378191
vn -0.97043407 0 0.241366237
vn -1 0 0
vn -1 0 0
vn -0.97043407 0 0.241366237
vn -1 0 0
vn -0.886160672 0 0.463378102
vn -0.886160672 0 0.463378161
vn -0.97043407 0 0.241366312
vn -0.886160672 0 0.463378102
vn -0.97043407 0 0.241366237
vn -1 0 0
vn -0.97043407 0 0.241366237
vn -1 0 0
vn -0.97043407 0 0.241366267
vn -1 0 0
vn -1 0 0
g submesh_0
usemtl submesh_0
f 1/1/1 2/2/2 3/3/3
f 1/1/1 4/4/4 2/2/2
f 5/5/5 4/4/4 1/1/1
f 2/2/2 4/4/4 6/6/6
f 2/2/2 6/6/6 7/7/7
f 5/5/5 8/8/8 4/4/4
f 9/9/9 8/8/8 5/5/5
f 7/7/7 6/6/6 10/10/10
f 7/7/7 10/10/10 11/11/11
f 4/4/4 12/12/12 6/6/6
f 4/4/4 8/8/8 12/12/12
f 9/9/9 13/13/13 8/8/8
f 14/14/14 13/13/13 9/9/9
f 15/15/15 10/10/10 6/6/6
f 15/15/15 6/6/6 12/12/12
f 11/11/11 10/10/10 16/16/16
f 16/16/16 10/10/10 15/15/15
f 11/11/11 16/16/16 17/17/17
f 8/8/8 18/18/18 12/12/12
f 8/8/8 13/13/13 18/18/18
f 14/14/14 19/19/19 13/13/13
f 20/20/20 19/19/19 14/14/14
f 12/12/12 21/21/21 15/15/15
f 12/12/12 18/18/18 21/21/21
f 15/15/15 21/21/21 22/22/22
f 13/13/13 23/23/23 18/18/18
f 13/13/13 19/19/19 23/23/23
f 24/24/24 21/21/21 18/18/18
f 22/22/22 21/21/21 24/24/24
f 24/24/24 18/18/18 23/23/23
f 20/20/20 25/25/25 19/19/19
f 26/26/26 25/25/25 20/20/20
f 19/19/19 27/27/27 23/23/23
f 19/19/19 25/25/25 27/27/27
f 26/26/26 28/28/28 25/25/25
f 29/29/29 28/28/28 26/26/26
f 15/15/15 22/22/22 30/30/30
f 22/22/22 31/31/31 30/30/30
f 16/16/16 15/15/15 30/30/30
f 31/31/31 16/16/16 30/30/30
f 23/23/23 32/32/32 24/24/24
f 23/23/23 27/27/27 32/32/32
f 25/25/25 33/33/33 27/27/27
f 25/25/25 28/28/28 33/33/33
f 29/29/29 34/34/34 28/28/28
f 35/35/35 34/34/34 29/29/29
f 36/36/36 32/32/32 27/27/27
f 36/36/36 27/27/27 33/33/33
f 24/24/24 32/32/32 37/37/37
f 37/37/37 32/32/32 36/36/36
f 28/28/28 38/38/38 33/33/33
f 28/28/28 34/34/34 38/38/38
f 35/35/35 39/39/39 34/34/34
f 40/40/40 39/39/39 35/35/35
f 41/41/41 36/36/36 33/33/33
f 41/41/41 33/33/33 38/38/38
f 34/34/34 42/42/42 38/38/38
f 34/34/34 39/39/39 42/42/42
f 40/40/40 43/43/43 39/39/39
f 44/44/44 43/43/43 40/40/40
f 24/24/24 37/37/37 45/45/45
f 22/22/22 24/24/24 45/45/45
f 46/46/46 36/36/36 41/41/41
f 37/37/37 36/36/36 46/46/46
f 38/38/38 42/42/42 47/47/47
f 38/38/38 47/47/47 41/41/41
f 39/39/39 48/48/48 42/42/42
f 39/39/39 43/43/43 48/48/48
f 44/44/44 49/49/49 43/43/43
f 50/50/50 49/49/49 44/44/44
f 51/51/51 47/47/47 42/42/42
f 51/51/51 42/42/42 48/48/48
f 41/41/41 47/47/47 52/52/52
f 52/52/52 47/47/47 51/51/51
f 43/43/43 53/53/53 48/48/48
f 43/43/43 49/49/49 53/53/53
f 50/50/50 54/54/54 49/49/49
f 55/55/55 54/54/54 50/50/50
f 56/56/56 51/51/51 48/48/48
f 56/56/56 48/48/48 53/53/53
f 49/49/49 57/57/57 53/53/53
f 49/49/49 54/54/54 57/57/57
f 55/55/55 58/58/58 54/54/54
f 59/59/59 58/58/58 55/55/55
f 41/41/41 52/52/52 60/60/60
f 46/46/46 41/41/41 60/60/60
f 61/61/61 51/51/51 56/56/56
f 52/52/52 51/51/51 61/61/61
f 53/53/53 57/57/57 62/62/62
f 53/53/53 62/62/62 56/56/56
f 56/56/56 62/62/62 63/63/63
f 54/54/54 64/64/64 57/57/57
f 54/54/54 58/58/58 64/64/64
f 65/65/65 62/62/62 57/57/57
f 63/63/63 62/62/62 65/65/65
f 65/65/65 57/57/57 64/64/64
f 61/61/61 56/56/56 66/66/66
f 56/56/56 63/63/63 66/66/66
f 67/67/67 61/61/61 66/66/66
f 63/63/63 67/67/67 66/66/66
f 68/68/68 52/52/52 61/61/61
f 67/67/67 68/68/68 61/61/61
f 60/60/60 52/52/52 69/69/69
f 68/68/68 69/69/69 52/52/52
f 60/60/60 69/69/69 70/70/70
f 70/70/70 46/46/46 60/60/60
f 71/71/71 69/69/69 68/68/68
f 70/70/70 69/69/69 71/71/71
f 71/71/71 68/68/68 72/72/72
f 73/73/73 72/72/72 68/68/68
f 73/73/73 68/68/68 67/67/67
f 70/70/70 71/71/71 74/74/74
f 67/67/67 75/75/75 73/73/73
f 70/70/70 76/76/76 46/46/46
f 74/74/74 76/76/76 70/70/70
f 74/74/74 77/77/77 76/76/76
f 76/76/76 37/37/37 46/46/46
f 78/78/78 76/76/76 77/77/77
f 67/67/67 79/79/79 75/75/75
f 80/80/80 75/75/75 79/79/79
f 63/63/63 79/79/79 67/67/67
f 76/76/76 81/81/81 37/37/37
f 78/78/78 81/81/81 76/76/76
f 45/45/45 37/37/37 81/81/81
f 80/80/80 79/79/79 82/82/82
f 82/82/82 79/79/79 63/63/63
f 83/83/83 80/80/80 82/82/82
f 84/84/84 81/81/81 78/78/78
f 45/45/45 81/81/81 84/84/84
f 84/84/84 78/78/78 85/85/85
f 84/84/84 22/22/22 45/45/45
f 85/85/85 86/86/86 84/84/84
f 84/84/84 86/86/86 22/22/22
f 85/85/85 87/87/87 86/86/86
f 22/22/22 86/86/86 31/31/31
f 31/31/31 86/86/86 87/87/87
f 31/31/31 87/87/87 88/88/88
f 89/89/89 31/31/31 88/88/88
f 82/82/82 63/63/63 90/90/90
f 63/63/63 65/65/65 90/90/90
f 89/89/89 91/91/91 31/31/31
f 31/31/31 91/91/91 16/16/16
f 17/17/17 16/16/16 91/91/91
f 17/17/17 91/91/91 92/92/92
f 92/92/92 91/91/91 89/89/89
f 92/92/92 89/89/89 93/93/93
f 94/94/94 82/82/82 90/90/90
f 83/83/83 82/82/82 94/94/94
f 94/94/94 95/95/95 83/83/83
f 90/90/90 65/65/65 96/96/96
f 96/96/96 65/65/65 64/64/64
f 94/94/94 90/90/90 97/97/97
f 90/90/90 96/96/96 97/97/97
f 94/94/94 98/98/98 95/95/95
f 97/97/97 98/98/98 94/94/94
f 95/95/95 98/98/98 99/99/99
f 95/95/95 99/99/99 100/100/100
f 99/99/99 101/101/101 100/100/100
f 97/97/97 102/102/102 98/98/98
f 96/96/96 102/102/102 97/97/97
f 99/99/99 98/98/98 102/102/102
f 96/96/96 64/64/64 103/103/103
f 58/58/58 103/103/103 64/64/64
f 99/99/99 104/104/104 101/101/101
f 105/105/105 104/104/104 99/99/99
f 106/106/106 101/101/101 104/104/104
f 106/106/106 104/104/104 107/107/107
f 107/107/107 104/104/104 105/105/105
f 107/107/107 108/108/108 106/106/106
f 99/99/99 102/102/102 109/109/109
f 105/105/105 99/99/99 109/109/109
f 96/96/96 110/110/110 102/102/102
f 103/103/103 110/110/110 96/96/96
f 102/102/102 111/111/111 109/109/109
f 102/102/102 110/110/110 111/111/111
f 111/111/111 105/105/105 109/109/109
f 58/58/58 112/112/112 103/103/103
f 59/59/59 112/112/112 58/58/58
f 113/113/113 112/112/112 59/59/59
f 103/103/103 114/114/114 110/110/110
f 112/112/112 114/114/114 103/103/103
f 111/111/111 110/110/110 114/114/114
f 113/113/113 115/115/115 112/112/112
f 112/112/112 115/115/115 114/114/114
f 116/116/116 115/115/115 113/113/113
f 111/111/111 114/114/114 117/117/117
f 115/115/115 117/117/117 114/114/114
f 116/116/116 118/118/118 115/115/115
f 115/115/115 118/118/118 117/117/117
f 119/119/119 118/118/118 116/116/116
f 117/117/117 120/120/120 111/111/111
f 111/111/111 120/120/120 105/105/105
f 119/119/119 121/121/121 118/118/118
f 122/122/122 121/121/121 119/119/119
f 118/118/118 123/123/123 117/117/117
f 117/117/117 123/123/123 120/120/120
f 118/118/118 121/121/121 123/123/123
f 105/105/105 120/120/120 124/124/124
f 124/124/124 120/120/120 123/123/123
f 122/122/122 125/125/125 121/121/121
f 126/126/126 125/125/125 122/122/122
f 121/121/121 127/127/127 123/123/123
f 124/124/124 123/123/123 127/127/127
f 121/121/121 125/125/125 127/127/127
f 126/126/126 128/128/128 125/125/125
f 129/129/129 128/128/128 126/126/126
f 125/125/125 130/130/130 127/127/127
f 125/125/125 128/128/128 130/130/130
f 129/129/129 131/131/131 128/128/128
f 132/132/132 131/131/131 129/129/129
f 105/105/105 124/124/124 133/133/133
f 107/107/107 105/105/105 133/133/133
f 127/127/127 134/134/134 124/124/124
f 127/127/127 130/130/130 134/134/134
f 128/128/128 135/135/135 130/130/130
f 128/128/128 131/131/131 135/135/135
f 132/132/132 136/136/136 131/131/131
f 137/137/137 136/136/136 132/132/132
f 133/133/133 138/138/138 107/107/107
f 107/107/107 138/138/138 108/108/108
f 124/124/124 139/139/139 133/133/133
f 124/124/124 134/134/134 139/139/139
f 133/133/133 139/139/139 138/138/138
f 140/140/140 134/134/134 130/130/130
f 140/140/140 130/130/130 135/135/135
f 139/139/139 134/134/134 140/140/140
f 108/108/108 138/138/138 141/141/141
f 141/141/141 138/138/138 139/139/139
f 108/108/108 141/141/141 142/142/142
f 143/143/143 142/142/142 141/141/141
f 139/139/139 140/140/140 144/144/144
f 141/141/141 139/139/139 144/144/144
f 143/143/143 141/141/141 145/145/145
f 145/145/145 141/141/141 144/144/144
f 145/145/145 146/146/146 143/143/143
f 147/147/147 140/140/140 135/135/135
f 144/144/144 140/140/140 147/147/147
f 145/145/145 148/148/148 146/146/146
f 148/148/148 149/149/149 146/146/146
f 145/145/145 144/144/144 150/150/150
f 144/144/144 147/147/147 150/150/150
f 151/151/151 145/145/145 150/150/150
f 151/151/151 148/148/148 145/145/145
f 147/147/147 151/151/151 150/150/150
f 147/147/147 135/135/135 152/152/152
f 131/131/131 152/152/152 135/135/135
f 131/131/131 136/136/136 152/152/152
f 148/148/148 153/153/153 149/149/149
f 153/153/153 154/154/154 149/149/149
f 152/152/152 155/155/155 147/147/147
f 147/147/147 155/155/155 151/151/151
f 136/136/136 156/156/156 152/152/152
f 152/152/152 156/156/156 155/155/155
f 157/157/157 148/148/148 151/151/151
f 157/157/157 153/153/153 148/148/148
f 151/151/151 155/155/155 158/158/158
f 158/158/158 155/155/155 156/156/156
f 151/151/151 158/158/158 157/157/157
f 157/157/157 158/158/158 159/159/159
f 153/153/153 160/160/160 154/154/154
f 160/160/160 161/161/161 154/154/154
f 162/162/162 153/153/153 157/157/157
f 157/157/157 159/159/159 162/162/162
f 162/162/162 160/160/160 153/153/153
f 136/136/136 163/163/163 156/156/156
f 137/137/137 163/163/163 136/136/136
f 164/164/164 163/163/163 137/137/137
f 158/158/158 156/156/156 165/165/165
f 163/163/163 165/165/165 156/156/156
f 159/159/159 158/158/158 165/165/165
f 164/164/164 166/166/166 163/163/163
f 163/163/163 166/166/166 165/165/165
f 167/167/167 166/166/166 164/164/164
f 160/160/160 168/168/168 161/161/161
f 168/168/168 169/169/169 161/161/161
f 170/170/170 160/160/160 162/162/162
f 159/159/159 170/170/170 162/162/162
f 170/170/170 168/168/168 160/160/160
f 166/166/166 171/171/171 165/165/165
f 159/159/159 165/165/165 171/171/171
f 167/167/167 172/172/172 166/166/166
f 166/166/166 172/172/172 171/171/171
f 173/173/173 172/172/172 167/167/167
f 168/168/168 174/174/174 169/169/169
f 175/175/175 169/169/169 174/174/174
f 175/175/175 174/174/174 176/176/176
f 177/177/177 174/174/174 168/168/168
f 176/176/176 174/174/174 177/177/177
f 177/177/177 168/168/168 170/170/170
f 176/176/176 177/177/177 178/178/178
f 179/179/179 159/159/159 171/171/171
f 172/172/172 179/179/179 171/171/171
f 173/173/173 180/180/180 172/172/172
f 172/172/172 180/180/180 179/179/179
f 181/181/181 180/180/180 173/173/173
f 159/159/159 182/182/182 170/170/170
f 182/182/182 177/177/177 170/170/170
f 179/179/179 182/182/182 159/159/159
f 178/178/178 177/177/177 183/183/183
f 182/182/182 183/183/183 177/177/177
f 178/178/178 183/183/183 184/184/184
f 185/185/185 182/182/182 179/179/179
f 185/185/185 183/183/183 182/182/182
f 184/184/184 183/183/183 185/185/185
f 180/180/180 185/185/185 179/179/179
f 184/184/184 185/185/185 186/186/186
f 180/180/180 187/187/187 185/185/185
f 186/186/186 185/185/185 187/187/187
f 181/181/181 187/187/187 180/180/180
f 186/186/186 187/187/187 188/188/188
f 188/188/188 187/187/187 181/181/181
f 188/188/188 181/181/181 189/189/189
