o disk_02
v 0.260367393 -0.618459582 0.00939965248
v 0.257757187 -0.633465409 0.0748224258
v 0.396993637 -0.542930961 0.0446410179
v 0.403054237 -0.525816262 -0.0398154259
v 0.536230087 -0.452396274 0.01445961
v 0.257190704 -0.605020523 -0.0567269325
v 0.545742035 -0.433172822 -0.0890302658
v 0.67546463 -0.361861706 -0.0157213211
v 0.401435852 -0.509621501 -0.124043941
v 0.245477676 -0.593837857 -0.123284817
v 0.688428879 -0.340529561 -0.138245583
v 0.81470108 -0.271327078 -0.0459032059
v 0.388490677 -0.494941592 -0.207435608
v 0.223301888 -0.585592628 -0.187318325
v 0.545681 -0.414222598 -0.191361427
v 0.831115723 -0.247886062 -0.187459946
v 0.953937531 -0.18079257 -0.076084137
v 0.361602783 -0.482902884 -0.286607742
v 0.191581726 -0.579419971 -0.245141506
v 0.531503677 -0.396046042 -0.291585922
v 0.689928055 -0.318823695 -0.25867939
v 0.973800659 -0.155242801 -0.236675262
v 1.09317398 -0.0902577639 -0.106266022
v 0.322076797 -0.47368753 -0.358275414
v 0.148635387 -0.57379663 -0.292481422
v 0.834173203 -0.223425269 -0.325996399
v 0.499902725 -0.380214095 -0.385897636
v 0.674516678 -0.297150016 -0.375736237
v 1.11648941 -0.0625990629 -0.285890579
v 1.23241043 0.000276684761 -0.136447906
v 1.25917435 0.030044198 -0.335105896
v 0.978416443 -0.128025413 -0.393314362
v 1.12266541 -0.0326274633 -0.460632324
v 1.26691055 0.0627714396 -0.52794838
v 0.817529678 -0.198253989 -0.459886551
v 0.638202667 -0.277524352 -0.485186577
v 1.10355377 -0.000460982323 -0.62818718
v 1.24656677 0.0984350443 -0.712337494
v 0.960540771 -0.0993570089 -0.544036865
v 1.0531044 0.0305429697 -0.783054352
v 1.19140625 0.133232713 -0.8823452
v 0.776504517 -0.174834609 -0.584476471
v 0.914804459 -0.072144866 -0.683765411
v 0.452571869 -0.367954612 -0.471408844
v 0.97454834 0.0549741983 -0.923944473
v 1.1050415 0.16070807 -1.03707695
v 0.844053268 -0.0507577658 -0.810810089
v 0.583065033 -0.262221694 -0.584542274
v 0.713560104 -0.15648973 -0.697675705
v 0.268109322 -0.466038108 -0.417424202
v 0.865476608 0.0727545023 -1.04214096
v 0.984951019 0.180513978 -1.16708374
v 0.83646965 0.194960237 -1.26435089
v 0.746002197 -0.0350049734 -0.917198181
v 0.7305336 0.086096406 -1.13043404
v 0.667913437 0.199999452 -1.32533646
v 0.626529694 -0.142762542 -0.792253494
v 0.387582779 -0.358279586 -0.542367935
v 0.507055283 -0.25052011 -0.667310715
v 0.577157974 0.0912462473 -1.1858139
v 0.488178253 0.195158601 -1.3541069
v 0.624599457 -0.0227693319 -0.996519089
v 0.518663406 -0.131633162 -0.862602234
v 0.412729263 -0.2404989 -0.728685379
v 0.306794167 -0.349362731 -0.594769478
v 0.413497925 0.0875459909 -1.2121315
v 0.299643517 0.186133027 -1.34647369
v 0.486402512 -0.0175069571 -1.04629135
v 0.395646095 -0.126262069 -0.906766891
v 0.242115021 0.0796762705 -1.20577431
v 0.107619286 0.176909089 -1.30958366
v 0.338819504 -0.0200628042 -1.07015419
v 0.304890633 -0.235015273 -0.767244339
v 0.20085907 -0.458227515 -0.460852623
v 0.0949234962 -0.567092299 -0.326936722
v 0.067940712 0.0711313486 -1.1731987
v -0.086710155 0.16851294 -1.25272179
v -0.10801582 0.0629373789 -1.12274361
v 0.184586525 -0.0267843008 -1.06507492
v 0.264141083 -0.127675414 -0.928178787
v 0.0282626152 -0.0346502066 -1.03681564
v -0.129321456 -0.0426362753 -0.992767334
v 0.123378754 -0.452520728 -0.48819828
v 0.032623291 -0.561273932 -0.348675728
v 0.127058029 -0.133241057 -0.924375534
v -0.0114154816 -0.140431762 -0.900432587
v -0.150627255 -0.148211837 -0.862789154
v 0.189461708 -0.235286117 -0.786201477
v -0.0510936975 -0.246213317 -0.764048576
v -0.171932936 -0.253787398 -0.732812881
v 0.0695295334 -0.239699721 -0.783676147
v 0.21413517 -0.343768477 -0.627721786
v 0.11478281 -0.342898726 -0.644225121
v -0.0907718837 -0.351992965 -0.627664566
v -0.193238497 -0.359361053 -0.602835655
v 0.012001276 -0.346158385 -0.642975807
v 0.0401039124 -0.450509429 -0.502248764
v -0.0345749855 -0.558121085 -0.360272884
v -0.045527339 -0.452617049 -0.502276421
v -0.10305582 -0.559075713 -0.361577034
v -0.13045013 -0.45777452 -0.491281509
v -0.214544296 -0.464936614 -0.472858429
v -0.170128345 -0.563555121 -0.354897499
v -0.235849857 -0.570512176 -0.342880726
v -0.379883766 -0.570209384 0.18555975
v -0.424341202 -0.593353629 0.140838623
v -0.500247955 -0.480063796 0.240325928
v -0.444813728 -0.451999068 0.300341606
v -0.576154709 -0.366774917 0.339813232
v -0.330849648 -0.549377799 0.22709465
v -0.50974369 -0.333789229 0.41512394
v -0.652061462 -0.253485084 0.439299583
v -0.384100914 -0.426009536 0.355093956
v -0.275491714 -0.531979918 0.263495445
v -0.574674606 -0.215579391 0.529905319
v -0.727970123 -0.140195251 0.538787842
v -0.315958023 -0.403297782 0.401762009
v -0.214533091 -0.519334197 0.291498661
v -0.43735218 -0.302642226 0.483094215
v -0.639604568 -0.0973695517 0.644687653
v -0.803876877 -0.0269063711 0.638275146
v -0.240927696 -0.385773063 0.436396599
v -0.151201725 -0.510906577 0.308988571
v -0.356424332 -0.274615645 0.540028572
v -0.490602493 -0.179273009 0.611093521
v -0.704534531 0.0208402872 0.759469986
v -0.87978363 0.0863844156 0.737762451
v -0.162251592 -0.373823524 0.457627296
v -0.087277025 -0.505977988 0.311522961
v -0.54385376 -0.0559037924 0.739093781
v -0.267322063 -0.252211928 0.58129406
v -0.39689064 -0.145932555 0.678295135
v -0.769464493 0.139050126 0.874252319
v -0.955690384 0.199673295 0.837247849
v -0.834394455 0.257261872 0.989034653
v -0.597105026 0.0674635172 0.86709404
v -0.650356293 0.190832734 0.995092392
v -0.703607559 0.314200044 1.12309265
v -0.437356949 -0.017249465 0.816562653
v -0.293716431 -0.118651748 0.726192474
v -0.51829052 0.240114808 1.09309578
v -0.558756828 0.368795991 1.23136139
v -0.477824211 0.111431718 0.954828262
v -0.372900009 0.282030702 1.16088486
v -0.3992939 0.415590882 1.30578232
v -0.320110798 0.014908433 0.871089935
v -0.346505165 0.148470521 1.0159874
v -0.173301458 -0.236741424 0.606266975
v -0.217501163 0.311590791 1.20082474
v -0.228550911 0.448671937 1.3494606
v -0.206451178 0.17450583 1.05218315
v -0.184351444 -0.09965837 0.754905701
v -0.195401192 0.0374246836 0.90354538
v -0.0821492672 -0.36710012 0.460463524
v -0.0565104485 0.32728827 1.20516586
v -0.0513826609 0.466166139 1.3541069
v 0.122824669 0.470152497 1.31733704
v -0.061638236 0.188410401 1.05622673
v 0.101743698 0.331106782 1.17163467
v 0.285591125 0.457457185 1.24316406
v -0.0667660236 0.0495325327 0.90728569
v -0.0770214796 -0.228223205 0.609404564
v -0.0718937516 -0.089345336 0.75834465
v 0.249783516 0.320093751 1.10395432
v 0.433448792 0.429449677 1.14064789
v 0.0806627274 0.192057252 1.02593422
v 0.0595812798 0.0530115366 0.880231857
v 0.038500309 -0.0860341787 0.734531403
v 0.0174193382 -0.225081801 0.588829041
v 0.384513855 0.295302033 1.01055527
v 0.561870575 0.39155829 1.00739288
v 0.213974953 0.182730317 0.964744568
v 0.178166389 0.0453687906 0.825532913
v 0.501670837 0.26125586 0.889764786
v 0.67219162 0.349358201 0.851291656
v 0.335578918 0.161156297 0.880460739
v 0.142357826 -0.0919946432 0.686323166
v -0.00366187096 -0.36412847 0.443127632
v -0.0247428417 -0.503176093 0.297426224
v 0.60235405 0.222910523 0.748828888
v 0.770120621 0.305172563 0.679462433
v 0.691738129 0.182451844 0.594079971
v 0.441469193 0.130951524 0.772138596
v 0.286643982 0.0270086527 0.750368118
v 0.532518387 0.0964609385 0.646368027
v 0.613357544 0.0597292185 0.508699417
v 0.0707411766 -0.366720557 0.40790081
v 0.0349326134 -0.504083991 0.268690109
v 0.381267548 0.000647187233 0.654512405
v 0.462682724 -0.0299867392 0.543907166
v 0.534975052 -0.0629914999 0.423318863
v 0.237708092 -0.107138991 0.620275497
v 0.392846107 -0.15643537 0.441448212
v 0.45659256 -0.185713172 0.337938309
v 0.321065903 -0.129655242 0.536884308
v 0.10654974 -0.229358077 0.547111511
v 0.188773155 -0.241286635 0.490182877
v 0.323009491 -0.282883048 0.338986397
v 0.378211021 -0.30843389 0.252556801
v 0.260865211 -0.259959579 0.419257164
v 0.139837742 -0.375435233 0.360089302
v 0.0909023285 -0.509582877 0.229996681
v 0.200663567 -0.390262961 0.30163002
v 0.140462399 -0.520566821 0.184003353
v 0.253172874 -0.409331679 0.236526489
v 0.299829483 -0.431155562 0.167176247
v 0.183336258 -0.535779357 0.134065628
v 0.221446991 -0.553876758 0.0817952156
v -0.204336166 -0.583012938 -0.356082916
v -0.153470039 -0.616381049 -0.384566307
v -0.212909937 -0.502623916 -0.494203568
v -0.280513763 -0.461313605 -0.459769249
v -0.272349358 -0.388865829 -0.603839874
v -0.253662109 -0.551728606 -0.322147369
v -0.35669136 -0.339614272 -0.563454628
v -0.331789494 -0.275107741 -0.713477135
v -0.344738483 -0.422004104 -0.418667793
v -0.300195217 -0.52364099 -0.280457497
v -0.432868958 -0.217915893 -0.667140961
v -0.391228676 -0.161351562 -0.823114395
v -0.435814857 -0.292279601 -0.515187263
v -0.403611183 -0.385939956 -0.367967606
v -0.509046555 -0.0962156057 -0.77082634
v -0.450669289 -0.0475934744 -0.932750702
v -0.526890755 -0.162555099 -0.611707687
v -0.585223198 0.0254827738 -0.874513626
v -0.510108948 0.0661646128 -1.04238892
v -0.453490257 -0.355520606 -0.306951523
v -0.340816975 -0.500511527 -0.230709076
v -0.507026672 -0.248237967 -0.455476761
v -0.617966652 -0.0328325033 -0.708227158
v -0.661401749 0.147181153 -0.978199005
v -0.569548607 0.1799227 -1.15202522
v -0.737579346 0.26888144 -1.08188629
v -0.709043503 0.0968919992 -0.804748535
v -0.8001194 0.226616502 -0.901268005
v -0.891195297 0.356341004 -0.997787476
v -0.610443115 -0.110537887 -0.542985916
v -0.566164017 -0.210529685 -0.38319397
v -0.713859558 0.0271631479 -0.630496979
v -0.920690536 0.302567124 -0.805515289
v -1.02410698 0.440268159 -0.893024445
v -1.12952995 0.514423966 -0.764404297
v -0.817274094 0.16486609 -0.718006134
v -1.01685715 0.369433045 -0.688163757
v -1.21042252 0.572933793 -0.615447998
v -0.678836823 -0.065538764 -0.459436417
v -0.904184341 0.224442124 -0.61192131
v -1.09073448 0.422164559 -0.552593231
v -1.25787735 0.612403512 -0.448394775
v -0.791509628 0.079452157 -0.535678864
v -0.97104454 0.271395326 -0.489738464
v -1.13400078 0.457849145 -0.400810242
v -1.26691055 0.633465409 -0.271785736
v -0.851356506 0.120626092 -0.426885605
v -0.731666565 -0.0301431417 -0.364030838
v -1.14205551 0.47716105 -0.240356445
v -1.23963165 0.632409573 -0.0945549011
v -1.01012421 0.303295732 -0.353225708
v -1.11696053 0.476703048 -0.0791511536
v -1.18361282 0.61119473 0.0774002075
v -0.886247635 0.148741364 -0.305643082
v -1.01720238 0.32085669 -0.208927155
v -0.611978531 -0.180912375 -0.301177979
v -1.06582642 0.458092332 0.0774688721
v -1.0946331 0.574344277 0.239906311
v -0.762371063 -0.00581252575 -0.258058548
v -0.994287491 0.320996523 -0.0637435913
v -0.892347336 0.164552331 -0.177499771
v -0.492289543 -0.331681132 -0.238324165
v -0.372601509 -0.482450366 -0.175470352
v -0.985319138 0.425075173 0.225467682
v -0.97977829 0.528419137 0.391628265
v -0.638494492 -0.160366893 -0.210474014
v -0.51461792 -0.314920783 -0.162890434
v -0.390741348 -0.46947515 -0.115306854
v -0.948038101 0.304989934 0.0775413513
v -0.88193512 0.38350451 0.363506317
v -0.846990585 0.477226853 0.535900116
v -0.762746811 0.336889863 0.494632721
v -0.767492294 0.00824773312 -0.146072388
v -0.871614456 0.165290058 -0.0483398438
v -0.517785072 -0.304361224 -0.0832157135
v -0.392930984 -0.460665584 -0.0517873764
v -0.64263916 -0.148056626 -0.114643097
v -0.784093857 0.238588929 0.335382462
v -0.678503036 0.196551919 0.453369141
v -0.748941422 0.00958353281 -0.0329341888
v -0.830249786 0.151887059 0.0776100159
v -0.503594398 -0.301829457 -0.00212478638
v -0.380921364 -0.457535982 0.0132799149
v -0.626268387 -0.146122932 -0.0175304413
v -0.476884842 -0.307419896 0.0778226852
v -0.359097004 -0.460522294 0.0778932571
v -0.712461472 -0.00121510029 0.0776805878
v -0.594673157 -0.154317498 0.0777511597
v -0.876005173 0.275807023 0.211025238
v -0.766689301 0.126538396 0.196582794
v -0.438745499 -0.321267009 0.153259277
v -0.32943058 -0.470535636 0.138817787
v -0.548060417 -0.171998382 0.167701721
v -0.657375336 -0.0227302313 0.182142258
v -0.686250687 0.0936743021 0.307260513
v -0.594260216 0.0562158823 0.412103653
v -0.588407516 -0.0512412786 0.279138565
v -0.510017395 -0.0841211081 0.370840073
v -0.4905653 -0.196156859 0.251016617
v -0.425773621 -0.224458098 0.329574585
v -0.39272213 -0.341071963 0.222894669
v -0.3415308 -0.364795089 0.288310051
v -0.294879913 -0.485987067 0.194772243
v -0.257287502 -0.505131125 0.24704504
vt 0.083411932 -0.00170820951
vt 0.000505417585 -0.00170820951
vt 0.000505417585 0.141493917
vt 0.083411932 0.141493917
vt 0.000505417585 0.284225017
vt 0.166789502 -0.00170820951
vt 0.083411932 0.284225017
vt 0.000505417585 0.427898228
vt 0.166789502 0.141493917
vt 0.249696016 -0.00170820951
vt 0.083411932 0.427898228
vt 0.000505417585 0.571100533
vt 0.249696016 0.141493917
vt 0.332602531 -0.00170820951
vt 0.166789502 0.284225017
vt 0.083411932 0.571100533
vt 0.000505417585 0.714067101
vt 0.332602531 0.141493917
vt 0.415509045 -0.00170820951
vt 0.249696016 0.284225017
vt 0.166789502 0.427898228
vt 0.083411932 0.714067101
vt 0.000505417585 0.857504845
vt 0.415509045 0.141493917
vt 0.49841553 -0.00170820951
vt 0.166789502 0.571100533
vt 0.332602531 0.284225017
vt 0.249696016 0.427898228
vt 0.083411932 0.857504845
vt 0.000505417585 1.00064802
vt 0.083411932 1.00064802
vt 0.166789502 0.714067101
vt 0.166789502 0.857504845
vt 0.166789502 1.00064802
vt 0.249696016 0.571100533
vt 0.332602531 0.427898228
vt 0.249696016 0.857504845
vt 0.249696016 1.00064802
vt 0.249696016 0.714067101
vt 0.332602531 0.857504845
vt 0.332602531 1.00064802
vt 0.332602531 0.571100533
vt 0.332602531 0.714067101
vt 0.415509045 0.284225017
vt 0.415509045 0.857504845
vt 0.415509045 1.00064802
vt 0.415509045 0.714067101
vt 0.415509045 0.427898228
vt 0.415509045 0.571100533
vt 0.49841553 0.141493917
vt 0.49841553 0.857504845
vt 0.49841553 1.00064802
vt 0.582264185 1.00064802
vt 0.49841553 0.714067101
vt 0.582264185 0.857504845
vt 0.66517067 1.00064802
vt 0.49841553 0.571100533
vt 0.49841553 0.284225017
vt 0.49841553 0.427898228
vt 0.66517067 0.857504845
vt 0.748077154 1.00064802
vt 0.582264185 0.714067101
vt 0.582264185 0.571100533
vt 0.582264185 0.427898228
vt 0.582264185 0.284225017
vt 0.748077154 0.857504845
vt 0.830983758 1.00064802
vt 0.66517067 0.714067101
vt 0.66517067 0.571100533
vt 0.830983758 0.857504845
vt 0.913890243 1.00064802
vt 0.748077154 0.714067101
vt 0.66517067 0.427898228
vt 0.582264185 0.141493917
vt 0.582264185 -0.00170820951
vt 0.913890243 0.857504845
vt 0.997738838 1.00064802
vt 0.997738838 0.857504845
vt 0.830983758 0.714067101
vt 0.748077154 0.571100533
vt 0.913890243 0.714067101
vt 0.997738838 0.714067101
vt 0.66517067 0.141493917
vt 0.66517067 -0.00170820951
vt 0.830983758 0.571100533
vt 0.913890243 0.571100533
vt 0.997738838 0.571100533
vt 0.748077154 0.427898228
vt 0.913890243 0.427898228
vt 0.997738838 0.427898228
vt 0.830983758 0.427898228
vt 0.66517067 0.284225017
vt 0.748077154 0.284225017
vt 0.913890243 0.284225017
vt 0.997738838 0.284225017
vt 0.830983758 0.284225017
vt 0.748077154 0.141493917
vt 0.748077154 -0.00170820951
vt 0.830983758 0.141493917
vt 0.830983758 -0.00170820951
vt 0.913890243 0.141493917
vt 0.997738838 0.141493917
vt 0.913890243 -0.00170820951
vt 0.997738838 -0.00170820951
vt -0.468893975 0.22803022
vt -0.551800489 0.22803022
vt -0.551800489 0.371232361
vt -0.468893975 0.371232361
vt -0.551800489 0.514434457
vt -0.38598749 0.22803022
vt -0.468893975 0.514434457
vt -0.551800489 0.657636702
vt -0.38598749 0.371232361
vt -0.303080976 0.22803022
vt -0.468893975 0.657636702
vt -0.551800489 0.80272305
vt -0.303080976 0.371232361
vt -0.220174462 0.22803022
vt -0.38598749 0.514434457
vt -0.468893975 0.80272305
vt -0.551800489 0.944983125
vt -0.220174462 0.371232361
vt -0.136325806 0.22803022
vt -0.303080976 0.514434457
vt -0.38598749 0.657636702
vt -0.468893975 0.944983125
vt -0.551800489 1.08818531
vt -0.136325806 0.371232361
vt -0.0534193218 0.22803022
vt -0.38598749 0.80272305
vt -0.220174462 0.514434457
vt -0.303080976 0.657636702
vt -0.468893975 1.08818531
vt -0.551800489 1.2313875
vt -0.468893975 1.2313875
vt -0.38598749 0.944983125
vt -0.38598749 1.08818531
vt -0.38598749 1.2313875
vt -0.303080976 0.80272305
vt -0.220174462 0.657636702
vt -0.303080976 1.08818531
vt -0.303080976 1.2313875
vt -0.303080976 0.944983125
vt -0.220174462 1.08818531
vt -0.220174462 1.2313875
vt -0.220174462 0.80272305
vt -0.220174462 0.944983125
vt -0.136325806 0.514434457
vt -0.136325806 1.08818531
vt -0.136325806 1.2313875
vt -0.136325806 0.944983125
vt -0.136325806 0.657636702
vt -0.136325806 0.80272305
vt -0.0534193218 0.371232361
vt -0.0534193218 1.08818531
vt -0.0534193218 1.2313875
vt 0.0294871628 1.2313875
vt -0.0534193218 0.944983125
vt 0.0294871628 1.08818531
vt 0.112393707 1.2313875
vt -0.0534193218 0.80272305
vt -0.0534193218 0.514434457
vt -0.0534193218 0.657636702
vt 0.112393707 1.08818531
vt 0.195300311 1.2313875
vt 0.0294871628 0.944983125
vt 0.0294871628 0.80272305
vt 0.0294871628 0.657636702
vt 0.0294871628 0.514434457
vt 0.195300311 1.08818531
vt 0.279148906 1.2313875
vt 0.112393707 0.944983125
vt 0.112393707 0.80272305
vt 0.279148906 1.08818531
vt 0.362055391 1.2313875
vt 0.195300311 0.944983125
vt 0.112393707 0.657636702
vt 0.0294871628 0.371232361
vt 0.0294871628 0.22803022
vt 0.362055391 1.08818531
vt 0.444961876 1.2313875
vt 0.444961876 1.08818531
vt 0.279148906 0.944983125
vt 0.195300311 0.80272305
vt 0.362055391 0.944983125
vt 0.444961876 0.944983125
vt 0.112393707 0.371232361
vt 0.112393707 0.22803022
vt 0.279148906 0.80272305
vt 0.362055391 0.80272305
vt 0.444961876 0.80272305
vt 0.195300311 0.657636702
vt 0.362055391 0.657636702
vt 0.444961876 0.657636702
vt 0.279148906 0.657636702
vt 0.112393707 0.514434457
vt 0.195300311 0.514434457
vt 0.362055391 0.514434457
vt 0.444961876 0.514434457
vt 0.279148906 0.514434457
vt 0.195300311 0.371232361
vt 0.195300311 0.22803022
vt 0.279148906 0.371232361
vt 0.279148906 0.22803022
vt 0.362055391 0.371232361
vt 0.444961876 0.371232361
vt 0.362055391 0.22803022
vt 0.444961876 0.22803022
vt 0.594269633 0.504891932
vt 0.511845946 0.504891932
vt 0.511845946 0.64726001
vt 0.594269633 0.64726001
vt 0.511845946 0.789627969
vt 0.677629828 0.504891932
vt 0.594269633 0.789627969
vt 0.511845946 0.931995928
vt 0.677629828 0.64726001
vt 0.760053456 0.504891932
vt 0.594269633 0.931995928
vt 0.511845946 1.07436407
vt 0.677629828 0.789627969
vt 0.760053456 0.64726001
vt 0.594269633 1.07436407
vt 0.511845946 1.21673214
vt 0.677629828 0.931995928
vt 0.594269633 1.21673214
vt 0.511845946 1.35909998
vt 0.842477024 0.64726001
vt 0.842477024 0.504891932
vt 0.760053456 0.789627969
vt 0.677629828 1.07436407
vt 0.594269633 1.35909998
vt 0.511845946 1.50146806
vt 0.594269633 1.50146806
vt 0.677629828 1.21673214
vt 0.677629828 1.35909998
vt 0.677629828 1.50146806
vt 0.760053456 0.931995928
vt 0.842477024 0.789627969
vt 0.760053456 1.07436407
vt 0.760053456 1.35909998
vt 0.760053456 1.50146806
vt 0.842477024 1.50146806
vt 0.760053456 1.21673214
vt 0.842477024 1.35909998
vt 0.924900651 1.50146806
vt 0.842477024 0.931995928
vt 0.842477024 1.21673214
vt 0.924900651 1.35909998
vt 1.00638759 1.50146806
vt 0.842477024 1.07436407
vt 0.924900651 1.21673214
vt 1.00638759 1.35909998
vt 1.09068441 1.50146806
vt 0.924900651 1.07436407
vt 0.924900651 0.931995928
vt 1.09068441 1.35909998
vt 1.17310798 1.50146806
vt 1.00638759 1.21673214
vt 1.17310798 1.35909998
vt 1.25553167 1.50146806
vt 1.00638759 1.07436407
vt 1.09068441 1.21673214
vt 0.924900651 0.789627969
vt 1.25553167 1.35909998
vt 1.33795524 1.50146806
vt 1.00638759 0.931995928
vt 1.17310798 1.21673214
vt 1.09068441 1.07436407
vt 0.924900651 0.64726001
vt 0.924900651 0.504891932
vt 1.33795524 1.35909998
vt 1.4203788 1.50146806
vt 1.00638759 0.789627969
vt 1.00638759 0.64726001
vt 1.00638759 0.504891932
vt 1.25553167 1.21673214
vt 1.4203788 1.35909998
vt 1.50280237 1.50146806
vt 1.50280237 1.35909998
vt 1.09068441 0.931995928
vt 1.17310798 1.07436407
vt 1.09068441 0.64726001
vt 1.09068441 0.504891932
vt 1.09068441 0.789627969
vt 1.4203788 1.21673214
vt 1.50280237 1.21673214
vt 1.17310798 0.931995928
vt 1.25553167 1.07436407
vt 1.17310798 0.64726001
vt 1.17310798 0.504891932
vt 1.17310798 0.789627969
vt 1.25553167 0.64726001
vt 1.25553167 0.504891932
vt 1.25553167 0.931995928
vt 1.25553167 0.789627969
vt 1.33795524 1.21673214
vt 1.33795524 1.07436407
vt 1.33795524 0.64726001
vt 1.33795524 0.504891932
vt 1.33795524 0.789627969
vt 1.33795524 0.931995928
vt 1.4203788 1.07436407
vt 1.50280237 1.07436407
vt 1.4203788 0.931995928
vt 1.50280237 0.931995928
vt 1.4203788 0.789627969
vt 1.50280237 0.789627969
vt 1.4203788 0.64726001
vt 1.50280237 0.64726001
vt 1.4203788 0.504891932
vt 1.50280237 0.504891932
vn -0.501874387 0.849629879 0.162022457
vn -0.508983731 0.848306119 0.1459876
vn -0.509555161 0.849258542 0.138251424
vn -0.499138057 0.852858067 0.153278664
vn -0.517358422 0.849099576 0.106631152
vn -0.477062434 0.855558276 0.201075926
vn -0.506685615 0.852331579 0.129617274
vn -0.523918629 0.846935987 0.0906024948
vn -0.477805734 0.856891334 0.193491623
vn -0.45445314 0.857533336 0.241057768
vn -0.51108861 0.85181427 0.11489591
vn -0.524602771 0.84804213 0.0749432966
vn -0.447276622 0.858929515 0.249366656
vn -0.422417015 0.856677532 0.296086699
vn -0.478522509 0.858176887 0.185872406
vn -0.517358422 0.849099576 0.106631152
vn -0.530579925 0.844997525 0.0668138042
vn -0.414909542 0.857479751 0.304266989
vn -0.373301804 0.852699935 0.365442842
vn -0.447276622 0.858929515 0.249366656
vn -0.485279769 0.856144011 0.177541405
vn -0.517778516 0.849789083 0.0988127217
vn -0.530842364 0.845415533 0.058982525
vn -0.366508365 0.855186105 0.366508365
vn -0.279581726 0.846620739 0.452843606
vn -0.485279769 0.856144011 0.177541405
vn -0.407337397 0.858176887 0.312423855
vn -0.446382344 0.857212186 0.256768614
vn -0.518167198 0.850427032 0.0909759551
vn -0.531072378 0.845781744 0.0511403382
vn -0.517778516 0.849789083 0.0988127217
vn -0.485945851 0.857319236 0.169883564
vn -0.485945851 0.857319236 0.169883564
vn -0.478522509 0.858176887 0.185872406
vn -0.440022528 0.860224307 0.257670879
vn -0.406321883 0.856037438 0.319534719
vn -0.440022528 0.860224307 0.257670879
vn -0.431768656 0.859576225 0.27332145
vn -0.440022528 0.860224307 0.257670879
vn -0.398680359 0.856570721 0.327628434
vn -0.390980721 0.856998205 0.335690528
vn -0.398680359 0.856570721 0.327628434
vn -0.398680359 0.856570721 0.327628434
vn -0.358604163 0.855133057 0.374366999
vn -0.349595338 0.85238421 0.388875753
vn -0.344990999 0.852563977 0.392575949
vn -0.349595338 0.85238421 0.388875753
vn -0.350657433 0.854973733 0.382177204
vn -0.350657433 0.854973733 0.382177204
vn -0.279581726 0.846620739 0.452843606
vn -0.279581726 0.846620739 0.452843606
vn -0.279581726 0.846620739 0.452843606
vn -0.209548384 0.834239721 0.510032892
vn -0.279581726 0.846620739 0.452843606
vn -0.201150984 0.832212746 0.51668191
vn -0.145833284 0.823760867 0.547860146
vn -0.279581726 0.846620739 0.452843606
vn -0.279581726 0.846620739 0.452843606
vn -0.279581726 0.846620739 0.452843606
vn -0.13810496 0.824683726 0.548473954
vn -0.074628152 0.813053608 0.577385902
vn -0.201150984 0.832212746 0.51668191
vn -0.193564042 0.833510399 0.517487586
vn -0.193564042 0.833510399 0.517487586
vn -0.185178608 0.831333816 0.524016082
vn -0.0593581796 0.811227798 0.581709743
vn 0.0196948964 0.791737437 0.610543907
vn -0.129785568 0.821975052 0.55453825
vn -0.129785568 0.821975052 0.55453825
vn 0.0354354754 0.791393697 0.610278785
vn 0.106697612 0.770594478 0.628330946
vn -0.0593581796 0.811227798 0.581709743
vn -0.122040652 0.822789967 0.555088043
vn -0.177552462 0.832523644 0.524766147
vn -0.169187799 0.830200493 0.531171024
vn 0.114501044 0.769921422 0.627782166
vn 0.153335392 0.758814096 0.633000374
vn 0.153335392 0.758814096 0.633000374
vn 0.0354354754 0.791393697 0.610278785
vn -0.0514663346 0.811583638 0.58196485
vn 0.114501044 0.769921422 0.627782166
vn 0.145643234 0.759707093 0.633745313
vn -0.106704399 0.818066776 0.565137982
vn -0.0906306207 0.815675259 0.571366787
vn 0.0275677498 0.791590154 0.610430241
vn 0.106697612 0.770594478 0.628330946
vn 0.130180717 0.761360466 0.635124564
vn -0.0512292162 0.807844579 0.587165117
vn 0.090478912 0.7749722 0.625485241
vn 0.121679001 0.765400708 0.631946206
vn 0.0275677498 0.791590154 0.610430241
vn -0.114508316 0.817352176 0.564644337
vn -0.0512292162 0.807844579 0.587165117
vn 0.0748407841 0.775981545 0.626299858
vn 0.0983831957 0.767389536 0.633588314
vn 0.0196948964 0.791737437 0.610543907
vn -0.0433639698 0.808145761 0.587384045
vn -0.0354906544 0.808397055 0.587566674
vn 0.0118752811 0.795648098 0.605642617
vn 0.0118752811 0.795648098 0.605642617
vn 0.059073817 0.783713639 0.618306756
vn 0.0748407841 0.775981545 0.626299858
vn 0.043355763 0.784346461 0.618806064
vn 0.0591472536 0.776801527 0.626961708
vn 0.263324767 0.734951437 -0.62490505
vn 0.277863592 0.731838048 -0.622257888
vn 0.286446333 0.733773649 -0.616055787
vn 0.269065648 0.737006068 -0.620020866
vn 0.310775608 0.735633552 -0.601881862
vn 0.215206802 0.739529312 -0.637794971
vn 0.286164433 0.740891695 -0.60760951
vn 0.324528337 0.738986433 -0.590407014
vn 0.223760024 0.741941452 -0.632024109
vn 0.168926373 0.742490768 -0.648206115
vn 0.30188182 0.740982831 -0.599843144
vn 0.339960486 0.738534987 -0.582231104
vn 0.160456374 0.73966521 -0.65356648
vn 0.114301659 0.737049282 -0.666103244
vn 0.231198311 0.740618646 -0.630897284
vn 0.308982939 0.739212453 -0.598409951
vn 0.3484146 0.739891887 -0.575471342
vn 0.10595236 0.733818829 -0.671032071
vn 0.0274673961 0.733773649 -0.67883867
vn 0.160456374 0.73966521 -0.65356648
vn 0.231198311 0.740618646 -0.630897284
vn 0.317505419 0.740846157 -0.591892838
vn 0.355265468 0.737859249 -0.573890388
vn 0.0196231771 0.733909249 -0.678964019
vn -0.105998188 0.726283729 -0.679173291
vn 0.239773065 0.742903709 -0.624982357
vn 0.0903950185 0.734951437 -0.672067821
vn 0.152816594 0.740573168 -0.654368758
vn 0.324528337 0.738986433 -0.590407014
vn 0.355265468 0.737859249 -0.573890388
vn 0.317505419 0.740846157 -0.591892838
vn 0.239773065 0.742903709 -0.624982357
vn 0.247161388 0.741484523 -0.623788416
vn 0.231198311 0.740618646 -0.630897284
vn 0.152816594 0.740573168 -0.654368758
vn 0.082590729 0.73545146 -0.672525048
vn 0.152816594 0.740573168 -0.654368758
vn 0.136748925 0.738444686 -0.660302341
vn 0.152816594 0.740573168 -0.654368758
vn 0.0669378787 0.736317515 -0.673316956
vn 0.05877918 0.73278141 -0.67792064
vn 0.0747712031 0.735906899 -0.672941446
vn 0.0747712031 0.735906899 -0.672941446
vn 0.0117753334 0.73399967 -0.679047704
vn -0.00392543292 0.734044909 -0.679089546
vn -0.0117754526 0.73399967 -0.679047704
vn -0.00392543292 0.734044909 -0.679089546
vn 0.00392531324 0.734044909 -0.679089606
vn 0.00392531324 0.734044909 -0.679089606
vn -0.105998188 0.726283729 -0.679173291
vn -0.105998188 0.726283729 -0.679173291
vn -0.105998188 0.726283729 -0.679173291
vn -0.193010673 0.720835686 -0.665689707
vn -0.105998188 0.726283729 -0.679173291
vn -0.200577676 0.719719887 -0.664659262
vn -0.262386233 0.716666877 -0.646174967
vn -0.105998188 0.726283729 -0.679173291
vn -0.105998188 0.726283729 -0.679173291
vn -0.105998188 0.726283729 -0.679173291
vn -0.271017879 0.718786597 -0.640230536
vn -0.334337473 0.711942196 -0.617540896
vn -0.200577676 0.719719887 -0.664659262
vn -0.200577676 0.719719887 -0.664659262
vn -0.208108962 0.718564868 -0.663592637
vn -0.215603441 0.717371404 -0.662490427
vn -0.349876195 0.711546004 -0.609334826
vn -0.421263099 0.704729915 -0.570870459
vn -0.271017879 0.718786597 -0.640230536
vn -0.278273076 0.717239082 -0.638852239
vn -0.436012208 0.703118801 -0.561709285
vn -0.497572631 0.693467498 -0.521079957
vn -0.349876195 0.711546004 -0.609334826
vn -0.287083596 0.711810052 -0.641022205
vn -0.224216655 0.71985352 -0.656915367
vn -0.231668457 0.718564928 -0.655739486
vn -0.508224785 0.689452112 -0.516104043
vn -0.537279725 0.686306179 -0.49021858
vn -0.531665027 0.689195454 -0.492282301
vn -0.436012208 0.703118801 -0.561709285
vn -0.349876195 0.711546004 -0.609334826
vn -0.500283122 0.689366579 -0.52391845
vn -0.523918629 0.689366519 -0.500283003
vn -0.302926689 0.712074459 -0.633392096
vn -0.311586767 0.713888705 -0.627117574
vn -0.427707583 0.702382267 -0.568968713
vn -0.491642296 0.696165621 -0.52310735
vn -0.516104221 0.689452112 -0.508224547
vn -0.349876195 0.711546004 -0.609334826
vn -0.483626455 0.695950329 -0.530809402
vn -0.508224785 0.689452112 -0.516104043
vn -0.427707583 0.702382267 -0.568968713
vn -0.294276059 0.710186303 -0.639559925
vn -0.356747538 0.709574878 -0.607646823
vn -0.475556761 0.695649266 -0.538440228
vn -0.49228245 0.689195454 -0.531664968
vn -0.421263099 0.704729915 -0.570870459
vn -0.356747538 0.709574878 -0.607646823
vn -0.365285009 0.710931063 -0.600952625
vn -0.412877411 0.70385766 -0.578028202
vn -0.412877411 0.70385766 -0.578028202
vn -0.459268719 0.694791257 -0.553477645
vn -0.476116002 0.68859762 -0.546943069
vn -0.451056659 0.694235206 -0.560879111
vn -0.461780071 0.690696836 -0.55650413
vn 0.64050734 0.68766135 0.341865927
vn 0.632335901 0.687321723 0.357407272
vn 0.625795066 0.688768327 0.36603114
vn 0.634099066 0.689238191 0.35052681
vn 0.602254748 0.696726263 0.389694363
vn 0.660705864 0.684162974 0.308850706
vn 0.617579103 0.69625175 0.365827173
vn 0.590226591 0.699672759 0.402604997
vn 0.656265855 0.687703848 0.310449153
vn 0.686179399 0.678337514 0.262708724
vn 0.609071314 0.695520341 0.381160855
vn 0.578028202 0.70385766 0.412877411
vn 0.654650271 0.686010838 0.317524999
vn 0.686179399 0.678337514 0.262708724
vn 0.598959982 0.700744212 0.387562394
vn 0.570870459 0.704729915 0.421263099
vn 0.650135517 0.689537764 0.319157451
vn 0.59390384 0.704031944 0.389380813
vn 0.570870459 0.704729915 0.421263099
vn 0.718564808 0.663592756 0.208108976
vn 0.717371225 0.662490487 0.215603426
vn 0.691685915 0.676054716 0.254009008
vn 0.648486376 0.687788785 0.326208353
vn 0.592074811 0.701863706 0.396023661
vn 0.560499907 0.709444106 0.427234232
vn 0.59390384 0.704031944 0.389380813
vn 0.643896639 0.691300154 0.327873766
vn 0.63873446 0.693595231 0.333082438
vn 0.650135517 0.689537764 0.319157451
vn 0.695348382 0.671777368 0.255353957
vn 0.724588096 0.661921144 0.191917971
vn 0.696726143 0.673108459 0.247987315
vn 0.696726143 0.673108459 0.247987315
vn 0.703379214 0.671943367 0.231840104
vn 0.735133052 0.65650928 0.169041336
vn 0.696726143 0.673108459 0.247987315
vn 0.73413527 0.65561825 0.176663622
vn 0.763567626 0.638264358 0.0978933349
vn 0.725657523 0.662898123 0.184356287
vn 0.73413527 0.65561825 0.176663622
vn 0.759659946 0.641578257 0.106273718
vn 0.781197488 0.624172926 0.0117769055
vn 0.73309654 0.654690683 0.184254274
vn 0.759659946 0.641578257 0.106273718
vn 0.781197488 0.624172926 0.0117769055
vn 0.789681792 0.608958662 -0.0746464729
vn 0.759001732 0.641022325 0.114046946
vn 0.755180597 0.645620883 0.113472782
vn 0.789194643 0.608583033 -0.0824531019
vn 0.787303507 0.599290848 -0.144926444
vn 0.781197488 0.624172926 0.0117769055
vn 0.786387086 0.598593295 -0.152582496
vn 0.776662529 0.589327037 -0.222461045
vn 0.781197488 0.624172926 0.0117769055
vn 0.789194643 0.608583033 -0.0824531019
vn 0.754487813 0.645028532 0.12118721
vn 0.77430141 0.585639238 -0.239758238
vn 0.754580081 0.574732125 -0.316689014
vn 0.781197488 0.624172926 0.0117769055
vn 0.785425901 0.597861648 -0.160211176
vn 0.788659871 0.608170688 -0.0902445912
vn 0.750347733 0.648206294 0.12964128
vn 0.749561489 0.647527039 0.13735424
vn 0.747354865 0.575189412 -0.332592428
vn 0.724055111 0.559675157 -0.403122574
vn 0.781197488 0.624172926 0.0117769055
vn 0.781197488 0.624172926 0.0117769055
vn 0.781197488 0.624172926 0.0117769055
vn 0.77430141 0.585639238 -0.239758238
vn 0.717989385 0.561051965 -0.411961049
vn 0.705252469 0.54939568 -0.448088527
vn 0.707706451 0.55130738 -0.441827774
vn 0.788659871 0.608170688 -0.0902445912
vn 0.785425901 0.597861648 -0.160211176
vn 0.787448466 0.607236505 -0.105776593
vn 0.790511906 0.601733088 -0.114053883
vn 0.788077712 0.607721746 -0.0980195552
vn 0.724055111 0.559675157 -0.403122574
vn 0.710142493 0.553205073 -0.435501724
vn 0.788077712 0.592038631 -0.168593675
vn 0.77430141 0.585639238 -0.239758238
vn 0.78475517 0.589542568 -0.191308394
vn 0.780524194 0.592257202 -0.200033769
vn 0.787013769 0.591239333 -0.176197037
vn 0.771304488 0.583372593 -0.254491299
vn 0.769748569 0.582195759 -0.26179266
vn 0.77282238 0.584520638 -0.247146174
vn 0.77282238 0.584520638 -0.247146174
vn 0.747354865 0.575189412 -0.332592428
vn 0.749284625 0.5766747 -0.325605333
vn 0.756432414 0.576142967 -0.309627742
vn 0.756432414 0.576142967 -0.309627742
vn 0.754580081 0.574732125 -0.316689014
vn 0.752695501 0.573296666 -0.323698044
vn 0.724055111 0.559675157 -0.403122574
vn 0.716403127 0.55198288 -0.426710039
vn 0.732241809 0.559949756 -0.387657374
vn 0.722551465 0.550701499 -0.417908132
vn 0.738039136 0.558410704 -0.378781945
vn 0.733186722 0.552830756 -0.395999193
vn 0.747950613 0.559984088 -0.356353402
vn 0.74020946 0.560052812 -0.372062892
vn 0.750023723 0.561536193 -0.349487454
vn 0.745849073 0.558410645 -0.363162071
g submesh_0
usemtl submesh_0
f 1/1/1 2/2/2 3/3/3
f 3/3/3 4/4/4 1/1/1
f 4/4/4 3/3/3 5/5/5
f 6/6/6 1/1/1 4/4/4
f 5/5/5 7/7/7 4/4/4
f 7/7/7 5/5/5 8/8/8
f 4/4/4 9/9/9 6/6/6
f 9/9/9 4/4/4 7/7/7
f 10/10/10 6/6/6 9/9/9
f 8/8/8 11/11/11 7/7/7
f 11/11/11 8/8/8 12/12/12
f 9/9/9 13/13/13 10/10/10
f 14/14/14 10/10/10 13/13/13
f 7/7/7 15/15/15 9/9/9
f 15/15/15 7/7/7 11/11/11
f 15/15/15 13/13/13 9/9/9
f 12/12/12 16/16/16 11/11/11
f 16/16/16 12/12/12 17/17/17
f 13/13/13 18/18/18 14/14/14
f 19/19/19 14/14/14 18/18/18
f 13/13/13 15/15/15 20/20/20
f 20/20/20 18/18/18 13/13/13
f 11/11/11 21/21/21 15/15/15
f 21/21/21 11/11/11 16/16/16
f 21/21/21 20/20/20 15/15/15
f 17/17/17 22/22/22 16/16/16
f 22/22/22 17/17/17 23/23/23
f 18/18/18 24/24/24 19/19/19
f 25/25/25 19/19/19 24/24/24
f 16/16/16 26/26/26 21/21/21
f 26/26/26 16/16/16 22/22/22
f 20/20/20 27/27/27 18/18/18
f 24/24/24 18/18/18 27/27/27
f 20/20/20 21/21/21 28/28/28
f 28/28/28 21/21/21 26/26/26
f 27/27/27 20/20/20 28/28/28
f 23/23/23 29/29/29 22/22/22
f 29/29/29 23/23/23 30/30/30
f 30/30/30 31/31/31 29/29/29
f 22/22/22 32/32/32 26/26/26
f 32/32/32 22/22/22 29/29/29
f 33/33/33 29/29/29 31/31/31
f 29/29/29 33/33/33 32/32/32
f 31/31/31 34/34/34 33/33/33
f 26/26/26 35/35/35 28/28/28
f 32/32/32 35/35/35 26/26/26
f 28/28/28 36/36/36 27/27/27
f 28/28/28 35/35/35 36/36/36
f 37/37/37 33/33/33 34/34/34
f 34/34/34 38/38/38 37/37/37
f 39/39/39 32/32/32 33/33/33
f 35/35/35 32/32/32 39/39/39
f 33/33/33 37/37/37 39/39/39
f 40/40/40 37/37/37 38/38/38
f 38/38/38 41/41/41 40/40/40
f 42/42/42 35/35/35 39/39/39
f 35/35/35 42/42/42 36/36/36
f 39/39/39 37/37/37 43/43/43
f 37/37/37 40/40/40 43/43/43
f 39/39/39 43/43/43 42/42/42
f 44/44/44 27/27/27 36/36/36
f 27/27/27 44/44/44 24/24/24
f 45/45/45 40/40/40 41/41/41
f 41/41/41 46/46/46 45/45/45
f 47/47/47 43/43/43 40/40/40
f 40/40/40 45/45/45 47/47/47
f 48/48/48 36/36/36 42/42/42
f 36/36/36 48/48/48 44/44/44
f 49/49/49 42/42/42 43/43/43
f 43/43/43 47/47/47 49/49/49
f 42/42/42 49/49/49 48/48/48
f 50/50/50 24/24/24 44/44/44
f 24/24/24 50/50/50 25/25/25
f 51/51/51 45/45/45 46/46/46
f 46/46/46 52/52/52 51/51/51
f 51/51/51 52/52/52 53/53/53
f 54/54/54 47/47/47 45/45/45
f 45/45/45 51/51/51 54/54/54
f 53/53/53 55/55/55 51/51/51
f 54/54/54 51/51/51 55/55/55
f 53/53/53 56/56/56 55/55/55
f 57/57/57 49/49/49 47/47/47
f 47/47/47 54/54/54 57/57/57
f 58/58/58 44/44/44 48/48/48
f 44/44/44 58/58/58 50/50/50
f 59/59/59 48/48/48 49/49/49
f 49/49/49 57/57/57 59/59/59
f 48/48/48 59/59/59 58/58/58
f 56/56/56 60/60/60 55/55/55
f 56/56/56 61/61/61 60/60/60
f 55/55/55 62/62/62 54/54/54
f 57/57/57 54/54/54 62/62/62
f 62/62/62 55/55/55 60/60/60
f 59/59/59 57/57/57 63/63/63
f 62/62/62 63/63/63 57/57/57
f 58/58/58 59/59/59 64/64/64
f 63/63/63 64/64/64 59/59/59
f 50/50/50 58/58/58 65/65/65
f 64/64/64 65/65/65 58/58/58
f 61/61/61 66/66/66 60/60/60
f 67/67/67 66/66/66 61/61/61
f 60/60/60 68/68/68 62/62/62
f 62/62/62 68/68/68 63/63/63
f 66/66/66 68/68/68 60/60/60
f 69/69/69 64/64/64 63/63/63
f 68/68/68 69/69/69 63/63/63
f 70/70/70 66/66/66 67/67/67
f 71/71/71 70/70/70 67/67/67
f 66/66/66 72/72/72 68/68/68
f 69/69/69 68/68/68 72/72/72
f 72/72/72 66/66/66 70/70/70
f 69/69/69 73/73/73 64/64/64
f 64/64/64 73/73/73 65/65/65
f 65/65/65 74/74/74 50/50/50
f 50/50/50 74/74/74 25/25/25
f 25/25/25 74/74/74 75/75/75
f 76/76/76 70/70/70 71/71/71
f 76/76/76 71/71/71 77/77/77
f 77/77/77 78/78/78 76/76/76
f 70/70/70 79/79/79 72/72/72
f 76/76/76 79/79/79 70/70/70
f 72/72/72 80/80/80 69/69/69
f 80/80/80 73/73/73 69/69/69
f 72/72/72 79/79/79 80/80/80
f 81/81/81 76/76/76 78/78/78
f 81/81/81 79/79/79 76/76/76
f 78/78/78 82/82/82 81/81/81
f 74/74/74 83/83/83 75/75/75
f 83/83/83 84/84/84 75/75/75
f 85/85/85 80/80/80 79/79/79
f 81/81/81 85/85/85 79/79/79
f 86/86/86 81/81/81 82/82/82
f 86/86/86 85/85/85 81/81/81
f 82/82/82 87/87/87 86/86/86
f 80/80/80 88/88/88 73/73/73
f 88/88/88 80/80/80 85/85/85
f 89/89/89 86/86/86 87/87/87
f 87/87/87 90/90/90 89/89/89
f 86/86/86 91/91/91 85/85/85
f 85/85/85 91/91/91 88/88/88
f 89/89/89 91/91/91 86/86/86
f 92/92/92 73/73/73 88/88/88
f 73/73/73 92/92/92 65/65/65
f 65/65/65 92/92/92 74/74/74
f 92/92/92 83/83/83 74/74/74
f 88/88/88 93/93/93 92/92/92
f 88/88/88 91/91/91 93/93/93
f 83/83/83 92/92/92 93/93/93
f 94/94/94 89/89/89 90/90/90
f 90/90/90 95/95/95 94/94/94
f 91/91/91 89/89/89 96/96/96
f 96/96/96 93/93/93 91/91/91
f 94/94/94 96/96/96 89/89/89
f 93/93/93 97/97/97 83/83/83
f 97/97/97 93/93/93 96/96/96
f 83/83/83 97/97/97 84/84/84
f 97/97/97 98/98/98 84/84/84
f 96/96/96 99/99/99 97/97/97
f 99/99/99 98/98/98 97/97/97
f 96/96/96 94/94/94 99/99/99
f 99/99/99 100/100/100 98/98/98
f 101/101/101 94/94/94 95/95/95
f 101/101/101 99/99/99 94/94/94
f 100/100/100 99/99/99 101/101/101
f 95/95/95 102/102/102 101/101/101
f 101/101/101 103/103/103 100/100/100
f 103/103/103 101/101/101 102/102/102
f 102/102/102 104/104/104 103/103/103
f 105/105/105 106/106/106 107/107/107
f 107/107/107 108/108/108 105/105/105
f 108/108/108 107/107/107 109/109/109
f 110/110/110 105/105/105 108/108/108
f 109/109/109 111/111/111 108/108/108
f 111/111/111 109/109/109 112/112/112
f 108/108/108 113/113/113 110/110/110
f 113/113/113 108/108/108 111/111/111
f 114/114/114 110/110/110 113/113/113
f 112/112/112 115/115/115 111/111/111
f 115/115/115 112/112/112 116/116/116
f 113/113/113 117/117/117 114/114/114
f 118/118/118 114/114/114 117/117/117
f 111/111/111 119/119/119 113/113/113
f 119/119/119 111/111/111 115/115/115
f 119/119/119 117/117/117 113/113/113
f 116/116/116 120/120/120 115/115/115
f 120/120/120 116/116/116 121/121/121
f 117/117/117 122/122/122 118/118/118
f 123/123/123 118/118/118 122/122/122
f 117/117/117 119/119/119 124/124/124
f 122/122/122 117/117/117 124/124/124
f 115/115/115 125/125/125 119/119/119
f 125/125/125 115/115/115 120/120/120
f 119/119/119 125/125/125 124/124/124
f 121/121/121 126/126/126 120/120/120
f 126/126/126 121/121/121 127/127/127
f 122/122/122 128/128/128 123/123/123
f 129/129/129 123/123/123 128/128/128
f 120/120/120 130/130/130 125/125/125
f 130/130/130 120/120/120 126/126/126
f 124/124/124 131/131/131 122/122/122
f 128/128/128 122/122/122 131/131/131
f 124/124/124 125/125/125 132/132/132
f 132/132/132 125/125/125 130/130/130
f 131/131/131 124/124/124 132/132/132
f 127/127/127 133/133/133 126/126/126
f 133/133/133 127/127/127 134/134/134
f 134/134/134 135/135/135 133/133/133
f 126/126/126 136/136/136 130/130/130
f 136/136/136 126/126/126 133/133/133
f 137/137/137 133/133/133 135/135/135
f 133/133/133 137/137/137 136/136/136
f 135/135/135 138/138/138 137/137/137
f 130/130/130 139/139/139 132/132/132
f 130/130/130 136/136/136 139/139/139
f 132/132/132 140/140/140 131/131/131
f 140/140/140 132/132/132 139/139/139
f 141/141/141 137/137/137 138/138/138
f 138/138/138 142/142/142 141/141/141
f 143/143/143 136/136/136 137/137/137
f 139/139/139 136/136/136 143/143/143
f 137/137/137 141/141/141 143/143/143
f 144/144/144 141/141/141 142/142/142
f 142/142/142 145/145/145 144/144/144
f 146/146/146 139/139/139 143/143/143
f 139/139/139 146/146/146 140/140/140
f 147/147/147 143/143/143 141/141/141
f 141/141/141 144/144/144 147/147/147
f 143/143/143 147/147/147 146/146/146
f 148/148/148 131/131/131 140/140/140
f 131/131/131 148/148/148 128/128/128
f 149/149/149 144/144/144 145/145/145
f 145/145/145 150/150/150 149/149/149
f 151/151/151 147/147/147 144/144/144
f 144/144/144 149/149/149 151/151/151
f 152/152/152 140/140/140 146/146/146
f 140/140/140 152/152/152 148/148/148
f 153/153/153 146/146/146 147/147/147
f 147/147/147 151/151/151 153/153/153
f 146/146/146 153/153/153 152/152/152
f 148/148/148 154/154/154 128/128/128
f 128/128/128 154/154/154 129/129/129
f 150/150/150 155/155/155 149/149/149
f 150/150/150 156/156/156 155/155/155
f 155/155/155 156/156/156 157/157/157
f 149/149/149 158/158/158 151/151/151
f 149/149/149 155/155/155 158/158/158
f 157/157/157 159/159/159 155/155/155
f 158/158/158 155/155/155 159/159/159
f 159/159/159 157/157/157 160/160/160
f 151/151/151 161/161/161 153/153/153
f 151/151/151 158/158/158 161/161/161
f 152/152/152 162/162/162 148/148/148
f 148/148/148 162/162/162 154/154/154
f 153/153/153 163/163/163 152/152/152
f 153/153/153 161/161/161 163/163/163
f 152/152/152 163/163/163 162/162/162
f 160/160/160 164/164/164 159/159/159
f 160/160/160 165/165/165 164/164/164
f 159/159/159 166/166/166 158/158/158
f 161/161/161 158/158/158 166/166/166
f 166/166/166 159/159/159 164/164/164
f 163/163/163 161/161/161 167/167/167
f 166/166/166 167/167/167 161/161/161
f 162/162/162 163/163/163 168/168/168
f 167/167/167 168/168/168 163/163/163
f 154/154/154 162/162/162 169/169/169
f 168/168/168 169/169/169 162/162/162
f 165/165/165 170/170/170 164/164/164
f 171/171/171 170/170/170 165/165/165
f 164/164/164 172/172/172 166/166/166
f 167/167/167 166/166/166 172/172/172
f 170/170/170 172/172/172 164/164/164
f 167/167/167 173/173/173 168/168/168
f 172/172/172 173/173/173 167/167/167
f 171/171/171 174/174/174 170/170/170
f 175/175/175 174/174/174 171/171/171
f 172/172/172 170/170/170 176/176/176
f 173/173/173 172/172/172 176/176/176
f 176/176/176 170/170/170 174/174/174
f 168/168/168 173/173/173 177/177/177
f 169/169/169 168/168/168 177/177/177
f 169/169/169 178/178/178 154/154/154
f 154/154/154 178/178/178 129/129/129
f 129/129/129 178/178/178 179/179/179
f 180/180/180 174/174/174 175/175/175
f 180/180/180 175/175/175 181/181/181
f 181/181/181 182/182/182 180/180/180
f 174/174/174 183/183/183 176/176/176
f 180/180/180 183/183/183 174/174/174
f 176/176/176 184/184/184 173/173/173
f 184/184/184 177/177/177 173/173/173
f 176/176/176 183/183/183 184/184/184
f 185/185/185 180/180/180 182/182/182
f 185/185/185 183/183/183 180/180/180
f 182/182/182 186/186/186 185/185/185
f 178/178/178 187/187/187 179/179/179
f 179/179/179 187/187/187 188/188/188
f 183/183/183 189/189/189 184/184/184
f 185/185/185 189/189/189 183/183/183
f 190/190/190 185/185/185 186/186/186
f 190/190/190 189/189/189 185/185/185
f 186/186/186 191/191/191 190/190/190
f 177/177/177 184/184/184 192/192/192
f 192/192/192 184/184/184 189/189/189
f 193/193/193 190/190/190 191/191/191
f 191/191/191 194/194/194 193/193/193
f 189/189/189 190/190/190 195/195/195
f 189/189/189 195/195/195 192/192/192
f 193/193/193 195/195/195 190/190/190
f 196/196/196 177/177/177 192/192/192
f 177/177/177 196/196/196 169/169/169
f 178/178/178 169/169/169 196/196/196
f 196/196/196 187/187/187 178/178/178
f 192/192/192 197/197/197 196/196/196
f 192/192/192 195/195/195 197/197/197
f 187/187/187 196/196/196 197/197/197
f 198/198/198 193/193/193 194/194/194
f 194/194/194 199/199/199 198/198/198
f 195/195/195 193/193/193 200/200/200
f 195/195/195 200/200/200 197/197/197
f 193/193/193 198/198/198 200/200/200
f 197/197/197 201/201/201 187/187/187
f 201/201/201 197/197/197 200/200/200
f 187/187/187 201/201/201 188/188/188
f 188/188/188 201/201/201 202/202/202
f 200/200/200 203/203/203 201/201/201
f 201/201/201 203/203/203 202/202/202
f 200/200/200 198/198/198 203/203/203
f 203/203/203 204/204/204 202/202/202
f 205/205/205 198/198/198 199/199/199
f 198/198/198 205/205/205 203/203/203
f 205/205/205 204/204/204 203/203/203
f 199/199/199 206/206/206 205/205/205
f 205/205/205 207/207/207 204/204/204
f 206/206/206 207/207/207 205/205/205
f 206/206/206 208/208/208 207/207/207
f 209/209/209 210/210/210 211/211/211
f 211/211/211 212/212/212 209/209/209
f 212/212/212 211/211/211 213/213/213
f 214/214/214 209/209/209 212/212/212
f 213/213/213 215/215/215 212/212/212
f 215/215/215 213/213/213 216/216/216
f 212/212/212 217/217/217 214/214/214
f 217/217/217 212/212/212 215/215/215
f 218/218/218 214/214/214 217/217/217
f 216/216/216 219/219/219 215/215/215
f 219/219/219 216/216/216 220/220/220
f 215/215/215 221/221/221 217/217/217
f 221/221/221 215/215/215 219/219/219
f 217/217/217 222/222/222 218/218/218
f 221/221/221 222/222/222 217/217/217
f 220/220/220 223/223/223 219/219/219
f 223/223/223 220/220/220 224/224/224
f 219/219/219 225/225/225 221/221/221
f 225/225/225 219/219/219 223/223/223
f 224/224/224 226/226/226 223/223/223
f 226/226/226 224/224/224 227/227/227
f 218/218/218 222/222/222 228/228/228
f 228/228/228 229/229/229 218/218/218
f 222/222/222 221/221/221 230/230/230
f 225/225/225 230/230/230 221/221/221
f 223/223/223 231/231/231 225/225/225
f 231/231/231 223/223/223 226/226/226
f 227/227/227 232/232/232 226/226/226
f 232/232/232 227/227/227 233/233/233
f 233/233/233 234/234/234 232/232/232
f 235/235/235 226/226/226 232/232/232
f 226/226/226 235/235/235 231/231/231
f 236/236/236 232/232/232 234/234/234
f 232/232/232 236/236/236 235/235/235
f 234/234/234 237/237/237 236/236/236
f 238/238/238 225/225/225 231/231/231
f 230/230/230 225/225/225 238/238/238
f 222/222/222 230/230/230 239/239/239
f 239/239/239 228/228/228 222/222/222
f 231/231/231 235/235/235 240/240/240
f 231/231/231 240/240/240 238/238/238
f 241/241/241 236/236/236 237/237/237
f 237/237/237 242/242/242 241/241/241
f 243/243/243 241/241/241 242/242/242
f 244/244/244 235/235/235 236/236/236
f 236/236/236 241/241/241 244/244/244
f 240/240/240 235/235/235 244/244/244
f 245/245/245 241/241/241 243/243/243
f 244/244/244 241/241/241 245/245/245
f 246/246/246 245/245/245 243/243/243
f 238/238/238 247/247/247 230/230/230
f 239/239/239 230/230/230 247/247/247
f 248/248/248 240/240/240 244/244/244
f 245/245/245 248/248/248 244/244/244
f 249/249/249 245/245/245 246/246/246
f 249/249/249 248/248/248 245/245/245
f 249/249/249 246/246/246 250/250/250
f 238/238/238 240/240/240 251/251/251
f 251/251/251 240/240/240 248/248/248
f 251/251/251 247/247/247 238/238/238
f 252/252/252 248/248/248 249/249/249
f 252/252/252 251/251/251 248/248/248
f 250/250/250 253/253/253 249/249/249
f 252/252/252 249/249/249 253/253/253
f 254/254/254 253/253/253 250/250/250
f 255/255/255 247/247/247 251/251/251
f 255/255/255 251/251/251 252/252/252
f 256/256/256 239/239/239 247/247/247
f 256/256/256 247/247/247 255/255/255
f 253/253/253 254/254/254 257/257/257
f 258/258/258 257/257/257 254/254/254
f 253/253/253 259/259/259 252/252/252
f 255/255/255 252/252/252 259/259/259
f 259/259/259 253/253/253 257/257/257
f 257/257/257 258/258/258 260/260/260
f 260/260/260 258/258/258 261/261/261
f 259/259/259 262/262/262 255/255/255
f 256/256/256 255/255/255 262/262/262
f 257/257/257 263/263/263 259/259/259
f 263/263/263 257/257/257 260/260/260
f 262/262/262 259/259/259 263/263/263
f 264/264/264 239/239/239 256/256/256
f 264/264/264 228/228/228 239/239/239
f 260/260/260 261/261/261 265/265/265
f 265/265/265 261/261/261 266/266/266
f 262/262/262 267/267/267 256/256/256
f 264/264/264 256/256/256 267/267/267
f 260/260/260 268/268/268 263/263/263
f 268/268/268 260/260/260 265/265/265
f 263/263/263 269/269/269 262/262/262
f 267/267/267 262/262/262 269/269/269
f 268/268/268 269/269/269 263/263/263
f 270/270/270 228/228/228 264/264/264
f 229/229/229 228/228/228 270/270/270
f 270/270/270 271/271/271 229/229/229
f 265/265/265 266/266/266 272/272/272
f 272/272/272 266/266/266 273/273/273
f 267/267/267 274/274/274 264/264/264
f 270/270/270 264/264/264 274/274/274
f 271/271/271 270/270/270 275/275/275
f 274/274/274 275/275/275 270/270/270
f 275/275/275 276/276/276 271/271/271
f 277/277/277 268/268/268 265/265/265
f 277/277/277 265/265/265 272/272/272
f 273/273/273 278/278/278 272/272/272
f 278/278/278 273/273/273 279/279/279
f 279/279/279 280/280/280 278/278/278
f 281/281/281 274/274/274 267/267/267
f 269/269/269 281/281/281 267/267/267
f 269/269/269 268/268/268 282/282/282
f 282/282/282 268/268/268 277/277/277
f 281/281/281 269/269/269 282/282/282
f 276/276/276 275/275/275 283/283/283
f 283/283/283 284/284/284 276/276/276
f 275/275/275 274/274/274 285/285/285
f 285/285/285 274/274/274 281/281/281
f 285/285/285 283/283/283 275/275/275
f 286/286/286 278/278/278 280/280/280
f 280/280/280 287/287/287 286/286/286
f 288/288/288 281/281/281 282/282/282
f 288/288/288 285/285/285 281/281/281
f 277/277/277 289/289/289 282/282/282
f 288/288/288 282/282/282 289/289/289
f 284/284/284 283/283/283 290/290/290
f 291/291/291 284/284/284 290/290/290
f 292/292/292 283/283/283 285/285/285
f 292/292/292 285/285/285 288/288/288
f 290/290/290 283/283/283 292/292/292
f 291/291/291 290/290/290 293/293/293
f 294/294/294 291/291/291 293/293/293
f 292/292/292 288/288/288 295/295/295
f 295/295/295 288/288/288 289/289/289
f 290/290/290 292/292/292 296/296/296
f 296/296/296 293/293/293 290/290/290
f 295/295/295 296/296/296 292/292/292
f 289/289/289 277/277/277 297/297/297
f 272/272/272 297/297/297 277/277/277
f 297/297/297 272/272/272 278/278/278
f 278/278/278 286/286/286 297/297/297
f 289/289/289 297/297/297 298/298/298
f 295/295/295 289/289/289 298/298/298
f 298/298/298 297/297/297 286/286/286
f 294/294/294 293/293/293 299/299/299
f 300/300/300 294/294/294 299/299/299
f 293/293/293 296/296/296 301/301/301
f 301/301/301 299/299/299 293/293/293
f 296/296/296 295/295/295 302/302/302
f 298/298/298 302/302/302 295/295/295
f 296/296/296 302/302/302 301/301/301
f 286/286/286 303/303/303 298/298/298
f 302/302/302 298/298/298 303/303/303
f 303/303/303 286/286/286 287/287/287
f 287/287/287 304/304/304 303/303/303
f 303/303/303 305/305/305 302/302/302
f 305/305/305 303/303/303 304/304/304
f 301/301/301 302/302/302 305/305/305
f 304/304/304 306/306/306 305/305/305
f 305/305/305 307/307/307 301/301/301
f 307/307/307 305/305/305 306/306/306
f 299/299/299 301/301/301 307/307/307
f 306/306/306 308/308/308 307/307/307
f 307/307/307 309/309/309 299/299/299
f 309/309/309 307/307/307 308/308/308
f 300/300/300 299/299/299 309/309/309
f 308/308/308 310/310/310 309/309/309
f 311/311/311 300/300/300 309/309/309
f 309/309/309 310/310/310 311/311/311
f 312/312/312 311/311/311 310/310/310
