o cylinder_08
v -2.89886438e-17 -0.0594006665 -0.451532334
v -0.152514696 0.312078416 -0.986313879
v -2.77555756e-17 0.312078416 -0.9984653
v -0.0689960122 -0.0594006665 -0.446034402
v -0.0263361782 -0.251294196 -0.170052618
v -9.13812727e-18 -0.251294196 -0.172150493
v -0.0520396903 -0.251294196 -0.163934439
v -0.13633436 -0.0594006665 -0.430005491
v -0.301365137 0.312078416 -0.950882018
v -0.0765437782 -0.251294196 -0.154050291
v -0.443269819 0.312078416 -0.893643856
v -0.200530604 -0.0594006665 -0.404111385
v -0.099302575 -0.251294196 -0.140628666
v -0.575068474 0.312078416 -0.815918207
v -0.260155052 -0.0594006665 -0.368949503
v -0.119742036 -0.251294196 -0.123888016
v -0.313702643 -0.0594006665 -0.325092256
v -0.693433702 0.312078416 -0.718971848
v -0.137274444 -0.251294196 -0.10412477
v -0.79496628 0.312078416 -0.604521096
v -0.359634966 -0.0594006665 -0.273316026
v -0.151546955 -0.251294196 -0.0818896741
v -0.877619147 0.312078416 -0.475757539
v -0.397025704 -0.0594006665 -0.215064421
v -0.162335664 -0.251294196 -0.0577705652
v -0.425290376 -0.0594006665 -0.151875824
v -0.940097392 0.312078416 -0.336080819
v -0.169418067 -0.251294196 -0.0323154852
v -0.981113315 0.312078416 -0.188669488
v -0.443845481 -0.0594006665 -0.0851885006
v -0.172546685 -0.251294196 -0.00608111545
v -0.999228776 0.312078416 -0.0367442593
v -0.452041328 -0.0594006665 -0.0164590627
v -0.1714935 -0.251294196 0.0203169137
v -0.449281543 -0.0594006665 0.0526990555
v -0.993129134 0.312078416 0.116128713
v -0.166355222 -0.251294196 0.0462338328
v -0.963374138 0.312078416 0.266214818
v -0.435820729 -0.0594006665 0.120596476
v -0.157390058 -0.251294196 0.071088627
v -0.412334502 -0.0594006665 0.185712159
v -0.911457896 0.312078416 0.410151422
v -0.14483285 -0.251294196 0.0943360329
v -0.838737071 0.312078416 0.54477793
v -0.379435718 -0.0594006665 0.246615648
v -0.128899992 -0.251294196 0.115412027
v -0.746470213 0.312078416 0.666830182
v -0.337696016 -0.0594006665 0.301831067
v -0.109850347 -0.251294196 0.133716464
v -0.287788153 -0.0594006665 0.349785388
v -0.636150301 0.312078416 0.772832751
v -0.0881760716 -0.251294196 0.148825794
v -0.510633767 0.312078416 0.860333622
v -0.2310054 -0.0594006665 0.389370173
v -0.0644755661 -0.251294196 0.160505593
v -0.168914258 -0.0594006665 0.419968694
v -0.3733823 0.312078416 0.927972198
v -0.0393035561 -0.251294196 0.168537408
v -0.227609739 0.312078416 0.974482
v -0.102968395 -0.0594006665 0.441009372
v -0.0132093858 -0.251294196 0.172678322
v -0.0764965862 0.312078416 0.9984653
v -0.0346063301 -0.0594006665 0.451859623
v 0.0132093858 -0.251294196 0.172678322
v 0.0346063301 -0.0594006665 0.451859623
v 0.0764965862 0.312078416 0.9984653
v 0.0393035561 -0.251294196 0.168537408
v 0.227609739 0.312078416 0.974482
v 0.102968395 -0.0594006665 0.441009372
v 0.0644755661 -0.251294196 0.160505593
v 0.168914258 -0.0594006665 0.419968694
v 0.3733823 0.312078416 0.927972198
v 0.0881760716 -0.251294196 0.148825794
v 0.510633767 0.312078416 0.860333622
v 0.2310054 -0.0594006665 0.389370173
v 0.109850347 -0.251294196 0.133716464
v 0.636150301 0.312078416 0.772832751
v 0.287788153 -0.0594006665 0.349785388
v 0.128899992 -0.251294196 0.115412027
v 0.337696016 -0.0594006665 0.301831067
v 0.746470213 0.312078416 0.666830182
v 0.14483285 -0.251294196 0.0943360329
v 0.838737071 0.312078416 0.54477793
v 0.379435718 -0.0594006665 0.246615648
v 0.157390058 -0.251294196 0.071088627
v 0.412334502 -0.0594006665 0.185712159
v 0.911457896 0.312078416 0.410151422
v 0.166355222 -0.251294196 0.0462338328
v 0.963374138 0.312078416 0.266214818
v 0.435820729 -0.0594006665 0.120596476
v 0.1714935 -0.251294196 0.0203169137
v 0.993129134 0.312078416 0.116128713
v 0.449281543 -0.0594006665 0.0526990555
v 0.172546685 -0.251294196 -0.00608111545
v 0.452041328 -0.0594006665 -0.0164590627
v 0.999228776 0.312078416 -0.0367442593
v 0.169418067 -0.251294196 -0.0323154852
v 0.981113315 0.312078416 -0.188669488
v 0.443845481 -0.0594006665 -0.0851885006
v 0.162335664 -0.251294196 -0.0577705652
v 0.425290376 -0.0594006665 -0.151875824
v 0.940097392 0.312078416 -0.336080819
v 0.151546955 -0.251294196 -0.0818896741
v 0.877619147 0.312078416 -0.475757539
v 0.397025704 -0.0594006665 -0.215064421
v 0.137274444 -0.251294196 -0.10412477
v 0.79496628 0.312078416 -0.604521096
v 0.359634966 -0.0594006665 -0.273316026
v 0.119742036 -0.251294196 -0.123888016
v 0.313702643 -0.0594006665 -0.325092256
v 0.693433702 0.312078416 -0.718971848
v 0.099302575 -0.251294196 -0.140628666
v 0.575068474 0.312078416 -0.815918207
v 0.260155052 -0.0594006665 -0.368949503
v 0.0765437782 -0.251294196 -0.154050291
v 0.200530604 -0.0594006665 -0.404111385
v 0.443269819 0.312078416 -0.893643856
v 0.0520396903 -0.251294196 -0.163934439
v 0.301365137 0.312078416 -0.950882018
v 0.13633436 -0.0594006665 -0.430005491
v 0.0263361782 -0.251294196 -0.170052618
v 0.152514696 0.312078416 -0.986313879
v 0.0689960122 -0.0594006665 -0.446034402
v -9.13812727e-18 -0.251294196 -0.172150493
v -2.89886438e-17 -0.0594006665 -0.451532334
v -2.77555756e-17 0.312078416 -0.9984653
vt 1 0.5
vt 0.975580215 1
vt 1 1
vt 0.975580215 0.5
vt 0.975580215 0
vt 1 0
vt 0.951200783 0
vt 0.951200783 0.5
vt 0.951200783 1
vt 0.926844239 0
vt 0.926844239 1
vt 0.926844239 0.5
vt 0.902469516 0
vt 0.902469516 1
vt 0.902469516 0.5
vt 0.878053904 0
vt 0.878053904 0.5
vt 0.878053904 1
vt 0.853630662 0
vt 0.853630662 1
vt 0.853630662 0.5
vt 0.829246223 0
vt 0.829246223 1
vt 0.829246223 0.5
vt 0.804888964 0
vt 0.804888964 0.5
vt 0.804888964 1
vt 0.780518532 0
vt 0.780518532 1
vt 0.780518532 0.5
vt 0.756107628 0
vt 0.756107628 1
vt 0.756107628 0.5
vt 0.731681824 0
vt 0.731681824 0.5
vt 0.731681824 1
vt 0.70729208 0
vt 0.70729208 1
vt 0.70729208 0.5
vt 0.68293345 0
vt 0.68293345 0.5
vt 0.68293345 1
vt 0.658566892 0
vt 0.658566892 1
vt 0.658566892 0.5
vt 0.634160995 0
vt 0.634160995 1
vt 0.634160995 0.5
vt 0.609733641 0
vt 0.609733641 0.5
vt 0.609733641 1
vt 0.585338473 0
vt 0.585338473 1
vt 0.585338473 0.5
vt 0.560977817 0
vt 0.560977817 0.5
vt 0.560977817 1
vt 0.536614537 0
vt 0.536614537 1
vt 0.536614537 0.5
vt 0.512213945 0
vt 0.512213945 1
vt 0.512213945 0.5
vt 0.487786055 0
vt 0.487786055 0.5
vt 0.487786055 1
vt 0.463385493 0
vt 0.463385493 1
vt 0.463385493 0.5
vt 0.439022154 0
vt 0.439022154 0.5
vt 0.439022154 1
vt 0.414661527 0
vt 0.414661527 1
vt 0.414661527 0.5
vt 0.390266389 0
vt 0.390266389 1
vt 0.390266389 0.5
vt 0.365839005 0
vt 0.365839005 0.5
vt 0.365839005 1
vt 0.341433138 0
vt 0.341433138 1
vt 0.341433138 0.5
vt 0.31706652 0
vt 0.31706652 0.5
vt 0.31706652 1
vt 0.29270792 0
vt 0.29270792 1
vt 0.29270792 0.5
vt 0.268318206 0
vt 0.268318206 1
vt 0.268318206 0.5
vt 0.243892401 0
vt 0.243892401 0.5
vt 0.243892401 1
vt 0.219481438 0
vt 0.219481438 1
vt 0.219481438 0.5
vt 0.195111021 0
vt 0.195111021 0.5
vt 0.195111021 1
vt 0.170753807 0
vt 0.170753807 1
vt 0.170753807 0.5
vt 0.146369338 0
vt 0.146369338 1
vt 0.146369338 0.5
vt 0.121946111 0
vt 0.121946111 0.5
vt 0.121946111 1
vt 0.0975304618 0
vt 0.0975304618 1
vt 0.0975304618 0.5
vt 0.0731557459 0
vt 0.0731557459 0.5
vt 0.0731557459 1
vt 0.0487992205 0
vt 0.0487992205 1
vt 0.0487992205 0.5
vt 0.0244197994 0
vt 0.0244197994 1
vt 0.0244197994 0.5
vt 0 0
vt 0 0.5
vt 0 1
vn 0 -0.323462278 -0.946241081
vn -0.147402063 -0.324495465 -0.934331417
vn 0 -0.324626982 -0.945842087
vn -0.147589639 -0.323329628 -0.934706032
vn -0.147767752 -0.321928859 -0.935161293
vn 0 -0.322059691 -0.946719408
vn -0.287585437 -0.321758568 -0.902089834
vn -0.287381232 -0.32315734 -0.90165484
vn -0.287188202 -0.324323982 -0.90129739
vn -0.418694019 -0.32174632 -0.849220037
vn -0.418404788 -0.324311733 -0.848386288
vn -0.418527722 -0.323145032 -0.848770678
vn -0.541922092 -0.321903765 -0.77633661
vn -0.541615367 -0.324470401 -0.775481522
vn -0.541737139 -0.323304325 -0.775883496
vn -0.656096876 -0.3220568 -0.682507455
vn -0.655778348 -0.323459268 -0.682150185
vn -0.655517459 -0.324624002 -0.681847572
vn -0.754816294 -0.321953535 -0.571487784
vn -0.753985047 -0.32452029 -0.571133196
vn -0.754375637 -0.323354632 -0.571278512
vn -0.832921743 -0.32177338 -0.450225949
vn -0.83207339 -0.324339092 -0.449953288
vn -0.832467139 -0.32317242 -0.450064421
vn -0.890705585 -0.321737051 -0.321136713
vn -0.890269697 -0.323135734 -0.32094121
vn -0.889908791 -0.324302584 -0.320764959
vn -0.928809285 -0.32187897 -0.183595195
vn -0.927995503 -0.324445516 -0.18319191
vn -0.928362072 -0.323279291 -0.18339701
vn -0.945986927 -0.322048515 -0.0373301245
vn -0.945113361 -0.324615896 -0.0372181647
vn -0.945510387 -0.323451072 -0.0372762792
vn -0.940174699 -0.321977228 0.111365035
vn -0.939710975 -0.323378623 0.111218862
vn -0.939327538 -0.324544162 0.111063078
vn -0.912246585 -0.321790665 0.253489614
vn -0.911452413 -0.324356437 0.253075689
vn -0.911809862 -0.323189855 0.253280669
vn -0.864275038 -0.321730763 0.386675537
vn -0.863831222 -0.323129386 0.386501074
vn -0.863456011 -0.324296206 0.386362165
vn -0.796507418 -0.32185477 0.511845231
vn -0.79564482 -0.324420959 0.51156652
vn -0.796049297 -0.323254675 0.511675775
vn -0.707827449 -0.322035611 0.628707826
vn -0.707096159 -0.324602902 0.628210187
vn -0.707435787 -0.323437899 0.628428638
vn -0.600461185 -0.321999252 0.731958151
vn -0.600219488 -0.323401093 0.731538355
vn -0.600040674 -0.324566394 0.731168687
vn -0.48127687 -0.321810365 0.815359235
vn -0.481008798 -0.324376076 0.814500213
vn -0.481114864 -0.323209673 0.814901233
vn -0.354161054 -0.321727782 0.878100872
vn -0.353976399 -0.323126167 0.877661765
vn -0.353819042 -0.324292839 0.877294838
vn -0.218831584 -0.321831703 0.921160698
vn -0.218413919 -0.324397892 0.920359373
vn -0.218623877 -0.323231459 0.920719862
vn -0.074503541 -0.322018921 0.943797171
vn -0.0742878541 -0.324586183 0.942934334
vn -0.0743995383 -0.323421001 0.943325818
vn 0.074503541 -0.322018921 0.943797171
vn 0.0743995309 -0.323421001 0.943325818
vn 0.0742878467 -0.324586183 0.942934334
vn 0.218831539 -0.321831673 0.921160698
vn 0.218413919 -0.324397892 0.920359373
vn 0.218623862 -0.323231399 0.920719862
vn 0.354161054 -0.321727812 0.878100932
vn 0.353976309 -0.323126167 0.877661765
vn 0.353819102 -0.324292898 0.877294838
vn 0.481276989 -0.321810454 0.815359235
vn 0.481008798 -0.324376106 0.814500213
vn 0.481114745 -0.323209703 0.814901233
vn 0.600461066 -0.321999311 0.73195821
vn 0.600040734 -0.324566483 0.731168807
vn 0.600219429 -0.323401123 0.731538296
vn 0.707827449 -0.322035611 0.628707826
vn 0.707435787 -0.323437959 0.628428638
vn 0.7070961 -0.324602932 0.628210127
vn 0.796507299 -0.321854681 0.511845231
vn 0.79564482 -0.324421018 0.511566579
vn 0.796049297 -0.323254704 0.511675715
vn 0.864274979 -0.321730793 0.386675566
vn 0.863831222 -0.323129445 0.386501074
vn 0.863456011 -0.324296236 0.386362135
vn 0.912246585 -0.321790636 0.253489584
vn 0.911452413 -0.324356407 0.253075719
vn 0.911809862 -0.323189914 0.253280699
vn 0.940174699 -0.321977228 0.111365043
vn 0.939327419 -0.324544251 0.111063056
vn 0.939710855 -0.323378712 0.111218847
vn 0.945986927 -0.322048545 -0.037330132
vn 0.945510387 -0.323451132 -0.0372763015
vn 0.945113361 -0.324616015 -0.0372181758
vn 0.928809285 -0.32187891 -0.183595195
vn 0.927995503 -0.324445516 -0.18319191
vn 0.928362072 -0.323279202 -0.18339698
vn 0.890705585 -0.321737051 -0.321136743
vn 0.890269578 -0.323135674 -0.32094121
vn 0.889908791 -0.324302465 -0.320764929
vn 0.832921743 -0.32177338 -0.450225919
vn 0.83207339 -0.324339092 -0.449953169
vn 0.832467139 -0.32317242 -0.450064421
vn 0.754816294 -0.321953535 -0.571487725
vn 0.753984988 -0.324520379 -0.571133196
vn 0.754375637 -0.323354691 -0.571278572
vn 0.656096876 -0.32205686 -0.682507455
vn 0.655778289 -0.323459297 -0.682150185
vn 0.65551734 -0.324624002 -0.681847572
vn 0.541922092 -0.321903735 -0.77633661
vn 0.541615367 -0.324470371 -0.775481701
vn 0.541737139 -0.323304296 -0.775883496
vn 0.418694049 -0.32174632 -0.849220037
vn 0.418527752 -0.323145062 -0.848770797
vn 0.418404788 -0.324311733 -0.848386288
vn 0.287585437 -0.321758568 -0.902089834
vn 0.287188202 -0.324323982 -0.90129739
vn 0.287381232 -0.32315734 -0.90165484
vn 0.147767752 -0.321928889 -0.935161293
vn 0.147402063 -0.324495465 -0.934331417
vn 0.147589624 -0.323329628 -0.934706032
vn 0 -0.322059691 -0.946719408
vn 0 -0.323462278 -0.946241081
vn 0 -0.324626982 -0.945842087
g submesh_0
usemtl submesh_0
f 1/1/1 2/2/2 3/3/3
f 1/1/1 4/4/4 2/2/2
f 5/5/5 4/4/4 1/1/1
f 5/5/5 1/1/1 6/6/6
f 7/7/7 4/4/4 5/5/5
f 2/2/2 4/4/4 8/8/8
f 7/7/7 8/8/8 4/4/4
f 2/2/2 8/8/8 9/9/9
f 10/10/10 8/8/8 7/7/7
f 8/8/8 11/11/11 9/9/9
f 10/10/10 12/12/12 8/8/8
f 8/8/8 12/12/12 11/11/11
f 13/13/13 12/12/12 10/10/10
f 12/12/12 14/14/14 11/11/11
f 13/13/13 15/15/15 12/12/12
f 12/12/12 15/15/15 14/14/14
f 16/16/16 15/15/15 13/13/13
f 14/14/14 15/15/15 17/17/17
f 16/16/16 17/17/17 15/15/15
f 14/14/14 17/17/17 18/18/18
f 19/19/19 17/17/17 16/16/16
f 17/17/17 20/20/20 18/18/18
f 19/19/19 21/21/21 17/17/17
f 17/17/17 21/21/21 20/20/20
f 22/22/22 21/21/21 19/19/19
f 21/21/21 23/23/23 20/20/20
f 22/22/22 24/24/24 21/21/21
f 21/21/21 24/24/24 23/23/23
f 25/25/25 24/24/24 22/22/22
f 23/23/23 24/24/24 26/26/26
f 25/25/25 26/26/26 24/24/24
f 23/23/23 26/26/26 27/27/27
f 28/28/28 26/26/26 25/25/25
f 26/26/26 29/29/29 27/27/27
f 28/28/28 30/30/30 26/26/26
f 26/26/26 30/30/30 29/29/29
f 31/31/31 30/30/30 28/28/28
f 30/30/30 32/32/32 29/29/29
f 31/31/31 33/33/33 30/30/30
f 30/30/30 33/33/33 32/32/32
f 34/34/34 33/33/33 31/31/31
f 32/32/32 33/33/33 35/35/35
f 34/34/34 35/35/35 33/33/33
f 32/32/32 35/35/35 36/36/36
f 37/37/37 35/35/35 34/34/34
f 35/35/35 38/38/38 36/36/36
f 37/37/37 39/39/39 35/35/35
f 35/35/35 39/39/39 38/38/38
f 40/40/40 39/39/39 37/37/37
f 38/38/38 39/39/39 41/41/41
f 40/40/40 41/41/41 39/39/39
f 38/38/38 41/41/41 42/42/42
f 43/43/43 41/41/41 40/40/40
f 41/41/41 44/44/44 42/42/42
f 43/43/43 45/45/45 41/41/41
f 41/41/41 45/45/45 44/44/44
f 46/46/46 45/45/45 43/43/43
f 45/45/45 47/47/47 44/44/44
f 46/46/46 48/48/48 45/45/45
f 45/45/45 48/48/48 47/47/47
f 49/49/49 48/48/48 46/46/46
f 47/47/47 48/48/48 50/50/50
f 49/49/49 50/50/50 48/48/48
f 47/47/47 50/50/50 51/51/51
f 52/52/52 50/50/50 49/49/49
f 50/50/50 53/53/53 51/51/51
f 52/52/52 54/54/54 50/50/50
f 50/50/50 54/54/54 53/53/53
f 55/55/55 54/54/54 52/52/52
f 53/53/53 54/54/54 56/56/56
f 55/55/55 56/56/56 54/54/54
f 53/53/53 56/56/56 57/57/57
f 58/58/58 56/56/56 55/55/55
f 56/56/56 59/59/59 57/57/57
f 58/58/58 60/60/60 56/56/56
f 56/56/56 60/60/60 59/59/59
f 61/61/61 60/60/60 58/58/58
f 60/60/60 62/62/62 59/59/59
f 61/61/61 63/63/63 60/60/60
f 60/60/60 63/63/63 62/62/62
f 64/64/64 63/63/63 61/61/61
f 62/62/62 63/63/63 65/65/65
f 64/64/64 65/65/65 63/63/63
f 62/62/62 65/65/65 66/66/66
f 67/67/67 65/65/65 64/64/64
f 65/65/65 68/68/68 66/66/66
f 67/67/67 69/69/69 65/65/65
f 65/65/65 69/69/69 68/68/68
f 70/70/70 69/69/69 67/67/67
f 68/68/68 69/69/69 71/71/71
f 70/70/70 71/71/71 69/69/69
f 68/68/68 71/71/71 72/72/72
f 73/73/73 71/71/71 70/70/70
f 71/71/71 74/74/74 72/72/72
f 73/73/73 75/75/75 71/71/71
f 71/71/71 75/75/75 74/74/74
f 76/76/76 75/75/75 73/73/73
f 75/75/75 77/77/77 74/74/74
f 76/76/76 78/78/78 75/75/75
f 75/75/75 78/78/78 77/77/77
f 79/79/79 78/78/78 76/76/76
f 77/77/77 78/78/78 80/80/80
f 79/79/79 80/80/80 78/78/78
f 77/77/77 80/80/80 81/81/81
f 82/82/82 80/80/80 79/79/79
f 80/80/80 83/83/83 81/81/81
f 82/82/82 84/84/84 80/80/80
f 80/80/80 84/84/84 83/83/83
f 85/85/85 84/84/84 82/82/82
f 83/83/83 84/84/84 86/86/86
f 85/85/85 86/86/86 84/84/84
f 83/83/83 86/86/86 87/87/87
f 88/88/88 86/86/86 85/85/85
f 86/86/86 89/89/89 87/87/87
f 88/88/88 90/90/90 86/86/86
f 86/86/86 90/90/90 89/89/89
f 91/91/91 90/90/90 88/88/88
f 90/90/90 92/92/92 89/89/89
f 91/91/91 93/93/93 90/90/90
f 90/90/90 93/93/93 92/92/92
f 94/94/94 93/93/93 91/91/91
f 92/92/92 93/93/93 95/95/95
f 94/94/94 95/95/95 93/93/93
f 92/92/92 95/95/95 96/96/96
f 97/97/97 95/95/95 94/94/94
f 95/95/95 98/98/98 96/96/96
f 97/97/97 99/99/99 95/95/95
f 95/95/95 99/99/99 98/98/98
f 100/100/100 99/99/99 97/97/97
f 98/98/98 99/99/99 101/101/101
f 100/100/100 101/101/101 99/99/99
f 98/98/98 101/101/101 102/102/102
f 103/103/103 101/101/101 100/100/100
f 101/101/101 104/104/104 102/102/102
f 103/103/103 105/105/105 101/101/101
f 101/101/101 105/105/105 104/104/104
f 106/106/106 105/105/105 103/103/103
f 105/105/105 107/107/107 104/104/104
f 106/106/106 108/108/108 105/105/105
f 105/105/105 108/108/108 107/107/107
f 109/109/109 108/108/108 106/106/106
f 107/107/107 108/108/108 110/110/110
f 109/109/109 110/110/110 108/108/108
f 107/107/107 110/110/110 111/111/111
f 112/112/112 110/110/110 109/109/109
f 110/110/110 113/113/113 111/111/111
f 112/112/112 114/114/114 110/110/110
f 110/110/110 114/114/114 113/113/113
f 115/115/115 114/114/114 112/112/112
f 113/113/113 114/114/114 116/116/116
f 115/115/115 116/116/116 114/114/114
f 113/113/113 116/116/116 117/117/117
f 118/118/118 116/116/116 115/115/115
f 116/116/116 119/119/119 117/117/117
f 118/118/118 120/120/120 116/116/116
f 116/116/116 120/120/120 119/119/119
f 121/121/121 120/120/120 118/118/118
f 120/120/120 122/122/122 119/119/119
f 121/121/121 123/123/123 120/120/120
f 120/120/120 123/123/123 122/122/122
f 124/124/124 123/123/123 121/121/121
f 124/124/124 125/125/125 123/123/123
f 122/122/122 123/123/123 125/125/125
f 122/122/122 125/125/125 126/126/126
