o rock_03
v 0.242800206 -0.16883117 -0.207991779
v 0.0827565193 -0.286737502 -0.0391154289
v 0.128747985 -0.19239077 -0.273082495
v 0.342839003 -0.0567988157 -0.239746034
v 0.29398489 -0.158258036 -0.130590081
v 0.242800206 -0.16883117 -0.207991779
v -0.0941740647 -0.238439471 -0.227002561
v 0.002641086 -0.218440503 -0.294900417
v 0.128747985 -0.19239077 -0.273082495
v 0.0827565193 -0.286737502 -0.0391154289
v -0.0589106232 -0.307972252 0.00429105759
v 0.218327701 -0.173886418 0.02884233
v 0.29398489 -0.158258036 -0.130590081
v 0.242800206 -0.16883117 -0.207991779
v -0.157411784 -0.251502395 0.186667025
v -0.192500651 -0.29634276 0.0452227592
v -0.0579081252 -0.230948061 0.163627565
v 0.0827565193 -0.286737502 -0.0391154289
v 0.0319898501 -0.212377965 0.219144046
v -0.0941740647 -0.238439471 -0.227002561
v -0.0589106232 -0.307972252 0.00429105759
v -0.197049409 -0.259690255 -0.155157804
v 0.218327701 -0.173886418 0.02884233
v 0.0319898501 -0.212377965 0.219144046
v 0.182053953 -0.181379437 0.119716294
v -0.29282406 -0.242650762 0.075961709
v -0.157411784 -0.251502395 0.186667025
v -0.246855855 -0.214359805 0.1624403
v -0.192500651 -0.29634276 0.0452227592
v -0.332847923 -0.250918448 0.000665903091
v -0.29876247 -0.243877426 -0.100713968
v -0.197049409 -0.259690255 -0.155157804
v 0.372283667 -1.49011612e-08 -0.0130769461
v 0.342839003 -0.0567988157 -0.239746034
v 0.194852412 -1.49011612e-08 -0.30915612
v 0.128343672 0.14797309 -0.039649725
v 0.372283667 -1.49011612e-08 -0.0130769461
v 0.0816732943 -0.0409541167 0.276862383
v 0.27193886 -0.0409541167 0.208454669
v 0.194852412 -1.49011612e-08 -0.30915612
v 0.0124878678 -1.49011612e-08 -0.337386847
v -0.127517551 -0.0441893749 -0.287275851
v 0.128343672 0.14797309 -0.039649725
v -0.0765226707 0.136583552 0.0225020647
v -0.218966335 -1.49011612e-08 0.283638239
v -0.0750729665 -1.49011612e-08 0.293017834
v -0.269708753 0.145632267 0.0811104774
v -0.0750729665 -1.49011612e-08 0.293017834
v 0.0816732943 -0.0409541167 0.276862383
v 0.128343672 0.14797309 -0.039649725
v -0.0765226707 0.136583552 0.0225020647
v -0.127517551 -0.0441893749 -0.287275851
v -0.276286691 -0.0672401637 -0.205805659
v -0.269708753 0.145632267 0.0811104774
v -0.0765226707 0.136583552 0.0225020647
v -0.276286691 -0.0672401637 -0.205805659
v -0.42337507 -0.0474676937 -0.127849936
v -0.472666442 -1.49011612e-08 0.0173113346
v -0.414787441 0 0.125124097
v -0.218966335 -1.49011612e-08 0.283638239
v -0.348312318 -0.0294208992 0.248948991
v 0.194852412 -1.49011612e-08 -0.30915612
v 0.342839003 -0.0567988157 -0.239746034
v 0.242800206 -0.16883117 -0.207991779
v 0.128747985 -0.19239077 -0.273082495
v 0.342839003 -0.0567988157 -0.239746034
v 0.372283667 -1.49011612e-08 -0.0130769461
v 0.218327701 -0.173886418 0.02884233
v 0.29398489 -0.158258036 -0.130590081
v -0.127517551 -0.0441893749 -0.287275851
v 0.0124878678 -1.49011612e-08 -0.337386847
v 0.002641086 -0.218440503 -0.294900417
v -0.0941740647 -0.238439471 -0.227002561
v 0.0124878678 -1.49011612e-08 -0.337386847
v 0.194852412 -1.49011612e-08 -0.30915612
v 0.128747985 -0.19239077 -0.273082495
v 0.002641086 -0.218440503 -0.294900417
v 0.372283667 -1.49011612e-08 -0.0130769461
v 0.27193886 -0.0409541167 0.208454669
v 0.182053953 -0.181379437 0.119716294
v 0.218327701 -0.173886418 0.02884233
v 0.27193886 -0.0409541167 0.208454669
v 0.0816732943 -0.0409541167 0.276862383
v 0.0319898501 -0.212377965 0.219144046
v 0.182053953 -0.181379437 0.119716294
v 0.0816732943 -0.0409541167 0.276862383
v -0.0750729665 -1.49011612e-08 0.293017834
v -0.0579081252 -0.230948061 0.163627565
v 0.0319898501 -0.212377965 0.219144046
v -0.0750729665 -1.49011612e-08 0.293017834
v -0.218966335 -1.49011612e-08 0.283638239
v -0.157411784 -0.251502395 0.186667025
v -0.0579081252 -0.230948061 0.163627565
v -0.276286691 -0.0672401637 -0.205805659
v -0.127517551 -0.0441893749 -0.287275851
v -0.0941740647 -0.238439471 -0.227002561
v -0.197049409 -0.259690255 -0.155157804
v -0.218966335 -1.49011612e-08 0.283638239
v -0.348312318 -0.0294208992 0.248948991
v -0.246855855 -0.214359805 0.1624403
v -0.157411784 -0.251502395 0.186667025
v -0.348312318 -0.0294208992 0.248948991
v -0.29282406 -0.242650762 0.075961709
v -0.246855855 -0.214359805 0.1624403
v -0.414787441 0 0.125124097
v -0.472666442 -1.49011612e-08 0.0173113346
v -0.332847923 -0.250918448 0.000665903091
v -0.29282406 -0.242650762 0.075961709
v -0.472666442 -1.49011612e-08 0.0173113346
v -0.42337507 -0.0474676937 -0.127849936
v -0.29876247 -0.243877426 -0.100713968
v -0.332847923 -0.250918448 0.000665903091
v -0.42337507 -0.0474676937 -0.127849936
v -0.276286691 -0.0672401637 -0.205805659
v -0.197049409 -0.259690255 -0.155157804
v -0.29876247 -0.243877426 -0.100713968
vt 0.704327404 0.155751824
vt 0.467455208 0.291491747
vt 0.584353507 0.113872111
vt 0.886920452 0.572962523
vt 0.989809752 0.447724849
vt 1.13551903 0.509639919
vt 0.322064489 0.110912085
vt 0.458225965 0.0490377545
vt 0.584353507 0.113872111
vt 0.467455208 0.291491747
vt 0.305860966 0.275159597
vt 0.59000653 0.398214906
vt 0.716236115 0.293584973
vt 0.704327404 0.155751824
vt 0.148901403 0.390420467
vt 0.153479993 0.2597588
vt 0.26021865 0.408088177
vt 0.467455208 0.291491747
vt 0.338419586 0.487553328
vt 0.322064489 0.110912085
vt 0.305860966 0.275159597
vt 0.207424223 0.0913715363
vt 0.59000653 0.398214906
vt 0.338419586 0.487553328
vt 0.511221707 0.500226855
vt 0.0390449166 0.248193115
vt 0.148901403 0.390420467
vt 0.062007606 0.337154359
vt 0.153479993 0.2597588
vt 0.019051671 0.170735627
vt 0.0845817924 0.0990122855
vt 0.207424223 0.0913715363
vt 0.0608198754 0.758312345
vt -0.0190497264 1.04026282
vt 0.203728437 1.12701666
vt 0.277099639 0.841301084
vt 0.0608198754 0.758312345
vt 0.358088762 0.525919914
vt 0.118688166 0.588860273
vt 0.203728437 1.12701666
vt 0.404909521 1.15366042
vt 0.559360802 1.01022792
vt 0.277099639 0.841301084
vt 0.50310415 0.788293958
vt 0.660245359 0.56558013
vt 0.501504958 0.59371531
vt 0.7162233 0.738309026
vt 0.501504958 0.59371531
vt 0.358088762 0.525919914
vt 0.277099639 0.841301084
vt 0.50310415 0.788293958
vt 0.559360802 1.01022792
vt 0.723480046 0.983009696
vt 0.7162233 0.738309026
vt 0.50310415 0.788293958
vt 0.723480046 0.983009696
vt 0.885745108 0.916523933
vt 0.940122306 0.792720914
vt 0.876271427 0.700771213
vt 0.660245359 0.56558013
vt 0.802937329 0.595165253
vt 1.09534502 0.662457347
vt 0.92511791 0.662974119
vt 1.13551903 0.509639919
vt 1.21780825 0.509390354
vt 0.848723054 0.482950896
vt 0.961644351 0.282103777
vt 1.15317607 0.325524509
vt 0.989809752 0.447724849
vt 1.42806435 0.541978538
vt 1.28356409 0.689942777
vt 1.3087945 0.522676945
vt 1.37864733 0.45114997
vt 1.28356409 0.689942777
vt 1.09534502 0.662457347
vt 1.21780825 0.509390354
vt 1.3087945 0.522676945
vt 0.961644351 0.282103777
vt 1.01578403 0.107297882
vt 1.17934787 0.241021931
vt 1.15317607 0.325524509
vt 1.01578403 0.107297882
vt 1.23976016 0.0423689634
vt 1.28761959 0.209634796
vt 1.17934787 0.241021931
vt 1.23976016 0.0423689634
vt 1.37393606 0.112306431
vt 1.35248125 0.243443161
vt 1.28761959 0.209634796
vt 1.37393606 0.112306431
vt 1.5224489 0.0832821876
vt 1.42427349 0.229412585
vt 1.35248125 0.243443161
vt 1.58160937 0.51390034
vt 1.42806435 0.541978538
vt 1.37864733 0.45114997
vt 1.45287204 0.437576681
vt 1.5224489 0.0832821876
vt 1.65594733 0.11380212
vt 1.48880756 0.244166136
vt 1.42427349 0.229412585
vt 1.65594733 0.11380212
vt 1.52197385 0.29682979
vt 1.48880756 0.244166136
vt 1.72455633 0.222744659
vt 1.78429353 0.317599535
vt 1.55085111 0.342683315
vt 1.52197385 0.29682979
vt 1.78429353 0.317599535
vt 1.73341978 0.44531408
vt 1.52625835 0.404421479
vt 1.55085111 0.342683315
vt 1.73341978 0.44531408
vt 1.58160937 0.51390034
vt 1.45287204 0.437576681
vt 1.52625835 0.404421479
vn 0.202297539 -0.979324102 0
vn 0.202297553 -0.979324102 0
vn 0.202297553 -0.979324102 0
vn 0.711865842 -0.661351979 -0.23634842
vn 0.711865783 -0.661352038 -0.23634842
vn 0.711865842 -0.661351979 -0.23634842
vn 0.202297598 -0.979324102 0
vn 0.202297583 -0.979324102 0
vn 0.202297568 -0.979324102 0
vn 0.202297598 -0.979324102 0
vn 0.202297568 -0.979324102 0
vn 0.202297658 -0.979324102 0
vn 0.202297658 -0.979324102 0
vn 0.202297539 -0.979324102 0
vn 0.202297613 -0.979324102 0
vn 0.202297628 -0.979324102 0
vn 0.202297524 -0.979324162 0
vn 0.202297643 -0.979324102 0
vn 0.202297539 -0.979324162 0
vn 0.202297539 -0.979324102 0
vn 0.202297539 -0.979324102 0
vn 0.202297539 -0.979324102 0
vn 0.202297658 -0.979324102 0
vn 0.202297658 -0.979324102 0
vn 0.202297658 -0.979324102 0
vn 0.202297628 -0.979324102 0
vn 0.202297598 -0.979324102 0
vn 0.202297628 -0.979324102 0
vn 0.202297598 -0.979324102 0
vn 0.202297598 -0.979324102 0
vn 0.202297598 -0.979324102 0
vn 0.202297598 -0.979324102 0
vn 0 1 0
vn 0 1 0
vn 0 1 0
vn 0 1 0
vn 0 1 0
vn 0 1 0
vn 0 1 0
vn 0 1 0
vn 0 1 0
vn 0 1 0
vn 0 1 0
vn 0 1 0
vn 0 1 0
vn 0 1 0
vn 0 1 0
vn 0 1 0
vn 0 1 0
vn 0 1 0
vn 0 1 0
vn 0 1 0
vn 0 1 0
vn 0 1 0
vn 0 1 0
vn 0 1 0
vn 0 1 0
vn 0 1 0
vn 0 1 0
vn 0 1 0
vn 0 1 0
vn 0.0395897999 -0.505293846 -0.862038791
vn 0.0395898037 -0.505293846 -0.862038791
vn 0.0395898037 -0.505293846 -0.862038791
vn 0.0395898037 -0.505293846 -0.862038791
vn 0.761026382 -0.551861405 0.341010004
vn 0.761026442 -0.551861405 0.341010004
vn 0.761026442 -0.551861405 0.341010004
vn 0.761026382 -0.551861405 0.341010004
vn -0.731334686 -0.272056937 -0.625407457
vn -0.731334686 -0.272056937 -0.625407457
vn -0.731334686 -0.272056937 -0.625407517
vn -0.731334686 -0.272056937 -0.625407457
vn 0.187941328 -0.478541225 -0.857715786
vn 0.187941298 -0.478541225 -0.857715786
vn 0.187941343 -0.478541225 -0.857715786
vn 0.187941328 -0.478541285 -0.857715786
vn 0.826537132 -0.523950756 0.205698654
vn 0.826537132 -0.523950696 0.205698624
vn 0.826537132 -0.523950815 0.205698639
vn 0.826537132 -0.523950756 0.205698624
vn 0.317390174 -0.499750495 0.805923641
vn 0.317390233 -0.499750495 0.805923641
vn 0.317390174 -0.499750435 0.805923641
vn 0.317390174 -0.499750495 0.805923641
vn -0.467035919 -0.355540395 0.809610009
vn -0.467035979 -0.355540425 0.809610069
vn -0.467035979 -0.355540395 0.809610069
vn -0.467035979 -0.355540395 0.809610069
vn 0.238073498 -0.311936647 0.919791579
vn 0.238073528 -0.311936647 0.919791579
vn 0.238073498 -0.311936617 0.919791579
vn 0.238073513 -0.311936647 0.91979152
vn -0.183255166 -0.252950579 -0.949965
vn -0.183255151 -0.252950519 -0.949965
vn -0.183255151 -0.252950549 -0.949965
vn -0.183255151 -0.252950579 -0.949965
vn -0.210034877 -0.382267237 0.899864972
vn -0.210034862 -0.382267237 0.899864972
vn -0.210034877 -0.382267207 0.899864972
vn -0.210034862 -0.382267207 0.899864972
vn -0.788233936 -0.429364026 0.440832973
vn -0.788234055 -0.429364026 0.440832943
vn -0.788234055 -0.429364085 0.440832943
vn -0.788234055 -0.429364026 0.440832943
vn -0.793338239 -0.417541295 0.443027705
vn -0.793338239 -0.417541295 0.443027705
vn -0.793338239 -0.417541265 0.443027705
vn -0.861896157 -0.406534702 -0.303091735
vn -0.861896157 -0.406534672 -0.303091735
vn -0.861896098 -0.406534731 -0.303091735
vn -0.861896157 -0.406534702 -0.303091764
vn -0.431248188 -0.285855144 -0.85575217
vn -0.431248218 -0.285855114 -0.85575223
vn -0.431248188 -0.285855144 -0.85575217
vn -0.431248218 -0.285855114 -0.85575223
g submesh_0
usemtl submesh_0
f 1/1/1 2/2/2 3/3/3
f 4/4/4 5/5/5 6/6/6
f 7/7/7 8/8/8 9/9/9
f 9/9/9 10/10/10 7/7/7
f 10/10/10 11/11/11 7/7/7
f 12/12/12 10/10/10 13/13/13
f 13/13/13 10/10/10 14/14/14
f 15/15/15 16/16/16 11/11/11
f 15/15/15 11/11/11 17/17/17
f 17/17/17 11/11/11 18/18/18
f 17/17/17 18/18/18 19/19/19
f 20/20/20 21/21/21 16/16/16
f 20/20/20 16/16/16 22/22/22
f 23/23/23 24/24/24 18/18/18
f 23/23/23 25/25/25 24/24/24
f 26/26/26 27/27/27 28/28/28
f 26/26/26 29/29/29 27/27/27
f 29/29/29 26/26/26 30/30/30
f 29/29/29 30/30/30 31/31/31
f 31/31/31 32/32/32 29/29/29
f 33/33/33 34/34/34 35/35/35
f 33/33/33 35/35/35 36/36/36
f 37/37/37 36/36/36 38/38/38
f 37/37/37 38/38/38 39/39/39
f 40/40/40 41/41/41 42/42/42
f 42/42/42 43/43/43 40/40/40
f 42/42/42 44/44/44 43/43/43
f 45/45/45 46/46/46 44/44/44
f 45/45/45 44/44/44 47/47/47
f 48/48/48 49/49/49 50/50/50
f 48/48/48 50/50/50 51/51/51
f 52/52/52 53/53/53 54/54/54
f 52/52/52 54/54/54 55/55/55
f 54/54/54 56/56/56 57/57/57
f 57/57/57 58/58/58 54/54/54
f 58/58/58 59/59/59 54/54/54
f 59/59/59 60/60/60 54/54/54
f 59/59/59 61/61/61 60/60/60
f 62/62/62 63/63/63 64/64/64
f 62/62/62 64/64/64 65/65/65
f 66/66/66 67/67/67 68/68/68
f 66/66/66 68/68/68 69/69/69
f 70/70/70 71/71/71 72/72/72
f 70/70/70 72/72/72 73/73/73
f 74/74/74 75/75/75 76/76/76
f 74/74/74 76/76/76 77/77/77
f 78/78/78 79/79/79 80/80/80
f 78/78/78 80/80/80 81/81/81
f 82/82/82 83/83/83 84/84/84
f 82/82/82 84/84/84 85/85/85
f 86/86/86 87/87/87 88/88/88
f 86/86/86 88/88/88 89/89/89
f 90/90/90 91/91/91 92/92/92
f 90/90/90 92/92/92 93/93/93
f 94/94/94 95/95/95 96/96/96
f 94/94/94 96/96/96 97/97/97
f 98/98/98 99/99/99 100/100/100
f 98/98/98 100/100/100 101/101/101
f 102/102/102 103/103/103 104/104/104
f 102/102/102 105/105/105 103/103/103
f 105/105/105 106/106/106 107/107/107
f 105/105/105 107/107/107 108/108/108
f 109/109/109 110/110/110 111/111/111
f 109/109/109 111/111/111 112/112/112
f 113/113/113 114/114/114 115/115/115
f 113/113/113 115/115/115 116/116/116
