g BarrierDevice_base
v 6.36216736 2.25409436 0
v 14.9467316 6.60171986 6.19112301
v 16.178215 6.60171986 0
v 5.8779068 2.25409436 2.43469524
v 11.4397507 6.60171986 11.4397202
v 4.49872589 2.25409436 4.4987483
v 6.19112396 6.60171986 14.9467211
v 2.43470764 2.25409436 5.87789202
v -0 6.60171986 16.178215
v -0 2.25409436 6.36217594
v -6.19112396 6.60171986 14.946722
v -2.43470764 2.25409436 5.87789202
v -11.4397125 6.60171986 11.4397316
v -4.49875641 2.25409436 4.498734
v -14.9467316 6.60171986 6.19113302
v -5.8779068 2.25409436 2.43469524
v -16.1782074 6.60171986 0
v -6.36216736 2.25409436 0
v -0 7.73245144 4.93891809E-17
v 12.27771 7.90177059 0
v 11.343132 7.90177059 4.69846725
v 8.68167114 7.90177059 8.68164635
v 4.69847107 7.90177059 11.3431234
v -0 7.90177059 12.2777119
v -4.69846344 7.90177059 11.3431244
v -8.68164062 7.90177059 8.68165684
v -11.343132 7.90177059 4.69847584
v -12.27771 7.90177059 0
v -14.9467316 8.79443264 6.19113302
v -16.1782074 6.60171986 0
v -16.1782074 8.79443264 0
v -14.9467316 6.60171986 6.19113302
v -11.4397125 8.79443264 11.4397316
v -11.4397125 6.60171986 11.4397316
v -6.19112396 8.79443264 14.946722
v -6.19112396 6.60171986 14.946722
v -0 8.79443264 16.178215
v -0 6.60171986 16.178215
v 6.19112396 8.79443264 14.9467211
v 6.19112396 6.60171986 14.9467211
v 11.4397507 8.79443264 11.4397202
v 11.4397507 6.60171986 11.4397202
v 14.9467316 8.79443264 6.19112301
v 14.9467316 6.60171986 6.19112301
v 16.178215 8.79443264 0
v 16.178215 6.60171986 0
v 6.36216736 2.25409436 0
v 16.178215 6.60171986 0
v 14.9467316 6.60171986 -6.19112301
v 5.8779068 2.25409436 -2.43469524
v 11.4397507 6.60171986 -11.4397202
v 4.49872589 2.25409436 -4.4987483
v 6.19112396 6.60171986 -14.9467211
v 2.43470764 2.25409436 -5.87789202
v -0 6.60171986 -16.178215
v -0 2.25409436 -6.36217594
v -6.19112396 6.60171986 -14.946722
v -2.43470764 2.25409436 -5.87789202
v -11.4397125 6.60171986 -11.4397316
v -4.49875641 2.25409436 -4.498734
v -14.9467316 6.60171986 -6.19113302
v -5.8779068 2.25409436 -2.43469524
v -16.1782074 6.60171986 0
v -6.36216736 2.25409436 0
v 16.178215 8.79443264 0
v 14.9467316 6.60171986 -6.19112301
v 16.178215 6.60171986 0
v 14.9467316 8.79443264 -6.19112301
v 11.4397507 8.79443264 -11.4397202
v 11.4397507 6.60171986 -11.4397202
v 6.19112396 8.79443264 -14.9467211
v 6.19112396 6.60171986 -14.9467211
v -0 8.79443264 -16.178215
v -0 6.60171986 -16.178215
v -6.19112396 8.79443264 -14.946722
v -6.19112396 6.60171986 -14.946722
v -11.4397125 8.79443264 -11.4397316
v -11.4397125 6.60171986 -11.4397316
v -14.9467316 8.79443264 -6.19113302
v -14.9467316 6.60171986 -6.19113302
v -16.1782074 8.79443264 0
v -16.1782074 6.60171986 0
v -0 7.73245144 4.93891809E-17
v 11.343132 7.90177059 -4.69846725
v 12.27771 7.90177059 0
v 8.68167114 7.90177059 -8.68164635
v 4.69847107 7.90177059 -11.3431234
v -0 7.90177059 -12.2777119
v -4.69846344 7.90177059 -11.3431244
v -8.68164062 7.90177059 -8.68165684
v -11.343132 7.90177059 -4.69847584
v -12.27771 7.90177059 0
v 9.2637558 -6.9841547 8.79030358E-06
v 7.87308502 -0.291943312 3.26114917
v 8.5217514 -0.291943312 8.79030358E-06
v 8.55860138 -6.9841547 3.5450983
v 6.02579498 -0.291943312 6.025805
v 6.55045319 -6.9841547 6.55047178
v 3.26115417 -0.291943312 7.87308073
v 3.54508209 -6.9841547 8.55859375
v 7.62939453E-06 -0.291943312 8.52176762
v 7.62939453E-06 -6.9841547 9.26375771
v -3.26113129 -0.291943312 7.87308073
v -3.5450592 -6.9841547 8.55859375
v -6.02577209 -0.291943312 6.02581787
v -6.55043793 -6.9841547 6.55047846
v -7.87306213 -0.291943312 3.26114917
v -8.55858612 -6.9841547 3.5450983
v -8.52172852 -0.291943312 8.79030358E-06
v -9.26373291 -6.98416042 8.79030358E-06
v -10.1335297 -7.55107594 8.79030358E-06
v -9.26373291 -6.98416042 8.79030358E-06
v -8.55858612 -6.9841547 3.5450983
v -9.36213684 -7.55107594 3.87794781
v -9.56155396 -8.11799049 8.79030358E-06
v -6.55043793 -6.9841547 6.55047846
v -8.83369446 -8.11799049 3.65906286
v -10.1923141 -13.4206095 8.79030358E-06
v -9.41642761 -13.4206095 3.90043402
v -7.16551208 -7.55107594 7.16552162
v -3.5450592 -6.9841547 8.55859375
v -6.76099396 -8.11799049 6.7610302
v -7.20701599 -13.4206095 7.20704269
v -3.87789917 -7.55107594 9.36218262
v 7.62939453E-06 -6.9841547 9.26375771
v -3.65901947 -8.11799049 8.83371067
v -3.90040588 -13.4206095 9.41646576
v 7.62939453E-06 -7.55107594 10.1335392
v 3.54508209 -6.9841547 8.55859375
v 7.62939453E-06 -8.11799049 9.56154442
v 7.62939453E-06 -13.4206095 10.1922989
v 3.87792206 -7.55107594 9.36218262
v 6.55045319 -6.9841547 6.55047178
v 3.65904236 -8.11799049 8.83371067
v 3.90042114 -13.4206095 9.41646576
v 7.16547394 -7.55107594 7.1655159
v 8.55860138 -6.9841547 3.5450983
v 6.76100922 -8.11799049 6.7610302
v 7.20703125 -13.4206095 7.20704985
v 9.36215973 -7.55107594 3.87794781
v 9.2637558 -6.9841547 8.79030358E-06
v 10.1335526 -7.55107594 8.79030358E-06
v 8.83370972 -8.11799049 3.6590426
v 9.4164505 -13.4206095 3.90044022
v 9.56152344 -8.11799049 8.79030358E-06
v 10.192276 -13.4206095 8.79030358E-06
v -8.52172852 -0.291943312 8.79030358E-06
v -8.52418518 2.88193059 8.79030358E-06
v -7.87535858 2.88193059 3.26208901
v -7.87306213 -0.291943312 3.26114917
v -6.02577209 -0.291943312 6.02581787
v -6.02751923 2.88193059 6.02754402
v -3.26113129 -0.291943312 7.87308073
v -3.2620697 2.88193059 7.87537098
v 7.62939453E-06 -0.291943312 8.52176762
v 7.62939453E-06 2.88193059 8.5242281
v 3.26115417 -0.291943312 7.87308073
v 3.26209259 2.88193059 7.87537098
v 6.02579498 -0.291943312 6.025805
v 6.02751923 2.88193059 6.02756023
v 7.87308502 -0.291943312 3.26114917
v 7.87532806 2.88193059 3.26208901
v 8.5217514 -0.291943312 8.79030358E-06
v 8.52420044 2.88193059 8.79030358E-06
v 9.2637558 -6.9841547 8.79030358E-06
v 8.5217514 -0.291943312 8.79030358E-06
v 7.87308502 -0.291943312 -3.26113153
v 8.55860138 -6.9841547 -3.54507875
v 6.02579498 -0.291943312 -6.02578735
v 6.55045319 -6.9841547 -6.55045414
v 3.26115417 -0.291943312 -7.87306309
v 3.54508209 -6.9841547 -8.55857563
v 7.62939453E-06 -0.291943312 -8.52175045
v 7.62939453E-06 -6.9841547 -9.26374054
v -3.26113129 -0.291943312 -7.87306309
v -3.5450592 -6.9841547 -8.55857563
v -6.02577209 -0.291943312 -6.02580023
v -6.55043793 -6.9841547 -6.55046082
v -7.87306213 -0.291943312 -3.26113153
v -8.55858612 -6.9841547 -3.54508066
v -8.52172852 -0.291943312 8.79030358E-06
v -9.26373291 -6.98416042 8.79030358E-06
v 9.56152344 -8.11799049 8.79030358E-06
v 9.4164505 -13.4206095 -3.90042257
v 10.192276 -13.4206095 8.79030358E-06
v 8.83370972 -8.11799049 -3.65902519
v 10.1335526 -7.55107594 8.79030358E-06
v 6.76100922 -8.11799049 -6.76101303
v 7.20703125 -13.4206095 -7.2070322
v 9.36215973 -7.55107594 -3.87793303
v 9.2637558 -6.9841547 8.79030358E-06
v 8.55860138 -6.9841547 -3.54507875
v 7.16547394 -7.55107594 -7.16549778
v 6.55045319 -6.9841547 -6.55045414
v 3.65904236 -8.11799049 -8.8336935
v 3.90042114 -13.4206095 -9.41644859
v 3.87792206 -7.55107594 -9.3621645
v 3.54508209 -6.9841547 -8.55857563
v 7.62939453E-06 -8.11799049 -9.56152725
v 7.62939453E-06 -13.4206095 -10.1922808
v 7.62939453E-06 -7.55107594 -10.1335211
v 7.62939453E-06 -6.9841547 -9.26374054
v -3.65901947 -8.11799049 -8.8336935
v -3.90040588 -13.4206095 -9.41644859
v -3.87789917 -7.55107594 -9.3621645
v -3.5450592 -6.9841547 -8.55857563
v -6.76099396 -8.11799049 -6.76101303
v -7.20701599 -13.4206095 -7.2070322
v -7.16551208 -7.55107594 -7.16549778
v -6.55043793 -6.9841547 -6.55046082
v -8.83369446 -8.11799049 -3.65904522
v -9.41642761 -13.4206095 -3.90041637
v -9.36213684 -7.55107594 -3.87793016
v -8.55858612 -6.9841547 -3.54508066
v -9.56155396 -8.11799049 8.79030358E-06
v -10.1923141 -13.4206095 8.79030358E-06
v -10.1335297 -7.55107594 8.79030358E-06
v -9.26373291 -6.98416042 8.79030358E-06
v 7.87532806 2.88193059 -3.26207137
v 8.5217514 -0.291943312 8.79030358E-06
v 8.52420044 2.88193059 8.79030358E-06
v 7.87308502 -0.291943312 -3.26113153
v 6.02751923 2.88193059 -6.02754259
v 6.02579498 -0.291943312 -6.02578735
v 3.26209259 2.88193059 -7.87535286
v 3.26115417 -0.291943312 -7.87306309
v 7.62939453E-06 2.88193059 -8.52421093
v 7.62939453E-06 -0.291943312 -8.52175045
v -3.2620697 2.88193059 -7.87535286
v -3.26113129 -0.291943312 -7.87306309
v -6.02751923 2.88193059 -6.02752304
v -6.02577209 -0.291943312 -6.02580023
v -7.87535858 2.88193059 -3.26207137
v -7.87306213 -0.291943312 -3.26113153
v -8.52172852 -0.291943312 8.79030358E-06
v -8.52418518 2.88193059 8.79030358E-06
v 11.3635712 -20.3078938 7.59329557
v 7.59256744 -20.3077202 11.3635635
v 6.78501129 -15.142354 10.1554623
v 10.1554718 -15.142354 6.78628206
v 6.51657104 -13.4205999 9.75274849
v 9.7527771 -13.4205999 6.51657486
v 11.9791641 -15.142354 2.38342714
v 11.5041656 -13.4205999 2.28831244
v 2.28833771 -13.4205999 11.5041523
v 2.382164 -15.142354 11.979166
v -2.28833008 -13.4205999 11.5041676
v -2.38341522 -15.142354 11.9791756
v -6.51657104 -13.4205999 9.75276089
v -6.78626251 -15.142354 10.1554594
v 7.74164581 -13.4205999 5.17279482
v 9.13185883 -13.4205999 1.81643307
v 9.13187408 -13.4205999 -1.81643009
v 5.17280579 -13.4205999 7.74161291
v 1.81645203 -13.4205999 9.13187599
v -1.8164444 -13.4205999 9.13188362
v -5.17279816 -13.4205999 7.74162483
v -7.74163818 -13.4205999 5.17280149
v -9.7527771 -13.4205999 6.5165906
v -9.1318512 -13.4205999 1.81644332
v -10.1554489 -15.142354 6.78502846
v -7.59320068 -20.3076134 11.363554
v -11.3635635 -20.3077202 7.59257221
v -11.5041656 -13.4205999 2.28828812
v -9.13188171 -13.4205999 -1.81643713
v -11.9791641 -15.142354 2.38216686
v -11.5041656 -13.4205999 -2.28827
v -11.9791718 -15.142354 -2.38341498
v 11.3635788 -20.3080349 -7.59244347
v 6.78660583 -15.142354 -10.4636593
v 7.59289551 -20.3076134 -11.3635502
v 10.1554642 -15.142354 -6.78503036
v 6.51659393 -13.4205999 -9.75273609
v 9.75276184 -13.4205999 -6.51657009
v 11.9791641 -15.142354 -2.38217092
v 2.28833008 -13.4205999 -11.504137
v 2.38373566 -15.142354 -12.2873926
v 11.5041656 -13.4205999 -2.28830838
v 11.9791641 -15.142354 2.38342714
v 11.5041656 -13.4205999 2.28831244
v 9.13187408 -13.4205999 -1.81643009
v 7.74163055 -13.4205999 -5.17279053
v 5.17279816 -13.4205999 -7.74161148
v 1.8164444 -13.4205999 -9.13185787
v -1.8164444 -13.4205999 -9.13188934
v -2.28832245 -13.4205999 -11.5041637
v -2.38185883 -15.142354 -12.2873821
v -5.17279053 -13.4205999 -7.74161959
v -6.51657867 -13.4205999 -9.7527504
v -7.74163818 -13.4205999 -5.17279053
v -6.78471375 -15.142354 -10.4636698
v -9.75276184 -13.4205999 -6.51657581
v -9.13188171 -13.4205999 -1.81643713
v -11.5041656 -13.4205999 -2.28827
v -10.1554565 -15.142354 -6.78628063
v -11.9791718 -15.142354 -2.38341498
v -7.59288025 -20.3076134 -11.3635483
v -11.3635635 -20.3076134 -7.59320545
v 3.59947205 -22.947607 -18.0957108
v -3.38767242 -20.308136 -17.0310497
v -3.59944916 -22.9480286 -18.0957012
v 3.38770294 -20.3079338 -17.0310555
v -2.66625977 -20.3076134 -13.4041948
v 10.2503891 -22.947607 -15.340826
v 2.66628265 -20.3076134 -13.4042253
v 9.64732361 -20.3079338 -14.438242
v 15.3407974 -22.947607 -10.2504005
v 7.59289551 -20.3076134 -11.3635502
v 14.4382401 -20.3079338 -9.64732552
v 18.0957031 -22.9478168 -3.5994544
v 11.3635788 -20.3080349 -7.59244347
v 17.0310593 -20.3080349 -3.38768005
v 13.4042282 -20.3080349 -2.66624784
v -15.3407898 -22.9480286 -10.2504158
v -17.0310516 -20.308136 -3.38769579
v -18.0957031 -22.9480286 -3.59946704
v -14.4382324 -20.308136 -9.64734077
v -13.4042206 -20.3076134 -2.66624784
v -10.2503815 -22.9480286 -15.3408041
v -11.3635635 -20.3076134 -7.59320545
v -9.64730835 -20.308136 -14.4382477
v -3.59944916 -22.9480286 -18.0957012
v -7.59288025 -20.3076134 -11.3635483
v -3.38767242 -20.308136 -17.0310497
v -2.66625977 -20.3076134 -13.4041948
v 18.0957031 -22.9478168 3.59945917
v 17.0310593 -20.3080349 -3.38768005
v 18.0957031 -22.9478168 -3.5994544
v 17.0310593 -20.3080349 3.38768411
v 13.4042282 -20.3080349 -2.66624784
v 13.4042282 -20.3080349 2.66625261
v 3.59947205 -22.947607 18.0957146
v -3.59944916 -22.9480286 18.0957031
v -3.38767242 -20.308136 17.0310555
v 3.38770294 -20.3079338 17.0310593
v -2.66625977 -20.3076134 13.404211
v 10.2503891 -22.947607 15.3408318
v 2.66628265 -20.3076134 13.4042282
v 9.64732361 -20.3079338 14.4382477
v 15.3407974 -22.947607 10.2504034
v 7.59256744 -20.3077202 11.3635635
v 14.4382401 -20.3079338 9.64733124
v 18.0957031 -22.9478168 3.59945917
v 11.3635712 -20.3078938 7.59329557
v 17.0310593 -20.3080349 3.38768411
v 13.4042282 -20.3080349 2.66625261
v -3.38767242 -20.308136 17.0310555
v -7.59320068 -20.3076134 11.363554
v -2.66625977 -20.3076134 13.404211
v -9.64730835 -20.308136 14.4382524
v -3.59944916 -22.9480286 18.0957031
v -11.3635635 -20.3077202 7.59257221
v -10.2503891 -22.9480286 15.3408089
v -14.4382324 -20.308136 9.64734459
v -13.4042206 -20.3076134 2.66625357
v -15.3407898 -22.9480286 10.2504187
v -17.0310516 -20.308136 3.38770008
v -13.4042206 -20.3076134 -2.66624784
v -18.0957031 -22.9480286 3.59947205
v -17.0310516 -20.308136 -3.38769579
v -18.0957031 -22.9480286 -3.59946704
v 14.9467316 8.79443264 6.19112301
v 12.27771 8.76753521 0
v 16.178215 8.79443264 0
v 11.343132 8.76753521 4.69846725
v 11.4397507 8.79443264 11.4397202
v 8.68167114 8.76753521 8.68164635
v 6.19112396 8.79443264 14.9467211
v 4.69847107 8.76753521 11.3431234
v -0 8.79443264 16.178215
v -0 8.76753521 12.2777119
v -6.19112396 8.79443264 14.946722
v -4.69846344 8.76753521 11.3431244
v -11.4397125 8.79443264 11.4397316
v -8.68164062 8.76753521 8.68165684
v -14.9467316 8.79443264 6.19113302
v -11.343132 8.76753521 4.69847584
v -16.1782074 8.79443264 0
v -12.27771 8.76753521 0
v 16.178215 8.79443264 0
v 12.27771 8.76753521 0
v 11.343132 8.76753521 -4.69846725
v 14.9467316 8.79443264 -6.19112301
v 8.68167114 8.76753521 -8.68164635
v 11.4397507 8.79443264 -11.4397202
v 4.69847107 8.76753521 -11.3431234
v 6.19112396 8.79443264 -14.9467211
v -0 8.76753521 -12.2777119
v -0 8.79443264 -16.178215
v -4.69846344 8.76753521 -11.3431244
v -6.19112396 8.79443264 -14.946722
v -8.68164062 8.76753521 -8.68165684
v -11.4397125 8.79443264 -11.4397316
v -11.343132 8.76753521 -4.69847584
v -14.9467316 8.79443264 -6.19113302
v -12.27771 8.76753521 0
v -16.1782074 8.79443264 0
v 11.343132 8.76753521 4.69846725
v 12.27771 7.90177059 0
v 12.27771 8.76753521 0
v 11.343132 7.90177059 4.69846725
v 8.68167114 8.76753521 8.68164635
v 8.68167114 7.90177059 8.68164635
v 4.69847107 8.76753521 11.3431234
v 4.69847107 7.90177059 11.3431234
v -0 8.76753521 12.2777119
v -0 7.90177059 12.2777119
v -4.69846344 8.76753521 11.3431244
v -4.69846344 7.90177059 11.3431244
v -8.68164062 8.76753521 8.68165684
v -8.68164062 7.90177059 8.68165684
v -11.343132 8.76753521 4.69847584
v -11.343132 7.90177059 4.69847584
v -12.27771 8.76753521 0
v -12.27771 7.90177059 0
v 12.27771 8.76753521 0
v 12.27771 7.90177059 0
v 11.343132 7.90177059 -4.69846725
v 11.343132 8.76753521 -4.69846725
v 8.68167114 7.90177059 -8.68164635
v 8.68167114 8.76753521 -8.68164635
v 4.69847107 7.90177059 -11.3431234
v 4.69847107 8.76753521 -11.3431234
v -0 7.90177059 -12.2777119
v -0 8.76753521 -12.2777119
v -4.69846344 7.90177059 -11.3431244
v -4.69846344 8.76753521 -11.3431244
v -8.68164062 7.90177059 -8.68165684
v -8.68164062 8.76753521 -8.68165684
v -11.343132 7.90177059 -4.69847584
v -11.343132 8.76753521 -4.69847584
v -12.27771 7.90177059 0
v -12.27771 8.76753521 0
v 13.4042282 -20.3080349 -2.66624784
v 12.1782608 -19.0000896 -6.27543736
v 11.3635788 -20.3080349 -7.59244347
v 10.1554642 -15.142354 -6.78503036
v 13.688385 -19.0000896 -2.62959576
v 13.4042282 -20.3080349 2.66625261
v 11.4775314 -16.3556919 -5.89459896
v 11.9791641 -15.142354 -2.38217092
v 12.8960571 -16.3556919 -2.46995258
v 12.8960571 -16.3556404 2.47250485
v 11.9791641 -15.142354 2.38342714
v 13.6884003 -18.9997234 2.63209438
v 11.3635712 -20.3078938 7.59329557
v 12.1782532 -18.9997234 6.27793503
v 10.1554718 -15.142354 6.78628206
v 11.4775238 -16.3556404 5.8971529
v 2.66628265 -20.3076134 13.4042282
v 6.2754364 -19.0000896 12.1782589
v 7.59256744 -20.3077202 11.3635635
v 6.78501129 -15.142354 10.1554623
v 2.6295929 -19.0000896 13.6883898
v -2.66625977 -20.3076134 13.404211
v 5.89459991 -16.3556919 11.4775276
v 2.382164 -15.142354 11.979166
v 2.46994781 -16.3556919 12.8960609
v -2.47250366 -16.3556404 12.8960609
v -2.38341522 -15.142354 11.9791756
v -2.63209534 -18.9997234 13.6884041
v -7.59320068 -20.3076134 11.363554
v -6.27793884 -18.9997234 12.1782551
v -6.78626251 -15.142354 10.1554594
v -5.89715576 -16.3556404 11.4775219
v -2.66625977 -20.3076134 -13.4041948
v -6.2754364 -19.0000896 -12.1782589
v -7.59288025 -20.3076134 -11.3635483
v -6.78471375 -15.142354 -10.4636698
v -2.6295929 -19.0000896 -13.6883907
v 2.66628265 -20.3076134 -13.4042253
v -5.89459991 -16.3556919 -11.4775267
v -2.38185883 -15.142354 -12.2873821
v -2.46995544 -16.3556919 -12.896059
v 2.47250366 -16.3556404 -12.896059
v 2.38373566 -15.142354 -12.2873926
v 2.63209534 -18.9997234 -13.6884193
v 7.59289551 -20.3076134 -11.3635502
v 6.27793884 -18.9997234 -12.178256
v 6.78660583 -15.142354 -10.4636593
v 5.89715576 -16.3556404 -11.4775238
v -13.4042206 -20.3076134 2.66625357
v -12.1782608 -19.0000896 6.27543592
v -11.3635635 -20.3077202 7.59257221
v -10.1554489 -15.142354 6.78502846
v -13.6884003 -19.0000896 2.62959433
v -13.4042206 -20.3076134 -2.66624784
v -11.4775238 -16.3556919 5.89459705
v -11.9791641 -15.142354 2.38216686
v -12.8960571 -16.3556919 2.46995211
v -12.8960571 -16.3556404 -2.47250605
v -11.9791718 -15.142354 -2.38341498
v -13.6884155 -18.9997234 -2.63209629
v -11.3635635 -20.3076134 -7.59320545
v -12.1782608 -18.9997234 -6.27794075
v -10.1554565 -15.142354 -6.78628063
v -11.4775238 -16.3556404 -5.89715242
v -9.10153961 -4.4477663 1.47272837
v -8.50701904 -4.47134686 1.47272837
v -8.59168243 -5.43999577 1.19146967
v -9.18624115 -5.41642094 1.19146812
v -8.64402771 -6.03865719 0.455096841
v -9.85558319 -4.41785336 7.15897568E-06
v -9.23860168 -6.01507664 0.455096841
v -9.01686859 -3.47910953 1.19146812
v -8.64402771 -6.03865719 -0.45509398
v -8.42228699 -3.50269389 1.19146967
v -9.23860168 -6.01507664 -0.45509398
v -8.59166718 -5.43999577 -1.19145715
v -8.96450806 -2.88045573 0.455093622
v -8.3699646 -2.90403819 0.45509851
v -9.18624115 -5.41642094 -1.19145381
v -8.50701904 -4.47134686 -1.47271585
v -8.96450806 -2.88045573 -0.455092281
v -8.3699646 -2.90403819 -0.455092281
v -9.10153961 -4.4477663 -1.47271585
v -8.42228699 -3.50270343 -1.19145715
v -9.01686859 -3.47911906 -1.19145715
v 1.47273254 -4.4477663 9.1015625
v 1.47273254 -4.47134686 8.50704002
v 1.19146729 -5.43999577 8.5916996
v 1.19146729 -5.41642094 9.18624973
v 0.455093384 -6.03865719 8.64404488
v 7.62939453E-06 -4.41785336 9.85559845
v 0.455101013 -6.01507664 9.23862457
v 1.19146729 -3.47911525 9.01688862
v -0.455093384 -6.03865719 8.64404488
v 1.19146729 -3.50269389 8.42230225
v -0.455093384 -6.01507664 9.23861885
v -1.19145966 -5.43999577 8.59168625
v 0.455093384 -2.88045573 8.96452904
v 0.455101013 -2.90403819 8.36998272
v -1.19145203 -5.41642094 9.18626022
v -1.47271729 -4.47134686 8.50704002
v -0.455085754 -2.88045955 8.96451664
v -0.455093384 -2.90403819 8.36998272
v -1.47271729 -4.4477663 9.1015625
v -1.19145966 -3.50270343 8.42230225
v -1.19145966 -3.47911906 9.01688862
v 9.10154724 -4.4477663 -1.47271037
v 8.50702667 -4.47134686 -1.47271085
v 8.59169006 -5.43999577 -1.19145203
v 9.18624115 -5.41642094 -1.19144821
v 8.64403534 -6.03865719 -0.455079287
v 9.85559082 -4.41785336 1.04216315E-05
v 9.23861694 -6.01507664 -0.455083787
v 9.01687622 -3.47911525 -1.19145179
v 8.64403534 -6.03865719 0.455111563
v 8.42228699 -3.50269389 -1.19145203
v 9.23860168 -6.01507664 0.455107063
v 8.5916748 -5.43999577 1.19147468
v 8.96453094 -2.88045382 -0.455080509
v 8.36997223 -2.90403819 -0.455080926
v 9.18625641 -5.41642094 1.19147384
v 8.50702667 -4.47134686 1.4727335
v 8.96450806 -2.88045955 0.455105424
v 8.36997223 -2.90403819 0.455109864
v 9.10154724 -4.4477663 1.47273386
v 8.42228699 -3.50270343 1.19147468
v 9.01687622 -3.47911525 1.19147348
v -1.47270966 -4.4477663 -9.10154533
v -1.47270966 -4.47134686 -8.50702286
v -1.19145203 -5.43999577 -8.59168148
v -1.1914444 -5.41642094 -9.18623161
v -0.455078125 -6.03865719 -8.64402771
v 7.62939453E-06 -4.41785336 -9.85558128
v -0.455085754 -6.01507664 -9.23860741
v -1.19145203 -3.47911525 -9.0168705
v 0.455108643 -6.03865719 -8.64402771
v -1.19145203 -3.50269389 -8.42228413
v 0.455108643 -6.01507664 -9.23860168
v 1.19147491 -5.43999577 -8.59166908
v -0.455078125 -2.88045382 -8.96452332
v -0.455078125 -2.90403819 -8.3699646
v 1.19147491 -5.41642094 -9.18624306
v 1.47273254 -4.47134686 -8.50702286
v 0.455108643 -2.88045573 -8.96450996
v 0.455108643 -2.90403819 -8.3699646
v 1.47273254 -4.4477663 -9.10154533
v 1.19147491 -3.50270343 -8.42228413
v 1.19147491 -3.47911906 -9.0168705
vt 0.8515625 0.284667969
vt 0.90625 0.362304688
vt 0.8515625 0.373291016
vt 0.872558594 0.280517578
vt 0.953125 0.331054688
vt 0.890625 0.268554688
vt 0.984375 0.284667969
vt 0.90234375 0.250732422
vt 0.995117188 0.229614258
vt 0.906738281 0.229614258
vt 0.984375 0.174682617
vt 0.90234375 0.208496094
vt 0.953125 0.128051758
vt 0.890625 0.190673828
vt 0.90625 0.0969238281
vt 0.872558594 0.178710938
vt 0.8515625 0.0859985352
vt 0.8515625 0.174560547
vt 0.247924805 0.745117188
vt 0.424072266 0.745117188
vt 0.410644531 0.813476562
vt 0.372314453 0.870605469
vt 0.315429688 0.908691406
vt 0.247924805 0.921875
vt 0.180541992 0.908691406
vt 0.123474121 0.870605469
vt 0.0853271484 0.813476562
vt 0.0719604492 0.745117188
vt 0.786621094 0.0659179688
vt 0.895507812 0.0241241455
vt 0.895507812 0.0659179688
vt 0.786621094 0.0241241455
vt 0.678222656 0.0659179688
vt 0.678222656 0.0241241455
vt 0.569335938 0.0659179688
vt 0.569335938 0.0241241455
vt 0.460693359 0.0659179688
vt 0.460693359 0.0241241455
vt 0.352050781 0.0659179688
vt 0.352050781 0.0241241455
vt 0.243408203 0.0659179688
vt 0.243408203 0.0241241455
vt 0.134765625 0.0659179688
vt 0.134765625 0.0241241455
vt 0.0260925293 0.0659179688
vt 0.0260925293 0.0241241455
vt 0.8515625 0.284667969
vt 0.8515625 0.373291016
vt 0.90625 0.362304688
vt 0.872558594 0.280517578
vt 0.953125 0.331054688
vt 0.890625 0.268554688
vt 0.984375 0.284667969
vt 0.90234375 0.250732422
vt 0.995117188 0.229614258
vt 0.906738281 0.229614258
vt 0.984375 0.174682617
vt 0.90234375 0.208496094
vt 0.953125 0.128051758
vt 0.890625 0.190673828
vt 0.90625 0.0969238281
vt 0.872558594 0.178710938
vt 0.8515625 0.0859985352
vt 0.8515625 0.174560547
vt 0.0260925293 0.0659179688
vt 0.134765625 0.0241241455
vt 0.0260925293 0.0241241455
vt 0.134765625 0.0659179688
vt 0.243408203 0.0659179688
vt 0.243408203 0.0241241455
vt 0.352050781 0.0659179688
vt 0.352050781 0.0241241455
vt 0.460693359 0.0659179688
vt 0.460693359 0.0241241455
vt 0.569335938 0.0659179688
vt 0.569335938 0.0241241455
vt 0.678222656 0.0659179688
vt 0.678222656 0.0241241455
vt 0.786621094 0.0659179688
vt 0.786621094 0.0241241455
vt 0.895507812 0.0659179688
vt 0.895507812 0.0241241455
vt 0.247924805 0.745117188
vt 0.410644531 0.813476562
vt 0.424072266 0.745117188
vt 0.372314453 0.870605469
vt 0.315429688 0.908691406
vt 0.247924805 0.921875
vt 0.180541992 0.908691406
vt 0.123474121 0.870605469
vt 0.0853271484 0.813476562
vt 0.0719604492 0.745117188
vt 0.529785156 0.58203125
vt 0.587890625 0.743164062
vt 0.529785156 0.743164062
vt 0.587890625 0.58203125
vt 0.645507812 0.743164062
vt 0.645507812 0.58203125
vt 0.702636719 0.743164062
vt 0.702636719 0.58203125
vt 0.759277344 0.743164062
vt 0.759277344 0.58203125
vt 0.81640625 0.743164062
vt 0.81640625 0.58203125
vt 0.873535156 0.743164062
vt 0.873535156 0.58203125
vt 0.931152344 0.743164062
vt 0.931152344 0.58203125
vt 0.989257812 0.743164062
vt 0.989257812 0.58203125
vt 0.962402344 0.495605469
vt 0.962402344 0.510253906
vt 0.91796875 0.510253906
vt 0.91796875 0.495605469
vt 0.962402344 0.483886719
vt 0.873535156 0.510253906
vt 0.91796875 0.483886719
vt 0.962402344 0.392578125
vt 0.91796875 0.392578125
vt 0.873535156 0.495605469
vt 0.829101562 0.510253906
vt 0.873535156 0.483886719
vt 0.873535156 0.392578125
vt 0.829101562 0.495605469
vt 0.784667969 0.510253906
vt 0.829101562 0.483886719
vt 0.829101562 0.392578125
vt 0.784667969 0.495361328
vt 0.740234375 0.510253906
vt 0.784667969 0.483642578
vt 0.784667969 0.392578125
vt 0.740234375 0.495605469
vt 0.695800781 0.510253906
vt 0.740234375 0.483886719
vt 0.740234375 0.392578125
vt 0.695800781 0.495605469
vt 0.651367188 0.510253906
vt 0.695800781 0.483886719
vt 0.695800781 0.392578125
vt 0.651367188 0.495605469
vt 0.606445312 0.510253906
vt 0.606445312 0.495605469
vt 0.651367188 0.483886719
vt 0.651367188 0.392578125
vt 0.606445312 0.483886719
vt 0.606445312 0.392578125
vt 0.954589844 0.529785156
vt 0.954589844 0.56640625
vt 0.911621094 0.56640625
vt 0.911621094 0.529785156
vt 0.868164062 0.529785156
vt 0.868164062 0.56640625
vt 0.825195312 0.529785156
vt 0.825195312 0.56640625
vt 0.781738281 0.529785156
vt 0.781738281 0.56640625
vt 0.737792969 0.529785156
vt 0.736816406 0.56640625
vt 0.6953125 0.529785156
vt 0.6953125 0.56640625
vt 0.651855469 0.529785156
vt 0.651855469 0.56640625
vt 0.608886719 0.529785156
vt 0.608886719 0.56640625
vt 0.529785156 0.58203125
vt 0.529785156 0.743164062
vt 0.587890625 0.743164062
vt 0.587890625 0.58203125
vt 0.645507812 0.743164062
vt 0.645507812 0.58203125
vt 0.702636719 0.743164062
vt 0.702636719 0.58203125
vt 0.759277344 0.743164062
vt 0.759277344 0.58203125
vt 0.81640625 0.743164062
vt 0.81640625 0.58203125
vt 0.873535156 0.743164062
vt 0.873535156 0.58203125
vt 0.931152344 0.743164062
vt 0.931152344 0.58203125
vt 0.989257812 0.743164062
vt 0.989257812 0.58203125
vt 0.606445312 0.483886719
vt 0.651367188 0.392578125
vt 0.606445312 0.392578125
vt 0.651367188 0.483886719
vt 0.606445312 0.495605469
vt 0.695800781 0.483886719
vt 0.695800781 0.392578125
vt 0.651367188 0.495605469
vt 0.606445312 0.510253906
vt 0.651367188 0.510253906
vt 0.695800781 0.495605469
vt 0.695800781 0.510253906
vt 0.740234375 0.483886719
vt 0.740234375 0.392578125
vt 0.740234375 0.495605469
vt 0.740234375 0.510253906
vt 0.784667969 0.483642578
vt 0.784667969 0.392578125
vt 0.784667969 0.495361328
vt 0.784667969 0.510253906
vt 0.829101562 0.483886719
vt 0.829101562 0.392578125
vt 0.829101562 0.495605469
vt 0.829101562 0.510253906
vt 0.873535156 0.483886719
vt 0.873535156 0.392578125
vt 0.873535156 0.495605469
vt 0.873535156 0.510253906
vt 0.91796875 0.483886719
vt 0.91796875 0.392578125
vt 0.91796875 0.495605469
vt 0.91796875 0.510253906
vt 0.962402344 0.483886719
vt 0.962402344 0.392578125
vt 0.962402344 0.495605469
vt 0.962402344 0.510253906
vt 0.651855469 0.56640625
vt 0.608886719 0.529785156
vt 0.608886719 0.56640625
vt 0.651855469 0.529785156
vt 0.6953125 0.56640625
vt 0.6953125 0.529785156
vt 0.736816406 0.56640625
vt 0.737792969 0.529785156
vt 0.781738281 0.56640625
vt 0.781738281 0.529785156
vt 0.825195312 0.56640625
vt 0.825195312 0.529785156
vt 0.868164062 0.56640625
vt 0.868164062 0.529785156
vt 0.911621094 0.56640625
vt 0.911621094 0.529785156
vt 0.954589844 0.529785156
vt 0.954589844 0.56640625
vt 0.115356445 0.234863281
vt 0.177978516 0.234863281
vt 0.177978516 0.328125
vt 0.115356445 0.328125
vt 0.177978516 0.362548828
vt 0.115356445 0.362548828
vt 0.0370483398 0.328125
vt 0.0370483398 0.362548828
vt 0.240600586 0.362548828
vt 0.240600586 0.328125
vt 0.303222656 0.362548828
vt 0.303222656 0.328125
vt 0.365966797 0.362548828
vt 0.365966797 0.328125
vt 0.115356445 0.399169922
vt 0.0527038574 0.399169922
vt 0.0213928223 0.399169922
vt 0.177978516 0.399169922
vt 0.240600586 0.399169922
vt 0.303222656 0.399169922
vt 0.365966797 0.399169922
vt 0.428466797 0.399169922
vt 0.428466797 0.362548828
vt 0.491210938 0.399169922
vt 0.428466797 0.328125
vt 0.365966797 0.234863281
vt 0.428466797 0.234863281
vt 0.491210938 0.362548828
vt 0.522460938 0.399169922
vt 0.491210938 0.328125
vt 0.522460938 0.362548828
vt 0.522460938 0.328125
vt 0.115356445 0.234863281
vt 0.177978516 0.328125
vt 0.177978516 0.234863281
vt 0.115356445 0.328125
vt 0.177978516 0.362548828
vt 0.115356445 0.362548828
vt 0.0527038574 0.328125
vt 0.240600586 0.362548828
vt 0.240600586 0.328125
vt 0.0527038574 0.362548828
vt 0.0213928223 0.328125
vt 0.0213928223 0.362548828
vt 0.0370483398 0.399169922
vt 0.115356445 0.399169922
vt 0.177978516 0.399169922
vt 0.240600586 0.399169922
vt 0.303222656 0.399169922
vt 0.303222656 0.362548828
vt 0.303222656 0.328125
vt 0.365966797 0.399169922
vt 0.365966797 0.362548828
vt 0.428466797 0.399169922
vt 0.365966797 0.328125
vt 0.428466797 0.362548828
vt 0.506835938 0.399169922
vt 0.506835938 0.362548828
vt 0.428466797 0.328125
vt 0.506835938 0.328125
vt 0.365966797 0.234863281
vt 0.428466797 0.234863281
vt 0.373535156 0.094543457
vt 0.472412109 0.155883789
vt 0.472412109 0.094543457
vt 0.373535156 0.155883789
vt 0.472167969 0.212646484
vt 0.274414062 0.094543457
vt 0.373535156 0.212646484
vt 0.274414062 0.155883789
vt 0.175048828 0.094543457
vt 0.274658203 0.212646484
vt 0.175048828 0.155883789
vt 0.0732421875 0.094543457
vt 0.175048828 0.212646484
vt 0.0732421875 0.155883789
vt 0.0732421875 0.212646484
vt 0.670898438 0.094543457
vt 0.798828125 0.155883789
vt 0.798828125 0.094543457
vt 0.670898438 0.155883789
vt 0.798828125 0.212646484
vt 0.571289062 0.094543457
vt 0.670898438 0.212646484
vt 0.571289062 0.155883789
vt 0.472412109 0.094543457
vt 0.571289062 0.212646484
vt 0.472412109 0.155883789
vt 0.472167969 0.212646484
vt 0.0204772949 0.094543457
vt 0.0732421875 0.155883789
vt 0.0732421875 0.094543457
vt 0.0204772949 0.155883789
vt 0.0732421875 0.212646484
vt 0.0204772949 0.212646484
vt 0.373535156 0.094543457
vt 0.472412109 0.094543457
vt 0.472412109 0.155883789
vt 0.373535156 0.155883789
vt 0.472167969 0.212646484
vt 0.274414062 0.094543457
vt 0.373535156 0.212646484
vt 0.274414062 0.155883789
vt 0.175048828 0.094543457
vt 0.274658203 0.212646484
vt 0.175048828 0.155883789
vt 0.0468444824 0.094543457
vt 0.175048828 0.212646484
vt 0.0468444824 0.155883789
vt 0.0468444824 0.212646484
vt 0.472412109 0.155883789
vt 0.571289062 0.212646484
vt 0.472167969 0.212646484
vt 0.571289062 0.155883789
vt 0.472412109 0.094543457
vt 0.670898438 0.212646484
vt 0.571289062 0.094543457
vt 0.670898438 0.155883789
vt 0.772460938 0.212646484
vt 0.670898438 0.094543457
vt 0.772460938 0.155883789
vt 0.825195312 0.212646484
vt 0.772460938 0.094543457
vt 0.825195312 0.155883789
vt 0.825195312 0.094543457
vt 0.466552734 0.8359375
vt 0.448974609 0.745117188
vt 0.484619141 0.745117188
vt 0.43359375 0.821777344
vt 0.415283203 0.912597656
vt 0.390136719 0.887207031
vt 0.338623047 0.963867188
vt 0.324951172 0.930664062
vt 0.247924805 0.981933594
vt 0.247924805 0.945800781
vt 0.157470703 0.963867188
vt 0.171020508 0.930664062
vt 0.0806274414 0.912597656
vt 0.105834961 0.887207031
vt 0.0293579102 0.8359375
vt 0.0622558594 0.821777344
vt 0.0113449097 0.745117188
vt 0.0469665527 0.745117188
vt 0.484619141 0.745117188
vt 0.448974609 0.745117188
vt 0.43359375 0.821777344
vt 0.466552734 0.8359375
vt 0.390136719 0.887207031
vt 0.415283203 0.912597656
vt 0.324951172 0.930664062
vt 0.338623047 0.963867188
vt 0.247924805 0.945800781
vt 0.247924805 0.981933594
vt 0.171020508 0.930664062
vt 0.157470703 0.963867188
vt 0.105834961 0.887207031
vt 0.0806274414 0.912597656
vt 0.0622558594 0.821777344
vt 0.0293579102 0.8359375
vt 0.0469665527 0.745117188
vt 0.0113449097 0.745117188
vt 0.43359375 0.821777344
vt 0.424072266 0.745117188
vt 0.448974609 0.745117188
vt 0.410644531 0.813476562
vt 0.390136719 0.887207031
vt 0.372314453 0.870605469
vt 0.324951172 0.930664062
vt 0.315429688 0.908691406
vt 0.247924805 0.945800781
vt 0.247924805 0.921875
vt 0.171020508 0.930664062
vt 0.180541992 0.908691406
vt 0.105834961 0.887207031
vt 0.123474121 0.870605469
vt 0.0622558594 0.821777344
vt 0.0853271484 0.813476562
vt 0.0469665527 0.745117188
vt 0.0719604492 0.745117188
vt 0.448974609 0.745117188
vt 0.424072266 0.745117188
vt 0.410644531 0.813476562
vt 0.43359375 0.821777344
vt 0.372314453 0.870605469
vt 0.390136719 0.887207031
vt 0.315429688 0.908691406
vt 0.324951172 0.930664062
vt 0.247924805 0.921875
vt 0.247924805 0.945800781
vt 0.180541992 0.908691406
vt 0.171020508 0.930664062
vt 0.123474121 0.870605469
vt 0.105834961 0.887207031
vt 0.0853271484 0.813476562
vt 0.0622558594 0.821777344
vt 0.0719604492 0.745117188
vt 0.0469665527 0.745117188
vt 0.631347656 0.240478516
vt 0.577636719 0.257568359
vt 0.551269531 0.238769531
vt 0.551269531 0.359863281
vt 0.631347656 0.2578125
vt 0.722167969 0.240478516
vt 0.577636719 0.340576172
vt 0.631347656 0.359863281
vt 0.631347656 0.340576172
vt 0.722167969 0.340576172
vt 0.722167969 0.359863281
vt 0.722167969 0.2578125
vt 0.802246094 0.238769531
vt 0.775390625 0.257568359
vt 0.802246094 0.359863281
vt 0.775390625 0.340576172
vt 0.631347656 0.240478516
vt 0.577636719 0.257568359
vt 0.551269531 0.238769531
vt 0.551269531 0.359863281
vt 0.631347656 0.2578125
vt 0.722167969 0.240478516
vt 0.577636719 0.340576172
vt 0.631347656 0.359863281
vt 0.631347656 0.340576172
vt 0.722167969 0.340576172
vt 0.722167969 0.359863281
vt 0.722167969 0.2578125
vt 0.802246094 0.238769531
vt 0.775390625 0.257568359
vt 0.802246094 0.359863281
vt 0.775390625 0.340576172
vt 0.631347656 0.240478516
vt 0.577636719 0.257568359
vt 0.551269531 0.238769531
vt 0.551269531 0.359863281
vt 0.631347656 0.2578125
vt 0.722167969 0.240478516
vt 0.577636719 0.340576172
vt 0.631347656 0.359863281
vt 0.631347656 0.340576172
vt 0.722167969 0.340576172
vt 0.722167969 0.359863281
vt 0.722167969 0.2578125
vt 0.802246094 0.238769531
vt 0.775390625 0.257568359
vt 0.802246094 0.359863281
vt 0.775390625 0.340576172
vt 0.631347656 0.240478516
vt 0.577636719 0.257568359
vt 0.551269531 0.238769531
vt 0.551269531 0.359863281
vt 0.631347656 0.2578125
vt 0.722167969 0.240478516
vt 0.577636719 0.340576172
vt 0.631347656 0.359863281
vt 0.631347656 0.340576172
vt 0.722167969 0.340576172
vt 0.722167969 0.359863281
vt 0.722167969 0.2578125
vt 0.802246094 0.238769531
vt 0.775390625 0.257568359
vt 0.802246094 0.359863281
vt 0.775390625 0.340576172
vt 0.273925781 0.227172852
vt 0.273925781 0.223388672
vt 0.237060547 0.233032227
vt 0.240478516 0.236938477
vt 0.215942383 0.257080078
vt 0.273925781 0.270996094
vt 0.222045898 0.259033203
vt 0.307373047 0.236938477
vt 0.215942383 0.284667969
vt 0.310791016 0.233032227
vt 0.222045898 0.282714844
vt 0.237060547 0.30859375
vt 0.325927734 0.259033203
vt 0.331787109 0.257080078
vt 0.240478516 0.3046875
vt 0.273925781 0.318359375
vt 0.325927734 0.282714844
vt 0.331787109 0.284667969
vt 0.273925781 0.314453125
vt 0.310791016 0.30859375
vt 0.307373047 0.3046875
vt 0.273925781 0.227172852
vt 0.273925781 0.223388672
vt 0.237060547 0.233032227
vt 0.240478516 0.236938477
vt 0.215942383 0.257080078
vt 0.273925781 0.270996094
vt 0.222045898 0.259033203
vt 0.307373047 0.236938477
vt 0.215942383 0.284667969
vt 0.310791016 0.233032227
vt 0.222045898 0.282714844
vt 0.237060547 0.30859375
vt 0.325927734 0.259033203
vt 0.331787109 0.257080078
vt 0.240478516 0.3046875
vt 0.273925781 0.318359375
vt 0.325927734 0.282714844
vt 0.331787109 0.284667969
vt 0.273925781 0.314453125
vt 0.310791016 0.30859375
vt 0.307373047 0.3046875
vt 0.273925781 0.227172852
vt 0.273925781 0.223388672
vt 0.237060547 0.233032227
vt 0.240478516 0.236938477
vt 0.215942383 0.257080078
vt 0.273925781 0.270996094
vt 0.222045898 0.259033203
vt 0.307373047 0.236938477
vt 0.215942383 0.284667969
vt 0.310791016 0.233032227
vt 0.222045898 0.282714844
vt 0.237060547 0.30859375
vt 0.325927734 0.259033203
vt 0.331787109 0.257080078
vt 0.240478516 0.3046875
vt 0.273925781 0.318359375
vt 0.325927734 0.282714844
vt 0.331787109 0.284667969
vt 0.273925781 0.314453125
vt 0.310791016 0.30859375
vt 0.307373047 0.3046875
vt 0.273925781 0.227172852
vt 0.273925781 0.223388672
vt 0.237060547 0.233032227
vt 0.240478516 0.236938477
vt 0.215942383 0.257080078
vt 0.273925781 0.270996094
vt 0.222045898 0.259033203
vt 0.307373047 0.236938477
vt 0.215942383 0.284667969
vt 0.310791016 0.233032227
vt 0.222045898 0.282714844
vt 0.237060547 0.30859375
vt 0.325927734 0.259033203
vt 0.331787109 0.257080078
vt 0.240478516 0.3046875
vt 0.273925781 0.318359375
vt 0.325927734 0.282714844
vt 0.331787109 0.284667969
vt 0.273925781 0.314453125
vt 0.310791016 0.30859375
vt 0.307373047 0.3046875
vn 0.405029297 -0.914550781 0
vn 0.579101562 -0.778808594 0.239990234
vn 0.626953125 -0.778808594 0
vn 0.374023438 -0.914550781 0.155029297
vn 0.443359375 -0.778808594 0.443359375
vn 0.286376953 -0.914550781 0.286376953
vn 0.239990234 -0.778808594 0.579101562
vn 0.155029297 -0.914550781 0.374023438
vn -0 -0.778808594 0.626953125
vn -0 -0.914550781 0.405029297
vn -0.239990234 -0.778808594 0.579101562
vn -0.155029297 -0.914550781 0.374023438
vn -0.443359375 -0.778808594 0.443359375
vn -0.286376953 -0.914550781 0.286376953
vn -0.579101562 -0.778808594 0.239990234
vn -0.374023438 -0.914550781 0.155029297
vn -0.626953125 -0.778808594 0
vn -0.405029297 -0.914550781 0
vn -0 1 0
vn -0.0137863159 1 0
vn -0.0127410889 1 -0.00527572632
vn -0.00975036621 1 -0.00975036621
vn -0.00527572632 1 -0.0127410889
vn -0 1 -0.0137863159
vn 0.00527572632 1 -0.0127410889
vn 0.00975036621 1 -0.00975036621
vn 0.0127410889 1 -0.00527572632
vn 0.0137863159 1 0
vn -0.541503906 0.810058594 0.224365234
vn -0.626953125 -0.778808594 0
vn -0.586425781 0.810058594 0
vn -0.579101562 -0.778808594 0.239990234
vn -0.414550781 0.810058594 0.414550781
vn -0.443359375 -0.778808594 0.443359375
vn -0.224365234 0.810058594 0.541503906
vn -0.239990234 -0.778808594 0.579101562
vn -0 0.810058594 0.586425781
vn -0 -0.778808594 0.626953125
vn 0.224365234 0.810058594 0.541503906
vn 0.239990234 -0.778808594 0.579101562
vn 0.414550781 0.810058594 0.414550781
vn 0.443359375 -0.778808594 0.443359375
vn 0.541503906 0.810058594 0.224365234
vn 0.579101562 -0.778808594 0.239990234
vn 0.586425781 0.810058594 0
vn 0.626953125 -0.778808594 0
vn 0.405029297 -0.914550781 0
vn 0.626953125 -0.778808594 0
vn 0.579101562 -0.778808594 -0.239990234
vn 0.374023438 -0.914550781 -0.155029297
vn 0.443359375 -0.778808594 -0.443359375
vn 0.286376953 -0.914550781 -0.286376953
vn 0.239990234 -0.778808594 -0.579101562
vn 0.155029297 -0.914550781 -0.374023438
vn -0 -0.778808594 -0.626953125
vn -0 -0.914550781 -0.405029297
vn -0.239990234 -0.778808594 -0.579101562
vn -0.155029297 -0.914550781 -0.374023438
vn -0.443359375 -0.778808594 -0.443359375
vn -0.286376953 -0.914550781 -0.286376953
vn -0.579101562 -0.778808594 -0.239990234
vn -0.374023438 -0.914550781 -0.155029297
vn -0.626953125 -0.778808594 0
vn -0.405029297 -0.914550781 0
vn 0.586425781 0.810058594 0
vn 0.579101562 -0.778808594 -0.239990234
vn 0.626953125 -0.778808594 0
vn 0.541503906 0.810058594 -0.224365234
vn 0.414550781 0.810058594 -0.414550781
vn 0.443359375 -0.778808594 -0.443359375
vn 0.224365234 0.810058594 -0.541503906
vn 0.239990234 -0.778808594 -0.579101562
vn -0 0.810058594 -0.586425781
vn -0 -0.778808594 -0.626953125
vn -0.224365234 0.810058594 -0.541503906
vn -0.239990234 -0.778808594 -0.579101562
vn -0.414550781 0.810058594 -0.414550781
vn -0.443359375 -0.778808594 -0.443359375
vn -0.541503906 0.810058594 -0.224365234
vn -0.579101562 -0.778808594 -0.239990234
vn -0.586425781 0.810058594 0
vn -0.626953125 -0.778808594 0
vn -0 1 0
vn -0.0127410889 1 0.00527572632
vn -0.0137863159 1 0
vn -0.00975036621 1 0.00975036621
vn -0.00527572632 1 0.0127410889
vn -0 1 0.0137863159
vn 0.00527572632 1 0.0127410889
vn 0.00975036621 1 0.00975036621
vn 0.0127410889 1 0.00527572632
vn 0.0137863159 1 0
vn 0.971191406 0.237304688 0
vn 0.921386719 0.0761108398 0.381591797
vn 0.997070312 0.0761108398 0
vn 0.897460938 0.237304688 0.371826172
vn 0.705078125 0.0761108398 0.705078125
vn 0.687011719 0.237304688 0.687011719
vn 0.381591797 0.0761108398 0.921386719
vn 0.371826172 0.237304688 0.897460938
vn -0 0.0761108398 0.997070312
vn -0 0.237304688 0.971191406
vn -0.381591797 0.0761108398 0.921386719
vn -0.371826172 0.237304688 0.897460938
vn -0.705078125 0.0761108398 0.705078125
vn -0.687011719 0.237304688 0.687011719
vn -0.921386719 0.0761108398 0.381591797
vn -0.897460938 0.237304688 0.371826172
vn -0.997070312 0.0761108398 0
vn -0.971191406 0.237304688 0
vn -0.972167969 0.234863281 0
vn -0.971191406 0.237304688 0
vn -0.897460938 0.237304688 0.371826172
vn -0.897949219 0.234863281 0.372070312
vn -1 0.0032119751 0
vn -0.687011719 0.237304688 0.687011719
vn -0.923828125 0.00321006775 0.382568359
vn -0.993164062 0.118103027 0
vn -0.917480469 0.118103027 0.380126953
vn -0.6875 0.234863281 0.6875
vn -0.371826172 0.237304688 0.897460938
vn -0.70703125 0.0032043457 0.70703125
vn -0.702148438 0.118103027 0.702148438
vn -0.372070312 0.234863281 0.897949219
vn -0 0.237304688 0.971191406
vn -0.382568359 0.0032081604 0.923828125
vn -0.380126953 0.118103027 0.917480469
vn -0 0.234863281 0.972167969
vn 0.371826172 0.237304688 0.897460938
vn -0 0.00321006775 1
vn -0 0.118103027 0.993164062
vn 0.372070312 0.234863281 0.897949219
vn 0.687011719 0.237304688 0.687011719
vn 0.382568359 0.00321006775 0.923828125
vn 0.380126953 0.118103027 0.917480469
vn 0.6875 0.234863281 0.6875
vn 0.897460938 0.237304688 0.371826172
vn 0.70703125 0.00321006775 0.70703125
vn 0.702148438 0.118103027 0.702148438
vn 0.897949219 0.234863281 0.372070312
vn 0.971191406 0.237304688 0
vn 0.972167969 0.234863281 0
vn 0.923828125 0.0032081604 0.382568359
vn 0.917480469 0.118103027 0.379882812
vn 1 0.00320625305 0
vn 0.993164062 0.118103027 0
vn -0.997070312 0.0761108398 0
vn -1 -0.000778198242 0
vn -0.923828125 -0.000778198242 0.382568359
vn -0.921386719 0.0761108398 0.381591797
vn -0.705078125 0.0761108398 0.705078125
vn -0.70703125 -0.000777244568 0.70703125
vn -0.381591797 0.0761108398 0.921386719
vn -0.382568359 -0.000776767731 0.923828125
vn -0 0.0761108398 0.997070312
vn -0 -0.000777721405 1
vn 0.381591797 0.0761108398 0.921386719
vn 0.382568359 -0.000777721405 0.923828125
vn 0.705078125 0.0761108398 0.705078125
vn 0.70703125 -0.000773906708 0.70703125
vn 0.921386719 0.0761108398 0.381591797
vn 0.923828125 -0.000769615173 0.382568359
vn 0.997070312 0.0761108398 0
vn 1 -0.000768661499 0
vn 0.971191406 0.237304688 0
vn 0.997070312 0.0761108398 0
vn 0.921386719 0.0761108398 -0.381591797
vn 0.897460938 0.237304688 -0.371826172
vn 0.705078125 0.0761108398 -0.705078125
vn 0.687011719 0.237304688 -0.687011719
vn 0.381591797 0.0761108398 -0.921386719
vn 0.371826172 0.237304688 -0.897460938
vn -0 0.0761108398 -0.997070312
vn -0 0.237304688 -0.971191406
vn -0.381591797 0.0761108398 -0.921386719
vn -0.371826172 0.237304688 -0.897460938
vn -0.705078125 0.0761108398 -0.705078125
vn -0.687011719 0.237304688 -0.687011719
vn -0.921386719 0.0761108398 -0.381591797
vn -0.897460938 0.237304688 -0.371826172
vn -0.997070312 0.0761108398 0
vn -0.971191406 0.237304688 0
vn 1 0.00320625305 0
vn 0.917480469 0.118103027 -0.379882812
vn 0.993164062 0.118103027 0
vn 0.923828125 0.0032081604 -0.382568359
vn 0.972167969 0.234863281 0
vn 0.70703125 0.00321006775 -0.70703125
vn 0.702148438 0.118103027 -0.702148438
vn 0.897949219 0.234863281 -0.372070312
vn 0.971191406 0.237304688 0
vn 0.897460938 0.237304688 -0.371826172
vn 0.6875 0.234863281 -0.6875
vn 0.687011719 0.237304688 -0.687011719
vn 0.382568359 0.00321006775 -0.923828125
vn 0.380126953 0.118103027 -0.917480469
vn 0.372070312 0.234863281 -0.897949219
vn 0.371826172 0.237304688 -0.897460938
vn -0 0.00321006775 -1
vn -0 0.118103027 -0.993164062
vn -0 0.234863281 -0.972167969
vn -0 0.237304688 -0.971191406
vn -0.382568359 0.0032081604 -0.923828125
vn -0.380126953 0.118103027 -0.917480469
vn -0.372070312 0.234863281 -0.897949219
vn -0.371826172 0.237304688 -0.897460938
vn -0.70703125 0.00320625305 -0.70703125
vn -0.702148438 0.118103027 -0.702148438
vn -0.6875 0.234863281 -0.6875
vn -0.687011719 0.237304688 -0.687011719
vn -0.923828125 0.00321006775 -0.382568359
vn -0.917480469 0.118103027 -0.380126953
vn -0.897949219 0.234863281 -0.372070312
vn -0.897460938 0.237304688 -0.371826172
vn -1 0.0032119751 0
vn -0.993164062 0.118103027 0
vn -0.972167969 0.234863281 0
vn -0.971191406 0.237304688 0
vn 0.923828125 -0.000769615173 -0.382568359
vn 0.997070312 0.0761108398 0
vn 1 -0.000768661499 0
vn 0.921386719 0.0761108398 -0.381591797
vn 0.70703125 -0.000773906708 -0.70703125
vn 0.705078125 0.0761108398 -0.705078125
vn 0.382568359 -0.000777721405 -0.923828125
vn 0.381591797 0.0761108398 -0.921386719
vn -0 -0.000777721405 -1
vn -0 0.0761108398 -0.997070312
vn -0.382568359 -0.000776767731 -0.923828125
vn -0.381591797 0.0761108398 -0.921386719
vn -0.70703125 -0.000776767731 -0.70703125
vn -0.705078125 0.0761108398 -0.705078125
vn -0.923828125 -0.000777721405 -0.382568359
vn -0.921386719 0.0761108398 -0.381591797
vn -0.997070312 0.0761108398 0
vn -1 -0.000778198242 0
vn 0.352050781 0.876464844 0.328369141
vn 0.328369141 0.876464844 0.352050781
vn 0.616210938 0.292480469 0.730957031
vn 0.730957031 0.292480469 0.616699219
vn 0.334472656 0.798339844 0.500488281
vn 0.500488281 0.798339844 0.334472656
vn 0.882324219 0.4375 0.172973633
vn 0.673828125 0.7265625 0.134033203
vn 0.117492676 0.798339844 0.590332031
vn 0.172973633 0.437255859 0.882324219
vn -0.117431641 0.798339844 0.590332031
vn -0.172973633 0.4375 0.882324219
vn -0.334472656 0.798339844 0.500488281
vn -0.616699219 0.292480469 0.730957031
vn -0 1 0
vn -0 1 0
vn -0 1 0
vn -0 1 0
vn -0 1 0
vn -0 1 0
vn -0 1 0
vn -0 1 0
vn -0.500488281 0.798339844 0.334472656
vn -0 1 0
vn -0.730957031 0.292480469 0.616210938
vn -0.328369141 0.876464844 0.352050781
vn -0.352050781 0.876464844 0.328369141
vn -0.590332031 0.798339844 0.117492676
vn -0 1 0
vn -0.882324219 0.437255859 0.172973633
vn -0.590332031 0.798339844 -0.117431641
vn -0.882324219 0.4375 -0.172973633
vn 0.364257812 0.871582031 -0.328613281
vn 0.620117188 0.302246094 -0.724121094
vn 0.340820312 0.869628906 -0.357421875
vn 0.740234375 0.290527344 -0.605957031
vn 0.332763672 0.81640625 -0.471923828
vn 0.499511719 0.802246094 -0.327148438
vn 0.882324219 0.437255859 -0.172973633
vn 0.111083984 0.829101562 -0.547851562
vn 0.169799805 0.431640625 -0.885742188
vn 0.661621094 0.73828125 -0.131591797
vn 0.882324219 0.4375 0.172973633
vn 0.673828125 0.7265625 0.134033203
vn -0 1 0
vn -0 1 0
vn -0 1 0
vn -0 1 0
vn -0 1 0
vn -0.11114502 0.829101562 -0.547851562
vn -0.169799805 0.431396484 -0.886230469
vn -0 1 0
vn -0.333007812 0.81640625 -0.471923828
vn -0 1 0
vn -0.619628906 0.302246094 -0.724121094
vn -0.499511719 0.802246094 -0.327148438
vn -0 1 0
vn -0.590332031 0.798339844 -0.117431641
vn -0.740234375 0.290527344 -0.606445312
vn -0.882324219 0.4375 -0.172973633
vn -0.340820312 0.869628906 -0.357421875
vn -0.364257812 0.871582031 -0.328613281
vn 0.180419922 0.380371094 -0.907226562
vn -0.112060547 0.818359375 -0.563476562
vn -0.180419922 0.380371094 -0.907226562
vn 0.112060547 0.818359375 -0.563476562
vn -0.0511779785 0.963378906 -0.263916016
vn 0.513671875 0.380371094 -0.769042969
vn 0.0511169434 0.963378906 -0.264160156
vn 0.319091797 0.818847656 -0.477539062
vn 0.769042969 0.380371094 -0.513671875
vn 0.340820312 0.869628906 -0.357421875
vn 0.477539062 0.818847656 -0.319091797
vn 0.907226562 0.380371094 -0.180419922
vn 0.364257812 0.871582031 -0.328613281
vn 0.563476562 0.818847656 -0.112060547
vn 0.263916016 0.963378906 -0.0511474609
vn -0.769042969 0.380371094 -0.513671875
vn -0.563476562 0.818359375 -0.112060547
vn -0.907226562 0.380371094 -0.180419922
vn -0.477539062 0.818359375 -0.319091797
vn -0.264160156 0.963378906 -0.0511474609
vn -0.513671875 0.380371094 -0.769042969
vn -0.364257812 0.871582031 -0.328613281
vn -0.319091797 0.818359375 -0.477539062
vn -0.180419922 0.380371094 -0.907226562
vn -0.340820312 0.869628906 -0.357421875
vn -0.112060547 0.818359375 -0.563476562
vn -0.0511779785 0.963378906 -0.263916016
vn 0.907226562 0.380371094 0.180419922
vn 0.563476562 0.818847656 -0.112060547
vn 0.907226562 0.380371094 -0.180419922
vn 0.563476562 0.818847656 0.112060547
vn 0.263916016 0.963378906 -0.0511474609
vn 0.264160156 0.963378906 0.0511169434
vn 0.180419922 0.380371094 0.907226562
vn -0.180419922 0.380371094 0.907226562
vn -0.112060547 0.818359375 0.563476562
vn 0.112060547 0.818359375 0.563476562
vn -0.0511474609 0.963378906 0.264160156
vn 0.513671875 0.380371094 0.769042969
vn 0.0511474609 0.963378906 0.263916016
vn 0.319091797 0.818847656 0.477539062
vn 0.769042969 0.380371094 0.513671875
vn 0.328369141 0.876464844 0.352050781
vn 0.477539062 0.818847656 0.319091797
vn 0.907226562 0.380371094 0.180419922
vn 0.352050781 0.876464844 0.328369141
vn 0.563476562 0.818847656 0.112060547
vn 0.264160156 0.963378906 0.0511169434
vn -0.112060547 0.818359375 0.563476562
vn -0.328369141 0.876464844 0.352050781
vn -0.0511474609 0.963378906 0.264160156
vn -0.319091797 0.818359375 0.477539062
vn -0.180419922 0.380371094 0.907226562
vn -0.352050781 0.876464844 0.328369141
vn -0.513671875 0.380371094 0.769042969
vn -0.477539062 0.818359375 0.319091797
vn -0.263916016 0.963378906 0.0511779785
vn -0.769042969 0.380371094 0.513671875
vn -0.563476562 0.818359375 0.112060547
vn -0.264160156 0.963378906 -0.0511474609
vn -0.907226562 0.380371094 0.180419922
vn -0.563476562 0.818359375 -0.112060547
vn -0.907226562 0.380371094 -0.180419922
vn 0.541503906 0.810058594 0.224365234
vn -0.00689697266 1 0
vn 0.586425781 0.810058594 0
vn -0.00637054443 1 -0.00263786316
vn 0.414550781 0.810058594 0.414550781
vn -0.00487518311 1 -0.00487518311
vn 0.224365234 0.810058594 0.541503906
vn -0.00263977051 1 -0.00637054443
vn -0 0.810058594 0.586425781
vn -0 1 -0.00689697266
vn -0.224365234 0.810058594 0.541503906
vn 0.00263977051 1 -0.00637054443
vn -0.414550781 0.810058594 0.414550781
vn 0.00487518311 1 -0.00487518311
vn -0.541503906 0.810058594 0.224365234
vn 0.00637054443 1 -0.00263977051
vn -0.586425781 0.810058594 0
vn 0.00689697266 1 0
vn 0.586425781 0.810058594 0
vn -0.00689697266 1 0
vn -0.00637054443 1 0.00263786316
vn 0.541503906 0.810058594 -0.224365234
vn -0.00487518311 1 0.00487518311
vn 0.414550781 0.810058594 -0.414550781
vn -0.00263977051 1 0.00637054443
vn 0.224365234 0.810058594 -0.541503906
vn -0 1 0.00689697266
vn -0 0.810058594 -0.586425781
vn 0.00263977051 1 0.00637054443
vn -0.224365234 0.810058594 -0.541503906
vn 0.00487518311 1 0.00487518311
vn -0.414550781 0.810058594 -0.414550781
vn 0.00637054443 1 0.00263977051
vn -0.541503906 0.810058594 -0.224365234
vn 0.00689697266 1 0
vn -0.586425781 0.810058594 0
vn -0.923828125 0 -0.382568359
vn -1 0 0
vn -1 0 0
vn -0.923828125 0 -0.382568359
vn -0.70703125 0 -0.70703125
vn -0.70703125 0 -0.70703125
vn -0.382568359 0 -0.923828125
vn -0.382568359 0 -0.923828125
vn -0 0 -1
vn -0 0 -1
vn 0.382568359 0 -0.923828125
vn 0.382568359 0 -0.923828125
vn 0.70703125 0 -0.70703125
vn 0.70703125 0 -0.70703125
vn 0.923828125 0 -0.382568359
vn 0.923828125 0 -0.382568359
vn 1 0 0
vn 1 0 0
vn -1 0 0
vn -1 0 0
vn -0.923828125 0 0.382568359
vn -0.923828125 0 0.382568359
vn -0.70703125 0 0.70703125
vn -0.70703125 0 0.70703125
vn -0.382568359 0 0.923828125
vn -0.382568359 0 0.923828125
vn -0 0 1
vn -0 0 1
vn 0.382568359 0 0.923828125
vn 0.382568359 0 0.923828125
vn 0.70703125 0 0.70703125
vn 0.70703125 0 0.70703125
vn 0.923828125 0 0.382568359
vn 0.923828125 0 0.382568359
vn 1 0 0
vn 1 0 0
vn 0.263916016 0.963378906 -0.0511474609
vn 0.865722656 0.129882812 -0.483642578
vn 0.364257812 0.871582031 -0.328613281
vn 0.740234375 0.290527344 -0.605957031
vn 0.978515625 0.120239258 -0.168334961
vn 0.264160156 0.963378906 0.0511169434
vn 0.799804688 0.387451172 -0.458251953
vn 0.882324219 0.437255859 -0.172973633
vn 0.902832031 0.401611328 -0.154785156
vn 0.902832031 0.401611328 0.154785156
vn 0.882324219 0.4375 0.172973633
vn 0.978515625 0.120178223 0.168334961
vn 0.352050781 0.876464844 0.328369141
vn 0.865234375 0.129638672 0.483886719
vn 0.730957031 0.292480469 0.616699219
vn 0.799804688 0.387451172 0.458496094
vn 0.0511474609 0.963378906 0.263916016
vn 0.483642578 0.129882812 0.865722656
vn 0.328369141 0.876464844 0.352050781
vn 0.616210938 0.292480469 0.730957031
vn 0.168334961 0.120239258 0.978515625
vn -0.0511474609 0.963378906 0.264160156
vn 0.458251953 0.387451172 0.799804688
vn 0.172973633 0.437255859 0.882324219
vn 0.154785156 0.401611328 0.902832031
vn -0.154785156 0.401611328 0.902832031
vn -0.172973633 0.4375 0.882324219
vn -0.168334961 0.120178223 0.978515625
vn -0.328369141 0.876464844 0.352050781
vn -0.483886719 0.129638672 0.865234375
vn -0.616699219 0.292480469 0.730957031
vn -0.458496094 0.387451172 0.799804688
vn -0.0511779785 0.963378906 -0.263916016
vn -0.459960938 0.118408203 -0.879882812
vn -0.340820312 0.869628906 -0.357421875
vn -0.619628906 0.302246094 -0.724121094
vn -0.168334961 0.120239258 -0.978515625
vn 0.0511169434 0.963378906 -0.264160156
vn -0.445800781 0.325195312 -0.833984375
vn -0.169799805 0.431396484 -0.886230469
vn -0.16015625 0.343261719 -0.925292969
vn 0.16015625 0.343261719 -0.925292969
vn 0.169799805 0.431640625 -0.885742188
vn 0.168334961 0.120178223 -0.978515625
vn 0.340820312 0.869628906 -0.357421875
vn 0.460205078 0.118164062 -0.879882812
vn 0.620117188 0.302246094 -0.724121094
vn 0.446044922 0.325195312 -0.833984375
vn -0.263916016 0.963378906 0.0511779785
vn -0.865722656 0.129882812 0.483642578
vn -0.352050781 0.876464844 0.328369141
vn -0.730957031 0.292480469 0.616210938
vn -0.978515625 0.120239258 0.168334961
vn -0.264160156 0.963378906 -0.0511474609
vn -0.799804688 0.387451172 0.458251953
vn -0.882324219 0.437255859 0.172973633
vn -0.902832031 0.401611328 0.154785156
vn -0.902832031 0.401611328 -0.154785156
vn -0.882324219 0.4375 -0.172973633
vn -0.978515625 0.120178223 -0.168334961
vn -0.364257812 0.871582031 -0.328613281
vn -0.865234375 0.129638672 -0.483886719
vn -0.740234375 0.290527344 -0.606445312
vn -0.799804688 0.387451172 -0.458496094
vn -0.560058594 0.0457763672 0.827148438
vn 0.000333786011 0.00842285156 1
vn -0.0212860107 -0.536621094 0.843261719
vn -0.597167969 -0.407226562 0.690917969
vn -0.0371704102 -0.9375 0.345703125
vn -0.996582031 0.0827026367 0
vn -0.634277344 -0.722167969 0.276611328
vn -0.544433594 0.4921875 0.679199219
vn -0.0371704102 -0.9375 -0.345703125
vn 0.0217895508 0.549316406 0.835449219
vn -0.634277344 -0.722167969 -0.276611328
vn -0.0212860107 -0.536621094 -0.843261719
vn -0.543457031 0.795410156 0.269042969
vn 0.0372924805 0.939941406 0.339355469
vn -0.597167969 -0.407226562 -0.690917969
vn 0.000333547592 0.00841522217 -1
vn -0.543457031 0.795410156 -0.269042969
vn 0.0372924805 0.939941406 -0.339355469
vn -0.560058594 0.0457763672 -0.827148438
vn 0.0217895508 0.549316406 -0.835449219
vn -0.544433594 0.4921875 -0.679199219
vn 0.827148438 0.0457763672 0.560058594
vn 1 0.00842285156 -0.000334262848
vn 0.843261719 -0.536621094 0.0212860107
vn 0.690917969 -0.407226562 0.597167969
vn 0.345703125 -0.9375 0.0371704102
vn -0 0.0827026367 0.996582031
vn 0.276611328 -0.722167969 0.634277344
vn 0.679199219 0.4921875 0.544433594
vn -0.345703125 -0.9375 0.0372009277
vn 0.835449219 0.549316406 -0.0217895508
vn -0.276611328 -0.722167969 0.634277344
vn -0.843261719 -0.536621094 0.0213012695
vn 0.269042969 0.795410156 0.543457031
vn 0.339355469 0.939941406 -0.0372619629
vn -0.690917969 -0.407226562 0.597167969
vn -1 0.00841522217 -0.000331640244
vn -0.269042969 0.795410156 0.543457031
vn -0.339355469 0.939941406 -0.0372924805
vn -0.827148438 0.0457763672 0.560058594
vn -0.835449219 0.549316406 -0.0217895508
vn -0.679199219 0.4921875 0.544433594
vn 0.560058594 0.0457763672 -0.827148438
vn -0.000332355499 0.00842285156 -1
vn 0.0212860107 -0.536621094 -0.843261719
vn 0.597167969 -0.407226562 -0.690917969
vn 0.0371704102 -0.9375 -0.345703125
vn 0.996582031 0.0827026367 0
vn 0.634277344 -0.722167969 -0.276611328
vn 0.544433594 0.4921875 -0.679199219
vn 0.0371704102 -0.9375 0.345703125
vn -0.0217895508 0.549316406 -0.835449219
vn 0.634277344 -0.722167969 0.276611328
vn 0.0212860107 -0.536621094 0.843261719
vn 0.543457031 0.795410156 -0.269042969
vn -0.0372924805 0.939941406 -0.339355469
vn 0.597167969 -0.407226562 0.690917969
vn -0.000335216522 0.00841522217 1
vn 0.543457031 0.795410156 0.269042969
vn -0.0372924805 0.939941406 0.339355469
vn 0.560058594 0.0457763672 0.827148438
vn -0.0217895508 0.549316406 0.835449219
vn 0.544433594 0.4921875 0.679199219
vn -0.827148438 0.0457763672 -0.560058594
vn -1 0.00842285156 0.000331163406
vn -0.843261719 -0.536621094 -0.0212860107
vn -0.690917969 -0.407226562 -0.597167969
vn -0.345703125 -0.9375 -0.0371704102
vn -0 0.0827026367 -0.996582031
vn -0.276611328 -0.722167969 -0.634277344
vn -0.679199219 0.4921875 -0.544433594
vn 0.345703125 -0.9375 -0.0371704102
vn -0.835449219 0.549316406 0.0217895508
vn 0.276611328 -0.722167969 -0.634277344
vn 0.843261719 -0.536621094 -0.0212860107
vn -0.269042969 0.795410156 -0.543457031
vn -0.339355469 0.939941406 0.0372924805
vn 0.690917969 -0.407226562 -0.597167969
vn 1 0.00841522217 0.000334978104
vn 0.269042969 0.795410156 -0.543457031
vn 0.339355469 0.939941406 0.0372924805
vn 0.827148438 0.0457763672 -0.560058594
vn 0.835449219 0.549316406 0.0217895508
vn 0.679199219 0.4921875 -0.544433594
g BarrierDevice_base_0
f 3/3/3 2/2/2 1/1/1
f 2/2/2 4/4/4 1/1/1
f 2/2/2 5/5/5 4/4/4
f 5/5/5 6/6/6 4/4/4
f 5/5/5 7/7/7 6/6/6
f 7/7/7 8/8/8 6/6/6
f 7/7/7 9/9/9 8/8/8
f 9/9/9 10/10/10 8/8/8
f 9/9/9 11/11/11 10/10/10
f 11/11/11 12/12/12 10/10/10
f 11/11/11 13/13/13 12/12/12
f 13/13/13 14/14/14 12/12/12
f 13/13/13 15/15/15 14/14/14
f 15/15/15 16/16/16 14/14/14
f 15/15/15 17/17/17 16/16/16
f 17/17/17 18/18/18 16/16/16
f 21/21/21 20/20/20 19/19/19
f 19/19/19 22/22/22 21/21/21
f 19/19/19 23/23/23 22/22/22
f 19/19/19 24/24/24 23/23/23
f 19/19/19 25/25/25 24/24/24
f 19/19/19 26/26/26 25/25/25
f 19/19/19 27/27/27 26/26/26
f 19/19/19 28/28/28 27/27/27
f 31/31/31 30/30/30 29/29/29
f 30/30/30 32/32/32 29/29/29
f 29/29/29 32/32/32 33/33/33
f 32/32/32 34/34/34 33/33/33
f 33/33/33 34/34/34 35/35/35
f 34/34/34 36/36/36 35/35/35
f 35/35/35 36/36/36 37/37/37
f 36/36/36 38/38/38 37/37/37
f 37/37/37 38/38/38 39/39/39
f 38/38/38 40/40/40 39/39/39
f 39/39/39 40/40/40 41/41/41
f 40/40/40 42/42/42 41/41/41
f 41/41/41 42/42/42 43/43/43
f 42/42/42 44/44/44 43/43/43
f 43/43/43 44/44/44 45/45/45
f 44/44/44 46/46/46 45/45/45
f 49/49/49 48/48/48 47/47/47
f 50/50/50 49/49/49 47/47/47
f 51/51/51 49/49/49 50/50/50
f 52/52/52 51/51/51 50/50/50
f 53/53/53 51/51/51 52/52/52
f 54/54/54 53/53/53 52/52/52
f 55/55/55 53/53/53 54/54/54
f 56/56/56 55/55/55 54/54/54
f 57/57/57 55/55/55 56/56/56
f 58/58/58 57/57/57 56/56/56
f 59/59/59 57/57/57 58/58/58
f 60/60/60 59/59/59 58/58/58
f 61/61/61 59/59/59 60/60/60
f 62/62/62 61/61/61 60/60/60
f 63/63/63 61/61/61 62/62/62
f 64/64/64 63/63/63 62/62/62
f 67/67/67 66/66/66 65/65/65
f 66/66/66 68/68/68 65/65/65
f 69/69/69 68/68/68 66/66/66
f 70/70/70 69/69/69 66/66/66
f 71/71/71 69/69/69 70/70/70
f 72/72/72 71/71/71 70/70/70
f 73/73/73 71/71/71 72/72/72
f 74/74/74 73/73/73 72/72/72
f 75/75/75 73/73/73 74/74/74
f 76/76/76 75/75/75 74/74/74
f 77/77/77 75/75/75 76/76/76
f 78/78/78 77/77/77 76/76/76
f 79/79/79 77/77/77 78/78/78
f 80/80/80 79/79/79 78/78/78
f 81/81/81 79/79/79 80/80/80
f 82/82/82 81/81/81 80/80/80
f 85/85/85 84/84/84 83/83/83
f 86/86/86 83/83/83 84/84/84
f 87/87/87 83/83/83 86/86/86
f 88/88/88 83/83/83 87/87/87
f 89/89/89 83/83/83 88/88/88
f 90/90/90 83/83/83 89/89/89
f 91/91/91 83/83/83 90/90/90
f 92/92/92 83/83/83 91/91/91
f 95/95/95 94/94/94 93/93/93
f 94/94/94 96/96/96 93/93/93
f 94/94/94 97/97/97 96/96/96
f 97/97/97 98/98/98 96/96/96
f 97/97/97 99/99/99 98/98/98
f 99/99/99 100/100/100 98/98/98
f 99/99/99 101/101/101 100/100/100
f 101/101/101 102/102/102 100/100/100
f 101/101/101 103/103/103 102/102/102
f 103/103/103 104/104/104 102/102/102
f 103/103/103 105/105/105 104/104/104
f 105/105/105 106/106/106 104/104/104
f 105/105/105 107/107/107 106/106/106
f 107/107/107 108/108/108 106/106/106
f 107/107/107 109/109/109 108/108/108
f 109/109/109 110/110/110 108/108/108
f 113/113/113 112/112/112 111/111/111
f 114/114/114 113/113/113 111/111/111
f 114/114/114 111/111/111 115/115/115
f 113/113/113 114/114/114 116/116/116
f 117/117/117 114/114/114 115/115/115
f 115/115/115 118/118/118 117/117/117
f 118/118/118 119/119/119 117/117/117
f 114/114/114 120/120/120 116/116/116
f 114/114/114 117/117/117 120/120/120
f 121/121/121 116/116/116 120/120/120
f 117/117/117 119/119/119 122/122/122
f 117/117/117 122/122/122 120/120/120
f 119/119/119 123/123/123 122/122/122
f 124/124/124 121/121/121 120/120/120
f 124/124/124 120/120/120 122/122/122
f 125/125/125 121/121/121 124/124/124
f 122/122/122 123/123/123 126/126/126
f 126/126/126 124/124/124 122/122/122
f 123/123/123 127/127/127 126/126/126
f 128/128/128 125/125/125 124/124/124
f 128/128/128 124/124/124 126/126/126
f 129/129/129 125/125/125 128/128/128
f 126/126/126 127/127/127 130/130/130
f 130/130/130 128/128/128 126/126/126
f 127/127/127 131/131/131 130/130/130
f 132/132/132 129/129/129 128/128/128
f 132/132/132 128/128/128 130/130/130
f 133/133/133 129/129/129 132/132/132
f 130/130/130 131/131/131 134/134/134
f 134/134/134 132/132/132 130/130/130
f 131/131/131 135/135/135 134/134/134
f 136/136/136 133/133/133 132/132/132
f 136/136/136 132/132/132 134/134/134
f 137/137/137 133/133/133 136/136/136
f 134/134/134 135/135/135 138/138/138
f 138/138/138 136/136/136 134/134/134
f 135/135/135 139/139/139 138/138/138
f 140/140/140 137/137/137 136/136/136
f 140/140/140 136/136/136 138/138/138
f 141/141/141 137/137/137 140/140/140
f 142/142/142 141/141/141 140/140/140
f 138/138/138 139/139/139 143/143/143
f 143/143/143 140/140/140 138/138/138
f 142/142/142 140/140/140 143/143/143
f 139/139/139 144/144/144 143/143/143
f 145/145/145 142/142/142 143/143/143
f 143/143/143 144/144/144 145/145/145
f 144/144/144 146/146/146 145/145/145
f 149/149/149 148/148/148 147/147/147
f 150/150/150 149/149/149 147/147/147
f 150/150/150 151/151/151 149/149/149
f 151/151/151 152/152/152 149/149/149
f 151/151/151 153/153/153 152/152/152
f 153/153/153 154/154/154 152/152/152
f 153/153/153 155/155/155 154/154/154
f 155/155/155 156/156/156 154/154/154
f 155/155/155 157/157/157 156/156/156
f 157/157/157 158/158/158 156/156/156
f 157/157/157 159/159/159 158/158/158
f 159/159/159 160/160/160 158/158/158
f 159/159/159 161/161/161 160/160/160
f 161/161/161 162/162/162 160/160/160
f 161/161/161 163/163/163 162/162/162
f 163/163/163 164/164/164 162/162/162
f 167/167/167 166/166/166 165/165/165
f 168/168/168 167/167/167 165/165/165
f 169/169/169 167/167/167 168/168/168
f 170/170/170 169/169/169 168/168/168
f 171/171/171 169/169/169 170/170/170
f 172/172/172 171/171/171 170/170/170
f 173/173/173 171/171/171 172/172/172
f 174/174/174 173/173/173 172/172/172
f 175/175/175 173/173/173 174/174/174
f 176/176/176 175/175/175 174/174/174
f 177/177/177 175/175/175 176/176/176
f 178/178/178 177/177/177 176/176/176
f 179/179/179 177/177/177 178/178/178
f 180/180/180 179/179/179 178/178/178
f 181/181/181 179/179/179 180/180/180
f 182/182/182 181/181/181 180/180/180
f 185/185/185 184/184/184 183/183/183
f 184/184/184 186/186/186 183/183/183
f 187/187/187 183/183/183 186/186/186
f 188/188/188 186/186/186 184/184/184
f 189/189/189 188/188/188 184/184/184
f 190/190/190 187/187/187 186/186/186
f 190/190/190 186/186/186 188/188/188
f 191/191/191 187/187/187 190/190/190
f 192/192/192 191/191/191 190/190/190
f 192/192/192 190/190/190 193/193/193
f 193/193/193 190/190/190 188/188/188
f 194/194/194 192/192/192 193/193/193
f 195/195/195 188/188/188 189/189/189
f 193/193/193 188/188/188 195/195/195
f 196/196/196 195/195/195 189/189/189
f 194/194/194 193/193/193 197/197/197
f 197/197/197 193/193/193 195/195/195
f 198/198/198 194/194/194 197/197/197
f 199/199/199 195/195/195 196/196/196
f 197/197/197 195/195/195 199/199/199
f 200/200/200 199/199/199 196/196/196
f 198/198/198 197/197/197 201/201/201
f 201/201/201 197/197/197 199/199/199
f 202/202/202 198/198/198 201/201/201
f 203/203/203 199/199/199 200/200/200
f 201/201/201 199/199/199 203/203/203
f 204/204/204 203/203/203 200/200/200
f 202/202/202 201/201/201 205/205/205
f 205/205/205 201/201/201 203/203/203
f 206/206/206 202/202/202 205/205/205
f 207/207/207 203/203/203 204/204/204
f 205/205/205 203/203/203 207/207/207
f 208/208/208 207/207/207 204/204/204
f 206/206/206 205/205/205 209/209/209
f 209/209/209 205/205/205 207/207/207
f 210/210/210 206/206/206 209/209/209
f 211/211/211 207/207/207 208/208/208
f 207/207/207 211/211/211 209/209/209
f 212/212/212 211/211/211 208/208/208
f 209/209/209 213/213/213 210/210/210
f 211/211/211 213/213/213 209/209/209
f 213/213/213 214/214/214 210/210/210
f 215/215/215 211/211/211 212/212/212
f 213/213/213 211/211/211 215/215/215
f 216/216/216 215/215/215 212/212/212
f 217/217/217 213/213/213 215/215/215
f 214/214/214 213/213/213 217/217/217
f 218/218/218 214/214/214 217/217/217
f 221/221/221 220/220/220 219/219/219
f 220/220/220 222/222/222 219/219/219
f 219/219/219 222/222/222 223/223/223
f 222/222/222 224/224/224 223/223/223
f 223/223/223 224/224/224 225/225/225
f 224/224/224 226/226/226 225/225/225
f 225/225/225 226/226/226 227/227/227
f 226/226/226 228/228/228 227/227/227
f 227/227/227 228/228/228 229/229/229
f 228/228/228 230/230/230 229/229/229
f 229/229/229 230/230/230 231/231/231
f 230/230/230 232/232/232 231/231/231
f 231/231/231 232/232/232 233/233/233
f 232/232/232 234/234/234 233/233/233
f 233/233/233 234/234/234 235/235/235
f 236/236/236 233/233/233 235/235/235
f 239/239/239 238/238/238 237/237/237
f 240/240/240 239/239/239 237/237/237
f 241/241/241 239/239/239 240/240/240
f 242/242/242 241/241/241 240/240/240
f 242/242/242 240/240/240 243/243/243
f 244/244/244 242/242/242 243/243/243
f 241/241/241 245/245/245 239/239/239
f 245/245/245 246/246/246 239/239/239
f 245/245/245 247/247/247 246/246/246
f 247/247/247 248/248/248 246/246/246
f 247/247/247 249/249/249 248/248/248
f 249/249/249 250/250/250 248/248/248
f 251/251/251 242/242/242 244/244/244
f 252/252/252 251/251/251 244/244/244
f 244/244/244 253/253/253 252/252/252
f 251/251/251 254/254/254 242/242/242
f 254/254/254 241/241/241 242/242/242
f 254/254/254 255/255/255 241/241/241
f 255/255/255 245/245/245 241/241/241
f 255/255/255 256/256/256 245/245/245
f 256/256/256 247/247/247 245/245/245
f 256/256/256 257/257/257 247/247/247
f 257/257/257 249/249/249 247/247/247
f 257/257/257 258/258/258 249/249/249
f 258/258/258 259/259/259 249/249/249
f 249/249/249 259/259/259 250/250/250
f 258/258/258 260/260/260 259/259/259
f 259/259/259 261/261/261 250/250/250
f 250/250/250 261/261/261 262/262/262
f 261/261/261 263/263/263 262/262/262
f 260/260/260 264/264/264 259/259/259
f 259/259/259 264/264/264 261/261/261
f 260/260/260 265/265/265 264/264/264
f 264/264/264 266/266/266 261/261/261
f 265/265/265 267/267/267 264/264/264
f 264/264/264 267/267/267 266/266/266
f 267/267/267 268/268/268 266/266/266
f 271/271/271 270/270/270 269/269/269
f 270/270/270 272/272/272 269/269/269
f 270/270/270 273/273/273 272/272/272
f 273/273/273 274/274/274 272/272/272
f 272/272/272 274/274/274 275/275/275
f 276/276/276 273/273/273 270/270/270
f 277/277/277 276/276/276 270/270/270
f 274/274/274 278/278/278 275/275/275
f 279/279/279 275/275/275 278/278/278
f 280/280/280 279/279/279 278/278/278
f 280/280/280 278/278/278 281/281/281
f 282/282/282 281/281/281 278/278/278
f 274/274/274 282/282/282 278/278/278
f 283/283/283 282/282/282 274/274/274
f 273/273/273 283/283/283 274/274/274
f 284/284/284 283/283/283 273/273/273
f 276/276/276 284/284/284 273/273/273
f 285/285/285 284/284/284 276/276/276
f 286/286/286 276/276/276 277/277/277
f 286/286/286 285/285/285 276/276/276
f 287/287/287 286/286/286 277/277/277
f 288/288/288 285/285/285 286/286/286
f 289/289/289 286/286/286 287/287/287
f 289/289/289 288/288/288 286/286/286
f 290/290/290 288/288/288 289/289/289
f 291/291/291 289/289/289 287/287/287
f 292/292/292 290/290/290 289/289/289
f 292/292/292 289/289/289 291/291/291
f 293/293/293 290/290/290 292/292/292
f 294/294/294 293/293/293 292/292/292
f 295/295/295 292/292/292 291/291/291
f 294/294/294 292/292/292 295/295/295
f 296/296/296 294/294/294 295/295/295
f 295/295/295 291/291/291 297/297/297
f 298/298/298 295/295/295 297/297/297
f 301/301/301 300/300/300 299/299/299
f 300/300/300 302/302/302 299/299/299
f 300/300/300 303/303/303 302/302/302
f 299/299/299 302/302/302 304/304/304
f 303/303/303 305/305/305 302/302/302
f 302/302/302 306/306/306 304/304/304
f 302/302/302 305/305/305 306/306/306
f 304/304/304 306/306/306 307/307/307
f 305/305/305 308/308/308 306/306/306
f 306/306/306 309/309/309 307/307/307
f 306/306/306 308/308/308 309/309/309
f 307/307/307 309/309/309 310/310/310
f 308/308/308 311/311/311 309/309/309
f 309/309/309 312/312/312 310/310/310
f 309/309/309 311/311/311 312/312/312
f 311/311/311 313/313/313 312/312/312
f 316/316/316 315/315/315 314/314/314
f 315/315/315 317/317/317 314/314/314
f 315/315/315 318/318/318 317/317/317
f 314/314/314 317/317/317 319/319/319
f 318/318/318 320/320/320 317/317/317
f 317/317/317 321/321/321 319/319/319
f 317/317/317 320/320/320 321/321/321
f 319/319/319 321/321/321 322/322/322
f 320/320/320 323/323/323 321/321/321
f 321/321/321 324/324/324 322/322/322
f 321/321/321 323/323/323 324/324/324
f 323/323/323 325/325/325 324/324/324
f 328/328/328 327/327/327 326/326/326
f 327/327/327 329/329/329 326/326/326
f 327/327/327 330/330/330 329/329/329
f 330/330/330 331/331/331 329/329/329
f 334/334/334 333/333/333 332/332/332
f 335/335/335 334/334/334 332/332/332
f 336/336/336 334/334/334 335/335/335
f 335/335/335 332/332/332 337/337/337
f 338/338/338 336/336/336 335/335/335
f 339/339/339 335/335/335 337/337/337
f 338/338/338 335/335/335 339/339/339
f 339/339/339 337/337/337 340/340/340
f 341/341/341 338/338/338 339/339/339
f 342/342/342 339/339/339 340/340/340
f 341/341/341 339/339/339 342/342/342
f 342/342/342 340/340/340 343/343/343
f 344/344/344 341/341/341 342/342/342
f 345/345/345 342/342/342 343/343/343
f 344/344/344 342/342/342 345/345/345
f 346/346/346 344/344/344 345/345/345
f 349/349/349 348/348/348 347/347/347
f 348/348/348 350/350/350 347/347/347
f 347/347/347 350/350/350 351/351/351
f 348/348/348 352/352/352 350/350/350
f 350/350/350 353/353/353 351/351/351
f 352/352/352 354/354/354 350/350/350
f 350/350/350 354/354/354 353/353/353
f 352/352/352 355/355/355 354/354/354
f 354/354/354 356/356/356 353/353/353
f 355/355/355 357/357/357 354/354/354
f 354/354/354 357/357/357 356/356/356
f 355/355/355 358/358/358 357/357/357
f 357/357/357 359/359/359 356/356/356
f 358/358/358 360/360/360 357/357/357
f 357/357/357 360/360/360 359/359/359
f 360/360/360 361/361/361 359/359/359
f 364/364/364 363/363/363 362/362/362
f 363/363/363 365/365/365 362/362/362
f 362/362/362 365/365/365 366/366/366
f 365/365/365 367/367/367 366/366/366
f 366/366/366 367/367/367 368/368/368
f 367/367/367 369/369/369 368/368/368
f 368/368/368 369/369/369 370/370/370
f 369/369/369 371/371/371 370/370/370
f 370/370/370 371/371/371 372/372/372
f 371/371/371 373/373/373 372/372/372
f 372/372/372 373/373/373 374/374/374
f 373/373/373 375/375/375 374/374/374
f 374/374/374 375/375/375 376/376/376
f 375/375/375 377/377/377 376/376/376
f 376/376/376 377/377/377 378/378/378
f 377/377/377 379/379/379 378/378/378
f 382/382/382 381/381/381 380/380/380
f 383/383/383 382/382/382 380/380/380
f 384/384/384 382/382/382 383/383/383
f 385/385/385 384/384/384 383/383/383
f 386/386/386 384/384/384 385/385/385
f 387/387/387 386/386/386 385/385/385
f 388/388/388 386/386/386 387/387/387
f 389/389/389 388/388/388 387/387/387
f 390/390/390 388/388/388 389/389/389
f 391/391/391 390/390/390 389/389/389
f 392/392/392 390/390/390 391/391/391
f 393/393/393 392/392/392 391/391/391
f 394/394/394 392/392/392 393/393/393
f 395/395/395 394/394/394 393/393/393
f 396/396/396 394/394/394 395/395/395
f 397/397/397 396/396/396 395/395/395
f 400/400/400 399/399/399 398/398/398
f 399/399/399 401/401/401 398/398/398
f 398/398/398 401/401/401 402/402/402
f 401/401/401 403/403/403 402/402/402
f 402/402/402 403/403/403 404/404/404
f 403/403/403 405/405/405 404/404/404
f 404/404/404 405/405/405 406/406/406
f 405/405/405 407/407/407 406/406/406
f 406/406/406 407/407/407 408/408/408
f 407/407/407 409/409/409 408/408/408
f 408/408/408 409/409/409 410/410/410
f 409/409/409 411/411/411 410/410/410
f 410/410/410 411/411/411 412/412/412
f 411/411/411 413/413/413 412/412/412
f 412/412/412 413/413/413 414/414/414
f 413/413/413 415/415/415 414/414/414
f 418/418/418 417/417/417 416/416/416
f 419/419/419 418/418/418 416/416/416
f 420/420/420 418/418/418 419/419/419
f 421/421/421 420/420/420 419/419/419
f 422/422/422 420/420/420 421/421/421
f 423/423/423 422/422/422 421/421/421
f 424/424/424 422/422/422 423/423/423
f 425/425/425 424/424/424 423/423/423
f 426/426/426 424/424/424 425/425/425
f 427/427/427 426/426/426 425/425/425
f 428/428/428 426/426/426 427/427/427
f 429/429/429 428/428/428 427/427/427
f 430/430/430 428/428/428 429/429/429
f 431/431/431 430/430/430 429/429/429
f 432/432/432 430/430/430 431/431/431
f 433/433/433 432/432/432 431/431/431
f 436/436/436 435/435/435 434/434/434
f 435/435/435 436/436/436 437/437/437
f 435/435/435 438/438/438 434/434/434
f 434/434/434 438/438/438 439/439/439
f 440/440/440 435/435/435 437/437/437
f 435/435/435 440/440/440 438/438/438
f 437/437/437 441/441/441 440/440/440
f 441/441/441 442/442/442 440/440/440
f 440/440/440 442/442/442 438/438/438
f 442/442/442 441/441/441 443/443/443
f 438/438/438 442/442/442 443/443/443
f 441/441/441 444/444/444 443/443/443
f 438/438/438 445/445/445 439/439/439
f 445/445/445 438/438/438 443/443/443
f 439/439/439 445/445/445 446/446/446
f 445/445/445 447/447/447 446/446/446
f 445/445/445 443/443/443 447/447/447
f 448/448/448 446/446/446 447/447/447
f 444/444/444 448/448/448 449/449/449
f 443/443/443 444/444/444 449/449/449
f 443/443/443 449/449/449 447/447/447
f 449/449/449 448/448/448 447/447/447
f 452/452/452 451/451/451 450/450/450
f 451/451/451 452/452/452 453/453/453
f 451/451/451 454/454/454 450/450/450
f 450/450/450 454/454/454 455/455/455
f 456/456/456 451/451/451 453/453/453
f 451/451/451 456/456/456 454/454/454
f 453/453/453 457/457/457 456/456/456
f 457/457/457 458/458/458 456/456/456
f 456/456/456 458/458/458 454/454/454
f 458/458/458 457/457/457 459/459/459
f 454/454/454 458/458/458 459/459/459
f 457/457/457 460/460/460 459/459/459
f 454/454/454 461/461/461 455/455/455
f 461/461/461 454/454/454 459/459/459
f 455/455/455 461/461/461 462/462/462
f 461/461/461 463/463/463 462/462/462
f 461/461/461 459/459/459 463/463/463
f 464/464/464 462/462/462 463/463/463
f 460/460/460 464/464/464 465/465/465
f 459/459/459 460/460/460 465/465/465
f 459/459/459 465/465/465 463/463/463
f 465/465/465 464/464/464 463/463/463
f 468/468/468 467/467/467 466/466/466
f 467/467/467 468/468/468 469/469/469
f 467/467/467 470/470/470 466/466/466
f 466/466/466 470/470/470 471/471/471
f 472/472/472 467/467/467 469/469/469
f 467/467/467 472/472/472 470/470/470
f 469/469/469 473/473/473 472/472/472
f 473/473/473 474/474/474 472/472/472
f 472/472/472 474/474/474 470/470/470
f 474/474/474 473/473/473 475/475/475
f 470/470/470 474/474/474 475/475/475
f 473/473/473 476/476/476 475/475/475
f 470/470/470 477/477/477 471/471/471
f 477/477/477 470/470/470 475/475/475
f 471/471/471 477/477/477 478/478/478
f 477/477/477 479/479/479 478/478/478
f 477/477/477 475/475/475 479/479/479
f 480/480/480 478/478/478 479/479/479
f 476/476/476 480/480/480 481/481/481
f 475/475/475 476/476/476 481/481/481
f 475/475/475 481/481/481 479/479/479
f 481/481/481 480/480/480 479/479/479
f 484/484/484 483/483/483 482/482/482
f 483/483/483 484/484/484 485/485/485
f 483/483/483 486/486/486 482/482/482
f 482/482/482 486/486/486 487/487/487
f 488/488/488 483/483/483 485/485/485
f 483/483/483 488/488/488 486/486/486
f 485/485/485 489/489/489 488/488/488
f 489/489/489 490/490/490 488/488/488
f 488/488/488 490/490/490 486/486/486
f 490/490/490 489/489/489 491/491/491
f 486/486/486 490/490/490 491/491/491
f 489/489/489 492/492/492 491/491/491
f 486/486/486 493/493/493 487/487/487
f 493/493/493 486/486/486 491/491/491
f 487/487/487 493/493/493 494/494/494
f 493/493/493 495/495/495 494/494/494
f 493/493/493 491/491/491 495/495/495
f 496/496/496 494/494/494 495/495/495
f 492/492/492 496/496/496 497/497/497
f 491/491/491 492/492/492 497/497/497
f 491/491/491 497/497/497 495/495/495
f 497/497/497 496/496/496 495/495/495
f 500/500/500 499/499/499 498/498/498
f 501/501/501 500/500/500 498/498/498
f 502/502/502 500/500/500 501/501/501
f 498/498/498 503/503/503 501/501/501
f 501/501/501 503/503/503 504/504/504
f 504/504/504 502/502/502 501/501/501
f 505/505/505 503/503/503 498/498/498
f 498/498/498 499/499/499 505/505/505
f 506/506/506 502/502/502 504/504/504
f 499/499/499 507/507/507 505/505/505
f 508/508/508 506/506/506 504/504/504
f 504/504/504 503/503/503 508/508/508
f 509/509/509 506/506/506 508/508/508
f 505/505/505 507/507/507 510/510/510
f 510/510/510 503/503/503 505/505/505
f 507/507/507 511/511/511 510/510/510
f 512/512/512 509/509/509 508/508/508
f 508/508/508 503/503/503 512/512/512
f 513/513/513 509/509/509 512/512/512
f 510/510/510 511/511/511 514/514/514
f 514/514/514 503/503/503 510/510/510
f 511/511/511 515/515/515 514/514/514
f 516/516/516 513/513/513 512/512/512
f 512/512/512 503/503/503 516/516/516
f 517/517/517 513/513/513 516/516/516
f 514/514/514 515/515/515 518/518/518
f 518/518/518 503/503/503 514/514/514
f 516/516/516 503/503/503 518/518/518
f 515/515/515 517/517/517 518/518/518
f 518/518/518 517/517/517 516/516/516
f 521/521/521 520/520/520 519/519/519
f 522/522/522 521/521/521 519/519/519
f 523/523/523 521/521/521 522/522/522
f 519/519/519 524/524/524 522/522/522
f 522/522/522 524/524/524 525/525/525
f 525/525/525 523/523/523 522/522/522
f 526/526/526 524/524/524 519/519/519
f 519/519/519 520/520/520 526/526/526
f 527/527/527 523/523/523 525/525/525
f 520/520/520 528/528/528 526/526/526
f 529/529/529 527/527/527 525/525/525
f 525/525/525 524/524/524 529/529/529
f 530/530/530 527/527/527 529/529/529
f 526/526/526 528/528/528 531/531/531
f 531/531/531 524/524/524 526/526/526
f 528/528/528 532/532/532 531/531/531
f 533/533/533 530/530/530 529/529/529
f 529/529/529 524/524/524 533/533/533
f 534/534/534 530/530/530 533/533/533
f 531/531/531 532/532/532 535/535/535
f 535/535/535 524/524/524 531/531/531
f 532/532/532 536/536/536 535/535/535
f 537/537/537 534/534/534 533/533/533
f 533/533/533 524/524/524 537/537/537
f 538/538/538 534/534/534 537/537/537
f 535/535/535 536/536/536 539/539/539
f 539/539/539 524/524/524 535/535/535
f 537/537/537 524/524/524 539/539/539
f 536/536/536 538/538/538 539/539/539
f 539/539/539 538/538/538 537/537/537
f 542/542/542 541/541/541 540/540/540
f 543/543/543 542/542/542 540/540/540
f 544/544/544 542/542/542 543/543/543
f 540/540/540 545/545/545 543/543/543
f 543/543/543 545/545/545 546/546/546
f 546/546/546 544/544/544 543/543/543
f 547/547/547 545/545/545 540/540/540
f 540/540/540 541/541/541 547/547/547
f 548/548/548 544/544/544 546/546/546
f 541/541/541 549/549/549 547/547/547
f 550/550/550 548/548/548 546/546/546
f 546/546/546 545/545/545 550/550/550
f 551/551/551 548/548/548 550/550/550
f 547/547/547 549/549/549 552/552/552
f 552/552/552 545/545/545 547/547/547
f 549/549/549 553/553/553 552/552/552
f 554/554/554 551/551/551 550/550/550
f 550/550/550 545/545/545 554/554/554
f 555/555/555 551/551/551 554/554/554
f 552/552/552 553/553/553 556/556/556
f 556/556/556 545/545/545 552/552/552
f 553/553/553 557/557/557 556/556/556
f 558/558/558 555/555/555 554/554/554
f 554/554/554 545/545/545 558/558/558
f 559/559/559 555/555/555 558/558/558
f 556/556/556 557/557/557 560/560/560
f 560/560/560 545/545/545 556/556/556
f 558/558/558 545/545/545 560/560/560
f 557/557/557 559/559/559 560/560/560
f 560/560/560 559/559/559 558/558/558
f 563/563/563 562/562/562 561/561/561
f 564/564/564 563/563/563 561/561/561
f 565/565/565 563/563/563 564/564/564
f 561/561/561 566/566/566 564/564/564
f 564/564/564 566/566/566 567/567/567
f 567/567/567 565/565/565 564/564/564
f 568/568/568 566/566/566 561/561/561
f 561/561/561 562/562/562 568/568/568
f 569/569/569 565/565/565 567/567/567
f 562/562/562 570/570/570 568/568/568
f 571/571/571 569/569/569 567/567/567
f 567/567/567 566/566/566 571/571/571
f 572/572/572 569/569/569 571/571/571
f 568/568/568 570/570/570 573/573/573
f 573/573/573 566/566/566 568/568/568
f 570/570/570 574/574/574 573/573/573
f 575/575/575 572/572/572 571/571/571
f 571/571/571 566/566/566 575/575/575
f 576/576/576 572/572/572 575/575/575
f 573/573/573 574/574/574 577/577/577
f 577/577/577 566/566/566 573/573/573
f 574/574/574 578/578/578 577/577/577
f 579/579/579 576/576/576 575/575/575
f 575/575/575 566/566/566 579/579/579
f 580/580/580 576/576/576 579/579/579
f 577/577/577 578/578/578 581/581/581
f 581/581/581 566/566/566 577/577/577
f 579/579/579 566/566/566 581/581/581
f 578/578/578 580/580/580 581/581/581
f 581/581/581 580/580/580 579/579/579
