g BarrierTraceChipA
v 0.233562008 1.06581408E-16 0.453166485
v -0 1.06581408E-16 0
v 0.469035625 1.06581408E-16 0
v -0.233563229 1.06581408E-16 0.453166485
v 0.233562008 1.06581408E-16 -0.453165263
v -0.469035625 1.06581408E-16 0
v -0.233563229 1.06581408E-16 -0.453165889
vt 0.909667969 0.401367188
vt 0.852050781 0.516601562
vt 0.967285156 0.516601562
vt 0.794921875 0.401367188
vt 0.909667969 0.631835938
vt 0.737304688 0.516601562
vt 0.794921875 0.631835938
vn -0 1 0
vn -0 1 0
vn -0 1 0
vn -0 1 0
vn -0 1 0
vn -0 1 0
vn -0 1 0
g BarrierTraceChipA_0
f 3/3/3 2/2/2 1/1/1
f 1/1/1 2/2/2 4/4/4
f 5/5/5 2/2/2 3/3/3
f 4/4/4 2/2/2 6/6/6
f 7/7/7 2/2/2 5/5/5
f 6/6/6 2/2/2 7/7/7
