g Body
v 1.87190351E-16 0.623022199 -25.9768848
v 0.0693950504 15.1253357 -6.99834633
v 9.45713425 17.9421406 -10.8954964
v 1.87190351E-16 0.623022199 -25.9768848
v 5.17396069 23.2324944 -30.2846737
v -5.17396069 23.2324944 -30.2846718
v 1.87190351E-16 0.623022199 -25.9768848
v 13.556138 22.9467201 -18.1369133
v 5.44685268 23.1673393 -30.121109
v 1.87190351E-16 0.623022199 -25.9768848
v 9.76840591 18.166153 -11.2793837
v 13.5549774 22.8381119 -17.7359848
v -5.17390823 23.5953903 -30.1950455
v 5.17390823 23.5953903 -30.1950455
v -1.09110432E-09 37.1584282 -14.2955399
v 5.44605923 23.5328312 -30.0360184
v 13.556138 23.33741 -18.0454216
v -1.09110432E-09 37.1584282 -14.2955399
v 13.5439234 23.2345695 -17.6174736
v 9.76751614 18.6034832 -11.1208353
v -1.09110432E-09 37.1584282 -14.2955399
v 9.45489502 18.377388 -10.74366
v 0.0702297464 15.4608707 -6.75053787
v -1.09110432E-09 37.1584282 -14.2955399
v 0.0693950504 15.1253357 -6.99834633
v 1.87190351E-16 0.623022199 -25.9768848
v -0.0706140846 15.1243029 -6.99995804
v 1.87190351E-16 0.623022199 -25.9768848
v -9.45713425 17.9421406 -10.8954964
v -0.0706140846 15.1243029 -6.99995804
v 1.87190351E-16 0.623022199 -25.9768848
v -5.44685268 23.1673393 -30.121109
v -13.556138 22.9467201 -18.1369133
v 1.87190351E-16 0.623022199 -25.9768848
v -13.5549774 22.8381119 -17.7359848
v -9.76840591 18.166153 -11.2793837
v -5.44605923 23.5328312 -30.0360184
v -1.09110432E-09 37.1584282 -14.2955399
v -13.556138 23.33741 -18.0454216
v -13.5439234 23.2345695 -17.6174736
v -1.09110432E-09 37.1584282 -14.2955399
v -9.76751614 18.6034832 -11.1208353
v -9.45489502 18.377388 -10.74366
v -1.09110432E-09 37.1584282 -14.2955399
v -0.0677361786 15.4591722 -6.7484436
v 9.76751614 18.6034832 -11.1208353
v 9.45489502 18.377388 -10.74366
v -1.09110432E-09 37.1584282 -14.2955399
v 9.45713425 17.9421406 -10.8954964
v 9.76840591 18.166153 -11.2793837
v 1.87190351E-16 0.623022199 -25.9768848
v 0.0693950504 15.1253357 -6.99834633
v 13.5439234 23.2345695 -17.6174736
v 0.0702297464 15.4608707 -6.75053787
v 13.5549774 22.8381119 -17.7359848
v -0.0677361786 15.4591722 -6.7484436
v -0.0706140846 15.1243029 -6.99995804
v -1.09110432E-09 37.1584282 -14.2955399
v 13.556138 23.33741 -18.0454216
v -1.09110432E-09 37.1584282 -14.2955399
v 13.556138 22.9467201 -18.1369133
v 1.87190351E-16 0.623022199 -25.9768848
v 5.44605923 23.5328312 -30.0360184
v 5.44685268 23.1673393 -30.121109
v 5.17390823 23.5953903 -30.1950455
v -1.09110432E-09 37.1584282 -14.2955399
v 5.17396069 23.2324944 -30.2846737
v 1.87190351E-16 0.623022199 -25.9768848
v -5.17390823 23.5953903 -30.1950455
v -5.17396069 23.2324944 -30.2846718
v -9.76751614 18.6034832 -11.1208353
v -1.09110432E-09 37.1584282 -14.2955399
v -9.45489502 18.377388 -10.74366
v -9.45713425 17.9421406 -10.8954964
v -0.0706140846 15.1243029 -6.99995804
v -0.0677361786 15.4591722 -6.7484436
v -9.76840591 18.166153 -11.2793837
v 1.87190351E-16 0.623022199 -25.9768848
v -13.5439234 23.2345695 -17.6174736
v -13.5549774 22.8381119 -17.7359848
v -13.556138 23.33741 -18.0454216
v -1.09110432E-09 37.1584282 -14.2955399
v -13.556138 22.9467201 -18.1369133
v 1.87190351E-16 0.623022199 -25.9768848
v -5.44605923 23.5328312 -30.0360184
v -5.44685268 23.1673393 -30.121109
v -5.17390823 23.5953903 -30.1950455
v -1.09110432E-09 37.1584282 -14.2955399
v -5.17396069 23.2324944 -30.2846718
v 1.87190351E-16 0.623022199 -25.9768848
v 17.1915817 21.8045654 -34.0193291
v 17.2866516 22.0762272 -34.0746689
v 14.4280376 24.9775906 -31.2291431
v 14.3337231 24.8043022 -31.3874855
v 11.0108662 27.2212982 -29.2994957
v 10.8661728 26.9476681 -29.0791187
v 7.80456734 30.1016464 -26.9261093
v 7.68282175 29.8001041 -26.8341293
v 4.33457375 32.6752167 -25.2173615
v 4.16862869 32.4509201 -24.7979126
v 1.439762 35.9513741 -22.9321346
v 1.36068404 35.9587364 -22.3686237
v 1.00911482E-16 38.7924919 -21.1869011
v 5.29746475E-16 38.786499 -20.6387138
v 1.50664723 41.2526321 -19.5791969
v -8.17387985E-17 41.299366 -19.5163555
v 1.00911482E-16 38.7924919 -21.1869011
v 2.14188814 39.5973663 -19.3708572
v 3.38725328 42.4184418 -19.4309177
v 4.15816832 36.1586418 -21.4878769
v 1.439762 35.9513741 -22.9321346
v 3.50322747 39.9439774 -18.5267353
v 5.02520895 39.59412 -16.6689625
v 5.41645479 43.8887825 -18.8390331
v 7.29513979 32.6259193 -23.347971
v 4.33457375 32.6752167 -25.2173615
v 7.80456734 30.1016464 -26.9261093
v 6.22065115 36.6169586 -20.182785
v 10.2588282 29.9733849 -24.7198887
v 11.0108662 27.2212982 -29.2994957
v 10.058877 33.2219734 -21.1175194
v 12.9921837 27.2644348 -26.674263
v 14.4280376 24.9775906 -31.2291431
v 8.00275517 41.4754524 -14.6772995
v 6.82624483 45.6624832 -18.2342014
v 7.58975792 36.8934898 -18.1734104
v 12.5320053 30.2390442 -21.9745522
v 13.3971949 30.8357239 -17.5058384
v 10.9289398 33.5626602 -19.110445
v 8.29637241 36.4729843 -15.5878105
v 14.7765512 27.2867355 -24.3329811
v 15.8767719 24.9189148 -28.3947411
v 5.38872385 39.0161362 -13.9491959
v 11.1982803 33.5339317 -16.8137741
v 19.3328037 22.3430099 -30.7203541
v 17.2866516 22.0762272 -34.0746689
v 17.1915817 21.8045654 -34.0193291
v 19.1859722 22.0672836 -30.6159344
v 22.1949596 22.6977806 -27.0321617
v 22.1975422 22.4868336 -26.98876
v 17.4716263 24.9763851 -25.4621315
v 23.9161873 22.9915791 -20.6358757
v 23.9161873 22.7911453 -20.6895828
v 21.4002628 18.5286713 -15.3142052
v 16.605999 27.480526 -18.7814693
v 20.163559 24.8656387 -19.8069859
v 21.3967686 18.7036209 -15.0620384
v 17.0170631 20.8769341 -14.5406361
v 19.1417313 14.60355 -12.5664148
v 19.1034431 14.4668512 -12.958375
v 13.8793383 23.6379814 -14.0387192
v 16.5140209 11.1502619 -10.4210234
v 16.4820137 11.0061855 -10.768362
v 13.7263861 9.10362434 -9.14135361
v 14.9907799 18.1018429 -12.0207491
v 11.9894505 14.6117811 -9.39857864
v 13.7666721 9.43251228 -8.79693222
v 10.7424698 8.72060776 -7.75908661
v 10.8094311 9.09977722 -7.45083237
v 6.75794649 9.76983643 -6.42983818
v 6.97590923 10.1887283 -6.26664734
v 3.08889294 11.4789982 -3.13368416
v 12.7859011 20.8518639 -11.4662762
v 3.30199385 11.6674089 -2.9709549
v -6.70353627E-16 12.3038836 -0.542320251
v -4.35788128E-17 12.5313358 -0.194261551
v 6.54372692 17.3359013 -8.03383923
v 3.42172742 17.6371422 -5.15970993
v 4.91838363E-16 17.4320621 -2.74131012
v 9.61664486 19.3717079 -9.63665867
v 12.1639557 27.1518421 -13.4261932
v 3.78632092 23.1593437 -5.79927254
v -6.83304443E-16 23.3435612 -3.78922081
v 7.28200006 24.249754 -9.02997398
v 9.97715664 25.3899612 -10.7193117
v 10.178627 30.2354984 -12.524003
v 3.51148748 27.5522499 -6.2087431
v -3.44264365E-16 27.2917042 -4.36156845
v 7.55810118 28.3797035 -9.38363934
v 8.04352474 32.7480354 -11.8002825
v 3.03437614 30.5981407 -6.10249043
v -1.79690681E-16 30.7310696 -5.03421783
v 2.03432763E-16 33.3638763 -5.45612431
v 5.44924545 31.4926109 -8.48131657
v 7.52900791 35.7235947 -13.3890314
v 6.42488432 34.6072578 -10.7127266
v 3.63669133 34.0089874 -7.93726063
v 2.70470476 37.110405 -7.53325462
v 1.22678905E-16 36.4446564 -5.85824013
v 4.98940849 37.9366913 -10.4110813
v 7.98803902 40.4961166 -12.3065281
v 2.99126649 40.0262337 -1.96088028
v -5.93448435E-16 39.8135529 -0.994974136
v -2.31787416E-16 43.3871689 1.09728813
v 9.8777647 42.0026283 -7.27415562
v 10.0663385 44.2422256 -14.0975504
v 7.72459793 47.6472778 -17.5769119
v 6.57131529 40.6694031 -3.70072556
v 3.42741108 43.7312927 -0.26871109
v 10.7272778 43.1744385 -10.2756824
v 9.87738705 45.7940674 -7.18153
v 6.42048883 44.3636017 -2.1546154
v 3.50831223 47.4828415 1.39144897
v 6.78799816E-16 47.174408 2.53768826
v 11.2485409 47.5528679 -13.3720732
v 7.7697897 52.3232346 -14.7598858
v 6.35443211 50.9014435 -17.4518719
v 5.827528 55.1004944 -15.2718983
v 5.0350914 52.9191246 -17.561348
v 3.79171824 54.565403 -17.7373352
v 2.22153044 56.0602798 -17.9909439
v 10.2430201 49.8236847 -11.1003695
v 6.04381752 48.9089279 -0.61135006
v 2.19272184 51.2243538 2.70099258
v -7.33503692E-16 51.4795456 4.1238327
v 3.00939012 58.1159668 -15.1596775
v -3.48964789E-16 57.4874878 -18.6221008
v -1.28275421E-15 59.6018829 -15.2346601
v -1.39888105E-15 60.5511818 -11.2267046
v 3.21782374 58.8531036 -11.2567673
v -8.2887939E-16 60.6949654 -7.26428127
v 6.22768641 55.5832748 -11.304945
v 3.22812176 58.924942 -8.15900898
v 3.10868907 58.4818764 -5.55188179
v 6.89092272E-16 60.2128143 -3.25948429
v 5.86780643 56.7082443 -8.48700905
v 8.92041397 52.3961639 -8.40964317
v 2.72691226 56.9659653 -0.531750679
v 8.17142319E-16 58.0682602 1.76307487
v 5.27287292 55.8372803 -3.10198498
v 1.66526043 54.4134026 3.44206524
v 4.00111233E-16 55.1081009 5.09911537
v 3.93265533 54.416626 1.12805462
v 5.08218813 51.2462273 0.352876663
v 5.87033844 53.5981064 -0.829973221
v 7.67269516 54.058815 -6.13913631
v 8.34284496 51.656002 -4.3832798
v 8.7745142 49.5433884 -4.47121811
v 9.33137035 50.5550461 -7.01487255
v 1.50664723 41.2526321 -19.5791969
v -4.04112041E-17 39.6264076 -16.6593742
v -8.17387985E-17 41.299366 -19.5163555
v 3.38725328 42.4184418 -19.4309177
v 4.06021214 40.1334991 -15.7710752
v -3.85553119E-16 45.4204941 -10.3716526
v 6.63064432 41.4898186 -14.8769627
v 5.41645479 43.8887825 -18.8390331
v 6.82624483 45.6624832 -18.2342014
v 8.55175018 43.2285118 -14.4259911
v 7.72459793 47.6472778 -17.5769119
v 9.09124279 45.5942841 -14.8348875
v 6.35443211 50.9014435 -17.4518719
v 8.47694778 48.2228622 -14.9114151
v 5.0350914 52.9191246 -17.561348
v 6.88679934 51.451088 -15.029541
v 3.79171824 54.565403 -17.7373352
v 5.0720849 54.0922737 -14.7820091
v 2.22153044 56.0602798 -17.9909439
v 2.72038603 55.8602448 -14.881175
v -6.09014677E-16 57.4438667 -15.3168802
v -3.48964789E-16 57.4874878 -18.6221008
v 19.1859722 22.0672836 -30.6159344
v 17.1915817 21.8045654 -34.0193291
v 14.3337231 24.8043022 -31.3874855
v 15.5938444 24.7555809 -28.5801563
v 22.1975422 22.4868336 -26.98876
v 12.7092571 27.0696754 -26.8263321
v 10.8661728 26.9476681 -29.0791187
v 14.4936237 27.0919762 -24.4850502
v 17.1886997 24.8130512 -25.6475525
v 23.9161873 22.7911453 -20.6895828
v 16.3230705 27.241848 -18.8454247
v 19.8806305 24.6269627 -19.8709393
v 21.4002628 18.5286713 -15.3142052
v 16.7341366 20.638258 -14.6045876
v 13.5964117 23.3993053 -14.1026745
v 19.1034431 14.4668512 -12.958375
v 14.7078524 17.8631668 -12.0847006
v 12.5029745 20.6131878 -11.5302296
v 11.7065239 14.3731041 -9.46253204
v 16.4820137 11.0061855 -10.768362
v 9.3337183 19.1330318 -9.70061016
v 13.7263861 9.10362434 -9.14135361
v 10.7424698 8.72060776 -7.75908661
v 6.75794649 9.76983643 -6.42983818
v 6.26080084 17.0972252 -8.09779263
v 3.08889294 11.4789982 -3.13368416
v 3.13880134 17.3984661 -5.22366333
v -6.70353627E-16 12.3038836 -0.542320251
v -7.91508773E-16 17.2103424 -3.00522995
v 3.13880134 17.3984661 -5.22366333
v -1.5998888E-16 37.0992317 -9.09357071
v -7.91508773E-16 17.2103424 -3.00522995
v 6.26080084 17.0972252 -8.09779263
v 9.3337183 19.1330318 -9.70061016
v 12.5029745 20.6131878 -11.5302296
v 13.5964117 23.3993053 -14.1026745
v 16.3230705 27.241848 -18.8454247
v 14.4936237 27.0919762 -24.4850502
v 10.9000664 29.9169426 -23.0490875
v 12.7092571 27.0696754 -26.8263321
v 7.68282175 29.8001041 -26.8341293
v 10.8661728 26.9476681 -29.0791187
v 4.16862869 32.4509201 -24.7979126
v 6.21102571 31.1189346 -21.3496132
v 1.36068404 35.9587364 -22.3686237
v 3.67140007 34.1626358 -18.5678272
v 3.49287999E-17 39.0377235 -18.7825279
v 5.29746475E-16 38.786499 -20.6387138
v -17.1915817 21.8045654 -34.0193291
v -14.4280376 24.9775906 -31.2291431
v -17.2866516 22.0762272 -34.0746689
v -14.3337231 24.8043022 -31.3874855
v -11.0108662 27.2212982 -29.2994957
v -10.8661728 26.9476681 -29.0791187
v -7.80456734 30.1016464 -26.9261093
v -7.68282175 29.8001041 -26.8341293
v -4.33457375 32.6752167 -25.2173615
v -4.16862869 32.4509201 -24.7979126
v -1.439762 35.9513741 -22.9321346
v -1.36068404 35.9587364 -22.3686237
v 1.00911482E-16 38.7924919 -21.1869011
v 5.29746475E-16 38.786499 -20.6387138
v -1.50664723 41.2526321 -19.5791969
v 1.00911482E-16 38.7924919 -21.1869011
v -8.17387985E-17 41.299366 -19.5163555
v -2.14188814 39.5973663 -19.3708572
v -3.38725328 42.4184418 -19.4309177
v -4.15816832 36.1586418 -21.4878769
v -1.439762 35.9513741 -22.9321346
v -3.50322747 39.9439774 -18.5267353
v -5.02520895 39.59412 -16.6689625
v -5.41645479 43.8887825 -18.8390331
v -7.29513979 32.6259193 -23.347971
v -4.33457375 32.6752167 -25.2173615
v -7.80456734 30.1016464 -26.9261093
v -6.22065115 36.6169586 -20.182785
v -10.2588282 29.9733849 -24.7198887
v -11.0108662 27.2212982 -29.2994957
v -10.058877 33.2219734 -21.1175194
v -12.9921837 27.2644348 -26.674263
v -14.4280376 24.9775906 -31.2291431
v -8.00275517 41.4754524 -14.6772995
v -6.82624483 45.6624832 -18.2342014
v -7.58975792 36.8934898 -18.1734104
v -12.5320053 30.2390442 -21.9745522
v -13.3971949 30.8357239 -17.5058384
v -10.9289398 33.5626602 -19.110445
v -8.29637241 36.4729843 -15.5878105
v -14.7765512 27.2867355 -24.3329811
v -15.8767719 24.9189148 -28.3947411
v -5.38872385 39.0161362 -13.9491959
v -10.0663385 44.2422256 -14.0975504
v -7.72459793 47.6472778 -17.5769119
v -11.1982803 33.5339317 -16.8137741
v -19.3328037 22.3430099 -30.7203541
v -17.2866516 22.0762272 -34.0746689
v -17.1915817 21.8045654 -34.0193291
v -19.1859722 22.0672836 -30.6159344
v -22.1949596 22.6977806 -27.0321617
v -22.1975422 22.4868336 -26.98876
v -17.4716263 24.9763851 -25.4621315
v -23.9161873 22.9915791 -20.6358757
v -23.9161873 22.7911453 -20.6895828
v -21.4002628 18.5286713 -15.3142052
v -16.605999 27.480526 -18.7814693
v -20.163559 24.8656387 -19.8069859
v -21.3967686 18.7036209 -15.0620384
v -17.0170631 20.8769341 -14.5406361
v -19.1417313 14.60355 -12.5664148
v -19.1034431 14.4668512 -12.958375
v -13.8793383 23.6379814 -14.0387192
v -14.9907799 18.1018429 -12.0207491
v -16.5140209 11.1502619 -10.4210234
v -11.9894505 14.6117811 -9.39857864
v -16.4820137 11.0061855 -10.768362
v -13.7263861 9.10362434 -9.14135361
v -13.7666721 9.43251228 -8.79693222
v -10.7424698 8.72060776 -7.75908661
v -10.8094311 9.09977722 -7.45083237
v -6.75794649 9.76983643 -6.42983818
v -6.97590923 10.1887283 -6.26664734
v -3.08889294 11.4789982 -3.13368416
v -12.7859011 20.8518639 -11.4662762
v -3.30199385 11.6674089 -2.9709549
v -6.70353627E-16 12.3038836 -0.542320251
v -4.35788128E-17 12.5313358 -0.194261551
v -6.54372692 17.3359013 -8.03383923
v -3.42172742 17.6371422 -5.15970993
v 4.91838363E-16 17.4320621 -2.74131012
v -9.61664486 19.3717079 -9.63665867
v -12.1639557 27.1518421 -13.4261932
v -7.28200006 24.249754 -9.02997398
v -3.78632092 23.1593437 -5.79927254
v -6.83304443E-16 23.3435612 -3.78922081
v -9.97715664 25.3899612 -10.7193117
v -10.178627 30.2354984 -12.524003
v -3.51148748 27.5522499 -6.2087431
v -3.44264365E-16 27.2917042 -4.36156845
v -7.55810118 28.3797035 -9.38363934
v -8.04352474 32.7480354 -11.8002825
v -3.03437614 30.5981407 -6.10249043
v -1.79690681E-16 30.7310696 -5.03421783
v 2.03432763E-16 33.3638763 -5.45612431
v -5.44924545 31.4926109 -8.48131657
v -7.52900791 35.7235947 -13.3890314
v -6.42488432 34.6072578 -10.7127266
v -3.63669133 34.0089874 -7.93726063
v -2.70470476 37.110405 -7.53325462
v 1.22678905E-16 36.4446564 -5.85824013
v -4.98940849 37.9366913 -10.4110813
v -7.98803902 40.4961166 -12.3065281
v -9.8777647 42.0026283 -7.27415562
v -2.99126649 40.0262337 -1.96088028
v -5.93448435E-16 39.8135529 -0.994974136
v -2.31787416E-16 43.3871689 1.09728813
v -10.7272778 43.1744385 -10.2756824
v -9.87738705 45.7940674 -7.18153
v -11.2485409 47.5528679 -13.3720732
v -6.57131529 40.6694031 -3.70072556
v -3.42741108 43.7312927 -0.26871109
v -6.42048883 44.3636017 -2.1546154
v -3.50831223 47.4828415 1.39144897
v 6.78799816E-16 47.174408 2.53768826
v -7.7697897 52.3232346 -14.7598858
v -6.35443211 50.9014435 -17.4518719
v -5.827528 55.1004944 -15.2718983
v -5.0350914 52.9191246 -17.561348
v -3.79171824 54.565403 -17.7373352
v -2.22153044 56.0602798 -17.9909439
v -10.2430201 49.8236847 -11.1003695
v -6.04381752 48.9089279 -0.61135006
v -2.19272184 51.2243538 2.70099258
v -7.33503692E-16 51.4795456 4.1238327
v -3.00939012 58.1159668 -15.1596775
v -3.48964789E-16 57.4874878 -18.6221008
v -1.28275421E-15 59.6018829 -15.2346601
v -1.39888105E-15 60.5511818 -11.2267046
v -3.21782374 58.8531036 -11.2567673
v -8.2887939E-16 60.6949654 -7.26428127
v -6.22768641 55.5832748 -11.304945
v -3.22812176 58.924942 -8.15900898
v -3.10868907 58.4818764 -5.55188179
v 6.89092272E-16 60.2128143 -3.25948429
v -5.86780643 56.7082443 -8.48700905
v -8.92041397 52.3961639 -8.40964317
v -2.72691226 56.9659653 -0.531750679
v 8.17142319E-16 58.0682602 1.76307487
v -5.27287292 55.8372803 -3.10198498
v -1.66526043 54.4134026 3.44206524
v 4.00111233E-16 55.1081009 5.09911537
v -3.93265533 54.416626 1.12805462
v -5.08218813 51.2462273 0.352876663
v -5.87033844 53.5981064 -0.829973221
v -7.67269516 54.058815 -6.13913631
v -8.34284496 51.656002 -4.3832798
v -8.7745142 49.5433884 -4.47121811
v -9.33137035 50.5550461 -7.01487255
v -1.50664723 41.2526321 -19.5791969
v -8.17387985E-17 41.299366 -19.5163555
v -4.04112041E-17 39.6264076 -16.6593742
v -3.38725328 42.4184418 -19.4309177
v -4.06021214 40.1334991 -15.7710752
v -3.85553119E-16 45.4204941 -10.3716526
v -6.63064432 41.4898186 -14.8769627
v -5.41645479 43.8887825 -18.8390331
v -6.82624483 45.6624832 -18.2342014
v -8.55175018 43.2285118 -14.4259911
v -7.72459793 47.6472778 -17.5769119
v -9.09124279 45.5942841 -14.8348875
v -6.35443211 50.9014435 -17.4518719
v -8.47694778 48.2228622 -14.9114151
v -5.0350914 52.9191246 -17.561348
v -6.88679934 51.451088 -15.029541
v -3.79171824 54.565403 -17.7373352
v -5.0720849 54.0922737 -14.7820091
v -2.22153044 56.0602798 -17.9909439
v -2.72038603 55.8602448 -14.881175
v -6.09014677E-16 57.4438667 -15.3168802
v -3.48964789E-16 57.4874878 -18.6221008
v -19.1859722 22.0672836 -30.6159344
v -14.3337231 24.8043022 -31.3874855
v -17.1915817 21.8045654 -34.0193291
v -15.5938444 24.7555809 -28.5801563
v -22.1975422 22.4868336 -26.98876
v -12.7092571 27.0696754 -26.8263321
v -10.8661728 26.9476681 -29.0791187
v -14.4936237 27.0919762 -24.4850502
v -17.1886997 24.8130512 -25.6475525
v -23.9161873 22.7911453 -20.6895828
v -16.3230705 27.241848 -18.8454247
v -19.8806305 24.6269627 -19.8709393
v -21.4002628 18.5286713 -15.3142052
v -16.7341366 20.638258 -14.6045876
v -13.5964117 23.3993053 -14.1026745
v -19.1034431 14.4668512 -12.958375
v -14.7078524 17.8631668 -12.0847006
v -12.5029745 20.6131878 -11.5302296
v -11.7065239 14.3731041 -9.46253204
v -16.4820137 11.0061855 -10.768362
v -9.3337183 19.1330318 -9.70061016
v -13.7263861 9.10362434 -9.14135361
v -10.7424698 8.72060776 -7.75908661
v -6.75794649 9.76983643 -6.42983818
v -6.26080084 17.0972252 -8.09779263
v -3.08889294 11.4789982 -3.13368416
v -3.13880134 17.3984661 -5.22366333
v -6.70353627E-16 12.3038836 -0.542320251
v -7.91508773E-16 17.2103424 -3.00522995
v -3.13880134 17.3984661 -5.22366333
v -7.91508773E-16 17.2103424 -3.00522995
v -1.5998888E-16 37.0992317 -9.09357071
v -6.26080084 17.0972252 -8.09779263
v -9.3337183 19.1330318 -9.70061016
v -12.5029745 20.6131878 -11.5302296
v -13.5964117 23.3993053 -14.1026745
v -16.3230705 27.241848 -18.8454247
v -14.4936237 27.0919762 -24.4850502
v -10.9000664 29.9169426 -23.0490875
v -12.7092571 27.0696754 -26.8263321
v -7.68282175 29.8001041 -26.8341293
v -10.8661728 26.9476681 -29.0791187
v -4.16862869 32.4509201 -24.7979126
v -6.21102571 31.1189346 -21.3496132
v -1.36068404 35.9587364 -22.3686237
v -3.67140007 34.1626358 -18.5678272
v 3.49287999E-17 39.0377235 -18.7825279
v 5.29746475E-16 38.786499 -20.6387138
v -13.5882597 38.0073853 -17.5505028
v -12.2504101 40.1641159 -17.8415527
v -12.990015 40.368763 -18.0354233
v -12.7651482 38.1323318 -17.4243221
v -13.4962978 36.5304565 -15.9195938
v -12.6860323 36.8615341 -16.0210667
v -12.575243 37.1646652 -13.8840694
v -11.3087263 41.8407059 -16.7135849
v -11.8955765 42.3173981 -16.7244511
v -10.5162144 42.386425 -14.9621696
v -10.9744978 42.9515953 -14.6889277
v -10.4371023 41.1156693 -13.5589008
v -10.8825464 41.4746819 -13.0580168
v -10.951849 39.0838509 -13.1416817
v -11.4808006 39.1133041 -12.5730972
v -11.8935347 37.4072304 -14.269659
v 13.5882597 38.0073853 -17.5505028
v 12.990015 40.368763 -18.0354233
v 12.2504101 40.1641159 -17.8415527
v 12.7651482 38.1323318 -17.4243221
v 13.4962988 36.5304565 -15.9195938
v 12.6860323 36.8615341 -16.0210667
v 12.575243 37.1646652 -13.8840694
v 11.3087263 41.8407097 -16.713583
v 11.8955765 42.3173981 -16.7244511
v 10.5162144 42.386425 -14.9621696
v 10.9744987 42.9515953 -14.6889277
v 10.4371023 41.1156693 -13.5589008
v 10.8825464 41.4746819 -13.0580168
v 10.951848 39.0838509 -13.1416817
v 11.4807997 39.1133041 -12.5730982
v 11.8935347 37.4072304 -14.269659
v -13.5882597 38.0073853 -17.5505028
v -12.990015 40.368763 -18.0354233
v -13.5189629 40.3982048 -17.4668388
v -14.0337019 38.3664055 -17.0496101
v -13.4962978 36.5304565 -15.9195938
v -13.9545898 37.0956192 -15.6463537
v -12.575243 37.1646652 -13.8840694
v -12.577282 42.074894 -16.3388405
v -11.8955765 42.3173981 -16.7244511
v -11.7847738 42.6205063 -14.5874586
v -10.9744978 42.9515953 -14.6889277
v -11.7056646 41.3497734 -13.184185
v -10.8825464 41.4746819 -13.0580168
v -12.2204056 39.3179321 -12.7669678
v -11.4808006 39.1133041 -12.5730972
v -13.1620808 37.6413612 -13.8949299
v 13.5882597 38.0073853 -17.5505028
v 13.5189638 40.3982048 -17.4668388
v 12.990015 40.368763 -18.0354233
v 14.0337019 38.3664055 -17.0496101
v 13.4962988 36.5304565 -15.9195938
v 13.9545898 37.0956192 -15.6463537
v 12.575243 37.1646652 -13.8840694
v 12.5772829 42.074894 -16.3388405
v 11.8955765 42.3173981 -16.7244511
v 11.7847738 42.6205063 -14.5874586
v 10.9744987 42.9515953 -14.6889277
v 11.7056646 41.3497734 -13.184185
v 10.8825464 41.4746819 -13.0580168
v 12.2204056 39.3179321 -12.7669678
v 11.4807997 39.1133041 -12.5730982
v 13.1620808 37.6413612 -13.8949299
vt 0.0726928711 0.268066406
vt 0.0612487793 0.388427734
vt 0.114990234 0.388427734
vt 0.630371094 0.0426025391
vt 0.552734375 0.419921875
vt 0.73046875 0.419921875
vt 0.422363281 0.0428466797
vt 0.274902344 0.402587891
vt 0.471679688 0.402587891
vt 0.17590332 0.261230469
vt 0.150634766 0.392333984
vt 0.206420898 0.392333984
vt 0.623046875 0.0152282715
vt 0.445068359 0.0152282715
vt 0.528808594 0.361572266
vt 0.417236328 0.0117645264
vt 0.220581055 0.0117645264
vt 0.258056641 0.267333984
vt 0.206298828 0.405273438
vt 0.150634766 0.405273438
vt 0.170532227 0.4921875
vt 0.114990234 0.401367188
vt 0.0613098145 0.401367188
vt 0.0709228516 0.481933594
vt 0.190917969 0.553222656
vt 0.234130859 0.433349609
vt 0.190917969 0.553222656
vt 0.127929688 0.412109375
vt 0.0980224609 0.534179688
vt 0.169555664 0.534179688
vt 0.81640625 0.06640625
vt 0.815429688 0.384033203
vt 0.996582031 0.383544922
vt 0.016784668 0.399658203
vt 0.0261688232 0.534179688
vt 0.0875854492 0.534179688
vt 0.62890625 0.0102157593
vt 0.756835938 0.275146484
vt 0.814941406 0.0102157593
vt 0.0265808105 0.547363281
vt 0.075012207 0.659667969
vt 0.0878295898 0.547363281
vt 0.0980834961 0.547363281
vt 0.153808594 0.634277344
vt 0.169555664 0.547363281
vt 0.204711914 0.549804688
vt 0.204345703 0.549804688
vt 0.232055664 0.602050781
vt 0.204345703 0.549316406
vt 0.204711914 0.549316406
vt 0.234130859 0.433349609
vt 0.190917969 0.553222656
vt 0.233764648 0.541992188
vt 0.191040039 0.554199219
vt 0.233886719 0.541503906
vt 0.191040039 0.554199219
vt 0.190917969 0.553222656
vt 0.232055664 0.602050781
vt 0.234375 0.541992188
vt 0.232055664 0.602050781
vt 0.234375 0.541503906
vt 0.234130859 0.433349609
vt 0.270751953 0.527832031
vt 0.270751953 0.52734375
vt 0.271240234 0.527832031
vt 0.232055664 0.602050781
vt 0.271240234 0.52734375
vt 0.234130859 0.433349609
vt 0.271240234 0.527832031
vt 0.271240234 0.52734375
vt 0.204711914 0.549804688
vt 0.232055664 0.602050781
vt 0.204345703 0.549804688
vt 0.204345703 0.549316406
vt 0.190917969 0.553222656
vt 0.191040039 0.554199219
vt 0.204711914 0.549316406
vt 0.234130859 0.433349609
vt 0.233764648 0.541992188
vt 0.233886719 0.541503906
vt 0.234375 0.541992188
vt 0.232055664 0.602050781
vt 0.234375 0.541503906
vt 0.234130859 0.433349609
vt 0.270751953 0.527832031
vt 0.270751953 0.52734375
vt 0.271240234 0.527832031
vt 0.232055664 0.602050781
vt 0.271240234 0.52734375
vt 0.234130859 0.433349609
vt 0.328857422 0.959472656
vt 0.328369141 0.962402344
vt 0.323486328 0.962402344
vt 0.323486328 0.956542969
vt 0.318603516 0.962402344
vt 0.318603516 0.956542969
vt 0.314941406 0.962402344
vt 0.314941406 0.956542969
vt 0.310058594 0.962402344
vt 0.310058594 0.956542969
vt 0.306884766 0.962402344
vt 0.306884766 0.956542969
vt 0.303222656 0.962402344
vt 0.303222656 0.956542969
vt 0.432128906 0.940429688
vt 0.42578125 0.956054688
vt 0.455322266 0.964355469
vt 0.450195312 0.931152344
vt 0.422119141 0.924316406
vt 0.501953125 0.938476562
vt 0.502441406 0.979003906
vt 0.44921875 0.911621094
vt 0.452148438 0.87890625
vt 0.401123047 0.913574219
vt 0.567871094 0.943359375
vt 0.55859375 0.981445312
vt 0.616699219 0.976074219
vt 0.502441406 0.907714844
vt 0.620605469 0.942871094
vt 0.666015625 0.974121094
vt 0.5703125 0.903808594
vt 0.661621094 0.935058594
vt 0.711425781 0.964355469
vt 0.411376953 0.854980469
vt 0.374755859 0.912109375
vt 0.502441406 0.879394531
vt 0.616699219 0.900390625
vt 0.599609375 0.853515625
vt 0.55859375 0.875
vt 0.502441406 0.847167969
vt 0.658691406 0.900878906
vt 0.705078125 0.931152344
vt 0.452880859 0.838867188
vt 0.554199219 0.849609375
vt 0.755371094 0.926269531
vt 0.76171875 0.963378906
vt 0.765136719 0.963378906
vt 0.759277344 0.926269531
vt 0.754882812 0.880371094
vt 0.757324219 0.879882812
vt 0.702636719 0.8984375
vt 0.755371094 0.848144531
vt 0.757324219 0.848144531
vt 0.760253906 0.787109375
vt 0.661132812 0.854003906
vt 0.709472656 0.851074219
vt 0.756835938 0.786621094
vt 0.702148438 0.778320312
vt 0.767089844 0.735351562
vt 0.771972656 0.736328125
vt 0.654785156 0.778808594
vt 0.773925781 0.686035156
vt 0.778320312 0.686523438
vt 0.7734375 0.647460938
vt 0.706054688 0.732421875
vt 0.711425781 0.673828125
vt 0.768554688 0.648925781
vt 0.754882812 0.616699219
vt 0.750488281 0.619628906
vt 0.717773438 0.586914062
vt 0.714355469 0.591308594
vt 0.672363281 0.553222656
vt 0.666015625 0.734863281
vt 0.669921875 0.556152344
vt 0.639648438 0.520996094
vt 0.635253906 0.521484375
vt 0.650878906 0.647460938
vt 0.622558594 0.610351562
vt 0.59765625 0.570800781
vt 0.655273438 0.692382812
vt 0.609863281 0.787109375
vt 0.577636719 0.653808594
vt 0.549316406 0.615234375
vt 0.596191406 0.706054688
vt 0.60546875 0.743164062
vt 0.565917969 0.788574219
vt 0.538574219 0.682617188
vt 0.517578125 0.642578125
vt 0.560058594 0.737792969
vt 0.525878906 0.787109375
vt 0.508789062 0.696777344
vt 0.489990234 0.666015625
vt 0.470214844 0.682128906
vt 0.517089844 0.736328125
vt 0.498046875 0.817871094
vt 0.495605469 0.779296875
vt 0.483154297 0.731933594
vt 0.448486328 0.734863281
vt 0.446044922 0.693847656
vt 0.452636719 0.784667969
vt 0.415527344 0.825683594
vt 0.366699219 0.671386719
vt 0.372070312 0.63671875
vt 0.320068359 0.625488281
vt 0.364257812 0.770019531
vt 0.37109375 0.857421875
vt 0.344482422 0.912597656
vt 0.362060547 0.711914062
vt 0.319335938 0.665039062
vt 0.366455078 0.818359375
vt 0.322998047 0.775390625
vt 0.321777344 0.707519531
vt 0.264160156 0.680664062
vt 0.23840332 0.632324219
vt 0.33203125 0.859863281
vt 0.277587891 0.897460938
vt 0.299072266 0.927734375
vt 0.241577148 0.9140625
vt 0.269775391 0.938964844
vt 0.244384766 0.948242188
vt 0.219970703 0.959472656
vt 0.298828125 0.84765625
vt 0.26171875 0.73828125
vt 0.189697266 0.687011719
vt 0.172363281 0.651367188
vt 0.196289062 0.92578125
vt 0.192871094 0.977539062
vt 0.162109375 0.940917969
vt 0.137329102 0.895507812
vt 0.176147461 0.883300781
vt 0.121459961 0.846679688
vt 0.224487305 0.872070312
vt 0.164428711 0.848144531
vt 0.156860352 0.825195312
vt 0.113769531 0.802734375
vt 0.202758789 0.843261719
vt 0.260009766 0.830566406
vt 0.147460938 0.770996094
vt 0.116210938 0.7421875
vt 0.184936523 0.794433594
vt 0.151855469 0.684082031
vt 0.1328125 0.674316406
vt 0.176757812 0.733398438
vt 0.201049805 0.718261719
vt 0.200683594 0.751464844
vt 0.23034668 0.811035156
vt 0.249633789 0.792480469
vt 0.270263672 0.784179688
vt 0.271728516 0.806152344
vt 0.948730469 0.645996094
vt 0.972167969 0.655273438
vt 0.956054688 0.640136719
vt 0.936035156 0.655273438
vt 0.954589844 0.669433594
vt 0.98828125 0.712402344
vt 0.9453125 0.681152344
vt 0.923339844 0.668945312
vt 0.914550781 0.684570312
vt 0.938476562 0.690917969
vt 0.912597656 0.703125
vt 0.931152344 0.700195312
vt 0.911621094 0.729980469
vt 0.927734375 0.711914062
vt 0.9140625 0.747558594
vt 0.927246094 0.731445312
vt 0.918457031 0.761230469
vt 0.931152344 0.748535156
vt 0.923828125 0.774414062
vt 0.937988281 0.763671875
vt 0.946289062 0.780761719
vt 0.928710938 0.789550781
vt 0.394287109 0.617675781
vt 0.39453125 0.631835938
vt 0.413085938 0.629882812
vt 0.413085938 0.617675781
vt 0.390625 0.598144531
vt 0.429931641 0.616699219
vt 0.431152344 0.629882812
vt 0.427734375 0.60546875
vt 0.411376953 0.60546875
vt 0.389160156 0.583007812
vt 0.423828125 0.588867188
vt 0.406982422 0.5859375
vt 0.397216797 0.556152344
vt 0.418457031 0.55859375
vt 0.435058594 0.564941406
vt 0.402832031 0.534667969
vt 0.425292969 0.541992188
vt 0.438476562 0.548828125
vt 0.434814453 0.521972656
vt 0.410400391 0.515625
vt 0.450439453 0.537597656
vt 0.419921875 0.503417969
vt 0.432128906 0.497070312
vt 0.450195312 0.494873047
vt 0.461181641 0.524902344
vt 0.471923828 0.4921875
vt 0.477539062 0.517578125
vt 0.488525391 0.487792969
vt 0.491943359 0.510742188
vt 0.477539062 0.517578125
vt 0.497314453 0.5703125
vt 0.491943359 0.510742188
vt 0.461181641 0.524902344
vt 0.450439453 0.537597656
vt 0.438476562 0.548828125
vt 0.435058594 0.564941406
vt 0.423828125 0.588867188
vt 0.427734375 0.60546875
vt 0.443115234 0.606445312
vt 0.429931641 0.616699219
vt 0.448730469 0.627441406
vt 0.431152344 0.629882812
vt 0.470458984 0.627929688
vt 0.468017578 0.609863281
vt 0.491699219 0.629882812
vt 0.490722656 0.608398438
vt 0.514160156 0.618164062
vt 0.510742188 0.625
vt 0.328857422 0.959472656
vt 0.323486328 0.962402344
vt 0.328369141 0.962402344
vt 0.323486328 0.956542969
vt 0.318603516 0.962402344
vt 0.318603516 0.956542969
vt 0.314941406 0.962402344
vt 0.314941406 0.956542969
vt 0.310058594 0.962402344
vt 0.310058594 0.956542969
vt 0.306884766 0.962402344
vt 0.306884766 0.956542969
vt 0.303222656 0.962402344
vt 0.303222656 0.956542969
vt 0.432128906 0.940429688
vt 0.455322266 0.964355469
vt 0.42578125 0.956054688
vt 0.450195312 0.931152344
vt 0.422119141 0.924316406
vt 0.501953125 0.938476562
vt 0.502441406 0.979003906
vt 0.44921875 0.911621094
vt 0.452148438 0.87890625
vt 0.401123047 0.913574219
vt 0.567871094 0.943359375
vt 0.55859375 0.981445312
vt 0.616699219 0.976074219
vt 0.502441406 0.907714844
vt 0.620605469 0.942871094
vt 0.666015625 0.974121094
vt 0.5703125 0.903808594
vt 0.661621094 0.935058594
vt 0.711425781 0.964355469
vt 0.411376953 0.854980469
vt 0.374755859 0.912109375
vt 0.502441406 0.879394531
vt 0.616699219 0.900390625
vt 0.599609375 0.853515625
vt 0.55859375 0.875
vt 0.502441406 0.847167969
vt 0.658691406 0.900878906
vt 0.705078125 0.931152344
vt 0.452880859 0.838867188
vt 0.37109375 0.857421875
vt 0.344482422 0.912597656
vt 0.554199219 0.849609375
vt 0.755371094 0.926269531
vt 0.76171875 0.963378906
vt 0.765136719 0.963378906
vt 0.759277344 0.926269531
vt 0.754882812 0.880371094
vt 0.757324219 0.879882812
vt 0.702636719 0.8984375
vt 0.755371094 0.848144531
vt 0.757324219 0.848144531
vt 0.760253906 0.787109375
vt 0.661132812 0.854003906
vt 0.709472656 0.851074219
vt 0.756835938 0.786621094
vt 0.702148438 0.778320312
vt 0.767089844 0.735351562
vt 0.771972656 0.736328125
vt 0.654785156 0.778808594
vt 0.706054688 0.732421875
vt 0.773925781 0.686035156
vt 0.711425781 0.673828125
vt 0.778320312 0.686523438
vt 0.7734375 0.647460938
vt 0.768554688 0.648925781
vt 0.754882812 0.616699219
vt 0.750488281 0.619628906
vt 0.717773438 0.586914062
vt 0.714355469 0.591308594
vt 0.672363281 0.553222656
vt 0.666015625 0.734863281
vt 0.669921875 0.556152344
vt 0.639648438 0.520996094
vt 0.635253906 0.521484375
vt 0.650878906 0.647460938
vt 0.622558594 0.610351562
vt 0.59765625 0.570800781
vt 0.655273438 0.692382812
vt 0.609863281 0.787109375
vt 0.596191406 0.706054688
vt 0.577636719 0.653808594
vt 0.549316406 0.615234375
vt 0.60546875 0.743164062
vt 0.565917969 0.788574219
vt 0.538574219 0.682617188
vt 0.517578125 0.642578125
vt 0.560058594 0.737792969
vt 0.525878906 0.787109375
vt 0.508789062 0.696777344
vt 0.489990234 0.666015625
vt 0.470214844 0.682128906
vt 0.517089844 0.736328125
vt 0.498046875 0.817871094
vt 0.495605469 0.779296875
vt 0.483154297 0.731933594
vt 0.448486328 0.734863281
vt 0.446044922 0.693847656
vt 0.452636719 0.784667969
vt 0.415527344 0.825683594
vt 0.364257812 0.770019531
vt 0.366699219 0.671386719
vt 0.372070312 0.63671875
vt 0.320068359 0.625488281
vt 0.366455078 0.818359375
vt 0.322998047 0.775390625
vt 0.33203125 0.859863281
vt 0.362060547 0.711914062
vt 0.319335938 0.665039062
vt 0.321777344 0.707519531
vt 0.264160156 0.680664062
vt 0.23840332 0.632324219
vt 0.277587891 0.897460938
vt 0.299072266 0.927734375
vt 0.241577148 0.9140625
vt 0.269775391 0.938964844
vt 0.244384766 0.948242188
vt 0.219970703 0.959472656
vt 0.298828125 0.84765625
vt 0.26171875 0.73828125
vt 0.189697266 0.687011719
vt 0.172363281 0.651367188
vt 0.196289062 0.92578125
vt 0.192871094 0.977539062
vt 0.162109375 0.940917969
vt 0.137329102 0.895507812
vt 0.176147461 0.883300781
vt 0.121459961 0.846679688
vt 0.224487305 0.872070312
vt 0.164428711 0.848144531
vt 0.156860352 0.825195312
vt 0.113769531 0.802734375
vt 0.202758789 0.843261719
vt 0.260009766 0.830566406
vt 0.147460938 0.770996094
vt 0.116210938 0.7421875
vt 0.184936523 0.794433594
vt 0.151855469 0.684082031
vt 0.1328125 0.674316406
vt 0.176757812 0.733398438
vt 0.201049805 0.718261719
vt 0.200683594 0.751464844
vt 0.23034668 0.811035156
vt 0.249633789 0.792480469
vt 0.270263672 0.784179688
vt 0.271728516 0.806152344
vt 0.948730469 0.645996094
vt 0.956054688 0.640136719
vt 0.972167969 0.655273438
vt 0.936035156 0.655273438
vt 0.954589844 0.669433594
vt 0.98828125 0.712402344
vt 0.9453125 0.681152344
vt 0.923339844 0.668945312
vt 0.914550781 0.684570312
vt 0.938476562 0.690917969
vt 0.912597656 0.703125
vt 0.931152344 0.700195312
vt 0.911621094 0.729980469
vt 0.927734375 0.711914062
vt 0.9140625 0.747558594
vt 0.927246094 0.731445312
vt 0.918457031 0.761230469
vt 0.931152344 0.748535156
vt 0.923828125 0.774414062
vt 0.937988281 0.763671875
vt 0.946289062 0.780761719
vt 0.928710938 0.789550781
vt 0.394287109 0.617675781
vt 0.413085938 0.629882812
vt 0.39453125 0.631835938
vt 0.413085938 0.617675781
vt 0.390625 0.598144531
vt 0.429931641 0.616699219
vt 0.431152344 0.629882812
vt 0.427734375 0.60546875
vt 0.411376953 0.60546875
vt 0.389160156 0.583007812
vt 0.423828125 0.588867188
vt 0.406982422 0.5859375
vt 0.397216797 0.556152344
vt 0.418457031 0.55859375
vt 0.435058594 0.564941406
vt 0.402832031 0.534667969
vt 0.425292969 0.541992188
vt 0.438476562 0.548828125
vt 0.434814453 0.521972656
vt 0.410400391 0.515625
vt 0.450439453 0.537597656
vt 0.419921875 0.503417969
vt 0.432128906 0.497070312
vt 0.450195312 0.494873047
vt 0.461181641 0.524902344
vt 0.471923828 0.4921875
vt 0.477539062 0.517578125
vt 0.488525391 0.487792969
vt 0.491943359 0.510742188
vt 0.477539062 0.517578125
vt 0.491943359 0.510742188
vt 0.497314453 0.5703125
vt 0.461181641 0.524902344
vt 0.450439453 0.537597656
vt 0.438476562 0.548828125
vt 0.435058594 0.564941406
vt 0.423828125 0.588867188
vt 0.427734375 0.60546875
vt 0.443115234 0.606445312
vt 0.429931641 0.616699219
vt 0.448730469 0.627441406
vt 0.431152344 0.629882812
vt 0.470458984 0.627929688
vt 0.468017578 0.609863281
vt 0.491699219 0.629882812
vt 0.490722656 0.608398438
vt 0.514160156 0.618164062
vt 0.510742188 0.625
vt 0.818847656 0.818359375
vt 0.803222656 0.88671875
vt 0.7890625 0.88671875
vt 0.832519531 0.833496094
vt 0.889160156 0.789550781
vt 0.889160156 0.808105469
vt 0.95703125 0.818359375
vt 0.831054688 0.942871094
vt 0.821289062 0.954101562
vt 0.889160156 0.966796875
vt 0.889160156 0.984375
vt 0.944824219 0.942871094
vt 0.956542969 0.954101562
vt 0.971679688 0.88671875
vt 0.98828125 0.88671875
vt 0.946777344 0.833496094
vt 0.818847656 0.818359375
vt 0.7890625 0.88671875
vt 0.803222656 0.88671875
vt 0.832519531 0.833496094
vt 0.889160156 0.789550781
vt 0.889160156 0.808105469
vt 0.95703125 0.818359375
vt 0.831054688 0.942871094
vt 0.821289062 0.954101562
vt 0.889160156 0.966796875
vt 0.889160156 0.984375
vt 0.944824219 0.942871094
vt 0.956542969 0.954101562
vt 0.971679688 0.88671875
vt 0.98828125 0.88671875
vt 0.946777344 0.833496094
vt 0.818847656 0.818359375
vt 0.7890625 0.88671875
vt 0.803222656 0.88671875
vt 0.832519531 0.833496094
vt 0.889160156 0.789550781
vt 0.889160156 0.808105469
vt 0.95703125 0.818359375
vt 0.831054688 0.942871094
vt 0.821289062 0.954101562
vt 0.889160156 0.966796875
vt 0.889160156 0.984375
vt 0.944824219 0.942871094
vt 0.956542969 0.954101562
vt 0.971679688 0.88671875
vt 0.98828125 0.88671875
vt 0.946777344 0.833496094
vt 0.818847656 0.818359375
vt 0.803222656 0.88671875
vt 0.7890625 0.88671875
vt 0.832519531 0.833496094
vt 0.889160156 0.789550781
vt 0.889160156 0.808105469
vt 0.95703125 0.818359375
vt 0.831054688 0.942871094
vt 0.821289062 0.954101562
vt 0.889160156 0.966796875
vt 0.889160156 0.984375
vt 0.944824219 0.942871094
vt 0.956542969 0.954101562
vt 0.971679688 0.88671875
vt 0.98828125 0.88671875
vt 0.946777344 0.833496094
vn 2.67028809E-05 -0.8984375 -0.438720703
vn 0.436523438 -0.706542969 0.556640625
vn 0.465087891 -0.700683594 0.541503906
vn 2.67028809E-05 -0.8984375 -0.438720703
vn 0.0152816772 -0.175415039 -0.984375
vn -0.0152816772 -0.175415039 -0.984375
vn 2.67028809E-05 -0.8984375 -0.438720703
vn 0.803222656 -0.280761719 -0.525390625
vn 0.787109375 -0.278808594 -0.550292969
vn 2.67028809E-05 -0.8984375 -0.438720703
vn 0.834472656 -0.5390625 0.112426758
vn 0.846679688 -0.522949219 0.0991210938
vn 0.212402344 0.893066406 -0.396240234
vn -0.212402344 0.893066406 -0.396240234
vn -4.78029251E-05 0.989746094 0.142211914
vn -0.029006958 0.919921875 -0.391601562
vn 0.622070312 0.681152344 -0.386230469
vn -4.78029251E-05 0.989746094 0.142211914
vn 0.634277344 0.431884766 0.641113281
vn 0.629882812 0.404541016 0.663085938
vn -4.78029251E-05 0.989746094 0.142211914
vn 0.309570312 0.296142578 0.903808594
vn 0.294677734 0.282714844 0.912597656
vn -4.78029251E-05 0.989746094 0.142211914
vn 0.436523438 -0.706542969 0.556640625
vn 2.67028809E-05 -0.8984375 -0.438720703
vn -0.436523438 -0.706542969 0.557128906
vn 2.67028809E-05 -0.8984375 -0.438720703
vn -0.465087891 -0.700683594 0.541015625
vn -0.436523438 -0.706542969 0.557128906
vn 2.67028809E-05 -0.8984375 -0.438720703
vn -0.787109375 -0.278808594 -0.550292969
vn -0.803222656 -0.280761719 -0.525390625
vn 2.67028809E-05 -0.8984375 -0.438720703
vn -0.846679688 -0.522949219 0.0991210938
vn -0.834472656 -0.5390625 0.112426758
vn 0.029006958 0.919921875 -0.391601562
vn -4.78029251E-05 0.989746094 0.142211914
vn -0.622070312 0.681152344 -0.386230469
vn -0.634277344 0.431884766 0.641113281
vn -4.78029251E-05 0.989746094 0.142211914
vn -0.629882812 0.404541016 0.663085938
vn -0.309814453 0.296142578 0.903808594
vn -4.78029251E-05 0.989746094 0.142211914
vn -0.294433594 0.282958984 0.912597656
vn 0.629882812 0.404541016 0.663085938
vn 0.309570312 0.296142578 0.903808594
vn -4.78029251E-05 0.989746094 0.142211914
vn 0.465087891 -0.700683594 0.541503906
vn 0.834472656 -0.5390625 0.112426758
vn 2.67028809E-05 -0.8984375 -0.438720703
vn 0.436523438 -0.706542969 0.556640625
vn 0.634277344 0.431884766 0.641113281
vn 0.294677734 0.282714844 0.912597656
vn 0.846679688 -0.522949219 0.0991210938
vn -0.294433594 0.282958984 0.912597656
vn -0.436523438 -0.706542969 0.557128906
vn -4.78029251E-05 0.989746094 0.142211914
vn 0.622070312 0.681152344 -0.386230469
vn -4.78029251E-05 0.989746094 0.142211914
vn 0.803222656 -0.280761719 -0.525390625
vn 2.67028809E-05 -0.8984375 -0.438720703
vn -0.029006958 0.919921875 -0.391601562
vn 0.787109375 -0.278808594 -0.550292969
vn -0.212402344 0.893066406 -0.396240234
vn -4.78029251E-05 0.989746094 0.142211914
vn 0.0152816772 -0.175415039 -0.984375
vn 2.67028809E-05 -0.8984375 -0.438720703
vn 0.212402344 0.893066406 -0.396240234
vn -0.0152816772 -0.175415039 -0.984375
vn -0.629882812 0.404541016 0.663085938
vn -4.78029251E-05 0.989746094 0.142211914
vn -0.309814453 0.296142578 0.903808594
vn -0.465087891 -0.700683594 0.541015625
vn -0.436523438 -0.706542969 0.557128906
vn -0.294433594 0.282958984 0.912597656
vn -0.834472656 -0.5390625 0.112426758
vn 2.67028809E-05 -0.8984375 -0.438720703
vn -0.634277344 0.431884766 0.641113281
vn -0.846679688 -0.522949219 0.0991210938
vn -0.622070312 0.681152344 -0.386230469
vn -4.78029251E-05 0.989746094 0.142211914
vn -0.803222656 -0.280761719 -0.525390625
vn 2.67028809E-05 -0.8984375 -0.438720703
vn 0.029006958 0.919921875 -0.391601562
vn -0.787109375 -0.278808594 -0.550292969
vn 0.212402344 0.893066406 -0.396240234
vn -4.78029251E-05 0.989746094 0.142211914
vn -0.0152816772 -0.175415039 -0.984375
vn 2.67028809E-05 -0.8984375 -0.438720703
vn -0.481689453 -0.850097656 0.213256836
vn 0.484619141 0.784179688 -0.387695312
vn 0.448486328 0.833496094 -0.322265625
vn -0.532714844 -0.814453125 0.231079102
vn 0.3515625 0.81640625 -0.458007812
vn -0.459228516 -0.847167969 0.266845703
vn 0.350585938 0.770507812 -0.532226562
vn -0.462158203 -0.825195312 0.325195312
vn 0.255615234 0.708984375 -0.657226562
vn -0.603027344 -0.793457031 0.0816650391
vn 0.20690918 0.608398438 -0.766113281
vn -0.777832031 -0.608886719 0.15612793
vn -0 0.576660156 -0.816894531
vn -0 -0.966308594 0.258056641
vn -0.178955078 0.853027344 -0.490478516
vn -0 0.986816406 -0.160644531
vn -0 0.576660156 -0.816894531
vn 0.385986328 0.493652344 -0.779296875
vn -0.270751953 0.839355469 -0.471435547
vn 0.228881836 0.69140625 -0.685546875
vn 0.20690918 0.608398438 -0.766113281
vn 0.539550781 0.447998047 -0.712890625
vn 0.6484375 0.509765625 -0.564941406
vn -0.146728516 0.508300781 -0.848632812
vn 0.239624023 0.655761719 -0.715820312
vn 0.255615234 0.708984375 -0.657226562
vn 0.350585938 0.770507812 -0.532226562
vn 0.228881836 0.69140625 -0.685546875
vn 0.296142578 0.668945312 -0.681640625
vn 0.3515625 0.81640625 -0.458007812
vn 0.239624023 0.655761719 -0.715820312
vn 0.227661133 0.7421875 -0.630859375
vn 0.448486328 0.833496094 -0.322265625
vn 0.206787109 0.24609375 -0.946777344
vn -0.146728516 0.508300781 -0.848632812
vn 0.628417969 0.73046875 -0.266845703
vn 0.296142578 0.668945312 -0.681640625
vn 0.791503906 0.568847656 0.223388672
vn 0.690429688 0.675292969 -0.259765625
vn 0.738769531 0.644042969 0.197387695
vn 0.227661133 0.7421875 -0.630859375
vn 0.133789062 0.728515625 -0.671386719
vn 0.986816406 -0.159423828 0.0211639404
vn 0.752441406 0.60546875 0.259033203
vn 0.159667969 0.643066406 -0.749023438
vn 0.484619141 0.784179688 -0.387695312
vn -0.481689453 -0.850097656 0.213256836
vn -0.390136719 -0.875488281 0.284912109
vn 0.161987305 0.57421875 -0.802246094
vn -0.339599609 -0.921386719 0.190185547
vn 0.133789062 0.728515625 -0.671386719
vn 0.488525391 0.828125 0.274902344
vn -0.377197266 -0.880371094 -0.287597656
vn -0.337890625 -0.559082031 -0.757324219
vn 0.686523438 0.6640625 0.296875
vn 0.498779297 0.809570312 0.308837891
vn 0.440673828 0.497558594 0.747070312
vn 0.431152344 0.487304688 0.759277344
vn 0.432128906 0.289794922 0.854003906
vn -0.336914062 -0.360107422 -0.870117188
vn 0.637207031 0.381835938 0.669433594
vn 0.441650391 0.211914062 0.871582031
vn -0.348144531 -0.320556641 -0.880859375
vn -0.326660156 -0.344970703 -0.879882812
vn 0.410888672 0.323730469 0.852050781
vn 0.372070312 0.254394531 0.892578125
vn 0.435546875 0.0881347656 0.895996094
vn -0.353759766 -0.282958984 -0.891601562
vn 0.353271484 0.17565918 0.918945312
vn -0.504882812 -0.269287109 -0.819824219
vn 0.498046875 0.193359375 0.845214844
vn -0.655273438 -0.307373047 -0.689941406
vn 0.540527344 0.249267578 0.803222656
vn 0.649414062 0.217895508 0.728515625
vn -0 -0.485839844 -0.874023438
vn -0 0.355712891 0.934570312
vn 0.552246094 0.1875 0.8125
vn 0.650878906 0.191650391 0.734863281
vn -0 0.318359375 0.947753906
vn 0.405517578 0.166015625 0.898925781
vn 0.746582031 0.293457031 0.597167969
vn 0.589355469 0.0897216797 0.803222656
vn -0 0.158203125 0.987304688
vn 0.580566406 0.0703735352 0.811035156
vn 0.58984375 0.191894531 0.784179688
vn 0.708007812 0.353515625 0.610839844
vn 0.562988281 0.0935058594 0.821289062
vn -0 0.134765625 0.990722656
vn 0.632324219 0.16784668 0.756347656
vn 0.7109375 0.380126953 0.591308594
vn 0.526367188 0.187133789 0.829589844
vn -0 0.177612305 0.983886719
vn -0 0.222167969 0.975097656
vn 0.650390625 0.237792969 0.721679688
vn 0.802734375 0.448486328 0.393310547
vn 0.76953125 0.349365234 0.534667969
vn 0.606445312 0.200195312 0.76953125
vn 0.614746094 -0.588378906 0.525878906
vn -0 -0.653808594 0.756347656
vn 0.876953125 -0.343505859 0.3359375
vn 0.674804688 -0.72265625 -0.149902344
vn 0.371582031 -0.680664062 0.631347656
vn -0 -0.691894531 0.722167969
vn -0 -0.427001953 0.904296875
vn 0.799804688 -0.512207031 0.313232422
vn 0.546386719 0.422363281 -0.723144531
vn -0.0397338867 0.381103516 -0.923828125
vn 0.589355469 -0.652832031 0.475585938
vn 0.453369141 -0.379638672 0.806640625
vn 0.949707031 -0.312988281 0.0163574219
vn 0.91796875 0.00656509399 0.396484375
vn 0.7421875 -0.185424805 0.644042969
vn 0.500488281 -0.232299805 0.833984375
vn -0 -0.309326172 0.951171875
vn 0.545410156 0.520507812 -0.656738281
vn 0.217407227 0.485839844 -0.846679688
vn 0.442138672 0.349609375 -0.826171875
vn 0.397949219 0.458740234 -0.794433594
vn 0.339355469 0.586914062 -0.734863281
vn 0.373046875 0.688476562 -0.621582031
vn 0.386474609 0.651367188 -0.652832031
vn 0.922363281 0.385986328 0.0182037354
vn 0.773925781 -0.0783081055 0.628417969
vn 0.556152344 -0.123718262 0.821777344
vn -0 -0.263916016 0.964355469
vn 0.314697266 0.664550781 -0.677734375
vn -0 0.678710938 -0.734375
vn -0 0.930175781 -0.367675781
vn -0 0.9921875 -0.124084473
vn 0.610839844 0.784667969 -0.105285645
vn -0 0.998046875 0.065246582
vn 0.692871094 0.708496094 -0.134399414
vn 0.589355469 0.807128906 0.0408630371
vn 0.608398438 0.768066406 0.200927734
vn -0 0.957519531 0.287841797
vn 0.724609375 0.689453125 0.00282669067
vn 0.862792969 0.505371094 -0.0136566162
vn 0.625488281 0.682617188 0.378173828
vn -0 0.828125 0.560546875
vn 0.708007812 0.647460938 0.281982422
vn 0.700195312 0.2578125 0.665527344
vn -0 0.371826172 0.928222656
vn 0.686523438 0.371337891 0.625
vn 0.6796875 0.0125961304 0.733398438
vn 0.811523438 0.322265625 0.487548828
vn 0.809570312 0.554199219 0.194091797
vn 0.866210938 0.274902344 0.417724609
vn 0.875 -0.0165100098 0.484130859
vn 0.959960938 0.186523438 0.209472656
vn -0.178955078 0.853027344 -0.490478516
vn -0 0.966796875 -0.255126953
vn -0 0.986816406 -0.160644531
vn -0.270751953 0.839355469 -0.471435547
vn -0.293457031 0.9375 -0.185913086
vn -0 0.137451172 -0.990722656
vn -0.568847656 0.801269531 -0.185668945
vn -0.146728516 0.508300781 -0.848632812
vn -0.146728516 0.508300781 -0.848632812
vn -0.833007812 0.430419922 -0.34765625
vn -0.0397338867 0.381103516 -0.923828125
vn -0.910644531 -0.0196228027 -0.412597656
vn 0.442138672 0.349609375 -0.826171875
vn -0.75 -0.306152344 -0.586425781
vn 0.339355469 0.586914062 -0.734863281
vn -0.676269531 -0.377197266 -0.6328125
vn 0.373046875 0.688476562 -0.621582031
vn -0.545410156 -0.492431641 -0.678222656
vn 0.386474609 0.651367188 -0.652832031
vn -0.328857422 -0.606933594 -0.723632812
vn -0 -0.771484375 -0.636230469
vn -0 0.678710938 -0.734375
vn -0.390136719 -0.875488281 0.284912109
vn -0.481689453 -0.850097656 0.213256836
vn -0.532714844 -0.814453125 0.231079102
vn -0.453857422 -0.837890625 0.302490234
vn -0.339599609 -0.921386719 0.190185547
vn -0.439208984 -0.823730469 0.358886719
vn -0.459228516 -0.847167969 0.266845703
vn -0.487304688 -0.854003906 0.182861328
vn -0.427978516 -0.873046875 0.234619141
vn -0.377197266 -0.880371094 -0.287597656
vn -0.6015625 -0.762695312 -0.237304688
vn -0.484863281 -0.815917969 -0.314453125
vn -0.337890625 -0.559082031 -0.757324219
vn -0.427490234 -0.480712891 -0.765625
vn -0.6171875 -0.391601562 -0.682617188
vn -0.336914062 -0.360107422 -0.870117188
vn -0.421875 -0.309814453 -0.852050781
vn -0.529296875 -0.286132812 -0.798828125
vn -0.378662109 -0.237426758 -0.89453125
vn -0.348144531 -0.320556641 -0.880859375
vn -0.391113281 -0.185791016 -0.901367188
vn -0.326660156 -0.344970703 -0.879882812
vn -0.353759766 -0.282958984 -0.891601562
vn -0.504882812 -0.269287109 -0.819824219
vn -0.533203125 -0.216186523 -0.817871094
vn -0.655273438 -0.307373047 -0.689941406
vn -0.633300781 -0.247314453 -0.733398438
vn -0 -0.485839844 -0.874023438
vn -0 -0.333251953 -0.942871094
vn -0.633300781 -0.247314453 -0.733398438
vn -0 -0.749511719 -0.661621094
vn -0 -0.333251953 -0.942871094
vn -0.533203125 -0.216186523 -0.817871094
vn -0.391113281 -0.185791016 -0.901367188
vn -0.529296875 -0.286132812 -0.798828125
vn -0.6171875 -0.391601562 -0.682617188
vn -0.6015625 -0.762695312 -0.237304688
vn -0.487304688 -0.854003906 0.182861328
vn -0.523925781 -0.84765625 0.0832519531
vn -0.439208984 -0.823730469 0.358886719
vn -0.462158203 -0.825195312 0.325195312
vn -0.459228516 -0.847167969 0.266845703
vn -0.603027344 -0.793457031 0.0816650391
vn -0.287841797 -0.927246094 0.239990234
vn -0.777832031 -0.608886719 0.15612793
vn -0.794921875 -0.603515625 -0.0614013672
vn -0 -0.990234375 -0.140869141
vn -0 -0.966308594 0.258056641
vn 0.481689453 -0.850097656 0.213256836
vn -0.448486328 0.833496094 -0.322265625
vn -0.484619141 0.784179688 -0.387695312
vn 0.532714844 -0.814453125 0.231079102
vn -0.3515625 0.81640625 -0.458007812
vn 0.459228516 -0.847167969 0.266845703
vn -0.350585938 0.770507812 -0.532226562
vn 0.462158203 -0.825195312 0.325195312
vn -0.255615234 0.708984375 -0.657226562
vn 0.603027344 -0.793457031 0.0816650391
vn -0.20690918 0.608398438 -0.766113281
vn 0.777832031 -0.608886719 0.15612793
vn -0 0.576660156 -0.816894531
vn -0 -0.966308594 0.258056641
vn 0.178955078 0.853027344 -0.490478516
vn -0 0.576660156 -0.816894531
vn -0 0.986816406 -0.160644531
vn -0.385986328 0.493652344 -0.779296875
vn 0.270751953 0.839355469 -0.471435547
vn -0.228881836 0.69140625 -0.685546875
vn -0.20690918 0.608398438 -0.766113281
vn -0.539550781 0.447998047 -0.712890625
vn -0.6484375 0.509765625 -0.564941406
vn 0.146728516 0.508300781 -0.848632812
vn -0.239624023 0.655761719 -0.715820312
vn -0.255615234 0.708984375 -0.657226562
vn -0.350585938 0.770507812 -0.532226562
vn -0.228881836 0.69140625 -0.685546875
vn -0.296142578 0.668945312 -0.681640625
vn -0.3515625 0.81640625 -0.458007812
vn -0.239624023 0.655761719 -0.715820312
vn -0.227661133 0.7421875 -0.630859375
vn -0.448486328 0.833496094 -0.322265625
vn -0.206787109 0.24609375 -0.946777344
vn 0.146728516 0.508300781 -0.848632812
vn -0.628417969 0.73046875 -0.266845703
vn -0.296142578 0.668945312 -0.681640625
vn -0.791503906 0.568847656 0.223388672
vn -0.690429688 0.675292969 -0.259765625
vn -0.738769531 0.644042969 0.197387695
vn -0.227661133 0.7421875 -0.630859375
vn -0.133789062 0.728515625 -0.671386719
vn -0.986816406 -0.159423828 0.0211639404
vn -0.546386719 0.422363281 -0.723144531
vn 0.0397338867 0.381103516 -0.923828125
vn -0.752441406 0.60546875 0.259033203
vn -0.159667969 0.643066406 -0.749023438
vn -0.484619141 0.784179688 -0.387695312
vn 0.481689453 -0.850097656 0.213256836
vn 0.390136719 -0.875488281 0.284912109
vn -0.161987305 0.57421875 -0.802246094
vn 0.339599609 -0.921386719 0.190185547
vn -0.133789062 0.728515625 -0.671386719
vn -0.488525391 0.828125 0.274902344
vn 0.377197266 -0.880371094 -0.287597656
vn 0.337890625 -0.559082031 -0.757324219
vn -0.686523438 0.6640625 0.296875
vn -0.498779297 0.809570312 0.308837891
vn -0.440673828 0.497558594 0.747070312
vn -0.431152344 0.487304688 0.759277344
vn -0.432128906 0.289794922 0.854003906
vn 0.336914062 -0.360107422 -0.870117188
vn -0.637207031 0.381835938 0.669433594
vn -0.410888672 0.323730469 0.852050781
vn -0.441650391 0.211914062 0.871582031
vn -0.372070312 0.254394531 0.892578125
vn 0.348144531 -0.320556641 -0.880859375
vn 0.326660156 -0.344970703 -0.879882812
vn -0.435546875 0.0881347656 0.895996094
vn 0.353759766 -0.282958984 -0.891601562
vn -0.353271484 0.17565918 0.918945312
vn 0.504882812 -0.269287109 -0.819824219
vn -0.498046875 0.193359375 0.845214844
vn 0.655273438 -0.307373047 -0.689941406
vn -0.540527344 0.249267578 0.803222656
vn -0.649414062 0.217895508 0.728515625
vn -0 -0.485839844 -0.874023438
vn -0 0.355712891 0.934570312
vn -0.552246094 0.1875 0.8125
vn -0.650878906 0.191650391 0.734863281
vn -0 0.318359375 0.947753906
vn -0.405517578 0.166015625 0.898925781
vn -0.746582031 0.293457031 0.597167969
vn -0.580566406 0.0703735352 0.811035156
vn -0.589355469 0.0897216797 0.803222656
vn -0 0.158203125 0.987304688
vn -0.58984375 0.191894531 0.784179688
vn -0.708007812 0.353515625 0.610839844
vn -0.562988281 0.0935058594 0.821289062
vn -0 0.134765625 0.990722656
vn -0.632324219 0.16784668 0.756347656
vn -0.7109375 0.380126953 0.591308594
vn -0.526367188 0.187133789 0.829589844
vn -0 0.177612305 0.983886719
vn -0 0.222167969 0.975097656
vn -0.650390625 0.237792969 0.721679688
vn -0.802734375 0.448486328 0.393310547
vn -0.76953125 0.349365234 0.534667969
vn -0.606445312 0.200195312 0.76953125
vn -0.614746094 -0.588378906 0.525878906
vn -0 -0.653808594 0.756347656
vn -0.876953125 -0.343505859 0.3359375
vn -0.674804688 -0.72265625 -0.149902344
vn -0.799804688 -0.512207031 0.313232422
vn -0.371582031 -0.680664062 0.631347656
vn -0 -0.691894531 0.722167969
vn -0 -0.427001953 0.904296875
vn -0.949707031 -0.312988281 0.0163574219
vn -0.91796875 0.00656509399 0.396484375
vn -0.545410156 0.520507812 -0.656738281
vn -0.589355469 -0.652832031 0.475585938
vn -0.453369141 -0.379638672 0.806640625
vn -0.7421875 -0.185424805 0.644042969
vn -0.500488281 -0.232299805 0.833984375
vn -0 -0.309326172 0.951171875
vn -0.217407227 0.485839844 -0.846679688
vn -0.442138672 0.349609375 -0.826171875
vn -0.397949219 0.458740234 -0.794433594
vn -0.339355469 0.586914062 -0.734863281
vn -0.373046875 0.688476562 -0.621582031
vn -0.386474609 0.651367188 -0.652832031
vn -0.922363281 0.385986328 0.0182037354
vn -0.773925781 -0.0783081055 0.628417969
vn -0.556152344 -0.123718262 0.821777344
vn -0 -0.263916016 0.964355469
vn -0.314697266 0.664550781 -0.677734375
vn -0 0.678710938 -0.734375
vn -0 0.930175781 -0.367675781
vn -0 0.9921875 -0.124084473
vn -0.610839844 0.784667969 -0.105285645
vn -0 0.998046875 0.065246582
vn -0.692871094 0.708496094 -0.134399414
vn -0.589355469 0.807128906 0.0408630371
vn -0.608398438 0.768066406 0.200927734
vn -0 0.957519531 0.287841797
vn -0.724609375 0.689453125 0.00282478333
vn -0.862792969 0.505371094 -0.0136566162
vn -0.625488281 0.682617188 0.378173828
vn -0 0.828125 0.560546875
vn -0.708007812 0.647460938 0.281982422
vn -0.700195312 0.2578125 0.665527344
vn -0 0.371826172 0.928222656
vn -0.686523438 0.371337891 0.625
vn -0.6796875 0.0125961304 0.733398438
vn -0.811523438 0.322265625 0.487548828
vn -0.809570312 0.554199219 0.194091797
vn -0.866210938 0.274902344 0.417724609
vn -0.875 -0.0165100098 0.484130859
vn -0.959960938 0.186523438 0.209472656
vn 0.178955078 0.853027344 -0.490478516
vn -0 0.986816406 -0.160644531
vn -0 0.966796875 -0.255126953
vn 0.270751953 0.839355469 -0.471435547
vn 0.293457031 0.9375 -0.185913086
vn -0 0.137451172 -0.990722656
vn 0.568847656 0.801269531 -0.185668945
vn 0.146728516 0.508300781 -0.848632812
vn 0.146728516 0.508300781 -0.848632812
vn 0.833007812 0.430419922 -0.34765625
vn 0.0397338867 0.381103516 -0.923828125
vn 0.910644531 -0.0196228027 -0.412597656
vn -0.442138672 0.349609375 -0.826171875
vn 0.75 -0.306152344 -0.586425781
vn -0.339355469 0.586914062 -0.734863281
vn 0.676269531 -0.377197266 -0.6328125
vn -0.373046875 0.688476562 -0.621582031
vn 0.545410156 -0.492431641 -0.678222656
vn -0.386474609 0.651367188 -0.652832031
vn 0.328857422 -0.606933594 -0.723632812
vn -0 -0.771484375 -0.636230469
vn -0 0.678710938 -0.734375
vn 0.390136719 -0.875488281 0.284912109
vn 0.532714844 -0.814453125 0.231079102
vn 0.481689453 -0.850097656 0.213256836
vn 0.453857422 -0.837890625 0.302490234
vn 0.339599609 -0.921386719 0.190185547
vn 0.439208984 -0.823730469 0.358886719
vn 0.459228516 -0.847167969 0.266845703
vn 0.487304688 -0.854003906 0.182861328
vn 0.427978516 -0.873046875 0.234619141
vn 0.377197266 -0.880371094 -0.287597656
vn 0.6015625 -0.762695312 -0.237304688
vn 0.484863281 -0.815917969 -0.314453125
vn 0.337890625 -0.559082031 -0.757324219
vn 0.427490234 -0.480712891 -0.765625
vn 0.6171875 -0.391601562 -0.682617188
vn 0.336914062 -0.360107422 -0.870117188
vn 0.421875 -0.309814453 -0.852050781
vn 0.529296875 -0.286132812 -0.798828125
vn 0.378662109 -0.237426758 -0.89453125
vn 0.348144531 -0.320556641 -0.880859375
vn 0.391113281 -0.185791016 -0.901367188
vn 0.326660156 -0.344970703 -0.879882812
vn 0.353759766 -0.282958984 -0.891601562
vn 0.504882812 -0.269287109 -0.819824219
vn 0.533203125 -0.216186523 -0.817871094
vn 0.655273438 -0.307373047 -0.689941406
vn 0.633300781 -0.247314453 -0.733398438
vn -0 -0.485839844 -0.874023438
vn -0 -0.333251953 -0.942871094
vn 0.633300781 -0.247314453 -0.733398438
vn -0 -0.333251953 -0.942871094
vn -0 -0.749511719 -0.661621094
vn 0.533203125 -0.216186523 -0.817871094
vn 0.391113281 -0.185791016 -0.901367188
vn 0.529296875 -0.286132812 -0.798828125
vn 0.6171875 -0.391601562 -0.682617188
vn 0.6015625 -0.762695312 -0.237304688
vn 0.487304688 -0.854003906 0.182861328
vn 0.523925781 -0.84765625 0.0832519531
vn 0.439208984 -0.823730469 0.358886719
vn 0.462158203 -0.825195312 0.325195312
vn 0.459228516 -0.847167969 0.266845703
vn 0.603027344 -0.793457031 0.0816650391
vn 0.287841797 -0.927246094 0.239990234
vn 0.777832031 -0.608886719 0.15612793
vn 0.794921875 -0.603515625 -0.0614013672
vn -0 -0.990234375 -0.140869141
vn -0 -0.966308594 0.258056641
vn -0.336914062 -0.439453125 -0.832519531
vn 0.725097656 -0.142211914 -0.673339844
vn -0.229980469 0.261962891 -0.937011719
vn 0.489501953 -0.454345703 -0.744140625
vn -0.246704102 -0.955078125 -0.162841797
vn 0.697265625 -0.634277344 -0.333984375
vn 0.0179290771 -0.809082031 0.587402344
vn 0.864746094 -0.0243988037 -0.501464844
vn -0.0179290771 0.809082031 -0.587402344
vn 0.964355469 0.0199279785 -0.263183594
vn 0.246704102 0.955078125 0.162841797
vn 0.987792969 -0.152587891 -0.0382385254
vn 0.336914062 0.439453125 0.832519531
vn 0.922363281 -0.373046875 0.100585938
vn 0.229980469 -0.261962891 0.937011719
vn 0.704589844 -0.696289062 0.139160156
vn 0.336914062 -0.439453125 -0.832519531
vn 0.229980469 0.261962891 -0.937011719
vn -0.725097656 -0.142211914 -0.673339844
vn -0.489501953 -0.454345703 -0.744140625
vn 0.246704102 -0.955078125 -0.162841797
vn -0.697265625 -0.634277344 -0.333984375
vn -0.0179290771 -0.809082031 0.587402344
vn -0.864746094 -0.0243988037 -0.501464844
vn 0.0179290771 0.809082031 -0.587402344
vn -0.964355469 0.0199279785 -0.263183594
vn -0.246704102 0.955078125 0.162841797
vn -0.987792969 -0.152587891 -0.0382385254
vn -0.336914062 0.439453125 0.832519531
vn -0.922363281 -0.373046875 0.100585938
vn -0.229980469 -0.261962891 0.937011719
vn -0.704589844 -0.696289062 0.139160156
vn -0.336914062 -0.439453125 -0.832519531
vn -0.229980469 0.261962891 -0.937011719
vn -0.921875 0.373291016 -0.103271484
vn -0.9609375 -0.0230255127 -0.276123047
vn -0.246704102 -0.955078125 -0.162841797
vn -0.962890625 -0.124938965 0.238891602
vn 0.0179290771 -0.809082031 0.587402344
vn -0.848632812 0.520019531 0.0963745117
vn -0.0179290771 0.809082031 -0.587402344
vn -0.755371094 0.563476562 0.334716797
vn 0.246704102 0.955078125 0.162841797
vn -0.730957031 0.393310547 0.557617188
vn 0.336914062 0.439453125 0.832519531
vn -0.727050781 0.143310547 0.671875
vn 0.229980469 -0.261962891 0.937011719
vn -0.713867188 -0.27734375 0.643066406
vn 0.336914062 -0.439453125 -0.832519531
vn 0.921875 0.373291016 -0.103271484
vn 0.229980469 0.261962891 -0.937011719
vn 0.9609375 -0.0230255127 -0.276123047
vn 0.246704102 -0.955078125 -0.162841797
vn 0.962890625 -0.124938965 0.238891602
vn -0.0179290771 -0.809082031 0.587402344
vn 0.848632812 0.520019531 0.0963745117
vn 0.0179290771 0.809082031 -0.587402344
vn 0.755371094 0.563476562 0.334716797
vn -0.246704102 0.955078125 0.162841797
vn 0.730957031 0.393310547 0.557617188
vn -0.336914062 0.439453125 0.832519531
vn 0.727050781 0.143310547 0.671875
vn -0.229980469 -0.261962891 0.937011719
vn 0.713867188 -0.27734375 0.643066406
g Body_0
f 3/3/3 2/2/2 1/1/1
f 6/6/6 5/5/5 4/4/4
f 9/9/9 8/8/8 7/7/7
f 12/12/12 11/11/11 10/10/10
f 15/15/15 14/14/14 13/13/13
f 18/18/18 17/17/17 16/16/16
f 21/21/21 20/20/20 19/19/19
f 24/24/24 23/23/23 22/22/22
f 27/27/27 26/26/26 25/25/25
f 30/30/30 29/29/29 28/28/28
f 33/33/33 32/32/32 31/31/31
f 36/36/36 35/35/35 34/34/34
f 39/39/39 38/38/38 37/37/37
f 42/42/42 41/41/41 40/40/40
f 45/45/45 44/44/44 43/43/43
f 48/48/48 47/47/47 46/46/46
f 47/47/47 49/49/49 46/46/46
f 49/49/49 50/50/50 46/46/46
f 51/51/51 50/50/50 49/49/49
f 52/52/52 49/49/49 47/47/47
f 53/53/53 46/46/46 50/50/50
f 54/54/54 52/52/52 47/47/47
f 55/55/55 53/53/53 50/50/50
f 52/52/52 54/54/54 56/56/56
f 57/57/57 52/52/52 56/56/56
f 56/56/56 54/54/54 58/58/58
f 53/53/53 55/55/55 59/59/59
f 60/60/60 53/53/53 59/59/59
f 55/55/55 61/61/61 59/59/59
f 62/62/62 61/61/61 55/55/55
f 59/59/59 61/61/61 63/63/63
f 61/61/61 64/64/64 63/63/63
f 63/63/63 64/64/64 65/65/65
f 66/66/66 63/63/63 65/65/65
f 64/64/64 67/67/67 65/65/65
f 68/68/68 67/67/67 64/64/64
f 65/65/65 67/67/67 69/69/69
f 67/67/67 70/70/70 69/69/69
f 73/73/73 72/72/72 71/71/71
f 74/74/74 73/73/73 71/71/71
f 74/74/74 75/75/75 73/73/73
f 75/75/75 76/76/76 73/73/73
f 77/77/77 74/74/74 71/71/71
f 77/77/77 78/78/78 74/74/74
f 71/71/71 79/79/79 77/77/77
f 79/79/79 80/80/80 77/77/77
f 80/80/80 79/79/79 81/81/81
f 79/79/79 82/82/82 81/81/81
f 83/83/83 80/80/80 81/81/81
f 83/83/83 84/84/84 80/80/80
f 83/83/83 81/81/81 85/85/85
f 86/86/86 83/83/83 85/85/85
f 86/86/86 85/85/85 87/87/87
f 85/85/85 88/88/88 87/87/87
f 89/89/89 86/86/86 87/87/87
f 89/89/89 90/90/90 86/86/86
f 93/93/93 92/92/92 91/91/91
f 94/94/94 93/93/93 91/91/91
f 95/95/95 93/93/93 94/94/94
f 95/95/95 94/94/94 96/96/96
f 97/97/97 95/95/95 96/96/96
f 97/97/97 96/96/96 98/98/98
f 98/98/98 99/99/99 97/97/97
f 98/98/98 100/100/100 99/99/99
f 100/100/100 101/101/101 99/99/99
f 100/100/100 102/102/102 101/101/101
f 103/103/103 101/101/101 102/102/102
f 103/103/103 102/102/102 104/104/104
f 107/107/107 106/106/106 105/105/105
f 108/108/108 107/107/107 105/105/105
f 108/108/108 105/105/105 109/109/109
f 108/108/108 110/110/110 107/107/107
f 111/111/111 107/107/107 110/110/110
f 108/108/108 109/109/109 112/112/112
f 108/108/108 112/112/112 110/110/110
f 113/113/113 112/112/112 109/109/109
f 114/114/114 113/113/113 109/109/109
f 110/110/110 115/115/115 111/111/111
f 115/115/115 116/116/116 111/111/111
f 117/117/117 116/116/116 115/115/115
f 112/112/112 118/118/118 110/110/110
f 113/113/113 118/118/118 112/112/112
f 115/115/115 110/110/110 118/118/118
f 117/117/117 115/115/115 119/119/119
f 117/117/117 119/119/119 120/120/120
f 115/115/115 118/118/118 121/121/121
f 115/115/115 121/121/121 119/119/119
f 120/120/120 119/119/119 122/122/122
f 120/120/120 122/122/122 123/123/123
f 114/114/114 124/124/124 113/113/113
f 114/114/114 125/125/125 124/124/124
f 113/113/113 126/126/126 118/118/118
f 121/121/121 118/118/118 126/126/126
f 119/119/119 121/121/121 127/127/127
f 119/119/119 127/127/127 122/122/122
f 128/128/128 127/127/127 121/121/121
f 129/129/129 128/128/128 121/121/121
f 129/129/129 121/121/121 126/126/126
f 113/113/113 130/130/130 126/126/126
f 129/129/129 126/126/126 130/130/130
f 122/122/122 127/127/127 131/131/131
f 127/127/127 128/128/128 131/131/131
f 123/123/123 122/122/122 132/132/132
f 122/122/122 131/131/131 132/132/132
f 113/113/113 124/124/124 133/133/133
f 130/130/130 113/113/113 133/133/133
f 134/134/134 129/129/129 130/130/130
f 129/129/129 134/134/134 128/128/128
f 123/123/123 132/132/132 135/135/135
f 136/136/136 123/123/123 135/135/135
f 136/136/136 135/135/135 137/137/137
f 135/135/135 138/138/138 137/137/137
f 135/135/135 139/139/139 138/138/138
f 135/135/135 132/132/132 139/139/139
f 139/139/139 140/140/140 138/138/138
f 132/132/132 141/141/141 139/139/139
f 132/132/132 131/131/131 141/141/141
f 139/139/139 142/142/142 140/140/140
f 139/139/139 141/141/141 142/142/142
f 142/142/142 143/143/143 140/140/140
f 143/143/143 142/142/142 144/144/144
f 131/131/131 145/145/145 141/141/141
f 131/131/131 128/128/128 145/145/145
f 141/141/141 146/146/146 142/142/142
f 141/141/141 145/145/145 146/146/146
f 142/142/142 147/147/147 144/144/144
f 142/142/142 146/146/146 147/147/147
f 145/145/145 148/148/148 146/146/146
f 146/146/146 148/148/148 147/147/147
f 147/147/147 149/149/149 144/144/144
f 147/147/147 148/148/148 149/149/149
f 149/149/149 150/150/150 144/144/144
f 151/151/151 148/148/148 145/145/145
f 145/145/145 128/128/128 151/151/151
f 149/149/149 152/152/152 150/150/150
f 152/152/152 153/153/153 150/150/150
f 154/154/154 153/153/153 152/152/152
f 148/148/148 155/155/155 149/149/149
f 151/151/151 155/155/155 148/148/148
f 149/149/149 155/155/155 152/152/152
f 155/155/155 156/156/156 152/152/152
f 157/157/157 154/154/154 152/152/152
f 157/157/157 152/152/152 156/156/156
f 158/158/158 154/154/154 157/157/157
f 159/159/159 158/158/158 157/157/157
f 159/159/159 157/157/157 156/156/156
f 160/160/160 158/158/158 159/159/159
f 161/161/161 160/160/160 159/159/159
f 161/161/161 159/159/159 156/156/156
f 160/160/160 161/161/161 162/162/162
f 163/163/163 155/155/155 151/151/151
f 155/155/155 163/163/163 156/156/156
f 161/161/161 164/164/164 162/162/162
f 162/162/162 164/164/164 165/165/165
f 164/164/164 166/166/166 165/165/165
f 167/167/167 161/161/161 156/156/156
f 161/161/161 167/167/167 164/164/164
f 164/164/164 168/168/168 166/166/166
f 167/167/167 168/168/168 164/164/164
f 168/168/168 169/169/169 166/166/166
f 156/156/156 170/170/170 167/167/167
f 156/156/156 163/163/163 170/170/170
f 151/151/151 171/171/171 163/163/163
f 151/151/151 128/128/128 171/171/171
f 168/168/168 172/172/172 169/169/169
f 169/169/169 172/172/172 173/173/173
f 167/167/167 174/174/174 168/168/168
f 167/167/167 170/170/170 174/174/174
f 168/168/168 174/174/174 172/172/172
f 163/163/163 175/175/175 170/170/170
f 163/163/163 171/171/171 175/175/175
f 170/170/170 175/175/175 174/174/174
f 128/128/128 176/176/176 171/171/171
f 176/176/176 175/175/175 171/171/171
f 134/134/134 176/176/176 128/128/128
f 177/177/177 173/173/173 172/172/172
f 174/174/174 177/177/177 172/172/172
f 178/178/178 173/173/173 177/177/177
f 179/179/179 174/174/174 175/175/175
f 179/179/179 175/175/175 176/176/176
f 179/179/179 177/177/177 174/174/174
f 176/176/176 134/134/134 180/180/180
f 179/179/179 176/176/176 180/180/180
f 180/180/180 134/134/134 130/130/130
f 181/181/181 178/178/178 177/177/177
f 182/182/182 178/178/178 181/181/181
f 181/181/181 183/183/183 182/182/182
f 184/184/184 177/177/177 179/179/179
f 184/184/184 181/181/181 177/177/177
f 179/179/179 180/180/180 184/184/184
f 180/180/180 130/130/130 185/185/185
f 185/185/185 130/130/130 133/133/133
f 180/180/180 185/185/185 186/186/186
f 184/184/184 180/180/180 186/186/186
f 185/185/185 133/133/133 186/186/186
f 187/187/187 181/181/181 184/184/184
f 187/187/187 183/183/183 181/181/181
f 184/184/184 186/186/186 187/187/187
f 187/187/187 188/188/188 183/183/183
f 187/187/187 186/186/186 188/188/188
f 183/183/183 188/188/188 189/189/189
f 133/133/133 190/190/190 186/186/186
f 190/190/190 188/188/188 186/186/186
f 191/191/191 190/190/190 133/133/133
f 124/124/124 191/191/191 133/133/133
f 192/192/192 189/189/189 188/188/188
f 192/192/192 193/193/193 189/189/189
f 193/193/193 192/192/192 194/194/194
f 190/190/190 195/195/195 188/188/188
f 190/190/190 191/191/191 195/195/195
f 196/196/196 191/191/191 124/124/124
f 125/125/125 196/196/196 124/124/124
f 197/197/197 196/196/196 125/125/125
f 192/192/192 188/188/188 198/198/198
f 198/198/198 188/188/188 195/195/195
f 192/192/192 199/199/199 194/194/194
f 192/192/192 198/198/198 199/199/199
f 196/196/196 200/200/200 191/191/191
f 200/200/200 195/195/195 191/191/191
f 195/195/195 200/200/200 201/201/201
f 198/198/198 195/195/195 202/202/202
f 198/198/198 202/202/202 199/199/199
f 201/201/201 202/202/202 195/195/195
f 203/203/203 194/194/194 199/199/199
f 202/202/202 203/203/203 199/199/199
f 204/204/204 194/194/194 203/203/203
f 205/205/205 200/200/200 196/196/196
f 197/197/197 205/205/205 196/196/196
f 201/201/201 200/200/200 205/205/205
f 205/205/205 197/197/197 206/206/206
f 206/206/206 197/197/197 207/207/207
f 208/208/208 206/206/206 207/207/207
f 208/208/208 207/207/207 209/209/209
f 208/208/208 209/209/209 210/210/210
f 208/208/208 210/210/210 211/211/211
f 212/212/212 205/205/205 206/206/206
f 201/201/201 205/205/205 212/212/212
f 213/213/213 202/202/202 201/201/201
f 203/203/203 202/202/202 213/213/213
f 214/214/214 204/204/204 203/203/203
f 215/215/215 204/204/204 214/214/214
f 216/216/216 208/208/208 211/211/211
f 211/211/211 217/217/217 216/216/216
f 216/216/216 217/217/217 218/218/218
f 219/219/219 216/216/216 218/218/218
f 220/220/220 216/216/216 219/219/219
f 216/216/216 220/220/220 208/208/208
f 221/221/221 220/220/220 219/219/219
f 220/220/220 222/222/222 208/208/208
f 208/208/208 222/222/222 206/206/206
f 222/222/222 212/212/212 206/206/206
f 223/223/223 220/220/220 221/221/221
f 223/223/223 222/222/222 220/220/220
f 223/223/223 221/221/221 224/224/224
f 225/225/225 224/224/224 221/221/221
f 226/226/226 222/222/222 223/223/223
f 224/224/224 226/226/226 223/223/223
f 227/227/227 212/212/212 222/222/222
f 222/222/222 226/226/226 227/227/227
f 228/228/228 224/224/224 225/225/225
f 229/229/229 228/228/228 225/225/225
f 230/230/230 226/226/226 224/224/224
f 230/230/230 224/224/224 228/228/228
f 229/229/229 231/231/231 228/228/228
f 229/229/229 232/232/232 231/231/231
f 231/231/231 232/232/232 215/215/215
f 231/231/231 215/215/215 214/214/214
f 231/231/231 233/233/233 228/228/228
f 231/231/231 214/214/214 233/233/233
f 233/233/233 230/230/230 228/228/228
f 214/214/214 234/234/234 233/233/233
f 203/203/203 234/234/234 214/214/214
f 213/213/213 234/234/234 203/203/203
f 234/234/234 235/235/235 233/233/233
f 233/233/233 235/235/235 230/230/230
f 213/213/213 235/235/235 234/234/234
f 226/226/226 230/230/230 236/236/236
f 227/227/227 226/226/226 236/236/236
f 235/235/235 237/237/237 230/230/230
f 230/230/230 237/237/237 236/236/236
f 237/237/237 235/235/235 213/213/213
f 236/236/236 237/237/237 227/227/227
f 238/238/238 237/237/237 213/213/213
f 238/238/238 213/213/213 201/201/201
f 227/227/227 237/237/237 239/239/239
f 238/238/238 239/239/239 237/237/237
f 238/238/238 201/201/201 239/239/239
f 227/227/227 239/239/239 212/212/212
f 239/239/239 201/201/201 212/212/212
f 242/242/242 241/241/241 240/240/240
f 240/240/240 241/241/241 243/243/243
f 241/241/241 244/244/244 243/243/243
f 241/241/241 245/245/245 244/244/244
f 244/244/244 245/245/245 246/246/246
f 243/243/243 244/244/244 247/247/247
f 244/244/244 246/246/246 247/247/247
f 247/247/247 246/246/246 248/248/248
f 246/246/246 249/249/249 248/248/248
f 246/246/246 245/245/245 249/249/249
f 248/248/248 249/249/249 250/250/250
f 249/249/249 251/251/251 250/250/250
f 249/249/249 245/245/245 251/251/251
f 250/250/250 251/251/251 252/252/252
f 251/251/251 253/253/253 252/252/252
f 251/251/251 245/245/245 253/253/253
f 252/252/252 253/253/253 254/254/254
f 253/253/253 255/255/255 254/254/254
f 253/253/253 245/245/245 255/255/255
f 254/254/254 255/255/255 256/256/256
f 255/255/255 257/257/257 256/256/256
f 255/255/255 245/245/245 257/257/257
f 256/256/256 257/257/257 258/258/258
f 257/257/257 245/245/245 259/259/259
f 257/257/257 259/259/259 258/258/258
f 259/259/259 245/245/245 260/260/260
f 258/258/258 259/259/259 261/261/261
f 259/259/259 260/260/260 261/261/261
f 264/264/264 263/263/263 262/262/262
f 265/265/265 264/264/264 262/262/262
f 265/265/265 262/262/262 266/266/266
f 267/267/267 264/264/264 265/265/265
f 267/267/267 268/268/268 264/264/264
f 269/269/269 267/267/267 265/265/265
f 270/270/270 265/265/265 266/266/266
f 269/269/269 265/265/265 270/270/270
f 270/270/270 266/266/266 271/271/271
f 272/272/272 269/269/269 270/270/270
f 273/273/273 270/270/270 271/271/271
f 272/272/272 270/270/270 273/273/273
f 273/273/273 271/271/271 274/274/274
f 275/275/275 272/272/272 273/273/273
f 275/275/275 273/273/273 274/274/274
f 275/275/275 276/276/276 272/272/272
f 275/275/275 274/274/274 277/277/277
f 278/278/278 276/276/276 275/275/275
f 278/278/278 275/275/275 277/277/277
f 278/278/278 279/279/279 276/276/276
f 279/279/279 278/278/278 280/280/280
f 278/278/278 277/277/277 281/281/281
f 280/280/280 278/278/278 281/281/281
f 279/279/279 280/280/280 282/282/282
f 281/281/281 283/283/283 280/280/280
f 283/283/283 284/284/284 280/280/280
f 284/284/284 285/285/285 280/280/280
f 282/282/282 280/280/280 286/286/286
f 285/285/285 286/286/286 280/280/280
f 286/286/286 285/285/285 287/287/287
f 288/288/288 286/286/286 287/287/287
f 288/288/288 287/287/287 289/289/289
f 290/290/290 288/288/288 289/289/289
f 293/293/293 292/292/292 291/291/291
f 291/291/291 292/292/292 294/294/294
f 294/294/294 292/292/292 295/295/295
f 295/295/295 292/292/292 296/296/296
f 296/296/296 292/292/292 297/297/297
f 297/297/297 292/292/292 298/298/298
f 298/298/298 292/292/292 299/299/299
f 299/299/299 292/292/292 300/300/300
f 299/299/299 300/300/300 301/301/301
f 301/301/301 300/300/300 302/302/302
f 301/301/301 302/302/302 303/303/303
f 300/300/300 304/304/304 302/302/302
f 300/300/300 305/305/305 304/304/304
f 292/292/292 305/305/305 300/300/300
f 305/305/305 306/306/306 304/304/304
f 292/292/292 307/307/307 305/305/305
f 305/305/305 307/307/307 306/306/306
f 307/307/307 292/292/292 308/308/308
f 307/307/307 309/309/309 306/306/306
f 307/307/307 308/308/308 309/309/309
f 312/312/312 311/311/311 310/310/310
f 311/311/311 313/313/313 310/310/310
f 311/311/311 314/314/314 313/313/313
f 313/313/313 314/314/314 315/315/315
f 314/314/314 316/316/316 315/315/315
f 315/315/315 316/316/316 317/317/317
f 318/318/318 317/317/317 316/316/316
f 319/319/319 317/317/317 318/318/318
f 320/320/320 319/319/319 318/318/318
f 321/321/321 319/319/319 320/320/320
f 320/320/320 322/322/322 321/321/321
f 321/321/321 322/322/322 323/323/323
f 326/326/326 325/325/325 324/324/324
f 325/325/325 327/327/327 324/324/324
f 324/324/324 327/327/327 328/328/328
f 329/329/329 327/327/327 325/325/325
f 325/325/325 330/330/330 329/329/329
f 328/328/328 327/327/327 331/331/331
f 331/331/331 327/327/327 329/329/329
f 331/331/331 332/332/332 328/328/328
f 332/332/332 333/333/333 328/328/328
f 334/334/334 329/329/329 330/330/330
f 335/335/335 334/334/334 330/330/330
f 335/335/335 336/336/336 334/334/334
f 337/337/337 331/331/331 329/329/329
f 337/337/337 332/332/332 331/331/331
f 329/329/329 334/334/334 337/337/337
f 334/334/334 336/336/336 338/338/338
f 338/338/338 336/336/336 339/339/339
f 337/337/337 334/334/334 340/340/340
f 340/340/340 334/334/334 338/338/338
f 338/338/338 339/339/339 341/341/341
f 341/341/341 339/339/339 342/342/342
f 343/343/343 333/333/333 332/332/332
f 344/344/344 333/333/333 343/343/343
f 345/345/345 332/332/332 337/337/337
f 337/337/337 340/340/340 345/345/345
f 340/340/340 338/338/338 346/346/346
f 346/346/346 338/338/338 341/341/341
f 346/346/346 347/347/347 340/340/340
f 347/347/347 348/348/348 340/340/340
f 340/340/340 348/348/348 345/345/345
f 349/349/349 332/332/332 345/345/345
f 345/345/345 348/348/348 349/349/349
f 346/346/346 341/341/341 350/350/350
f 347/347/347 346/346/346 350/350/350
f 341/341/341 342/342/342 351/351/351
f 350/350/350 341/341/341 351/351/351
f 343/343/343 332/332/332 352/352/352
f 332/332/332 349/349/349 352/352/352
f 353/353/353 344/344/344 343/343/343
f 353/353/353 354/354/354 344/344/344
f 348/348/348 355/355/355 349/349/349
f 355/355/355 348/348/348 347/347/347
f 351/351/351 342/342/342 356/356/356
f 342/342/342 357/357/357 356/356/356
f 356/356/356 357/357/357 358/358/358
f 359/359/359 356/356/356 358/358/358
f 360/360/360 356/356/356 359/359/359
f 351/351/351 356/356/356 360/360/360
f 361/361/361 360/360/360 359/359/359
f 362/362/362 351/351/351 360/360/360
f 350/350/350 351/351/351 362/362/362
f 363/363/363 360/360/360 361/361/361
f 362/362/362 360/360/360 363/363/363
f 364/364/364 363/363/363 361/361/361
f 363/363/363 364/364/364 365/365/365
f 366/366/366 350/350/350 362/362/362
f 347/347/347 350/350/350 366/366/366
f 367/367/367 362/362/362 363/363/363
f 366/366/366 362/362/362 367/367/367
f 368/368/368 363/363/363 365/365/365
f 367/367/367 363/363/363 368/368/368
f 369/369/369 366/366/366 367/367/367
f 369/369/369 367/367/367 368/368/368
f 370/370/370 368/368/368 365/365/365
f 369/369/369 368/368/368 370/370/370
f 371/371/371 370/370/370 365/365/365
f 369/369/369 372/372/372 366/366/366
f 347/347/347 366/366/366 372/372/372
f 373/373/373 369/369/369 370/370/370
f 373/373/373 372/372/372 369/369/369
f 374/374/374 370/370/370 371/371/371
f 373/373/373 370/370/370 374/374/374
f 375/375/375 373/373/373 374/374/374
f 376/376/376 374/374/374 371/371/371
f 376/376/376 377/377/377 374/374/374
f 377/377/377 378/378/378 374/374/374
f 374/374/374 378/378/378 375/375/375
f 377/377/377 379/379/379 378/378/378
f 379/379/379 380/380/380 378/378/378
f 378/378/378 380/380/380 375/375/375
f 379/379/379 381/381/381 380/380/380
f 381/381/381 382/382/382 380/380/380
f 380/380/380 382/382/382 375/375/375
f 382/382/382 381/381/381 383/383/383
f 373/373/373 384/384/384 372/372/372
f 384/384/384 373/373/373 375/375/375
f 385/385/385 382/382/382 383/383/383
f 385/385/385 383/383/383 386/386/386
f 387/387/387 385/385/385 386/386/386
f 382/382/382 388/388/388 375/375/375
f 388/388/388 382/382/382 385/385/385
f 389/389/389 385/385/385 387/387/387
f 389/389/389 388/388/388 385/385/385
f 390/390/390 389/389/389 387/387/387
f 391/391/391 375/375/375 388/388/388
f 384/384/384 375/375/375 391/391/391
f 392/392/392 372/372/372 384/384/384
f 347/347/347 372/372/372 392/392/392
f 393/393/393 388/388/388 389/389/389
f 391/391/391 388/388/388 393/393/393
f 394/394/394 389/389/389 390/390/390
f 393/393/393 389/389/389 394/394/394
f 394/394/394 390/390/390 395/395/395
f 396/396/396 384/384/384 391/391/391
f 392/392/392 384/384/384 396/396/396
f 396/396/396 391/391/391 393/393/393
f 397/397/397 347/347/347 392/392/392
f 396/396/396 397/397/397 392/392/392
f 397/397/397 355/355/355 347/347/347
f 395/395/395 398/398/398 394/394/394
f 398/398/398 393/393/393 394/394/394
f 395/395/395 399/399/399 398/398/398
f 393/393/393 400/400/400 396/396/396
f 396/396/396 400/400/400 397/397/397
f 398/398/398 400/400/400 393/393/393
f 355/355/355 397/397/397 401/401/401
f 397/397/397 400/400/400 401/401/401
f 355/355/355 401/401/401 349/349/349
f 399/399/399 402/402/402 398/398/398
f 399/399/399 403/403/403 402/402/402
f 404/404/404 402/402/402 403/403/403
f 398/398/398 405/405/405 400/400/400
f 402/402/402 405/405/405 398/398/398
f 401/401/401 400/400/400 405/405/405
f 349/349/349 401/401/401 406/406/406
f 349/349/349 406/406/406 352/352/352
f 406/406/406 401/401/401 407/407/407
f 401/401/401 405/405/405 407/407/407
f 352/352/352 406/406/406 407/407/407
f 402/402/402 408/408/408 405/405/405
f 404/404/404 408/408/408 402/402/402
f 407/407/407 405/405/405 408/408/408
f 409/409/409 408/408/408 404/404/404
f 407/407/407 408/408/408 409/409/409
f 409/409/409 404/404/404 410/410/410
f 411/411/411 352/352/352 407/407/407
f 409/409/409 411/411/411 407/407/407
f 411/411/411 412/412/412 352/352/352
f 412/412/412 343/343/343 352/352/352
f 412/412/412 353/353/353 343/343/343
f 412/412/412 411/411/411 413/413/413
f 413/413/413 411/411/411 409/409/409
f 410/410/410 414/414/414 409/409/409
f 415/415/415 414/414/414 410/410/410
f 414/414/414 415/415/415 416/416/416
f 417/417/417 353/353/353 412/412/412
f 413/413/413 417/417/417 412/412/412
f 417/417/417 413/413/413 418/418/418
f 417/417/417 419/419/419 353/353/353
f 417/417/417 418/418/418 419/419/419
f 419/419/419 354/354/354 353/353/353
f 409/409/409 420/420/420 413/413/413
f 409/409/409 414/414/414 420/420/420
f 421/421/421 414/414/414 416/416/416
f 420/420/420 414/414/414 421/421/421
f 413/413/413 420/420/420 422/422/422
f 422/422/422 420/420/420 421/421/421
f 422/422/422 418/418/418 413/413/413
f 416/416/416 423/423/423 421/421/421
f 423/423/423 422/422/422 421/421/421
f 416/416/416 424/424/424 423/423/423
f 354/354/354 419/419/419 425/425/425
f 354/354/354 425/425/425 426/426/426
f 425/425/425 427/427/427 426/426/426
f 426/426/426 427/427/427 428/428/428
f 428/428/428 427/427/427 429/429/429
f 429/429/429 427/427/427 430/430/430
f 419/419/419 431/431/431 425/425/425
f 419/419/419 418/418/418 431/431/431
f 422/422/422 432/432/432 418/418/418
f 422/422/422 423/423/423 432/432/432
f 424/424/424 433/433/433 423/423/423
f 424/424/424 434/434/434 433/433/433
f 427/427/427 435/435/435 430/430/430
f 436/436/436 430/430/430 435/435/435
f 436/436/436 435/435/435 437/437/437
f 435/435/435 438/438/438 437/437/437
f 435/435/435 439/439/439 438/438/438
f 439/439/439 435/435/435 427/427/427
f 439/439/439 440/440/440 438/438/438
f 441/441/441 439/439/439 427/427/427
f 441/441/441 427/427/427 425/425/425
f 431/431/431 441/441/441 425/425/425
f 439/439/439 442/442/442 440/440/440
f 441/441/441 442/442/442 439/439/439
f 440/440/440 442/442/442 443/443/443
f 443/443/443 444/444/444 440/440/440
f 441/441/441 445/445/445 442/442/442
f 445/445/445 443/443/443 442/442/442
f 431/431/431 446/446/446 441/441/441
f 445/445/445 441/441/441 446/446/446
f 443/443/443 447/447/447 444/444/444
f 447/447/447 448/448/448 444/444/444
f 445/445/445 449/449/449 443/443/443
f 443/443/443 449/449/449 447/447/447
f 450/450/450 448/448/448 447/447/447
f 451/451/451 448/448/448 450/450/450
f 451/451/451 450/450/450 434/434/434
f 434/434/434 450/450/450 433/433/433
f 452/452/452 450/450/450 447/447/447
f 433/433/433 450/450/450 452/452/452
f 449/449/449 452/452/452 447/447/447
f 453/453/453 433/433/433 452/452/452
f 453/453/453 423/423/423 433/433/433
f 453/453/453 432/432/432 423/423/423
f 454/454/454 453/453/453 452/452/452
f 454/454/454 452/452/452 449/449/449
f 454/454/454 432/432/432 453/453/453
f 449/449/449 445/445/445 455/455/455
f 445/445/445 446/446/446 455/455/455
f 456/456/456 454/454/454 449/449/449
f 456/456/456 449/449/449 455/455/455
f 454/454/454 456/456/456 432/432/432
f 456/456/456 455/455/455 446/446/446
f 456/456/456 457/457/457 432/432/432
f 432/432/432 457/457/457 418/418/418
f 456/456/456 446/446/446 458/458/458
f 458/458/458 457/457/457 456/456/456
f 418/418/418 457/457/457 458/458/458
f 431/431/431 458/458/458 446/446/446
f 418/418/418 458/458/458 431/431/431
f 461/461/461 460/460/460 459/459/459
f 461/461/461 459/459/459 462/462/462
f 463/463/463 461/461/461 462/462/462
f 464/464/464 461/461/461 463/463/463
f 464/464/464 463/463/463 465/465/465
f 463/463/463 462/462/462 466/466/466
f 465/465/465 463/463/463 466/466/466
f 465/465/465 466/466/466 467/467/467
f 468/468/468 465/465/465 467/467/467
f 464/464/464 465/465/465 468/468/468
f 468/468/468 467/467/467 469/469/469
f 470/470/470 468/468/468 469/469/469
f 464/464/464 468/468/468 470/470/470
f 470/470/470 469/469/469 471/471/471
f 472/472/472 470/470/470 471/471/471
f 464/464/464 470/470/470 472/472/472
f 472/472/472 471/471/471 473/473/473
f 474/474/474 472/472/472 473/473/473
f 464/464/464 472/472/472 474/474/474
f 474/474/474 473/473/473 475/475/475
f 476/476/476 474/474/474 475/475/475
f 464/464/464 474/474/474 476/476/476
f 476/476/476 475/475/475 477/477/477
f 464/464/464 476/476/476 478/478/478
f 478/478/478 476/476/476 477/477/477
f 464/464/464 478/478/478 479/479/479
f 478/478/478 477/477/477 480/480/480
f 479/479/479 478/478/478 480/480/480
f 483/483/483 482/482/482 481/481/481
f 482/482/482 484/484/484 481/481/481
f 481/481/481 484/484/484 485/485/485
f 482/482/482 486/486/486 484/484/484
f 487/487/487 486/486/486 482/482/482
f 486/486/486 488/488/488 484/484/484
f 484/484/484 489/489/489 485/485/485
f 484/484/484 488/488/488 489/489/489
f 485/485/485 489/489/489 490/490/490
f 488/488/488 491/491/491 489/489/489
f 489/489/489 492/492/492 490/490/490
f 489/489/489 491/491/491 492/492/492
f 490/490/490 492/492/492 493/493/493
f 491/491/491 494/494/494 492/492/492
f 492/492/492 494/494/494 493/493/493
f 495/495/495 494/494/494 491/491/491
f 493/493/493 494/494/494 496/496/496
f 495/495/495 497/497/497 494/494/494
f 494/494/494 497/497/497 496/496/496
f 498/498/498 497/497/497 495/495/495
f 497/497/497 498/498/498 499/499/499
f 496/496/496 497/497/497 500/500/500
f 497/497/497 499/499/499 500/500/500
f 499/499/499 498/498/498 501/501/501
f 502/502/502 500/500/500 499/499/499
f 503/503/503 502/502/502 499/499/499
f 504/504/504 503/503/503 499/499/499
f 499/499/499 501/501/501 505/505/505
f 505/505/505 504/504/504 499/499/499
f 504/504/504 505/505/505 506/506/506
f 505/505/505 507/507/507 506/506/506
f 506/506/506 507/507/507 508/508/508
f 507/507/507 509/509/509 508/508/508
f 512/512/512 511/511/511 510/510/510
f 512/512/512 510/510/510 513/513/513
f 512/512/512 513/513/513 514/514/514
f 512/512/512 514/514/514 515/515/515
f 512/512/512 515/515/515 516/516/516
f 512/512/512 516/516/516 517/517/517
f 512/512/512 517/517/517 518/518/518
f 512/512/512 518/518/518 519/519/519
f 519/519/519 518/518/518 520/520/520
f 519/519/519 520/520/520 521/521/521
f 521/521/521 520/520/520 522/522/522
f 523/523/523 519/519/519 521/521/521
f 524/524/524 519/519/519 523/523/523
f 524/524/524 512/512/512 519/519/519
f 525/525/525 524/524/524 523/523/523
f 526/526/526 512/512/512 524/524/524
f 526/526/526 524/524/524 525/525/525
f 512/512/512 526/526/526 527/527/527
f 528/528/528 526/526/526 525/525/525
f 527/527/527 526/526/526 528/528/528
f 531/531/531 530/530/530 529/529/529
f 530/530/530 532/532/532 529/529/529
f 529/529/529 532/532/532 533/533/533
f 532/532/532 534/534/534 533/533/533
f 530/530/530 534/534/534 532/532/532
f 533/533/533 534/534/534 535/535/535
f 536/536/536 530/530/530 531/531/531
f 536/536/536 534/534/534 530/530/530
f 537/537/537 536/536/536 531/531/531
f 538/538/538 536/536/536 537/537/537
f 538/538/538 534/534/534 536/536/536
f 539/539/539 538/538/538 537/537/537
f 540/540/540 538/538/538 539/539/539
f 540/540/540 534/534/534 538/538/538
f 541/541/541 540/540/540 539/539/539
f 542/542/542 540/540/540 541/541/541
f 542/542/542 534/534/534 540/540/540
f 543/543/543 542/542/542 541/541/541
f 535/535/535 544/544/544 543/543/543
f 534/534/534 544/544/544 535/535/535
f 544/544/544 534/534/534 542/542/542
f 544/544/544 542/542/542 543/543/543
f 547/547/547 546/546/546 545/545/545
f 548/548/548 547/547/547 545/545/545
f 548/548/548 545/545/545 549/549/549
f 550/550/550 548/548/548 549/549/549
f 550/550/550 547/547/547 548/548/548
f 550/550/550 549/549/549 551/551/551
f 547/547/547 552/552/552 546/546/546
f 550/550/550 552/552/552 547/547/547
f 552/552/552 553/553/553 546/546/546
f 552/552/552 554/554/554 553/553/553
f 550/550/550 554/554/554 552/552/552
f 554/554/554 555/555/555 553/553/553
f 554/554/554 556/556/556 555/555/555
f 550/550/550 556/556/556 554/554/554
f 556/556/556 557/557/557 555/555/555
f 556/556/556 558/558/558 557/557/557
f 550/550/550 558/558/558 556/556/556
f 558/558/558 559/559/559 557/557/557
f 560/560/560 551/551/551 559/559/559
f 560/560/560 550/550/550 551/551/551
f 550/550/550 560/560/560 558/558/558
f 558/558/558 560/560/560 559/559/559
f 563/563/563 562/562/562 561/561/561
f 564/564/564 563/563/563 561/561/561
f 564/564/564 561/561/561 565/565/565
f 566/566/566 564/564/564 565/565/565
f 566/566/566 563/563/563 564/564/564
f 566/566/566 565/565/565 567/567/567
f 563/563/563 568/568/568 562/562/562
f 566/566/566 568/568/568 563/563/563
f 568/568/568 569/569/569 562/562/562
f 568/568/568 570/570/570 569/569/569
f 566/566/566 570/570/570 568/568/568
f 570/570/570 571/571/571 569/569/569
f 570/570/570 572/572/572 571/571/571
f 566/566/566 572/572/572 570/570/570
f 572/572/572 573/573/573 571/571/571
f 572/572/572 574/574/574 573/573/573
f 566/566/566 574/574/574 572/572/572
f 574/574/574 575/575/575 573/573/573
f 576/576/576 567/567/567 575/575/575
f 576/576/576 566/566/566 567/567/567
f 566/566/566 576/576/576 574/574/574
f 574/574/574 576/576/576 575/575/575
f 579/579/579 578/578/578 577/577/577
f 578/578/578 580/580/580 577/577/577
f 577/577/577 580/580/580 581/581/581
f 580/580/580 582/582/582 581/581/581
f 578/578/578 582/582/582 580/580/580
f 581/581/581 582/582/582 583/583/583
f 584/584/584 578/578/578 579/579/579
f 584/584/584 582/582/582 578/578/578
f 585/585/585 584/584/584 579/579/579
f 586/586/586 584/584/584 585/585/585
f 586/586/586 582/582/582 584/584/584
f 587/587/587 586/586/586 585/585/585
f 588/588/588 586/586/586 587/587/587
f 588/588/588 582/582/582 586/586/586
f 589/589/589 588/588/588 587/587/587
f 590/590/590 588/588/588 589/589/589
f 590/590/590 582/582/582 588/588/588
f 591/591/591 590/590/590 589/589/589
f 583/583/583 592/592/592 591/591/591
f 582/582/582 592/592/592 583/583/583
f 592/592/592 582/582/582 590/590/590
f 592/592/592 590/590/590 591/591/591
