g Crystal_Blue
v 0.13586776 1.36003089 0.12449988
v 0.184107661 1.36003089 -0.0080381101
v -1.52587887E-07 0.988395214 -1.58141074E-08
v 0.184107661 1.36003089 -0.0080381101
v 0.124499813 1.36003089 -0.135867521
v -1.52587887E-07 0.988395214 -1.58141074E-08
v 0.124499813 1.36003089 -0.135867521
v -0.00803832989 1.36003089 -0.184107587
v -1.52587887E-07 0.988395214 -1.58141074E-08
v -0.00803832989 1.36003089 -0.184107587
v -0.135867611 1.36003089 -0.124499731
v -1.52587887E-07 0.988395214 -1.58141074E-08
v -0.135867611 1.36003089 -0.124499731
v -0.184107661 1.36003089 0.00803832617
v -1.52587887E-07 0.988395214 -1.58141074E-08
v -0.184107661 1.36003089 0.00803832617
v -0.124499813 1.36003089 0.1358677
v -1.52587887E-07 0.988395214 -1.58141074E-08
v -0.124499813 1.36003089 0.1358677
v 0.00803802442 1.36003089 0.184107706
v -1.52587887E-07 0.988395214 -1.58141074E-08
v 0.00803802442 1.36003089 0.184107706
v 0.13586776 1.36003089 0.12449988
v -1.52587887E-07 0.988395214 -1.58141074E-08
v -1.52587887E-07 1.73166656 -1.52431809E-08
v 0.184107661 1.36003089 -0.0080381101
v 0.13586776 1.36003089 0.12449988
v -1.52587887E-07 1.73166656 -1.52431809E-08
v 0.124499813 1.36003089 -0.135867521
v 0.184107661 1.36003089 -0.0080381101
v -1.52587887E-07 1.73166656 -1.52431809E-08
v -0.00803832989 1.36003089 -0.184107587
v 0.124499813 1.36003089 -0.135867521
v -1.52587887E-07 1.73166656 -1.52431809E-08
v -0.135867611 1.36003089 -0.124499731
v -0.00803832989 1.36003089 -0.184107587
v -1.52587887E-07 1.73166656 -1.52431809E-08
v -0.184107661 1.36003089 0.00803832617
v -0.135867611 1.36003089 -0.124499731
v -1.52587887E-07 1.73166656 -1.52431809E-08
v -0.124499813 1.36003089 0.1358677
v -0.184107661 1.36003089 0.00803832617
v -1.52587887E-07 1.73166656 -1.52431809E-08
v 0.00803802442 1.36003089 0.184107706
v -0.124499813 1.36003089 0.1358677
v -1.52587887E-07 1.73166656 -1.52431809E-08
v 0.13586776 1.36003089 0.12449988
v 0.00803802442 1.36003089 0.184107706
vt 0.168457031 0.544433594
vt 0.168457031 0.586425781
vt 0.0109558105 0.586425781
vt 0.168457031 0.586425781
vt 0.168457031 0.627929688
vt 0.0109558105 0.586425781
vt 0.168457031 0.638183594
vt 0.168457031 0.680175781
vt 0.0109558105 0.680175781
vt 0.168457031 0.680175781
vt 0.168457031 0.721679688
vt 0.0109558105 0.680175781
vt 0.342041016 0.676757812
vt 0.342041016 0.635253906
vt 0.184570312 0.635253906
vt 0.342041016 0.635253906
vt 0.342041016 0.59375
vt 0.184570312 0.635253906
vt 0.337158203 0.577636719
vt 0.337158203 0.536132812
vt 0.17956543 0.536132812
vt 0.337158203 0.536132812
vt 0.337158203 0.494628906
vt 0.17956543 0.536132812
vt 0.325927734 0.586425781
vt 0.168457031 0.586425781
vt 0.168457031 0.544433594
vt 0.325927734 0.586425781
vt 0.168457031 0.627929688
vt 0.168457031 0.586425781
vt 0.325927734 0.680175781
vt 0.168457031 0.680175781
vt 0.168457031 0.638183594
vt 0.325927734 0.680175781
vt 0.168457031 0.721679688
vt 0.168457031 0.680175781
vt 0.499511719 0.635253906
vt 0.342041016 0.635253906
vt 0.342041016 0.676757812
vt 0.499511719 0.635253906
vt 0.342041016 0.59375
vt 0.342041016 0.635253906
vt 0.494628906 0.536132812
vt 0.337158203 0.536132812
vt 0.337158203 0.577636719
vt 0.494628906 0.536132812
vt 0.337158203 0.494628906
vt 0.337158203 0.536132812
vn 0.854492188 -0.416503906 0.311035156
vn 0.854492188 -0.416503906 0.311035156
vn 0.854492188 -0.416503906 0.311035156
vn 0.823730469 -0.416503906 -0.384277344
vn 0.823730469 -0.416503906 -0.384277344
vn 0.823730469 -0.416503906 -0.384277344
vn 0.311035156 -0.416503906 -0.854492188
vn 0.311035156 -0.416503906 -0.854492188
vn 0.311035156 -0.416503906 -0.854492188
vn -0.384277344 -0.416503906 -0.823730469
vn -0.384277344 -0.416503906 -0.823730469
vn -0.384277344 -0.416503906 -0.823730469
vn -0.854492188 -0.416503906 -0.311035156
vn -0.854492188 -0.416503906 -0.311035156
vn -0.854492188 -0.416503906 -0.311035156
vn -0.823730469 -0.416503906 0.384277344
vn -0.823730469 -0.416503906 0.384277344
vn -0.823730469 -0.416503906 0.384277344
vn -0.311035156 -0.416503906 0.854492188
vn -0.311035156 -0.416503906 0.854492188
vn -0.311035156 -0.416503906 0.854492188
vn 0.384277344 -0.416503906 0.823730469
vn 0.384277344 -0.416503906 0.823730469
vn 0.384277344 -0.416503906 0.823730469
vn 0.854492188 0.416503906 0.311035156
vn 0.854492188 0.416503906 0.311035156
vn 0.854492188 0.416503906 0.311035156
vn 0.823730469 0.416503906 -0.384277344
vn 0.823730469 0.416503906 -0.384277344
vn 0.823730469 0.416503906 -0.384277344
vn 0.311035156 0.416503906 -0.854492188
vn 0.311035156 0.416503906 -0.854492188
vn 0.311035156 0.416503906 -0.854492188
vn -0.384277344 0.416503906 -0.823730469
vn -0.384277344 0.416503906 -0.823730469
vn -0.384277344 0.416503906 -0.823730469
vn -0.854492188 0.416503906 -0.311035156
vn -0.854492188 0.416503906 -0.311035156
vn -0.854492188 0.416503906 -0.311035156
vn -0.823730469 0.416503906 0.384277344
vn -0.823730469 0.416503906 0.384277344
vn -0.823730469 0.416503906 0.384277344
vn -0.311035156 0.416503906 0.854492188
vn -0.311035156 0.416503906 0.854492188
vn -0.311035156 0.416503906 0.854492188
vn 0.384277344 0.416503906 0.823730469
vn 0.384277344 0.416503906 0.823730469
vn 0.384277344 0.416503906 0.823730469
g Crystal_Blue_0
f 3/3/3 2/2/2 1/1/1
f 6/6/6 5/5/5 4/4/4
f 9/9/9 8/8/8 7/7/7
f 12/12/12 11/11/11 10/10/10
f 15/15/15 14/14/14 13/13/13
f 18/18/18 17/17/17 16/16/16
f 21/21/21 20/20/20 19/19/19
f 24/24/24 23/23/23 22/22/22
f 27/27/27 26/26/26 25/25/25
f 30/30/30 29/29/29 28/28/28
f 33/33/33 32/32/32 31/31/31
f 36/36/36 35/35/35 34/34/34
f 39/39/39 38/38/38 37/37/37
f 42/42/42 41/41/41 40/40/40
f 45/45/45 44/44/44 43/43/43
f 48/48/48 47/47/47 46/46/46
