g Crystal
v 10.5942354 -0.389337569 10.0115309
v 14.5432634 -0.415750533 0.447687894
v 1.00361383 -23.7967129 0.416004032
v 14.5704775 -0.389337569 -0.41201815
v 10.6002016 -0.415750533 -9.96707439
v 1.00381982 -23.7967167 -0.415504247
v 10.0115404 -0.389337569 -10.5942202
v 0.447682709 -0.415750533 -14.5432644
v 0.416005462 -23.7967167 -1.00361955
v -0.412027985 -0.389337569 -14.5704746
v -9.96706676 -0.415750533 -10.6001949
v -0.415499359 -23.7967129 -1.00383413
v -10.5942106 -0.389337569 -10.0115318
v -14.5432539 -0.415750533 -0.447682709
v -1.00361884 -23.7967129 -0.416018635
v -14.5704679 -0.389337569 0.412022978
v -10.6001844 -0.415750533 9.9670763
v -1.00383246 -23.7967167 0.415489405
v -10.0115309 -0.389337569 10.5942221
v -0.447695404 -0.415750533 14.5432577
v -0.416018158 -23.7967129 1.00360715
v 0.41200766 -0.389337569 14.5704699
v 9.96709156 -0.415750533 10.600193
v 0.415494293 -23.7967205 1.00381589
v 1.00361383 23.7967205 0.416004211
v 14.5702639 0.389348954 0.419490069
v 10.5942354 0.389348954 10.0115309
v 1.00381982 23.7967205 -0.415504187
v 10.5993547 0.389348954 -10.0061045
v 14.5704775 0.389348954 -0.41201815
v 0.416005462 23.7967281 -1.00361907
v 0.419484466 0.389348954 -14.5702629
v 10.0115404 0.389348954 -10.5942202
v -0.415499359 23.7967205 -1.00383461
v -10.0060987 0.389348954 -10.5993462
v -0.412027985 0.389348954 -14.5704746
v -1.00361884 23.7967205 -0.416018337
v -14.5702543 0.389348954 -0.419485241
v -10.5942106 0.389348954 -10.0115318
v -1.00383246 23.7967205 0.415489644
v -10.5993452 0.389348954 10.0061064
v -14.5704679 0.389348954 0.412022978
v -0.416018158 23.7967205 1.00360715
v -0.419497162 0.389348954 14.5702562
v -10.0115309 0.389348954 10.5942221
v 0.415494293 23.7967281 1.00381601
v 10.0061235 0.389348954 10.5993452
v 0.41200766 0.389348954 14.5704699
v 0.416005462 -23.7967167 -1.00361955
v -0.415499359 -23.7967129 -1.00383413
v -1.00361884 -23.7967129 -0.416018635
v -1.00383246 -23.7967167 0.415489405
v 1.00381982 -23.7967167 -0.415504247
v 1.00361383 -23.7967129 0.416004032
v 14.5704775 -0.389337569 -0.41201815
v 14.5432634 -0.415750533 0.447687894
v 14.5702639 0.389348954 0.419490069
v 14.5704775 0.389348954 -0.41201815
v 1.00381982 23.7967205 -0.415504187
v 1.00361383 23.7967205 0.416004211
v 10.5942354 0.389348954 10.0115309
v 10.5942354 -0.389337569 10.0115309
v 10.0061235 0.389348954 10.5993452
v 9.96709156 -0.415750533 10.600193
v 0.415494293 -23.7967205 1.00381589
v 1.00361383 -23.7967129 0.416004032
v 0.416005462 23.7967281 -1.00361907
v -1.00361884 23.7967205 -0.416018337
v 10.0061235 0.389348954 10.5993452
v 1.00361383 23.7967205 0.416004211
v 0.415494293 23.7967281 1.00381601
v -0.416018158 23.7967205 1.00360715
v -1.00383246 23.7967205 0.415489644
v -1.00361884 -23.7967129 -0.416018635
v 1.00381982 -23.7967167 -0.415504247
v 0.416005462 -23.7967167 -1.00361955
v 10.0115404 -0.389337569 -10.5942202
v 0.416005462 -23.7967167 -1.00361955
v 10.6002016 -0.415750533 -9.96707439
v 10.5993547 0.389348954 -10.0061045
v 10.0115404 0.389348954 -10.5942202
v 14.5704775 0.389348954 -0.41201815
v 14.5704775 -0.389337569 -0.41201815
v 1.00381982 23.7967205 -0.415504187
v 0.416005462 23.7967281 -1.00361907
v 10.0115404 0.389348954 -10.5942202
v -1.00361884 23.7967205 -0.416018337
v -0.415499359 23.7967205 -1.00383461
v 0.416005462 23.7967281 -1.00361907
v 9.96709156 -0.415750533 10.600193
v 0.41200766 0.389348954 14.5704699
v 10.0061235 0.389348954 10.5993452
v 0.41200766 -0.389337569 14.5704699
v -0.419497162 0.389348954 14.5702562
v 0.415494293 23.7967281 1.00381601
v -0.416018158 23.7967205 1.00360715
v -0.447695404 -0.415750533 14.5432577
v -10.0115309 0.389348954 10.5942221
v -10.0115309 -0.389337569 10.5942221
v -0.416018158 -23.7967129 1.00360715
v 0.415494293 -23.7967205 1.00381589
v 10.0115404 0.389348954 -10.5942202
v 0.447682709 -0.415750533 -14.5432644
v 10.0115404 -0.389337569 -10.5942202
v 0.419484466 0.389348954 -14.5702629
v -0.412027985 -0.389337569 -14.5704746
v 0.416005462 -23.7967167 -1.00361955
v -0.415499359 -23.7967129 -1.00383413
v -0.412027985 0.389348954 -14.5704746
v -9.96706676 -0.415750533 -10.6001949
v -0.415499359 23.7967205 -1.00383461
v 0.416005462 23.7967281 -1.00361907
v -10.0060987 0.389348954 -10.5993462
v -1.00361884 23.7967205 -0.416018337
v -10.5942106 0.389348954 -10.0115318
v -10.5942106 -0.389337569 -10.0115318
v -10.5942106 0.389348954 -10.0115318
v -0.415499359 -23.7967129 -1.00383413
v -1.00361884 -23.7967129 -0.416018635
v -10.5942106 0.389348954 -10.0115318
v -14.5432539 -0.415750533 -0.447682709
v -10.5942106 -0.389337569 -10.0115318
v -14.5702543 0.389348954 -0.419485241
v -14.5704679 -0.389337569 0.412022978
v -1.00361884 -23.7967129 -0.416018635
v -1.00383246 -23.7967167 0.415489405
v -14.5704679 0.389348954 0.412022978
v -1.00383246 23.7967205 0.415489644
v -1.00361884 23.7967205 -0.416018337
v -14.5704679 0.389348954 0.412022978
v -10.6001844 -0.415750533 9.9670763
v -14.5704679 -0.389337569 0.412022978
v -10.5993452 0.389348954 10.0061064
v -10.0115309 -0.389337569 10.5942221
v -1.00383246 -23.7967167 0.415489405
v -0.416018158 -23.7967129 1.00360715
v -10.0115309 0.389348954 10.5942221
v -1.00383246 23.7967205 0.415489644
v -0.416018158 23.7967205 1.00360715
v -10.0115309 0.389348954 10.5942221
v -1.00383246 -23.7967167 0.415489405
v -0.416018158 -23.7967129 1.00360715
v 1.00361383 -23.7967129 0.416004032
v 0.415494293 -23.7967205 1.00381589
v 1.00381982 23.7967205 -0.415504187
v -1.00383246 23.7967205 0.415489644
v -1.00361884 23.7967205 -0.416018337
v 1.00361383 23.7967205 0.416004211
vt 0.166137695 0.546875
vt 0.165893555 0.584472656
vt 0.0233306885 0.584472656
vt 0.166137695 0.587890625
vt 0.165893555 0.625488281
vt 0.0233306885 0.587890625
vt 0.166137695 0.640625
vt 0.165893555 0.678222656
vt 0.0233306885 0.678222656
vt 0.166137695 0.681640625
vt 0.165893555 0.719238281
vt 0.0233306885 0.681640625
vt 0.339599609 0.674804688
vt 0.339599609 0.637207031
vt 0.196899414 0.637207031
vt 0.339599609 0.633789062
vt 0.339599609 0.596191406
vt 0.196899414 0.633789062
vt 0.334716797 0.575683594
vt 0.334472656 0.538085938
vt 0.191894531 0.537597656
vt 0.334716797 0.534667969
vt 0.334472656 0.497070312
vt 0.191894531 0.534667969
vt 0.313720703 0.584472656
vt 0.170898438 0.584472656
vt 0.170898438 0.546875
vt 0.313720703 0.587890625
vt 0.170898438 0.625488281
vt 0.170898438 0.587890625
vt 0.313720703 0.678222656
vt 0.170898438 0.678222656
vt 0.170898438 0.640625
vt 0.313720703 0.681640625
vt 0.170898438 0.719238281
vt 0.170898438 0.681640625
vt 0.487304688 0.637207031
vt 0.344482422 0.637207031
vt 0.344482422 0.674804688
vt 0.487304688 0.633789062
vt 0.344482422 0.596191406
vt 0.344482422 0.633789062
vt 0.482177734 0.537597656
vt 0.339355469 0.537597656
vt 0.339355469 0.575683594
vt 0.482177734 0.534667969
vt 0.339355469 0.496826172
vt 0.339355469 0.534667969
vt 0.0343322754 0.518066406
vt 0.0343017578 0.51953125
vt 0.0343017578 0.520507812
vt 0.0343017578 0.520507812
vt 0.034362793 0.517089844
vt 0.034362793 0.517089844
vt 0.0737915039 0.494873047
vt 0.0737304688 0.494873047
vt 0.0750732422 0.494873047
vt 0.0750732422 0.494873047
vt 0.113647461 0.518554688
vt 0.113647461 0.518554688
vt 0.0749511719 0.501464844
vt 0.0736694336 0.501464844
vt 0.0749511719 0.502441406
vt 0.0736083984 0.502441406
vt 0.0343322754 0.518066406
vt 0.034362793 0.517089844
vt 0.113647461 0.51953125
vt 0.113586426 0.521972656
vt 0.0749511719 0.502441406
vt 0.113647461 0.518554688
vt 0.113647461 0.51953125
vt 0.113586426 0.520996094
vt 0.113586426 0.521972656
vt 0.0343017578 0.520507812
vt 0.034362793 0.517089844
vt 0.0343322754 0.518066406
vt 0.0736083984 0.502441406
vt 0.0343322754 0.518066406
vt 0.0736083984 0.501464844
vt 0.0749511719 0.501464844
vt 0.0749511719 0.502441406
vt 0.0750732422 0.494873047
vt 0.0737915039 0.494873047
vt 0.113647461 0.518554688
vt 0.113647461 0.51953125
vt 0.0749511719 0.502441406
vt 0.113586426 0.521972656
vt 0.113586426 0.520996094
vt 0.113647461 0.51953125
vt 0.0736083984 0.502441406
vt 0.0746459961 0.518554688
vt 0.0749511719 0.502441406
vt 0.0733642578 0.518554688
vt 0.0745849609 0.520019531
vt 0.113647461 0.51953125
vt 0.113586426 0.520996094
vt 0.0732421875 0.520019531
vt 0.0743408203 0.536132812
vt 0.0729980469 0.536132812
vt 0.0343017578 0.51953125
vt 0.0343322754 0.518066406
vt 0.0749511719 0.502441406
vt 0.0733032227 0.518554688
vt 0.0736083984 0.502441406
vt 0.0746459961 0.518554688
vt 0.0733032227 0.520019531
vt 0.0343322754 0.518066406
vt 0.0343017578 0.51953125
vt 0.0745849609 0.520019531
vt 0.0729980469 0.536132812
vt 0.113586426 0.520996094
vt 0.113647461 0.51953125
vt 0.0743408203 0.536132812
vt 0.113586426 0.521972656
vt 0.0742797852 0.537109375
vt 0.0729980469 0.537109375
vt 0.0742797852 0.537109375
vt 0.0343017578 0.51953125
vt 0.0343017578 0.520507812
vt 0.0742797852 0.537109375
vt 0.0728149414 0.543945312
vt 0.0729980469 0.537109375
vt 0.0741577148 0.543945312
vt 0.0728759766 0.543945312
vt 0.0343017578 0.520507812
vt 0.0343017578 0.520507812
vt 0.0741577148 0.543945312
vt 0.113586426 0.521972656
vt 0.113586426 0.521972656
vt 0.0741577148 0.543945312
vt 0.0729370117 0.537109375
vt 0.0728759766 0.543945312
vt 0.0742797852 0.537109375
vt 0.0729980469 0.536132812
vt 0.0343017578 0.520507812
vt 0.0343017578 0.51953125
vt 0.0743408203 0.536132812
vt 0.113586426 0.521972656
vt 0.113586426 0.520996094
vt 0.0743408203 0.536132812
vt 0.0343017578 0.520507812
vt 0.0343017578 0.51953125
vt 0.034362793 0.517089844
vt 0.0343322754 0.518066406
vt 0.113647461 0.518554688
vt 0.113586426 0.521972656
vt 0.113586426 0.521972656
vt 0.113647461 0.518554688
vn 0.80078125 -0.455810547 0.388183594
vn 0.840820312 -0.455566406 0.291992188
vn 0.769042969 -0.551757812 0.322265625
vn 0.840820312 -0.455810547 -0.291748047
vn 0.801269531 -0.455566406 -0.387939453
vn 0.771972656 -0.551757812 -0.316162109
vn 0.388183594 -0.455810547 -0.80078125
vn 0.291992188 -0.455566406 -0.840820312
vn 0.322265625 -0.551757812 -0.769042969
vn -0.291748047 -0.455810547 -0.840820312
vn -0.387939453 -0.455566406 -0.801269531
vn -0.316162109 -0.551757812 -0.771972656
vn -0.80078125 -0.455810547 -0.388183594
vn -0.840820312 -0.455566406 -0.291992188
vn -0.769042969 -0.551757812 -0.322265625
vn -0.840820312 -0.455810547 0.291748047
vn -0.801269531 -0.455566406 0.387939453
vn -0.771972656 -0.551757812 0.316162109
vn -0.388183594 -0.455810547 0.80078125
vn -0.291992188 -0.455566406 0.840820312
vn -0.322265625 -0.551757812 0.769042969
vn 0.291748047 -0.455810547 0.840820312
vn 0.387939453 -0.455566406 0.801269531
vn 0.316162109 -0.551757812 0.771972656
vn 0.770507812 0.551757812 0.319335938
vn 0.840820312 0.455566406 0.292724609
vn 0.801757812 0.455078125 0.387939453
vn 0.770507812 0.551757812 -0.318847656
vn 0.801269531 0.455566406 -0.387451172
vn 0.841308594 0.455078125 -0.292480469
vn 0.319335938 0.551757812 -0.770507812
vn 0.292724609 0.455566406 -0.840820312
vn 0.387939453 0.455078125 -0.801757812
vn -0.318847656 0.551757812 -0.770507812
vn -0.387451172 0.455566406 -0.801269531
vn -0.292480469 0.455078125 -0.841308594
vn -0.770507812 0.551757812 -0.319335938
vn -0.840820312 0.455566406 -0.292724609
vn -0.801757812 0.455078125 -0.387939453
vn -0.770507812 0.551757812 0.318847656
vn -0.801269531 0.455566406 0.387451172
vn -0.841308594 0.455078125 0.292480469
vn -0.319335938 0.551757812 0.770507812
vn -0.292724609 0.455566406 0.840820312
vn -0.387939453 0.455078125 0.801757812
vn 0.318847656 0.551757812 0.770507812
vn 0.387451172 0.455566406 0.801269531
vn 0.292480469 0.455078125 0.841308594
vn 0.322265625 -0.551757812 -0.769042969
vn -0.316162109 -0.551757812 -0.771972656
vn -0.769042969 -0.551757812 -0.322265625
vn -0.771972656 -0.551757812 0.316162109
vn 0.771972656 -0.551757812 -0.316162109
vn 0.769042969 -0.551757812 0.322265625
vn 0.840820312 -0.455810547 -0.291748047
vn 0.840820312 -0.455566406 0.291992188
vn 0.840820312 0.455566406 0.292724609
vn 0.841308594 0.455078125 -0.292480469
vn 0.770507812 0.551757812 -0.318847656
vn 0.770507812 0.551757812 0.319335938
vn 0.801757812 0.455078125 0.387939453
vn 0.80078125 -0.455810547 0.388183594
vn 0.387451172 0.455566406 0.801269531
vn 0.387939453 -0.455566406 0.801269531
vn 0.316162109 -0.551757812 0.771972656
vn 0.769042969 -0.551757812 0.322265625
vn 0.319335938 0.551757812 -0.770507812
vn -0.770507812 0.551757812 -0.319335938
vn 0.387451172 0.455566406 0.801269531
vn 0.770507812 0.551757812 0.319335938
vn 0.318847656 0.551757812 0.770507812
vn -0.319335938 0.551757812 0.770507812
vn -0.770507812 0.551757812 0.318847656
vn -0.769042969 -0.551757812 -0.322265625
vn 0.771972656 -0.551757812 -0.316162109
vn 0.322265625 -0.551757812 -0.769042969
vn 0.388183594 -0.455810547 -0.80078125
vn 0.322265625 -0.551757812 -0.769042969
vn 0.801269531 -0.455566406 -0.387939453
vn 0.801269531 0.455566406 -0.387451172
vn 0.387939453 0.455078125 -0.801757812
vn 0.841308594 0.455078125 -0.292480469
vn 0.840820312 -0.455810547 -0.291748047
vn 0.770507812 0.551757812 -0.318847656
vn 0.319335938 0.551757812 -0.770507812
vn 0.387939453 0.455078125 -0.801757812
vn -0.770507812 0.551757812 -0.319335938
vn -0.318847656 0.551757812 -0.770507812
vn 0.319335938 0.551757812 -0.770507812
vn 0.387939453 -0.455566406 0.801269531
vn 0.292480469 0.455078125 0.841308594
vn 0.387451172 0.455566406 0.801269531
vn 0.291748047 -0.455810547 0.840820312
vn -0.292724609 0.455566406 0.840820312
vn 0.318847656 0.551757812 0.770507812
vn -0.319335938 0.551757812 0.770507812
vn -0.291992188 -0.455566406 0.840820312
vn -0.387939453 0.455078125 0.801757812
vn -0.388183594 -0.455810547 0.80078125
vn -0.322265625 -0.551757812 0.769042969
vn 0.316162109 -0.551757812 0.771972656
vn 0.387939453 0.455078125 -0.801757812
vn 0.291992188 -0.455566406 -0.840820312
vn 0.388183594 -0.455810547 -0.80078125
vn 0.292724609 0.455566406 -0.840820312
vn -0.291748047 -0.455810547 -0.840820312
vn 0.322265625 -0.551757812 -0.769042969
vn -0.316162109 -0.551757812 -0.771972656
vn -0.292480469 0.455078125 -0.841308594
vn -0.387939453 -0.455566406 -0.801269531
vn -0.318847656 0.551757812 -0.770507812
vn 0.319335938 0.551757812 -0.770507812
vn -0.387451172 0.455566406 -0.801269531
vn -0.770507812 0.551757812 -0.319335938
vn -0.801757812 0.455078125 -0.387939453
vn -0.80078125 -0.455810547 -0.388183594
vn -0.801757812 0.455078125 -0.387939453
vn -0.316162109 -0.551757812 -0.771972656
vn -0.769042969 -0.551757812 -0.322265625
vn -0.801757812 0.455078125 -0.387939453
vn -0.840820312 -0.455566406 -0.291992188
vn -0.80078125 -0.455810547 -0.388183594
vn -0.840820312 0.455566406 -0.292724609
vn -0.840820312 -0.455810547 0.291748047
vn -0.769042969 -0.551757812 -0.322265625
vn -0.771972656 -0.551757812 0.316162109
vn -0.841308594 0.455078125 0.292480469
vn -0.770507812 0.551757812 0.318847656
vn -0.770507812 0.551757812 -0.319335938
vn -0.841308594 0.455078125 0.292480469
vn -0.801269531 -0.455566406 0.387939453
vn -0.840820312 -0.455810547 0.291748047
vn -0.801269531 0.455566406 0.387451172
vn -0.388183594 -0.455810547 0.80078125
vn -0.771972656 -0.551757812 0.316162109
vn -0.322265625 -0.551757812 0.769042969
vn -0.387939453 0.455078125 0.801757812
vn -0.770507812 0.551757812 0.318847656
vn -0.319335938 0.551757812 0.770507812
vn -0.387939453 0.455078125 0.801757812
vn -0.771972656 -0.551757812 0.316162109
vn -0.322265625 -0.551757812 0.769042969
vn 0.769042969 -0.551757812 0.322265625
vn 0.316162109 -0.551757812 0.771972656
vn 0.770507812 0.551757812 -0.318847656
vn -0.770507812 0.551757812 0.318847656
vn -0.770507812 0.551757812 -0.319335938
vn 0.770507812 0.551757812 0.319335938
g Crystal_0
f 3/3/3 2/2/2 1/1/1
f 6/6/6 5/5/5 4/4/4
f 9/9/9 8/8/8 7/7/7
f 12/12/12 11/11/11 10/10/10
f 15/15/15 14/14/14 13/13/13
f 18/18/18 17/17/17 16/16/16
f 21/21/21 20/20/20 19/19/19
f 24/24/24 23/23/23 22/22/22
f 27/27/27 26/26/26 25/25/25
f 30/30/30 29/29/29 28/28/28
f 33/33/33 32/32/32 31/31/31
f 36/36/36 35/35/35 34/34/34
f 39/39/39 38/38/38 37/37/37
f 42/42/42 41/41/41 40/40/40
f 45/45/45 44/44/44 43/43/43
f 48/48/48 47/47/47 46/46/46
f 51/51/51 50/50/50 49/49/49
f 53/53/53 52/52/52 51/51/51
f 53/53/53 54/54/54 52/52/52
f 54/54/54 53/53/53 55/55/55
f 56/56/56 54/54/54 55/55/55
f 56/56/56 55/55/55 57/57/57
f 55/55/55 58/58/58 57/57/57
f 58/58/58 59/59/59 57/57/57
f 59/59/59 60/60/60 57/57/57
f 56/56/56 57/57/57 61/61/61
f 62/62/62 56/56/56 61/61/61
f 62/62/62 61/61/61 63/63/63
f 64/64/64 62/62/62 63/63/63
f 64/64/64 65/65/65 62/62/62
f 65/65/65 66/66/66 62/62/62
f 68/68/68 59/59/59 67/67/67
f 61/61/61 70/70/70 69/69/69
f 70/70/70 71/71/71 69/69/69
f 72/72/72 71/71/71 70/70/70
f 73/73/73 72/72/72 70/70/70
f 76/76/76 75/75/75 74/74/74
f 75/75/75 78/78/78 77/77/77
f 79/79/79 75/75/75 77/77/77
f 79/79/79 77/77/77 80/80/80
f 77/77/77 81/81/81 80/80/80
f 79/79/79 80/80/80 82/82/82
f 83/83/83 79/79/79 82/82/82
f 85/85/85 84/84/84 80/80/80
f 86/86/86 85/85/85 80/80/80
f 89/89/89 88/88/88 87/87/87
f 92/92/92 91/91/91 90/90/90
f 91/91/91 93/93/93 90/90/90
f 93/93/93 91/91/91 94/94/94
f 91/91/91 95/95/95 94/94/94
f 95/95/95 96/96/96 94/94/94
f 97/97/97 93/93/93 94/94/94
f 97/97/97 94/94/94 98/98/98
f 99/99/99 97/97/97 98/98/98
f 97/97/97 100/100/100 93/93/93
f 100/100/100 101/101/101 93/93/93
f 104/104/104 103/103/103 102/102/102
f 103/103/103 105/105/105 102/102/102
f 103/103/103 106/106/106 105/105/105
f 103/103/103 107/107/107 106/106/106
f 107/107/107 108/108/108 106/106/106
f 106/106/106 109/109/109 105/105/105
f 106/106/106 110/110/110 109/109/109
f 109/109/109 111/111/111 105/105/105
f 111/111/111 112/112/112 105/105/105
f 110/110/110 113/113/113 109/109/109
f 114/114/114 111/111/111 113/113/113
f 115/115/115 114/114/114 113/113/113
f 110/110/110 116/116/116 113/113/113
f 116/116/116 117/117/117 113/113/113
f 110/110/110 118/118/118 116/116/116
f 118/118/118 119/119/119 116/116/116
f 122/122/122 121/121/121 120/120/120
f 121/121/121 123/123/123 120/120/120
f 121/121/121 124/124/124 123/123/123
f 121/121/121 125/125/125 124/124/124
f 125/125/125 126/126/126 124/124/124
f 124/124/124 127/127/127 123/123/123
f 127/127/127 128/128/128 123/123/123
f 128/128/128 129/129/129 123/123/123
f 132/132/132 131/131/131 130/130/130
f 131/131/131 133/133/133 130/130/130
f 131/131/131 134/134/134 133/133/133
f 131/131/131 135/135/135 134/134/134
f 135/135/135 136/136/136 134/134/134
f 134/134/134 137/137/137 133/133/133
f 139/139/139 138/138/138 133/133/133
f 140/140/140 139/139/139 133/133/133
f 143/143/143 142/142/142 141/141/141
f 143/143/143 144/144/144 142/142/142
f 147/147/147 146/146/146 145/145/145
f 146/146/146 148/148/148 145/145/145
