g cylinder_07
v 0.970150232 0.9293859 -0.239055157
v 1 0.775539756 2.77555756E-17
v 1 0.9293859 2.77555756E-17
v 0.970150232 0.775539756 -0.239055157
v 0.884523392 0.9293859 -0.464283794
v 0.970150232 0.621693611 -0.239055157
v 1 0.621693611 2.77555756E-17
v 0.884523392 0.775539756 -0.464283794
v 0.748421252 0.9293859 -0.663087904
v 0.970150232 0.467847466 -0.239055157
v 1 0.467847466 -2.77555756E-17
v 0.884523392 0.621693611 -0.464283794
v 0.748421252 0.775539756 -0.663087904
v 0.567795455 0.9293859 -0.822472811
v 0.884523392 0.467847466 -0.464283794
v 0.970150232 0.314001322 -0.239055157
v 1 0.314001322 -2.77555756E-17
v 0.748421252 0.621693611 -0.663087904
v 0.567795455 0.775539756 -0.822472811
v 0.354186565 0.9293859 -0.933957994
v 0.748421252 0.467847466 -0.663087904
v 0.748421252 0.314001322 -0.663087904
v 0.567795455 0.621693611 -0.822472811
v 0.567795455 0.467847466 -0.822472811
v 0.354186565 0.775539756 -0.933957994
v 0.120442145 0.9293859 -0.992412269
v 0.354186565 0.621693611 -0.933957994
v 0.120442145 0.775539756 -0.992412269
v -0.120442145 0.9293859 -0.992412269
v 0.884523392 0.314001322 -0.464283794
v 0.884523392 0.160155177 -0.464283794
v 0.354186565 0.467847466 -0.933957994
v 0.120442145 0.621693611 -0.992412269
v -0.120442145 0.775539756 -0.992412269
v -0.354186565 0.9293859 -0.933957994
v 0.120442145 0.467847466 -0.992412269
v 0.354186565 0.314001322 -0.933957994
v -0.120442145 0.621693611 -0.992412269
v -0.354186565 0.775539756 -0.933957994
v -0.567795455 0.9293859 -0.822472811
v -0.120442145 0.467847466 -0.992412269
v -0.354186565 0.621693611 -0.933957994
v -0.567795455 0.775539756 -0.822472811
v -0.748421252 0.9293859 -0.663087904
v 0.567795455 0.314001322 -0.822472811
v 0.120442145 0.314001322 -0.992412269
v -0.354186565 0.467847466 -0.933957994
v -0.567795455 0.621693611 -0.822472811
v -0.748421252 0.775539756 -0.663087904
v -0.884523392 0.9293859 -0.464283794
v -0.567795455 0.467847466 -0.822472811
v -0.354186565 0.314001322 -0.933957994
v -0.748421252 0.621693611 -0.663087904
v -0.884523392 0.775539756 -0.464283794
v -0.970150232 0.9293859 -0.239055157
v -0.748421252 0.467847466 -0.663087904
v -0.884523392 0.621693611 -0.464283794
v -0.970150232 0.775539756 -0.239055157
v -1 0.9293859 1.88450114E-15
v -0.120442145 0.314001322 -0.992412269
v -0.567795455 0.314001322 -0.822472811
v -0.884523392 0.467847466 -0.464283794
v -0.884523392 0.314001322 -0.464283794
v -0.970150232 0.621693611 -0.239055157
v -0.970150232 0.467847466 -0.239055157
v -0.748421252 0.314001322 -0.663087904
v -0.748421252 0.160155177 -0.663087904
v -0.567795455 0.160155177 -0.822472811
v -0.354186565 0.160155177 -0.933957994
v -0.120442145 0.160155177 -0.992412269
v -0.354186565 0 -0.933957994
v -0.567795455 0 -0.822472811
v -0.748421252 0 -0.663087904
v -0.120442145 0 -0.992412269
v -0.884523392 0 -0.464283794
v 0.120442145 0.160155177 -0.992412269
v 0.120442145 0 -0.992412269
v 0.354186565 0 -0.933957994
v -0.884523392 0.160155177 -0.464283794
v -0.970150232 0 -0.239055157
v 0.354186565 0.160155177 -0.933957994
v -0.970150232 0.160155177 -0.239055157
v -1 0 1.82898998E-15
v 0.567795455 0.160155177 -0.822472811
v 0.567795455 0 -0.822472811
v 0.748421252 0.160155177 -0.663087904
v 0.748421252 0 -0.663087904
v 0.884523392 0 -0.464283794
v 0.970150232 0 -0.239055157
v -0.970150232 0.314001322 -0.239055157
v 0.970150232 0.160155177 -0.239055157
v 1 0.160155177 -8.32667268E-17
v 1 0 -2.77555756E-17
v -1 0.160155177 1.82898998E-15
v -0.970150232 0 0.239055157
v -1 0.467847466 1.82898998E-15
v -1 0.314001322 1.88450114E-15
v -0.970150232 0.160155177 0.239055157
v -0.884523392 0.160155177 0.464283794
v -0.884523392 0 0.464283794
v -0.748421252 0 0.663087904
v -0.970150232 0.314001322 0.239055157
v -1 0.621693611 1.88450114E-15
v -0.748421252 0.160155177 0.663087904
v -0.748421252 0.314001322 0.663087904
v -0.567795455 0 0.822472811
v -0.567795455 0.160155177 0.822472811
v -0.354186565 0 0.933957994
v -0.884523392 0.314001322 0.464283794
v -0.970150232 0.467847466 0.239055157
v -0.884523392 0.467847466 0.464283794
v -1 0.775539756 1.88450114E-15
v -0.970150232 0.9293859 0.239055157
v -0.970150232 0.621693611 0.239055157
v -0.970150232 0.775539756 0.239055157
v -0.884523392 0.9293859 0.464283794
v -0.884523392 0.621693611 0.464283794
v -0.884523392 0.775539756 0.464283794
v -0.748421252 0.9293859 0.663087904
v -0.748421252 0.467847466 0.663087904
v -0.748421252 0.775539756 0.663087904
v -0.567795455 0.9293859 0.822472811
v -0.748421252 0.621693611 0.663087904
v -0.567795455 0.467847466 0.822472811
v -0.567795455 0.775539756 0.822472811
v -0.354186565 0.9293859 0.933957994
v -0.567795455 0.621693611 0.822472811
v -0.354186565 0.775539756 0.933957994
v -0.120442145 0.9293859 0.992412269
v -0.354186565 0.621693611 0.933957994
v -0.120442145 0.775539756 0.992412269
v 0.120442145 0.9293859 0.992412269
v -0.567795455 0.314001322 0.822472811
v -0.354186565 0.467847466 0.933957994
v -0.120442145 0.621693611 0.992412269
v 0.120442145 0.775539756 0.992412269
v 0.354186565 0.9293859 0.933957994
v -0.354186565 0.160155177 0.933957994
v -0.354186565 0.314001322 0.933957994
v -0.120442145 0.467847466 0.992412269
v -0.120442145 0.160155177 0.992412269
v -0.120442145 0 0.992412269
v 0.120442145 0 0.992412269
v -0.120442145 0.314001322 0.992412269
v 0.120442145 0.160155177 0.992412269
v 0.354186565 0 0.933957994
v 0.120442145 0.467847466 0.992412269
v 0.354186565 0.160155177 0.933957994
v 0.567795455 0 0.822472811
v 0.120442145 0.314001322 0.992412269
v 0.354186565 0.314001322 0.933957994
v 0.120442145 0.621693611 0.992412269
v 0.567795455 0.160155177 0.822472811
v 0.748421252 0 0.663087904
v 0.354186565 0.467847466 0.933957994
v 0.354186565 0.621693611 0.933957994
v 0.567795455 0.314001322 0.822472811
v 0.567795455 0.467847466 0.822472811
v 0.748421252 0.467847466 0.663087904
v 0.748421252 0.160155177 0.663087904
v 0.884523392 0 0.464283794
v 0.748421252 0.314001322 0.663087904
v 0.354186565 0.775539756 0.933957994
v 0.567795455 0.9293859 0.822472811
v 0.567795455 0.621693611 0.822472811
v 0.567795455 0.775539756 0.822472811
v 0.748421252 0.9293859 0.663087904
v 0.884523392 0.160155177 0.464283794
v 0.970150232 0 0.239055157
v 0.884523392 0.314001322 0.464283794
v 0.748421252 0.621693611 0.663087904
v 0.748421252 0.775539756 0.663087904
v 0.884523392 0.9293859 0.464283794
v 0.970150232 0.160155177 0.239055157
v 1 0 -2.77555756E-17
v 1 0.160155177 -8.32667268E-17
v 0.970150232 0.314001322 0.239055157
v 1 0.314001322 -2.77555756E-17
v 0.884523392 0.621693611 0.464283794
v 0.884523392 0.775539756 0.464283794
v 0.970150232 0.9293859 0.239055157
v 0.884523392 0.467847466 0.464283794
v 0.970150232 0.467847466 0.239055157
v 1 0.467847466 -2.77555756E-17
v 0.970150232 0.621693611 0.239055157
v 1 0.621693611 2.77555756E-17
v 0.970150232 0.775539756 0.239055157
v 1 0.775539756 2.77555756E-17
v 1 0.9293859 2.77555756E-17
vt 0.0384897888 0.999587417
vt 0 0.833787382
vt 0 0.999587417
vt 0.0384897888 0.833787382
vt 0.076903373 0.999587417
vt 0.0384897888 0.667987704
vt 0 0.667987704
vt 0.076903373 0.833787382
vt 0.115369111 0.999587417
vt 0.0384898186 0.502187788
vt 0 0.502187788
vt 0.076903373 0.667987704
vt 0.115369111 0.833787382
vt 0.15387705 0.999587417
vt 0.0769034028 0.502187788
vt 0.0384898186 0.336388081
vt 0 0.336388081
vt 0.115369111 0.667987704
vt 0.15387705 0.833787382
vt 0.192300647 0.999587417
vt 0.115369141 0.502187788
vt 0.115369141 0.336388081
vt 0.15387705 0.667987704
vt 0.153877079 0.502187788
vt 0.192300647 0.833787501
vt 0.230742663 0.999587417
vt 0.192300647 0.667987704
vt 0.230742663 0.833787501
vt 0.269257307 0.999587417
vt 0.0769034028 0.336388081
vt 0.0769034028 0.170588285
vt 0.192300677 0.502187908
vt 0.230742663 0.667987704
vt 0.269257307 0.833787501
vt 0.307699323 0.999587417
vt 0.230742693 0.502187908
vt 0.192300677 0.336388081
vt 0.269257307 0.667987704
vt 0.307699323 0.833787501
vt 0.346122921 0.999587417
vt 0.269257307 0.502187908
vt 0.307699323 0.667987704
vt 0.346122921 0.833787501
vt 0.384630829 0.999587417
vt 0.153877079 0.336388081
vt 0.230742693 0.336388081
vt 0.307699323 0.502187908
vt 0.346122921 0.667987704
vt 0.384630859 0.833787501
vt 0.423096567 0.999587417
vt 0.346122921 0.502187908
vt 0.307699323 0.336388081
vt 0.384630859 0.667987704
vt 0.423096597 0.833787501
vt 0.461510152 0.999587417
vt 0.384630859 0.502187908
vt 0.423096597 0.667987704
vt 0.461510152 0.833787501
vt 0.49999997 0.999587417
vt 0.269257307 0.336388081
vt 0.346122921 0.336388081
vt 0.423096597 0.502187908
vt 0.423096597 0.336388081
vt 0.461510181 0.667987704
vt 0.461510181 0.502187908
vt 0.384630859 0.336388081
vt 0.384630859 0.170588285
vt 0.346122921 0.170588285
vt 0.307699323 0.170588285
vt 0.269257307 0.170588285
vt 0.307699323 0.00478842854
vt 0.346122921 0.00478842854
vt 0.384630859 0.00478842854
vt 0.269257307 0.00478842854
vt 0.423096597 0.00478842854
vt 0.230742693 0.170588285
vt 0.230742693 0.00478842854
vt 0.192300677 0.00478842854
vt 0.423096597 0.170588285
vt 0.461510181 0.00478842854
vt 0.192300677 0.170588285
vt 0.461510181 0.170588285
vt 0.5 0.00478842854
vt 0.153877079 0.170588285
vt 0.153877079 0.00478842854
vt 0.115369141 0.170588285
vt 0.115369141 0.00478842854
vt 0.0769034028 0.00478842854
vt 0.0384898186 0.00478842854
vt 0.461510181 0.336388081
vt 0.0384898186 0.170588285
vt 0 0.170588285
vt 0 0.00478842854
vt 0.5 0.170588285
vt 0.538489819 0.00478842854
vt 0.5 0.502187908
vt 0.5 0.336388081
vt 0.538489819 0.170588285
vt 0.576903403 0.170588285
vt 0.576903403 0.00478842854
vt 0.615369141 0.00478842854
vt 0.538489819 0.336388081
vt 0.49999997 0.667987704
vt 0.615369141 0.170588285
vt 0.615369141 0.336388081
vt 0.653877079 0.00478842854
vt 0.653877079 0.170588285
vt 0.692300677 0.00478842854
vt 0.576903403 0.336388081
vt 0.538489819 0.502187908
vt 0.576903403 0.502187908
vt 0.49999997 0.833787501
vt 0.538489819 0.999587417
vt 0.538489819 0.667987704
vt 0.538489819 0.833787501
vt 0.576903403 0.999587417
vt 0.576903403 0.667987704
vt 0.576903403 0.833787501
vt 0.615369141 0.999587417
vt 0.615369141 0.502187908
vt 0.615369141 0.833787501
vt 0.653877079 0.999587417
vt 0.615369141 0.667987704
vt 0.653877079 0.502187908
vt 0.653877079 0.833787501
vt 0.692300677 0.999587417
vt 0.653877079 0.667987704
vt 0.692300677 0.833787501
vt 0.730742693 0.999587417
vt 0.692300677 0.667987704
vt 0.730742693 0.833787501
vt 0.769257307 0.999587417
vt 0.653877079 0.336388081
vt 0.692300677 0.502187908
vt 0.730742693 0.667987704
vt 0.769257307 0.833787501
vt 0.807699323 0.999587417
vt 0.692300677 0.170588285
vt 0.692300677 0.336388081
vt 0.730742693 0.502187908
vt 0.730742693 0.170588285
vt 0.730742693 0.00478842854
vt 0.769257307 0.00478842854
vt 0.730742693 0.336388081
vt 0.769257307 0.170588285
vt 0.807699323 0.00478842854
vt 0.769257307 0.502187908
vt 0.807699323 0.170588285
vt 0.846122921 0.00478842854
vt 0.769257307 0.336388081
vt 0.807699323 0.336388081
vt 0.769257307 0.667987704
vt 0.846122921 0.170588285
vt 0.884630859 0.00478842854
vt 0.807699323 0.502187908
vt 0.807699323 0.667987704
vt 0.846122921 0.336388081
vt 0.846122921 0.502188027
vt 0.884630859 0.502188027
vt 0.884630859 0.170588285
vt 0.923096597 0.00478842854
vt 0.884630859 0.336388081
vt 0.807699323 0.833787501
vt 0.846122861 0.999587417
vt 0.846122861 0.667987704
vt 0.846122861 0.83378762
vt 0.884630799 0.999587417
vt 0.923096597 0.170588285
vt 0.961510181 0.00478842854
vt 0.923096597 0.336388081
vt 0.884630799 0.667987704
vt 0.884630799 0.83378762
vt 0.923096538 0.999587417
vt 0.961510181 0.170588285
vt 1 0.00478842854
vt 1 0.170588285
vt 0.961510181 0.336388081
vt 1 0.336388081
vt 0.923096538 0.667987704
vt 0.923096538 0.83378762
vt 0.961510122 0.999587417
vt 0.923096597 0.502188027
vt 0.961510181 0.502188027
vt 1 0.502188027
vt 0.961510122 0.667987704
vt 1 0.667987704
vt 0.961510122 0.83378762
vt 1 0.83378762
vt 1 0.999587417
vn 0.97043407 0 -0.241366312
vn 1 0 0
vn 1 0 0
vn 0.97043407 0 -0.241366267
vn 0.886160612 0 -0.463378191
vn 0.97043407 0 -0.241366237
vn 1 0 0
vn 0.886160672 0 -0.463378161
vn 0.749132991 0 -0.662419558
vn 0.97043407 0 -0.241366267
vn 1 0 0
vn 0.886160672 0 -0.463378102
vn 0.74913317 0 -0.662419498
vn 0.566292644 0 -0.824204326
vn 0.886160672 0 -0.463378042
vn 0.97043407 0 -0.241366237
vn 1 0 0
vn 0.74913317 0 -0.662419498
vn 0.566292703 0 -0.824204147
vn 0.355117798 0 -0.934821546
vn 0.74913317 0 -0.662419498
vn 0.74913317 0 -0.662419438
vn 0.566292703 0 -0.824204147
vn 0.566292703 0 -0.824204206
vn 0.355117798 0 -0.934821546
vn 0.122234426 0 -0.992501318
vn 0.355117798 0 -0.934821546
vn 0.122234449 0 -0.992501318
vn -0.122234426 0 -0.992501318
vn 0.886160672 0 -0.463378042
vn 0.886160672 0 -0.463378161
vn 0.355117768 0 -0.934821546
vn 0.122234449 0 -0.992501318
vn -0.122234449 0 -0.992501318
vn -0.355117798 0 -0.934821546
vn 0.122234449 0 -0.992501318
vn 0.355117738 0 -0.934821665
vn -0.122234456 0 -0.992501318
vn -0.355117798 0 -0.934821546
vn -0.566292644 0 -0.824204326
vn -0.122234456 0 -0.992501318
vn -0.355117798 0 -0.934821546
vn -0.566292703 0 -0.824204206
vn -0.749132991 0 -0.662419558
vn 0.566292703 0 -0.824204206
vn 0.122234456 0 -0.992501318
vn -0.355117738 0 -0.934821665
vn -0.566292703 0 -0.824204147
vn -0.74913317 0 -0.662419498
vn -0.886160612 0 -0.463378191
vn -0.566292703 0 -0.824204206
vn -0.355117738 0 -0.934821665
vn -0.74913317 0 -0.662419498
vn -0.886160672 0 -0.463378161
vn -0.97043407 0 -0.241366312
vn -0.74913317 0 -0.662419438
vn -0.886160672 0 -0.463378102
vn -0.97043407 0 -0.241366267
vn -1 0 0
vn -0.122234441 0 -0.992501318
vn -0.566292703 0 -0.824204206
vn -0.886160672 0 -0.463378102
vn -0.886160672 0 -0.463378042
vn -0.97043407 0 -0.241366237
vn -0.97043407 0 -0.241366237
vn -0.74913317 0 -0.662419438
vn -0.74913317 0 -0.662419498
vn -0.566292703 0 -0.824204147
vn -0.355117708 0 -0.934821665
vn -0.122234344 0 -0.992501318
vn -0.355117589 0 -0.934821665
vn -0.566292822 0 -0.824204087
vn -0.749133229 0 -0.662419438
vn -0.12223424 0 -0.992501318
vn -0.886160672 0 -0.463378161
vn 0.122234344 0 -0.992501318
vn 0.12223424 0 -0.992501318
vn 0.355117589 0 -0.934821665
vn -0.886160672 0 -0.463378161
vn -0.97043407 0 -0.241366252
vn 0.355117679 0 -0.934821665
vn -0.97043407 0 -0.241366237
vn -1 0 0
vn 0.566292703 0 -0.824204147
vn 0.566292822 0 -0.824204087
vn 0.74913317 0 -0.662419498
vn 0.749133229 0 -0.662419438
vn 0.886160672 0 -0.463378161
vn 0.97043407 0 -0.241366252
vn -0.97043407 0 -0.241366237
vn 0.97043407 0 -0.241366237
vn 1 0 0
vn 1 0 0
vn -1 0 0
vn -0.97043407 0 0.241366252
vn -1 0 0
vn -1 0 0
vn -0.97043407 0 0.241366237
vn -0.886160672 0 0.463378161
vn -0.886160672 0 0.463378161
vn -0.749133229 0 0.662419438
vn -0.97043407 0 0.241366237
vn -1 0 0
vn -0.74913317 0 0.662419498
vn -0.74913317 0 0.662419438
vn -0.566292822 0 0.824204087
vn -0.566292703 0 0.824204147
vn -0.355117589 0 0.934821665
vn -0.886160672 0 0.463378042
vn -0.97043407 0 0.241366267
vn -0.886160672 0 0.463378042
vn -1 0 0
vn -0.97043407 0 0.241366312
vn -0.97043407 0 0.241366237
vn -0.97043407 0 0.241366267
vn -0.886160612 0 0.463378191
vn -0.886160672 0 0.463378102
vn -0.886160672 0 0.463378161
vn -0.749132991 0 0.662419558
vn -0.74913317 0 0.662419498
vn -0.74913317 0 0.662419498
vn -0.566292644 0 0.824204326
vn -0.74913317 0 0.662419498
vn -0.566292703 0 0.824204206
vn -0.566292703 0 0.824204147
vn -0.355117798 0 0.934821546
vn -0.566292703 0 0.824204147
vn -0.355117798 0 0.934821546
vn -0.122234426 0 0.992501318
vn -0.355117798 0 0.934821546
vn -0.122234449 0 0.992501318
vn 0.122234426 0 0.992501318
vn -0.566292703 0 0.824204206
vn -0.355117768 0 0.934821546
vn -0.122234449 0 0.992501318
vn 0.122234449 0 0.992501318
vn 0.355117798 0 0.934821546
vn -0.355117679 0 0.934821665
vn -0.355117738 0 0.934821665
vn -0.122234449 0 0.992501318
vn -0.122234344 0 0.992501318
vn -0.12223424 0 0.992501318
vn 0.12223424 0 0.992501318
vn -0.122234456 0 0.992501318
vn 0.122234344 0 0.992501318
vn 0.355117589 0 0.934821665
vn 0.122234456 0 0.992501318
vn 0.355117708 0 0.934821665
vn 0.566292822 0 0.824204087
vn 0.122234441 0 0.992501318
vn 0.355117738 0 0.934821665
vn 0.122234456 0 0.992501318
vn 0.566292703 0 0.824204147
vn 0.749133229 0 0.662419438
vn 0.355117738 0 0.934821665
vn 0.355117798 0 0.934821546
vn 0.566292703 0 0.824204206
vn 0.566292703 0 0.824204206
vn 0.74913317 0 0.662419438
vn 0.74913317 0 0.662419498
vn 0.886160672 0 0.463378161
vn 0.74913317 0 0.662419438
vn 0.355117798 0 0.934821546
vn 0.566292644 0 0.824204326
vn 0.566292703 0 0.824204147
vn 0.566292703 0 0.824204206
vn 0.749132991 0 0.662419558
vn 0.886160672 0 0.463378161
vn 0.97043407 0 0.241366252
vn 0.886160672 0 0.463378042
vn 0.74913317 0 0.662419498
vn 0.74913317 0 0.662419498
vn 0.886160612 0 0.463378191
vn 0.97043407 0 0.241366237
vn 1 0 0
vn 1 0 0
vn 0.97043407 0 0.241366237
vn 1 0 0
vn 0.886160672 0 0.463378102
vn 0.886160672 0 0.463378161
vn 0.97043407 0 0.241366312
vn 0.886160672 0 0.463378102
vn 0.97043407 0 0.241366237
vn 1 0 0
vn 0.97043407 0 0.241366237
vn 1 0 0
vn 0.97043407 0 0.241366267
vn 1 0 0
vn 1 0 0
g cylinder_07_0
f 3/3/3 2/2/2 1/1/1
f 2/2/2 4/4/4 1/1/1
f 1/1/1 4/4/4 5/5/5
f 6/6/6 4/4/4 2/2/2
f 7/7/7 6/6/6 2/2/2
f 4/4/4 8/8/8 5/5/5
f 5/5/5 8/8/8 9/9/9
f 10/10/10 6/6/6 7/7/7
f 11/11/11 10/10/10 7/7/7
f 6/6/6 12/12/12 4/4/4
f 12/12/12 8/8/8 4/4/4
f 8/8/8 13/13/13 9/9/9
f 9/9/9 13/13/13 14/14/14
f 6/6/6 10/10/10 15/15/15
f 12/12/12 6/6/6 15/15/15
f 16/16/16 10/10/10 11/11/11
f 15/15/15 10/10/10 16/16/16
f 17/17/17 16/16/16 11/11/11
f 12/12/12 18/18/18 8/8/8
f 18/18/18 13/13/13 8/8/8
f 13/13/13 19/19/19 14/14/14
f 14/14/14 19/19/19 20/20/20
f 15/15/15 21/21/21 12/12/12
f 21/21/21 18/18/18 12/12/12
f 22/22/22 21/21/21 15/15/15
f 18/18/18 23/23/23 13/13/13
f 23/23/23 19/19/19 13/13/13
f 18/18/18 21/21/21 24/24/24
f 24/24/24 21/21/21 22/22/22
f 23/23/23 18/18/18 24/24/24
f 19/19/19 25/25/25 20/20/20
f 20/20/20 25/25/25 26/26/26
f 23/23/23 27/27/27 19/19/19
f 27/27/27 25/25/25 19/19/19
f 25/25/25 28/28/28 26/26/26
f 26/26/26 28/28/28 29/29/29
f 30/30/30 22/22/22 15/15/15
f 30/30/30 31/31/31 22/22/22
f 30/30/30 15/15/15 16/16/16
f 30/30/30 16/16/16 31/31/31
f 24/24/24 32/32/32 23/23/23
f 32/32/32 27/27/27 23/23/23
f 27/27/27 33/33/33 25/25/25
f 33/33/33 28/28/28 25/25/25
f 28/28/28 34/34/34 29/29/29
f 29/29/29 34/34/34 35/35/35
f 27/27/27 32/32/32 36/36/36
f 33/33/33 27/27/27 36/36/36
f 37/37/37 32/32/32 24/24/24
f 36/36/36 32/32/32 37/37/37
f 33/33/33 38/38/38 28/28/28
f 38/38/38 34/34/34 28/28/28
f 34/34/34 39/39/39 35/35/35
f 35/35/35 39/39/39 40/40/40
f 33/33/33 36/36/36 41/41/41
f 38/38/38 33/33/33 41/41/41
f 38/38/38 42/42/42 34/34/34
f 42/42/42 39/39/39 34/34/34
f 39/39/39 43/43/43 40/40/40
f 40/40/40 43/43/43 44/44/44
f 45/45/45 37/37/37 24/24/24
f 45/45/45 24/24/24 22/22/22
f 41/41/41 36/36/36 46/46/46
f 46/46/46 36/36/36 37/37/37
f 47/47/47 42/42/42 38/38/38
f 41/41/41 47/47/47 38/38/38
f 42/42/42 48/48/48 39/39/39
f 48/48/48 43/43/43 39/39/39
f 43/43/43 49/49/49 44/44/44
f 44/44/44 49/49/49 50/50/50
f 42/42/42 47/47/47 51/51/51
f 48/48/48 42/42/42 51/51/51
f 52/52/52 47/47/47 41/41/41
f 51/51/51 47/47/47 52/52/52
f 48/48/48 53/53/53 43/43/43
f 53/53/53 49/49/49 43/43/43
f 49/49/49 54/54/54 50/50/50
f 50/50/50 54/54/54 55/55/55
f 48/48/48 51/51/51 56/56/56
f 53/53/53 48/48/48 56/56/56
f 53/53/53 57/57/57 49/49/49
f 57/57/57 54/54/54 49/49/49
f 54/54/54 58/58/58 55/55/55
f 55/55/55 58/58/58 59/59/59
f 60/60/60 52/52/52 41/41/41
f 60/60/60 41/41/41 46/46/46
f 56/56/56 51/51/51 61/61/61
f 61/61/61 51/51/51 52/52/52
f 62/62/62 57/57/57 53/53/53
f 56/56/56 62/62/62 53/53/53
f 63/63/63 62/62/62 56/56/56
f 57/57/57 64/64/64 54/54/54
f 64/64/64 58/58/58 54/54/54
f 57/57/57 62/62/62 65/65/65
f 65/65/65 62/62/62 63/63/63
f 64/64/64 57/57/57 65/65/65
f 66/66/66 56/56/56 61/61/61
f 66/66/66 63/63/63 56/56/56
f 66/66/66 61/61/61 67/67/67
f 66/66/66 67/67/67 63/63/63
f 61/61/61 52/52/52 68/68/68
f 61/61/61 68/68/68 67/67/67
f 69/69/69 52/52/52 60/60/60
f 52/52/52 69/69/69 68/68/68
f 70/70/70 69/69/69 60/60/60
f 60/60/60 46/46/46 70/70/70
f 68/68/68 69/69/69 71/71/71
f 71/71/71 69/69/69 70/70/70
f 72/72/72 68/68/68 71/71/71
f 68/68/68 72/72/72 73/73/73
f 67/67/67 68/68/68 73/73/73
f 74/74/74 71/71/71 70/70/70
f 73/73/73 75/75/75 67/67/67
f 46/46/46 76/76/76 70/70/70
f 70/70/70 76/76/76 74/74/74
f 76/76/76 77/77/77 74/74/74
f 46/46/46 37/37/37 76/76/76
f 77/77/77 76/76/76 78/78/78
f 75/75/75 79/79/79 67/67/67
f 79/79/79 75/75/75 80/80/80
f 67/67/67 79/79/79 63/63/63
f 37/37/37 81/81/81 76/76/76
f 76/76/76 81/81/81 78/78/78
f 81/81/81 37/37/37 45/45/45
f 82/82/82 79/79/79 80/80/80
f 63/63/63 79/79/79 82/82/82
f 82/82/82 80/80/80 83/83/83
f 78/78/78 81/81/81 84/84/84
f 84/84/84 81/81/81 45/45/45
f 85/85/85 78/78/78 84/84/84
f 45/45/45 22/22/22 84/84/84
f 84/84/84 86/86/86 85/85/85
f 22/22/22 86/86/86 84/84/84
f 86/86/86 87/87/87 85/85/85
f 31/31/31 86/86/86 22/22/22
f 87/87/87 86/86/86 31/31/31
f 88/88/88 87/87/87 31/31/31
f 88/88/88 31/31/31 89/89/89
f 90/90/90 63/63/63 82/82/82
f 90/90/90 65/65/65 63/63/63
f 31/31/31 91/91/91 89/89/89
f 16/16/16 91/91/91 31/31/31
f 91/91/91 16/16/16 17/17/17
f 92/92/92 91/91/91 17/17/17
f 89/89/89 91/91/91 92/92/92
f 93/93/93 89/89/89 92/92/92
f 90/90/90 82/82/82 94/94/94
f 94/94/94 82/82/82 83/83/83
f 83/83/83 95/95/95 94/94/94
f 96/96/96 65/65/65 90/90/90
f 64/64/64 65/65/65 96/96/96
f 97/97/97 90/90/90 94/94/94
f 97/97/97 96/96/96 90/90/90
f 95/95/95 98/98/98 94/94/94
f 94/94/94 98/98/98 97/97/97
f 99/99/99 98/98/98 95/95/95
f 100/100/100 99/99/99 95/95/95
f 100/100/100 101/101/101 99/99/99
f 98/98/98 102/102/102 97/97/97
f 97/97/97 102/102/102 96/96/96
f 102/102/102 98/98/98 99/99/99
f 103/103/103 64/64/64 96/96/96
f 64/64/64 103/103/103 58/58/58
f 101/101/101 104/104/104 99/99/99
f 99/99/99 104/104/104 105/105/105
f 104/104/104 101/101/101 106/106/106
f 107/107/107 104/104/104 106/106/106
f 105/105/105 104/104/104 107/107/107
f 106/106/106 108/108/108 107/107/107
f 109/109/109 102/102/102 99/99/99
f 109/109/109 99/99/99 105/105/105
f 102/102/102 110/110/110 96/96/96
f 96/96/96 110/110/110 103/103/103
f 109/109/109 111/111/111 102/102/102
f 111/111/111 110/110/110 102/102/102
f 109/109/109 105/105/105 111/111/111
f 103/103/103 112/112/112 58/58/58
f 58/58/58 112/112/112 59/59/59
f 59/59/59 112/112/112 113/113/113
f 110/110/110 114/114/114 103/103/103
f 103/103/103 114/114/114 112/112/112
f 114/114/114 110/110/110 111/111/111
f 112/112/112 115/115/115 113/113/113
f 114/114/114 115/115/115 112/112/112
f 113/113/113 115/115/115 116/116/116
f 117/117/117 114/114/114 111/111/111
f 114/114/114 117/117/117 115/115/115
f 115/115/115 118/118/118 116/116/116
f 117/117/117 118/118/118 115/115/115
f 116/116/116 118/118/118 119/119/119
f 111/111/111 120/120/120 117/117/117
f 105/105/105 120/120/120 111/111/111
f 118/118/118 121/121/121 119/119/119
f 119/119/119 121/121/121 122/122/122
f 117/117/117 123/123/123 118/118/118
f 120/120/120 123/123/123 117/117/117
f 123/123/123 121/121/121 118/118/118
f 124/124/124 120/120/120 105/105/105
f 123/123/123 120/120/120 124/124/124
f 121/121/121 125/125/125 122/122/122
f 122/122/122 125/125/125 126/126/126
f 123/123/123 127/127/127 121/121/121
f 127/127/127 123/123/123 124/124/124
f 127/127/127 125/125/125 121/121/121
f 125/125/125 128/128/128 126/126/126
f 126/126/126 128/128/128 129/129/129
f 127/127/127 130/130/130 125/125/125
f 130/130/130 128/128/128 125/125/125
f 128/128/128 131/131/131 129/129/129
f 129/129/129 131/131/131 132/132/132
f 133/133/133 124/124/124 105/105/105
f 133/133/133 105/105/105 107/107/107
f 124/124/124 134/134/134 127/127/127
f 134/134/134 130/130/130 127/127/127
f 130/130/130 135/135/135 128/128/128
f 135/135/135 131/131/131 128/128/128
f 131/131/131 136/136/136 132/132/132
f 132/132/132 136/136/136 137/137/137
f 107/107/107 138/138/138 133/133/133
f 108/108/108 138/138/138 107/107/107
f 133/133/133 139/139/139 124/124/124
f 139/139/139 134/134/134 124/124/124
f 138/138/138 139/139/139 133/133/133
f 130/130/130 134/134/134 140/140/140
f 135/135/135 130/130/130 140/140/140
f 140/140/140 134/134/134 139/139/139
f 141/141/141 138/138/138 108/108/108
f 139/139/139 138/138/138 141/141/141
f 142/142/142 141/141/141 108/108/108
f 141/141/141 142/142/142 143/143/143
f 144/144/144 140/140/140 139/139/139
f 144/144/144 139/139/139 141/141/141
f 145/145/145 141/141/141 143/143/143
f 144/144/144 141/141/141 145/145/145
f 143/143/143 146/146/146 145/145/145
f 135/135/135 140/140/140 147/147/147
f 147/147/147 140/140/140 144/144/144
f 146/146/146 148/148/148 145/145/145
f 146/146/146 149/149/149 148/148/148
f 150/150/150 144/144/144 145/145/145
f 150/150/150 147/147/147 144/144/144
f 150/150/150 145/145/145 151/151/151
f 145/145/145 148/148/148 151/151/151
f 150/150/150 151/151/151 147/147/147
f 152/152/152 135/135/135 147/147/147
f 135/135/135 152/152/152 131/131/131
f 152/152/152 136/136/136 131/131/131
f 149/149/149 153/153/153 148/148/148
f 149/149/149 154/154/154 153/153/153
f 147/147/147 155/155/155 152/152/152
f 151/151/151 155/155/155 147/147/147
f 152/152/152 156/156/156 136/136/136
f 155/155/155 156/156/156 152/152/152
f 151/151/151 148/148/148 157/157/157
f 148/148/148 153/153/153 157/157/157
f 158/158/158 155/155/155 151/151/151
f 156/156/156 155/155/155 158/158/158
f 157/157/157 158/158/158 151/151/151
f 159/159/159 158/158/158 157/157/157
f 154/154/154 160/160/160 153/153/153
f 154/154/154 161/161/161 160/160/160
f 157/157/157 153/153/153 162/162/162
f 162/162/162 159/159/159 157/157/157
f 153/153/153 160/160/160 162/162/162
f 156/156/156 163/163/163 136/136/136
f 136/136/136 163/163/163 137/137/137
f 137/137/137 163/163/163 164/164/164
f 165/165/165 156/156/156 158/158/158
f 156/156/156 165/165/165 163/163/163
f 165/165/165 158/158/158 159/159/159
f 163/163/163 166/166/166 164/164/164
f 165/165/165 166/166/166 163/163/163
f 164/164/164 166/166/166 167/167/167
f 161/161/161 168/168/168 160/160/160
f 161/161/161 169/169/169 168/168/168
f 162/162/162 160/160/160 170/170/170
f 162/162/162 170/170/170 159/159/159
f 160/160/160 168/168/168 170/170/170
f 165/165/165 171/171/171 166/166/166
f 171/171/171 165/165/165 159/159/159
f 166/166/166 172/172/172 167/167/167
f 171/171/171 172/172/172 166/166/166
f 167/167/167 172/172/172 173/173/173
f 169/169/169 174/174/174 168/168/168
f 174/174/174 169/169/169 175/175/175
f 176/176/176 174/174/174 175/175/175
f 168/168/168 174/174/174 177/177/177
f 177/177/177 174/174/174 176/176/176
f 170/170/170 168/168/168 177/177/177
f 178/178/178 177/177/177 176/176/176
f 171/171/171 159/159/159 179/179/179
f 171/171/171 179/179/179 172/172/172
f 172/172/172 180/180/180 173/173/173
f 179/179/179 180/180/180 172/172/172
f 173/173/173 180/180/180 181/181/181
f 170/170/170 182/182/182 159/159/159
f 170/170/170 177/177/177 182/182/182
f 159/159/159 182/182/182 179/179/179
f 183/183/183 177/177/177 178/178/178
f 177/177/177 183/183/183 182/182/182
f 184/184/184 183/183/183 178/178/178
f 179/179/179 182/182/182 185/185/185
f 182/182/182 183/183/183 185/185/185
f 185/185/185 183/183/183 184/184/184
f 179/179/179 185/185/185 180/180/180
f 186/186/186 185/185/185 184/184/184
f 185/185/185 187/187/187 180/180/180
f 187/187/187 185/185/185 186/186/186
f 180/180/180 187/187/187 181/181/181
f 188/188/188 187/187/187 186/186/186
f 181/181/181 187/187/187 188/188/188
f 189/189/189 181/181/181 188/188/188
