g cylinder_06
v 4.94562487E-17 -0.00839631725 -0.770453811
v 0.152514696 0.100000001 -0.986313879
v 2.77555756E-17 0.100000001 -0.9984653
v 0.117711142 -0.00839631725 -0.761075258
v 0.0837158486 -0.0911603421 -0.541092515
v 2.90477078E-17 -0.0911603421 -0.547762513
v 0.165420368 -0.0911603421 -0.521643758
v 0.232594222 -0.00839631725 -0.733728945
v 0.301365137 0.100000001 -0.950882018
v 0.243312299 -0.0911603421 -0.490225613
v 0.443269819 0.100000001 -0.893643856
v 0.342116535 -0.00839631725 -0.689552426
v 0.315657079 -0.0911603421 -0.447561771
v 0.575068474 0.100000001 -0.815918207
v 0.443838924 -0.00839631725 -0.62956357
v 0.380628139 -0.0911603421 -0.394347578
v 0.535193503 -0.00839631725 -0.554740131
v 0.693433702 0.100000001 -0.718971848
v 0.436359763 -0.0911603421 -0.331525207
v 0.79496628 0.100000001 -0.604521096
v 0.613556504 -0.00839631725 -0.466406941
v 0.481728196 -0.0911603421 -0.260846466
v 0.877619147 0.100000001 -0.475757539
v 0.677348137 -0.00839631725 -0.367026925
v 0.516022682 -0.0911603421 -0.184177369
v 0.72556895 -0.00839631725 -0.259224147
v 0.940097392 0.100000001 -0.336080819
v 0.538536429 -0.0911603421 -0.103262827
v 0.981113315 0.100000001 -0.188669488
v 0.757225156 -0.00839631725 -0.145451814
v 0.548480034 -0.0911603421 -0.0198705383
v 0.999228776 0.100000001 -0.0367442593
v 0.771206617 -0.00839631725 -0.0281956326
v 0.545132041 -0.0911603421 0.0640419424
v 0.766498864 -0.00839631725 0.0897920132
v 0.993129134 0.100000001 0.116128713
v 0.528799415 -0.0911603421 0.146424711
v 0.963374138 0.100000001 0.266214818
v 0.743533969 -0.00839631725 0.205628753
v 0.500302315 -0.0911603421 0.225431979
v 0.703464985 -0.00839631725 0.316719323
v 0.911457896 0.100000001 0.410151422
v 0.46038565 -0.0911603421 0.299329042
v 0.838737071 0.100000001 0.54477793
v 0.647338867 -0.00839631725 0.420624316
v 0.409740001 -0.0911603421 0.366323829
v 0.746470213 0.100000001 0.666830182
v 0.576127172 -0.00839631725 0.51482451
v 0.34918502 -0.0911603421 0.424509048
v 0.490981996 -0.00839631725 0.596637368
v 0.636150301 0.100000001 0.772832751
v 0.280288577 -0.0911603421 0.472538441
v 0.510633767 0.100000001 0.860333622
v 0.394108117 -0.00839631725 0.664170861
v 0.204950809 -0.0911603421 0.509665728
v 0.288177162 -0.00839631725 0.716374397
v 0.3733823 0.100000001 0.927972198
v 0.124935754 -0.0911603421 0.535194933
v 0.227609739 0.100000001 0.974482
v 0.175669611 -0.00839631725 0.752270758
v 0.0419892371 -0.0911603421 0.548359632
v 0.0764965862 0.100000001 0.9984653
v 0.0590402111 -0.00839631725 0.7707811
v -0.0419892371 -0.0911603421 0.548359632
v -0.0590402111 -0.00839631725 0.7707811
v -0.0764965862 0.100000001 0.9984653
v -0.124935754 -0.0911603421 0.535194933
v -0.227609739 0.100000001 0.974482
v -0.175669611 -0.00839631725 0.752270758
v -0.204950809 -0.0911603421 0.509665728
v -0.288177162 -0.00839631725 0.716374397
v -0.3733823 0.100000001 0.927972198
v -0.280288577 -0.0911603421 0.472538441
v -0.510633767 0.100000001 0.860333622
v -0.394108117 -0.00839631725 0.664170861
v -0.34918502 -0.0911603421 0.424509048
v -0.636150301 0.100000001 0.772832751
v -0.490981996 -0.00839631725 0.596637368
v -0.409740001 -0.0911603421 0.366323829
v -0.576127172 -0.00839631725 0.51482451
v -0.746470213 0.100000001 0.666830182
v -0.46038565 -0.0911603421 0.299329042
v -0.838737071 0.100000001 0.54477793
v -0.647338867 -0.00839631725 0.420624316
v -0.500302315 -0.0911603421 0.225431979
v -0.703464985 -0.00839631725 0.316719323
v -0.911457896 0.100000001 0.410151422
v -0.528799415 -0.0911603421 0.146424711
v -0.963374138 0.100000001 0.266214818
v -0.743533969 -0.00839631725 0.205628753
v -0.545132041 -0.0911603421 0.0640419424
v -0.993129134 0.100000001 0.116128713
v -0.766498864 -0.00839631725 0.0897920132
v -0.548480034 -0.0911603421 -0.0198705383
v -0.771206617 -0.00839631725 -0.0281956326
v -0.999228776 0.100000001 -0.0367442593
v -0.538536429 -0.0911603421 -0.103262827
v -0.981113315 0.100000001 -0.188669488
v -0.757225156 -0.00839631725 -0.145451814
v -0.516022682 -0.0911603421 -0.184177369
v -0.72556895 -0.00839631725 -0.259224147
v -0.940097392 0.100000001 -0.336080819
v -0.481728196 -0.0911603421 -0.260846466
v -0.877619147 0.100000001 -0.475757539
v -0.677348137 -0.00839631725 -0.367026925
v -0.436359763 -0.0911603421 -0.331525207
v -0.79496628 0.100000001 -0.604521096
v -0.613556504 -0.00839631725 -0.466406941
v -0.380628139 -0.0911603421 -0.394347578
v -0.535193503 -0.00839631725 -0.554740131
v -0.693433702 0.100000001 -0.718971848
v -0.315657079 -0.0911603421 -0.447561771
v -0.575068474 0.100000001 -0.815918207
v -0.443838924 -0.00839631725 -0.62956357
v -0.243312299 -0.0911603421 -0.490225613
v -0.342116535 -0.00839631725 -0.689552426
v -0.443269819 0.100000001 -0.893643856
v -0.165420368 -0.0911603421 -0.521643758
v -0.301365137 0.100000001 -0.950882018
v -0.232594222 -0.00839631725 -0.733728945
v -0.0837158486 -0.0911603421 -0.541092515
v -0.152514696 0.100000001 -0.986313879
v -0.117711142 -0.00839631725 -0.761075258
v 2.90477078E-17 -0.0911603421 -0.547762513
v 4.94562487E-17 -0.00839631725 -0.770453811
v 2.77555756E-17 0.100000001 -0.9984653
vt 1 0.5
vt 0.975580215 1
vt 1 1
vt 0.975580215 0.5
vt 0.975580215 0
vt 1 0
vt 0.951200783 0
vt 0.951200783 0.5
vt 0.951200783 1
vt 0.926844239 0
vt 0.926844239 1
vt 0.926844239 0.5
vt 0.902469516 0
vt 0.902469516 1
vt 0.902469516 0.5
vt 0.878053904 0
vt 0.878053904 0.5
vt 0.878053904 1
vt 0.853630662 0
vt 0.853630662 1
vt 0.853630662 0.5
vt 0.829246223 0
vt 0.829246223 1
vt 0.829246223 0.5
vt 0.804888964 0
vt 0.804888964 0.5
vt 0.804888964 1
vt 0.780518532 0
vt 0.780518532 1
vt 0.780518532 0.5
vt 0.756107628 0
vt 0.756107628 1
vt 0.756107628 0.5
vt 0.731681824 0
vt 0.731681824 0.5
vt 0.731681824 1
vt 0.70729208 0
vt 0.70729208 1
vt 0.70729208 0.5
vt 0.68293345 0
vt 0.68293345 0.5
vt 0.68293345 1
vt 0.658566892 0
vt 0.658566892 1
vt 0.658566892 0.5
vt 0.634160995 0
vt 0.634160995 1
vt 0.634160995 0.5
vt 0.609733641 0
vt 0.609733641 0.5
vt 0.609733641 1
vt 0.585338473 0
vt 0.585338473 1
vt 0.585338473 0.5
vt 0.560977817 0
vt 0.560977817 0.5
vt 0.560977817 1
vt 0.536614537 0
vt 0.536614537 1
vt 0.536614537 0.5
vt 0.512213945 0
vt 0.512213945 1
vt 0.512213945 0.5
vt 0.487786055 0
vt 0.487786055 0.5
vt 0.487786055 1
vt 0.463385493 0
vt 0.463385493 1
vt 0.463385493 0.5
vt 0.439022154 0
vt 0.439022154 0.5
vt 0.439022154 1
vt 0.414661527 0
vt 0.414661527 1
vt 0.414661527 0.5
vt 0.390266389 0
vt 0.390266389 1
vt 0.390266389 0.5
vt 0.365839005 0
vt 0.365839005 0.5
vt 0.365839005 1
vt 0.341433138 0
vt 0.341433138 1
vt 0.341433138 0.5
vt 0.31706652 0
vt 0.31706652 0.5
vt 0.31706652 1
vt 0.29270792 0
vt 0.29270792 1
vt 0.29270792 0.5
vt 0.268318206 0
vt 0.268318206 1
vt 0.268318206 0.5
vt 0.243892401 0
vt 0.243892401 0.5
vt 0.243892401 1
vt 0.219481438 0
vt 0.219481438 1
vt 0.219481438 0.5
vt 0.195111021 0
vt 0.195111021 0.5
vt 0.195111021 1
vt 0.170753807 0
vt 0.170753807 1
vt 0.170753807 0.5
vt 0.146369338 0
vt 0.146369338 1
vt 0.146369338 0.5
vt 0.121946111 0
vt 0.121946111 0.5
vt 0.121946111 1
vt 0.0975304618 0
vt 0.0975304618 1
vt 0.0975304618 0.5
vt 0.0731557459 0
vt 0.0731557459 0.5
vt 0.0731557459 1
vt 0.0487992205 0
vt 0.0487992205 1
vt 0.0487992205 0.5
vt 0.0244197994 0
vt 0.0244197994 1
vt 0.0244197994 0.5
vt 0 0
vt 0 0.5
vt 0 1
vn -0 -0.729581892 -0.683893442
vn 0.106372081 -0.730796456 -0.674256265
vn -0 -0.730950654 -0.682430387
vn 0.106690958 -0.72942555 -0.675688863
vn 0.107040852 -0.727769017 -0.677417517
vn -0 -0.727924228 -0.68565768
vn 0.208375171 -0.727566898 -0.653625309
vn 0.207797647 -0.729222357 -0.65196234
vn 0.207300618 -0.730595231 -0.650582135
vn 0.303377718 -0.727552414 -0.61532867
vn 0.30202195 -0.730580807 -0.612400472
vn 0.302631676 -0.729207873 -0.613734484
vn 0.392575175 -0.727739215 -0.562387943
vn 0.390868902 -0.730767071 -0.559643686
vn 0.39163059 -0.729395688 -0.560898721
vn 0.475177497 -0.727920771 -0.494305283
vn 0.473964363 -0.729578376 -0.493024647
vn 0.472961545 -0.730947137 -0.491958946
vn 0.546758294 -0.727798343 -0.413962513
vn 0.544090092 -0.730825543 -0.412140697
vn 0.545309842 -0.729454994 -0.412955821
vn 0.603495181 -0.727584541 -0.326212138
vn 0.600600898 -0.730612993 -0.324781835
vn 0.601921201 -0.729240179 -0.325422257
vn 0.645397186 -0.727541447 -0.232692748
vn 0.643750608 -0.729196846 -0.232071355
vn 0.642381847 -0.730570078 -0.231544629
vn 0.672865868 -0.727709889 -0.133003563
vn 0.669733405 -0.730737805 -0.132209405
vn 0.671152771 -0.729366243 -0.13258557
vn 0.685138404 -0.727910995 -0.0270366315
vn 0.6819157 -0.73093766 -0.026853554
vn 0.68337667 -0.72956872 -0.0269417893
vn 0.68100059 -0.727826357 0.0806654915
vn 0.679257691 -0.729483306 0.0803930908
vn 0.677812874 -0.730853498 0.0801424235
vn 0.660953283 -0.727605045 0.183661744
vn 0.657880783 -0.730633318 0.182668477
vn 0.659273565 -0.729260743 0.18313165
vn 0.626251698 -0.727533937 0.280184209
vn 0.624638915 -0.729189396 0.27948007
vn 0.623292685 -0.730562627 0.278898656
vn 0.577041745 -0.7276811 0.370813996
vn 0.57423687 -0.730709076 0.369210422
vn 0.575519085 -0.729337096 0.369925737
vn 0.512659371 -0.727895617 0.455355227
vn 0.510191977 -0.730922341 0.453273237
vn 0.511315882 -0.729553163 0.454211652
vn 0.434920311 -0.727852583 0.530164957
vn 0.433846414 -0.729509771 0.52876538
vn 0.432971448 -0.730879605 0.5275895
vn 0.348691136 -0.72762841 0.590737998
vn 0.347179115 -0.730656385 0.587884247
vn 0.347854316 -0.729284108 0.589187622
vn 0.256625384 -0.72753036 0.636272609
vn 0.255962551 -0.729185581 0.63464278
vn 0.255408406 -0.730558693 0.633285522
vn 0.158541217 -0.727653742 0.667371392
vn 0.157640174 -0.730681956 0.66426909
vn 0.158063754 -0.729309797 0.665674925
vn 0.0539621376 -0.727875829 0.683582366
vn 0.0536023229 -0.730902791 0.680373311
vn 0.0537753664 -0.729533255 0.681828022
vn -0.0539621376 -0.727875829 0.683582366
vn -0.0537753664 -0.729533255 0.681828022
vn -0.0536023229 -0.730902791 0.680373371
vn -0.158541203 -0.727653742 0.667371452
vn -0.157640174 -0.730681956 0.66426909
vn -0.158063754 -0.729309738 0.665674984
vn -0.256625354 -0.72753036 0.636272609
vn -0.255962521 -0.729185581 0.63464278
vn -0.255408436 -0.730558693 0.633285463
vn -0.348691165 -0.727628529 0.590737939
vn -0.347179145 -0.730656445 0.587884247
vn -0.347854286 -0.729284167 0.589187622
vn -0.434920251 -0.727852643 0.530164957
vn -0.432971388 -0.730879664 0.5275895
vn -0.433846354 -0.72950983 0.528765321
vn -0.512659371 -0.727895617 0.455355227
vn -0.511315882 -0.729553223 0.454211593
vn -0.510191858 -0.730922401 0.453273177
vn -0.577041745 -0.7276811 0.370813996
vn -0.57423681 -0.730709076 0.369210422
vn -0.575519025 -0.729337156 0.369925708
vn -0.626251638 -0.727533996 0.280184209
vn -0.624638796 -0.729189396 0.27948001
vn -0.623292685 -0.730562627 0.278898627
vn -0.660953343 -0.727605045 0.183661729
vn -0.657880843 -0.730633318 0.182668492
vn -0.659273505 -0.729260802 0.183131665
vn -0.681000531 -0.727826416 0.0806654915
vn -0.677812815 -0.730853617 0.0801424086
vn -0.679257572 -0.729483366 0.0803930759
vn -0.685138345 -0.727910995 -0.0270366371
vn -0.68337661 -0.72956872 -0.0269417968
vn -0.681915581 -0.730937779 -0.0268535577
vn -0.672865927 -0.72770983 -0.133003578
vn -0.669733405 -0.730737805 -0.132209405
vn -0.67115283 -0.729366124 -0.13258557
vn -0.645397246 -0.727541447 -0.232692793
vn -0.643750608 -0.729196846 -0.2320714
vn -0.642381907 -0.730570018 -0.231544599
vn -0.603495181 -0.727584541 -0.326212108
vn -0.600600898 -0.730612993 -0.324781805
vn -0.601921201 -0.729240179 -0.325422257
vn -0.546758294 -0.727798343 -0.413962513
vn -0.544089973 -0.730825603 -0.412140638
vn -0.545309782 -0.729455113 -0.412955791
vn -0.475177407 -0.727920771 -0.494305253
vn -0.473964274 -0.729578376 -0.493024588
vn -0.472961545 -0.730947196 -0.491958976
vn -0.392575234 -0.727739155 -0.562388062
vn -0.390868932 -0.730767012 -0.559643805
vn -0.39163053 -0.729395628 -0.560898781
vn -0.303377777 -0.727552414 -0.615328729
vn -0.302631646 -0.729207873 -0.613734484
vn -0.30202195 -0.730580807 -0.612400472
vn -0.208375186 -0.727567017 -0.653625369
vn -0.207300618 -0.730595231 -0.650582135
vn -0.207797647 -0.729222357 -0.65196234
vn -0.107040845 -0.727769017 -0.677417457
vn -0.106372081 -0.730796456 -0.674256265
vn -0.106690951 -0.72942555 -0.675688863
vn -0 -0.727924228 -0.68565768
vn -0 -0.729581892 -0.683893442
vn -0 -0.730950654 -0.682430387
g cylinder_06_0
f 3/3/3 2/2/2 1/1/1
f 2/2/2 4/4/4 1/1/1
f 1/1/1 4/4/4 5/5/5
f 6/6/6 1/1/1 5/5/5
f 5/5/5 4/4/4 7/7/7
f 8/8/8 4/4/4 2/2/2
f 4/4/4 8/8/8 7/7/7
f 9/9/9 8/8/8 2/2/2
f 7/7/7 8/8/8 10/10/10
f 9/9/9 11/11/11 8/8/8
f 8/8/8 12/12/12 10/10/10
f 11/11/11 12/12/12 8/8/8
f 10/10/10 12/12/12 13/13/13
f 11/11/11 14/14/14 12/12/12
f 12/12/12 15/15/15 13/13/13
f 14/14/14 15/15/15 12/12/12
f 13/13/13 15/15/15 16/16/16
f 17/17/17 15/15/15 14/14/14
f 15/15/15 17/17/17 16/16/16
f 18/18/18 17/17/17 14/14/14
f 16/16/16 17/17/17 19/19/19
f 18/18/18 20/20/20 17/17/17
f 17/17/17 21/21/21 19/19/19
f 20/20/20 21/21/21 17/17/17
f 19/19/19 21/21/21 22/22/22
f 20/20/20 23/23/23 21/21/21
f 21/21/21 24/24/24 22/22/22
f 23/23/23 24/24/24 21/21/21
f 22/22/22 24/24/24 25/25/25
f 26/26/26 24/24/24 23/23/23
f 24/24/24 26/26/26 25/25/25
f 27/27/27 26/26/26 23/23/23
f 25/25/25 26/26/26 28/28/28
f 27/27/27 29/29/29 26/26/26
f 26/26/26 30/30/30 28/28/28
f 29/29/29 30/30/30 26/26/26
f 28/28/28 30/30/30 31/31/31
f 29/29/29 32/32/32 30/30/30
f 30/30/30 33/33/33 31/31/31
f 32/32/32 33/33/33 30/30/30
f 31/31/31 33/33/33 34/34/34
f 35/35/35 33/33/33 32/32/32
f 33/33/33 35/35/35 34/34/34
f 36/36/36 35/35/35 32/32/32
f 34/34/34 35/35/35 37/37/37
f 36/36/36 38/38/38 35/35/35
f 35/35/35 39/39/39 37/37/37
f 38/38/38 39/39/39 35/35/35
f 37/37/37 39/39/39 40/40/40
f 41/41/41 39/39/39 38/38/38
f 39/39/39 41/41/41 40/40/40
f 42/42/42 41/41/41 38/38/38
f 40/40/40 41/41/41 43/43/43
f 42/42/42 44/44/44 41/41/41
f 41/41/41 45/45/45 43/43/43
f 44/44/44 45/45/45 41/41/41
f 43/43/43 45/45/45 46/46/46
f 44/44/44 47/47/47 45/45/45
f 45/45/45 48/48/48 46/46/46
f 47/47/47 48/48/48 45/45/45
f 46/46/46 48/48/48 49/49/49
f 50/50/50 48/48/48 47/47/47
f 48/48/48 50/50/50 49/49/49
f 51/51/51 50/50/50 47/47/47
f 49/49/49 50/50/50 52/52/52
f 51/51/51 53/53/53 50/50/50
f 50/50/50 54/54/54 52/52/52
f 53/53/53 54/54/54 50/50/50
f 52/52/52 54/54/54 55/55/55
f 56/56/56 54/54/54 53/53/53
f 54/54/54 56/56/56 55/55/55
f 57/57/57 56/56/56 53/53/53
f 55/55/55 56/56/56 58/58/58
f 57/57/57 59/59/59 56/56/56
f 56/56/56 60/60/60 58/58/58
f 59/59/59 60/60/60 56/56/56
f 58/58/58 60/60/60 61/61/61
f 59/59/59 62/62/62 60/60/60
f 60/60/60 63/63/63 61/61/61
f 62/62/62 63/63/63 60/60/60
f 61/61/61 63/63/63 64/64/64
f 65/65/65 63/63/63 62/62/62
f 63/63/63 65/65/65 64/64/64
f 66/66/66 65/65/65 62/62/62
f 64/64/64 65/65/65 67/67/67
f 66/66/66 68/68/68 65/65/65
f 65/65/65 69/69/69 67/67/67
f 68/68/68 69/69/69 65/65/65
f 67/67/67 69/69/69 70/70/70
f 71/71/71 69/69/69 68/68/68
f 69/69/69 71/71/71 70/70/70
f 72/72/72 71/71/71 68/68/68
f 70/70/70 71/71/71 73/73/73
f 72/72/72 74/74/74 71/71/71
f 71/71/71 75/75/75 73/73/73
f 74/74/74 75/75/75 71/71/71
f 73/73/73 75/75/75 76/76/76
f 74/74/74 77/77/77 75/75/75
f 75/75/75 78/78/78 76/76/76
f 77/77/77 78/78/78 75/75/75
f 76/76/76 78/78/78 79/79/79
f 80/80/80 78/78/78 77/77/77
f 78/78/78 80/80/80 79/79/79
f 81/81/81 80/80/80 77/77/77
f 79/79/79 80/80/80 82/82/82
f 81/81/81 83/83/83 80/80/80
f 80/80/80 84/84/84 82/82/82
f 83/83/83 84/84/84 80/80/80
f 82/82/82 84/84/84 85/85/85
f 86/86/86 84/84/84 83/83/83
f 84/84/84 86/86/86 85/85/85
f 87/87/87 86/86/86 83/83/83
f 85/85/85 86/86/86 88/88/88
f 87/87/87 89/89/89 86/86/86
f 86/86/86 90/90/90 88/88/88
f 89/89/89 90/90/90 86/86/86
f 88/88/88 90/90/90 91/91/91
f 89/89/89 92/92/92 90/90/90
f 90/90/90 93/93/93 91/91/91
f 92/92/92 93/93/93 90/90/90
f 91/91/91 93/93/93 94/94/94
f 95/95/95 93/93/93 92/92/92
f 93/93/93 95/95/95 94/94/94
f 96/96/96 95/95/95 92/92/92
f 94/94/94 95/95/95 97/97/97
f 96/96/96 98/98/98 95/95/95
f 95/95/95 99/99/99 97/97/97
f 98/98/98 99/99/99 95/95/95
f 97/97/97 99/99/99 100/100/100
f 101/101/101 99/99/99 98/98/98
f 99/99/99 101/101/101 100/100/100
f 102/102/102 101/101/101 98/98/98
f 100/100/100 101/101/101 103/103/103
f 102/102/102 104/104/104 101/101/101
f 101/101/101 105/105/105 103/103/103
f 104/104/104 105/105/105 101/101/101
f 103/103/103 105/105/105 106/106/106
f 104/104/104 107/107/107 105/105/105
f 105/105/105 108/108/108 106/106/106
f 107/107/107 108/108/108 105/105/105
f 106/106/106 108/108/108 109/109/109
f 110/110/110 108/108/108 107/107/107
f 108/108/108 110/110/110 109/109/109
f 111/111/111 110/110/110 107/107/107
f 109/109/109 110/110/110 112/112/112
f 111/111/111 113/113/113 110/110/110
f 110/110/110 114/114/114 112/112/112
f 113/113/113 114/114/114 110/110/110
f 112/112/112 114/114/114 115/115/115
f 116/116/116 114/114/114 113/113/113
f 114/114/114 116/116/116 115/115/115
f 117/117/117 116/116/116 113/113/113
f 115/115/115 116/116/116 118/118/118
f 117/117/117 119/119/119 116/116/116
f 116/116/116 120/120/120 118/118/118
f 119/119/119 120/120/120 116/116/116
f 118/118/118 120/120/120 121/121/121
f 119/119/119 122/122/122 120/120/120
f 120/120/120 123/123/123 121/121/121
f 122/122/122 123/123/123 120/120/120
f 121/121/121 123/123/123 124/124/124
f 123/123/123 125/125/125 124/124/124
f 125/125/125 123/123/123 122/122/122
f 126/126/126 125/125/125 122/122/122
