g DropItemMiddle
v -6.59410334 38.5162582 -5.67787218
v -4.26144028 37.5158844 -6.51410198
v -4.46173811 36.6569061 -5.9797287
v -4.26144028 37.5158844 -6.51410198
v -7.79585028 38.1706543 -7.21757746
v -5.00699711 37.5752373 -6.69814491
v -5.73917103 36.4301567 -8.82564831
v -8.64480686 38.8020401 -5.78292656
v -8.83319473 37.39674 -5.51814032
v -10.9316292 36.8351898 -6.0508585
v -10.9362049 38.8384819 -6.16949081
v -13.4983664 35.9476204 -6.94958496
v -13.3134871 38.3101959 -6.71734524
v -10.6176767 37.7413101 -7.81371689
v -5.20729923 36.7162857 -6.163764
v -8.83319473 37.39674 -5.51814032
v -8.47955608 34.3065262 -9.95007896
v -10.9316292 36.8351898 -6.0508585
v -7.80383825 36.3260841 -9.78282547
v -9.80028343 33.5622635 -11.1631556
v -12.966176 37.1138763 -8.51014042
v -13.4983664 35.9476204 -6.94958496
v -9.80485153 35.5655518 -11.2817955
v -11.9912481 32.4996223 -11.7228127
v -12.2240219 34.6676025 -12.2835913
v -15.6716003 33.2512054 -9.57941341
v -14.3292351 35.3442841 -10.7592602
v -16.0659237 36.8624878 -8.12421322
v -16.8540859 34.5906563 -10.745491
v -14.7201023 33.4428368 -13.2997999
v -11.8767195 33.4712944 -14.0763845
v -11.9912481 32.4996223 -11.7228127
v -9.48633003 34.4683723 -12.926013
v -8.24335861 35.2197075 -11.8976383
v -8.47955608 34.3065262 -9.95007896
v -9.80028343 33.5622635 -11.1631556
v -6.08436728 34.9498215 -7.90470791
v -4.46173811 36.6569061 -5.9797287
v -4.26144028 37.5158844 -6.51410198
v -9.80028343 33.5622635 -11.1631556
v -11.8767195 33.4712944 -14.0763845
v -11.9912481 32.4996223 -11.7228127
v 7.19809437 31.1259632 6.77933121
v 2.35692692 33.1340828 4.78009844
v 3.33477521 34.1725159 1.92029119
v 8.55877686 32.6663361 1.57393551
v 13.1850195 26.7956123 8.94362831
v 3.41472793 34.9245758 -0.560611725
v 15.5492306 29.4179459 1.58360004
v 14.8490639 31.9904728 -5.41945362
v 16.5090027 23.1484699 9.77016068
v 19.4747105 26.3241787 1.00840569
v 19.2963715 16.3404369 8.70605373
v 8.57126904 32.8675804 -2.93179846
v 5.92566204 34.5040855 -5.77879333
v 2.30583024 35.3242722 -2.63030529
v -0.0270770118 35.4433861 -4.553473
v 22.5807781 20.2902374 -1.13149071
v 19.9230404 9.35323715 6.15844059
v 22.8847237 12.5884695 -2.80643463
v 17.3724194 4.2492919 2.33239174
v 21.316288 22.3703804 -10.2864475
v 18.2934628 28.6784687 -7.69201946
v 2.80685234 34.8238335 -8.89383125
v 11.2725067 32.8843231 -10.794323
v 14.31563 29.731041 -13.8324051
v 17.0841408 23.525032 -16.9365616
v 6.72394848 33.2190323 -14.8966913
v -0.971759319 33.9065819 -10.2167006
v -3.87749076 35.2583923 -6.58782244
v 9.10911083 30.1245556 -18.5512428
v 1.20423412 32.9229927 -17.4852295
v -5.19289351 34.0387115 -11.4308109
v -7.30664825 34.1725159 -5.02197504
v -9.59777737 32.7330704 -9.8625021
v -10.1799622 32.7122459 -1.97788715
v -13.6309681 30.7532692 -5.15123129
v -18.470192 27.1900673 -10.8727531
v -5.21439838 31.9958782 -18.526577
v -12.4343805 30.0042076 -16.4338455
v 2.77439022 29.774992 -21.5097389
v -12.9681683 26.3271046 -20.1665859
v -19.7971935 23.1484604 -13.9152946
v -4.51894569 28.6846828 -22.5953369
v 4.51025105 23.5730515 -25.3012753
v -12.4335556 19.8461533 -23.8020325
v -19.9460735 16.3404312 -16.8949585
v -10.8510609 12.5913267 -24.8246574
v -17.8623505 9.35505295 -18.491375
v -13.3368607 4.24932957 -17.7019043
v -3.36279583 22.376894 -26.4085712
v 11.4090948 23.9532108 -22.0704594
v -2.49273682 14.9218807 -27.2216988
v 17.4803677 15.9574375 -17.679615
v 5.05228901 15.9982738 -25.9250069
v 11.790575 16.3337803 -22.6591358
v 21.7714844 14.9144983 -11.3673038
v 3.97236061 9.58761024 -23.1476135
v -2.60340309 8.47171783 -24.9215889
v 15.3977013 9.21990395 -15.6980686
v 19.0472908 9.18678474 -10.4829903
v 14.9996729 4.78865051 -10.0736771
v 10.0384989 9.45020103 -19.9717388
v 20.2977734 6.91779423 -4.74730682
v 11.0831699 0.876282215 -3.19885731
v 2.88184404 -0.210949153 -9.00929356
v 7.39805031 3.64687133 -15.9298477
v -5.73291588 0.84826529 -14.1815739
v -1.2182951 4.83321571 -20.6470795
v -8.02735901 6.92043304 -23.2349854
v -7.80205631 37.3382607 -3.51835871
v -4.1861701 37.7652168 -5.4794836
v -4.37431431 38.2845345 -4.49268579
v -7.9862361 36.7372208 -4.4727869
v -10.7660236 36.1484222 -0.504000664
v -4.03176165 36.0802841 -6.39388466
v -11.1331196 35.4556046 -1.26858807
v -10.8891935 35.0754128 3.69276428
v -7.69000912 35.0627747 -5.20779467
v -3.87749076 35.2583923 -6.58782244
v -7.30664825 34.1725159 -5.02197504
v -10.7795238 33.5187492 -2.02266359
v -10.1799622 32.7122459 -1.97788715
v -11.1399937 34.2545357 3.43532848
v -9.57199574 34.7908707 6.28845167
v -10.8065252 32.1225815 2.66237593
v -10.5973721 31.3430958 2.36139679
v -8.90583134 30.9425583 4.81400394
v -9.83046627 33.9391098 6.13008785
v -9.42271996 31.6000175 5.32519388
v -5.02313995 30.9425583 7.34700012
v -5.28277588 31.6000175 8.02601624
v -2.09667397 31.3432407 7.9065814
v -5.88925552 34.1151543 8.775774
v -6.05702782 35.0007057 8.54232216
v -2.28810358 32.1225777 8.21962929
v -2.94754219 34.710144 8.97540665
v -3.29342413 35.5367889 8.82415199
v -0.453485489 35.3503761 8.30208015
v -1.03532887 36.1797638 7.98763514
v 1.14917803 37.0586815 6.05509996
v 0.202003479 32.8181152 7.50135994
v 0.141230583 32.0948677 6.83492374
v 1.99686146 36.3658562 6.08301449
v 2.03647947 37.9665794 3.16605759
v 2.63915157 33.9405937 5.3105545
v 2.35692692 33.1340828 4.78009844
v 2.98421764 37.3655434 2.95006967
v 1.53847551 38.3522453 1.11907089
v 3.65926552 35.0627747 2.19626164
v 3.33477521 34.1725159 1.92029119
v 3.41472793 34.9245758 -0.560611725
v 2.38556695 37.8392487 0.540868759
v 3.29961133 35.7466011 -0.341629982
v 2.30583024 35.3242722 -2.63030529
v 1.80658317 38.2055359 -1.80074763
v 0.815253258 38.6967087 -1.24316359
v -1.01178229 38.7472801 -3.04411459
v 2.50433326 36.2750549 -2.64043951
v -0.463621199 38.2547913 -3.88436103
v 0.0385448188 36.3953133 -4.65410376
v -0.0270770118 35.4433861 -4.553473
v -3.87749076 35.2583923 -6.58782244
v -4.03176165 36.0802841 -6.39388466
v -4.1861701 37.7652168 -5.4794836
v -4.37431431 38.2845345 -4.49268579
v -10.7660236 36.1484222 -0.504000664
v -16.3658314 45.2259407 2.43849087
v -12.3193388 43.5776978 7.6169486
v -10.8891935 35.0754128 3.69276428
v -15.5228205 42.6320992 11.7160835
v -13.8964787 42.412529 13.4979916
v -9.57199574 34.7908707 6.28845167
v -10.5107193 42.3845367 13.4454985
v -6.05702782 35.0007057 8.54232216
v -10.2796116 41.9808578 17.2992344
v -6.25574303 42.4264603 18.4390869
v -3.29342413 35.5367889 8.82415199
v -0.782515526 44.2229805 15.9555178
v -1.03532887 36.1797638 7.98763514
v -0.933455467 44.5691566 10.463335
v 1.14917803 37.0586815 6.05509996
v -7.80205631 37.3382607 -3.51835871
v -16.3658314 45.2259407 2.43849087
v -10.7660236 36.1484222 -0.504000664
v -12.1882639 46.4655609 -3.47118092
v -9.30429935 48.1752167 -5.0800004
v -4.37431431 38.2845345 -4.49268579
v -5.31134653 49.6287117 -5.18704128
v -2.98165846 48.6569023 -1.55638933
v 0.0330333114 49.8240547 -3.24872947
v -1.01178229 38.7472801 -3.04411459
v 0.815253258 38.6967087 -1.24316359
v 3.6517899 49.9188118 -0.307140827
v 4.81095552 48.1346092 3.9084208
v 1.53847551 38.3522453 1.11907089
v 6.12954521 46.2086411 7.6990118
v 2.03647947 37.9665794 3.16605759
v 3.98701096 45.7344017 10.771224
v 1.14917803 37.0586815 6.05509996
v -0.933455467 44.5691566 10.463335
v -13.6309681 30.7532692 -5.15123129
v -10.1799622 32.7122459 -1.97788715
v -10.5973721 31.3430958 2.36139679
v -14.3511848 27.8760567 -1.70334578
v -20.619873 23.4833584 -4.09363461
v -18.470192 27.1900673 -10.8727531
v -19.7971935 23.1484604 -13.9152946
v -14.8690205 27.9486427 2.10315418
v -8.90583134 30.9425583 4.81400394
v -22.778162 19.9688778 -5.15045261
v -19.9460735 16.3404312 -16.8949585
v -12.1460762 27.2805347 6.75670719
v -5.02313995 30.9425583 7.34700012
v -19.9700699 22.5818367 3.5910759
v -16.3503418 21.627058 9.12908077
v -23.2932472 12.8342457 -7.26894855
v -17.8623505 9.35505295 -18.491375
v -21.835289 17.6155262 3.39131165
v -20.7883835 6.11966991 -9.50951195
v -19.713913 3.7876749 -0.953846931
v -13.3368607 4.24932957 -17.7019043
v -21.9918976 10.3022318 2.10845947
v -16.902071 1.57826328 -11.0309973
v -17.8071079 9.10859203 8.85899448
v -17.8183823 16.5090199 9.7388401
v -11.6077538 21.3239174 13.2029581
v -10.1578312 -1.51671028 -6.97314692
v -5.73291588 0.84826529 -14.1815739
v 2.88184404 -0.210949153 -9.00929356
v -15.629343 0.0264568478 -4.97384787
v -1.94821084 -2.42012882 -1.60350847
v 11.0831699 0.876282215 -3.19885731
v -11.3615847 -0.739953995 0.391814232
v -15.4520979 2.70653868 5.46800137
v -5.99880409 -0.953893185 4.61098909
v 6.15614367 -0.873897076 3.93101382
v 17.3724194 4.2492919 2.33239174
v -9.72396851 2.37569427 10.3192892
v 0.0857782364 -0.703591347 7.73738003
v 12.7118301 1.5807097 8.28032112
v 19.9230404 9.35323715 6.15844059
v 6.65420151 0.0295548588 9.553092
v 12.8804255 6.12250328 12.4458427
v 19.2963715 16.3404369 8.70605373
v -2.86365128 2.74769878 13.5418339
v 4.69115829 3.79481077 14.9435368
v 11.8451576 12.8374462 15.6439238
v 16.5090027 23.1484699 9.77016068
v -5.04084492 9.15641975 17.026371
v 2.74278831 10.3089123 18.2224007
v 9.69316483 19.9719067 16.0230446
v 13.1850195 26.7956123 8.94362831
v -12.0530739 8.72840118 13.8933907
v -5.84851933 16.5550804 17.3926163
v -12.3931179 16.1734943 14.4083242
v 7.63604927 24.6156178 14.8093443
v 7.19809437 31.1259632 6.77933121
v 1.50575256 17.6216984 18.5977898
v -5.89781094 21.662878 15.8186903
v 0.568170547 22.5872478 16.9716015
v 3.34065819 29.2299938 10.4044447
v 2.35692692 33.1340828 4.78009844
v 0.141230583 32.0948677 6.83492374
v -2.09667397 31.3432407 7.9065814
v -1.05833626 27.8935184 11.9650402
v -5.45033073 27.3028507 11.0475931
v -9.0391283 26.6675549 9.26417446
v -5.67559052 36.9356232 -4.56374168
v -5.44164562 35.0632401 -5.66989326
v -5.21526194 38.8049889 -5.89118099
v -4.46649361 37.7541656 -8.22155952
v -4.70325994 34.9825363 -7.50224972
v -2.07881474 37.6207733 -7.55064011
v -2.51792097 34.8604393 -6.88818312
v -2.85162973 34.9185333 -4.94211674
v -2.62525129 38.6602898 -5.16340256
v -3.08557606 36.7909088 -3.8359642
v -3.66367841 35.0545502 -6.98881531
v -4.70325994 34.9825363 -7.50224972
v -5.44164562 35.0632401 -5.66989326
v -4.1302948 35.1951981 -5.33203697
v -2.85162973 34.9185333 -4.94211674
v -2.51792097 34.8604393 -6.88818312
v -3.08557606 36.7909088 -3.8359642
v -4.32749844 36.7302322 -4.40624619
v -5.67559052 36.9356232 -4.56374168
v -2.62525129 38.6602898 -5.16340256
v -5.21526194 38.8049889 -5.89118099
v -3.89692426 38.569046 -5.63407707
v -2.07881474 37.6207733 -7.55064011
v -3.32119608 37.5813866 -7.73219109
v -2.51792097 34.8604393 -6.88818312
v -4.46649361 37.7541656 -8.22155952
v -3.66367841 35.0545502 -6.98881531
v -4.70325994 34.9825363 -7.50224972
v -1.87190461 35.3420067 -8.61560249
v -3.44261146 35.9648132 -6.17962313
v -3.62519431 35.6689186 -6.48883533
v -1.02526712 36.0141449 -8.13496113
v -0.424887657 35.1957779 -10.8367863
v -3.32194924 35.7779236 -5.78701115
v 0.676280975 36.0062103 -10.4334335
v 0.954113007 34.8172455 -13.6977119
v -0.340318203 35.3642273 -7.48555374
v -3.50452876 35.4820213 -6.09623051
v 2.13840914 35.7399368 -13.3074093
v 2.41917801 34.1777 -16.6837654
v -1.18695402 34.6920929 -7.96619272
v -3.62519431 35.6689186 -6.48883533
v -1.87190461 35.3420067 -8.61560249
v 1.57042646 35.15028 -9.82346058
v 0.469256401 34.3398476 -10.2268124
v -0.424887657 35.1957779 -10.8367863
v 3.64773464 35.1746559 -16.2876759
v 4.14362621 32.7633171 -20.0661774
v 3.06031179 34.7689743 -12.6296577
v 1.87601423 33.8462753 -13.0199604
v 0.954113007 34.8172455 -13.6977119
v 5.3488102 33.7273598 -19.6745434
v 4.41931725 32.0567894 -21.556675
v 4.59311485 34.1278801 -15.5813599
v 3.36455059 33.1309357 -15.9774475
v 2.41917801 34.1777 -16.6837654
v 6.04140663 33.0353012 -21.1403446
v 5.81244183 31.2812023 -22.5732498
v 6.72876263 31.8241405 -22.4403515
v 6.28005505 32.7143593 -18.9827919
v 5.07487202 31.7503147 -19.3744297
v 4.14362621 32.7633171 -20.0661774
v 4.41931725 32.0567894 -21.556675
v 7.29488373 32.0633087 -20.0368938
v 7.36859608 31.3389454 -21.7792034
v 5.6617794 31.0256901 -20.4199123
v 6.45227623 30.7960014 -21.9121094
v 5.81244183 31.2812023 -22.5732498
v -1.00054944 35.1310043 -7.21919346
v -2.32123566 36.728138 -5.98677731
v 1.43304157 34.9507294 -8.75473976
v -3.02271652 36.0654449 -5.81820107
v 1.69676673 36.723053 -3.52966523
v -1.11723983 36.4661369 -3.48126864
v 1.43304157 34.9507294 -8.75473976
v 4.35262203 35.1452522 -10.8876362
v 3.37352324 36.3613052 -12.0408688
v 1.05974436 36.5855446 -10.1372786
v -1.00054944 35.1310043 -7.21919346
v -1.56443954 36.7777596 -8.1200695
v -3.02271652 36.0654449 -5.81820107
v -3.20219755 37.0209694 -6.16204453
v 0.85621357 37.1578903 -8.55545712
v 3.74819088 36.900589 -10.6693211
v 7.31276608 37.2469139 -11.407526
v 7.15503454 36.4123306 -13.1741486
v 8.93686485 36.4597092 -12.5955238
v 7.26816463 35.3087463 -11.4050131
v 10.9310417 37.4011879 -9.27323818
v -2.5007143 37.6836815 -6.33062649
v -3.20219755 37.0209694 -6.16204453
v 0.80562073 38.1851273 -5.20138597
v -1.42655516 38.112896 -4.07385445
v 4.35262203 35.1452522 -10.8876362
v 1.43304157 34.9507294 -8.75473976
v 7.26816463 35.3087463 -11.4050131
v -2.32123566 36.728138 -5.98677731
v 9.01721096 35.9747658 -8.81317902
v 1.69676673 36.723053 -3.52966523
v 8.78256798 37.6041222 -9.22021294
v 7.83027649 36.9948921 -5.97180367
v 7.06566811 38.8064957 -6.85760975
v 5.24649858 37.0309868 -4.58634138
v 3.9340744 38.5092049 -5.29125881
v 9.38704109 38.7273674 -6.25313473
v 7.0902195 39.3907051 -4.84846115
v 4.00027227 39.1677589 -3.48991466
v 5.24649858 37.0309868 -4.58634138
v 1.63675785 38.8367538 -3.06995249
v 9.01721096 35.9747658 -8.81317902
v 7.83027649 36.9948921 -5.97180367
v 1.69676673 36.723053 -3.52966523
v -1.11723983 36.4661369 -3.48126864
v -3.20219755 37.0209694 -6.16204453
v -3.02271652 36.0654449 -5.81820107
v 7.26816463 35.3087463 -11.4050131
v 9.01721096 35.9747658 -8.81317902
v 8.93686485 36.4597092 -12.5955238
v 7.83027649 36.9948921 -5.97180367
v 7.0902195 39.3907051 -4.84846115
v 5.24649858 37.0309868 -4.58634138
v 5.24649858 37.0309868 -4.58634138
v 1.69676673 36.723053 -3.52966523
v 4.00027227 39.1677589 -3.48991466
v 4.35262203 35.1452522 -10.8876362
v 7.26816463 35.3087463 -11.4050131
v 7.15503454 36.4123306 -13.1741486
v -5.24183846 34.8708572 -8.58779335
v -4.47329187 35.7518196 -6.87042141
v -4.66998243 36.1204414 -6.58519936
v -6.17530537 35.5976524 -8.58661652
v -5.38376474 34.5927734 -11.249198
v -4.92179966 35.9656906 -6.19360781
v -6.49342632 35.4668617 -11.4407444
v -5.58662605 34.3584595 -14.3210468
v -7.1258111 35.0027885 -8.35007381
v -4.72510815 35.5970688 -6.47883224
v -6.75593758 35.348053 -14.5653591
v -5.68139648 33.7395706 -17.1578484
v -6.19234848 34.2760086 -8.3512516
v -4.47329187 35.7518196 -6.87042141
v -5.24183846 34.8708572 -8.58779335
v -7.61878586 34.674736 -11.3393784
v -6.50912237 33.8006477 -11.1478329
v -5.38376474 34.5927734 -11.249198
v -6.88784313 34.8055649 -17.4192467
v -5.59723282 32.1334152 -21.1594162
v -7.94510174 34.4446831 -14.4176207
v -6.77578783 33.4550819 -14.1733036
v -5.58662605 34.3584595 -14.3210468
v -6.75067425 33.1347656 -21.6089897
v -5.25199223 31.3148136 -22.8905315
v -8.11572266 33.8285713 -17.2575226
v -6.90927315 32.7625847 -16.9961262
v -5.68139648 33.7395706 -17.1578484
v -6.64709091 32.4919472 -23.4551163
v -5.86762238 30.5618248 -24.4639473
v -6.70315933 31.158186 -24.777504
v -7.98630142 32.2846375 -21.2590866
v -6.83286095 31.2832928 -20.8095131
v -5.59723282 32.1334152 -21.1594162
v -5.25199223 31.3148136 -22.8905315
v -8.19652176 31.5281544 -23.0078526
v -7.60813141 30.7097321 -24.5288239
v -6.81384373 30.2525253 -22.3976994
v -6.77258873 30.1133785 -24.2152672
v -5.86762238 30.5618248 -24.4639473
v -6.08436728 34.9498215 -7.90470791
v -8.47955608 34.3065262 -9.95007896
v -5.20729923 36.7162857 -6.163764
v -4.46173811 36.6569061 -5.9797287
v -8.83319473 37.39674 -5.51814032
v -6.59410334 38.5162582 -5.67787218
v -11.9912481 32.4996223 -11.7228127
v -14.7201023 33.4428368 -13.2997999
v -16.8540859 34.5906563 -10.745491
v -15.6716003 33.2512054 -9.57941341
v -16.0659237 36.8624878 -8.12421322
v -16.0659237 36.8624878 -8.12421322
v -13.4983664 35.9476204 -6.94958496
v 5.81244183 31.2812023 -22.5732498
v 6.45227623 30.7960014 -21.9121094
v 7.36859608 31.3389454 -21.7792034
v 6.72876263 31.8241405 -22.4403515
v -7.60813141 30.7097321 -24.5288239
v -6.77258873 30.1133785 -24.2152672
v -5.86762238 30.5618248 -24.4639473
v -6.70315933 31.158186 -24.777504
v 10.989399 28.6552467 -25.0179005
v 9.17572594 30.2535248 -27.036541
v 8.2710371 26.8988495 -25.3081532
v 6.46940041 28.4916153 -27.3165894
v 6.46940041 28.4916153 -27.3165894
v 9.17572594 30.2535248 -27.036541
v 5.92674255 32.2410202 -20.8460407
v 10.989399 28.6552467 -25.0179005
v 8.2710371 26.8988495 -25.3081532
v 6.46940041 28.4916153 -27.3165894
v -8.98195457 28.4674568 -29.0365925
v -6.89095688 26.5755177 -28.0532207
v -6.66462326 29.9787521 -29.8925667
v -4.5270195 28.0780411 -28.8906212
v -6.78212357 31.4735699 -22.8817635
v -4.5270195 28.0780411 -28.8906212
v -6.89095688 26.5755177 -28.0532207
v -8.98195457 28.4674568 -29.0365925
v -6.66462326 29.9787521 -29.8925667
v -4.5270195 28.0780411 -28.8906212
v 0.0330333114 49.8240547 -3.24872947
v 3.6517899 49.9188118 -0.307140827
v 3.25729156 49.9040604 -0.0149974823
v -0.254756689 49.8091431 -2.91177845
v -2.98165846 48.6569023 -1.55638933
v -4.96878862 42.1592636 4.53365803
v -3.23224258 48.6281013 -1.09481478
v 4.31321001 48.1730309 4.0761342
v -5.31134653 49.6287117 -5.18704128
v 4.81095552 48.1346092 3.9084208
v -5.36341763 49.6065102 -4.6317749
v -9.30429935 48.1752167 -5.0800004
v 5.56804657 46.3325005 7.72922325
v 6.12954521 46.2086411 7.6990118
v -9.19191551 48.1854668 -4.54081059
v -12.1882639 46.4655609 -3.47118092
v 3.51071358 45.8434677 10.6497879
v 3.98701096 45.7344017 10.771224
v -11.9498367 46.5119209 -3.00799227
v -16.3658314 45.2259407 2.43849087
v -1.26312923 44.708725 10.2669058
v -15.9542732 45.3872032 2.67332363
v -1.04511833 44.431366 15.6066656
v -0.933455467 44.5691566 10.463335
v -12.3193388 43.5776978 7.6169486
v -0.782515526 44.2229805 15.9555178
v -11.9972706 43.7914696 7.59597445
v -15.5228205 42.6320992 11.7160835
v -6.28844357 42.7095757 17.9923706
v -6.25574303 42.4264603 18.4390869
v -15.1428833 42.9043465 11.5623531
v -13.8964787 42.412529 13.4979916
v -10.1370039 42.2874107 16.8979187
v -10.2796116 41.9808578 17.2992344
v -13.5888138 42.7001495 13.2597752
v -10.5107193 42.3845367 13.4454985
v -10.3322935 42.6471634 13.178772
vt 0.533203125 0.920898438
vt 0.494873047 0.883300781
vt 0.494873047 0.891601562
vt 0.494873047 0.883300781
vt 0.582519531 0.916992188
vt 0.528320312 0.883300781
vt 0.533203125 0.846191406
vt 0.599609375 0.954589844
vt 0.599609375 0.954589844
vt 0.648925781 0.966308594
vt 0.648925781 0.966308594
vt 0.708007812 0.962402344
vt 0.708007812 0.962402344
vt 0.648925781 0.933105469
vt 0.548339844 0.883300781
vt 0.582519531 0.903808594
vt 0.589355469 0.862304688
vt 0.648925781 0.917480469
vt 0.582519531 0.849609375
vt 0.6484375 0.849121094
vt 0.708007812 0.926269531
vt 0.704589844 0.91015625
vt 0.648925781 0.833984375
vt 0.703613281 0.853027344
vt 0.708007812 0.840332031
vt 0.719238281 0.883300781
vt 0.734863281 0.883300781
vt 0.759765625 0.9375
vt 0.780273438 0.883300781
vt 0.759765625 0.829101562
vt 0.708007812 0.804199219
vt 0.733886719 0.816894531
vt 0.648925781 0.80078125
vt 0.599609375 0.8125
vt 0.599609375 0.8125
vt 0.648925781 0.80078125
vt 0.533203125 0.846191406
vt 0.494873047 0.875488281
vt 0.494873047 0.883300781
vt 0.648925781 0.80078125
vt 0.708007812 0.804199219
vt 0.733886719 0.816894531
vt 0.102722168 0.422363281
vt 0.149169922 0.458007812
vt 0.171142578 0.441162109
vt 0.146606445 0.398925781
vt 0.046875 0.362304688
vt 0.194946289 0.431396484
vt 0.111694336 0.339111328
vt 0.16809082 0.327392578
vt 0.0226745605 0.314941406
vt 0.102478027 0.298583984
vt 0.0115356445 0.23840332
vt 0.180419922 0.380859375
vt 0.216430664 0.384765625
vt 0.227539062 0.427490234
vt 0.253173828 0.42578125
vt 0.100341797 0.2421875
vt 0.0269317627 0.162475586
vt 0.10546875 0.186889648
vt 0.0660400391 0.100463867
vt 0.164916992 0.244262695
vt 0.165405273 0.291259766
vt 0.25390625 0.382080078
vt 0.213012695 0.325195312
vt 0.211914062 0.289794922
vt 0.211669922 0.245483398
vt 0.254150391 0.32421875
vt 0.289550781 0.386474609
vt 0.296142578 0.426025391
vt 0.254394531 0.289306641
vt 0.295410156 0.325195312
vt 0.327636719 0.385742188
vt 0.340576172 0.442626953
vt 0.366943359 0.399169922
vt 0.371337891 0.467041016
vt 0.411865234 0.436523438
vt 0.466308594 0.365966797
vt 0.340820312 0.327392578
vt 0.397460938 0.338623047
vt 0.296630859 0.289794922
vt 0.406494141 0.297851562
vt 0.486816406 0.314208984
vt 0.343505859 0.291259766
vt 0.297363281 0.245605469
vt 0.408935547 0.241699219
vt 0.498046875 0.237426758
vt 0.404296875 0.186523438
vt 0.482666016 0.161376953
vt 0.443603516 0.0996704102
vt 0.344482422 0.244384766
vt 0.254638672 0.24597168
vt 0.344970703 0.197998047
vt 0.21081543 0.201171875
vt 0.298583984 0.201538086
vt 0.254882812 0.202514648
vt 0.164428711 0.197753906
vt 0.30078125 0.156738281
vt 0.348144531 0.153320312
vt 0.208984375 0.154785156
vt 0.164794922 0.155395508
vt 0.178833008 0.113464355
vt 0.254882812 0.155029297
vt 0.121765137 0.140136719
vt 0.147583008 0.0452575684
vt 0.254882812 0.0202789307
vt 0.254882812 0.0999145508
vt 0.361816406 0.0451660156
vt 0.332275391 0.114379883
vt 0.387939453 0.139770508
vt 0.124572754 0.772949219
vt 0.0582885742 0.746582031
vt 0.0582885742 0.772949219
vt 0.124572754 0.746582031
vt 0.196533203 0.772949219
vt 0.0582885742 0.706054688
vt 0.196533203 0.746582031
vt 0.248291016 0.772949219
vt 0.124572754 0.706054688
vt 0.0582885742 0.686035156
vt 0.124572754 0.686035156
vt 0.196533203 0.706054688
vt 0.196533203 0.686035156
vt 0.248291016 0.746582031
vt 0.315917969 0.772949219
vt 0.248291016 0.706054688
vt 0.248291016 0.686035156
vt 0.315917969 0.686035156
vt 0.315917969 0.746582031
vt 0.315917969 0.706054688
vt 0.37109375 0.686035156
vt 0.37109375 0.706054688
vt 0.436767578 0.686035156
vt 0.37109375 0.746582031
vt 0.37109375 0.772949219
vt 0.436767578 0.706054688
vt 0.436767578 0.746582031
vt 0.436767578 0.772949219
vt 0.477050781 0.746582031
vt 0.477050781 0.772949219
vt 0.528808594 0.772949219
vt 0.477050781 0.706054688
vt 0.477050781 0.686035156
vt 0.528808594 0.746582031
vt 0.580078125 0.772949219
vt 0.528808594 0.706054688
vt 0.528808594 0.686035156
vt 0.580078125 0.746582031
vt 0.619140625 0.772949219
vt 0.580078125 0.706054688
vt 0.580078125 0.686035156
vt 0.619140625 0.686035156
vt 0.619140625 0.746582031
vt 0.619140625 0.706054688
vt 0.669433594 0.686035156
vt 0.669433594 0.746582031
vt 0.669433594 0.772949219
vt 0.704101562 0.772949219
vt 0.669433594 0.706054688
vt 0.704101562 0.746582031
vt 0.704101562 0.706054688
vt 0.704101562 0.686035156
vt 0.742675781 0.686035156
vt 0.742675781 0.706054688
vt 0.742675781 0.746582031
vt 0.742675781 0.772949219
vt 0.452148438 0.524414062
vt 0.4375 0.648925781
vt 0.49609375 0.648925781
vt 0.488769531 0.524414062
vt 0.525390625 0.648925781
vt 0.546875 0.648925781
vt 0.541503906 0.524414062
vt 0.576660156 0.648925781
vt 0.5859375 0.524414062
vt 0.605957031 0.648925781
vt 0.651367188 0.648925781
vt 0.641601562 0.524414062
vt 0.722167969 0.648925781
vt 0.67578125 0.524414062
vt 0.768554688 0.648925781
vt 0.713867188 0.524414062
vt 0.327148438 0.524414062
vt 0.395263672 0.648925781
vt 0.361328125 0.524414062
vt 0.341552734 0.648925781
vt 0.303955078 0.648925781
vt 0.24621582 0.524414062
vt 0.265136719 0.648925781
vt 0.216430664 0.648925781
vt 0.184448242 0.648925781
vt 0.20690918 0.524414062
vt 0.184082031 0.524414062
vt 0.159667969 0.648925781
vt 0.127807617 0.648925781
vt 0.146240234 0.524414062
vt 0.0896606445 0.648925781
vt 0.120788574 0.524414062
vt 0.0542907715 0.648925781
vt 0.0869750977 0.524414062
vt 0.0236358643 0.648925781
vt 0.615234375 0.413574219
vt 0.657226562 0.441650391
vt 0.682617188 0.429443359
vt 0.641113281 0.391357422
vt 0.606445312 0.328857422
vt 0.546386719 0.355224609
vt 0.5234375 0.307617188
vt 0.670898438 0.382568359
vt 0.724609375 0.421630859
vt 0.600585938 0.294921875
vt 0.513183594 0.233398438
vt 0.716308594 0.379150391
vt 0.76171875 0.421386719
vt 0.663085938 0.32421875
vt 0.708496094 0.322509766
vt 0.598144531 0.23828125
vt 0.528320312 0.159301758
vt 0.66015625 0.288085938
vt 0.603515625 0.182983398
vt 0.661132812 0.194213867
vt 0.56640625 0.0978393555
vt 0.661621094 0.241088867
vt 0.615722656 0.138671875
vt 0.708007812 0.242675781
vt 0.707519531 0.287109375
vt 0.75 0.322753906
vt 0.67578125 0.108825684
vt 0.647460938 0.0437316895
vt 0.754394531 0.0205078125
vt 0.659179688 0.149291992
vt 0.752929688 0.0969848633
vt 0.860839844 0.0480957031
vt 0.706542969 0.151123047
vt 0.707519531 0.197998047
vt 0.752441406 0.151489258
vt 0.831054688 0.113891602
vt 0.939941406 0.105224609
vt 0.751464844 0.19934082
vt 0.798339844 0.151977539
vt 0.889648438 0.143920898
vt 0.975585938 0.16809082
vt 0.845703125 0.152954102
vt 0.899902344 0.188354492
vt 0.987304688 0.242797852
vt 0.795898438 0.198974609
vt 0.842285156 0.197387695
vt 0.902832031 0.243286133
vt 0.973632812 0.316894531
vt 0.793945312 0.243896484
vt 0.83984375 0.243774414
vt 0.8984375 0.298339844
vt 0.950683594 0.362792969
vt 0.750976562 0.243530273
vt 0.793457031 0.288574219
vt 0.75 0.287597656
vt 0.889160156 0.337646484
vt 0.897460938 0.419433594
vt 0.839355469 0.290039062
vt 0.791503906 0.323974609
vt 0.8359375 0.325927734
vt 0.857910156 0.395019531
vt 0.850097656 0.450195312
vt 0.828613281 0.434570312
vt 0.806152344 0.426025391
vt 0.8203125 0.381835938
vt 0.783203125 0.380126953
vt 0.749511719 0.376953125
vt 0.905273438 0.747558594
vt 0.911132812 0.734375
vt 0.894042969 0.745605469
vt 0.890625 0.728515625
vt 0.905273438 0.72265625
vt 0.890625 0.728515625
vt 0.905273438 0.72265625
vt 0.911132812 0.734375
vt 0.894042969 0.745605469
vt 0.905273438 0.747558594
vt 0.860351562 0.829589844
vt 0.874511719 0.829589844
vt 0.874511719 0.809570312
vt 0.860351562 0.809570312
vt 0.845703125 0.809570312
vt 0.845703125 0.829589844
vt 0.845703125 0.771972656
vt 0.860351562 0.771972656
vt 0.874511719 0.771972656
vt 0.845703125 0.763671875
vt 0.874511719 0.763671875
vt 0.860351562 0.763671875
vt 0.845703125 0.733398438
vt 0.860351562 0.733398438
vt 0.845703125 0.714355469
vt 0.874511719 0.733398438
vt 0.860351562 0.714355469
vt 0.874511719 0.714355469
vt 0.085144043 0.833007812
vt 0.039642334 0.8671875
vt 0.039642334 0.833007812
vt 0.085144043 0.8671875
vt 0.134277344 0.833007812
vt 0.039642334 0.899902344
vt 0.134277344 0.8671875
vt 0.192504883 0.833007812
vt 0.085144043 0.899902344
vt 0.039642334 0.934082031
vt 0.192504883 0.8671875
vt 0.253662109 0.833007812
vt 0.085144043 0.934082031
vt 0.039642334 0.967285156
vt 0.085144043 0.967285156
vt 0.134277344 0.899902344
vt 0.134277344 0.934082031
vt 0.134277344 0.967285156
vt 0.253662109 0.8671875
vt 0.302490234 0.833007812
vt 0.192504883 0.899902344
vt 0.192504883 0.934082031
vt 0.192504883 0.967285156
vt 0.302490234 0.8671875
vt 0.349853516 0.833007812
vt 0.253662109 0.899902344
vt 0.253662109 0.934082031
vt 0.253662109 0.967285156
vt 0.349853516 0.8671875
vt 0.387695312 0.833007812
vt 0.387695312 0.8671875
vt 0.302490234 0.899902344
vt 0.302490234 0.934082031
vt 0.302490234 0.967285156
vt 0.349853516 0.967285156
vt 0.349853516 0.899902344
vt 0.387695312 0.899902344
vt 0.349853516 0.934082031
vt 0.387695312 0.934082031
vt 0.387695312 0.967285156
vt 0.827636719 0.909667969
vt 0.824707031 0.9296875
vt 0.858398438 0.901367188
vt 0.807128906 0.9296875
vt 0.858398438 0.957519531
vt 0.827636719 0.949707031
vt 0.599609375 0.8125
vt 0.648925781 0.80078125
vt 0.648925781 0.80078125
vt 0.599609375 0.8125
vt 0.533203125 0.846191406
vt 0.533203125 0.846191406
vt 0.494873047 0.875488281
vt 0.494873047 0.883300781
vt 0.582519531 0.849609375
vt 0.648925781 0.833984375
vt 0.708007812 0.840332031
vt 0.708007812 0.804199219
vt 0.759765625 0.829101562
vt 0.733886719 0.816894531
vt 0.780273438 0.883300781
vt 0.528320312 0.883300781
vt 0.494873047 0.883300781
vt 0.582519531 0.916992188
vt 0.533203125 0.920898438
vt 0.6484375 0.849121094
vt 0.589355469 0.862304688
vt 0.703613281 0.853027344
vt 0.548339844 0.883300781
vt 0.719238281 0.883300781
vt 0.582519531 0.904296875
vt 0.734863281 0.883300781
vt 0.704589844 0.91015625
vt 0.708007812 0.926269531
vt 0.648925781 0.917480469
vt 0.648925781 0.933105469
vt 0.759765625 0.9375
vt 0.708007812 0.962402344
vt 0.648925781 0.966308594
vt 0.678222656 0.964355469
vt 0.599609375 0.954589844
vt 0.780273438 0.883300781
vt 0.759765625 0.9375
vt 0.599609375 0.954589844
vt 0.533203125 0.920898438
vt 0.494873047 0.883300781
vt 0.494873047 0.891601562
vt 0.733886719 0.816894531
vt 0.780273438 0.883300781
vt 0.759765625 0.829101562
vt 0.759765625 0.9375
vt 0.708007812 0.962402344
vt 0.678222656 0.964355469
vt 0.678222656 0.964355469
vt 0.599609375 0.954589844
vt 0.648925781 0.966308594
vt 0.648925781 0.80078125
vt 0.733886719 0.816894531
vt 0.708007812 0.804199219
vt 0.085144043 0.833007812
vt 0.039642334 0.833007812
vt 0.039642334 0.8671875
vt 0.085144043 0.8671875
vt 0.134277344 0.833007812
vt 0.039642334 0.899902344
vt 0.134277344 0.8671875
vt 0.192504883 0.833007812
vt 0.085144043 0.899902344
vt 0.039642334 0.934082031
vt 0.192504883 0.8671875
vt 0.253662109 0.833007812
vt 0.085144043 0.934082031
vt 0.039642334 0.967285156
vt 0.085144043 0.967285156
vt 0.134277344 0.899902344
vt 0.134277344 0.934082031
vt 0.134277344 0.967285156
vt 0.253662109 0.8671875
vt 0.302490234 0.833007812
vt 0.192504883 0.899902344
vt 0.192504883 0.934082031
vt 0.192504883 0.967285156
vt 0.302490234 0.8671875
vt 0.349853516 0.833007812
vt 0.253662109 0.899902344
vt 0.253662109 0.934082031
vt 0.253662109 0.967285156
vt 0.349853516 0.8671875
vt 0.387695312 0.833007812
vt 0.387695312 0.8671875
vt 0.302490234 0.899902344
vt 0.302490234 0.934082031
vt 0.302490234 0.967285156
vt 0.349853516 0.967285156
vt 0.349853516 0.899902344
vt 0.387695312 0.899902344
vt 0.349853516 0.934082031
vt 0.387695312 0.934082031
vt 0.387695312 0.967285156
vt 0.827636719 0.909667969
vt 0.858398438 0.901367188
vt 0.824707031 0.9296875
vt 0.807128906 0.9296875
vt 0.858398438 0.957519531
vt 0.827636719 0.949707031
vt 0.733886719 0.816894531
vt 0.759765625 0.829101562
vt 0.780273438 0.883300781
vt 0.770019531 0.910644531
vt 0.759765625 0.9375
vt 0.759765625 0.9375
vt 0.708007812 0.962402344
vt 0.391845703 0.795410156
vt 0.391845703 0.831542969
vt 0.428222656 0.831542969
vt 0.428222656 0.795410156
vt 0.391845703 0.795410156
vt 0.391845703 0.831542969
vt 0.428222656 0.831542969
vt 0.428222656 0.795410156
vt 0.970214844 0.751953125
vt 0.9375 0.751953125
vt 0.961914062 0.728027344
vt 0.9375 0.719726562
vt 0.456298828 0.833007812
vt 0.456298828 0.8671875
vt 0.387695312 0.900390625
vt 0.456298828 0.899902344
vt 0.456298828 0.934082031
vt 0.456298828 0.967285156
vt 0.969726562 0.751464844
vt 0.961914062 0.728027344
vt 0.937988281 0.751953125
vt 0.937988281 0.719726562
vt 0.387695312 0.900390625
vt 0.456298828 0.967285156
vt 0.456298828 0.934082031
vt 0.456298828 0.899902344
vt 0.456298828 0.8671875
vt 0.456298828 0.833007812
vt 0.863769531 0.522949219
vt 0.840332031 0.515136719
vt 0.841796875 0.519042969
vt 0.864257812 0.526367188
vt 0.882324219 0.502441406
vt 0.878417969 0.587890625
vt 0.881835938 0.506835938
vt 0.812011719 0.528808594
vt 0.927734375 0.505371094
vt 0.809570312 0.525878906
vt 0.925292969 0.509277344
vt 0.956542969 0.526855469
vt 0.78515625 0.552246094
vt 0.78125 0.549804688
vt 0.953125 0.529785156
vt 0.970214844 0.554199219
vt 0.786621094 0.581542969
vt 0.782226562 0.580566406
vt 0.966308594 0.556152344
vt 0.97265625 0.613769531
vt 0.805664062 0.604492188
vt 0.968261719 0.61328125
vt 0.796386719 0.63671875
vt 0.802246094 0.604980469
vt 0.925292969 0.647460938
vt 0.792480469 0.638671875
vt 0.922851562 0.645507812
vt 0.921875 0.677734375
vt 0.823242188 0.679199219
vt 0.820800781 0.683105469
vt 0.919433594 0.674804688
vt 0.901367188 0.683105469
vt 0.856933594 0.689941406
vt 0.855957031 0.693847656
vt 0.899902344 0.6796875
vt 0.876464844 0.668457031
vt 0.876464844 0.665527344
vn -0.0814208984 0.996582031 -0.0104598999
vn 0.914550781 0.236206055 -0.328857422
vn 0.722167969 -0.550292969 0.419677734
vn 0.914550781 0.236206055 -0.328857422
vn -0.0819702148 0.669921875 -0.73828125
vn -0.432617188 0.766601562 -0.474853516
vn 0.231445312 0.933105469 -0.275634766
vn -0.0814208984 0.996582031 -0.0104598999
vn 0.0277099609 -0.937988281 0.345214844
vn 0.0820922852 -0.836914062 0.541503906
vn 0.136474609 0.984863281 -0.105102539
vn 0.0809326172 -0.695800781 0.713867188
vn -0.16003418 0.963867188 0.212768555
vn -0.0819702148 0.669921875 -0.73828125
vn -0.580078125 -0.385498047 0.717773438
vn 0.0277099609 -0.937988281 0.345214844
vn 0.0621337891 -0.912109375 0.404785156
vn 0.0820922852 -0.836914062 0.541503906
vn -0.211914062 0.977050781 0.0215759277
vn 0.152954102 -0.791992188 0.590820312
vn -0.0299987793 0.719238281 -0.693847656
vn 0.0809326172 -0.695800781 0.713867188
vn -0.211914062 0.977050781 0.0215759277
vn 0.206176758 -0.84375 0.495117188
vn -0.148803711 0.919433594 -0.364013672
vn -0.063659668 -0.899414062 0.432617188
vn 0.515136719 0.794433594 -0.321777344
vn -0.16003418 0.963867188 0.212768555
vn -0.53515625 0.633300781 -0.559082031
vn -0.180297852 0.802246094 -0.569335938
vn -0.0881347656 0.64453125 -0.759277344
vn 0.206176758 -0.84375 0.495117188
vn 0.000737190247 0.703125 -0.7109375
vn 0.265380859 0.658691406 -0.704101562
vn 0.0621337891 -0.912109375 0.404785156
vn 0.152954102 -0.791992188 0.590820312
vn 0.479736328 -0.875976562 0.0524597168
vn 0.722167969 -0.550292969 0.419677734
vn 0.914550781 0.236206055 -0.328857422
vn 0.152954102 -0.791992188 0.590820312
vn -0.0881347656 0.64453125 -0.759277344
vn 0.206176758 -0.84375 0.495117188
vn 0.307617188 0.815917969 0.489990234
vn 0.291748047 0.810546875 0.508300781
vn 0.55859375 0.801757812 -0.212890625
vn 0.363769531 0.877441406 0.312011719
vn 0.459228516 0.695800781 0.552246094
vn 0.521972656 0.618164062 -0.587890625
vn 0.50390625 0.863769531 -0.0152435303
vn 0.303710938 0.585449219 -0.751464844
vn 0.708984375 0.356933594 0.608398438
vn 0.716308594 0.65625 -0.237426758
vn 0.828613281 0.0505371094 0.557617188
vn 0.349121094 0.918457031 -0.185180664
vn 0.274414062 0.861328125 -0.427734375
vn 0.387207031 0.6875 -0.614257812
vn 0.212036133 0.784667969 -0.582519531
vn 0.78125 0.426025391 -0.456054688
vn 0.858886719 -0.286621094 0.424560547
vn 0.747070312 0.116577148 -0.654785156
vn 0.717285156 -0.677246094 0.163330078
vn 0.291503906 0.498779297 -0.81640625
vn 0.253173828 0.486328125 -0.836425781
vn -0.0496520996 0.826171875 -0.561035156
vn 0.124267578 0.58984375 -0.797851562
vn 0.071472168 0.556152344 -0.828125
vn 0.178833008 0.562011719 -0.807617188
vn -0.0639648438 0.772949219 -0.630859375
vn -0.076171875 0.86328125 -0.498535156
vn -0.157470703 0.845214844 -0.510253906
vn 0.132446289 0.558105469 -0.818847656
vn -0.13293457 0.814941406 -0.563964844
vn -0.150878906 0.875488281 -0.458984375
vn -0.2890625 0.839355469 -0.459960938
vn -0.313720703 0.905273438 -0.286132812
vn -0.662597656 0.74609375 -0.0629272461
vn -0.579101562 0.814941406 0.0215148926
vn -0.714355469 0.679199219 -0.169067383
vn -0.241455078 0.772949219 -0.586914062
vn -0.543457031 0.717773438 -0.435546875
vn 0.016708374 0.735839844 -0.677246094
vn -0.343261719 0.623046875 -0.702636719
vn -0.845703125 0.335205078 -0.415771484
vn -0.201538086 0.809570312 -0.551269531
vn -0.00276947021 0.654785156 -0.755859375
vn -0.391357422 0.621582031 -0.678222656
vn -0.959960938 0.095703125 -0.263916016
vn -0.467285156 0.313964844 -0.826660156
vn -0.734863281 -0.291503906 -0.612304688
vn -0.439941406 -0.670410156 -0.597167969
vn -0.112976074 0.652832031 -0.749023438
vn -0.00156021118 0.658203125 -0.752929688
vn -0.0950927734 0.501464844 -0.859863281
vn 0.147705078 0.5625 -0.813476562
vn -0.141601562 0.555175781 -0.819824219
vn -0.0645751953 0.489501953 -0.869628906
vn 0.312255859 0.573242188 -0.7578125
vn -0.274902344 0.142456055 -0.950683594
vn -0.432128906 -0.032989502 -0.901367188
vn 0.284179688 -0.0603637695 -0.95703125
vn 0.338623047 0.0704956055 -0.938476562
vn 0.452392578 -0.819824219 -0.350830078
vn -0.00506973267 0.0346069336 -0.999511719
vn 0.745117188 0.0590209961 -0.664550781
vn 0.381835938 -0.91015625 -0.159912109
vn 0.194702148 -0.939453125 -0.281738281
vn 0.340332031 -0.823242188 -0.454589844
vn -0.00625991821 -0.919921875 -0.392333984
vn 0.112854004 -0.811523438 -0.573242188
vn -0.456054688 0.0682983398 -0.887207031
vn -0.661621094 0.370361328 -0.65234375
vn -0.242431641 0.584472656 -0.774414062
vn -0.142089844 0.475585938 -0.868164062
vn -0.673339844 0.426513672 -0.604003906
vn -0.89453125 -0.32421875 -0.307373047
vn -0.242431641 0.584472656 -0.774414062
vn -0.9375 0.161621094 -0.307617188
vn -0.870605469 -0.44140625 0.216796875
vn -0.673339844 0.426513672 -0.604003906
vn -0.157470703 0.845214844 -0.510253906
vn -0.2890625 0.839355469 -0.459960938
vn -0.8984375 -0.137451172 -0.416748047
vn -0.662597656 0.74609375 -0.0629272461
vn -0.981933594 -0.0847167969 0.170043945
vn -0.467285156 -0.670898438 0.575683594
vn -0.951171875 -0.291015625 0.104797363
vn -0.727050781 0.595703125 0.340820312
vn -0.591796875 0.532714844 0.60546875
vn -0.685546875 -0.244995117 0.685546875
vn -0.644042969 -0.437744141 0.627441406
vn -0.348144531 0.520996094 0.779296875
vn -0.303222656 -0.432861328 0.849121094
vn -0.0841674805 0.678222656 0.729980469
vn -0.33984375 -0.2421875 0.908691406
vn -0.154907227 -0.718261719 0.678222656
vn 0.161376953 -0.321533203 0.933105469
vn 0.120239258 -0.124816895 0.984863281
vn 0.277099609 -0.694335938 0.6640625
vn 0.495117188 0.0283813477 0.868164062
vn 0.750488281 -0.380859375 0.540039062
vn 0.769042969 -0.274414062 0.577148438
vn 0.561523438 -0.218383789 0.797851562
vn 0.142700195 0.736816406 0.660644531
vn 0.77734375 0.211914062 0.592285156
vn 0.846679688 0.468261719 -0.252685547
vn 0.853515625 -0.0871582031 0.513183594
vn 0.291748047 0.810546875 0.508300781
vn 0.743652344 0.58203125 -0.328857422
vn 0.598144531 0.501953125 -0.624511719
vn 0.983398438 0.115966797 0.139160156
vn 0.55859375 0.801757812 -0.212890625
vn 0.521972656 0.618164062 -0.587890625
vn 0.54296875 0.65234375 -0.528808594
vn 0.628417969 0.3828125 -0.677246094
vn 0.387207031 0.6875 -0.614257812
vn 0.431640625 0.677246094 -0.595703125
vn 0.345214844 0.571777344 -0.744140625
vn 0.000885009766 0.5078125 -0.861328125
vn 0.240112305 0.352050781 -0.904785156
vn 0.375976562 0.630859375 -0.678710938
vn 0.4765625 0.326904297 -0.815917969
vn 0.212036133 0.784667969 -0.582519531
vn -0.157470703 0.845214844 -0.510253906
vn -0.242431641 0.584472656 -0.774414062
vn -0.242431641 0.584472656 -0.774414062
vn -0.142089844 0.475585938 -0.868164062
vn -0.89453125 -0.32421875 -0.307373047
vn -0.902832031 -0.357177734 -0.239990234
vn -0.975097656 -0.218261719 -0.044708252
vn -0.870605469 -0.44140625 0.216796875
vn -0.841796875 -0.532226562 0.0913085938
vn -0.437011719 -0.700195312 0.564941406
vn -0.467285156 -0.670898438 0.575683594
vn -0.479248047 -0.67578125 0.560058594
vn -0.154907227 -0.718261719 0.678222656
vn -0.218383789 -0.794433594 0.56640625
vn 0.222045898 -0.714355469 0.6640625
vn 0.277099609 -0.694335938 0.6640625
vn 0.649902344 -0.485595703 0.584472656
vn 0.750488281 -0.380859375 0.540039062
vn 0.832519531 -0.254394531 0.492431641
vn 0.769042969 -0.274414062 0.577148438
vn -0.661621094 0.370361328 -0.65234375
vn -0.902832031 -0.357177734 -0.239990234
vn -0.89453125 -0.32421875 -0.307373047
vn -0.775878906 0.0668945312 -0.626953125
vn -0.437255859 0.28125 -0.854492188
vn -0.142089844 0.475585938 -0.868164062
vn -0.0301361084 0.207641602 -0.977539062
vn -0.263671875 0.372314453 -0.890136719
vn -0.124328613 0.24609375 -0.961425781
vn 0.000885009766 0.5078125 -0.861328125
vn 0.345214844 0.571777344 -0.744140625
vn 0.462158203 0.268310547 -0.845214844
vn 0.468994141 0.153930664 -0.869628906
vn 0.598144531 0.501953125 -0.624511719
vn 0.724609375 0.403564453 -0.55859375
vn 0.846679688 0.468261719 -0.252685547
vn 0.699707031 -0.506835938 0.503417969
vn 0.769042969 -0.274414062 0.577148438
vn 0.832519531 -0.254394531 0.492431641
vn -0.579101562 0.814941406 0.0215148926
vn -0.662597656 0.74609375 -0.0629272461
vn -0.727050781 0.595703125 0.340820312
vn -0.670898438 0.717773438 0.187133789
vn -0.84375 0.531738281 0.0752563477
vn -0.714355469 0.679199219 -0.169067383
vn -0.845703125 0.335205078 -0.415771484
vn -0.6171875 0.72265625 0.312011719
vn -0.591796875 0.532714844 0.60546875
vn -0.978027344 0.204345703 -0.0451660156
vn -0.959960938 0.095703125 -0.263916016
vn -0.520996094 0.663574219 0.537109375
vn -0.348144531 0.520996094 0.779296875
vn -0.774902344 0.513183594 0.369384766
vn -0.635742188 0.473876953 0.608886719
vn -0.985839844 -0.101318359 -0.134887695
vn -0.734863281 -0.291503906 -0.612304688
vn -0.935058594 0.109558105 0.336914062
vn -0.875 -0.421875 -0.237060547
vn -0.793945312 -0.584472656 0.16809082
vn -0.439941406 -0.670410156 -0.597167969
vn -0.932617188 -0.232299805 0.276123047
vn -0.589355469 -0.729980469 -0.345214844
vn -0.738769531 -0.312255859 0.597167969
vn -0.755859375 0.0561523438 0.65234375
vn -0.481689453 0.452880859 0.750488281
vn -0.0774536133 -0.979003906 -0.188354492
vn -0.00625991821 -0.919921875 -0.392333984
vn 0.194702148 -0.939453125 -0.281738281
vn -0.563964844 -0.824707031 0.0421142578
vn 0.0301208496 -0.99609375 -0.0805664062
vn 0.381835938 -0.91015625 -0.159912109
vn -0.302734375 -0.931640625 0.200073242
vn -0.572265625 -0.701660156 0.425048828
vn -0.194580078 -0.940429688 0.278564453
vn 0.243652344 -0.969238281 0.0322570801
vn 0.717285156 -0.677246094 0.163330078
vn -0.365722656 -0.732421875 0.57421875
vn -0.0523986816 -0.918457031 0.392089844
vn 0.547363281 -0.741210938 0.388183594
vn 0.858886719 -0.286621094 0.424560547
vn 0.187744141 -0.8359375 0.516113281
vn 0.570800781 -0.421142578 0.705078125
vn 0.828613281 0.0505371094 0.557617188
vn -0.157836914 -0.701171875 0.6953125
vn 0.163208008 -0.583984375 0.794921875
vn 0.520996094 -0.0999145508 0.84765625
vn 0.708984375 0.356933594 0.608398438
vn -0.247802734 -0.311279297 0.917480469
vn 0.117431641 -0.231567383 0.965820312
vn 0.438964844 0.208618164 0.874023438
vn 0.459228516 0.695800781 0.552246094
vn -0.507324219 -0.334228516 0.794433594
vn -0.291503906 0.0554504395 0.955078125
vn -0.538574219 0.0470275879 0.841308594
vn 0.266845703 0.586914062 0.764160156
vn 0.307617188 0.815917969 0.489990234
vn 0.0627441406 0.0997924805 0.993164062
vn -0.310546875 0.460449219 0.831542969
vn -0.0356750488 0.494140625 0.868652344
vn 0.137695312 0.75390625 0.642089844
vn 0.291748047 0.810546875 0.508300781
vn 0.142700195 0.736816406 0.660644531
vn -0.0841674805 0.678222656 0.729980469
vn -0.098449707 0.692382812 0.71484375
vn -0.303222656 0.654296875 0.692871094
vn -0.4140625 0.641601562 0.645507812
vn -0.659667969 0.130737305 0.739746094
vn -0.80078125 -0.583007812 0.139038086
vn -0.6328125 0.774414062 0.00845336914
vn -0.322021484 0.71875 -0.616210938
vn -0.352294922 0.389648438 -0.851074219
vn -0.322021484 0.71875 -0.616210938
vn -0.352294922 0.389648438 -0.851074219
vn 0.549804688 -0.647949219 0.526855469
vn 0.595214844 0.717285156 0.363037109
vn 0.186523438 0.0858764648 0.978515625
vn -0.352294922 0.389648438 -0.851074219
vn -0.352294922 0.389648438 -0.851074219
vn -0.80078125 -0.583007812 0.139038086
vn -0.195922852 -0.823242188 0.532714844
vn 0.549804688 -0.647949219 0.526855469
vn -0.352294922 0.389648438 -0.851074219
vn 0.186523438 0.0858764648 0.978515625
vn -0.267333984 0.0568847656 0.961914062
vn -0.659667969 0.130737305 0.739746094
vn 0.595214844 0.717285156 0.363037109
vn -0.6328125 0.774414062 0.00845336914
vn -0.00910186768 0.973144531 0.229980469
vn -0.322021484 0.71875 -0.616210938
vn -0.322021484 0.71875 -0.616210938
vn -0.352294922 0.389648438 -0.851074219
vn -0.322021484 0.71875 -0.616210938
vn -0.352294922 0.389648438 -0.851074219
vn -0.352294922 0.389648438 -0.851074219
vn -0.816894531 -0.00072145462 -0.576660156
vn 0.0411376953 0.997070312 0.0646362305
vn -0.772949219 -0.0402832031 -0.633300781
vn 0.0352783203 0.999023438 0.0291137695
vn -0.633300781 0.735839844 0.240722656
vn 0.485351562 0.0198669434 0.874023438
vn 0.0693359375 0.997070312 -0.0246734619
vn -0.633300781 0.735839844 0.240722656
vn 0.562011719 0.826171875 0.0410461426
vn -0.0560913086 -0.944824219 0.322265625
vn 0.0794677734 0.990234375 -0.112487793
vn -0.606933594 0.753417969 0.252197266
vn -0.0534057617 -0.979980469 0.191894531
vn -0.772949219 -0.0402832031 -0.633300781
vn -0.816894531 -0.00072145462 -0.576660156
vn 0.562011719 0.826171875 0.0410461426
vn -0.0448913574 -0.990234375 0.130371094
vn -0.633300781 0.735839844 0.240722656
vn 0.139282227 0.962402344 -0.233276367
vn -0.606933594 0.753417969 0.252197266
vn 0.719726562 0.659179688 -0.218505859
vn -0.0979614258 -0.983886719 0.148071289
vn -0.633300781 0.735839844 0.240722656
vn 0.172363281 0.937988281 -0.300537109
vn -0.740234375 0.637695312 -0.212524414
vn 0.719726562 0.659179688 -0.218505859
vn -0.146606445 -0.958984375 0.243286133
vn -0.606933594 0.753417969 0.252197266
vn 0.212280273 0.874511719 -0.435546875
vn -0.740234375 0.637695312 -0.212524414
vn 0.367431641 0.583496094 -0.724121094
vn 0.657226562 0.73046875 -0.184448242
vn -0.211303711 -0.906738281 0.365478516
vn -0.606933594 0.753417969 0.252197266
vn -0.740234375 0.637695312 -0.212524414
vn 0.486572266 0.7734375 -0.406005859
vn 0.178344727 0.4453125 -0.877441406
vn -0.165161133 -0.931152344 0.324951172
vn 0.0451660156 -0.997558594 -0.0538024902
vn -0.740234375 0.637695312 -0.212524414
vn -0.32421875 -0.937988281 -0.121337891
vn 0.767089844 -0.61328125 0.188842773
vn 0.233398438 -0.901367188 0.365234375
vn -0.623046875 -0.746582031 0.232299805
vn 0.190185547 -0.908203125 0.372314453
vn -0.226928711 -0.658203125 0.717773438
vn 0.233398438 -0.901367188 0.365234375
vn 0.0884399414 -0.951660156 0.293457031
vn -0.349121094 0.750976562 -0.560058594
vn -0.252929688 0.606933594 -0.753417969
vn -0.32421875 -0.937988281 -0.121337891
vn -0.676269531 0.643554688 -0.358398438
vn -0.623046875 -0.746582031 0.232299805
vn -0.93359375 0.332519531 -0.131835938
vn 0.50390625 0.782714844 -0.365722656
vn 0.119995117 0.973632812 -0.193847656
vn -0.364257812 0.930175781 -0.041595459
vn -0.276611328 0.729003906 -0.626464844
vn -0.0935668945 0.66015625 -0.745605469
vn 0.0790405273 -0.969726562 0.230957031
vn -0.0806884766 0.6015625 -0.794921875
vn 0.298095703 0.919921875 -0.254394531
vn -0.93359375 0.332519531 -0.131835938
vn -0.650390625 0.588378906 -0.48046875
vn -0.497558594 0.573242188 0.651367188
vn 0.0884399414 -0.951660156 0.293457031
vn 0.233398438 -0.901367188 0.365234375
vn 0.0790405273 -0.969726562 0.230957031
vn 0.767089844 -0.61328125 0.188842773
vn 0.159912109 -0.946777344 0.280029297
vn 0.190185547 -0.908203125 0.372314453
vn -0.328125 0.782226562 -0.529785156
vn 0.108276367 -0.91015625 0.399902344
vn -0.323974609 0.895019531 -0.306152344
vn 0.0931396484 -0.993652344 0.0667724609
vn -0.258789062 0.736328125 -0.625488281
vn 0.379882812 0.905761719 -0.188720703
vn -0.2734375 0.956054688 0.10345459
vn -0.473144531 0.869140625 0.143798828
vn 0.0931396484 -0.993652344 0.0667724609
vn -0.583007812 0.772949219 0.249633789
vn 0.159912109 -0.946777344 0.280029297
vn 0.108276367 -0.91015625 0.399902344
vn 0.190185547 -0.908203125 0.372314453
vn -0.226928711 -0.658203125 0.717773438
vn -0.93359375 0.332519531 -0.131835938
vn -0.623046875 -0.746582031 0.232299805
vn 0.0790405273 -0.969726562 0.230957031
vn 0.159912109 -0.946777344 0.280029297
vn -0.0935668945 0.66015625 -0.745605469
vn 0.108276367 -0.91015625 0.399902344
vn -0.2734375 0.956054688 0.10345459
vn 0.0931396484 -0.993652344 0.0667724609
vn 0.0931396484 -0.993652344 0.0667724609
vn 0.190185547 -0.908203125 0.372314453
vn -0.473144531 0.869140625 0.143798828
vn 0.0884399414 -0.951660156 0.293457031
vn 0.0790405273 -0.969726562 0.230957031
vn -0.276611328 0.729003906 -0.626464844
vn 0.406738281 0.630859375 -0.660644531
vn 0.909667969 -0.000354528427 -0.415039062
vn -0.15246582 0.976074219 -0.155883789
vn -0.0825195312 0.995117188 -0.0569152832
vn 0.381835938 0.729492188 -0.567382812
vn -0.715332031 0.264160156 0.646972656
vn 0.0353088379 0.998046875 -0.0547180176
vn 0.322753906 0.696777344 -0.640625
vn -0.934082031 0.0121688843 0.356689453
vn -0.0821533203 -0.791503906 0.60546875
vn 0.0334472656 0.991699219 -0.12487793
vn 0.322753906 0.696777344 -0.640625
vn -0.0953369141 -0.937988281 0.333251953
vn 0.909667969 -0.000354528427 -0.415039062
vn 0.406738281 0.630859375 -0.660644531
vn -0.989746094 0.0271148682 0.139770508
vn -0.050994873 -0.989746094 0.133300781
vn 0.381835938 0.729492188 -0.567382812
vn 0.0407714844 0.953613281 -0.298095703
vn 0.645019531 0.616210938 -0.451660156
vn -0.994140625 0.0646362305 0.0850830078
vn -0.0507507324 -0.984375 0.169799805
vn 0.322753906 0.696777344 -0.640625
vn 0.067565918 0.934570312 -0.348876953
vn 0.645019531 0.616210938 -0.451660156
vn -0.996582031 0.0778808594 -0.0218353271
vn -0.0648803711 -0.947753906 0.311767578
vn 0.322753906 0.696777344 -0.640625
vn 0.0946044922 0.870605469 -0.482910156
vn 0.439941406 0.587402344 -0.679199219
vn 0.0748901367 0.5390625 -0.838867188
vn -0.997070312 0.0770263672 -0.0121612549
vn -0.0667724609 -0.904785156 0.420898438
vn 0.645019531 0.616210938 -0.451660156
vn 0.645019531 0.616210938 -0.451660156
vn -0.9921875 0.0313720703 -0.119445801
vn -0.84765625 -0.169311523 -0.502929688
vn -0.0745239258 -0.926269531 0.369384766
vn -0.0738525391 -0.993164062 -0.0881347656
vn 0.439941406 0.587402344 -0.679199219
vn 0.479736328 -0.875976562 0.0524597168
vn 0.0621337891 -0.912109375 0.404785156
vn -0.580078125 -0.385498047 0.717773438
vn 0.722167969 -0.550292969 0.419677734
vn 0.0277099609 -0.937988281 0.345214844
vn -0.0814208984 0.996582031 -0.0104598999
vn 0.206176758 -0.84375 0.495117188
vn -0.180297852 0.802246094 -0.569335938
vn -0.53515625 0.633300781 -0.559082031
vn -0.063659668 -0.899414062 0.432617188
vn -0.16003418 0.963867188 0.212768555
vn -0.16003418 0.963867188 0.212768555
vn 0.0809326172 -0.695800781 0.713867188
vn -0.740234375 0.637695312 -0.212524414
vn 0.0451660156 -0.997558594 -0.0538024902
vn 0.178344727 0.4453125 -0.877441406
vn 0.367431641 0.583496094 -0.724121094
vn -0.84765625 -0.169311523 -0.502929688
vn -0.0738525391 -0.993164062 -0.0881347656
vn 0.439941406 0.587402344 -0.679199219
vn 0.0748901367 0.5390625 -0.838867188
vn 0.630859375 0.737792969 -0.240478516
vn 0.243164062 0.809082031 -0.534667969
vn -0.179931641 -0.895507812 0.407470703
vn -0.407958984 0.862304688 0.300537109
vn -0.407958984 0.862304688 0.300537109
vn 0.243164062 0.809082031 -0.534667969
vn -0.397460938 0.510742188 0.762207031
vn 0.630859375 0.737792969 -0.240478516
vn -0.179931641 -0.895507812 0.407470703
vn -0.407958984 0.862304688 0.300537109
vn -0.997558594 0.049407959 -0.0507507324
vn -0.0840454102 -0.91015625 0.405273438
vn 0.0951538086 0.848632812 -0.520507812
vn 0.445556641 0.833007812 -0.328125
vn 0.0235900879 0.474609375 0.879882812
vn 0.445556641 0.833007812 -0.328125
vn -0.0840454102 -0.91015625 0.405273438
vn -0.997558594 0.049407959 -0.0507507324
vn 0.0951538086 0.848632812 -0.520507812
vn 0.445556641 0.833007812 -0.328125
vn -0.124328613 0.24609375 -0.961425781
vn 0.462158203 0.268310547 -0.845214844
vn -0.0736694336 0.923339844 0.377197266
vn 0.0667724609 0.981933594 0.176391602
vn -0.263671875 0.372314453 -0.890136719
vn 0.230957031 0.885742188 -0.402832031
vn 0.053527832 0.997070312 -0.0518493652
vn -0.0961303711 0.877929688 0.469482422
vn -0.0301361084 0.207641602 -0.977539062
vn 0.468994141 0.153930664 -0.869628906
vn 0.0718994141 0.927246094 0.367919922
vn -0.437255859 0.28125 -0.854492188
vn -0.529785156 0.815429688 0.233520508
vn 0.724609375 0.403564453 -0.55859375
vn -0.309326172 0.828613281 0.466064453
vn -0.775878906 0.0668945312 -0.626953125
vn -0.604492188 0.795410156 -0.0378723145
vn 0.699707031 -0.506835938 0.503417969
vn 0.536621094 0.726074219 0.429931641
vn -0.902832031 -0.357177734 -0.239990234
vn -0.46875 0.85546875 -0.220825195
vn 0.765625 0.641113281 0.0516967773
vn -0.6875 0.72265625 -0.0698242188
vn 0.832519531 -0.254394531 0.492431641
vn -0.975097656 -0.218261719 -0.044708252
vn 0.649902344 -0.485595703 0.584472656
vn 0.487792969 0.795410156 -0.359375
vn -0.841796875 -0.532226562 0.0913085938
vn -0.272949219 0.629882812 -0.727539062
vn 0.222045898 -0.714355469 0.6640625
vn 0.286621094 0.733886719 -0.616210938
vn -0.437011719 -0.700195312 0.564941406
vn 0.20690918 0.680175781 -0.703125
vn -0.218383789 -0.794433594 0.56640625
vn 0.302978516 0.706542969 -0.639648438
vn -0.479248047 -0.67578125 0.560058594
vn 0.287597656 0.751953125 -0.593261719
g DropItemMiddle_0
f 3/3/3 2/2/2 1/1/1
f 5/5/5 1/1/1 4/4/4
f 6/6/6 5/5/5 4/4/4
f 6/6/6 4/4/4 7/7/7
f 5/5/5 8/8/8 1/1/1
f 1/1/1 8/8/8 9/9/9
f 9/9/9 8/8/8 10/10/10
f 8/8/8 11/11/11 10/10/10
f 8/8/8 5/5/5 11/11/11
f 10/10/10 11/11/11 12/12/12
f 11/11/11 13/13/13 12/12/12
f 5/5/5 14/14/14 11/11/11
f 13/13/13 11/11/11 14/14/14
f 5/5/5 6/6/6 15/15/15
f 16/16/16 5/5/5 15/15/15
f 14/14/14 5/5/5 16/16/16
f 15/15/15 6/6/6 17/17/17
f 18/18/18 14/14/14 16/16/16
f 6/6/6 19/19/19 17/17/17
f 17/17/17 19/19/19 20/20/20
f 19/19/19 6/6/6 7/7/7
f 21/21/21 14/14/14 18/18/18
f 21/21/21 13/13/13 14/14/14
f 22/22/22 21/21/21 18/18/18
f 19/19/19 23/23/23 20/20/20
f 20/20/20 23/23/23 24/24/24
f 23/23/23 25/25/25 24/24/24
f 24/24/24 25/25/25 26/26/26
f 26/26/26 27/27/27 22/22/22
f 27/27/27 21/21/21 22/22/22
f 25/25/25 27/27/27 26/26/26
f 28/28/28 13/13/13 21/21/21
f 28/28/28 21/21/21 27/27/27
f 29/29/29 28/28/28 27/27/27
f 29/29/29 27/27/27 25/25/25
f 30/30/30 29/29/29 25/25/25
f 30/30/30 25/25/25 31/31/31
f 30/30/30 31/31/31 32/32/32
f 31/31/31 25/25/25 33/33/33
f 25/25/25 23/23/23 33/33/33
f 19/19/19 34/34/34 23/23/23
f 34/34/34 33/33/33 23/23/23
f 34/34/34 19/19/19 7/7/7
f 33/33/33 34/34/34 35/35/35
f 36/36/36 33/33/33 35/35/35
f 35/35/35 34/34/34 37/37/37
f 34/34/34 7/7/7 37/37/37
f 37/37/37 7/7/7 38/38/38
f 7/7/7 39/39/39 38/38/38
f 41/41/41 33/33/33 40/40/40
f 42/42/42 41/41/41 40/40/40
f 45/45/45 44/44/44 43/43/43
f 46/46/46 45/45/45 43/43/43
f 43/43/43 47/47/47 46/46/46
f 48/48/48 45/45/45 46/46/46
f 47/47/47 49/49/49 46/46/46
f 46/46/46 49/49/49 50/50/50
f 49/49/49 47/47/47 51/51/51
f 52/52/52 49/49/49 51/51/51
f 50/50/50 49/49/49 52/52/52
f 52/52/52 51/51/51 53/53/53
f 54/54/54 48/48/48 46/46/46
f 54/54/54 46/46/46 50/50/50
f 48/48/48 54/54/54 55/55/55
f 55/55/55 54/54/54 50/50/50
f 56/56/56 48/48/48 55/55/55
f 56/56/56 55/55/55 57/57/57
f 58/58/58 52/52/52 53/53/53
f 58/58/58 53/53/53 59/59/59
f 60/60/60 58/58/58 59/59/59
f 59/59/59 61/61/61 60/60/60
f 52/52/52 58/58/58 62/62/62
f 62/62/62 58/58/58 60/60/60
f 63/63/63 50/50/50 52/52/52
f 63/63/63 52/52/52 62/62/62
f 55/55/55 64/64/64 57/57/57
f 55/55/55 50/50/50 65/65/65
f 55/55/55 65/65/65 64/64/64
f 50/50/50 63/63/63 66/66/66
f 65/65/65 50/50/50 66/66/66
f 63/63/63 62/62/62 67/67/67
f 66/66/66 63/63/63 67/67/67
f 65/65/65 66/66/66 68/68/68
f 65/65/65 68/68/68 64/64/64
f 64/64/64 69/69/69 57/57/57
f 69/69/69 70/70/70 57/57/57
f 66/66/66 71/71/71 68/68/68
f 66/66/66 67/67/67 71/71/71
f 68/68/68 72/72/72 64/64/64
f 72/72/72 69/69/69 64/64/64
f 68/68/68 71/71/71 72/72/72
f 69/69/69 73/73/73 70/70/70
f 73/73/73 69/69/69 72/72/72
f 70/70/70 73/73/73 74/74/74
f 73/73/73 75/75/75 74/74/74
f 76/76/76 74/74/74 75/75/75
f 77/77/77 76/76/76 75/75/75
f 78/78/78 77/77/77 75/75/75
f 79/79/79 73/73/73 72/72/72
f 75/75/75 73/73/73 79/79/79
f 80/80/80 78/78/78 75/75/75
f 80/80/80 75/75/75 79/79/79
f 72/72/72 81/81/81 79/79/79
f 71/71/71 81/81/81 72/72/72
f 78/78/78 80/80/80 82/82/82
f 83/83/83 78/78/78 82/82/82
f 79/79/79 84/84/84 80/80/80
f 81/81/81 84/84/84 79/79/79
f 84/84/84 82/82/82 80/80/80
f 81/81/81 71/71/71 85/85/85
f 81/81/81 85/85/85 84/84/84
f 83/83/83 82/82/82 86/86/86
f 87/87/87 83/83/83 86/86/86
f 87/87/87 86/86/86 88/88/88
f 89/89/89 87/87/87 88/88/88
f 90/90/90 89/89/89 88/88/88
f 84/84/84 91/91/91 82/82/82
f 91/91/91 86/86/86 82/82/82
f 85/85/85 91/91/91 84/84/84
f 88/88/88 86/86/86 91/91/91
f 71/71/71 92/92/92 85/85/85
f 67/67/67 92/92/92 71/71/71
f 93/93/93 91/91/91 85/85/85
f 93/93/93 88/88/88 91/91/91
f 67/67/67 94/94/94 92/92/92
f 67/67/67 62/62/62 94/94/94
f 95/95/95 85/85/85 92/92/92
f 95/95/95 93/93/93 85/85/85
f 96/96/96 95/95/95 92/92/92
f 94/94/94 96/96/96 92/92/92
f 62/62/62 97/97/97 94/94/94
f 97/97/97 62/62/62 60/60/60
f 95/95/95 98/98/98 93/93/93
f 95/95/95 96/96/96 98/98/98
f 93/93/93 99/99/99 88/88/88
f 98/98/98 99/99/99 93/93/93
f 94/94/94 100/100/100 96/96/96
f 94/94/94 97/97/97 100/100/100
f 97/97/97 60/60/60 101/101/101
f 97/97/97 101/101/101 100/100/100
f 100/100/100 101/101/101 102/102/102
f 100/100/100 103/103/103 96/96/96
f 96/96/96 103/103/103 98/98/98
f 100/100/100 102/102/102 103/103/103
f 60/60/60 104/104/104 101/101/101
f 101/101/101 104/104/104 102/102/102
f 61/61/61 104/104/104 60/60/60
f 61/61/61 102/102/102 104/104/104
f 61/61/61 105/105/105 102/102/102
f 105/105/105 106/106/106 102/102/102
f 102/102/102 107/107/107 103/103/103
f 106/106/106 107/107/107 102/102/102
f 107/107/107 98/98/98 103/103/103
f 106/106/106 108/108/108 107/107/107
f 107/107/107 109/109/109 98/98/98
f 108/108/108 109/109/109 107/107/107
f 109/109/109 99/99/99 98/98/98
f 108/108/108 90/90/90 109/109/109
f 109/109/109 110/110/110 99/99/99
f 90/90/90 110/110/110 109/109/109
f 99/99/99 110/110/110 88/88/88
f 110/110/110 90/90/90 88/88/88
f 113/113/113 112/112/112 111/111/111
f 112/112/112 114/114/114 111/111/111
f 115/115/115 111/111/111 114/114/114
f 112/112/112 116/116/116 114/114/114
f 117/117/117 115/115/115 114/114/114
f 118/118/118 115/115/115 117/117/117
f 116/116/116 119/119/119 114/114/114
f 117/117/117 114/114/114 119/119/119
f 116/116/116 120/120/120 119/119/119
f 120/120/120 121/121/121 119/119/119
f 122/122/122 119/119/119 121/121/121
f 122/122/122 117/117/117 119/119/119
f 123/123/123 122/122/122 121/121/121
f 124/124/124 118/118/118 117/117/117
f 124/124/124 117/117/117 122/122/122
f 125/125/125 118/118/118 124/124/124
f 126/126/126 122/122/122 123/123/123
f 126/126/126 124/124/124 122/122/122
f 127/127/127 126/126/126 123/123/123
f 126/126/126 127/127/127 128/128/128
f 129/129/129 125/125/125 124/124/124
f 129/129/129 124/124/124 126/126/126
f 130/130/130 126/126/126 128/128/128
f 130/130/130 129/129/129 126/126/126
f 130/130/130 128/128/128 131/131/131
f 132/132/132 130/130/130 131/131/131
f 130/130/130 132/132/132 129/129/129
f 131/131/131 133/133/133 132/132/132
f 129/129/129 134/134/134 125/125/125
f 132/132/132 134/134/134 129/129/129
f 134/134/134 135/135/135 125/125/125
f 133/133/133 136/136/136 132/132/132
f 132/132/132 136/136/136 134/134/134
f 134/134/134 137/137/137 135/135/135
f 136/136/136 137/137/137 134/134/134
f 137/137/137 138/138/138 135/135/135
f 137/137/137 139/139/139 138/138/138
f 137/137/137 136/136/136 139/139/139
f 139/139/139 140/140/140 138/138/138
f 141/141/141 140/140/140 139/139/139
f 136/136/136 133/133/133 142/142/142
f 136/136/136 142/142/142 139/139/139
f 133/133/133 143/143/143 142/142/142
f 144/144/144 141/141/141 139/139/139
f 144/144/144 139/139/139 142/142/142
f 145/145/145 141/141/141 144/144/144
f 146/146/146 142/142/142 143/143/143
f 146/146/146 144/144/144 142/142/142
f 147/147/147 146/146/146 143/143/143
f 148/148/148 145/145/145 144/144/144
f 148/148/148 144/144/144 146/146/146
f 149/149/149 145/145/145 148/148/148
f 150/150/150 146/146/146 147/147/147
f 150/150/150 148/148/148 146/146/146
f 151/151/151 150/150/150 147/147/147
f 150/150/150 151/151/151 152/152/152
f 153/153/153 149/149/149 148/148/148
f 153/153/153 148/148/148 150/150/150
f 154/154/154 150/150/150 152/152/152
f 154/154/154 153/153/153 150/150/150
f 154/154/154 152/152/152 155/155/155
f 149/149/149 153/153/153 156/156/156
f 157/157/157 149/149/149 156/156/156
f 157/157/157 156/156/156 158/158/158
f 153/153/153 154/154/154 159/159/159
f 159/159/159 154/154/154 155/155/155
f 156/156/156 153/153/153 159/159/159
f 156/156/156 160/160/160 158/158/158
f 156/156/156 159/159/159 160/160/160
f 159/159/159 155/155/155 161/161/161
f 159/159/159 161/161/161 160/160/160
f 155/155/155 162/162/162 161/161/161
f 161/161/161 162/162/162 163/163/163
f 164/164/164 161/161/161 163/163/163
f 160/160/160 161/161/161 164/164/164
f 165/165/165 160/160/160 164/164/164
f 158/158/158 160/160/160 165/165/165
f 166/166/166 158/158/158 165/165/165
f 169/169/169 168/168/168 167/167/167
f 170/170/170 169/169/169 167/167/167
f 171/171/171 169/169/169 170/170/170
f 172/172/172 171/171/171 170/170/170
f 173/173/173 172/172/172 170/170/170
f 174/174/174 172/172/172 173/173/173
f 175/175/175 174/174/174 173/173/173
f 176/176/176 174/174/174 175/175/175
f 177/177/177 176/176/176 175/175/175
f 178/178/178 177/177/177 175/175/175
f 179/179/179 177/177/177 178/178/178
f 180/180/180 179/179/179 178/178/178
f 181/181/181 179/179/179 180/180/180
f 182/182/182 181/181/181 180/180/180
f 185/185/185 184/184/184 183/183/183
f 184/184/184 186/186/186 183/183/183
f 183/183/183 186/186/186 187/187/187
f 183/183/183 187/187/187 188/188/188
f 187/187/187 189/189/189 188/188/188
f 189/189/189 190/190/190 188/188/188
f 188/188/188 190/190/190 191/191/191
f 192/192/192 188/188/188 191/191/191
f 192/192/192 191/191/191 193/193/193
f 191/191/191 194/194/194 193/193/193
f 193/193/193 194/194/194 195/195/195
f 193/193/193 195/195/195 196/196/196
f 195/195/195 197/197/197 196/196/196
f 196/196/196 197/197/197 198/198/198
f 197/197/197 199/199/199 198/198/198
f 198/198/198 199/199/199 200/200/200
f 199/199/199 201/201/201 200/200/200
f 204/204/204 203/203/203 202/202/202
f 205/205/205 204/204/204 202/202/202
f 206/206/206 205/205/205 202/202/202
f 207/207/207 206/206/206 202/202/202
f 206/206/206 207/207/207 208/208/208
f 209/209/209 204/204/204 205/205/205
f 206/206/206 209/209/209 205/205/205
f 210/210/210 204/204/204 209/209/209
f 211/211/211 206/206/206 208/208/208
f 211/211/211 208/208/208 212/212/212
f 213/213/213 210/210/210 209/209/209
f 213/213/213 214/214/214 210/210/210
f 206/206/206 215/215/215 209/209/209
f 215/215/215 206/206/206 211/211/211
f 215/215/215 216/216/216 209/209/209
f 216/216/216 213/213/213 209/209/209
f 217/217/217 211/211/211 212/212/212
f 217/217/217 212/212/212 218/218/218
f 219/219/219 215/215/215 211/211/211
f 216/216/216 215/215/215 219/219/219
f 220/220/220 217/217/217 218/218/218
f 220/220/220 221/221/221 217/217/217
f 220/220/220 218/218/218 222/222/222
f 211/211/211 217/217/217 223/223/223
f 219/219/219 211/211/211 223/223/223
f 221/221/221 223/223/223 217/217/217
f 224/224/224 220/220/220 222/222/222
f 220/220/220 224/224/224 221/221/221
f 219/219/219 223/223/223 225/225/225
f 225/225/225 223/223/223 221/221/221
f 226/226/226 216/216/216 219/219/219
f 226/226/226 219/219/219 225/225/225
f 216/216/216 227/227/227 213/213/213
f 216/216/216 226/226/226 227/227/227
f 228/228/228 224/224/224 222/222/222
f 228/228/228 222/222/222 229/229/229
f 228/228/228 229/229/229 230/230/230
f 224/224/224 231/231/231 221/221/221
f 231/231/231 224/224/224 228/228/228
f 232/232/232 228/228/228 230/230/230
f 232/232/232 230/230/230 233/233/233
f 234/234/234 231/231/231 228/228/228
f 221/221/221 231/231/231 234/234/234
f 234/234/234 228/228/228 232/232/232
f 235/235/235 221/221/221 234/234/234
f 235/235/235 225/225/225 221/221/221
f 235/235/235 234/234/234 236/236/236
f 236/236/236 234/234/234 232/232/232
f 237/237/237 232/232/232 233/233/233
f 237/237/237 233/233/233 238/238/238
f 235/235/235 239/239/239 225/225/225
f 239/239/239 235/235/235 236/236/236
f 240/240/240 236/236/236 232/232/232
f 240/240/240 232/232/232 237/237/237
f 239/239/239 236/236/236 240/240/240
f 241/241/241 237/237/237 238/238/238
f 241/241/241 238/238/238 242/242/242
f 243/243/243 240/240/240 237/237/237
f 243/243/243 237/237/237 241/241/241
f 244/244/244 241/241/241 242/242/242
f 242/242/242 245/245/245 244/244/244
f 246/246/246 240/240/240 243/243/243
f 246/246/246 239/239/239 240/240/240
f 243/243/243 241/241/241 247/247/247
f 241/241/241 244/244/244 247/247/247
f 247/247/247 246/246/246 243/243/243
f 245/245/245 248/248/248 244/244/244
f 244/244/244 248/248/248 247/247/247
f 245/245/245 249/249/249 248/248/248
f 246/246/246 250/250/250 239/239/239
f 246/246/246 247/247/247 250/250/250
f 248/248/248 251/251/251 247/247/247
f 247/247/247 251/251/251 250/250/250
f 249/249/249 252/252/252 248/248/248
f 251/251/251 248/248/248 252/252/252
f 249/249/249 253/253/253 252/252/252
f 250/250/250 254/254/254 239/239/239
f 239/239/239 254/254/254 225/225/225
f 226/226/226 225/225/225 254/254/254
f 250/250/250 251/251/251 255/255/255
f 250/250/250 255/255/255 254/254/254
f 256/256/256 226/226/226 254/254/254
f 255/255/255 256/256/256 254/254/254
f 226/226/226 256/256/256 227/227/227
f 253/253/253 257/257/257 252/252/252
f 257/257/257 253/253/253 258/258/258
f 259/259/259 251/251/251 252/252/252
f 251/251/251 259/259/259 255/255/255
f 259/259/259 252/252/252 257/257/257
f 255/255/255 260/260/260 256/256/256
f 260/260/260 227/227/227 256/256/256
f 255/255/255 259/259/259 261/261/261
f 261/261/261 259/259/259 257/257/257
f 260/260/260 255/255/255 261/261/261
f 262/262/262 257/257/257 258/258/258
f 261/261/261 257/257/257 262/262/262
f 258/258/258 263/263/263 262/262/262
f 263/263/263 264/264/264 262/262/262
f 262/262/262 264/264/264 265/265/265
f 266/266/266 261/261/261 262/262/262
f 266/266/266 262/262/262 265/265/265
f 260/260/260 261/261/261 266/266/266
f 266/266/266 265/265/265 214/214/214
f 267/267/267 260/260/260 266/266/266
f 227/227/227 260/260/260 267/267/267
f 267/267/267 266/266/266 214/214/214
f 268/268/268 227/227/227 267/267/267
f 267/267/267 214/214/214 268/268/268
f 227/227/227 268/268/268 213/213/213
f 213/213/213 268/268/268 214/214/214
f 271/271/271 270/270/270 269/269/269
f 271/271/271 272/272/272 270/270/270
f 272/272/272 273/273/273 270/270/270
f 276/276/276 275/275/275 274/274/274
f 274/274/274 277/277/277 276/276/276
f 277/277/277 278/278/278 276/276/276
f 281/281/281 280/280/280 279/279/279
f 282/282/282 281/281/281 279/279/279
f 282/282/282 279/279/279 283/283/283
f 279/279/279 284/284/284 283/283/283
f 282/282/282 283/283/283 285/285/285
f 281/281/281 282/282/282 286/286/286
f 286/286/286 282/282/282 285/285/285
f 287/287/287 281/281/281 286/286/286
f 286/286/286 285/285/285 288/288/288
f 289/289/289 287/287/287 286/286/286
f 290/290/290 286/286/286 288/288/288
f 290/290/290 289/289/289 286/286/286
f 290/290/290 288/288/288 291/291/291
f 290/290/290 292/292/292 289/289/289
f 292/292/292 290/290/290 291/291/291
f 292/292/292 291/291/291 293/293/293
f 292/292/292 294/294/294 289/289/289
f 295/295/295 292/292/292 293/293/293
f 292/292/292 295/295/295 294/294/294
f 295/295/295 296/296/296 294/294/294
f 299/299/299 298/298/298 297/297/297
f 298/298/298 300/300/300 297/297/297
f 297/297/297 300/300/300 301/301/301
f 298/298/298 302/302/302 300/300/300
f 300/300/300 303/303/303 301/301/301
f 304/304/304 301/301/301 303/303/303
f 302/302/302 305/305/305 300/300/300
f 300/300/300 305/305/305 303/303/303
f 302/302/302 306/306/306 305/305/305
f 307/307/307 304/304/304 303/303/303
f 308/308/308 304/304/304 307/307/307
f 306/306/306 309/309/309 305/305/305
f 309/309/309 306/306/306 310/310/310
f 311/311/311 309/309/309 310/310/310
f 305/305/305 312/312/312 303/303/303
f 305/305/305 309/309/309 312/312/312
f 307/307/307 303/303/303 312/312/312
f 313/313/313 309/309/309 311/311/311
f 309/309/309 313/313/313 312/312/312
f 314/314/314 313/313/313 311/311/311
f 315/315/315 308/308/308 307/307/307
f 308/308/308 315/315/315 316/316/316
f 317/317/317 307/307/307 312/312/312
f 317/317/317 312/312/312 313/313/313
f 315/315/315 307/307/307 317/317/317
f 318/318/318 313/313/313 314/314/314
f 318/318/318 317/317/317 313/313/313
f 319/319/319 318/318/318 314/314/314
f 315/315/315 320/320/320 316/316/316
f 321/321/321 316/316/316 320/320/320
f 322/322/322 315/315/315 317/317/317
f 322/322/322 317/317/317 318/318/318
f 315/315/315 322/322/322 320/320/320
f 318/318/318 319/319/319 323/323/323
f 323/323/323 322/322/322 318/318/318
f 319/319/319 324/324/324 323/323/323
f 325/325/325 321/321/321 320/320/320
f 321/321/321 325/325/325 326/326/326
f 325/325/325 327/327/327 326/326/326
f 322/322/322 328/328/328 320/320/320
f 322/322/322 323/323/323 328/328/328
f 325/325/325 320/320/320 328/328/328
f 329/329/329 323/323/323 324/324/324
f 323/323/323 329/329/329 328/328/328
f 330/330/330 329/329/329 324/324/324
f 329/329/329 330/330/330 331/331/331
f 325/325/325 332/332/332 327/327/327
f 332/332/332 325/325/325 328/328/328
f 332/332/332 328/328/328 329/329/329
f 332/332/332 333/333/333 327/327/327
f 334/334/334 332/332/332 329/329/329
f 332/332/332 334/334/334 333/333/333
f 334/334/334 329/329/329 331/331/331
f 334/334/334 335/335/335 333/333/333
f 335/335/335 334/334/334 331/331/331
f 336/336/336 335/335/335 331/331/331
f 339/339/339 338/338/338 337/337/337
f 338/338/338 340/340/340 337/337/337
f 338/338/338 341/341/341 340/340/340
f 341/341/341 342/342/342 340/340/340
f 345/345/345 344/344/344 343/343/343
f 346/346/346 345/345/345 343/343/343
f 346/346/346 343/343/343 347/347/347
f 348/348/348 346/346/346 347/347/347
f 348/348/348 347/347/347 349/349/349
f 350/350/350 348/348/348 349/349/349
f 351/351/351 346/346/346 348/348/348
f 345/345/345 346/346/346 352/352/352
f 346/346/346 351/351/351 352/352/352
f 352/352/352 353/353/353 345/345/345
f 353/353/353 354/354/354 345/345/345
f 353/353/353 355/355/355 354/354/354
f 354/354/354 355/355/355 356/356/356
f 357/357/357 355/355/355 353/353/353
f 358/358/358 351/351/351 348/348/348
f 359/359/359 358/358/358 348/348/348
f 360/360/360 358/358/358 359/359/359
f 361/361/361 360/360/360 359/359/359
f 352/352/352 351/351/351 362/362/362
f 351/351/351 363/363/363 362/362/362
f 351/351/351 358/358/358 363/363/363
f 352/352/352 362/362/362 364/364/364
f 353/353/353 352/352/352 364/364/364
f 358/358/358 365/365/365 363/363/363
f 358/358/358 360/360/360 365/365/365
f 353/353/353 364/364/364 366/366/366
f 360/360/360 367/367/367 365/365/365
f 368/368/368 353/353/353 366/366/366
f 368/368/368 357/357/357 353/353/353
f 368/368/368 366/366/366 369/369/369
f 370/370/370 368/368/368 369/369/369
f 370/370/370 369/369/369 371/371/371
f 372/372/372 371/371/371 367/367/367
f 360/360/360 372/372/372 367/367/367
f 372/372/372 370/370/370 371/371/371
f 370/370/370 373/373/373 368/368/368
f 373/373/373 357/357/357 368/368/368
f 374/374/374 370/370/370 372/372/372
f 374/374/374 373/373/373 370/370/370
f 375/375/375 374/374/374 372/372/372
f 372/372/372 360/360/360 375/375/375
f 374/374/374 375/375/375 376/376/376
f 360/360/360 377/377/377 375/375/375
f 377/377/377 360/360/360 361/361/361
f 357/357/357 373/373/373 378/378/378
f 373/373/373 379/379/379 378/378/378
f 377/377/377 361/361/361 380/380/380
f 361/361/361 381/381/381 380/380/380
f 361/361/361 382/382/382 381/381/381
f 382/382/382 383/383/383 381/381/381
f 357/357/357 385/385/385 384/384/384
f 386/386/386 357/357/357 384/384/384
f 373/373/373 388/388/388 387/387/387
f 388/388/388 389/389/389 387/387/387
f 377/377/377 391/391/391 390/390/390
f 392/392/392 377/377/377 390/390/390
f 395/395/395 394/394/394 393/393/393
f 345/345/345 395/395/395 393/393/393
f 398/398/398 397/397/397 396/396/396
f 399/399/399 398/398/398 396/396/396
f 399/399/399 396/396/396 400/400/400
f 401/401/401 398/398/398 399/399/399
f 402/402/402 399/399/399 400/400/400
f 400/400/400 403/403/403 402/402/402
f 404/404/404 401/401/401 399/399/399
f 404/404/404 399/399/399 402/402/402
f 405/405/405 401/401/401 404/404/404
f 403/403/403 406/406/406 402/402/402
f 403/403/403 407/407/407 406/406/406
f 408/408/408 405/405/405 404/404/404
f 405/405/405 408/408/408 409/409/409
f 408/408/408 410/410/410 409/409/409
f 411/411/411 404/404/404 402/402/402
f 408/408/408 404/404/404 411/411/411
f 402/402/402 406/406/406 411/411/411
f 408/408/408 412/412/412 410/410/410
f 412/412/412 408/408/408 411/411/411
f 412/412/412 413/413/413 410/410/410
f 407/407/407 414/414/414 406/406/406
f 414/414/414 407/407/407 415/415/415
f 406/406/406 416/416/416 411/411/411
f 411/411/411 416/416/416 412/412/412
f 406/406/406 414/414/414 416/416/416
f 412/412/412 417/417/417 413/413/413
f 416/416/416 417/417/417 412/412/412
f 417/417/417 418/418/418 413/413/413
f 419/419/419 414/414/414 415/415/415
f 415/415/415 420/420/420 419/419/419
f 414/414/414 421/421/421 416/416/416
f 416/416/416 421/421/421 417/417/417
f 421/421/421 414/414/414 419/419/419
f 418/418/418 417/417/417 422/422/422
f 421/421/421 422/422/422 417/417/417
f 423/423/423 418/418/418 422/422/422
f 420/420/420 424/424/424 419/419/419
f 424/424/424 420/420/420 425/425/425
f 426/426/426 424/424/424 425/425/425
f 427/427/427 421/421/421 419/419/419
f 422/422/422 421/421/421 427/427/427
f 419/419/419 424/424/424 427/427/427
f 422/422/422 428/428/428 423/423/423
f 428/428/428 422/422/422 427/427/427
f 428/428/428 429/429/429 423/423/423
f 429/429/429 428/428/428 430/430/430
f 431/431/431 424/424/424 426/426/426
f 424/424/424 431/431/431 427/427/427
f 427/427/427 431/431/431 428/428/428
f 432/432/432 431/431/431 426/426/426
f 431/431/431 433/433/433 428/428/428
f 433/433/433 431/431/431 432/432/432
f 428/428/428 433/433/433 430/430/430
f 434/434/434 433/433/433 432/432/432
f 433/433/433 434/434/434 430/430/430
f 434/434/434 435/435/435 430/430/430
f 438/438/438 437/437/437 436/436/436
f 439/439/439 438/438/438 436/436/436
f 440/440/440 438/438/438 439/439/439
f 441/441/441 440/440/440 439/439/439
f 444/444/444 443/443/443 442/442/442
f 445/445/445 444/444/444 442/442/442
f 446/446/446 444/444/444 445/445/445
f 13/13/13 447/447/447 445/445/445
f 448/448/448 13/13/13 445/445/445
f 451/451/451 450/450/450 449/449/449
f 452/452/452 451/451/451 449/449/449
f 455/455/455 454/454/454 453/453/453
f 456/456/456 455/455/455 453/453/453
f 459/459/459 458/458/458 457/457/457
f 459/459/459 460/460/460 458/458/458
f 463/463/463 462/462/462 461/461/461
f 463/463/463 464/464/464 462/462/462
f 463/463/463 465/465/465 464/464/464
f 465/465/465 463/463/463 466/466/466
f 469/469/469 468/468/468 467/467/467
f 470/470/470 468/468/468 469/469/469
f 473/473/473 472/472/472 471/471/471
f 473/473/473 471/471/471 474/474/474
f 474/474/474 471/471/471 475/475/475
f 475/475/475 471/471/471 476/476/476
f 479/479/479 478/478/478 477/477/477
f 480/480/480 479/479/479 477/477/477
f 477/477/477 481/481/481 480/480/480
f 479/479/479 480/480/480 482/482/482
f 482/482/482 480/480/480 483/483/483
f 481/481/481 483/483/483 480/480/480
f 484/484/484 479/479/479 482/482/482
f 478/478/478 479/479/479 484/484/484
f 481/481/481 485/485/485 483/483/483
f 486/486/486 478/478/478 484/484/484
f 485/485/485 487/487/487 483/483/483
f 487/487/487 482/482/482 483/483/483
f 485/485/485 488/488/488 487/487/487
f 486/486/486 484/484/484 489/489/489
f 484/484/484 482/482/482 489/489/489
f 490/490/490 486/486/486 489/489/489
f 488/488/488 491/491/491 487/487/487
f 491/491/491 482/482/482 487/487/487
f 488/488/488 492/492/492 491/491/491
f 489/489/489 493/493/493 490/490/490
f 489/489/489 482/482/482 493/493/493
f 493/493/493 494/494/494 490/490/490
f 492/492/492 495/495/495 491/491/491
f 491/491/491 495/495/495 482/482/482
f 492/492/492 496/496/496 495/495/495
f 493/493/493 497/497/497 494/494/494
f 493/493/493 482/482/482 497/497/497
f 498/498/498 482/482/482 495/495/495
f 496/496/496 498/498/498 495/495/495
f 497/497/497 482/482/482 499/499/499
f 497/497/497 500/500/500 494/494/494
f 500/500/500 497/497/497 499/499/499
f 496/496/496 501/501/501 498/498/498
f 502/502/502 500/500/500 499/499/499
f 501/501/501 503/503/503 498/498/498
f 503/503/503 482/482/482 498/498/498
f 501/501/501 504/504/504 503/503/503
f 499/499/499 505/505/505 502/502/502
f 499/499/499 482/482/482 505/505/505
f 505/505/505 506/506/506 502/502/502
f 504/504/504 507/507/507 503/503/503
f 507/507/507 482/482/482 503/503/503
f 504/504/504 508/508/508 507/507/507
f 505/505/505 509/509/509 506/506/506
f 509/509/509 505/505/505 482/482/482
f 509/509/509 510/510/510 506/506/506
f 508/508/508 511/511/511 507/507/507
f 507/507/507 511/511/511 482/482/482
f 511/511/511 508/508/508 512/512/512
f 510/510/510 509/509/509 513/513/513
f 509/509/509 482/482/482 513/513/513
f 512/512/512 510/510/510 513/513/513
f 513/513/513 511/511/511 512/512/512
f 511/511/511 513/513/513 482/482/482
