g DropItemLow
v 3.05513096 29.6711502 2.91916299
v 2.51109695 30.3655338 2.82127786
v 3.54876947 30.5647621 1.20900857
v 4.44708157 29.9479904 0.964910388
v 2.68173599 27.2487602 2.94705629
v 3.87275362 30.7871323 -0.566076994
v 4.90461349 27.8538952 0.25397253
v 4.56253529 30.1779213 -0.921970844
v 4.36054707 27.0172997 0.338059187
v 2.16477394 26.4442902 2.76757884
v 5.25584698 27.8192463 -1.75546169
v 4.67167711 30.323431 -2.77245712
v 3.87075615 30.9220295 -2.43134356
v 2.57841444 30.9462337 -4.32626581
v 5.18739939 28.4972401 -3.48726177
v 4.94757843 27.7009182 -3.56646442
v 3.01046753 30.3858452 -5.07718372
v 0.761197329 30.920105 -5.74413776
v 3.82811522 28.6941662 -5.367939
v 3.67446899 27.8991814 -5.3828454
v 2.67690516 28.0891209 -6.980093
v 2.74782848 28.8921986 -7.04620266
v 1.28932786 28.4431782 -7.52870464
v 1.07152557 30.3577423 -6.546978
v -1.91028452 30.8015289 -5.88404465
v -1.89340448 30.210762 -6.69965363
v -3.15103436 30.7506695 -5.653615
v -1.67250443 28.6560955 -7.36097527
v -1.52797604 27.8447628 -7.1968112
v -3.33362389 27.5947609 -6.45327473
v -5.33075428 29.7786026 -4.15639877
v -4.79285097 30.4996834 -4.15519142
v -5.35932493 30.3253555 -2.9320507
v -6.02295208 29.5224457 -1.19301224
v -5.56258011 27.8879356 -4.47613049
v -5.18081379 27.1291142 -4.47123718
v -5.76799965 27.0685101 -2.24442554
v -5.72661495 29.2413864 1.19369984
v -5.48196316 27.0199394 0.185080051
v -5.05185127 26.3637581 -0.200497627
v -4.1369257 26.1583481 1.29895306
v -4.48980141 26.8020897 1.77290916
v -4.81485462 29.1335678 2.68627214
v -3.53912854 29.0648003 3.85044241
v -3.09685993 26.6898174 3.00149155
v -2.81282187 26.0632343 2.43504333
v -0.851169109 26.4298363 3.50531864
v -1.41397715 29.2756424 4.42093229
v 0.669127941 29.2510624 4.29576302
v 0.395866394 30.0083542 4.01610851
v 2.51109695 30.3655338 2.82127786
v 3.05513096 29.6711502 2.91916299
v 1.10168648 26.9905472 3.52696037
v 1.13120461 26.3208542 2.95367813
v 2.68173599 27.2487602 2.94705629
v 2.16477394 26.4442902 2.76757884
v -4.79285097 30.4996834 -4.15519142
v -9.41783714 39.7993698 -1.83958745
v -10.5864754 40.7156868 2.60986567
v -5.35932493 30.3253555 -2.9320507
v -8.75112534 40.0324211 3.84302855
v -11.3641768 37.9837112 5.39104176
v -6.02295208 29.5224457 -1.19301224
v -11.2783394 35.3109589 7.54167366
v -5.72661495 29.2413864 1.19369984
v -8.29468632 36.2224884 8.92174816
v -4.81485462 29.1335678 2.68627214
v -8.6974144 34.469902 10.6671333
v -3.53912854 29.0648003 3.85044241
v -7.30007601 34.0445862 12.5872631
v -1.41397715 29.2756424 4.42093229
v -5.21997881 33.7121735 14.1248083
v -2.34046173 35.3100357 14.8500423
v 0.395866394 30.0083542 4.01610851
v -0.227723122 38.3538055 14.1278057
v 1.56803226 39.1915321 10.8555202
v 2.51109695 30.3655338 2.82127786
v -9.41783714 39.7993698 -1.83958745
v -4.79285097 30.4996834 -4.15519142
v -3.15103436 30.7506695 -5.653615
v -5.79692745 40.9436951 -5.08141613
v -1.91028452 30.8015289 -5.88404465
v -1.75208282 41.7187691 -4.81904125
v 0.761197329 30.920105 -5.74413776
v 1.93629348 40.6121254 -2.93269062
v 2.57841444 30.9462337 -4.32626581
v 5.6671772 42.7684174 -2.12844563
v 7.93684912 42.782608 -0.789595604
v 3.87075615 30.9220295 -2.43134356
v 8.97071552 42.1142654 1.64382362
v 7.83598328 40.7375717 3.95925617
v 6.15445709 39.7853813 4.73464203
v 3.87275362 30.7871323 -0.566076994
v 8.80215454 39.0693932 7.32364273
v 8.09628105 38.7454262 10.1893826
v 3.54876947 30.5647621 1.20900857
v 5.16449547 38.6909866 11.4568243
v 2.51109695 30.3655338 2.82127786
v 1.56803226 39.1915321 10.8555202
v -2.73138905 2.11420536 -14.1922283
v -5.22855854 1.65947294 -12.0985546
v 0.390379637 0.275420189 -5.78575039
v -9.9912796 4.51886702 -17.0281525
v 2.84584594 0.615714788 -7.89427042
v 5.90734673 0.349408627 0.768713951
v -7.37357521 4.97023773 -19.1553516
v -12.1571026 6.99894524 -19.4206696
v 8.34257126 0.766111016 -1.45084941
v 12.7461576 2.55555153 -5.46109486
v 10.2345905 2.07006741 6.54590988
v 12.8292427 2.48716593 4.31844234
v 12.3402748 4.10640526 9.48452759
v 7.71122694 2.38279152 -11.9050112
v 14.8784809 4.5077343 7.53581715
v 13.5438576 7.22443151 11.4502125
v -9.50837708 7.69696903 -21.5021496
v -10.7787495 11.1311798 -22.7257996
v -13.5397224 10.5785284 -20.5604496
v -11.40481 16.4638367 -22.3903313
v -14.2225723 15.8977823 -20.1711693
v -4.11826134 12.0735598 -25.5797195
v -3.75966072 8.53048325 -24.1762085
v -10.6942158 20.1339016 -20.5606594
v -13.4036846 19.5886669 -18.3663311
v -2.53630447 5.82576942 -21.7424889
v 2.01456738 3.86613202 -17.8614483
v 2.44853497 6.21187019 -21.9358177
v 7.53656149 6.32384825 -19.0274811
v 3.44911671 9.07004738 -24.3932495
v -4.33427429 17.4771976 -25.4896965
v -8.86711502 22.4883099 -17.100399
v -11.6273327 22.0012875 -15.2389393
v -6.76648712 25.2686424 -12.3334675
v -8.94878006 24.5757923 -10.3036451
v -5.18081379 27.1291142 -4.47123718
v -3.33362389 27.5947609 -6.45327473
v -1.52797604 27.8447628 -7.1968112
v 4.250741 12.691802 -25.7224388
v 9.33721924 9.22813702 -21.38661
v -4.24394798 21.0562115 -23.3063679
v -3.88126945 23.5021629 -19.7800636
v -3.12062645 25.747633 -14.102994
v 4.64670467 18.1414146 -25.6474991
v 1.76301193 26.0998592 -14.2563915
v 1.28932786 28.4431782 -7.52870464
v 3.24818611 24.0267563 -19.9055653
v 4.13606071 21.677166 -23.4615059
v 10.7926855 12.6579208 -22.696804
v 5.62944078 26.0674763 -12.4609051
v 2.67690516 28.0891209 -6.980093
v 3.67446899 27.8991814 -5.3828454
v 11.4668474 18.1480274 -22.7475796
v 8.61822891 24.0322723 -17.5714455
v 10.4567385 21.6829987 -20.7788029
v 8.57573223 25.8553257 -9.91830921
v 12.7851591 23.7390709 -13.9948902
v 10.6253471 25.4146748 -6.34613514
v 4.94757843 27.7009182 -3.56646442
v 15.6463509 23.1791916 -9.30021477
v 12.4533758 24.4929752 -2.65150356
v 5.25584698 27.8192463 -1.75546169
v 15.3665771 21.3388252 -16.5656414
v 18.7252235 20.6645241 -11.0321045
v 10.8385792 23.7578983 1.69721746
v 4.36054707 27.0172997 0.338059187
v 8.20874596 23.0799065 5.19068813
v 2.16477394 26.4442902 2.76757884
v 6.30157375 22.6923218 7.22454882
v 10.1106339 19.5469074 10.4687147
v 15.9741516 21.1413097 3.1616497
v 12.0253677 20.0064487 8.43212318
v 12.2573318 16.4502125 12.1609707
v 17.1982079 22.209837 -3.74127769
v 20.463028 19.7094784 -4.53036499
v 19.291893 17.9353771 3.82321596
v 14.6700668 16.6696949 10.4897442
v 13.5460148 12.447052 12.7323904
v 20.4506187 17.0429783 -12.1713276
v 22.3648777 16.0224876 -5.15554619
v 15.9246998 12.5143919 10.7998638
v 20.9874001 13.743494 3.77122927
v 15.9487362 7.7092123 9.54609585
v 20.3855457 9.14733219 2.73468304
v 21.8696766 10.5840645 -5.34115219
v 18.7158146 5.73853302 1.75907516
v 16.2150784 3.58633995 -0.0741500854
v 16.837925 4.97646809 -5.18375778
v 19.8063622 7.54665995 -5.35804939
v 19.7805367 11.5569925 -12.1437836
v 15.0390472 5.18246794 -10.2636642
v 16.7895508 17.7744732 -18.1693535
v 16.0182819 12.267087 -18.0732498
v 17.825119 7.94183207 -11.3645382
v 14.1402216 8.56910706 -16.8288937
v 11.6980581 5.72679043 -15.0078564
v -5.18081379 27.1291142 -4.47123718
v -10.1136656 23.1249924 -7.4877739
v -8.94878006 24.5757923 -10.3036451
v -5.76799965 27.0685101 -2.24442554
v -11.6273327 22.0012875 -15.2389393
v -11.9105225 23.2995033 -3.36067343
v -5.05185127 26.3637581 -0.200497627
v -15.1706047 21.0513496 -10.254982
v -13.4036846 19.5886669 -18.3663311
v -17.7415447 18.2623348 -11.9605045
v -14.2225723 15.8977823 -20.1711693
v -16.5447769 19.9037228 -3.5092659
v -10.6529655 22.6594963 1.17743397
v -8.34460449 22.2448959 4.37435627
v -4.1369257 26.1583481 1.29895306
v -2.81282187 26.0632343 2.43504333
v -15.0036907 19.1013145 2.1890583
v -5.35326672 22.0354462 6.91238976
v -0.851169109 26.4298363 3.50531864
v -18.9672031 14.4135714 -13.2128506
v -13.5397224 10.5785284 -20.5604496
v -19.1931458 16.7999229 -3.89091015
v -11.960536 18.5652275 6.8892231
v -1.60100079 22.0057182 8.97624397
v 1.13120461 26.3208542 2.95367813
v -17.7162628 9.20615578 -14.0470839
v -12.1571026 6.99894524 -19.4206696
v -20.5001678 12.8596458 -4.44713879
v -17.4834614 15.8308611 2.71917534
v -7.63768959 18.2758636 10.5282993
v 3.25565243 22.4385109 8.74982643
v 2.16477394 26.4442902 2.76757884
v 6.30157375 22.6923218 7.22454882
v -18.6579208 11.8210039 2.64770317
v -14.8958864 11.1112528 8.57498169
v -14.0059032 15.1907787 8.22937775
v -2.25189972 18.2289448 12.971941
v 4.71052933 18.7563782 12.6822214
v 10.1106339 19.5469074 10.4687147
v -19.2344284 7.76934767 -5.98545647
v -8.94425774 14.861002 12.4237938
v -2.67962933 14.8373299 15.1474743
v 5.61328888 15.4533081 14.9611464
v 12.2573318 16.4502125 12.1609707
v -9.44257736 10.7540674 13.0925846
v -2.72919846 10.7434711 16.0508766
v 6.27232552 11.4037199 15.9259949
v 13.5460148 12.447052 12.7323904
v -8.01905441 5.70936632 11.3456841
v -1.49886322 5.65776443 14.4694309
v 6.74450111 6.28901482 14.1936455
v 13.5438576 7.22443151 11.4502125
v 7.11652184 3.31081963 12.071003
v 12.3402748 4.10640526 9.48452759
v 6.39758492 1.38293648 9.06017685
v 10.2345905 2.07006741 6.54590988
v 1.65225124 0.306289434 4.18800068
v 5.90734673 0.349408627 0.768713951
v 0.993311882 1.0469718 8.76856136
v -0.28689003 2.80035686 12.0295486
v -6.13705921 2.87960768 8.97880173
v -3.92505789 -0.0652601719 -2.08343697
v 0.390379637 0.275420189 -5.78575039
v -4.01423979 1.18094635 5.79717922
v -11.0319529 3.27867317 4.41820335
v -9.20278931 1.16882217 -8.44617081
v -5.22855854 1.65947294 -12.0985546
v -9.9912796 4.51886702 -17.0281525
v -8.26764965 1.53025794 1.84459877
v -13.3692722 6.08974886 6.73180199
v -11.6260824 2.06633615 -2.85515213
v -14.7536802 3.91094398 -0.961954117
v -17.2042274 6.77695274 0.909864426
v -16.963089 4.78824759 -7.21304893
v -13.7631569 2.8060267 -8.26357079
v -13.211647 3.72152472 -13.5794888
v -15.8731899 6.05280876 -14.4723396
v 7.93684912 42.782608 -0.789595604
v 5.49079323 42.7039223 -1.97579479
v 5.6671772 42.7684174 -2.12844563
v 7.71019077 42.7223663 -0.666202545
v 8.97071552 42.1142654 1.64382362
v 1.83806705 40.5547981 -2.76757431
v 1.93629348 40.6121254 -2.93269062
v 8.72117424 42.0700836 1.71354866
v 7.83598328 40.7375717 3.95925617
v -0.825788975 33.8804855 0.953912258
v -1.77516079 41.6567078 -4.59467411
v -1.75208282 41.7187691 -4.81904125
v 7.61165905 40.7185402 3.97742176
v 6.15445709 39.7853813 4.73464203
v -5.71990681 40.9167557 -4.86372852
v 5.96647358 39.7943268 4.73431969
v -9.22012138 39.8028603 -1.70797825
v -5.79692745 40.9436951 -5.08141613
v 8.80215454 39.0693932 7.32364273
v -9.41783714 39.7993698 -1.83958745
v 8.55556393 39.0977859 7.26638889
v 8.09628105 38.7454262 10.1893826
v -10.3930435 40.7609787 2.66346121
v -10.5864754 40.7156868 2.60986567
v 7.85178661 38.8095665 10.1074867
v 5.16449547 38.6909866 11.4568243
v -8.59798622 40.0831184 3.86864424
v -8.75112534 40.0324211 3.84302855
v 4.99813461 38.7700272 11.3179092
v 1.56803226 39.1915321 10.8555202
v -11.1456547 38.0508804 5.36616707
v 1.49330711 39.2700119 10.7575073
v -11.0551872 35.3939095 7.45447063
v -11.3641768 37.9837112 5.39104176
v -0.227723122 38.3538055 14.1278057
v -11.2783394 35.3109589 7.54167366
v -0.273467064 38.4593353 13.9137859
v -2.34046173 35.3100357 14.8500423
v -8.14391994 36.3261108 8.81865501
v -8.29468632 36.2224884 8.92174816
v -2.32146358 35.4408951 14.6164789
v -5.21997881 33.7121735 14.1248083
v -8.53130436 34.5717773 10.5108957
v -8.6974144 34.469902 10.6671333
v -5.1309557 33.8397484 13.8928366
v -7.30007601 34.0445862 12.5872631
v -7.16497326 34.1604691 12.3889523
vt 0.0214080811 0.8984375
vt 0.0214080811 0.921386719
vt 0.0684814453 0.921386719
vt 0.076965332 0.8984375
vt 0.0214080811 0.831054688
vt 0.113525391 0.921386719
vt 0.0783691406 0.831054688
vt 0.118530273 0.8984375
vt 0.0669555664 0.808105469
vt 0.0214080811 0.808105469
vt 0.121398926 0.819824219
vt 0.160522461 0.8984375
vt 0.162353516 0.921386719
vt 0.232788086 0.921386719
vt 0.161621094 0.831054688
vt 0.161987305 0.808105469
vt 0.232910156 0.8984375
vt 0.289794922 0.921386719
vt 0.213256836 0.831054688
vt 0.209960938 0.808105469
vt 0.248535156 0.808105469
vt 0.248535156 0.831054688
vt 0.286132812 0.819824219
vt 0.285400391 0.8984375
vt 0.347900391 0.921386719
vt 0.346923828 0.8984375
vt 0.387451172 0.921386719
vt 0.345458984 0.831054688
vt 0.346191406 0.808105469
vt 0.384521484 0.808105469
vt 0.430908203 0.8984375
vt 0.419433594 0.921386719
vt 0.451171875 0.921386719
vt 0.489257812 0.8984375
vt 0.428710938 0.831054688
vt 0.428710938 0.808105469
vt 0.485107422 0.819824219
vt 0.535644531 0.8984375
vt 0.532226562 0.831054688
vt 0.53125 0.808105469
vt 0.569335938 0.808105469
vt 0.569824219 0.831054688
vt 0.571289062 0.8984375
vt 0.606933594 0.8984375
vt 0.606933594 0.831054688
vt 0.606933594 0.808105469
vt 0.653320312 0.819824219
vt 0.651855469 0.8984375
vt 0.692382812 0.8984375
vt 0.689453125 0.921386719
vt 0.739746094 0.921386719
vt 0.739746094 0.8984375
vt 0.692871094 0.831054688
vt 0.693847656 0.808105469
vt 0.739746094 0.831054688
vt 0.739746094 0.808105469
vt 0.637695312 0.475830078
vt 0.537597656 0.637695312
vt 0.580078125 0.649902344
vt 0.652832031 0.489501953
vt 0.61328125 0.653808594
vt 0.650878906 0.694335938
vt 0.675292969 0.504394531
vt 0.690917969 0.712402344
vt 0.705078125 0.516601562
vt 0.736328125 0.692871094
vt 0.727539062 0.51953125
vt 0.764648438 0.715820312
vt 0.750976562 0.520019531
vt 0.799804688 0.718261719
vt 0.780273438 0.51171875
vt 0.837890625 0.712890625
vt 0.876464844 0.6875
vt 0.803222656 0.49609375
vt 0.9140625 0.658203125
vt 0.931640625 0.579589844
vt 0.822753906 0.469482422
vt 0.479003906 0.647460938
vt 0.395996094 0.499511719
vt 0.375 0.502441406
vt 0.393554688 0.651367188
vt 0.346191406 0.504882812
vt 0.330322266 0.666015625
vt 0.299804688 0.509277344
vt 0.277832031 0.663085938
vt 0.259277344 0.510253906
vt 0.232177734 0.666992188
vt 0.207519531 0.673828125
vt 0.218017578 0.512207031
vt 0.182983398 0.673828125
vt 0.162109375 0.662109375
vt 0.151611328 0.647949219
vt 0.186157227 0.510742188
vt 0.116394043 0.666503906
vt 0.099609375 0.66015625
vt 0.157226562 0.509277344
vt 0.0495605469 0.647949219
vt 0.130493164 0.49609375
vt 0.023147583 0.59765625
vt 0.350830078 0.0737304688
vt 0.363769531 0.0367431641
vt 0.261230469 0.0153503418
vt 0.444824219 0.0829467773
vt 0.261474609 0.0584411621
vt 0.158813477 0.0393981934
vt 0.416503906 0.110534668
vt 0.473632812 0.12286377
vt 0.173461914 0.0787353516
vt 0.192993164 0.117980957
vt 0.0806274414 0.0897216797
vt 0.10748291 0.113342285
vt 0.0520019531 0.129394531
vt 0.262451172 0.104492188
vt 0.0805053711 0.146972656
vt 0.0347595215 0.171020508
vt 0.448486328 0.134887695
vt 0.463134766 0.164306641
vt 0.492675781 0.166381836
vt 0.466796875 0.221191406
vt 0.50390625 0.22644043
vt 0.395751953 0.172973633
vt 0.393554688 0.144165039
vt 0.469238281 0.261962891
vt 0.501464844 0.271728516
vt 0.369384766 0.126220703
vt 0.333251953 0.116760254
vt 0.347412109 0.150390625
vt 0.3046875 0.154907227
vt 0.348876953 0.177246094
vt 0.395507812 0.216674805
vt 0.454589844 0.3046875
vt 0.490722656 0.321044922
vt 0.417724609 0.379150391
vt 0.447998047 0.397460938
vt 0.383544922 0.468505859
vt 0.363769531 0.452148438
vt 0.345703125 0.442382812
vt 0.348632812 0.202148438
vt 0.305419922 0.181884766
vt 0.393554688 0.256103516
vt 0.385986328 0.294189453
vt 0.371582031 0.360107422
vt 0.347167969 0.236938477
vt 0.339599609 0.352294922
vt 0.319091797 0.433349609
vt 0.346679688 0.290527344
vt 0.347167969 0.262939453
vt 0.304199219 0.204956055
vt 0.299560547 0.350097656
vt 0.292724609 0.4296875
vt 0.262695312 0.429199219
vt 0.303466797 0.239013672
vt 0.302734375 0.289550781
vt 0.302978516 0.263183594
vt 0.262939453 0.348876953
vt 0.263183594 0.289794922
vt 0.223632812 0.350585938
vt 0.230712891 0.429199219
vt 0.223388672 0.2890625
vt 0.185302734 0.344238281
vt 0.202514648 0.434570312
vt 0.263427734 0.262451172
vt 0.223266602 0.263427734
vt 0.151245117 0.357421875
vt 0.169067383 0.441650391
vt 0.114318848 0.377929688
vt 0.145263672 0.460449219
vt 0.0855102539 0.391357422
vt 0.0407409668 0.317382812
vt 0.139892578 0.297607422
vt 0.0701293945 0.311279297
vt 0.0281677246 0.272216797
vt 0.187011719 0.289794922
vt 0.186279297 0.262695312
vt 0.138549805 0.2578125
vt 0.0580444336 0.266113281
vt 0.0249328613 0.228759766
vt 0.223266602 0.239257812
vt 0.187011719 0.236816406
vt 0.0602111816 0.224487305
vt 0.141235352 0.2265625
vt 0.068359375 0.176147461
vt 0.147705078 0.188232422
vt 0.188964844 0.202880859
vt 0.153076172 0.16809082
vt 0.159912109 0.146240234
vt 0.192016602 0.152832031
vt 0.189208984 0.179931641
vt 0.221801758 0.205322266
vt 0.220947266 0.154541016
vt 0.263183594 0.239990234
vt 0.262939453 0.20690918
vt 0.220703125 0.180053711
vt 0.262939453 0.180053711
vt 0.262451172 0.154296875
vt 0.665527344 0.440673828
vt 0.637207031 0.359863281
vt 0.59765625 0.384277344
vt 0.697753906 0.426757812
vt 0.547851562 0.313964844
vt 0.677734375 0.347412109
vt 0.73046875 0.421142578
vt 0.616210938 0.295898438
vt 0.532226562 0.269042969
vt 0.612792969 0.261474609
vt 0.528808594 0.226074219
vt 0.673339844 0.287353516
vt 0.721679688 0.345458984
vt 0.756835938 0.346435547
vt 0.756347656 0.418701172
vt 0.781738281 0.422363281
vt 0.717285156 0.286132812
vt 0.792480469 0.348388672
vt 0.806152344 0.424072266
vt 0.611328125 0.229003906
vt 0.537109375 0.170043945
vt 0.672851562 0.257568359
vt 0.7578125 0.286132812
vt 0.831054688 0.350341797
vt 0.831542969 0.436767578
vt 0.614257812 0.18762207
vt 0.556640625 0.130126953
vt 0.672851562 0.231933594
vt 0.717285156 0.2578125
vt 0.798828125 0.287597656
vt 0.874511719 0.365234375
vt 0.848632812 0.447753906
vt 0.913574219 0.391113281
vt 0.717285156 0.233520508
vt 0.758300781 0.23425293
vt 0.758300781 0.258789062
vt 0.842285156 0.289794922
vt 0.898925781 0.299804688
vt 0.965332031 0.320068359
vt 0.670898438 0.196411133
vt 0.799804688 0.259521484
vt 0.844238281 0.259765625
vt 0.904296875 0.265136719
vt 0.980957031 0.275390625
vt 0.800292969 0.234619141
vt 0.844238281 0.23449707
vt 0.90625 0.232910156
vt 0.985839844 0.232299805
vt 0.802246094 0.200805664
vt 0.84765625 0.198730469
vt 0.904785156 0.191162109
vt 0.979003906 0.176147461
vt 0.902832031 0.161132812
vt 0.961914062 0.13659668
vt 0.890625 0.133911133
vt 0.932128906 0.0971679688
vt 0.833984375 0.109069824
vt 0.857421875 0.0520629883
vt 0.848144531 0.144165039
vt 0.848632812 0.172729492
vt 0.804199219 0.173950195
vt 0.760253906 0.0960083008
vt 0.761230469 0.0313415527
vt 0.803222656 0.14465332
vt 0.759277344 0.173706055
vt 0.687011719 0.106018066
vt 0.664550781 0.0490722656
vt 0.587890625 0.0934448242
vt 0.759765625 0.14465332
vt 0.758789062 0.200927734
vt 0.716308594 0.144287109
vt 0.715332031 0.172729492
vt 0.716308594 0.199829102
vt 0.670410156 0.170166016
vt 0.671875 0.141967773
vt 0.629394531 0.130737305
vt 0.616210938 0.157470703
vt 0.84765625 0.745117188
vt 0.870605469 0.751464844
vt 0.869628906 0.749511719
vt 0.848144531 0.747070312
vt 0.825195312 0.752929688
vt 0.905761719 0.766113281
vt 0.90625 0.764648438
vt 0.826171875 0.754882812
vt 0.812988281 0.774414062
vt 0.876953125 0.85546875
vt 0.946777344 0.779296875
vt 0.948242188 0.778320312
vt 0.813964844 0.776367188
vt 0.8125 0.793457031
vt 0.971679688 0.821777344
vt 0.813964844 0.794433594
vt 0.981933594 0.887207031
vt 0.973632812 0.820800781
vt 0.78125 0.802246094
vt 0.983886719 0.887695312
vt 0.783203125 0.802734375
vt 0.774902344 0.815429688
vt 0.956542969 0.915039062
vt 0.958007812 0.915527344
vt 0.77734375 0.81640625
vt 0.772460938 0.853515625
vt 0.935058594 0.918457031
vt 0.936523438 0.919433594
vt 0.774414062 0.854003906
vt 0.801269531 0.879394531
vt 0.9296875 0.951660156
vt 0.802734375 0.879394531
vt 0.907226562 0.969726562
vt 0.930664062 0.953613281
vt 0.782226562 0.924316406
vt 0.907714844 0.971679688
vt 0.784179688 0.922851562
vt 0.796875 0.950195312
vt 0.87890625 0.956054688
vt 0.87890625 0.958007812
vt 0.798339844 0.948242188
vt 0.817382812 0.970703125
vt 0.864257812 0.973144531
vt 0.864257812 0.975097656
vt 0.818359375 0.968261719
vt 0.840820312 0.976074219
vt 0.841796875 0.974121094
vn 0.677246094 0.060333252 0.732910156
vn 0.677246094 -0.482910156 0.555175781
vn 0.565917969 -0.678710938 0.468017578
vn 0.875976562 0.179321289 0.448242188
vn 0.635253906 -0.187866211 0.749023438
vn 0.881347656 -0.434326172 0.187255859
vn 0.922363281 -0.0218811035 0.385986328
vn 0.91015625 0.399169922 0.110961914
vn 0.389648438 0.819824219 0.419677734
vn 0.255126953 0.809082031 0.529296875
vn 0.502441406 0.840820312 0.201293945
vn 0.837890625 0.501953125 -0.21496582
vn 0.931152344 -0.109985352 -0.348144531
vn 0.640625 0.165039062 -0.75
vn 0.911132812 0.263671875 -0.31640625
vn 0.402832031 0.912109375 -0.0782470703
vn 0.564453125 0.637695312 -0.524414062
vn 0.318603516 0.280517578 -0.905273438
vn 0.801757812 0.256347656 -0.539550781
vn 0.396240234 0.902832031 -0.165649414
vn 0.452636719 0.855957031 -0.250488281
vn 0.510742188 0.461669922 -0.725097656
vn -0.0200653076 0.910644531 -0.412109375
vn 0.151245117 0.629882812 -0.76171875
vn -0.00517654419 0.180053711 -0.983886719
vn -0.354980469 0.409179688 -0.840820312
vn -0.518554688 -0.0541687012 -0.853515625
vn -0.332763672 0.28125 -0.899902344
vn -0.184692383 0.934570312 -0.304443359
vn -0.344726562 0.91015625 -0.23059082
vn -0.818847656 0.184082031 -0.543457031
vn -0.786132812 -0.168945312 -0.594726562
vn -0.828125 0.0205688477 -0.560058594
vn -0.888671875 -0.0899658203 -0.449462891
vn -0.84765625 0.0954589844 -0.521972656
vn -0.510742188 0.840820312 -0.179321289
vn -0.662109375 0.747558594 0.0532531738
vn -0.798339844 -0.591796875 0.112915039
vn -0.924804688 -0.287353516 0.248413086
vn -0.543945312 0.759765625 0.356689453
vn -0.570800781 0.608398438 0.551269531
vn -0.717773438 -0.423339844 0.553222656
vn -0.577636719 -0.687011719 0.440185547
vn -0.590820312 -0.709472656 0.384277344
vn -0.406982422 -0.424804688 0.80859375
vn -0.384277344 0.720214844 0.577636719
vn -0.149658203 0.677734375 0.719726562
vn 0.114746094 -0.741699219 0.660644531
vn 0.263916016 -0.102722168 0.958984375
vn 0.682128906 -0.496826172 0.536621094
vn 0.677246094 -0.482910156 0.555175781
vn 0.677246094 0.060333252 0.732910156
vn 0.265136719 -0.273193359 0.924804688
vn 0.0842895508 0.790527344 0.606933594
vn 0.635253906 -0.187866211 0.749023438
vn 0.255126953 0.809082031 0.529296875
vn -0.786132812 -0.168945312 -0.594726562
vn -0.706542969 0.525390625 -0.473876953
vn -0.797851562 0.545410156 0.257324219
vn -0.828125 0.0205688477 -0.560058594
vn -0.859375 0.482421875 0.169555664
vn -0.656738281 0.738769531 0.15234375
vn -0.888671875 -0.0899658203 -0.449462891
vn -0.775878906 0.440185547 0.451660156
vn -0.798339844 -0.591796875 0.112915039
vn -0.642089844 0.6015625 0.475585938
vn -0.577636719 -0.687011719 0.440185547
vn -0.711425781 0.528320312 0.463378906
vn -0.590820312 -0.709472656 0.384277344
vn -0.74609375 0.121520996 0.654296875
vn 0.114746094 -0.741699219 0.660644531
vn -0.34375 0.0278778076 0.938476562
vn -0.194946289 0.311279297 0.930175781
vn 0.682128906 -0.496826172 0.536621094
vn 0.0817260742 0.675292969 0.732910156
vn 0.373291016 0.494873047 0.784667969
vn 0.677246094 -0.482910156 0.555175781
vn -0.706542969 0.525390625 -0.473876953
vn -0.786132812 -0.168945312 -0.594726562
vn -0.518554688 -0.0541687012 -0.853515625
vn -0.194580078 0.521972656 -0.830566406
vn -0.00517654419 0.180053711 -0.983886719
vn 0.248413086 0.419921875 -0.873046875
vn 0.318603516 0.280517578 -0.905273438
vn 0.208129883 0.508789062 -0.835449219
vn 0.640625 0.165039062 -0.75
vn 0.641601562 0.463378906 -0.610839844
vn 0.779296875 0.465576172 -0.419677734
vn 0.931152344 -0.109985352 -0.348144531
vn 0.868652344 0.467773438 -0.1640625
vn 0.609375 0.462646484 0.644042969
vn 0.916992188 0.385498047 0.101013184
vn 0.881347656 -0.434326172 0.187255859
vn 0.959472656 0.278808594 -0.0427856445
vn 0.743652344 0.393066406 0.540527344
vn 0.565917969 -0.678710938 0.468017578
vn 0.360839844 0.0961914062 0.927734375
vn 0.677246094 -0.482910156 0.555175781
vn 0.373291016 0.494873047 0.784667969
vn -0.00726318359 -0.939453125 -0.342285156
vn -0.0888671875 -0.963867188 -0.251220703
vn 0.0100631714 -0.991699219 -0.126708984
vn -0.446777344 -0.646972656 -0.618164062
vn 0.119018555 -0.971191406 -0.205566406
vn 0.136352539 -0.989746094 0.046295166
vn -0.146240234 -0.552734375 -0.8203125
vn -0.545410156 -0.335205078 -0.768066406
vn 0.238525391 -0.969238281 -0.0571289062
vn 0.330810547 -0.9296875 -0.161132812
vn 0.293212891 -0.9296875 0.223876953
vn 0.3828125 -0.916503906 0.116577148
vn 0.429931641 -0.711425781 0.555664062
vn 0.237548828 -0.926269531 -0.292480469
vn 0.62890625 -0.683105469 0.371337891
vn 0.476074219 -0.356201172 0.804199219
vn -0.113037109 -0.00790405273 -0.993652344
vn -0.123901367 0.262939453 -0.95703125
vn -0.689453125 0.00992584229 -0.724121094
vn -0.189208984 0.490478516 -0.850585938
vn -0.582519531 0.271240234 -0.766113281
vn -0.0414733887 0.302978516 -0.952148438
vn -0.178466797 0.237426758 -0.955078125
vn -0.0833129883 0.678222656 -0.729980469
vn -0.447265625 0.697265625 -0.560058594
vn -0.0455627441 -0.427490234 -0.902832031
vn 0.0895996094 -0.913085938 -0.397705078
vn 0.22253418 -0.364013672 -0.904296875
vn 0.441162109 -0.260498047 -0.858886719
vn 0.243164062 -0.0109405518 -0.969726562
vn -0.00933837891 0.54296875 -0.83984375
vn 0.0101699829 0.810058594 -0.586425781
vn -0.334716797 0.859863281 -0.385009766
vn -0.11541748 0.761230469 -0.638183594
vn -0.298828125 0.684082031 -0.665039062
vn -0.510742188 0.840820312 -0.179321289
vn -0.344726562 0.91015625 -0.23059082
vn -0.184692383 0.934570312 -0.304443359
vn 0.263183594 0.241821289 -0.934082031
vn 0.422607422 0.0103912354 -0.90625
vn -0.0351257324 0.744140625 -0.666992188
vn -0.0977172852 0.856933594 -0.505859375
vn -0.0751953125 0.857910156 -0.508300781
vn 0.174316406 0.423339844 -0.889160156
vn 0.235717773 0.764160156 -0.600097656
vn -0.0200653076 0.910644531 -0.412109375
vn 0.203613281 0.803710938 -0.559082031
vn 0.25390625 0.624511719 -0.73828125
vn 0.450683594 0.294921875 -0.842285156
vn -0.00856018066 0.809082031 -0.587402344
vn 0.452636719 0.855957031 -0.250488281
vn 0.396240234 0.902832031 -0.165649414
vn 0.451904297 0.381591797 -0.806152344
vn 0.174926758 0.859375 -0.48046875
vn 0.346923828 0.745117188 -0.569335938
vn 0.063293457 0.9375 -0.342773438
vn 0.135498047 0.925292969 -0.354248047
vn 0.265136719 0.894042969 -0.361083984
vn 0.402832031 0.912109375 -0.0782470703
vn 0.2421875 0.930175781 -0.276367188
vn 0.49609375 0.863769531 -0.0871582031
vn 0.502441406 0.840820312 0.201293945
vn 0.449951172 0.732910156 -0.510253906
vn 0.619140625 0.629394531 -0.469726562
vn 0.373046875 0.857910156 0.353027344
vn 0.389648438 0.819824219 0.419677734
vn 0.310791016 0.846191406 0.433105469
vn 0.255126953 0.809082031 0.529296875
vn 0.224853516 0.819335938 0.52734375
vn 0.265869141 0.711425781 0.650390625
vn 0.499267578 0.787109375 0.362792969
vn 0.410888672 0.768554688 0.489990234
vn 0.371582031 0.430908203 0.822265625
vn 0.562988281 0.767089844 -0.307617188
vn 0.525390625 0.822265625 -0.218383789
vn 0.752929688 0.518554688 0.405517578
vn 0.631347656 0.475097656 0.612792969
vn 0.461181641 -0.0115585327 0.887207031
vn 0.767089844 0.353271484 -0.535644531
vn 0.905273438 0.282714844 -0.317382812
vn 0.769042969 0.0313415527 0.638671875
vn 0.921875 0.0720825195 0.380859375
vn 0.765136719 -0.328613281 0.553222656
vn 0.907714844 -0.298828125 0.294921875
vn 0.948730469 0.154785156 -0.276367188
vn 0.748535156 -0.642089844 0.166015625
vn 0.489746094 -0.872070312 0.00973510742
vn 0.709472656 -0.592773438 -0.381103516
vn 0.861328125 -0.411865234 -0.297363281
vn 0.796386719 0.230834961 -0.559082031
vn 0.754394531 -0.41796875 -0.506347656
vn 0.614257812 0.496826172 -0.61328125
vn 0.700195312 0.378662109 -0.604980469
vn 0.831054688 -0.116821289 -0.543945312
vn 0.600585938 -0.0845947266 -0.794921875
vn 0.682128906 -0.285400391 -0.673339844
vn -0.510742188 0.840820312 -0.179321289
vn -0.513671875 0.85546875 -0.0663452148
vn -0.298828125 0.684082031 -0.665039062
vn -0.662109375 0.747558594 0.0532531738
vn -0.334716797 0.859863281 -0.385009766
vn -0.528808594 0.845214844 0.0758666992
vn -0.543945312 0.759765625 0.356689453
vn -0.600097656 0.793945312 -0.0997314453
vn -0.447265625 0.697265625 -0.560058594
vn -0.81640625 0.530273438 -0.228637695
vn -0.582519531 0.271240234 -0.766113281
vn -0.658203125 0.744628906 0.112182617
vn -0.518066406 0.78125 0.347900391
vn -0.434082031 0.766113281 0.473876953
vn -0.570800781 0.608398438 0.551269531
vn -0.384277344 0.720214844 0.577636719
vn -0.628417969 0.686523438 0.365722656
vn -0.348388672 0.754882812 0.555175781
vn -0.149658203 0.677734375 0.719726562
vn -0.933105469 0.0808105469 -0.350341797
vn -0.689453125 0.00992584229 -0.724121094
vn -0.882324219 0.461669922 0.0906982422
vn -0.522460938 0.666503906 0.531738281
vn -0.151611328 0.76171875 0.629882812
vn 0.0842895508 0.790527344 0.606933594
vn -0.880371094 -0.261962891 -0.395263672
vn -0.545410156 -0.335205078 -0.768066406
vn -0.999511719 -0.0168914795 0.0311431885
vn -0.81640625 0.410888672 0.406005859
vn -0.388427734 0.65234375 0.650878906
vn 0.0663452148 0.77734375 0.625976562
vn 0.255126953 0.809082031 0.529296875
vn 0.224853516 0.819335938 0.52734375
vn -0.9140625 -0.110412598 0.390380859
vn -0.749023438 -0.158081055 0.643554688
vn -0.674316406 0.381835938 0.631835938
vn -0.159667969 0.644042969 0.748046875
vn 0.0842285156 0.661621094 0.745117188
vn 0.265869141 0.711425781 0.650390625
vn -0.921386719 -0.386962891 -0.0304718018
vn -0.479736328 0.365234375 0.797851562
vn -0.177124023 0.367675781 0.913085938
vn 0.142333984 0.390625 0.909667969
vn 0.371582031 0.430908203 0.822265625
vn -0.529785156 -0.155761719 0.833496094
vn -0.185546875 -0.11151123 0.976074219
vn 0.200073242 -0.0563659668 0.978027344
vn 0.461181641 -0.0115585327 0.887207031
vn -0.469238281 -0.544921875 0.694824219
vn -0.147338867 -0.474121094 0.868164062
vn 0.219482422 -0.396972656 0.891113281
vn 0.476074219 -0.356201172 0.804199219
vn 0.224243164 -0.71484375 0.662597656
vn 0.429931641 -0.711425781 0.555664062
vn 0.183105469 -0.922363281 0.340576172
vn 0.293212891 -0.9296875 0.223876953
vn 0.0173187256 -0.993652344 0.109741211
vn 0.136352539 -0.989746094 0.046295166
vn -0.0705566406 -0.928222656 0.364746094
vn -0.113464355 -0.7734375 0.624023438
vn -0.348632812 -0.819335938 0.455078125
vn -0.119262695 -0.992675781 -0.0187835693
vn 0.0100631714 -0.991699219 -0.126708984
vn -0.223632812 -0.940917969 0.253662109
vn -0.466796875 -0.823242188 0.322753906
vn -0.172607422 -0.977050781 -0.123291016
vn -0.0888671875 -0.963867188 -0.251220703
vn -0.446777344 -0.646972656 -0.618164062
vn -0.311767578 -0.937011719 0.15625
vn -0.650390625 -0.559570312 0.513671875
vn -0.361328125 -0.928222656 0.0863647461
vn -0.581054688 -0.792480469 0.185058594
vn -0.805664062 -0.510253906 0.301025391
vn -0.709960938 -0.701660156 -0.063293457
vn -0.487060547 -0.869140625 -0.085144043
vn -0.413818359 -0.84375 -0.342041016
vn -0.692382812 -0.599609375 -0.401855469
vn 0.779296875 0.465576172 -0.419677734
vn -0.371826172 0.883300781 0.284912109
vn 0.641601562 0.463378906 -0.610839844
vn -0.401611328 0.897460938 0.18371582
vn 0.868652344 0.467773438 -0.1640625
vn -0.285400391 0.858398438 0.426025391
vn 0.208129883 0.508789062 -0.835449219
vn -0.529785156 0.844238281 0.0831298828
vn 0.609375 0.462646484 0.644042969
vn 0.0776977539 0.932128906 -0.353027344
vn -0.0859375 0.881835938 0.463867188
vn 0.248413086 0.419921875 -0.873046875
vn -0.462646484 0.866699219 -0.186767578
vn 0.916992188 0.385498047 0.101013184
vn 0.240966797 0.905273438 0.349853516
vn -0.233032227 0.969726562 -0.0710449219
vn 0.401611328 0.916015625 -0.00379180908
vn -0.194580078 0.521972656 -0.830566406
vn 0.959472656 0.278808594 -0.0427856445
vn -0.706542969 0.525390625 -0.473876953
vn -0.426025391 0.896972656 -0.116760254
vn 0.743652344 0.393066406 0.540527344
vn 0.481445312 0.871582031 -0.0941772461
vn -0.797851562 0.545410156 0.257324219
vn -0.438232422 0.838867188 -0.323486328
vn 0.360839844 0.0961914062 0.927734375
vn 0.371582031 0.883789062 0.283935547
vn -0.859375 0.482421875 0.169555664
vn -0.118469238 0.608398438 -0.784667969
vn 0.373291016 0.494873047 0.784667969
vn 0.545898438 0.812011719 0.205322266
vn -0.365234375 0.838867188 -0.403076172
vn 0.382080078 0.916503906 0.116516113
vn -0.656738281 0.738769531 0.15234375
vn 0.0817260742 0.675292969 0.732910156
vn -0.775878906 0.440185547 0.451660156
vn -0.0168304443 0.668457031 -0.743652344
vn -0.194946289 0.311279297 0.930175781
vn 0.267822266 0.959472656 -0.0880126953
vn -0.642089844 0.6015625 0.475585938
vn -0.118591309 0.814941406 -0.567382812
vn -0.34375 0.0278778076 0.938476562
vn 0.439697266 0.893554688 -0.0885620117
vn -0.711425781 0.528320312 0.463378906
vn 0.0334777832 0.816894531 -0.575683594
vn -0.74609375 0.121520996 0.654296875
vn 0.122436523 0.980957031 -0.150756836
g DropItemLow_0
f 3/3/3 2/2/2 1/1/1
f 4/4/4 3/3/3 1/1/1
f 4/4/4 1/1/1 5/5/5
f 6/6/6 3/3/3 4/4/4
f 7/7/7 4/4/4 5/5/5
f 8/8/8 6/6/6 4/4/4
f 8/8/8 4/4/4 7/7/7
f 9/9/9 7/7/7 5/5/5
f 9/9/9 5/5/5 10/10/10
f 7/7/7 9/9/9 11/11/11
f 11/11/11 8/8/8 7/7/7
f 6/6/6 8/8/8 12/12/12
f 13/13/13 6/6/6 12/12/12
f 13/13/13 12/12/12 14/14/14
f 8/8/8 11/11/11 15/15/15
f 12/12/12 8/8/8 15/15/15
f 15/15/15 11/11/11 16/16/16
f 12/12/12 17/17/17 14/14/14
f 12/12/12 15/15/15 17/17/17
f 14/14/14 17/17/17 18/18/18
f 15/15/15 16/16/16 19/19/19
f 15/15/15 19/19/19 17/17/17
f 16/16/16 20/20/20 19/19/19
f 19/19/19 20/20/20 21/21/21
f 22/22/22 19/19/19 21/21/21
f 17/17/17 19/19/19 22/22/22
f 22/22/22 21/21/21 23/23/23
f 17/17/17 24/24/24 18/18/18
f 17/17/17 22/22/22 24/24/24
f 22/22/22 23/23/23 24/24/24
f 18/18/18 24/24/24 25/25/25
f 24/24/24 26/26/26 25/25/25
f 24/24/24 23/23/23 26/26/26
f 27/27/27 25/25/25 26/26/26
f 23/23/23 28/28/28 26/26/26
f 23/23/23 29/29/29 28/28/28
f 30/30/30 28/28/28 29/29/29
f 31/31/31 27/27/27 26/26/26
f 31/31/31 26/26/26 28/28/28
f 31/31/31 32/32/32 27/27/27
f 33/33/33 32/32/32 31/31/31
f 34/34/34 33/33/33 31/31/31
f 30/30/30 35/35/35 28/28/28
f 35/35/35 31/31/31 28/28/28
f 34/34/34 31/31/31 35/35/35
f 30/30/30 36/36/36 35/35/35
f 35/35/35 36/36/36 37/37/37
f 37/37/37 34/34/34 35/35/35
f 38/38/38 34/34/34 37/37/37
f 39/39/39 38/38/38 37/37/37
f 39/39/39 37/37/37 40/40/40
f 39/39/39 40/40/40 41/41/41
f 39/39/39 42/42/42 38/38/38
f 42/42/42 39/39/39 41/41/41
f 42/42/42 43/43/43 38/38/38
f 44/44/44 43/43/43 42/42/42
f 45/45/45 42/42/42 41/41/41
f 45/45/45 44/44/44 42/42/42
f 46/46/46 45/45/45 41/41/41
f 46/46/46 47/47/47 45/45/45
f 45/45/45 47/47/47 44/44/44
f 47/47/47 48/48/48 44/44/44
f 48/48/48 47/47/47 49/49/49
f 49/49/49 50/50/50 48/48/48
f 51/51/51 50/50/50 49/49/49
f 52/52/52 51/51/51 49/49/49
f 47/47/47 53/53/53 49/49/49
f 52/52/52 49/49/49 53/53/53
f 47/47/47 54/54/54 53/53/53
f 55/55/55 52/52/52 53/53/53
f 55/55/55 53/53/53 54/54/54
f 56/56/56 55/55/55 54/54/54
f 59/59/59 58/58/58 57/57/57
f 60/60/60 59/59/59 57/57/57
f 60/60/60 61/61/61 59/59/59
f 62/62/62 61/61/61 60/60/60
f 63/63/63 62/62/62 60/60/60
f 64/64/64 62/62/62 63/63/63
f 65/65/65 64/64/64 63/63/63
f 66/66/66 64/64/64 65/65/65
f 67/67/67 66/66/66 65/65/65
f 68/68/68 66/66/66 67/67/67
f 69/69/69 68/68/68 67/67/67
f 70/70/70 68/68/68 69/69/69
f 71/71/71 70/70/70 69/69/69
f 71/71/71 72/72/72 70/70/70
f 73/73/73 72/72/72 71/71/71
f 74/74/74 73/73/73 71/71/71
f 74/74/74 75/75/75 73/73/73
f 76/76/76 75/75/75 74/74/74
f 77/77/77 76/76/76 74/74/74
f 80/80/80 79/79/79 78/78/78
f 80/80/80 78/78/78 81/81/81
f 81/81/81 82/82/82 80/80/80
f 82/82/82 81/81/81 83/83/83
f 82/82/82 83/83/83 84/84/84
f 83/83/83 85/85/85 84/84/84
f 84/84/84 85/85/85 86/86/86
f 86/86/86 85/85/85 87/87/87
f 86/86/86 87/87/87 88/88/88
f 86/86/86 88/88/88 89/89/89
f 88/88/88 90/90/90 89/89/89
f 89/89/89 90/90/90 91/91/91
f 89/89/89 91/91/91 92/92/92
f 89/89/89 92/92/92 93/93/93
f 92/92/92 94/94/94 93/93/93
f 94/94/94 95/95/95 93/93/93
f 93/93/93 95/95/95 96/96/96
f 95/95/95 97/97/97 96/96/96
f 98/98/98 96/96/96 97/97/97
f 98/98/98 97/97/97 99/99/99
f 102/102/102 101/101/101 100/100/100
f 100/100/100 101/101/101 103/103/103
f 104/104/104 102/102/102 100/100/100
f 105/105/105 102/102/102 104/104/104
f 106/106/106 100/100/100 103/103/103
f 106/106/106 103/103/103 107/107/107
f 108/108/108 105/105/105 104/104/104
f 108/108/108 104/104/104 109/109/109
f 110/110/110 105/105/105 108/108/108
f 111/111/111 110/110/110 108/108/108
f 111/111/111 108/108/108 109/109/109
f 112/112/112 110/110/110 111/111/111
f 104/104/104 100/100/100 113/113/113
f 104/104/104 113/113/113 109/109/109
f 114/114/114 112/112/112 111/111/111
f 115/115/115 112/112/112 114/114/114
f 116/116/116 106/106/106 107/107/107
f 116/116/116 107/107/107 117/117/117
f 107/107/107 118/118/118 117/117/117
f 117/117/117 118/118/118 119/119/119
f 118/118/118 120/120/120 119/119/119
f 116/116/116 117/117/117 121/121/121
f 117/117/117 119/119/119 121/121/121
f 116/116/116 122/122/122 106/106/106
f 122/122/122 116/116/116 121/121/121
f 119/119/119 120/120/120 123/123/123
f 120/120/120 124/124/124 123/123/123
f 122/122/122 125/125/125 106/106/106
f 106/106/106 125/125/125 100/100/100
f 125/125/125 126/126/126 100/100/100
f 100/100/100 126/126/126 113/113/113
f 127/127/127 125/125/125 122/122/122
f 126/126/126 125/125/125 127/127/127
f 113/113/113 126/126/126 128/128/128
f 126/126/126 127/127/127 128/128/128
f 129/129/129 127/127/127 122/122/122
f 129/129/129 122/122/122 121/121/121
f 128/128/128 127/127/127 129/129/129
f 119/119/119 130/130/130 121/121/121
f 119/119/119 123/123/123 130/130/130
f 123/123/123 124/124/124 131/131/131
f 124/124/124 132/132/132 131/131/131
f 131/131/131 132/132/132 133/133/133
f 132/132/132 134/134/134 133/133/133
f 133/133/133 134/134/134 135/135/135
f 136/136/136 133/133/133 135/135/135
f 136/136/136 137/137/137 133/133/133
f 138/138/138 129/129/129 121/121/121
f 121/121/121 130/130/130 138/138/138
f 139/139/139 128/128/128 129/129/129
f 139/139/139 129/129/129 138/138/138
f 123/123/123 131/131/131 140/140/140
f 123/123/123 140/140/140 130/130/130
f 131/131/131 133/133/133 141/141/141
f 131/131/131 141/141/141 140/140/140
f 137/137/137 142/142/142 133/133/133
f 133/133/133 142/142/142 141/141/141
f 130/130/130 143/143/143 138/138/138
f 143/143/143 130/130/130 140/140/140
f 142/142/142 137/137/137 144/144/144
f 137/137/137 145/145/145 144/144/144
f 146/146/146 141/141/141 142/142/142
f 144/144/144 146/146/146 142/142/142
f 147/147/147 140/140/140 141/141/141
f 147/147/147 143/143/143 140/140/140
f 146/146/146 147/147/147 141/141/141
f 138/138/138 143/143/143 148/148/148
f 148/148/148 139/139/139 138/138/138
f 144/144/144 145/145/145 149/149/149
f 145/145/145 150/150/150 149/149/149
f 149/149/149 150/150/150 151/151/151
f 152/152/152 143/143/143 147/147/147
f 143/143/143 152/152/152 148/148/148
f 153/153/153 146/146/146 144/144/144
f 149/149/149 153/153/153 144/144/144
f 154/154/154 147/147/147 146/146/146
f 154/154/154 152/152/152 147/147/147
f 153/153/153 154/154/154 146/146/146
f 149/149/149 151/151/151 155/155/155
f 149/149/149 155/155/155 153/153/153
f 153/153/153 156/156/156 154/154/154
f 155/155/155 156/156/156 153/153/153
f 155/155/155 151/151/151 157/157/157
f 151/151/151 158/158/158 157/157/157
f 157/157/157 159/159/159 155/155/155
f 159/159/159 156/156/156 155/155/155
f 157/157/157 158/158/158 160/160/160
f 157/157/157 160/160/160 159/159/159
f 158/158/158 161/161/161 160/160/160
f 156/156/156 162/162/162 154/154/154
f 154/154/154 162/162/162 152/152/152
f 159/159/159 163/163/163 156/156/156
f 163/163/163 162/162/162 156/156/156
f 160/160/160 161/161/161 164/164/164
f 161/161/161 165/165/165 164/164/164
f 166/166/166 164/164/164 165/165/165
f 165/165/165 167/167/167 166/166/166
f 167/167/167 168/168/168 166/166/166
f 166/166/166 168/168/168 169/169/169
f 160/160/160 164/164/164 170/170/170
f 170/170/170 164/164/164 166/166/166
f 171/171/171 166/166/166 169/169/169
f 171/171/171 170/170/170 166/166/166
f 171/171/171 169/169/169 172/172/172
f 160/160/160 173/173/173 159/159/159
f 173/173/173 160/160/160 170/170/170
f 163/163/163 159/159/159 174/174/174
f 159/159/159 173/173/173 174/174/174
f 173/173/173 170/170/170 175/175/175
f 175/175/175 170/170/170 171/171/171
f 174/174/174 173/173/173 175/175/175
f 176/176/176 171/171/171 172/172/172
f 176/176/176 175/175/175 171/171/171
f 176/176/176 172/172/172 177/177/177
f 163/163/163 174/174/174 178/178/178
f 163/163/163 178/178/178 162/162/162
f 174/174/174 175/175/175 179/179/179
f 174/174/174 179/179/179 178/178/178
f 180/180/180 176/176/176 177/177/177
f 180/180/180 177/177/177 115/115/115
f 181/181/181 175/175/175 176/176/176
f 175/175/175 181/181/181 179/179/179
f 180/180/180 181/181/181 176/176/176
f 182/182/182 180/180/180 115/115/115
f 182/182/182 115/115/115 114/114/114
f 183/183/183 181/181/181 180/180/180
f 182/182/182 183/183/183 180/180/180
f 179/179/179 181/181/181 183/183/183
f 182/182/182 114/114/114 183/183/183
f 184/184/184 179/179/179 183/183/183
f 178/178/178 179/179/179 184/184/184
f 114/114/114 185/185/185 183/183/183
f 184/184/184 183/183/183 185/185/185
f 114/114/114 111/111/111 185/185/185
f 111/111/111 186/186/186 185/185/185
f 186/186/186 111/111/111 109/109/109
f 185/185/185 186/186/186 187/187/187
f 187/187/187 186/186/186 109/109/109
f 188/188/188 184/184/184 185/185/185
f 188/188/188 185/185/185 187/187/187
f 189/189/189 178/178/178 184/184/184
f 189/189/189 184/184/184 188/188/188
f 190/190/190 187/187/187 109/109/109
f 188/188/188 187/187/187 190/190/190
f 191/191/191 178/178/178 189/189/189
f 178/178/178 191/191/191 162/162/162
f 162/162/162 191/191/191 152/152/152
f 152/152/152 191/191/191 192/192/192
f 192/192/192 191/191/191 189/189/189
f 148/148/148 152/152/152 192/192/192
f 193/193/193 189/189/189 188/188/188
f 189/189/189 193/193/193 192/192/192
f 193/193/193 188/188/188 190/190/190
f 148/148/148 192/192/192 194/194/194
f 193/193/193 194/194/194 192/192/192
f 193/193/193 190/190/190 194/194/194
f 139/139/139 148/148/148 194/194/194
f 190/190/190 109/109/109 195/195/195
f 190/190/190 195/195/195 194/194/194
f 139/139/139 194/194/194 195/195/195
f 109/109/109 113/113/113 195/195/195
f 128/128/128 139/139/139 195/195/195
f 113/113/113 128/128/128 195/195/195
f 198/198/198 197/197/197 196/196/196
f 199/199/199 196/196/196 197/197/197
f 197/197/197 198/198/198 200/200/200
f 201/201/201 199/199/199 197/197/197
f 202/202/202 199/199/199 201/201/201
f 203/203/203 197/197/197 200/200/200
f 201/201/201 197/197/197 203/203/203
f 203/203/203 200/200/200 204/204/204
f 205/205/205 203/203/203 204/204/204
f 205/205/205 204/204/204 206/206/206
f 207/207/207 201/201/201 203/203/203
f 207/207/207 203/203/203 205/205/205
f 208/208/208 202/202/202 201/201/201
f 208/208/208 201/201/201 207/207/207
f 209/209/209 202/202/202 208/208/208
f 209/209/209 210/210/210 202/202/202
f 211/211/211 210/210/210 209/209/209
f 212/212/212 208/208/208 207/207/207
f 208/208/208 212/212/212 209/209/209
f 213/213/213 211/211/211 209/209/209
f 214/214/214 211/211/211 213/213/213
f 215/215/215 205/205/205 206/206/206
f 215/215/215 206/206/206 216/216/216
f 217/217/217 207/207/207 205/205/205
f 212/212/212 207/207/207 217/217/217
f 212/212/212 218/218/218 209/209/209
f 213/213/213 209/209/209 218/218/218
f 219/219/219 214/214/214 213/213/213
f 220/220/220 214/214/214 219/219/219
f 221/221/221 215/215/215 216/216/216
f 221/221/221 216/216/216 222/222/222
f 205/205/205 215/215/215 223/223/223
f 217/217/217 205/205/205 223/223/223
f 223/223/223 215/215/215 221/221/221
f 224/224/224 212/212/212 217/217/217
f 218/218/218 212/212/212 224/224/224
f 225/225/225 213/213/213 218/218/218
f 213/213/213 225/225/225 219/219/219
f 226/226/226 220/220/220 219/219/219
f 220/220/220 226/226/226 227/227/227
f 226/226/226 228/228/228 227/227/227
f 217/217/217 223/223/223 229/229/229
f 224/224/224 217/217/217 229/229/229
f 224/224/224 229/229/229 230/230/230
f 231/231/231 218/218/218 224/224/224
f 225/225/225 218/218/218 231/231/231
f 231/231/231 224/224/224 230/230/230
f 219/219/219 232/232/232 226/226/226
f 225/225/225 232/232/232 219/219/219
f 228/228/228 226/226/226 233/233/233
f 232/232/232 233/233/233 226/226/226
f 234/234/234 228/228/228 233/233/233
f 229/229/229 223/223/223 235/235/235
f 235/235/235 223/223/223 221/221/221
f 236/236/236 225/225/225 231/231/231
f 236/236/236 231/231/231 230/230/230
f 237/237/237 232/232/232 225/225/225
f 232/232/232 237/237/237 233/233/233
f 236/236/236 237/237/237 225/225/225
f 234/234/234 233/233/233 238/238/238
f 237/237/237 238/238/238 233/233/233
f 239/239/239 234/234/234 238/238/238
f 236/236/236 240/240/240 237/237/237
f 240/240/240 236/236/236 230/230/230
f 237/237/237 241/241/241 238/238/238
f 240/240/240 241/241/241 237/237/237
f 239/239/239 238/238/238 242/242/242
f 241/241/241 242/242/242 238/238/238
f 243/243/243 239/239/239 242/242/242
f 241/241/241 240/240/240 244/244/244
f 244/244/244 240/240/240 230/230/230
f 242/242/242 241/241/241 245/245/245
f 245/245/245 241/241/241 244/244/244
f 243/243/243 242/242/242 246/246/246
f 246/246/246 242/242/242 245/245/245
f 247/247/247 243/243/243 246/246/246
f 246/246/246 248/248/248 247/247/247
f 248/248/248 246/246/246 245/245/245
f 248/248/248 249/249/249 247/247/247
f 248/248/248 250/250/250 249/249/249
f 250/250/250 251/251/251 249/249/249
f 250/250/250 252/252/252 251/251/251
f 252/252/252 253/253/253 251/251/251
f 254/254/254 250/250/250 248/248/248
f 254/254/254 252/252/252 250/250/250
f 255/255/255 248/248/248 245/245/245
f 255/255/255 254/254/254 248/248/248
f 255/255/255 245/245/245 256/256/256
f 255/255/255 256/256/256 254/254/254
f 245/245/245 244/244/244 256/256/256
f 252/252/252 257/257/257 253/253/253
f 257/257/257 258/258/258 253/253/253
f 254/254/254 259/259/259 252/252/252
f 256/256/256 259/259/259 254/254/254
f 259/259/259 257/257/257 252/252/252
f 256/256/256 244/244/244 260/260/260
f 256/256/256 260/260/260 259/259/259
f 257/257/257 261/261/261 258/258/258
f 261/261/261 262/262/262 258/258/258
f 261/261/261 263/263/263 262/262/262
f 259/259/259 264/264/264 257/257/257
f 260/260/260 264/264/264 259/259/259
f 244/244/244 265/265/265 260/260/260
f 265/265/265 244/244/244 230/230/230
f 264/264/264 266/266/266 257/257/257
f 266/266/266 261/261/261 257/257/257
f 260/260/260 267/267/267 264/264/264
f 260/260/260 265/265/265 267/267/267
f 267/267/267 266/266/266 264/264/264
f 265/265/265 230/230/230 268/268/268
f 265/265/265 268/268/268 267/267/267
f 230/230/230 229/229/229 268/268/268
f 268/268/268 229/229/229 235/235/235
f 267/267/267 268/268/268 269/269/269
f 267/267/267 269/269/269 266/266/266
f 268/268/268 235/235/235 269/269/269
f 266/266/266 270/270/270 261/261/261
f 269/269/269 270/270/270 266/266/266
f 270/270/270 271/271/271 261/261/261
f 271/271/271 270/270/270 269/269/269
f 261/261/261 271/271/271 263/263/263
f 272/272/272 269/269/269 235/235/235
f 272/272/272 271/271/271 269/269/269
f 271/271/271 272/272/272 263/263/263
f 221/221/221 272/272/272 235/235/235
f 272/272/272 222/222/222 263/263/263
f 272/272/272 221/221/221 222/222/222
f 275/275/275 274/274/274 273/273/273
f 274/274/274 276/276/276 273/273/273
f 273/273/273 276/276/276 277/277/277
f 278/278/278 274/274/274 275/275/275
f 279/279/279 278/278/278 275/275/275
f 276/276/276 280/280/280 277/277/277
f 277/277/277 280/280/280 281/281/281
f 276/276/276 274/274/274 282/282/282
f 282/282/282 274/274/274 278/278/278
f 280/280/280 276/276/276 282/282/282
f 283/283/283 278/278/278 279/279/279
f 282/282/282 278/278/278 283/283/283
f 284/284/284 283/283/283 279/279/279
f 280/280/280 285/285/285 281/281/281
f 282/282/282 285/285/285 280/280/280
f 281/281/281 285/285/285 286/286/286
f 283/283/283 287/287/287 282/282/282
f 287/287/287 283/283/283 284/284/284
f 288/288/288 285/285/285 282/282/282
f 285/285/285 288/288/288 286/286/286
f 287/287/287 289/289/289 282/282/282
f 290/290/290 287/287/287 284/284/284
f 289/289/289 287/287/287 290/290/290
f 286/286/286 288/288/288 291/291/291
f 292/292/292 289/289/289 290/290/290
f 288/288/288 293/293/293 291/291/291
f 293/293/293 288/288/288 282/282/282
f 291/291/291 293/293/293 294/294/294
f 295/295/295 289/289/289 292/292/292
f 289/289/289 295/295/295 282/282/282
f 296/296/296 295/295/295 292/292/292
f 293/293/293 297/297/297 294/294/294
f 282/282/282 297/297/297 293/293/293
f 294/294/294 297/297/297 298/298/298
f 299/299/299 295/295/295 296/296/296
f 282/282/282 295/295/295 299/299/299
f 300/300/300 299/299/299 296/296/296
f 297/297/297 301/301/301 298/298/298
f 301/301/301 297/297/297 282/282/282
f 298/298/298 301/301/301 302/302/302
f 299/299/299 303/303/303 282/282/282
f 303/303/303 299/299/299 300/300/300
f 282/282/282 304/304/304 301/301/301
f 301/301/301 304/304/304 302/302/302
f 282/282/282 303/303/303 305/305/305
f 306/306/306 303/303/303 300/300/300
f 305/305/305 303/303/303 306/306/306
f 302/302/302 304/304/304 307/307/307
f 308/308/308 305/305/305 306/306/306
f 304/304/304 309/309/309 307/307/307
f 282/282/282 309/309/309 304/304/304
f 307/307/307 309/309/309 310/310/310
f 311/311/311 305/305/305 308/308/308
f 282/282/282 305/305/305 311/311/311
f 312/312/312 311/311/311 308/308/308
f 309/309/309 313/313/313 310/310/310
f 282/282/282 313/313/313 309/309/309
f 310/310/310 313/313/313 314/314/314
f 315/315/315 311/311/311 312/312/312
f 311/311/311 315/315/315 282/282/282
f 316/316/316 315/315/315 312/312/312
f 313/313/313 317/317/317 314/314/314
f 282/282/282 317/317/317 313/313/313
f 314/314/314 317/317/317 318/318/318
f 282/282/282 315/315/315 319/319/319
f 319/319/319 315/315/315 316/316/316
f 318/318/318 319/319/319 316/316/316
f 319/319/319 317/317/317 282/282/282
f 317/317/317 319/319/319 318/318/318
