g EffectModel
v 1.11025596 -0.52798599 3.05175774E-07
v 1.58784275E-07 4.26325616E-15 3.05175774E-07
v 1.17977977 4.26325616E-15 3.05175774E-07
v 0.944440067 -1.0042882 -3.05175774E-07
v 1.11025643 0.52798599 3.05175774E-07
v 0.686175764 -1.30049431 3.05175774E-07
v 0.944440663 1.00428903 3.05175774E-07
v 0.360744059 -1.4865557 -3.05175774E-07
v 0.686176181 1.31661236 3.05175774E-07
v 1.27789875E-07 -1.55066752 -3.05175774E-07
v 0.360744208 1.52963758 3.05175774E-07
v -0.36074385 -1.4865557 3.05175774E-07
v 1.58784275E-07 1.60304272 3.05175774E-07
v -0.686175585 -1.30049431 -3.05175774E-07
v -0.36074394 1.52963758 3.05175774E-07
v -0.944439769 -1.00428832 3.05175774E-07
v -0.686175764 1.31661177 3.05175774E-07
v -1.11025572 -0.527986109 3.05175774E-07
v -0.944440067 1.00428879 3.05175774E-07
v -1.17977977 4.26325616E-15 3.05175774E-07
v -1.11025572 0.527985692 3.05175774E-07
vt 0.846854746 0.326870799
vt 0.500000119 0.491818786
vt 0.868574679 0.491818786
vt 0.79505235 0.178069338
vt 0.846854985 0.656766593
vt 0.714367986 0.0855316967
vt 0.795052528 0.805568516
vt 0.612699986 0.0274042636
vt 0.714368165 0.90314132
vt 0.500000119 0.00737504661
vt 0.612699986 0.96969229
vt 0.387300074 0.0274041742
vt 0.500000119 0.992624938
vt 0.285631955 0.0855316967
vt 0.387299985 0.96969229
vt 0.20494777 0.178069279
vt 0.285631955 0.903141141
vt 0.153145343 0.326870799
vt 0.20494768 0.805568278
vt 0.131425321 0.491818786
vt 0.153145343 0.656766593
vn -2.95924593E-07 -6.25813243E-07 1
vn -0 -1.20899813E-07 1
vn -0 0 1
vn 6.20749574E-07 0 1
vn -0 0 1
vn -2.08206245E-07 -1.09896995E-07 1
vn -0 0 1
vn -6.22736309E-07 -5.6117068E-07 1
vn -0 0 1
vn 8.45598095E-07 -3.93605688E-07 1
vn -0 0 1
vn 1.28212562E-07 0 1
vn -0 0 1
vn -4.70953495E-07 -2.21816606E-07 1
vn -0 0 1
vn 6.51618222E-07 -6.12352551E-07 1
vn -0 0 1
vn -0 0 1
vn -0 0 1
vn -0 0 1
vn -0 0 1
g EffectModel_0
f 3/3/3 2/2/2 1/1/1
f 1/1/1 2/2/2 4/4/4
f 5/5/5 2/2/2 3/3/3
f 4/4/4 2/2/2 6/6/6
f 7/7/7 2/2/2 5/5/5
f 6/6/6 2/2/2 8/8/8
f 9/9/9 2/2/2 7/7/7
f 8/8/8 2/2/2 10/10/10
f 11/11/11 2/2/2 9/9/9
f 10/10/10 2/2/2 12/12/12
f 13/13/13 2/2/2 11/11/11
f 12/12/12 2/2/2 14/14/14
f 15/15/15 2/2/2 13/13/13
f 14/14/14 2/2/2 16/16/16
f 17/17/17 2/2/2 15/15/15
f 16/16/16 2/2/2 18/18/18
f 19/19/19 2/2/2 17/17/17
f 18/18/18 2/2/2 20/20/20
f 21/21/21 2/2/2 19/19/19
f 20/20/20 2/2/2 21/21/21
