g EffectModel
v 0.0389166027 0.219002649 0
v -0 0 0
v 1.12311597E-17 0.224802464 0
v 1.64562339E-17 0.346486151 0
v 0.0599818341 0.337546945 0
v -0 0 0
v 0.0758825392 0.202313572 0
v 2.81604011E-17 0.589853585 0
v 2.20773132E-17 0.468169928 0
v 0.116957135 0.311824203 0
v 0.102112293 0.574635565 0
v 0.0810470656 0.456091285 0
v 0.109135091 0.175702363 0
v -0 0 0
v 4.19765971E-17 0.833220959 0
v 3.477149E-17 0.711537302 0
v 0.168209016 0.270808578 0
v 0.158031702 0.421334833 0
v 0.199106306 0.530845463 0
v 0.123177528 0.693179846 0
v 0.144242764 0.811724126 0
v 0.136835456 0.140133947 0
v -0 0 0
v 5.84328259E-17 1.07658839 0
v 4.98417083E-17 0.954904675 0
v 0.210903347 0.215987295 0
v 0.227282926 0.365914792 0
v 0.157560036 0.0974363089 0
v -0 0 0
v 0.284971237 0.291840613 0
v 0.242845953 0.150177777 0
v 0.286356837 0.461021036 0
v 0.281255454 0.749866784 0
v 0.186373204 1.04881275 0
v 0.165307999 0.930268526 0
v 0.240180895 0.640356123 0
v 0.17055735 0.0499705151 0
v -0 0 0
v 7.80571169E-17 1.31995571 0
v 6.78159658E-17 1.19827211 0
v 0.328131855 0.20291923 0
v 0.359039158 0.367693961 0
v 0.262878597 0.0770191476 0
v 0.345430762 0.55612725 0
v 0.404504657 0.651233435 0
v 0.322330087 0.859377444 0
v 0.17507419 6.15236399E-16 0
v -0 0 0
v 0.363404691 0.968888044 0
v 0.228503704 1.28590143 0
v 0.207438439 1.16735709 0
v 1.01377443E-16 1.56332314 0
v 8.92222618E-17 1.44163942 0
v 0.249568939 1.40444565 0
v 0.44555378 1.18790936 0
v 0.270634174 1.52298987 0
v 0.404479295 1.07839859 0
v 0.522652507 0.841445923 0
v 0.463578552 0.746339619 0
v 0.507174909 0.519400597 0
v 0.486628383 1.29741991 0
v 0.640800357 1.03165841 0
v 0.581726432 0.936552107 0
v 0.527702987 1.40693057 0
v 0.433107048 0.443547279 0
v 0.413417816 0.255660713 0
v 0.699874222 1.12676442 0
v 0.803446412 0.822813988 0
v 0.758948147 1.22187066 0
v 0.498703748 0.308402181 0
v 0.355199873 0.104067765 0
v 0.877514303 0.898667336 0
v 0.951582253 0.974520683 0
v 0.925133407 0.572109461 0
v 0.44752115 0.13111639 0
v 0.269840389 9.47110843E-16 0
v 1.01041925 0.624850869 0
v 1.09570527 0.677592397 0
v 1.09376991 0.320456773 0
v 1.1860913 0.34750542 0
v 0.364606649 1.28083092E-15 0
v 1.00144875 0.293408126 0
v 1.12273622 3.97861497E-15 0
v 1.21750247 4.3145385E-15 0
v 1.1860913 -0.34750542 0
v 1.02797008 3.64165553E-15 0
v 1.09376991 -0.320456773 0
v 1.09570527 -0.677592397 0
v 1.01041925 -0.624850869 0
v 0.951582253 -0.974520683 0
v 1.00144875 -0.293408126 0
v 0.933203816 3.30398034E-15 0
v 0.909127414 0.266359508 0
v 0.925133407 -0.572109461 0
v 0.909127414 -0.266359508 0
v 0.839847386 0.519367993 0
v 0.838437617 2.96591001E-15 0
v 0.816806257 0.239310876 0
v 0.754561424 0.466626525 0
v 0.877514303 -0.898667336 0
v 0.803446412 -0.822813988 0
v 0.758948147 -1.22187066 0
v 0.839847386 -0.519367993 0
v 0.816806257 -0.239310876 0
v 0.743671417 2.6277645E-15 0
v 0.754561424 -0.466626525 0
v 0.729378581 0.74696058 0
v 0.655310631 0.671107292 0
v 0.724484921 0.212262258 0
v 0.724484921 -0.212262258 0
v 0.669275641 0.413885057 0
v 0.5812428 0.595253944 0
v 0.58398968 0.361143589 0
v 0.648905158 2.28986336E-15 0
v 0.632163644 0.185213655 0
v 0.539842427 0.158165008 0
v 0.554139018 1.95252741E-15 0
v 0.459372818 1.6160765E-15 0
v 0.632163644 -0.185213655 0
v 0.539842427 -0.158165008 0
v 0.44752115 -0.13111639 0
v 0.669275641 -0.413885057 0
v 0.58398968 -0.361143589 0
v 0.655310631 -0.671107292 0
v 0.355199873 -0.104067765 0
v 0.498703748 -0.308402181 0
v 0.729378581 -0.74696058 0
v 0.640800357 -1.03165841 0
v 0.522652507 -0.841445923 0
v 0.5812428 -0.595253944 0
v 0.507174909 -0.519400597 0
v 0.413417816 -0.255660713 0
v 0.262878597 -0.0770191476 0
v 0.699874222 -1.12676442 0
v 0.527702987 -1.40693057 0
v 0.433107048 -0.443547279 0
v 0.404504657 -0.651233435 0
v 0.328131855 -0.20291923 0
v 0.359039158 -0.367693961 0
v 0.17055735 -0.0499705151 0
v -0 0 0
v 0.242845953 -0.150177777 0
v 0.486628383 -1.29741991 0
v 0.44555378 -1.18790936 0
v 0.270634174 -1.52298987 0
v 0.581726432 -0.936552107 0
v 0.284971237 -0.291840613 0
v 0.157560036 -0.0974363089 0
v -0 0 0
v 0.210903347 -0.215987295 0
v 0.249568939 -1.40444565 0
v 0.228503704 -1.28590143 0
v -2.63836723E-15 -1.56332314 0
v 0.404479295 -1.07839859 0
v 0.363404691 -0.968888044 0
v 0.136835456 -0.140133947 0
v -0 0 0
v 0.463578552 -0.746339619 0
v 0.186373204 -1.04881275 0
v 0.322330087 -0.859377444 0
v 0.281255454 -0.749866784 0
v 0.144242764 -0.811724126 0
v 0.165307999 -0.930268526 0
v -1.79983638E-15 -1.07658839 0
v 0.345430762 -0.55612725 0
v 0.286356837 -0.461021036 0
v 0.199106306 -0.530845463 0
v 0.240180895 -0.640356123 0
v 0.227282926 -0.365914792 0
v 0.168209016 -0.270808578 0
v 0.109135091 -0.175702363 0
v -0 0 0
v 0.116957135 -0.311824203 0
v 0.158031702 -0.421334833 0
v 0.102112293 -0.574635565 0
v 0.0599818341 -0.337546945 0
v 0.0758825392 -0.202313572 0
v -0 0 0
v -0 0 0
v 0.0389166027 -0.219002649 0
v 0.123177528 -0.693179846 0
v -1.38963495E-15 -0.833220959 0
v -1.59421839E-15 -0.954904675 0
v -0.144242764 -0.811724126 0
v -0.102112293 -0.574635565 0
v -1.18579922E-15 -0.711537302 0
v -9.82425552E-16 -0.589853585 0
v 0.0810470656 -0.456091285 0
v -5.75920253E-16 -0.346486151 0
v -3.72216558E-16 -0.224802464 0
v -0 0 0
v -0.0389166027 -0.219002649 0
v -0 0 0
v -7.79227854E-16 -0.468169928 0
v -0.0599818341 -0.337546945 0
v -0.0810470656 -0.456091285 0
v -0.0758825392 -0.202313572 0
v -0 0 0
v -0.116957135 -0.311824203 0
v -0.109135091 -0.175702363 0
v -0 0 0
v -0.168209016 -0.270808578 0
v -0.158031702 -0.421334833 0
v -0.199106306 -0.530845463 0
v -0.123177528 -0.693179846 0
v -0.281255454 -0.749866784 0
v -0.165307999 -0.930268526 0
v -0.186373204 -1.04881275 0
v -0.363404691 -0.968888044 0
v -0.322330087 -0.859377444 0
v -0.404504657 -0.651233435 0
v -0.286356837 -0.461021036 0
v -0.522652507 -0.841445923 0
v -0.404479295 -1.07839859 0
v -0.44555378 -1.18790936 0
v -0.228503704 -1.28590143 0
v -0.240180895 -0.640356123 0
v -2.00677394E-15 -1.19827211 0
v -2.21531769E-15 -1.31995571 0
v -0.207438439 -1.16735709 0
v 0.207438439 -1.16735709 0
v -2.42575349E-15 -1.44163942 0
v -0.270634174 -1.52298987 0
v -0.249568939 -1.40444565 0
v -0.527702987 -1.40693057 0
v -0.486628383 -1.29741991 0
v -0.640800357 -1.03165841 0
v -0.758948147 -1.22187066 0
v -0.581726432 -0.936552107 0
v -0.655310631 -0.671107292 0
v -0.803446412 -0.822813988 0
v -0.699874222 -1.12676442 0
v -0.951582253 -0.974520683 0
v -0.729378581 -0.74696058 0
v -0.754561424 -0.466626525 0
v -0.877514303 -0.898667336 0
v -0.925133407 -0.572109461 0
v -0.839847386 -0.519367993 0
v -1.01041925 -0.624850869 0
v -1.09570527 -0.677592397 0
v -1.09376991 -0.320456773 0
v -1.1860913 -0.34750542 0
v -1.00144875 -0.293408126 0
v -0.909127414 -0.266359508 0
v -1.12273622 1.02177531E-15 0
v -1.21750247 1.1003301E-15 0
v -1.1860913 0.34750542 0
v -1.02797008 9.4049001E-16 0
v -1.09376991 0.320456773 0
v -1.09570527 0.677592397 0
v -0.933203816 8.56906916E-16 0
v -0.816806257 -0.239310876 0
v -1.00144875 0.293408126 0
v -1.01041925 0.624850869 0
v -0.951582253 0.974520683 0
v -0.838437617 7.71459503E-16 0
v -0.909127414 0.266359508 0
v -0.925133407 0.572109461 0
v -0.724484921 -0.212262258 0
v -0.743671417 6.84580604E-16 0
v -0.816806257 0.239310876 0
v -0.839847386 0.519367993 0
v -0.803446412 0.822813988 0
v -0.877514303 0.898667336 0
v -0.758948147 1.22187066 0
v -0.754561424 0.466626525 0
v -0.724484921 0.212262258 0
v -0.669275641 -0.413885057 0
v -0.648905158 5.96703742E-16 0
v -0.632163644 -0.185213655 0
v -0.58398968 -0.361143589 0
v -0.5812428 -0.595253944 0
v -0.507174909 -0.519400597 0
v -0.463578552 -0.746339619 0
v -0.632163644 0.185213655 0
v -0.554139018 5.08261855E-16 0
v -0.539842427 -0.158165008 0
v -0.498703748 -0.308402181 0
v -0.433107048 -0.443547279 0
v -0.669275641 0.413885057 0
v -0.655310631 0.671107292 0
v -0.729378581 0.74696058 0
v -0.640800357 1.03165841 0
v -0.58398968 0.361143589 0
v -0.539842427 0.158165008 0
v -0.459372818 4.1968807E-16 0
v -0.44752115 -0.13111639 0
v -0.699874222 1.12676442 0
v -0.527702987 1.40693057 0
v -0.413417816 -0.255660713 0
v -0.359039158 -0.367693961 0
v -0.345430762 -0.55612725 0
v -0.44752115 0.13111639 0
v -0.364606649 3.3141567E-16 0
v -0.355199873 -0.104067765 0
v -0.328131855 -0.20291923 0
v -0.284971237 -0.291840613 0
v -0.498703748 0.308402181 0
v -0.227282926 -0.365914792 0
v -0.210903347 -0.215987295 0
v -0.242845953 -0.150177777 0
v -0.262878597 -0.0770191476 0
v -0.136835456 -0.140133947 0
v -0 0 0
v -0.157560036 -0.0974363089 0
v -0 0 0
v -0.17055735 -0.0499705151 0
v -0 0 0
v -0.269840389 2.43877726E-16 0
v -0.17507419 1.57507418E-16 0
v -0 0 0
v -0.355199873 0.104067765 0
v -0.262878597 0.0770191476 0
v -0.413417816 0.255660713 0
v -0.17055735 0.0499705151 0
v -0 0 0
v -0.328131855 0.20291923 0
v -0.242845953 0.150177777 0
v -0.157560036 0.0974363089 0
v -0 0 0
v -0.433107048 0.443547279 0
v -0.359039158 0.367693961 0
v -0.284971237 0.291840613 0
v -0.286356837 0.461021036 0
v -0.404504657 0.651233435 0
v -0.281255454 0.749866784 0
v -0.322330087 0.859377444 0
v -0.363404691 0.968888044 0
v -0.522652507 0.841445923 0
v -0.463578552 0.746339619 0
v -0.507174909 0.519400597 0
v -0.345430762 0.55612725 0
v -0.5812428 0.595253944 0
v -0.581726432 0.936552107 0
v -0.44555378 1.18790936 0
v -0.228503704 1.28590143 0
v -0.404479295 1.07839859 0
v -0.486628383 1.29741991 0
v -0.270634174 1.52298987 0
v -0.249568939 1.40444565 0
v 7.80571169E-17 1.31995571 0
v 8.92222618E-17 1.44163942 0
v 1.01377443E-16 1.56332314 0
v 6.78159658E-17 1.19827211 0
v 5.84328259E-17 1.07658839 0
v -0.207438439 1.16735709 0
v -0.186373204 1.04881275 0
v 4.98417083E-17 0.954904675 0
v 4.19765971E-17 0.833220959 0
v -0.165307999 0.930268526 0
v -0.144242764 0.811724126 0
v 3.477149E-17 0.711537302 0
v -0.199106306 0.530845463 0
v -0.240180895 0.640356123 0
v 2.81604011E-17 0.589853585 0
v -0.102112293 0.574635565 0
v 2.20773132E-17 0.468169928 0
v 1.64562339E-17 0.346486151 0
v -0.123177528 0.693179846 0
v -0.227282926 0.365914792 0
v -0.210903347 0.215987295 0
v -0.168209016 0.270808578 0
v -0.136835456 0.140133947 0
v -0 0 0
v -0.158031702 0.421334833 0
v -0.109135091 0.175702363 0
v -0 0 0
v -0.116957135 0.311824203 0
v -0.0810470656 0.456091285 0
v -0.0599818341 0.337546945 0
v 1.12311597E-17 0.224802464 0
v -0.0758825392 0.202313572 0
v -0 0 0
v -0.0389166027 0.219002649 0
v -0 0 0
v -0 0 0
vt 0.964256048 0.916666687
vt 1 1
vt 1 0.916666687
vt 1 0.833333313
vt 0.964256048 0.833333313
vt 0.964256048 1
vt 0.928584218 0.916666687
vt 1 0.666666687
vt 1 0.75
vt 0.928584218 0.833333313
vt 0.964256048 0.666666687
vt 0.964256048 0.75
vt 0.892882407 0.916666687
vt 0.928584218 1
vt 1 0.5
vt 1 0.583333313
vt 0.892882407 0.833333313
vt 0.928584218 0.75
vt 0.928584218 0.666666687
vt 0.964256048 0.583333313
vt 0.964256048 0.5
vt 0.857117593 0.916666687
vt 0.892882407 1
vt 1 0.333333343
vt 1 0.416666657
vt 0.857117593 0.833333313
vt 0.892882407 0.75
vt 0.821415782 0.916666687
vt 0.857117593 1
vt 0.857117593 0.75
vt 0.821415782 0.833333313
vt 0.892882407 0.666666687
vt 0.928584218 0.5
vt 0.964256048 0.333333343
vt 0.964256048 0.416666657
vt 0.928584218 0.583333313
vt 0.785743952 0.916666687
vt 0.821415782 1
vt 1 0.166666672
vt 1 0.25
vt 0.821415782 0.75
vt 0.857117593 0.666666687
vt 0.785743952 0.833333313
vt 0.892882407 0.583333313
vt 0.892882407 0.5
vt 0.928584218 0.416666657
vt 0.75 0.916666687
vt 0.785743952 1
vt 0.928584218 0.333333343
vt 0.964256048 0.166666672
vt 0.964256048 0.25
vt 1 0
vt 1 0.0833333358
vt 0.964256048 0.0833333358
vt 0.928584218 0.166666672
vt 0.964256048 0
vt 0.928584218 0.25
vt 0.892882407 0.333333343
vt 0.892882407 0.416666657
vt 0.857117593 0.5
vt 0.928584218 0.0833333358
vt 0.892882407 0.166666672
vt 0.892882407 0.25
vt 0.928584218 0
vt 0.857117593 0.583333313
vt 0.821415782 0.666666687
vt 0.892882407 0.0833333358
vt 0.857117593 0.166666672
vt 0.892882407 0
vt 0.821415782 0.583333313
vt 0.785743952 0.75
vt 0.857117593 0.0833333358
vt 0.857117593 0
vt 0.821415782 0.166666672
vt 0.785743952 0.666666687
vt 0.75 0.833333313
vt 0.821415782 0.0833333358
vt 0.821415782 0
vt 0.785743952 0.0833333358
vt 0.785743952 0
vt 0.75 0.75
vt 0.785743952 0.166666672
vt 0.75 0.0833333358
vt 0.75 0
vt 0.714256048 0
vt 0.75 0.166666672
vt 0.714256048 0.0833333358
vt 0.678584218 0
vt 0.678584218 0.0833333358
vt 0.642882407 0
vt 0.714256048 0.166666672
vt 0.75 0.25
vt 0.785743952 0.25
vt 0.678584218 0.166666672
vt 0.714256048 0.25
vt 0.821415782 0.25
vt 0.75 0.333333343
vt 0.785743952 0.333333343
vt 0.821415782 0.333333343
vt 0.642882407 0.0833333358
vt 0.642882407 0.166666672
vt 0.607117593 0
vt 0.678584218 0.25
vt 0.714256048 0.333333343
vt 0.75 0.416666657
vt 0.678584218 0.333333343
vt 0.857117593 0.25
vt 0.857117593 0.333333343
vt 0.785743952 0.416666657
vt 0.714256048 0.416666657
vt 0.821415782 0.416666657
vt 0.857117593 0.416666657
vt 0.821415782 0.5
vt 0.75 0.5
vt 0.785743952 0.5
vt 0.785743952 0.583333313
vt 0.75 0.583333313
vt 0.75 0.666666687
vt 0.714256048 0.5
vt 0.714256048 0.583333313
vt 0.714256048 0.666666687
vt 0.678584218 0.416666657
vt 0.678584218 0.5
vt 0.642882407 0.333333343
vt 0.714256048 0.75
vt 0.678584218 0.583333313
vt 0.642882407 0.25
vt 0.607117593 0.166666672
vt 0.607117593 0.333333343
vt 0.642882407 0.416666657
vt 0.642882407 0.5
vt 0.678584218 0.666666687
vt 0.714256048 0.833333313
vt 0.607117593 0.0833333358
vt 0.571415782 0
vt 0.642882407 0.583333313
vt 0.607117593 0.5
vt 0.678584218 0.75
vt 0.642882407 0.666666687
vt 0.714256048 0.916666687
vt 0.75 1
vt 0.678584218 0.833333313
vt 0.571415782 0.0833333358
vt 0.571415782 0.166666672
vt 0.535743952 0
vt 0.607117593 0.25
vt 0.642882407 0.75
vt 0.678584218 0.916666687
vt 0.714256048 1
vt 0.642882407 0.833333313
vt 0.535743952 0.0833333358
vt 0.535743952 0.166666672
vt 0.5 0
vt 0.571415782 0.25
vt 0.571415782 0.333333343
vt 0.642882407 0.916666687
vt 0.678584218 1
vt 0.607117593 0.416666657
vt 0.535743952 0.333333343
vt 0.571415782 0.416666657
vt 0.571415782 0.5
vt 0.535743952 0.5
vt 0.535743952 0.416666657
vt 0.5 0.333333343
vt 0.607117593 0.583333313
vt 0.607117593 0.666666687
vt 0.571415782 0.666666687
vt 0.571415782 0.583333313
vt 0.607117593 0.75
vt 0.607117593 0.833333313
vt 0.607117593 0.916666687
vt 0.642882407 1
vt 0.571415782 0.833333313
vt 0.571415782 0.75
vt 0.535743952 0.666666687
vt 0.535743952 0.833333313
vt 0.571415782 0.916666687
vt 0.607117593 1
vt 0.571415782 1
vt 0.535743952 0.916666687
vt 0.535743952 0.583333313
vt 0.5 0.5
vt 0.5 0.416666657
vt 0.464256018 0.5
vt 0.464256018 0.666666687
vt 0.5 0.583333313
vt 0.5 0.666666687
vt 0.535743952 0.75
vt 0.5 0.833333313
vt 0.5 0.916666687
vt 0.535743952 1
vt 0.464256018 0.916666687
vt 0.5 1
vt 0.5 0.75
vt 0.464256018 0.833333313
vt 0.464256018 0.75
vt 0.428584188 0.916666687
vt 0.464256018 1
vt 0.428584188 0.833333313
vt 0.392882407 0.916666687
vt 0.428584188 1
vt 0.392882407 0.833333313
vt 0.428584188 0.75
vt 0.428584188 0.666666687
vt 0.464256018 0.583333313
vt 0.428584188 0.5
vt 0.464256018 0.416666657
vt 0.464256018 0.333333343
vt 0.428584188 0.333333343
vt 0.428584188 0.416666657
vt 0.392882407 0.5
vt 0.392882407 0.666666687
vt 0.392882407 0.333333343
vt 0.428584188 0.25
vt 0.428584188 0.166666672
vt 0.464256018 0.166666672
vt 0.428584188 0.583333313
vt 0.5 0.25
vt 0.5 0.166666672
vt 0.464256018 0.25
vt 0.535743952 0.25
vt 0.5 0.0833333358
vt 0.464256018 0
vt 0.464256018 0.0833333358
vt 0.428584188 0
vt 0.428584188 0.0833333358
vt 0.392882407 0.166666672
vt 0.392882407 0
vt 0.392882407 0.25
vt 0.357117593 0.333333343
vt 0.357117593 0.166666672
vt 0.392882407 0.0833333358
vt 0.357117593 0
vt 0.357117593 0.25
vt 0.321415812 0.333333343
vt 0.357117593 0.0833333358
vt 0.321415812 0.166666672
vt 0.321415812 0.25
vt 0.321415812 0.0833333358
vt 0.321415812 0
vt 0.285743982 0.0833333358
vt 0.285743982 0
vt 0.285743982 0.166666672
vt 0.285743982 0.25
vt 0.25 0.0833333358
vt 0.25 0
vt 0.214256018 0
vt 0.25 0.166666672
vt 0.214256018 0.0833333358
vt 0.178584188 0
vt 0.25 0.25
vt 0.285743982 0.333333343
vt 0.214256018 0.166666672
vt 0.178584188 0.0833333358
vt 0.142882407 0
vt 0.25 0.333333343
vt 0.214256018 0.25
vt 0.178584188 0.166666672
vt 0.285743982 0.416666657
vt 0.25 0.416666657
vt 0.214256018 0.333333343
vt 0.178584188 0.25
vt 0.142882407 0.166666672
vt 0.142882407 0.0833333358
vt 0.107117586 0
vt 0.178584188 0.333333343
vt 0.214256018 0.416666657
vt 0.321415812 0.416666657
vt 0.25 0.5
vt 0.285743982 0.5
vt 0.321415812 0.5
vt 0.357117593 0.416666657
vt 0.357117593 0.5
vt 0.392882407 0.416666657
vt 0.214256018 0.5
vt 0.25 0.583333313
vt 0.285743982 0.583333313
vt 0.321415812 0.583333313
vt 0.357117593 0.583333313
vt 0.178584188 0.416666657
vt 0.142882407 0.333333343
vt 0.142882407 0.25
vt 0.107117586 0.166666672
vt 0.178584188 0.5
vt 0.214256018 0.583333313
vt 0.25 0.666666687
vt 0.285743982 0.666666687
vt 0.107117586 0.0833333358
vt 0.0714158118 0
vt 0.321415812 0.666666687
vt 0.357117593 0.666666687
vt 0.392882407 0.583333313
vt 0.214256018 0.666666687
vt 0.25 0.75
vt 0.285743982 0.75
vt 0.321415812 0.75
vt 0.357117593 0.75
vt 0.178584188 0.583333313
vt 0.392882407 0.75
vt 0.357117593 0.833333313
vt 0.321415812 0.833333313
vt 0.285743982 0.833333313
vt 0.357117593 0.916666687
vt 0.392882407 1
vt 0.321415812 0.916666687
vt 0.357117593 1
vt 0.285743982 0.916666687
vt 0.321415812 1
vt 0.25 0.833333313
vt 0.25 0.916666687
vt 0.285743982 1
vt 0.214256018 0.75
vt 0.214256018 0.833333313
vt 0.178584188 0.666666687
vt 0.214256018 0.916666687
vt 0.25 1
vt 0.178584188 0.75
vt 0.178584188 0.833333313
vt 0.178584188 0.916666687
vt 0.214256018 1
vt 0.142882407 0.583333313
vt 0.142882407 0.666666687
vt 0.142882407 0.75
vt 0.107117586 0.666666687
vt 0.107117586 0.5
vt 0.0714158118 0.5
vt 0.0714158118 0.416666657
vt 0.0714158118 0.333333343
vt 0.107117586 0.333333343
vt 0.107117586 0.416666657
vt 0.142882407 0.5
vt 0.107117586 0.583333313
vt 0.142882407 0.416666657
vt 0.107117586 0.25
vt 0.0714158118 0.166666672
vt 0.0357439741 0.166666672
vt 0.0714158118 0.25
vt 0.0714158118 0.0833333358
vt 0.0357439741 0
vt 0.0357439741 0.0833333358
vt 0 0.166666672
vt 0 0.0833333358
vt 0 0
vt 0 0.25
vt 0 0.333333343
vt 0.0357439741 0.25
vt 0.0357439741 0.333333343
vt 0 0.416666657
vt 0 0.5
vt 0.0357439741 0.416666657
vt 0.0357439741 0.5
vt 0 0.583333313
vt 0.0714158118 0.666666687
vt 0.0714158118 0.583333313
vt 0 0.666666687
vt 0.0357439741 0.666666687
vt 0 0.75
vt 0 0.833333313
vt 0.0357439741 0.583333313
vt 0.107117586 0.75
vt 0.142882407 0.833333313
vt 0.107117586 0.833333313
vt 0.142882407 0.916666687
vt 0.178584188 1
vt 0.0714158118 0.75
vt 0.107117586 0.916666687
vt 0.142882407 1
vt 0.0714158118 0.833333313
vt 0.0357439741 0.75
vt 0.0357439741 0.833333313
vt 0 0.916666687
vt 0.0714158118 0.916666687
vt 0.107117586 1
vt 0.0357439741 0.916666687
vt 0.0357439741 1
vt 0.0714158118 1
vn -0 0 1
vn -0 1 0
vn -0 0 1
vn -0 0 1
vn -0 0 1
vn -0 1 0
vn -0 0 1
vn -0 0 1
vn -0 0 1
vn -0 0 1
vn -0 0 1
vn -0 0 1
vn -0 0 1
vn -0 1 0
vn -0 0 1
vn -0 0 1
vn -0 0 1
vn -0 0 1
vn -0 0 1
vn -0 0 1
vn -0 0 1
vn -0 0 1
vn -0 1 0
vn -0 0 1
vn -0 0 1
vn -0 0 1
vn -0 0 1
vn -0 0 1
vn -0 1 0
vn -0 0 1
vn -0 0 1
vn -0 0 1
vn -0 0 1
vn -0 0 1
vn -0 0 1
vn -0 0 1
vn -0 0 1
vn -0 1 0
vn -0 0 1
vn -0 0 1
vn -0 0 1
vn -0 0 1
vn -0 0 1
vn -0 0 1
vn -0 0 1
vn -0 0 1
vn -0 0 1
vn -0 1 0
vn -0 0 1
vn -0 0 1
vn -0 0 1
vn -0 0 1
vn -0 0 1
vn -0 0 1
vn -0 0 1
vn -0 0 1
vn -0 0 1
vn -0 0 1
vn -0 0 1
vn -0 0 1
vn -0 0 1
vn -0 0 1
vn -0 0 1
vn -0 0 1
vn -0 0 1
vn -0 0 1
vn -0 0 1
vn -0 0 1
vn -0 0 1
vn -0 0 1
vn -0 0 1
vn -0 0 1
vn -0 0 1
vn -0 0 1
vn -0 0 1
vn -0 0 1
vn -0 0 1
vn -0 0 1
vn -0 0 1
vn -0 0 1
vn -0 0 1
vn -0 0 1
vn -0 0 1
vn -0 0 1
vn -0 0 1
vn -0 0 1
vn -0 0 1
vn -0 0 1
vn -0 0 1
vn -0 0 1
vn -0 0 1
vn -0 0 1
vn -0 0 1
vn -0 0 1
vn -0 0 1
vn -0 0 1
vn -0 0 1
vn -0 0 1
vn -0 0 1
vn -0 0 1
vn -0 0 1
vn -0 0 1
vn -0 0 1
vn -0 0 1
vn -0 0 1
vn -0 0 1
vn -0 0 1
vn -0 0 1
vn -0 0 1
vn -0 0 1
vn -0 0 1
vn -0 0 1
vn -0 0 1
vn -0 0 1
vn -0 0 1
vn -0 0 1
vn -0 0 1
vn -0 0 1
vn -0 0 1
vn -0 0 1
vn -0 0 1
vn -0 0 1
vn -0 0 1
vn -0 0 1
vn -0 0 1
vn -0 0 1
vn -0 0 1
vn -0 0 1
vn -0 0 1
vn -0 0 1
vn -0 0 1
vn -0 0 1
vn -0 0 1
vn -0 0 1
vn -0 0 1
vn -0 0 1
vn -0 0 1
vn -0 0 1
vn -0 0 1
vn -0 0 1
vn -0 1 0
vn -0 0 1
vn -0 0 1
vn -0 0 1
vn -0 0 1
vn -0 0 1
vn -0 0 1
vn -0 0 1
vn -0 1 0
vn -0 0 1
vn -0 0 1
vn -0 0 1
vn -0 0 1
vn -0 0 1
vn -0 0 1
vn -0 0 1
vn -0 1 0
vn -0 0 1
vn -0 0 1
vn -0 0 1
vn -0 0 1
vn -0 0 1
vn -0 0 1
vn -0 0 1
vn -0 0 1
vn -0 0 1
vn -0 0 1
vn -0 0 1
vn -0 0 1
vn -0 0 1
vn -0 0 1
vn -0 1 0
vn -0 0 1
vn -0 0 1
vn -0 0 1
vn -0 0 1
vn -0 0 1
vn -0 1 0
vn -0 1 0
vn -0 0 1
vn -0 0 1
vn -0 0 1
vn -0 0 1
vn -0 0 1
vn -0 0 1
vn -0 0 1
vn -0 0 1
vn -0 0 1
vn -0 0 1
vn -0 0 1
vn -0 1 0
vn -0 0 1
vn -0 1 0
vn -0 0 1
vn -0 0 1
vn -0 0 1
vn -0 0 1
vn -0 1 0
vn -0 0 1
vn -0 0 1
vn -0 1 0
vn -0 0 1
vn -0 0 1
vn -0 0 1
vn -0 0 1
vn -0 0 1
vn -0 0 1
vn -0 0 1
vn -0 0 1
vn -0 0 1
vn -0 0 1
vn -0 0 1
vn -0 0 1
vn -0 0 1
vn -0 0 1
vn -0 0 1
vn -0 0 1
vn -0 0 1
vn -0 0 1
vn -0 0 1
vn -0 0 1
vn -0 0 1
vn -0 0 1
vn -0 0 1
vn -0 0 1
vn -0 0 1
vn -0 0 1
vn -0 0 1
vn -0 0 1
vn -0 0 1
vn -0 0 1
vn -0 0 1
vn -0 0 1
vn -0 0 1
vn -0 0 1
vn -0 0 1
vn -0 0 1
vn -0 0 1
vn -0 0 1
vn -0 0 1
vn -0 0 1
vn -0 0 1
vn -0 0 1
vn -0 0 1
vn -0 0 1
vn -0 0 1
vn -0 0 1
vn -0 0 1
vn -0 0 1
vn -0 0 1
vn -0 0 1
vn -0 0 1
vn -0 0 1
vn -0 0 1
vn -0 0 1
vn -0 0 1
vn -0 0 1
vn -0 0 1
vn -0 0 1
vn -0 0 1
vn -0 0 1
vn -0 0 1
vn -0 0 1
vn -0 0 1
vn -0 0 1
vn -0 0 1
vn -0 0 1
vn -0 0 1
vn -0 0 1
vn -0 0 1
vn -0 0 1
vn -0 0 1
vn -0 0 1
vn -0 0 1
vn -0 0 1
vn -0 0 1
vn -0 0 1
vn -0 0 1
vn -0 0 1
vn -0 0 1
vn -0 0 1
vn -0 0 1
vn -0 0 1
vn -0 0 1
vn -0 0 1
vn -0 0 1
vn -0 0 1
vn -0 0 1
vn -0 0 1
vn -0 0 1
vn -0 0 1
vn -0 0 1
vn -0 0 1
vn -0 0 1
vn -0 0 1
vn -0 0 1
vn -0 0 1
vn -0 0 1
vn -0 0 1
vn -0 0 1
vn -0 0 1
vn -0 0 1
vn -0 0 1
vn -0 1 0
vn -0 0 1
vn -0 1 0
vn -0 0 1
vn -0 1 0
vn -0 0 1
vn -0 0 1
vn -0 1 0
vn -0 0 1
vn -0 0 1
vn -0 0 1
vn -0 0 1
vn -0 1 0
vn -0 0 1
vn -0 0 1
vn -0 0 1
vn -0 1 0
vn -0 0 1
vn -0 0 1
vn -0 0 1
vn -0 0 1
vn -0 0 1
vn -0 0 1
vn -0 0 1
vn -0 0 1
vn -0 0 1
vn -0 0 1
vn -0 0 1
vn -0 0 1
vn -0 0 1
vn -0 0 1
vn -0 0 1
vn -0 0 1
vn -0 0 1
vn -0 0 1
vn -0 0 1
vn -0 0 1
vn -0 0 1
vn -0 0 1
vn -0 0 1
vn -0 0 1
vn -0 0 1
vn -0 0 1
vn -0 0 1
vn -0 0 1
vn -0 0 1
vn -0 0 1
vn -0 0 1
vn -0 0 1
vn -0 0 1
vn -0 0 1
vn -0 0 1
vn -0 0 1
vn -0 0 1
vn -0 0 1
vn -0 0 1
vn -0 0 1
vn -0 0 1
vn -0 0 1
vn -0 0 1
vn -0 1 0
vn -0 0 1
vn -0 0 1
vn -0 1 0
vn -0 0 1
vn -0 0 1
vn -0 0 1
vn -0 0 1
vn -0 0 1
vn -0 1 0
vn -0 0 1
vn -0 1 0
vn -0 1 0
g EffectModel_0
f 3/3/3 2/2/2 1/1/1
f 4/4/4 3/3/3 1/1/1
f 1/1/1 5/5/5 4/4/4
f 5/5/5 1/1/1 6/6/6
f 5/5/5 6/6/6 7/7/7
f 8/8/8 4/4/4 5/5/5
f 8/8/8 9/9/9 4/4/4
f 7/7/7 10/10/10 5/5/5
f 11/11/11 5/5/5 10/10/10
f 8/8/8 5/5/5 12/12/12
f 11/11/11 12/12/12 5/5/5
f 12/12/12 11/11/11 8/8/8
f 10/10/10 7/7/7 13/13/13
f 7/7/7 14/14/14 13/13/13
f 15/15/15 8/8/8 11/11/11
f 15/15/15 16/16/16 8/8/8
f 13/13/13 17/17/17 10/10/10
f 11/11/11 10/10/10 18/18/18
f 18/18/18 10/10/10 17/17/17
f 18/18/18 19/19/19 11/11/11
f 19/19/19 18/18/18 17/17/17
f 15/15/15 11/11/11 20/20/20
f 20/20/20 11/11/11 19/19/19
f 20/20/20 21/21/21 15/15/15
f 21/21/21 20/20/20 19/19/19
f 17/17/17 13/13/13 22/22/22
f 13/13/13 23/23/23 22/22/22
f 24/24/24 15/15/15 21/21/21
f 24/24/24 25/25/25 15/15/15
f 22/22/22 26/26/26 17/17/17
f 19/19/19 17/17/17 27/27/27
f 27/27/27 17/17/17 26/26/26
f 26/26/26 22/22/22 28/28/28
f 22/22/22 29/29/29 28/28/28
f 27/27/27 26/26/26 30/30/30
f 28/28/28 31/31/31 26/26/26
f 30/30/30 26/26/26 31/31/31
f 27/27/27 32/32/32 19/19/19
f 32/32/32 27/27/27 30/30/30
f 33/33/33 19/19/19 32/32/32
f 34/34/34 21/21/21 33/33/33
f 35/35/35 34/34/34 24/24/24
f 24/24/24 21/21/21 35/35/35
f 34/34/34 35/35/35 21/21/21
f 21/21/21 19/19/19 36/36/36
f 33/33/33 36/36/36 19/19/19
f 36/36/36 33/33/33 21/21/21
f 31/31/31 28/28/28 37/37/37
f 28/28/28 38/38/38 37/37/37
f 39/39/39 24/24/24 34/34/34
f 39/39/39 40/40/40 24/24/24
f 30/30/30 31/31/31 41/41/41
f 30/30/30 42/42/42 32/32/32
f 42/42/42 30/30/30 41/41/41
f 37/37/37 43/43/43 31/31/31
f 41/41/41 31/31/31 43/43/43
f 33/33/33 32/32/32 44/44/44
f 44/44/44 32/32/32 42/42/42
f 44/44/44 45/45/45 33/33/33
f 45/45/45 44/44/44 42/42/42
f 34/34/34 33/33/33 46/46/46
f 46/46/46 33/33/33 45/45/45
f 43/43/43 37/37/37 47/47/47
f 37/37/37 48/48/48 47/47/47
f 46/46/46 49/49/49 34/34/34
f 49/49/49 46/46/46 45/45/45
f 50/50/50 34/34/34 49/49/49
f 50/50/50 51/51/51 34/34/34
f 39/39/39 34/34/34 51/51/51
f 51/51/51 50/50/50 39/39/39
f 52/52/52 39/39/39 50/50/50
f 52/52/52 53/53/53 39/39/39
f 52/52/52 50/50/50 54/54/54
f 54/54/54 50/50/50 55/55/55
f 54/54/54 56/56/56 52/52/52
f 56/56/56 54/54/54 55/55/55
f 50/50/50 49/49/49 57/57/57
f 57/57/57 55/55/55 50/50/50
f 57/57/57 49/49/49 58/58/58
f 55/55/55 57/57/57 58/58/58
f 49/49/49 45/45/45 59/59/59
f 59/59/59 58/58/58 49/49/49
f 59/59/59 45/45/45 60/60/60
f 58/58/58 59/59/59 60/60/60
f 56/56/56 55/55/55 61/61/61
f 61/61/61 55/55/55 62/62/62
f 63/63/63 62/62/62 55/55/55
f 55/55/55 58/58/58 63/63/63
f 62/62/62 63/63/63 58/58/58
f 61/61/61 64/64/64 56/56/56
f 64/64/64 61/61/61 62/62/62
f 65/65/65 60/60/60 45/45/45
f 45/45/45 42/42/42 65/65/65
f 65/65/65 42/42/42 66/66/66
f 41/41/41 66/66/66 42/42/42
f 64/64/64 62/62/62 67/67/67
f 67/67/67 62/62/62 68/68/68
f 67/67/67 69/69/69 64/64/64
f 69/69/69 67/67/67 68/68/68
f 60/60/60 65/65/65 70/70/70
f 65/65/65 66/66/66 70/70/70
f 66/66/66 41/41/41 71/71/71
f 41/41/41 43/43/43 71/71/71
f 69/69/69 68/68/68 72/72/72
f 72/72/72 73/73/73 69/69/69
f 73/73/73 72/72/72 74/74/74
f 72/72/72 68/68/68 74/74/74
f 70/70/70 66/66/66 75/75/75
f 71/71/71 75/75/75 66/66/66
f 71/71/71 43/43/43 76/76/76
f 47/47/47 76/76/76 43/43/43
f 73/73/73 74/74/74 77/77/77
f 77/77/77 78/78/78 73/73/73
f 78/78/78 77/77/77 79/79/79
f 79/79/79 80/80/80 78/78/78
f 75/75/75 71/71/71 81/81/81
f 71/71/71 76/76/76 81/81/81
f 77/77/77 74/74/74 82/82/82
f 77/77/77 82/82/82 79/79/79
f 80/80/80 79/79/79 83/83/83
f 83/83/83 84/84/84 80/80/80
f 85/85/85 84/84/84 83/83/83
f 79/79/79 86/86/86 83/83/83
f 79/79/79 82/82/82 86/86/86
f 83/83/83 87/87/87 85/85/85
f 83/83/83 86/86/86 87/87/87
f 88/88/88 85/85/85 87/87/87
f 87/87/87 89/89/89 88/88/88
f 90/90/90 88/88/88 89/89/89
f 86/86/86 91/91/91 87/87/87
f 87/87/87 91/91/91 89/89/89
f 92/92/92 86/86/86 82/82/82
f 91/91/91 86/86/86 92/92/92
f 93/93/93 82/82/82 74/74/74
f 82/82/82 93/93/93 92/92/92
f 89/89/89 94/94/94 90/90/90
f 91/91/91 94/94/94 89/89/89
f 92/92/92 95/95/95 91/91/91
f 94/94/94 91/91/91 95/95/95
f 74/74/74 96/96/96 93/93/93
f 96/96/96 74/74/74 68/68/68
f 93/93/93 97/97/97 92/92/92
f 92/92/92 97/97/97 95/95/95
f 96/96/96 98/98/98 93/93/93
f 93/93/93 98/98/98 97/97/97
f 68/68/68 99/99/99 96/96/96
f 96/96/96 99/99/99 98/98/98
f 94/94/94 100/100/100 90/90/90
f 94/94/94 101/101/101 100/100/100
f 102/102/102 90/90/90 100/100/100
f 100/100/100 101/101/101 102/102/102
f 95/95/95 103/103/103 94/94/94
f 101/101/101 94/94/94 103/103/103
f 97/97/97 104/104/104 95/95/95
f 95/95/95 104/104/104 103/103/103
f 105/105/105 97/97/97 98/98/98
f 104/104/104 97/97/97 105/105/105
f 104/104/104 106/106/106 103/103/103
f 103/103/103 106/106/106 101/101/101
f 68/68/68 107/107/107 99/99/99
f 107/107/107 68/68/68 62/62/62
f 62/62/62 108/108/108 107/107/107
f 107/107/107 108/108/108 99/99/99
f 62/62/62 58/58/58 108/108/108
f 109/109/109 98/98/98 99/99/99
f 98/98/98 109/109/109 105/105/105
f 105/105/105 110/110/110 104/104/104
f 106/106/106 104/104/104 110/110/110
f 111/111/111 99/99/99 108/108/108
f 99/99/99 111/111/111 109/109/109
f 112/112/112 108/108/108 58/58/58
f 58/58/58 60/60/60 112/112/112
f 108/108/108 112/112/112 113/113/113
f 112/112/112 60/60/60 113/113/113
f 108/108/108 113/113/113 111/111/111
f 70/70/70 113/113/113 60/60/60
f 109/109/109 114/114/114 105/105/105
f 105/105/105 114/114/114 110/110/110
f 111/111/111 115/115/115 109/109/109
f 111/111/111 113/113/113 115/115/115
f 109/109/109 115/115/115 114/114/114
f 113/113/113 70/70/70 116/116/116
f 116/116/116 115/115/115 113/113/113
f 70/70/70 75/75/75 116/116/116
f 117/117/117 114/114/114 115/115/115
f 115/115/115 116/116/116 117/117/117
f 116/116/116 75/75/75 118/118/118
f 116/116/116 118/118/118 117/117/117
f 81/81/81 118/118/118 75/75/75
f 114/114/114 119/119/119 110/110/110
f 119/119/119 114/114/114 117/117/117
f 117/117/117 118/118/118 120/120/120
f 117/117/117 120/120/120 119/119/119
f 121/121/121 118/118/118 81/81/81
f 118/118/118 121/121/121 120/120/120
f 110/110/110 119/119/119 122/122/122
f 110/110/110 122/122/122 106/106/106
f 123/123/123 119/119/119 120/120/120
f 119/119/119 123/123/123 122/122/122
f 124/124/124 106/106/106 122/122/122
f 122/122/122 123/123/123 124/124/124
f 81/81/81 125/125/125 121/121/121
f 81/81/81 76/76/76 125/125/125
f 120/120/120 121/121/121 126/126/126
f 120/120/120 126/126/126 123/123/123
f 106/106/106 124/124/124 127/127/127
f 106/106/106 127/127/127 101/101/101
f 128/128/128 101/101/101 127/127/127
f 127/127/127 124/124/124 128/128/128
f 124/124/124 129/129/129 128/128/128
f 129/129/129 124/124/124 130/130/130
f 123/123/123 130/130/130 124/124/124
f 123/123/123 131/131/131 130/130/130
f 131/131/131 123/123/123 126/126/126
f 130/130/130 131/131/131 129/129/129
f 121/121/121 132/132/132 126/126/126
f 132/132/132 121/121/121 125/125/125
f 76/76/76 133/133/133 125/125/125
f 133/133/133 76/76/76 47/47/47
f 101/101/101 128/128/128 134/134/134
f 101/101/101 134/134/134 102/102/102
f 135/135/135 102/102/102 134/134/134
f 134/134/134 128/128/128 135/135/135
f 126/126/126 136/136/136 131/131/131
f 126/126/126 132/132/132 136/136/136
f 137/137/137 131/131/131 136/136/136
f 125/125/125 138/138/138 132/132/132
f 125/125/125 133/133/133 138/138/138
f 132/132/132 139/139/139 136/136/136
f 136/136/136 139/139/139 137/137/137
f 139/139/139 132/132/132 138/138/138
f 47/47/47 140/140/140 133/133/133
f 47/47/47 141/141/141 140/140/140
f 133/133/133 142/142/142 138/138/138
f 142/142/142 133/133/133 140/140/140
f 128/128/128 143/143/143 135/135/135
f 128/128/128 144/144/144 143/143/143
f 145/145/145 135/135/135 143/143/143
f 143/143/143 144/144/144 145/145/145
f 144/144/144 128/128/128 146/146/146
f 129/129/129 146/146/146 128/128/128
f 146/146/146 129/129/129 144/144/144
f 138/138/138 147/147/147 139/139/139
f 138/138/138 142/142/142 147/147/147
f 140/140/140 148/148/148 142/142/142
f 140/140/140 149/149/149 148/148/148
f 150/150/150 142/142/142 148/148/148
f 142/142/142 150/150/150 147/147/147
f 144/144/144 151/151/151 145/145/145
f 144/144/144 152/152/152 151/151/151
f 151/151/151 152/152/152 153/153/153
f 153/153/153 145/145/145 151/151/151
f 129/129/129 154/154/154 144/144/144
f 152/152/152 144/144/144 154/154/154
f 129/129/129 155/155/155 154/154/154
f 154/154/154 155/155/155 152/152/152
f 148/148/148 156/156/156 150/150/150
f 148/148/148 157/157/157 156/156/156
f 155/155/155 129/129/129 158/158/158
f 131/131/131 158/158/158 129/129/129
f 131/131/131 137/137/137 158/158/158
f 158/158/158 137/137/137 155/155/155
f 155/155/155 159/159/159 152/152/152
f 159/159/159 155/155/155 160/160/160
f 137/137/137 160/160/160 155/155/155
f 160/160/160 161/161/161 159/159/159
f 137/137/137 161/161/161 160/160/160
f 161/161/161 162/162/162 159/159/159
f 162/162/162 163/163/163 159/159/159
f 164/164/164 159/159/159 163/163/163
f 163/163/163 162/162/162 164/164/164
f 161/161/161 137/137/137 165/165/165
f 139/139/139 165/165/165 137/137/137
f 139/139/139 166/166/166 165/165/165
f 165/165/165 166/166/166 161/161/161
f 166/166/166 139/139/139 147/147/147
f 166/166/166 167/167/167 161/161/161
f 167/167/167 168/168/168 161/161/161
f 162/162/162 161/161/161 168/168/168
f 168/168/168 167/167/167 162/162/162
f 147/147/147 169/169/169 166/166/166
f 167/167/167 166/166/166 169/169/169
f 147/147/147 150/150/150 169/169/169
f 150/150/150 170/170/170 169/169/169
f 169/169/169 170/170/170 167/167/167
f 170/170/170 150/150/150 156/156/156
f 156/156/156 171/171/171 170/170/170
f 156/156/156 172/172/172 171/171/171
f 173/173/173 170/170/170 171/171/171
f 170/170/170 174/174/174 167/167/167
f 170/170/170 173/173/173 174/174/174
f 175/175/175 167/167/167 174/174/174
f 174/174/174 173/173/173 175/175/175
f 173/173/173 176/176/176 175/175/175
f 171/171/171 177/177/177 173/173/173
f 176/176/176 173/173/173 177/177/177
f 171/171/171 178/178/178 177/177/177
f 177/177/177 179/179/179 176/176/176
f 179/179/179 180/180/180 176/176/176
f 167/167/167 175/175/175 181/181/181
f 167/167/167 181/181/181 162/162/162
f 182/182/182 162/162/162 181/181/181
f 181/181/181 175/175/175 182/182/182
f 162/162/162 182/182/182 183/183/183
f 183/183/183 182/182/182 184/184/184
f 162/162/162 183/183/183 164/164/164
f 184/184/184 164/164/164 183/183/183
f 185/185/185 184/184/184 182/182/182
f 185/185/185 182/182/182 186/186/186
f 175/175/175 186/186/186 182/182/182
f 175/175/175 187/187/187 186/186/186
f 186/186/186 187/187/187 185/185/185
f 176/176/176 188/188/188 175/175/175
f 187/187/187 175/175/175 188/188/188
f 188/188/188 176/176/176 187/187/187
f 189/189/189 176/176/176 180/180/180
f 176/176/176 189/189/189 187/187/187
f 180/180/180 190/190/190 189/189/189
f 180/180/180 191/191/191 190/190/190
f 192/192/192 189/189/189 190/190/190
f 190/190/190 193/193/193 192/192/192
f 189/189/189 194/194/194 187/187/187
f 194/194/194 189/189/189 195/195/195
f 192/192/192 195/195/195 189/189/189
f 195/195/195 187/187/187 194/194/194
f 196/196/196 185/185/185 187/187/187
f 195/195/195 196/196/196 187/187/187
f 197/197/197 195/195/195 192/192/192
f 192/192/192 198/198/198 197/197/197
f 196/196/196 195/195/195 199/199/199
f 197/197/197 199/199/199 195/195/195
f 199/199/199 185/185/185 196/196/196
f 200/200/200 199/199/199 197/197/197
f 197/197/197 201/201/201 200/200/200
f 200/200/200 202/202/202 199/199/199
f 199/199/199 203/203/203 185/185/185
f 203/203/203 199/199/199 202/202/202
f 203/203/203 204/204/204 185/185/185
f 202/202/202 204/204/204 203/203/203
f 205/205/205 185/185/185 204/204/204
f 185/185/185 205/205/205 184/184/184
f 204/204/204 184/184/184 205/205/205
f 204/204/204 206/206/206 184/184/184
f 207/207/207 184/184/184 206/206/206
f 184/184/184 207/207/207 164/164/164
f 207/207/207 208/208/208 164/164/164
f 206/206/206 208/208/208 207/207/207
f 206/206/206 209/209/209 208/208/208
f 206/206/206 210/210/210 209/209/209
f 211/211/211 209/209/209 210/210/210
f 210/210/210 206/206/206 211/211/211
f 212/212/212 211/211/211 206/206/206
f 211/211/211 213/213/213 209/209/209
f 214/214/214 209/209/209 213/213/213
f 213/213/213 215/215/215 214/214/214
f 209/209/209 214/214/214 215/215/215
f 209/209/209 215/215/215 216/216/216
f 204/204/204 217/217/217 206/206/206
f 212/212/212 206/206/206 217/217/217
f 217/217/217 204/204/204 212/212/212
f 218/218/218 164/164/164 208/208/208
f 208/208/208 219/219/219 218/218/218
f 159/159/159 164/164/164 218/218/218
f 159/159/159 218/218/218 219/219/219
f 220/220/220 208/208/208 209/209/209
f 209/209/209 216/216/216 220/220/220
f 208/208/208 220/220/220 219/219/219
f 220/220/220 216/216/216 219/219/219
f 221/221/221 159/159/159 219/219/219
f 159/159/159 221/221/221 152/152/152
f 219/219/219 152/152/152 221/221/221
f 152/152/152 219/219/219 222/222/222
f 222/222/222 219/219/219 216/216/216
f 152/152/152 222/222/222 153/153/153
f 216/216/216 153/153/153 222/222/222
f 216/216/216 223/223/223 153/153/153
f 216/216/216 224/224/224 223/223/223
f 224/224/224 216/216/216 215/215/215
f 215/215/215 223/223/223 224/224/224
f 215/215/215 225/225/225 223/223/223
f 215/215/215 226/226/226 225/225/225
f 227/227/227 225/225/225 226/226/226
f 226/226/226 215/215/215 227/227/227
f 227/227/227 228/228/228 225/225/225
f 229/229/229 227/227/227 215/215/215
f 213/213/213 229/229/229 215/215/215
f 230/230/230 227/227/227 229/229/229
f 229/229/229 213/213/213 230/230/230
f 230/230/230 231/231/231 227/227/227
f 232/232/232 227/227/227 231/231/231
f 231/231/231 228/228/228 232/232/232
f 227/227/227 232/232/232 228/228/228
f 231/231/231 233/233/233 228/228/228
f 230/230/230 234/234/234 231/231/231
f 235/235/235 231/231/231 234/234/234
f 234/234/234 230/230/230 235/235/235
f 231/231/231 236/236/236 233/233/233
f 237/237/237 233/233/233 236/236/236
f 236/236/236 231/231/231 237/237/237
f 235/235/235 238/238/238 231/231/231
f 238/238/238 237/237/237 231/231/231
f 237/237/237 239/239/239 233/233/233
f 239/239/239 240/240/240 233/233/233
f 241/241/241 240/240/240 239/239/239
f 241/241/241 242/242/242 240/240/240
f 239/239/239 237/237/237 243/243/243
f 243/243/243 241/241/241 239/239/239
f 244/244/244 237/237/237 238/238/238
f 244/244/244 243/243/243 237/237/237
f 245/245/245 242/242/242 241/241/241
f 245/245/245 246/246/246 242/242/242
f 247/247/247 246/246/246 245/245/245
f 241/241/241 243/243/243 248/248/248
f 248/248/248 245/245/245 241/241/241
f 249/249/249 247/247/247 245/245/245
f 249/249/249 245/245/245 248/248/248
f 250/250/250 247/247/247 249/249/249
f 251/251/251 248/248/248 243/243/243
f 251/251/251 243/243/243 244/244/244
f 252/252/252 244/244/244 238/238/238
f 238/238/238 235/235/235 252/252/252
f 248/248/248 253/253/253 249/249/249
f 253/253/253 248/248/248 251/251/251
f 254/254/254 250/250/250 249/249/249
f 254/254/254 249/249/249 253/253/253
f 255/255/255 250/250/250 254/254/254
f 256/256/256 251/251/251 244/244/244
f 244/244/244 252/252/252 256/256/256
f 257/257/257 253/253/253 251/251/251
f 257/257/257 251/251/251 256/256/256
f 253/253/253 258/258/258 254/254/254
f 255/255/255 254/254/254 258/258/258
f 258/258/258 253/253/253 257/257/257
f 259/259/259 252/252/252 235/235/235
f 260/260/260 256/256/256 252/252/252
f 260/260/260 252/252/252 259/259/259
f 256/256/256 261/261/261 257/257/257
f 261/261/261 256/256/256 260/260/260
f 262/262/262 258/258/258 257/257/257
f 262/262/262 257/257/257 261/261/261
f 263/263/263 258/258/258 262/262/262
f 258/258/258 263/263/263 264/264/264
f 255/255/255 264/264/264 263/263/263
f 264/264/264 255/255/255 258/258/258
f 265/265/265 255/255/255 263/263/263
f 261/261/261 266/266/266 262/262/262
f 263/263/263 262/262/262 266/266/266
f 267/267/267 261/261/261 260/260/260
f 266/266/266 261/261/261 267/267/267
f 259/259/259 235/235/235 268/268/268
f 268/268/268 235/235/235 230/230/230
f 269/269/269 260/260/260 259/259/259
f 267/267/267 260/260/260 269/269/269
f 270/270/270 259/259/259 268/268/268
f 259/259/259 270/270/270 269/269/269
f 271/271/271 268/268/268 230/230/230
f 268/268/268 271/271/271 270/270/270
f 271/271/271 230/230/230 272/272/272
f 272/272/272 230/230/230 213/213/213
f 273/273/273 272/272/272 213/213/213
f 272/272/272 273/273/273 271/271/271
f 273/273/273 213/213/213 274/274/274
f 211/211/211 274/274/274 213/213/213
f 274/274/274 211/211/211 273/273/273
f 269/269/269 275/275/275 267/267/267
f 276/276/276 269/269/269 270/270/270
f 275/275/275 269/269/269 276/276/276
f 277/277/277 270/270/270 271/271/271
f 276/276/276 270/270/270 277/277/277
f 278/278/278 271/271/271 273/273/273
f 277/277/277 271/271/271 278/278/278
f 279/279/279 273/273/273 211/211/211
f 278/278/278 273/273/273 279/279/279
f 280/280/280 267/267/267 275/275/275
f 280/280/280 266/266/266 267/267/267
f 281/281/281 266/266/266 280/280/280
f 266/266/266 281/281/281 282/282/282
f 282/282/282 263/263/263 266/266/266
f 263/263/263 282/282/282 281/281/281
f 283/283/283 263/263/263 281/281/281
f 275/275/275 284/284/284 280/280/280
f 281/281/281 280/280/280 284/284/284
f 285/285/285 275/275/275 276/276/276
f 284/284/284 275/275/275 285/285/285
f 286/286/286 276/276/276 277/277/277
f 285/285/285 276/276/276 286/286/286
f 287/287/287 277/277/277 278/278/278
f 277/277/277 287/287/287 286/286/286
f 263/263/263 283/283/283 288/288/288
f 288/288/288 265/265/265 263/263/263
f 265/265/265 288/288/288 283/283/283
f 289/289/289 265/265/265 283/283/283
f 278/278/278 290/290/290 287/287/287
f 290/290/290 278/278/278 279/279/279
f 279/279/279 291/291/291 290/290/290
f 291/291/291 279/279/279 211/211/211
f 291/291/291 211/211/211 292/292/292
f 212/212/212 292/292/292 211/211/211
f 292/292/292 212/212/212 291/291/291
f 286/286/286 293/293/293 285/285/285
f 294/294/294 286/286/286 287/287/287
f 293/293/293 286/286/286 294/294/294
f 295/295/295 287/287/287 290/290/290
f 294/294/294 287/287/287 295/295/295
f 296/296/296 290/290/290 291/291/291
f 295/295/295 290/290/290 296/296/296
f 297/297/297 291/291/291 212/212/212
f 296/296/296 291/291/291 297/297/297
f 298/298/298 285/285/285 293/293/293
f 298/298/298 284/284/284 285/285/285
f 297/297/297 212/212/212 299/299/299
f 299/299/299 212/212/212 204/204/204
f 202/202/202 299/299/299 204/204/204
f 300/300/300 297/297/297 299/299/299
f 299/299/299 202/202/202 300/300/300
f 301/301/301 296/296/296 297/297/297
f 297/297/297 300/300/300 301/301/301
f 302/302/302 295/295/295 296/296/296
f 296/296/296 301/301/301 302/302/302
f 303/303/303 300/300/300 202/202/202
f 303/303/303 202/202/202 200/200/200
f 200/200/200 304/304/304 303/303/303
f 305/305/305 300/300/300 303/303/303
f 305/305/305 301/301/301 300/300/300
f 303/303/303 306/306/306 305/305/305
f 307/307/307 301/301/301 305/305/305
f 307/307/307 302/302/302 301/301/301
f 305/305/305 308/308/308 307/307/307
f 295/295/295 302/302/302 309/309/309
f 309/309/309 294/294/294 295/295/295
f 310/310/310 302/302/302 307/307/307
f 310/310/310 309/309/309 302/302/302
f 307/307/307 311/311/311 310/310/310
f 312/312/312 294/294/294 309/309/309
f 312/312/312 293/293/293 294/294/294
f 313/313/313 309/309/309 310/310/310
f 309/309/309 313/313/313 312/312/312
f 314/314/314 293/293/293 312/312/312
f 293/293/293 314/314/314 298/298/298
f 315/315/315 313/313/313 310/310/310
f 310/310/310 316/316/316 315/315/315
f 317/317/317 312/312/312 313/313/313
f 317/317/317 314/314/314 312/312/312
f 318/318/318 313/313/313 315/315/315
f 313/313/313 318/318/318 317/317/317
f 319/319/319 318/318/318 315/315/315
f 315/315/315 320/320/320 319/319/319
f 321/321/321 298/298/298 314/314/314
f 322/322/322 314/314/314 317/317/317
f 314/314/314 322/322/322 321/321/321
f 323/323/323 317/317/317 318/318/318
f 323/323/323 322/322/322 317/317/317
f 324/324/324 322/322/322 323/323/323
f 325/325/325 321/321/321 322/322/322
f 326/326/326 325/325/325 324/324/324
f 325/325/325 326/326/326 327/327/327
f 327/327/327 328/328/328 325/325/325
f 328/328/328 327/327/327 326/326/326
f 328/328/328 329/329/329 325/325/325
f 329/329/329 330/330/330 325/325/325
f 321/321/321 331/331/331 298/298/298
f 325/325/325 331/331/331 321/321/321
f 331/331/331 325/325/325 330/330/330
f 330/330/330 329/329/329 331/331/331
f 331/331/331 284/284/284 298/298/298
f 332/332/332 325/325/325 322/322/322
f 325/325/325 332/332/332 324/324/324
f 322/322/322 324/324/324 332/332/332
f 284/284/284 331/331/331 333/333/333
f 329/329/329 333/333/333 331/331/331
f 333/333/333 281/281/281 284/284/284
f 329/329/329 281/281/281 333/333/333
f 281/281/281 329/329/329 334/334/334
f 334/334/334 283/283/283 281/281/281
f 335/335/335 334/334/334 329/329/329
f 335/335/335 283/283/283 334/334/334
f 336/336/336 335/335/335 328/328/328
f 329/329/329 328/328/328 337/337/337
f 337/337/337 335/335/335 329/329/329
f 335/335/335 337/337/337 328/328/328
f 283/283/283 335/335/335 338/338/338
f 338/338/338 289/289/289 283/283/283
f 289/289/289 338/338/338 335/335/335
f 339/339/339 289/289/289 335/335/335
f 335/335/335 336/336/336 340/340/340
f 340/340/340 339/339/339 335/335/335
f 339/339/339 340/340/340 336/336/336
f 339/339/339 336/336/336 341/341/341
f 339/339/339 341/341/341 342/342/342
f 342/342/342 343/343/343 339/339/339
f 344/344/344 341/341/341 336/336/336
f 336/336/336 345/345/345 344/344/344
f 346/346/346 336/336/336 328/328/328
f 336/336/336 346/346/346 345/345/345
f 328/328/328 347/347/347 346/346/346
f 346/346/346 347/347/347 345/345/345
f 348/348/348 345/345/345 347/347/347
f 347/347/347 328/328/328 326/326/326
f 347/347/347 349/349/349 348/348/348
f 347/347/347 350/350/350 349/349/349
f 350/350/350 347/347/347 326/326/326
f 350/350/350 351/351/351 349/349/349
f 326/326/326 351/351/351 350/350/350
f 352/352/352 349/349/349 351/351/351
f 351/351/351 326/326/326 353/353/353
f 326/326/326 354/354/354 353/353/353
f 354/354/354 326/326/326 324/324/324
f 324/324/324 353/353/353 354/354/354
f 351/351/351 355/355/355 352/352/352
f 351/351/351 356/356/356 355/355/355
f 357/357/357 355/355/355 356/356/356
f 356/356/356 358/358/358 357/357/357
f 359/359/359 351/351/351 353/353/353
f 351/351/351 359/359/359 356/356/356
f 353/353/353 356/356/356 359/359/359
f 353/353/353 324/324/324 360/360/360
f 360/360/360 324/324/324 323/323/323
f 360/360/360 323/323/323 361/361/361
f 318/318/318 361/361/361 323/323/323
f 361/361/361 318/318/318 319/319/319
f 353/353/353 360/360/360 362/362/362
f 361/361/361 362/362/362 360/360/360
f 363/363/363 361/361/361 319/319/319
f 362/362/362 361/361/361 363/363/363
f 319/319/319 364/364/364 363/363/363
f 356/356/356 353/353/353 365/365/365
f 365/365/365 353/353/353 362/362/362
f 366/366/366 362/362/362 363/363/363
f 363/363/363 367/367/367 366/366/366
f 362/362/362 368/368/368 365/365/365
f 356/356/356 365/365/365 368/368/368
f 368/368/368 362/362/362 366/366/366
f 369/369/369 356/356/356 368/368/368
f 356/356/356 369/369/369 358/358/358
f 369/369/369 370/370/370 358/358/358
f 368/368/368 370/370/370 369/369/369
f 371/371/371 358/358/358 370/370/370
f 372/372/372 368/368/368 366/366/366
f 370/370/370 368/368/368 372/372/372
f 366/366/366 373/373/373 372/372/372
f 370/370/370 374/374/374 371/371/371
f 374/374/374 370/370/370 372/372/372
f 374/374/374 375/375/375 371/371/371
f 372/372/372 376/376/376 374/374/374
