g EffectModel
v 1.11025608 -0.52798599 3.05175774E-07
v 1.84774393E-07 0 3.05175774E-07
v 1.17977977 0 3.05175774E-07
v 0.944440126 -1.0042882 -3.05175774E-07
v 1.11025643 0.52798599 3.05175774E-07
v 0.686175823 -1.30049431 3.05175774E-07
v 0.944440722 1.00428903 3.05175774E-07
v 0.360744089 -1.4865557 -3.05175774E-07
v 0.6861763 1.31661236 3.05175774E-07
v 1.53779979E-07 -1.55066752 -3.05175774E-07
v 0.360744238 1.52963758 3.05175774E-07
v -0.360743821 -1.4865557 3.05175774E-07
v 1.84774393E-07 1.60304272 3.05175774E-07
v -0.686175525 -1.30049431 -3.05175774E-07
v -0.36074391 1.52963758 3.05175774E-07
v -0.94443965 -1.00428832 3.05175774E-07
v -0.686175704 1.31661177 3.05175774E-07
v -1.11025572 -0.527986109 3.05175774E-07
v -0.944440007 1.00428879 3.05175774E-07
v -1.17977977 0 3.05175774E-07
v -1.11025572 0.527985692 3.05175774E-07
vt 0.846679688 0.326904297
vt 0.5 0.491699219
vt 0.868652344 0.491699219
vt 0.794921875 0.178100586
vt 0.846679688 0.656738281
vt 0.714355469 0.0855102539
vt 0.794921875 0.805664062
vt 0.612792969 0.0274047852
vt 0.714355469 0.903320312
vt 0.5 0.00737380981
vt 0.612792969 0.969726562
vt 0.387207031 0.0274047852
vt 0.5 0.992675781
vt 0.285644531 0.0855102539
vt 0.387207031 0.969726562
vt 0.204956055 0.178100586
vt 0.285644531 0.903320312
vt 0.153198242 0.326904297
vt 0.204956055 0.805664062
vt 0.131469727 0.491699219
vt 0.153198242 0.656738281
vn -2.98023224E-07 -5.96046448E-07 1
vn -0 -1.1920929E-07 1
vn -0 0 1
vn 5.96046448E-07 0 1
vn -0 0 1
vn -1.78813934E-07 -1.1920929E-07 1
vn -0 0 1
vn -5.96046448E-07 -5.36441803E-07 1
vn -0 0 1
vn 8.34465027E-07 -4.17232513E-07 1
vn -0 0 1
vn 1.1920929E-07 0 1
vn -0 0 1
vn -4.76837158E-07 -2.38418579E-07 1
vn -0 0 1
vn 6.55651093E-07 -5.96046448E-07 1
vn -0 0 1
vn -0 0 1
vn -0 0 1
vn -0 0 1
vn -0 0 1
g EffectModel_0
f 3/3/3 2/2/2 1/1/1
f 1/1/1 2/2/2 4/4/4
f 5/5/5 2/2/2 3/3/3
f 4/4/4 2/2/2 6/6/6
f 7/7/7 2/2/2 5/5/5
f 6/6/6 2/2/2 8/8/8
f 9/9/9 2/2/2 7/7/7
f 8/8/8 2/2/2 10/10/10
f 11/11/11 2/2/2 9/9/9
f 10/10/10 2/2/2 12/12/12
f 13/13/13 2/2/2 11/11/11
f 12/12/12 2/2/2 14/14/14
f 15/15/15 2/2/2 13/13/13
f 14/14/14 2/2/2 16/16/16
f 17/17/17 2/2/2 15/15/15
f 16/16/16 2/2/2 18/18/18
f 19/19/19 2/2/2 17/17/17
f 18/18/18 2/2/2 20/20/20
f 21/21/21 2/2/2 19/19/19
f 20/20/20 2/2/2 21/21/21
