g Floor
v -4.63925153E-06 -2.36511232E-06 8.5
v 4.99356842 -2.4414062E-06 -5.07801008
v 4.99356842 -2.36511232E-06 8.5
v 2.83130646 -2.4414062E-06 -5.73392916
v 1.84847556E-06 -2.4414062E-06 -6.01278782
v -2.8313024 -2.4414062E-06 -5.73393297
v -4.99356747 -2.4414062E-06 -5.07801628
v -4.99356747 -2.36511232E-06 8.5
vt 0.501953125 0.00104618073
vt 0.815429688 0.8515625
vt 0.815429688 0.00104618073
vt 0.6796875 0.893066406
vt 0.501953125 0.910644531
vt 0.324462891 0.893066406
vt 0.188598633 0.8515625
vt 0.188598633 0.00104618073
vn -0 1 0
vn -0 1 0
vn -0 1 0
vn -0 1 0
vn -0 1 0
vn -0 1 0
vn -0 1 0
vn -0 1 0
g Floor_0
f 3/3/3 2/2/2 1/1/1
f 2/2/2 4/4/4 1/1/1
f 5/5/5 1/1/1 4/4/4
f 6/6/6 1/1/1 5/5/5
f 7/7/7 1/1/1 6/6/6
f 7/7/7 8/8/8 1/1/1
