g GoalChipA
v -0.0534661859 0.863555908 0.20703125
v 6.10351549E-07 0.820045471 0.20703125
v 6.10351549E-07 0.863555908 0.188659668
v 6.10351549E-07 0.907058716 0.20703125
v -0.0534661859 0.863555908 0.20703125
v 6.10351549E-07 0.863555908 0.188659668
v 0.0534674078 0.863555908 0.20703125
v 6.10351549E-07 0.863555908 0.188659668
v 6.10351549E-07 0.820045471 0.20703125
v 6.10351549E-07 0.907058716 0.20703125
v 6.10351549E-07 0.863555908 0.188659668
v 0.0534674078 0.863555908 0.20703125
v -0.229308471 0.482011795 0.435241699
v -0.229308471 0.385608673 0.435241699
v 0.229309693 0.385608673 0.435241699
v 0.229309693 0.482011795 0.435241699
v 0.229309693 0.482011795 0.435241699
v 0.229309693 0.482011795 0.496154785
v -0.229308471 0.482011795 0.496154785
v -0.229308471 0.482011795 0.435241699
v 0.222778931 0.48589325 0.499511719
v 0.223694459 0.694923401 0.296691895
v 0.140808716 0.773643494 0.296691895
v -6.04248016E-05 0.833183289 0.296691895
v -0.229308471 0.48589325 0.499511719
v -0.127013549 0.778930664 0.296691895
v -0.229308471 0.694923401 0.296691895
v 0.223694459 0.694923401 0.296691895
v 0.222778931 0.48589325 0.499511719
v 0.23590149 0 0.499511719
v 0.23590149 0 0.296691895
v -0.229308471 0 0.296691895
v -0.229308471 0 0.499511719
v -0.229308471 0.48589325 0.499511719
v -0.229308471 0.694923401 0.296691895
v 0.222778931 0.48589325 0.499511719
v -0.229308471 0.48589325 0.499511719
v -0.229308471 0 0.499511719
v 0.23590149 0 0.499511719
v -0.229308471 0.0964012146 0.219665527
v -0.229308471 -2.8865883E-09 0.219665527
v 0.229309693 -2.8865883E-09 0.219665527
v 0.229309693 0.0964012146 0.219665527
v 0.229309693 0.0964012146 0.219665527
v 0.229309693 0.0964012146 0.256652832
v -0.229308471 0.0964012146 0.256652832
v -0.229308471 0.0964012146 0.219665527
v -0.229308471 0.192804337 0.256652832
v -0.229308471 0.0964012146 0.256652832
v 0.229309693 0.0964012146 0.256652832
v 0.229309693 0.192804337 0.256652832
v 0.229309693 0.192804337 0.256652832
v 0.229309693 0.192804337 0.317565918
v -0.229308471 0.192804337 0.317565918
v -0.229308471 0.192804337 0.256652832
v -0.229308471 0.385608673 0.378479004
v -0.229308471 0.289207429 0.378479004
v 0.229309693 0.289207429 0.378479004
v 0.229309693 0.385608673 0.378479004
v 0.229309693 0.385608673 0.378479004
v 0.229309693 0.385608673 0.439331055
v -0.229308471 0.385608673 0.439331055
v -0.229308471 0.385608673 0.378479004
v -0.229308471 0.289207458 0.317565918
v -0.229308471 0.192804337 0.317565918
v 0.229309693 0.192804337 0.317565918
v 0.229309693 0.289207458 0.317565918
v 0.229309693 0.289207458 0.317565918
v 0.229309693 0.289207458 0.378479004
v -0.229308471 0.289207458 0.378479004
v -0.229308471 0.289207458 0.317565918
v 0.246826172 -0.145931229 -0.474914551
v 0.246826172 0 -0.474914551
v -0.246764526 0 -0.474914551
v -0.246764526 -0.145931229 -0.474914551
v -0.246764526 -0.145931229 -0.474914551
v -0.246764526 0 -0.474914551
v -0.493529648 0 0
v -0.493529648 -0.145931229 0
v -0.493529648 -0.145931229 0
v -0.493529648 0 0
v -0.246764526 0 0.474975586
v -0.246764526 -0.145931229 0.474975586
v -0.246764526 -0.145931229 0.474975586
v -0.246764526 0 0.474975586
v 0.246826172 0 0.474975586
v 0.246826172 -0.145931229 0.474975586
v 0.246826172 -0.145931229 0.474975586
v 0.246826172 0 0.474975586
v 0.493591309 0 0
v 0.493591309 -0.145931229 0
v 0.493591309 -0.145931229 0
v 0.493591309 0 0
v 0.246826172 0 -0.474914551
v 0.246826172 -0.145931229 -0.474914551
v 0.203430787 0.659881592 0.20111084
v 0.269287109 0.720584869 0.20111084
v 0.235046998 0.781105042 0.20111084
v 0.180420533 0.699142456 0.20111084
v 0.147522584 0.739437103 0.20111084
v 0.198914185 0.826774597 0.20111084
v 0.12451233 0.761398315 0.20111084
v 0.159180298 0.862960815 0.20111084
v 0.287109375 0.661022186 0.208496094
v 0.268554688 0.714271545 0.208496094
v 0.205200806 0.655437469 0.208496094
v 0.293518066 0.606887817 0.208496094
v 0.213440552 0.604091644 0.208496094
v 0.296691895 0.5552845 0.208496094
v 0.216980591 0.555286407 0.208496094
v 0.296691895 0.47631073 0.208496094
v 0.216980591 0.47631073 0.208496094
v 0.296691895 0.114679337 0.208496094
v 0.296691895 0.217826843 0.208496094
v 0.216980591 0.217826843 0.208496094
v 0.216980591 0.114679337 0.208496094
v 0.216980591 0.217826843 0.300415039
v 0.216980591 0.114679337 0.300415039
v 0.216980591 0.114679337 0.208496094
v 0.216980591 0.217826843 0.208496094
v 0.235046998 0.781105042 0.307312012
v 0.269287109 0.720584869 0.307312012
v 0.203430787 0.659881592 0.307312012
v 0.180420533 0.699142456 0.307312012
v 0.198914185 0.826774597 0.307312012
v 0.147522584 0.739437103 0.307312012
v 0.12451233 0.761398315 0.307312012
v 0.159180298 0.862960815 0.307312012
v 0.296691895 0.217826843 0.300415039
v 0.296691895 0.114679337 0.300415039
v 0.216980591 0.114679337 0.300415039
v 0.216980591 0.217826843 0.300415039
v 0.287109375 0.661022186 0.299865723
v 0.205200806 0.655437469 0.299865723
v 0.268554688 0.714271545 0.299865723
v 0.293518066 0.606887817 0.299865723
v 0.213440552 0.604091644 0.299865723
v 0.216980591 0.555286407 0.299865723
v 0.296691895 0.5552845 0.299865723
v 0.216980591 0.47631073 0.299865723
v 0.296691895 0.47631073 0.299865723
v 0.268554688 0.714271545 0.208496094
v 0.269287109 0.720584869 0.20111084
v 0.203430787 0.659881592 0.20111084
v 0.205200806 0.655437469 0.208496094
v 0.269287109 0.720584869 0.307312012
v 0.268554688 0.714271545 0.299865723
v 0.205200806 0.655437469 0.299865723
v 0.203430787 0.659881592 0.307312012
v 0.159180298 0.862960815 0.20111084
v 0.155274048 0.861297607 0.205322266
v 0.123047486 0.767276764 0.205322266
v 0.12451233 0.761398315 0.20111084
v 0.12451233 0.761398315 0.307312012
v 0.123047486 0.767276764 0.302062988
v 0.155274048 0.861297607 0.302062988
v 0.159180298 0.862960815 0.307312012
v 0.321472168 0.0910186842 0.19329834
v 0.296691895 0.114679337 0.208496094
v 0.216980591 0.114679337 0.208496094
v 0.201416627 0.0910186842 0.19329834
v 0.216980591 0.114679337 0.300415039
v 0.201416627 0.0910186842 0.313598633
v 0.201416627 0.0910186842 0.19329834
v 0.216980591 0.114679337 0.208496094
v 0.296691895 0.114679337 0.300415039
v 0.321472168 0.0910186842 0.313598633
v 0.201416627 0.0910186842 0.313598633
v 0.216980591 0.114679337 0.300415039
v 0.292053223 0.470674515 0.295898438
v 0.292053223 0.223464936 0.295898438
v 0.221619263 0.223464936 0.295898438
v 0.221619263 0.470676422 0.295898438
v 0.221619263 0.470676422 0.295898438
v 0.221619263 0.223464936 0.295898438
v 0.221619263 0.223464936 0.212463379
v 0.221619263 0.470676422 0.212463379
v 0.292053223 0.223464936 0.212463379
v 0.292053223 0.470674515 0.212463379
v 0.221619263 0.470676422 0.212463379
v 0.221619263 0.223464936 0.212463379
v 0.201416627 0 0.19329834
v 0.321472168 0 0.19329834
v 0.321472168 0.0910186842 0.19329834
v 0.201416627 0.0910186842 0.19329834
v 0.201416627 0.0910186842 0.313598633
v 0.201416627 0 0.313598633
v 0.201416627 0 0.19329834
v 0.201416627 0.0910186842 0.19329834
v 0.321472168 0.0910186842 0.313598633
v 0.321472168 0 0.313598633
v 0.201416627 0 0.313598633
v 0.201416627 0.0910186842 0.313598633
v 0.296691895 0.47631073 0.299865723
v 0.292053223 0.470674515 0.295898438
v 0.221619263 0.470676422 0.295898438
v 0.216980591 0.47631073 0.299865723
v 0.216980591 0.217826843 0.300415039
v 0.221619263 0.223464936 0.295898438
v 0.292053223 0.223464936 0.295898438
v 0.296691895 0.217826843 0.300415039
v 0.216980591 0.47631073 0.299865723
v 0.221619263 0.470676422 0.295898438
v 0.221619263 0.470676422 0.212463379
v 0.216980591 0.47631073 0.208496094
v 0.216980591 0.217826843 0.208496094
v 0.221619263 0.223464936 0.212463379
v 0.221619263 0.223464936 0.295898438
v 0.216980591 0.217826843 0.300415039
v 0.296691895 0.217826843 0.208496094
v 0.292053223 0.223464936 0.212463379
v 0.221619263 0.223464936 0.212463379
v 0.216980591 0.217826843 0.208496094
v 0.216980591 0.47631073 0.208496094
v 0.221619263 0.470676422 0.212463379
v 0.292053223 0.470674515 0.212463379
v 0.296691895 0.47631073 0.208496094
v 0.123047486 0.767276764 0.302062988
v 0.12451233 0.761398315 0.307312012
v 0.12451233 0.761398315 0.20111084
v 0.123047486 0.767276764 0.205322266
v 0.106445923 0.779262543 0.302062988
v 0.106445923 0.779262543 0.205322266
v 0.0671392828 0.798049927 0.302062988
v 0.0671392828 0.798049927 0.205322266
v 0.0285650622 0.810684204 0.302062988
v 0.0285650622 0.810684204 0.205322266
v 6.10351549E-07 0.812438965 0.205322266
v 6.10351549E-07 0.812438965 0.302062988
v 0.155274048 0.861297607 0.302062988
v 0.123047486 0.767276764 0.302062988
v 0.106445923 0.779262543 0.302062988
v 0.13446106 0.876399994 0.302062988
v 0.0862432867 0.902484894 0.302062988
v 0.0671392828 0.798049927 0.302062988
v 0.0361334234 0.91897583 0.302062988
v 0.0285650622 0.810684204 0.302062988
v 6.10351549E-07 0.921897888 0.302062988
v 6.10351549E-07 0.812438965 0.302062988
v 0.155274048 0.861297607 0.205322266
v 0.106445923 0.779262543 0.205322266
v 0.123047486 0.767276764 0.205322266
v 0.13446106 0.876399994 0.205322266
v 0.0671392828 0.798049927 0.205322266
v 0.0862432867 0.902484894 0.205322266
v 0.0285650622 0.810684204 0.205322266
v 0.0361334234 0.91897583 0.205322266
v 6.10351549E-07 0.812438965 0.205322266
v 6.10351549E-07 0.921897888 0.205322266
v 0.0361334234 0.91897583 0.205322266
v 6.10351549E-07 0.921897888 0.302062988
v 6.10351549E-07 0.921897888 0.205322266
v 0.0361334234 0.91897583 0.302062988
v 0.0862432867 0.902484894 0.205322266
v 0.0862432867 0.902484894 0.302062988
v 0.13446106 0.876399994 0.205322266
v 0.13446106 0.876399994 0.302062988
v 0.155274048 0.861297607 0.205322266
v 0.155274048 0.861297607 0.302062988
v 0.159180298 0.862960815 0.307312012
v 0.155274048 0.861297607 0.302062988
v 0.155274048 0.861297607 0.205322266
v 0.159180298 0.862960815 0.20111084
v 0.269287109 0.720584869 0.20111084
v 0.269287109 0.720584869 0.307312012
v 0.235046998 0.781105042 0.307312012
v 0.235046998 0.781105042 0.20111084
v 0.198914185 0.826774597 0.307312012
v 0.198914185 0.826774597 0.20111084
v 0.159180298 0.862960815 0.20111084
v 0.159180298 0.862960815 0.307312012
v 0.268554688 0.714271545 0.299865723
v 0.269287109 0.720584869 0.307312012
v 0.269287109 0.720584869 0.20111084
v 0.268554688 0.714271545 0.208496094
v 0.287109375 0.661022186 0.208496094
v 0.268554688 0.714271545 0.299865723
v 0.268554688 0.714271545 0.208496094
v 0.287109375 0.661022186 0.299865723
v 0.293518066 0.606887817 0.299865723
v 0.293518066 0.606887817 0.208496094
v 0.296691895 0.5552845 0.299865723
v 0.296691895 0.5552845 0.208496094
v 0.296691895 0.47631073 0.299865723
v 0.296691895 0.47631073 0.208496094
v 0.292053223 0.470674515 0.212463379
v 0.292053223 0.470674515 0.295898438
v 0.296691895 0.47631073 0.299865723
v 0.296691895 0.47631073 0.208496094
v 0.292053223 0.223464936 0.295898438
v 0.292053223 0.470674515 0.295898438
v 0.292053223 0.470674515 0.212463379
v 0.292053223 0.223464936 0.212463379
v 0.296691895 0.217826843 0.300415039
v 0.292053223 0.223464936 0.295898438
v 0.292053223 0.223464936 0.212463379
v 0.296691895 0.217826843 0.208496094
v 0.296691895 0.114679337 0.300415039
v 0.296691895 0.217826843 0.300415039
v 0.296691895 0.217826843 0.208496094
v 0.296691895 0.114679337 0.208496094
v 0.321472168 0.0910186842 0.313598633
v 0.296691895 0.114679337 0.300415039
v 0.296691895 0.114679337 0.208496094
v 0.321472168 0.0910186842 0.19329834
v 0.321472168 0 0.313598633
v 0.321472168 0.0910186842 0.313598633
v 0.321472168 0.0910186842 0.19329834
v 0.321472168 0 0.19329834
v 0.216980591 0.555286407 0.299865723
v 0.216980591 0.47631073 0.299865723
v 0.216980591 0.47631073 0.208496094
v 0.216980591 0.555286407 0.208496094
v 0.213440552 0.604091644 0.299865723
v 0.213440552 0.604091644 0.208496094
v 0.205200806 0.655437469 0.208496094
v 0.205200806 0.655437469 0.299865723
v 0.203430787 0.659881592 0.20111084
v 0.203430787 0.659881592 0.307312012
v 0.180420533 0.699142456 0.307312012
v 0.180420533 0.699142456 0.20111084
v 0.147522584 0.739437103 0.307312012
v 0.147522584 0.739437103 0.20111084
v 0.12451233 0.761398315 0.20111084
v 0.12451233 0.761398315 0.307312012
v -0.20336853 0.659881592 0.20111084
v -0.235045776 0.781105042 0.20111084
v -0.269286484 0.720584869 0.20111084
v -0.180419311 0.699142456 0.20111084
v -0.147460327 0.739437103 0.20111084
v -0.198912963 0.826774597 0.20111084
v -0.159118041 0.862960815 0.20111084
v -0.124511108 0.761398315 0.20111084
v -0.296691269 0.114679337 0.208496094
v -0.216918334 0.114679337 0.208496094
v -0.216918334 0.217826843 0.208496094
v -0.296691269 0.217826843 0.208496094
v -0.216918334 0.217826843 0.300415039
v -0.216918334 0.217826843 0.208496094
v -0.216918334 0.114679337 0.208496094
v -0.216918334 0.114679337 0.300415039
v -0.235045776 0.781105042 0.307312012
v -0.20336853 0.659881592 0.307312012
v -0.269286484 0.720584869 0.307312012
v -0.180419311 0.699142456 0.307312012
v -0.147460327 0.739437103 0.307312012
v -0.198912963 0.826774597 0.307312012
v -0.124511108 0.761398315 0.307312012
v -0.159118041 0.862960815 0.307312012
v -0.296691269 0.217826843 0.300415039
v -0.216918334 0.217826843 0.300415039
v -0.216918334 0.114679337 0.300415039
v -0.296691269 0.114679337 0.300415039
v -0.268554062 0.714271545 0.208496094
v -0.20336853 0.659881592 0.20111084
v -0.269286484 0.720584869 0.20111084
v -0.205199584 0.655437469 0.208496094
v -0.287047714 0.661022186 0.208496094
v -0.21343933 0.604091644 0.208496094
v -0.293517441 0.606887817 0.208496094
v -0.296691269 0.5552845 0.208496094
v -0.216918334 0.555286407 0.208496094
v -0.296691269 0.47631073 0.208496094
v -0.216918334 0.47631073 0.208496094
v -0.269286484 0.720584869 0.307312012
v -0.20336853 0.659881592 0.307312012
v -0.205199584 0.655437469 0.299865723
v -0.268554062 0.714271545 0.299865723
v -0.287047714 0.661022186 0.299865723
v -0.293517441 0.606887817 0.299865723
v -0.21343933 0.604091644 0.299865723
v -0.296691269 0.5552845 0.299865723
v -0.216918334 0.555286407 0.299865723
v -0.216918334 0.47631073 0.299865723
v -0.296691269 0.47631073 0.299865723
v -0.159118041 0.862960815 0.20111084
v -0.124511108 0.761398315 0.20111084
v -0.122985229 0.767276764 0.205322266
v -0.155272827 0.861297607 0.205322266
v -0.124511108 0.761398315 0.307312012
v -0.159118041 0.862960815 0.307312012
v -0.155272827 0.861297607 0.302062988
v -0.122985229 0.767276764 0.302062988
v -0.321471542 0.0910186842 0.19329834
v -0.201415405 0.0910186842 0.19329834
v -0.216918334 0.114679337 0.208496094
v -0.296691269 0.114679337 0.208496094
v -0.216918334 0.114679337 0.300415039
v -0.216918334 0.114679337 0.208496094
v -0.201415405 0.0910186842 0.19329834
v -0.201415405 0.0910186842 0.313598633
v -0.296691269 0.114679337 0.300415039
v -0.216918334 0.114679337 0.300415039
v -0.201415405 0.0910186842 0.313598633
v -0.321471542 0.0910186842 0.313598633
v -0.292052597 0.470674515 0.295898438
v -0.221557006 0.470676422 0.295898438
v -0.221557006 0.223464936 0.295898438
v -0.292052597 0.223464936 0.295898438
v -0.221557006 0.470676422 0.295898438
v -0.221557006 0.470676422 0.212463379
v -0.221557006 0.223464936 0.212463379
v -0.221557006 0.223464936 0.295898438
v -0.292052597 0.223464936 0.212463379
v -0.221557006 0.223464936 0.212463379
v -0.221557006 0.470676422 0.212463379
v -0.292052597 0.470674515 0.212463379
v -0.201415405 0 0.19329834
v -0.201415405 0.0910186842 0.19329834
v -0.321471542 0.0910186842 0.19329834
v -0.321471542 0 0.19329834
v -0.201415405 0.0910186842 0.313598633
v -0.201415405 0.0910186842 0.19329834
v -0.201415405 0 0.19329834
v -0.201415405 0 0.313598633
v -0.321471542 0.0910186842 0.313598633
v -0.201415405 0.0910186842 0.313598633
v -0.201415405 0 0.313598633
v -0.321471542 0 0.313598633
v -0.296691269 0.47631073 0.299865723
v -0.216918334 0.47631073 0.299865723
v -0.221557006 0.470676422 0.295898438
v -0.292052597 0.470674515 0.295898438
v -0.216918334 0.217826843 0.300415039
v -0.296691269 0.217826843 0.300415039
v -0.292052597 0.223464936 0.295898438
v -0.221557006 0.223464936 0.295898438
v -0.216918334 0.47631073 0.299865723
v -0.216918334 0.47631073 0.208496094
v -0.221557006 0.470676422 0.212463379
v -0.221557006 0.470676422 0.295898438
v -0.216918334 0.217826843 0.208496094
v -0.216918334 0.217826843 0.300415039
v -0.221557006 0.223464936 0.295898438
v -0.221557006 0.223464936 0.212463379
v -0.296691269 0.217826843 0.208496094
v -0.216918334 0.217826843 0.208496094
v -0.221557006 0.223464936 0.212463379
v -0.292052597 0.223464936 0.212463379
v -0.216918334 0.47631073 0.208496094
v -0.296691269 0.47631073 0.208496094
v -0.292052597 0.470674515 0.212463379
v -0.221557006 0.470676422 0.212463379
v -0.124511108 0.761398315 0.20111084
v -0.147460327 0.739437103 0.307312012
v -0.124511108 0.761398315 0.307312012
v -0.147460327 0.739437103 0.20111084
v -0.180419311 0.699142456 0.307312012
v -0.180419311 0.699142456 0.20111084
v -0.20336853 0.659881592 0.20111084
v -0.20336853 0.659881592 0.307312012
v -0.205199584 0.655437469 0.299865723
v -0.205199584 0.655437469 0.208496094
v -0.21343933 0.604091644 0.299865723
v -0.21343933 0.604091644 0.208496094
v -0.216918334 0.555286407 0.299865723
v -0.216918334 0.555286407 0.208496094
v -0.216918334 0.47631073 0.208496094
v -0.216918334 0.47631073 0.299865723
v -0.122985229 0.767276764 0.302062988
v -0.124511108 0.761398315 0.20111084
v -0.124511108 0.761398315 0.307312012
v -0.122985229 0.767276764 0.205322266
v -0.106383666 0.779262543 0.302062988
v -0.106383666 0.779262543 0.205322266
v -0.0671380609 0.798049927 0.302062988
v -0.0671380609 0.798049927 0.205322266
v -0.0285638422 0.810684204 0.302062988
v -0.0285638422 0.810684204 0.205322266
v 6.10351549E-07 0.812438965 0.205322266
v 6.10351549E-07 0.812438965 0.302062988
v -0.155272827 0.861297607 0.302062988
v -0.106383666 0.779262543 0.302062988
v -0.122985229 0.767276764 0.302062988
v -0.134398803 0.876399994 0.302062988
v -0.0861810297 0.902484894 0.302062988
v -0.0671380609 0.798049927 0.302062988
v -0.0361322016 0.91897583 0.302062988
v -0.0285638422 0.810684204 0.302062988
v 6.10351549E-07 0.921897888 0.302062988
v 6.10351549E-07 0.812438965 0.302062988
v -0.155272827 0.861297607 0.205322266
v -0.122985229 0.767276764 0.205322266
v -0.106383666 0.779262543 0.205322266
v -0.134398803 0.876399994 0.205322266
v -0.0671380609 0.798049927 0.205322266
v -0.0861810297 0.902484894 0.205322266
v -0.0285638422 0.810684204 0.205322266
v -0.0361322016 0.91897583 0.205322266
v 6.10351549E-07 0.812438965 0.205322266
v 6.10351549E-07 0.921897888 0.205322266
v -0.0361322016 0.91897583 0.205322266
v 6.10351549E-07 0.921897888 0.205322266
v 6.10351549E-07 0.921897888 0.302062988
v -0.0361322016 0.91897583 0.302062988
v -0.0861810297 0.902484894 0.205322266
v -0.0861810297 0.902484894 0.302062988
v -0.134398803 0.876399994 0.205322266
v -0.134398803 0.876399994 0.302062988
v -0.155272827 0.861297607 0.205322266
v -0.155272827 0.861297607 0.302062988
v -0.159118041 0.862960815 0.307312012
v -0.159118041 0.862960815 0.20111084
v -0.155272827 0.861297607 0.205322266
v -0.155272827 0.861297607 0.302062988
v -0.198912963 0.826774597 0.20111084
v -0.159118041 0.862960815 0.20111084
v -0.159118041 0.862960815 0.307312012
v -0.198912963 0.826774597 0.307312012
v -0.235045776 0.781105042 0.20111084
v -0.235045776 0.781105042 0.307312012
v -0.269286484 0.720584869 0.20111084
v -0.269286484 0.720584869 0.307312012
v -0.268554062 0.714271545 0.299865723
v -0.269286484 0.720584869 0.20111084
v -0.269286484 0.720584869 0.307312012
v -0.268554062 0.714271545 0.208496094
v -0.287047714 0.661022186 0.208496094
v -0.287047714 0.661022186 0.299865723
v -0.293517441 0.606887817 0.208496094
v -0.293517441 0.606887817 0.299865723
v -0.296691269 0.5552845 0.299865723
v -0.296691269 0.5552845 0.208496094
v -0.296691269 0.47631073 0.299865723
v -0.296691269 0.47631073 0.208496094
v -0.292052597 0.470674515 0.212463379
v -0.296691269 0.47631073 0.208496094
v -0.296691269 0.47631073 0.299865723
v -0.292052597 0.470674515 0.295898438
v -0.292052597 0.223464936 0.295898438
v -0.292052597 0.223464936 0.212463379
v -0.292052597 0.470674515 0.212463379
v -0.292052597 0.470674515 0.295898438
v -0.296691269 0.217826843 0.300415039
v -0.296691269 0.217826843 0.208496094
v -0.292052597 0.223464936 0.212463379
v -0.292052597 0.223464936 0.295898438
v -0.296691269 0.114679337 0.300415039
v -0.296691269 0.114679337 0.208496094
v -0.296691269 0.217826843 0.208496094
v -0.296691269 0.217826843 0.300415039
v -0.321471542 0.0910186842 0.313598633
v -0.321471542 0.0910186842 0.19329834
v -0.296691269 0.114679337 0.208496094
v -0.296691269 0.114679337 0.300415039
v -0.321471542 0 0.313598633
v -0.321471542 0 0.19329834
v -0.321471542 0.0910186842 0.19329834
v -0.321471542 0.0910186842 0.313598633
v 0.246826172 0 -0.474914551
v 0.493591309 0 0
v 0.469055176 0 0
v 0.233582154 0 -0.453125
v -0.246764526 0 -0.474914551
v 0.233582154 0 0.453186035
v 0.246826172 0 0.474975586
v -0.233519897 0 -0.453125
v -0.493529648 0 0
v 6.10351549E-07 0 0
v -0.233519897 0 0.453186035
v -0.246764526 0 0.474975586
v -0.468993515 0 0
vt 0.955078125 0.704101562
vt 0.940917969 0.692871094
vt 0.940917969 0.704101562
vt 0.940917969 0.715332031
vt 0.955078125 0.704101562
vt 0.940917969 0.704101562
vt 0.926269531 0.704101562
vt 0.940917969 0.704101562
vt 0.940917969 0.692871094
vt 0.940917969 0.715332031
vt 0.940917969 0.704101562
vt 0.926269531 0.704101562
vt 0.839355469 0.637695312
vt 0.839355469 0.623046875
vt 0.7578125 0.623046875
vt 0.7578125 0.637695312
vt 0.7578125 0.637695312
vt 0.7578125 0.643066406
vt 0.839355469 0.643066406
vt 0.839355469 0.637695312
vt 0.760253906 0.698242188
vt 0.743164062 0.698242188
vt 0.753417969 0.711425781
vt 0.774414062 0.715332031
vt 0.789550781 0.698242188
vt 0.796875 0.711425781
vt 0.805175781 0.698242188
vt 0.743164062 0.698242188
vt 0.760253906 0.698242188
vt 0.760253906 0.649902344
vt 0.743164062 0.649902344
vt 0.805175781 0.649902344
vt 0.789550781 0.649902344
vt 0.789550781 0.698242188
vt 0.805175781 0.698242188
vt 0.760253906 0.698242188
vt 0.789550781 0.698242188
vt 0.789550781 0.649902344
vt 0.760253906 0.649902344
vt 0.839355469 0.553222656
vt 0.839355469 0.538574219
vt 0.7578125 0.538574219
vt 0.7578125 0.553222656
vt 0.7578125 0.553222656
vt 0.7578125 0.55859375
vt 0.839355469 0.55859375
vt 0.839355469 0.553222656
vt 0.839355469 0.574707031
vt 0.839355469 0.560058594
vt 0.7578125 0.560058594
vt 0.7578125 0.574707031
vt 0.7578125 0.574707031
vt 0.7578125 0.580078125
vt 0.839355469 0.580078125
vt 0.839355469 0.574707031
vt 0.839355469 0.616699219
vt 0.839355469 0.602539062
vt 0.7578125 0.602539062
vt 0.7578125 0.616699219
vt 0.7578125 0.616699219
vt 0.7578125 0.622558594
vt 0.839355469 0.622558594
vt 0.839355469 0.616699219
vt 0.839355469 0.595703125
vt 0.839355469 0.581054688
vt 0.7578125 0.581054688
vt 0.7578125 0.595703125
vt 0.7578125 0.595703125
vt 0.7578125 0.601074219
vt 0.839355469 0.601074219
vt 0.839355469 0.595703125
vt 0.74609375 0.834472656
vt 0.74609375 0.85546875
vt 0.813964844 0.85546875
vt 0.813964844 0.834472656
vt 0.74609375 0.834472656
vt 0.74609375 0.85546875
vt 0.813964844 0.85546875
vt 0.813964844 0.834472656
vt 0.74609375 0.834472656
vt 0.74609375 0.85546875
vt 0.813964844 0.85546875
vt 0.813964844 0.834472656
vt 0.74609375 0.834472656
vt 0.74609375 0.85546875
vt 0.813964844 0.85546875
vt 0.813964844 0.834472656
vt 0.74609375 0.834472656
vt 0.74609375 0.85546875
vt 0.813964844 0.85546875
vt 0.813964844 0.834472656
vt 0.74609375 0.834472656
vt 0.74609375 0.85546875
vt 0.813964844 0.85546875
vt 0.813964844 0.834472656
vt 0.860839844 0.645507812
vt 0.874511719 0.655761719
vt 0.8671875 0.665527344
vt 0.855957031 0.651855469
vt 0.849121094 0.658691406
vt 0.859863281 0.673339844
vt 0.844238281 0.662597656
vt 0.8515625 0.679199219
vt 0.877929688 0.645996094
vt 0.874023438 0.654785156
vt 0.861328125 0.645019531
vt 0.879394531 0.63671875
vt 0.862792969 0.636230469
vt 0.879882812 0.628417969
vt 0.863769531 0.628417969
vt 0.879882812 0.615234375
vt 0.863769531 0.615234375
vt 0.879882812 0.555175781
vt 0.879882812 0.572265625
vt 0.863769531 0.572265625
vt 0.863769531 0.555175781
vt 0.937988281 0.571289062
vt 0.937988281 0.559082031
vt 0.957519531 0.559082031
vt 0.957519531 0.571289062
vt 0.904296875 0.6953125
vt 0.911132812 0.685546875
vt 0.897949219 0.67578125
vt 0.893066406 0.682128906
vt 0.896972656 0.703125
vt 0.88671875 0.688964844
vt 0.881835938 0.692382812
vt 0.888671875 0.708984375
vt 0.916992188 0.604492188
vt 0.916992188 0.587890625
vt 0.900390625 0.587890625
vt 0.900390625 0.604492188
vt 0.915039062 0.676269531
vt 0.8984375 0.675292969
vt 0.911132812 0.684570312
vt 0.916015625 0.667480469
vt 0.899902344 0.666992188
vt 0.900390625 0.659179688
vt 0.916992188 0.659179688
vt 0.900390625 0.645996094
vt 0.916992188 0.645996094
vt 0.874023438 0.654785156
vt 0.874511719 0.655761719
vt 0.860839844 0.645507812
vt 0.861328125 0.645019531
vt 0.911132812 0.685546875
vt 0.911132812 0.684570312
vt 0.8984375 0.675292969
vt 0.897949219 0.67578125
vt 0.8515625 0.679199219
vt 0.850585938 0.678710938
vt 0.844238281 0.663574219
vt 0.844238281 0.662597656
vt 0.881835938 0.692382812
vt 0.881347656 0.693359375
vt 0.888183594 0.708496094
vt 0.888671875 0.708984375
vt 0.885253906 0.551269531
vt 0.879882812 0.555175781
vt 0.863769531 0.555175781
vt 0.860351562 0.551269531
vt 0.937988281 0.559082031
vt 0.935058594 0.555175781
vt 0.960449219 0.555175781
vt 0.957519531 0.559082031
vt 0.916992188 0.587890625
vt 0.921875 0.583984375
vt 0.897460938 0.583984375
vt 0.900390625 0.587890625
vt 0.916015625 0.645507812
vt 0.916015625 0.60546875
vt 0.901367188 0.60546875
vt 0.901367188 0.645507812
vt 0.939453125 0.614257812
vt 0.939453125 0.572265625
vt 0.955566406 0.572265625
vt 0.955566406 0.614257812
vt 0.87890625 0.573242188
vt 0.87890625 0.614257812
vt 0.864257812 0.614257812
vt 0.864257812 0.573242188
vt 0.860351562 0.536621094
vt 0.885253906 0.536621094
vt 0.885253906 0.551269531
vt 0.860351562 0.551269531
vt 0.935058594 0.555175781
vt 0.935058594 0.540039062
vt 0.960449219 0.540039062
vt 0.960449219 0.555175781
vt 0.921875 0.583984375
vt 0.921875 0.569335938
vt 0.897460938 0.569335938
vt 0.897460938 0.583984375
vt 0.916992188 0.645996094
vt 0.916015625 0.645507812
vt 0.901367188 0.645507812
vt 0.900390625 0.645996094
vt 0.900390625 0.604492188
vt 0.901367188 0.60546875
vt 0.916015625 0.60546875
vt 0.916992188 0.604492188
vt 0.938476562 0.615234375
vt 0.939453125 0.614257812
vt 0.955566406 0.614257812
vt 0.957519531 0.615234375
vt 0.957519531 0.571289062
vt 0.955566406 0.572265625
vt 0.939453125 0.572265625
vt 0.937988281 0.571289062
vt 0.879882812 0.572265625
vt 0.87890625 0.573242188
vt 0.864257812 0.573242188
vt 0.863769531 0.572265625
vt 0.863769531 0.615234375
vt 0.864257812 0.614257812
vt 0.87890625 0.614257812
vt 0.879882812 0.615234375
vt 0.9375 0.667480469
vt 0.936523438 0.666015625
vt 0.959960938 0.666015625
vt 0.958496094 0.667480469
vt 0.9375 0.672363281
vt 0.958496094 0.672363281
vt 0.9375 0.678710938
vt 0.958496094 0.678710938
vt 0.9375 0.685058594
vt 0.958496094 0.685058594
vt 0.958496094 0.688964844
vt 0.9375 0.688964844
vt 0.888183594 0.708496094
vt 0.881347656 0.693359375
vt 0.877929688 0.6953125
vt 0.883789062 0.7109375
vt 0.874023438 0.715332031
vt 0.870117188 0.698242188
vt 0.863769531 0.717773438
vt 0.862304688 0.700195312
vt 0.856445312 0.718261719
vt 0.856445312 0.700683594
vt 0.850585938 0.678710938
vt 0.840332031 0.665527344
vt 0.844238281 0.663574219
vt 0.846191406 0.681640625
vt 0.832519531 0.668457031
vt 0.836425781 0.685546875
vt 0.82421875 0.670410156
vt 0.826171875 0.688476562
vt 0.818359375 0.670898438
vt 0.818359375 0.688964844
vt 0.991210938 0.709472656
vt 0.970214844 0.71875
vt 0.991210938 0.71875
vt 0.970214844 0.709472656
vt 0.991210938 0.701660156
vt 0.970214844 0.701660156
vt 0.991210938 0.694824219
vt 0.970214844 0.694824219
vt 0.991210938 0.684570312
vt 0.970214844 0.684570312
vt 0.969238281 0.68359375
vt 0.970214844 0.684570312
vt 0.991210938 0.684570312
vt 0.9921875 0.68359375
vt 0.9921875 0.665039062
vt 0.969238281 0.665039062
vt 0.969238281 0.670410156
vt 0.9921875 0.670410156
vt 0.969238281 0.678222656
vt 0.9921875 0.678222656
vt 0.9921875 0.68359375
vt 0.969238281 0.68359375
vt 0.971679688 0.663085938
vt 0.969238281 0.665039062
vt 0.9921875 0.665039062
vt 0.990234375 0.663085938
vt 0.990234375 0.651855469
vt 0.971679688 0.663085938
vt 0.990234375 0.663085938
vt 0.971679688 0.651855469
vt 0.971679688 0.642089844
vt 0.990234375 0.642089844
vt 0.971679688 0.631347656
vt 0.990234375 0.631347656
vt 0.971679688 0.615234375
vt 0.990234375 0.615234375
vt 0.989257812 0.614257812
vt 0.97265625 0.614257812
vt 0.971679688 0.615234375
vt 0.990234375 0.615234375
vt 0.97265625 0.572265625
vt 0.97265625 0.614257812
vt 0.989257812 0.614257812
vt 0.989257812 0.572265625
vt 0.971679688 0.571289062
vt 0.97265625 0.572265625
vt 0.989257812 0.572265625
vt 0.990234375 0.571289062
vt 0.971679688 0.559082031
vt 0.971679688 0.571289062
vt 0.990234375 0.571289062
vt 0.990234375 0.559082031
vt 0.968261719 0.555175781
vt 0.971679688 0.559082031
vt 0.990234375 0.559082031
vt 0.992675781 0.555175781
vt 0.968261719 0.540039062
vt 0.968261719 0.555175781
vt 0.992675781 0.555175781
vt 0.992675781 0.540039062
vt 0.938476562 0.631347656
vt 0.938476562 0.615234375
vt 0.957519531 0.615234375
vt 0.957519531 0.631347656
vt 0.938476562 0.639160156
vt 0.957519531 0.639160156
vt 0.957519531 0.646484375
vt 0.938476562 0.646484375
vt 0.959960938 0.647949219
vt 0.936523438 0.647949219
vt 0.936523438 0.654296875
vt 0.959960938 0.654296875
vt 0.936523438 0.66015625
vt 0.959960938 0.66015625
vt 0.959960938 0.666015625
vt 0.936523438 0.666015625
vt 0.860839844 0.645507812
vt 0.8671875 0.665527344
vt 0.874511719 0.655761719
vt 0.855957031 0.651855469
vt 0.849121094 0.658691406
vt 0.859863281 0.673339844
vt 0.8515625 0.679199219
vt 0.844238281 0.662597656
vt 0.879882812 0.555175781
vt 0.863769531 0.555175781
vt 0.863769531 0.572265625
vt 0.879882812 0.572265625
vt 0.937988281 0.571289062
vt 0.957519531 0.571289062
vt 0.957519531 0.559082031
vt 0.937988281 0.559082031
vt 0.904296875 0.6953125
vt 0.897949219 0.67578125
vt 0.911132812 0.685546875
vt 0.893066406 0.682128906
vt 0.88671875 0.688964844
vt 0.896972656 0.703125
vt 0.881835938 0.692382812
vt 0.888671875 0.708984375
vt 0.916992188 0.604492188
vt 0.900390625 0.604492188
vt 0.900390625 0.587890625
vt 0.916992188 0.587890625
vt 0.874023438 0.654785156
vt 0.860839844 0.645507812
vt 0.874511719 0.655761719
vt 0.861328125 0.645019531
vt 0.877929688 0.645996094
vt 0.862792969 0.636230469
vt 0.879394531 0.63671875
vt 0.879882812 0.628417969
vt 0.863769531 0.628417969
vt 0.879882812 0.615234375
vt 0.863769531 0.615234375
vt 0.911132812 0.685546875
vt 0.897949219 0.67578125
vt 0.8984375 0.675292969
vt 0.911132812 0.684570312
vt 0.915039062 0.676269531
vt 0.916015625 0.667480469
vt 0.899902344 0.666992188
vt 0.916992188 0.659179688
vt 0.900390625 0.659179688
vt 0.900390625 0.645996094
vt 0.916992188 0.645996094
vt 0.8515625 0.679199219
vt 0.844238281 0.662597656
vt 0.844238281 0.663574219
vt 0.850585938 0.678710938
vt 0.881835938 0.692382812
vt 0.888671875 0.708984375
vt 0.888183594 0.708496094
vt 0.881347656 0.693359375
vt 0.885253906 0.551269531
vt 0.860351562 0.551269531
vt 0.863769531 0.555175781
vt 0.879882812 0.555175781
vt 0.937988281 0.559082031
vt 0.957519531 0.559082031
vt 0.960449219 0.555175781
vt 0.935058594 0.555175781
vt 0.916992188 0.587890625
vt 0.900390625 0.587890625
vt 0.897460938 0.583984375
vt 0.921875 0.583984375
vt 0.916015625 0.645507812
vt 0.901367188 0.645507812
vt 0.901367188 0.60546875
vt 0.916015625 0.60546875
vt 0.939453125 0.614257812
vt 0.955566406 0.614257812
vt 0.955566406 0.572265625
vt 0.939453125 0.572265625
vt 0.87890625 0.573242188
vt 0.864257812 0.573242188
vt 0.864257812 0.614257812
vt 0.87890625 0.614257812
vt 0.860351562 0.536621094
vt 0.860351562 0.551269531
vt 0.885253906 0.551269531
vt 0.885253906 0.536621094
vt 0.935058594 0.555175781
vt 0.960449219 0.555175781
vt 0.960449219 0.540039062
vt 0.935058594 0.540039062
vt 0.921875 0.583984375
vt 0.897460938 0.583984375
vt 0.897460938 0.569335938
vt 0.921875 0.569335938
vt 0.916992188 0.645996094
vt 0.900390625 0.645996094
vt 0.901367188 0.645507812
vt 0.916015625 0.645507812
vt 0.900390625 0.604492188
vt 0.916992188 0.604492188
vt 0.916015625 0.60546875
vt 0.901367188 0.60546875
vt 0.938476562 0.615234375
vt 0.957519531 0.615234375
vt 0.955566406 0.614257812
vt 0.939453125 0.614257812
vt 0.957519531 0.571289062
vt 0.937988281 0.571289062
vt 0.939453125 0.572265625
vt 0.955566406 0.572265625
vt 0.879882812 0.572265625
vt 0.863769531 0.572265625
vt 0.864257812 0.573242188
vt 0.87890625 0.573242188
vt 0.863769531 0.615234375
vt 0.879882812 0.615234375
vt 0.87890625 0.614257812
vt 0.864257812 0.614257812
vt 0.959960938 0.666015625
vt 0.936523438 0.66015625
vt 0.936523438 0.666015625
vt 0.959960938 0.66015625
vt 0.936523438 0.654296875
vt 0.959960938 0.654296875
vt 0.959960938 0.647949219
vt 0.936523438 0.647949219
vt 0.938476562 0.646484375
vt 0.957519531 0.646484375
vt 0.938476562 0.639160156
vt 0.957519531 0.639160156
vt 0.938476562 0.631347656
vt 0.957519531 0.631347656
vt 0.957519531 0.615234375
vt 0.938476562 0.615234375
vt 0.9375 0.667480469
vt 0.959960938 0.666015625
vt 0.936523438 0.666015625
vt 0.958496094 0.667480469
vt 0.9375 0.672363281
vt 0.958496094 0.672363281
vt 0.9375 0.678710938
vt 0.958496094 0.678710938
vt 0.9375 0.685058594
vt 0.958496094 0.685058594
vt 0.958496094 0.688964844
vt 0.9375 0.688964844
vt 0.888183594 0.708496094
vt 0.877929688 0.6953125
vt 0.881347656 0.693359375
vt 0.883789062 0.7109375
vt 0.874023438 0.715332031
vt 0.870117188 0.698242188
vt 0.863769531 0.717773438
vt 0.862304688 0.700195312
vt 0.856445312 0.718261719
vt 0.856445312 0.700683594
vt 0.850585938 0.678710938
vt 0.844238281 0.663574219
vt 0.840332031 0.665527344
vt 0.846191406 0.681640625
vt 0.832519531 0.668457031
vt 0.836425781 0.685546875
vt 0.82421875 0.670410156
vt 0.826171875 0.688476562
vt 0.818359375 0.670898438
vt 0.818359375 0.688964844
vt 0.991210938 0.709472656
vt 0.991210938 0.71875
vt 0.970214844 0.71875
vt 0.970214844 0.709472656
vt 0.991210938 0.701660156
vt 0.970214844 0.701660156
vt 0.991210938 0.694824219
vt 0.970214844 0.694824219
vt 0.991210938 0.684570312
vt 0.970214844 0.684570312
vt 0.969238281 0.68359375
vt 0.9921875 0.68359375
vt 0.991210938 0.684570312
vt 0.970214844 0.684570312
vt 0.9921875 0.678222656
vt 0.9921875 0.68359375
vt 0.969238281 0.68359375
vt 0.969238281 0.678222656
vt 0.9921875 0.670410156
vt 0.969238281 0.670410156
vt 0.9921875 0.665039062
vt 0.969238281 0.665039062
vt 0.971679688 0.663085938
vt 0.9921875 0.665039062
vt 0.969238281 0.665039062
vt 0.990234375 0.663085938
vt 0.990234375 0.651855469
vt 0.971679688 0.651855469
vt 0.990234375 0.642089844
vt 0.971679688 0.642089844
vt 0.971679688 0.631347656
vt 0.990234375 0.631347656
vt 0.971679688 0.615234375
vt 0.990234375 0.615234375
vt 0.989257812 0.614257812
vt 0.990234375 0.615234375
vt 0.971679688 0.615234375
vt 0.97265625 0.614257812
vt 0.97265625 0.572265625
vt 0.989257812 0.572265625
vt 0.989257812 0.614257812
vt 0.97265625 0.614257812
vt 0.971679688 0.571289062
vt 0.990234375 0.571289062
vt 0.989257812 0.572265625
vt 0.97265625 0.572265625
vt 0.971679688 0.559082031
vt 0.990234375 0.559082031
vt 0.990234375 0.571289062
vt 0.971679688 0.571289062
vt 0.968261719 0.555175781
vt 0.992675781 0.555175781
vt 0.990234375 0.559082031
vt 0.971679688 0.559082031
vt 0.968261719 0.540039062
vt 0.992675781 0.540039062
vt 0.992675781 0.555175781
vt 0.968261719 0.555175781
vt 0.813476562 0.989257812
vt 0.846679688 0.922363281
vt 0.841796875 0.922363281
vt 0.810546875 0.984375
vt 0.746582031 0.989257812
vt 0.810546875 0.860839844
vt 0.813964844 0.85546875
vt 0.749023438 0.984375
vt 0.712890625 0.922363281
vt 0.779785156 0.922363281
vt 0.749023438 0.860839844
vt 0.74609375 0.85546875
vt 0.718261719 0.922363281
vn -0.301757812 -0.370849609 -0.878417969
vn -0.301757812 -0.370849609 -0.878417969
vn -0.301757812 -0.370849609 -0.878417969
vn -0.301757812 0.370849609 -0.878417969
vn -0.301757812 0.370849609 -0.878417969
vn -0.301757812 0.370849609 -0.878417969
vn 0.301757812 -0.370849609 -0.878417969
vn 0.301757812 -0.370849609 -0.878417969
vn 0.301757812 -0.370849609 -0.878417969
vn 0.301757812 0.370849609 -0.878417969
vn 0.301757812 0.370849609 -0.878417969
vn 0.301757812 0.370849609 -0.878417969
vn -0 0 -1
vn -0 0 -1
vn -0 0 -1
vn -0 0 -1
vn -0 1 0
vn -0 1 0
vn -0 1 0
vn -0 1 0
vn -0.0372009277 -0.518066406 -0.854492188
vn -0.55078125 -0.580078125 -0.600097656
vn -0.3125 -0.604980469 -0.732421875
vn -0.00382041931 -0.536621094 -0.84375
vn 0.0390930176 -0.51953125 -0.853515625
vn 0.315429688 -0.611816406 -0.725097656
vn 0.496337891 -0.604492188 -0.623046875
vn -0.999511719 -0.0214385986 -0.0133056641
vn -0.999511719 -0.0214385986 -0.0133056641
vn -0.999511719 -0.0214385986 -0.0133056641
vn -0.999511719 -0.0214385986 -0.0133056641
vn 1 0 0
vn 1 0 0
vn 1 0 0
vn 1 0 0
vn -0 0 -1
vn -0 0 -1
vn -0 0 -1
vn -0 0 -1
vn -0 0 -1
vn -0 0 -1
vn -0 0 -1
vn -0 0 -1
vn -0 1 0
vn -0 1 0
vn -0 1 0
vn -0 1 0
vn -0 0 -1
vn -0 0 -1
vn -0 0 -1
vn -0 0 -1
vn -0 1 0
vn -0 1 0
vn -0 1 0
vn -0 1 0
vn -0 0 -1
vn -0 0 -1
vn -0 0 -1
vn -0 0 -1
vn -0 1 0
vn -0 1 0
vn -0 1 0
vn -0 1 0
vn -0 0 -1
vn -0 0 -1
vn -0 0 -1
vn -0 0 -1
vn -0 1 0
vn -0 1 0
vn -0 1 0
vn -0 1 0
vn -0 0 -1
vn -0 0 -1
vn -0 0 -1
vn -0 0 -1
vn -0.887207031 0 -0.461181641
vn -0.887207031 0 -0.461181641
vn -0.887207031 0 -0.461181641
vn -0.887207031 0 -0.461181641
vn -0.887207031 0 0.4609375
vn -0.887207031 0 0.4609375
vn -0.887207031 0 0.4609375
vn -0.887207031 0 0.4609375
vn -0 0 1
vn -0 0 1
vn -0 0 1
vn -0 0 1
vn 0.887207031 0 0.4609375
vn 0.887207031 0 0.4609375
vn 0.887207031 0 0.4609375
vn 0.887207031 0 0.4609375
vn 0.887207031 0 -0.461181641
vn 0.887207031 0 -0.461181641
vn 0.887207031 0 -0.461181641
vn 0.887207031 0 -0.461181641
vn -1.93715096E-05 0 -1
vn -1.93715096E-05 0 -1
vn -1.01327896E-06 0 -1
vn -8.04662704E-06 0 -1
vn 1.84774399E-06 0 -1
vn -2.02655792E-06 0 -1
vn -1.15633011E-05 0 -1
vn -1.15633011E-05 0 -1
vn -0 0 -1
vn -0 0 -1
vn -0 0 -1
vn -0 0 -1
vn -0 0 -1
vn -0 0 -1
vn -0 0 -1
vn -0 0 -1
vn -0 0 -1
vn -0 0 -1
vn -0 0 -1
vn -0 0 -1
vn -0 0 -1
vn -1 0 0
vn -1 0 0
vn -1 0 0
vn -1 0 0
vn -2.98023224E-06 0 1
vn -0 0 1
vn -0 0 1
vn -1.84774399E-06 0 1
vn 4.17232513E-06 0 1
vn 1.1920929E-06 0 1
vn 1.15633011E-05 0 1
vn 1.15633011E-05 0 1
vn -0 0 1
vn -0 0 1
vn -0 0 1
vn -0 0 1
vn 1.78813934E-07 0 1
vn 5.96046448E-07 0 1
vn -2.74181366E-06 0 1
vn 7.15255737E-07 0 1
vn 7.74860382E-07 0 1
vn -0 0 1
vn -0 0 1
vn -0 0 1
vn -0 0 1
vn 0.586914062 -0.634277344 -0.503417969
vn 0.586914062 -0.634277344 -0.503417969
vn 0.586914062 -0.634277344 -0.503417969
vn 0.586914062 -0.634277344 -0.503417969
vn 0.587890625 -0.635742188 0.5
vn 0.587890625 -0.635742188 0.5
vn 0.587890625 -0.635742188 0.5
vn 0.587890625 -0.635742188 0.5
vn -0.751464844 0.257080078 -0.607910156
vn -0.751464844 0.257080078 -0.607910156
vn -0.751464844 0.257080078 -0.607910156
vn -0.751464844 0.257080078 -0.607910156
vn -0.806152344 0.275878906 0.5234375
vn -0.806152344 0.275878906 0.5234375
vn -0.806152344 0.275878906 0.5234375
vn -0.806152344 0.275878906 0.5234375
vn -0 0.540527344 -0.841308594
vn -0 0.540527344 -0.841308594
vn -0 0.540527344 -0.841308594
vn -0 0.540527344 -0.841308594
vn -0.835449219 0.549804688 0
vn -0.835449219 0.549804688 0
vn -0.835449219 0.549804688 0
vn -0.835449219 0.549804688 0
vn -0 0.486816406 0.873535156
vn -0 0.486816406 0.873535156
vn -0 0.486816406 0.873535156
vn -0 0.486816406 0.873535156
vn -0 0 1
vn -0 0 1
vn -0 0 1
vn -0 0 1
vn -1 0 0
vn -1 0 0
vn -1 0 0
vn -1 0 0
vn -0 0 -1
vn -0 0 -1
vn -0 0 -1
vn -0 0 -1
vn -0 0 -1
vn -0 0 -1
vn -0 0 -1
vn -0 0 -1
vn -1 0 0
vn -1 0 0
vn -1 0 0
vn -1 0 0
vn -0 0 1
vn -0 0 1
vn -0 0 1
vn -0 0 1
vn -5.90085983E-06 -0.575683594 0.817871094
vn -5.90085983E-06 -0.575683594 0.817871094
vn -5.90085983E-06 -0.575683594 0.817871094
vn -5.90085983E-06 -0.575683594 0.817871094
vn -0 0.625 0.780273438
vn -0 0.625 0.780273438
vn -0 0.625 0.780273438
vn -0 0.625 0.780273438
vn -0.771972656 -0.635742188 0
vn -0.771972656 -0.635742188 0
vn -0.771972656 -0.635742188 0
vn -0.771972656 -0.635742188 0
vn -0.771972656 0.635253906 0
vn -0.771972656 0.635253906 0
vn -0.771972656 0.635253906 0
vn -0.771972656 0.635253906 0
vn -0 0.575683594 -0.817871094
vn -0 0.575683594 -0.817871094
vn -0 0.575683594 -0.817871094
vn -0 0.575683594 -0.817871094
vn -5.90085983E-06 -0.575683594 -0.817871094
vn -5.90085983E-06 -0.575683594 -0.817871094
vn -5.90085983E-06 -0.575683594 -0.817871094
vn -5.90085983E-06 -0.575683594 -0.817871094
vn -0.743652344 -0.668457031 0
vn -0.970214844 -0.241699219 0
vn -0.970214844 -0.241699219 0
vn -0.738769531 -0.673828125 0
vn -0.482177734 -0.875976562 0
vn -0.482177734 -0.875976562 0
vn -0.374267578 -0.927246094 0
vn -0.374267578 -0.927246094 0
vn -0.209594727 -0.978027344 0
vn -0.209594727 -0.978027344 0
vn -0.0613098145 -0.998046875 0
vn -0.0613098145 -0.998046875 0
vn -0 0 1
vn -0 0 1
vn 4.58955765E-06 0 1
vn 5.66244125E-06 0 1
vn 1.7285347E-06 0 1
vn 3.09944153E-06 0 1
vn -2.14576721E-06 0 1
vn -2.20537186E-06 0 1
vn -1.7285347E-06 0 1
vn -1.7285347E-06 0 1
vn -5.54323196E-06 0 -1
vn -5.36441803E-07 0 -1
vn -5.54323196E-06 0 -1
vn 5.96046448E-07 0 -1
vn 1.37090683E-06 0 -1
vn 1.07288361E-06 0 -1
vn 2.68220901E-06 0 -1
vn 3.21865082E-06 0 -1
vn 6.91413879E-06 0 -1
vn 6.91413879E-06 0 -1
vn 0.219604492 0.975585938 0
vn -0 1 0
vn -0 1 0
vn 0.219604492 0.975585938 0
vn 0.397460938 0.917480469 0
vn 0.397460938 0.917480469 0
vn 0.512207031 0.858886719 0
vn 0.512207031 0.858886719 0
vn 0.587402344 0.809570312 0
vn 0.587402344 0.809570312 0
vn -0.391601562 0.919921875 0
vn -0.391601562 0.919921875 0
vn -0.391601562 0.919921875 0
vn -0.391601562 0.919921875 0
vn 0.870117188 0.492431641 0
vn 0.870117188 0.492431641 0
vn 0.833496094 0.552246094 0
vn 0.833496094 0.552246094 0
vn 0.733398438 0.6796875 0
vn 0.733398438 0.6796875 0
vn 0.673339844 0.739257812 0
vn 0.673339844 0.739257812 0
vn 0.993164062 -0.115356445 0
vn 0.993164062 -0.115356445 0
vn 0.993164062 -0.115356445 0
vn 0.993164062 -0.115356445 0
vn 0.974121094 0.22644043 0
vn 0.944335938 0.329101562 0
vn 0.944335938 0.329101562 0
vn 0.974121094 0.22644043 0
vn 0.99609375 0.0902709961 0
vn 0.99609375 0.0902709961 0
vn 0.999511719 0.0242919922 0
vn 0.999511719 0.0242919922 0
vn 1 0 0
vn 1 0 0
vn 0.771972656 -0.635253906 0
vn 0.771972656 -0.635253906 0
vn 0.771972656 -0.635253906 0
vn 0.771972656 -0.635253906 0
vn 1 0 0
vn 1 0 0
vn 1 0 0
vn 1 0 0
vn 0.772460938 0.635253906 0
vn 0.772460938 0.635253906 0
vn 0.772460938 0.635253906 0
vn 0.772460938 0.635253906 0
vn 1 0 0
vn 1 0 0
vn 1 0 0
vn 1 0 0
vn 0.690429688 0.723144531 0
vn 0.690429688 0.723144531 0
vn 0.690429688 0.723144531 0
vn 0.690429688 0.723144531 0
vn 1 0 0
vn 1 0 0
vn 1 0 0
vn 1 0 0
vn -0.999511719 -0.0276947021 0
vn -1 0 0
vn -1 0 0
vn -0.999511719 -0.0276947021 0
vn -0.993164062 -0.116821289 0
vn -0.993164062 -0.116821289 0
vn -0.981933594 -0.188598633 0
vn -0.981933594 -0.188598633 0
vn -0.865234375 -0.500976562 0
vn -0.865234375 -0.500976562 0
vn -0.818359375 -0.575195312 0
vn -0.818359375 -0.575195312 0
vn -0.744140625 -0.66796875 0
vn -0.744140625 -0.66796875 0
vn -0.690429688 -0.723632812 0
vn -0.690429688 -0.723632812 0
vn 9.65595245E-06 0 -1
vn -2.50339508E-06 0 -1
vn 9.65595245E-06 0 -1
vn 2.20537186E-06 0 -1
vn -1.84774399E-06 0 -1
vn 2.02655792E-06 0 -1
vn 1.15633011E-05 0 -1
vn 1.15633011E-05 0 -1
vn -0 0 -1
vn -0 0 -1
vn -0 0 -1
vn -0 0 -1
vn 1 0 0
vn 1 0 0
vn 1 0 0
vn 1 0 0
vn 2.98023224E-06 0 1
vn -0 0 1
vn -0 0 1
vn 1.84774399E-06 0 1
vn -1.1920929E-07 0 1
vn -2.62260437E-06 0 1
vn -8.70227814E-06 0 1
vn -8.70227814E-06 0 1
vn -0 0 1
vn -0 0 1
vn -0 0 1
vn -0 0 1
vn -0.253417969 -0.274169922 -0.927734375
vn -0.5859375 -0.633789062 -0.504882812
vn -0.5859375 -0.633789062 -0.504882812
vn -0.0719604492 -0.0778198242 -0.994140625
vn 5.60283661E-06 0 -1
vn 4.29153442E-06 0 -1
vn 4.11272049E-06 0 -1
vn 1.01327896E-06 0 -1
vn 1.01327896E-06 0 -1
vn -0 0 -1
vn -0 0 -1
vn -0.587402344 -0.634765625 0.501953125
vn -0.587402344 -0.634765625 0.501953125
vn -0.0726318359 -0.0785522461 0.994140625
vn -0.255126953 -0.275878906 0.926757812
vn -0 0 1
vn -0 0 1
vn -0 0 1
vn -7.15255737E-07 0 1
vn -6.55651093E-07 0 1
vn -1.13248825E-06 0 1
vn -1.13248825E-06 0 1
vn 0.751464844 0.257080078 -0.607910156
vn 0.751464844 0.257080078 -0.607910156
vn 0.751464844 0.257080078 -0.607910156
vn 0.751464844 0.257080078 -0.607910156
vn 0.806152344 0.275878906 0.5234375
vn 0.806152344 0.275878906 0.5234375
vn 0.806152344 0.275878906 0.5234375
vn 0.806152344 0.275878906 0.5234375
vn -0 0.540527344 -0.841308594
vn -0 0.540527344 -0.841308594
vn -0 0.540527344 -0.841308594
vn -0 0.540527344 -0.841308594
vn 0.836425781 0.547851562 0
vn 0.836425781 0.547851562 0
vn 0.836425781 0.547851562 0
vn 0.836425781 0.547851562 0
vn -0 0.486816406 0.873535156
vn -0 0.486816406 0.873535156
vn -0 0.486816406 0.873535156
vn -0 0.486816406 0.873535156
vn 2.8014183E-06 0 1
vn 2.8014183E-06 0 1
vn 2.8014183E-06 0 1
vn 2.8014183E-06 0 1
vn 1 0 0
vn 1 0 0
vn 1 0 0
vn 1 0 0
vn -0 0 -1
vn -0 0 -1
vn -0 0 -1
vn -0 0 -1
vn -0 0 -1
vn -0 0 -1
vn -0 0 -1
vn -0 0 -1
vn 1 0 0
vn 1 0 0
vn 1 0 0
vn 1 0 0
vn -0 0 1
vn -0 0 1
vn -0 0 1
vn -0 0 1
vn 5.90085983E-06 -0.575683594 0.817871094
vn 5.90085983E-06 -0.575683594 0.817871094
vn 5.90085983E-06 -0.575683594 0.817871094
vn 5.90085983E-06 -0.575683594 0.817871094
vn -0 0.625 0.780273438
vn -0 0.625 0.780273438
vn -0 0.625 0.780273438
vn -0 0.625 0.780273438
vn 0.771972656 -0.635742188 0
vn 0.771972656 -0.635742188 0
vn 0.771972656 -0.635742188 0
vn 0.771972656 -0.635742188 0
vn 0.771972656 0.635253906 0
vn 0.771972656 0.635253906 0
vn 0.771972656 0.635253906 0
vn 0.771972656 0.635253906 0
vn -0 0.575683594 -0.817871094
vn -0 0.575683594 -0.817871094
vn -0 0.575683594 -0.817871094
vn -0 0.575683594 -0.817871094
vn 5.90085983E-06 -0.575683594 -0.817871094
vn 5.90085983E-06 -0.575683594 -0.817871094
vn 5.90085983E-06 -0.575683594 -0.817871094
vn 5.90085983E-06 -0.575683594 -0.817871094
vn 0.69140625 -0.72265625 0
vn 0.744140625 -0.66796875 0
vn 0.69140625 -0.72265625 0
vn 0.744140625 -0.66796875 0
vn 0.818359375 -0.575195312 0
vn 0.818359375 -0.575195312 0
vn 0.865722656 -0.500488281 0
vn 0.865722656 -0.500488281 0
vn 0.981933594 -0.190307617 0
vn 0.981933594 -0.190307617 0
vn 0.993164062 -0.116210938 0
vn 0.993164062 -0.116210938 0
vn 0.999511719 -0.0272216797 0
vn 0.999511719 -0.0272216797 0
vn 1 0 0
vn 1 0 0
vn 0.7421875 -0.670410156 0
vn 0.967773438 -0.251220703 0
vn 0.967773438 -0.251220703 0
vn 0.737304688 -0.67578125 0
vn 0.482666016 -0.875976562 0
vn 0.482666016 -0.875976562 0
vn 0.374511719 -0.927246094 0
vn 0.374511719 -0.927246094 0
vn 0.209594727 -0.978027344 0
vn 0.209594727 -0.978027344 0
vn 0.0613098145 -0.998046875 0
vn 0.0613098145 -0.998046875 0
vn 5.54323196E-06 0 1
vn 8.22544098E-06 0 1
vn 5.54323196E-06 0 1
vn 8.88109207E-06 0 1
vn 4.23192978E-06 0 1
vn 5.54323196E-06 0 1
vn -0 0 1
vn -0 0 1
vn -0 0 1
vn -0 0 1
vn -0 0 -1
vn -0 0 -1
vn -0 0 -1
vn -0 0 -1
vn -0 0 -1
vn -0 0 -1
vn -5.30481339E-06 0 -1
vn -6.37769699E-06 0 -1
vn -1.38282776E-05 0 -1
vn -1.38282776E-05 0 -1
vn -0.219726562 0.975585938 0
vn -0 1 0
vn -0 1 0
vn -0.219726562 0.975585938 0
vn -0.397460938 0.917480469 0
vn -0.397460938 0.917480469 0
vn -0.512207031 0.858886719 0
vn -0.512207031 0.858886719 0
vn -0.5859375 0.810058594 0
vn -0.5859375 0.810058594 0
vn 0.396972656 0.91796875 0
vn 0.396972656 0.91796875 0
vn 0.396972656 0.91796875 0
vn 0.396972656 0.91796875 0
vn -0.733398438 0.680175781 0
vn -0.672851562 0.739746094 0
vn -0.672851562 0.739746094 0
vn -0.733398438 0.680175781 0
vn -0.833496094 0.552246094 0
vn -0.833496094 0.552246094 0
vn -0.870117188 0.492431641 0
vn -0.870117188 0.492431641 0
vn -0.965332031 0.261230469 0
vn -0.993164062 -0.115234375 0
vn -0.993164062 -0.115234375 0
vn -0.965332031 0.261230469 0
vn -0.974121094 0.22644043 0
vn -0.974121094 0.22644043 0
vn -0.99609375 0.0908203125 0
vn -0.99609375 0.0908203125 0
vn -0.999511719 0.024307251 0
vn -0.999511719 0.024307251 0
vn -1 0 0
vn -1 0 0
vn -0.771972656 -0.635742188 0
vn -0.771972656 -0.635742188 0
vn -0.771972656 -0.635742188 0
vn -0.771972656 -0.635742188 0
vn -1 0 0
vn -1 0 0
vn -1 0 0
vn -1 0 0
vn -0.771972656 0.635253906 0
vn -0.771972656 0.635253906 0
vn -0.771972656 0.635253906 0
vn -0.771972656 0.635253906 0
vn -1 0 0
vn -1 0 0
vn -1 0 0
vn -1 0 0
vn -0.690429688 0.723144531 0
vn -0.690429688 0.723144531 0
vn -0.690429688 0.723144531 0
vn -0.690429688 0.723144531 0
vn -1 0 0
vn -1 0 0
vn -1 0 0
vn -1 0 0
vn -0 1 0
vn -0 1 0
vn -0 1 0
vn -0 1 0
vn -0 1 0
vn -0 1 0
vn -0 1 0
vn -0 1 0
vn -0 1 0
vn -0 1 0
vn -0 1 0
vn -0 1 0
vn -0 1 0
g GoalChipA_0
f 3/3/3 2/2/2 1/1/1
f 6/6/6 5/5/5 4/4/4
f 9/9/9 8/8/8 7/7/7
f 12/12/12 11/11/11 10/10/10
f 15/15/15 14/14/14 13/13/13
f 16/16/16 15/15/15 13/13/13
f 19/19/19 18/18/18 17/17/17
f 20/20/20 19/19/19 17/17/17
f 23/23/23 22/22/22 21/21/21
f 24/24/24 23/23/23 21/21/21
f 24/24/24 21/21/21 25/25/25
f 26/26/26 24/24/24 25/25/25
f 26/26/26 25/25/25 27/27/27
f 30/30/30 29/29/29 28/28/28
f 31/31/31 30/30/30 28/28/28
f 34/34/34 33/33/33 32/32/32
f 35/35/35 34/34/34 32/32/32
f 38/38/38 37/37/37 36/36/36
f 39/39/39 38/38/38 36/36/36
f 42/42/42 41/41/41 40/40/40
f 43/43/43 42/42/42 40/40/40
f 46/46/46 45/45/45 44/44/44
f 47/47/47 46/46/46 44/44/44
f 50/50/50 49/49/49 48/48/48
f 51/51/51 50/50/50 48/48/48
f 54/54/54 53/53/53 52/52/52
f 55/55/55 54/54/54 52/52/52
f 58/58/58 57/57/57 56/56/56
f 59/59/59 58/58/58 56/56/56
f 62/62/62 61/61/61 60/60/60
f 63/63/63 62/62/62 60/60/60
f 66/66/66 65/65/65 64/64/64
f 67/67/67 66/66/66 64/64/64
f 70/70/70 69/69/69 68/68/68
f 71/71/71 70/70/70 68/68/68
f 74/74/74 73/73/73 72/72/72
f 75/75/75 74/74/74 72/72/72
f 78/78/78 77/77/77 76/76/76
f 79/79/79 78/78/78 76/76/76
f 82/82/82 81/81/81 80/80/80
f 83/83/83 82/82/82 80/80/80
f 86/86/86 85/85/85 84/84/84
f 87/87/87 86/86/86 84/84/84
f 90/90/90 89/89/89 88/88/88
f 91/91/91 90/90/90 88/88/88
f 94/94/94 93/93/93 92/92/92
f 95/95/95 94/94/94 92/92/92
f 98/98/98 97/97/97 96/96/96
f 99/99/99 98/98/98 96/96/96
f 99/99/99 100/100/100 98/98/98
f 100/100/100 101/101/101 98/98/98
f 100/100/100 102/102/102 101/101/101
f 102/102/102 103/103/103 101/101/101
f 106/106/106 105/105/105 104/104/104
f 106/106/106 104/104/104 107/107/107
f 108/108/108 106/106/106 107/107/107
f 108/108/108 107/107/107 109/109/109
f 110/110/110 108/108/108 109/109/109
f 110/110/110 109/109/109 111/111/111
f 112/112/112 110/110/110 111/111/111
f 115/115/115 114/114/114 113/113/113
f 116/116/116 115/115/115 113/113/113
f 119/119/119 118/118/118 117/117/117
f 120/120/120 119/119/119 117/117/117
f 123/123/123 122/122/122 121/121/121
f 124/124/124 123/123/123 121/121/121
f 124/124/124 121/121/121 125/125/125
f 126/126/126 124/124/124 125/125/125
f 126/126/126 125/125/125 127/127/127
f 125/125/125 128/128/128 127/127/127
f 131/131/131 130/130/130 129/129/129
f 132/132/132 131/131/131 129/129/129
f 135/135/135 134/134/134 133/133/133
f 136/136/136 133/133/133 134/134/134
f 137/137/137 136/136/136 134/134/134
f 137/137/137 138/138/138 136/136/136
f 138/138/138 139/139/139 136/136/136
f 138/138/138 140/140/140 139/139/139
f 140/140/140 141/141/141 139/139/139
f 144/144/144 143/143/143 142/142/142
f 145/145/145 144/144/144 142/142/142
f 148/148/148 147/147/147 146/146/146
f 149/149/149 148/148/148 146/146/146
f 152/152/152 151/151/151 150/150/150
f 153/153/153 152/152/152 150/150/150
f 156/156/156 155/155/155 154/154/154
f 157/157/157 156/156/156 154/154/154
f 160/160/160 159/159/159 158/158/158
f 161/161/161 160/160/160 158/158/158
f 164/164/164 163/163/163 162/162/162
f 165/165/165 164/164/164 162/162/162
f 168/168/168 167/167/167 166/166/166
f 169/169/169 168/168/168 166/166/166
f 172/172/172 171/171/171 170/170/170
f 173/173/173 172/172/172 170/170/170
f 176/176/176 175/175/175 174/174/174
f 177/177/177 176/176/176 174/174/174
f 180/180/180 179/179/179 178/178/178
f 181/181/181 180/180/180 178/178/178
f 184/184/184 183/183/183 182/182/182
f 185/185/185 184/184/184 182/182/182
f 188/188/188 187/187/187 186/186/186
f 189/189/189 188/188/188 186/186/186
f 192/192/192 191/191/191 190/190/190
f 193/193/193 192/192/192 190/190/190
f 196/196/196 195/195/195 194/194/194
f 197/197/197 196/196/196 194/194/194
f 200/200/200 199/199/199 198/198/198
f 201/201/201 200/200/200 198/198/198
f 204/204/204 203/203/203 202/202/202
f 205/205/205 204/204/204 202/202/202
f 208/208/208 207/207/207 206/206/206
f 209/209/209 208/208/208 206/206/206
f 212/212/212 211/211/211 210/210/210
f 213/213/213 212/212/212 210/210/210
f 216/216/216 215/215/215 214/214/214
f 217/217/217 216/216/216 214/214/214
f 220/220/220 219/219/219 218/218/218
f 221/221/221 220/220/220 218/218/218
f 221/221/221 218/218/218 222/222/222
f 223/223/223 221/221/221 222/222/222
f 223/223/223 222/222/222 224/224/224
f 225/225/225 223/223/223 224/224/224
f 225/225/225 224/224/224 226/226/226
f 227/227/227 225/225/225 226/226/226
f 227/227/227 226/226/226 228/228/228
f 226/226/226 229/229/229 228/228/228
f 232/232/232 231/231/231 230/230/230
f 233/233/233 232/232/232 230/230/230
f 233/233/233 234/234/234 232/232/232
f 234/234/234 235/235/235 232/232/232
f 234/234/234 236/236/236 235/235/235
f 236/236/236 237/237/237 235/235/235
f 236/236/236 238/238/238 237/237/237
f 238/238/238 239/239/239 237/237/237
f 242/242/242 241/241/241 240/240/240
f 241/241/241 243/243/243 240/240/240
f 241/241/241 244/244/244 243/243/243
f 244/244/244 245/245/245 243/243/243
f 244/244/244 246/246/246 245/245/245
f 246/246/246 247/247/247 245/245/245
f 246/246/246 248/248/248 247/247/247
f 248/248/248 249/249/249 247/247/247
f 252/252/252 251/251/251 250/250/250
f 251/251/251 253/253/253 250/250/250
f 250/250/250 253/253/253 254/254/254
f 253/253/253 255/255/255 254/254/254
f 254/254/254 255/255/255 256/256/256
f 255/255/255 257/257/257 256/256/256
f 256/256/256 257/257/257 258/258/258
f 257/257/257 259/259/259 258/258/258
f 262/262/262 261/261/261 260/260/260
f 263/263/263 262/262/262 260/260/260
f 266/266/266 265/265/265 264/264/264
f 267/267/267 266/266/266 264/264/264
f 268/268/268 266/266/266 267/267/267
f 269/269/269 268/268/268 267/267/267
f 269/269/269 270/270/270 268/268/268
f 270/270/270 271/271/271 268/268/268
f 274/274/274 273/273/273 272/272/272
f 275/275/275 274/274/274 272/272/272
f 278/278/278 277/277/277 276/276/276
f 277/277/277 279/279/279 276/276/276
f 276/276/276 279/279/279 280/280/280
f 281/281/281 276/276/276 280/280/280
f 281/281/281 280/280/280 282/282/282
f 283/283/283 281/281/281 282/282/282
f 283/283/283 282/282/282 284/284/284
f 285/285/285 283/283/283 284/284/284
f 288/288/288 287/287/287 286/286/286
f 289/289/289 288/288/288 286/286/286
f 292/292/292 291/291/291 290/290/290
f 293/293/293 292/292/292 290/290/290
f 296/296/296 295/295/295 294/294/294
f 297/297/297 296/296/296 294/294/294
f 300/300/300 299/299/299 298/298/298
f 301/301/301 300/300/300 298/298/298
f 304/304/304 303/303/303 302/302/302
f 305/305/305 304/304/304 302/302/302
f 308/308/308 307/307/307 306/306/306
f 309/309/309 308/308/308 306/306/306
f 312/312/312 311/311/311 310/310/310
f 313/313/313 312/312/312 310/310/310
f 313/313/313 310/310/310 314/314/314
f 315/315/315 313/313/313 314/314/314
f 315/315/315 314/314/314 316/316/316
f 314/314/314 317/317/317 316/316/316
f 316/316/316 317/317/317 318/318/318
f 317/317/317 319/319/319 318/318/318
f 318/318/318 319/319/319 320/320/320
f 321/321/321 318/318/318 320/320/320
f 321/321/321 320/320/320 322/322/322
f 323/323/323 321/321/321 322/322/322
f 323/323/323 322/322/322 324/324/324
f 322/322/322 325/325/325 324/324/324
f 328/328/328 327/327/327 326/326/326
f 327/327/327 329/329/329 326/326/326
f 330/330/330 329/329/329 327/327/327
f 331/331/331 330/330/330 327/327/327
f 331/331/331 332/332/332 330/330/330
f 332/332/332 333/333/333 330/330/330
f 336/336/336 335/335/335 334/334/334
f 337/337/337 336/336/336 334/334/334
f 340/340/340 339/339/339 338/338/338
f 341/341/341 340/340/340 338/338/338
f 344/344/344 343/343/343 342/342/342
f 343/343/343 345/345/345 342/342/342
f 342/342/342 345/345/345 346/346/346
f 347/347/347 342/342/342 346/346/346
f 347/347/347 346/346/346 348/348/348
f 349/349/349 347/347/347 348/348/348
f 352/352/352 351/351/351 350/350/350
f 353/353/353 352/352/352 350/350/350
f 356/356/356 355/355/355 354/354/354
f 355/355/355 357/357/357 354/354/354
f 354/354/354 357/357/357 358/358/358
f 358/358/358 357/357/357 359/359/359
f 360/360/360 358/358/358 359/359/359
f 360/360/360 359/359/359 361/361/361
f 359/359/359 362/362/362 361/361/361
f 361/361/361 362/362/362 363/363/363
f 362/362/362 364/364/364 363/363/363
f 367/367/367 366/366/366 365/365/365
f 368/368/368 367/367/367 365/365/365
f 367/367/367 368/368/368 369/369/369
f 369/369/369 370/370/370 367/367/367
f 370/370/370 371/371/371 367/367/367
f 370/370/370 372/372/372 371/371/371
f 372/372/372 373/373/373 371/371/371
f 374/374/374 373/373/373 372/372/372
f 375/375/375 374/374/374 372/372/372
f 378/378/378 377/377/377 376/376/376
f 379/379/379 378/378/378 376/376/376
f 382/382/382 381/381/381 380/380/380
f 383/383/383 382/382/382 380/380/380
f 386/386/386 385/385/385 384/384/384
f 387/387/387 386/386/386 384/384/384
f 390/390/390 389/389/389 388/388/388
f 391/391/391 390/390/390 388/388/388
f 394/394/394 393/393/393 392/392/392
f 395/395/395 394/394/394 392/392/392
f 398/398/398 397/397/397 396/396/396
f 399/399/399 398/398/398 396/396/396
f 402/402/402 401/401/401 400/400/400
f 403/403/403 402/402/402 400/400/400
f 406/406/406 405/405/405 404/404/404
f 407/407/407 406/406/406 404/404/404
f 410/410/410 409/409/409 408/408/408
f 411/411/411 410/410/410 408/408/408
f 414/414/414 413/413/413 412/412/412
f 415/415/415 414/414/414 412/412/412
f 418/418/418 417/417/417 416/416/416
f 419/419/419 418/418/418 416/416/416
f 422/422/422 421/421/421 420/420/420
f 423/423/423 422/422/422 420/420/420
f 426/426/426 425/425/425 424/424/424
f 427/427/427 426/426/426 424/424/424
f 430/430/430 429/429/429 428/428/428
f 431/431/431 430/430/430 428/428/428
f 434/434/434 433/433/433 432/432/432
f 435/435/435 434/434/434 432/432/432
f 438/438/438 437/437/437 436/436/436
f 439/439/439 438/438/438 436/436/436
f 442/442/442 441/441/441 440/440/440
f 443/443/443 442/442/442 440/440/440
f 446/446/446 445/445/445 444/444/444
f 445/445/445 447/447/447 444/444/444
f 445/445/445 448/448/448 447/447/447
f 448/448/448 449/449/449 447/447/447
f 450/450/450 449/449/449 448/448/448
f 451/451/451 450/450/450 448/448/448
f 451/451/451 452/452/452 450/450/450
f 452/452/452 453/453/453 450/450/450
f 452/452/452 454/454/454 453/453/453
f 454/454/454 455/455/455 453/453/453
f 454/454/454 456/456/456 455/455/455
f 456/456/456 457/457/457 455/455/455
f 458/458/458 457/457/457 456/456/456
f 459/459/459 458/458/458 456/456/456
f 462/462/462 461/461/461 460/460/460
f 461/461/461 463/463/463 460/460/460
f 460/460/460 463/463/463 464/464/464
f 463/463/463 465/465/465 464/464/464
f 464/464/464 465/465/465 466/466/466
f 465/465/465 467/467/467 466/466/466
f 466/466/466 467/467/467 468/468/468
f 467/467/467 469/469/469 468/468/468
f 468/468/468 469/469/469 470/470/470
f 471/471/471 468/468/468 470/470/470
f 474/474/474 473/473/473 472/472/472
f 473/473/473 475/475/475 472/472/472
f 476/476/476 475/475/475 473/473/473
f 477/477/477 476/476/476 473/473/473
f 478/478/478 476/476/476 477/477/477
f 479/479/479 478/478/478 477/477/477
f 480/480/480 478/478/478 479/479/479
f 481/481/481 480/480/480 479/479/479
f 484/484/484 483/483/483 482/482/482
f 485/485/485 484/484/484 482/482/482
f 486/486/486 484/484/484 485/485/485
f 487/487/487 486/486/486 485/485/485
f 488/488/488 486/486/486 487/487/487
f 489/489/489 488/488/488 487/487/487
f 490/490/490 488/488/488 489/489/489
f 491/491/491 490/490/490 489/489/489
f 494/494/494 493/493/493 492/492/492
f 495/495/495 494/494/494 492/492/492
f 495/495/495 492/492/492 496/496/496
f 497/497/497 495/495/495 496/496/496
f 497/497/497 496/496/496 498/498/498
f 499/499/499 497/497/497 498/498/498
f 499/499/499 498/498/498 500/500/500
f 501/501/501 499/499/499 500/500/500
f 504/504/504 503/503/503 502/502/502
f 505/505/505 504/504/504 502/502/502
f 508/508/508 507/507/507 506/506/506
f 509/509/509 508/508/508 506/506/506
f 509/509/509 506/506/506 510/510/510
f 511/511/511 509/509/509 510/510/510
f 511/511/511 510/510/510 512/512/512
f 513/513/513 511/511/511 512/512/512
f 516/516/516 515/515/515 514/514/514
f 515/515/515 517/517/517 514/514/514
f 514/514/514 517/517/517 518/518/518
f 519/519/519 514/514/514 518/518/518
f 519/519/519 518/518/518 520/520/520
f 521/521/521 519/519/519 520/520/520
f 521/521/521 520/520/520 522/522/522
f 520/520/520 523/523/523 522/522/522
f 522/522/522 523/523/523 524/524/524
f 523/523/523 525/525/525 524/524/524
f 528/528/528 527/527/527 526/526/526
f 529/529/529 528/528/528 526/526/526
f 532/532/532 531/531/531 530/530/530
f 533/533/533 532/532/532 530/530/530
f 536/536/536 535/535/535 534/534/534
f 537/537/537 536/536/536 534/534/534
f 540/540/540 539/539/539 538/538/538
f 541/541/541 540/540/540 538/538/538
f 544/544/544 543/543/543 542/542/542
f 545/545/545 544/544/544 542/542/542
f 548/548/548 547/547/547 546/546/546
f 549/549/549 548/548/548 546/546/546
f 552/552/552 551/551/551 550/550/550
f 553/553/553 552/552/552 550/550/550
f 550/550/550 554/554/554 553/553/553
f 551/551/551 552/552/552 555/555/555
f 556/556/556 551/551/551 555/555/555
f 554/554/554 557/557/557 553/553/553
f 554/554/554 558/558/558 557/557/557
f 553/553/553 559/559/559 552/552/552
f 552/552/552 559/559/559 555/555/555
f 557/557/557 559/559/559 553/553/553
f 556/556/556 555/555/555 560/560/560
f 555/555/555 559/559/559 560/560/560
f 561/561/561 556/556/556 560/560/560
f 558/558/558 562/562/562 557/557/557
f 562/562/562 559/559/559 557/557/557
f 560/560/560 559/559/559 562/562/562
f 561/561/561 560/560/560 562/562/562
f 558/558/558 561/561/561 562/562/562
