g GridChipB
v 0.387056887 2.91937621E-08 0.742639124
v -0 2.91937621E-08 0
v 0.777281463 2.91937621E-08 0
v -0.387059331 2.91937621E-08 0.742639124
v 0.387056887 2.91937621E-08 -0.742637932
v -0.777282059 2.91937621E-08 0
v -0.387059331 2.91937621E-08 -0.742637932
vt 0.308105469 0.607910156
vt 0.221069336 0.782226562
vt 0.395263672 0.782226562
vt 0.134155273 0.607910156
vt 0.308105469 0.956542969
vt 0.0470275879 0.782226562
vt 0.134155273 0.956542969
vn -0 1 0
vn -0 1 0
vn -0 1 0
vn -0 1 0
vn -0 1 0
vn -0 1 0
vn -0 1 0
g GridChipB_0
f 3/3/3 2/2/2 1/1/1
f 1/1/1 2/2/2 4/4/4
f 5/5/5 2/2/2 3/3/3
f 4/4/4 2/2/2 6/6/6
f 7/7/7 2/2/2 5/5/5
f 6/6/6 2/2/2 7/7/7
