g GridChipA
v 0.25052917 1.90609732E-08 0.480686039
v -0 1.90609732E-08 0
v 0.503109097 1.90609732E-08 0
v -0.250530392 1.90609732E-08 0.480686039
v 0.25052917 1.90609732E-08 -0.480684817
v -0.503109097 1.90609732E-08 0
v -0.250530392 1.90609732E-08 -0.480685413
vt 0.616210938 0.722167969
vt 0.554199219 0.846191406
vt 0.678222656 0.846191406
vt 0.492675781 0.722167969
vt 0.616210938 0.969726562
vt 0.430664062 0.846191406
vt 0.492675781 0.969726562
vn -0 1 0
vn -0 1 0
vn -0 1 0
vn -0 1 0
vn -0 1 0
vn -0 1 0
vn -0 1 0
g GridChipA_0
f 3/3/3 2/2/2 1/1/1
f 1/1/1 2/2/2 4/4/4
f 5/5/5 2/2/2 3/3/3
f 4/4/4 2/2/2 6/6/6
f 7/7/7 2/2/2 5/5/5
f 6/6/6 2/2/2 7/7/7
