g MagicCircleBase
v -0.703125 -0.70312506 -0.00749999983
v -0.703125 0.703124881 -0.00749999983
v 0.703125 0.703124881 -0.00749999983
v 0.703125 -0.70312506 -0.00749999983
v -0.703125 -0.70312506 0.00749999983
v -0.703125 0.703124881 0.00749999983
v 0.703125 0.703124881 0.00749999983
v 0.703125 -0.70312506 0.00749999983
vt 0.00250053406 0.502441406
vt 0.00250053406 0.997558594
vt 0.497558594 0.997558594
vt 0.497558594 0.502441406
vt 0.00250053406 0.00250053406
vt 0.00250053406 0.497558594
vt 0.497558594 0.497558594
vt 0.497558594 0.00250053406
vn -0 0 1
vn -0 0 1
vn -0 0 1
vn -0 0 1
vn -0 0 1
vn -0 0 1
vn -0 0 1
vn -0 0 1
g MagicCircleBase_0
f 3/3/3 2/2/2 1/1/1
f 4/4/4 3/3/3 1/1/1
g MagicCircleBase_1
f 7/7/7 6/6/6 5/5/5
f 8/8/8 7/7/7 5/5/5
