g MagicCircleLetter
v -0.703125 -0.70312506 0.022499999
v -0.703125 0.703124881 0.022499999
v 0.703125 0.703124881 0.022499999
v 0.703125 -0.70312506 0.022499999
v -0.703125 -0.70312506 0.00749999983
v -0.703125 0.703124881 0.00749999983
v 0.703125 0.703124881 0.00749999983
v 0.703125 -0.70312506 0.00749999983
vt 0.504882812 0.00497436523
vt 0.504882812 0.495117188
vt 0.995117188 0.495117188
vt 0.995117188 0.00497436523
vt 0.504882812 0.504882812
vt 0.504882812 0.995117188
vt 0.995117188 0.995117188
vt 0.995117188 0.504882812
vn -0 0 1
vn -0 0 1
vn -0 0 1
vn -0 0 1
vn -0 0 1
vn -0 0 1
vn -0 0 1
vn -0 0 1
g MagicCircleLetter_0
f 3/3/3 2/2/2 1/1/1
f 4/4/4 3/3/3 1/1/1
g MagicCircleLetter_1
f 7/7/7 6/6/6 5/5/5
f 8/8/8 7/7/7 5/5/5
