g MapWarpBase
v 20.237236 2.3703804 -16.3709412
v 16.269352 2.3703804 -12.39958
v 16.2155209 6.77719641 -15.2947149
v 17.3427391 6.77719641 -16.422924
v 15.7568569 7.09524584 -15.9577875
v 16.6786003 7.09524584 -16.8803234
v 16.6786003 7.09524584 -16.8803234
v 15.7568569 7.09524584 -15.9577875
v 15.0934067 6.77719641 -16.4158649
v 16.2206268 6.77719641 -17.5440731
v 16.1661186 2.3703804 -20.43853
v 12.1982203 2.3703804 -16.4671555
v 16.2206268 6.77719641 -17.5440731
v 17.3427391 6.77719641 -16.422924
v 16.6786003 7.09524584 -16.8803234
v 20.237236 2.3703804 -16.3709412
v 16.1661186 2.3703804 -20.43853
v 15.7180157 6.68458986 -15.9188986
v 16.0435886 6.47624826 -15.4649401
v 15.2637758 6.47624826 -16.2440758
v 12.7455292 2.59048748 -16.3249779
v 16.1266937 2.59048748 -12.9467716
v -20.237236 2.3703804 -16.3709412
v -16.2155209 6.77719641 -15.2947149
v -16.269352 2.3703804 -12.39958
v -17.3427391 6.77719641 -16.422924
v -15.7568569 7.09524584 -15.9577875
v -16.6786003 7.09524584 -16.8803234
v -16.6786003 7.09524584 -16.8803234
v -15.0934067 6.77719641 -16.4158649
v -15.7568569 7.09524584 -15.9577875
v -16.2206268 6.77719641 -17.5440731
v -16.1661186 2.3703804 -20.43853
v -12.1982203 2.3703804 -16.4671555
v -16.2206268 6.77719641 -17.5440731
v -16.6786003 7.09524584 -16.8803234
v -17.3427391 6.77719641 -16.422924
v -20.237236 2.3703804 -16.3709412
v -16.1661186 2.3703804 -20.43853
v -15.7180157 6.68458986 -15.9188986
v -15.2637758 6.47624826 -16.2440758
v -16.0435886 6.47624826 -15.4649401
v -12.7455292 2.59048748 -16.3249779
v -16.1266937 2.59048748 -12.9467716
v 20.4596596 2.48011303 16.2664471
v 16.4379444 6.88692904 15.1902199
v 16.4917755 2.48011303 12.295085
v 17.5651627 6.88692904 16.318428
v 15.9792805 7.20497847 15.8532925
v 16.9010239 7.20497847 16.7758293
v 16.9010239 7.20497847 16.7758293
v 15.3158302 6.88692904 16.3113708
v 15.9792805 7.20497847 15.8532925
v 16.4430504 6.88692904 17.439579
v 16.3885422 2.48011303 20.3340378
v 12.4206438 2.48011303 16.3626595
v 16.4430504 6.88692904 17.439579
v 16.9010239 7.20497847 16.7758293
v 17.5651627 6.88692904 16.318428
v 20.4596596 2.48011303 16.2664471
v 16.3885422 2.48011303 20.3340378
v 15.9404392 6.79432249 15.8144035
v 15.4861994 6.58598089 16.1395798
v 16.2660122 6.58598089 15.360445
v 12.9679527 2.70022011 16.2204819
v 16.3491173 2.70022011 12.8422766
v -20.4596596 2.48011303 16.2664471
v -16.4917755 2.48011303 12.295085
v -16.4379444 6.88692904 15.1902199
v -17.5651627 6.88692904 16.318428
v -15.9792805 7.20497847 15.8532925
v -16.9010239 7.20497847 16.7758293
v -16.9010239 7.20497847 16.7758293
v -15.9792805 7.20497847 15.8532925
v -15.3158302 6.88692904 16.3113708
v -16.4430504 6.88692904 17.439579
v -16.3885422 2.48011303 20.3340378
v -12.4206438 2.48011303 16.3626595
v -16.4430504 6.88692904 17.439579
v -17.5651627 6.88692904 16.318428
v -16.9010239 7.20497847 16.7758293
v -20.4596596 2.48011303 16.2664471
v -16.3885422 2.48011303 20.3340378
v -15.9404392 6.79432249 15.8144035
v -16.2660122 6.58598089 15.360445
v -15.4861994 6.58598089 16.1395798
v -12.9679527 2.70022011 16.2204819
v -16.3491173 2.70022011 12.8422766
v 34.8984756 0.690272331 7.4932704
v 34.8984756 -4.56912613 7.49325991
v 8.84324551 -4.56912613 33.1425438
v 8.84322453 0.690272331 33.1425552
v 34.8984718 0.690272331 7.04752588E-17
v 34.8984756 0.690272331 7.4932704
v 3.33066907E-16 0.690272331 3.23348951E-16
v 8.84322453 0.690272331 33.1425552
v 2.06110195E-16 0.690272331 33.1425514
v 2.06110195E-16 0.690272331 33.1425514
v 8.84322453 0.690272331 33.1425552
v 8.84324551 -4.56912613 33.1425438
v 4.12220416E-16 -4.56912613 33.1425438
v 34.8984756 0.690272331 7.4932704
v 34.8984718 0.690272331 7.04752588E-17
v 34.8984756 -4.56912613 7.34127426E-17
v 34.8984756 -4.56912613 7.49325991
v 34.8984756 0.690272331 -7.4932704
v 8.84322453 0.690272331 -33.1425552
v 8.84324551 -4.56912613 -33.1425438
v 34.8984756 -4.56912613 -7.49325991
v 34.8984718 0.690272331 7.04752588E-17
v 3.33066907E-16 0.690272331 3.23348951E-16
v 34.8984756 0.690272331 -7.4932704
v 8.84322453 0.690272331 -33.1425552
v 5.47104722E-16 0.690272331 -33.1425514
v 5.47104722E-16 0.690272331 -33.1425514
v 8.72164732E-16 -4.56912613 -33.1425438
v 8.84324551 -4.56912613 -33.1425438
v 8.84322453 0.690272331 -33.1425552
v 34.8984756 0.690272331 -7.4932704
v 34.8984756 -4.56912613 -7.49325991
v 34.8984756 -4.56912613 7.34127426E-17
v 34.8984718 0.690272331 7.04752588E-17
v -34.8984756 0.690272331 7.4932704
v -8.84322453 0.690272331 33.1425552
v -8.84324551 -4.56912613 33.1425438
v -34.8984756 -4.56912613 7.49325991
v -34.8984718 0.690272331 6.04191711E-17
v 3.33066907E-16 0.690272331 3.23348951E-16
v -34.8984756 0.690272331 7.4932704
v -8.84322453 0.690272331 33.1425552
v 2.06110195E-16 0.690272331 33.1425514
v 2.06110195E-16 0.690272331 33.1425514
v 4.12220416E-16 -4.56912613 33.1425438
v -8.84324551 -4.56912613 33.1425438
v -8.84322453 0.690272331 33.1425552
v -34.8984756 0.690272331 7.4932704
v -34.8984756 -4.56912613 7.49325991
v -34.8984756 -4.56912613 -1.68744077E-16
v -34.8984718 0.690272331 6.04191711E-17
v -34.8984756 0.690272331 -7.4932704
v -34.8984756 -4.56912613 -7.49325991
v -8.84324551 -4.56912613 -33.1425438
v -8.84322453 0.690272331 -33.1425552
v -34.8984718 0.690272331 6.04191711E-17
v -34.8984756 0.690272331 -7.4932704
v 3.33066907E-16 0.690272331 3.23348951E-16
v -8.84322453 0.690272331 -33.1425552
v 5.47104722E-16 0.690272331 -33.1425514
v 5.47104722E-16 0.690272331 -33.1425514
v -8.84322453 0.690272331 -33.1425552
v -8.84324551 -4.56912613 -33.1425438
v 8.72164732E-16 -4.56912613 -33.1425438
v -34.8984756 0.690272331 -7.4932704
v -34.8984718 0.690272331 6.04191711E-17
v -34.8984756 -4.56912613 -1.68744077E-16
v -34.8984756 -4.56912613 -7.49325991
v -0 -3.49851274 37.2894707
v -0 2.42837095 37.2894707
v 37.2894707 2.42837095 0
v 37.2894707 -3.49851274 0
v 37.2894707 -3.49851274 0
v 37.2894707 2.42837095 0
v -0 2.42837095 -37.2894707
v -0 -3.49851274 -37.2894707
v 27.8642998 2.42837095 0
v 37.2894707 2.42837095 0
v -0 2.42837095 37.2894707
v 1.52761693E-15 2.42837095 27.8642998
v 1.52761693E-15 2.42837095 -27.8642998
v -0 2.42837095 -37.2894707
v 37.2894707 2.42837095 0
v 27.8642998 2.42837095 0
v 1.52761693E-15 2.42837095 27.8642998
v 1.27015163E-15 1.09675097 27.8642998
v 27.8642998 1.09675097 0
v 27.8642998 2.42837095 0
v 27.8642998 2.42837095 0
v 27.8642998 1.09675097 0
v 1.27015163E-15 1.09675097 -27.8642998
v 1.52761693E-15 2.42837095 -27.8642998
v -0 -3.49851274 37.2894707
v -37.2894707 -3.49851274 0
v -37.2894707 2.42837095 -3.88046438E-24
v -0 2.42837095 37.2894707
v -37.2894707 -3.49851274 0
v -0 -3.49851274 -37.2894707
v -0 2.42837095 -37.2894707
v -37.2894707 2.42837095 -3.88046438E-24
v -27.8642998 2.42837095 0
v 1.52761693E-15 2.42837095 27.8642998
v -0 2.42837095 37.2894707
v -37.2894707 2.42837095 -3.88046438E-24
v 1.52761693E-15 2.42837095 -27.8642998
v -27.8642998 2.42837095 0
v -37.2894707 2.42837095 -3.88046438E-24
v -0 2.42837095 -37.2894707
v 1.52761693E-15 2.42837095 27.8642998
v -27.8642998 2.42837095 0
v -27.8642998 1.09675097 0
v 1.27015163E-15 1.09675097 27.8642998
v -27.8642998 2.42837095 0
v 1.52761693E-15 2.42837095 -27.8642998
v 1.27015163E-15 1.09675097 -27.8642998
v -27.8642998 1.09675097 0
v -38.0967178 4.05895042 1.80285251
v -39.0362816 -0.0895750523 -8.54453041E-15
v -39.0362816 4.05895042 -8.48710835E-15
v -38.0967178 -0.0895750523 1.80285251
v -34.0112 4.05895042 5.91839266
v -34.0112 -0.0895750523 5.91839266
v -32.0671082 -0.0723785162 7.02137375
v -32.0671082 4.05895042 7.02137375
v -27.4670601 4.05895042 5.03474998
v -27.4627762 -0.0638940334 5.03978062
v -27.4670601 4.05895042 -5.9674081E-15
v -27.4627781 -0.0638890266 -6.35785641E-15
v -38.0967178 -0.0895750523 1.80285251
v -38.117588 -3.8409667 -8.47634425E-15
v -37.1922607 -3.45812488 1.8225081
v -35.8289948 -5.84015274 -8.07281013E-15
v -34.3134918 -2.46825242 4.93699884
v -32.0671082 -0.0723785162 7.02137375
v -35.4161263 -5.2936902 1.60233939
v -32.6477737 -7.09524584 -8.27828762E-15
v -32.6477737 -6.57329798 1.22299337
v -33.8738518 -4.04900551 4.55461884
v -32.6477737 -4.73608208 3.57161832
v -38.0967178 4.05895042 -1.80285251
v -39.0362816 4.05895042 -8.48710835E-15
v -39.0362816 -0.0895750523 -8.54453041E-15
v -38.0967178 -0.0895750523 -1.80285251
v -34.0112114 4.05895042 -5.91839266
v -34.0112114 -0.0895750523 -5.91839266
v -32.0671082 -0.0723785162 -7.02136326
v -32.0671082 4.05895042 -7.02137375
v -27.4670601 4.05895042 -5.03474092
v -27.4627762 -0.0638940334 -5.03976917
v -27.4670601 4.05895042 -5.9674081E-15
v -27.4627781 -0.0638890266 -6.35785641E-15
v -38.0967178 -0.0895750523 -1.80285251
v -38.117588 -3.8409667 -8.47634425E-15
v -37.1922607 -3.45812488 -1.8225081
v -35.8289948 -5.84015274 -8.07281013E-15
v -34.3134918 -2.46825242 -4.93699884
v -32.0671082 -0.0723785162 -7.02136326
v -35.4161263 -5.2936902 -1.60233939
v -32.6477737 -7.09524584 -8.27828762E-15
v -32.6477737 -6.57329798 -1.22298419
v -33.8738518 -4.04900551 -4.55461216
v -32.6477737 -4.73608208 -3.57160711
v -33.5316734 4.05895042 3.82298088
v -34.5941544 4.05895042 3.97270417
v -35.9738388 4.05895042 2.69059134
v -33.3444633 4.05895042 -7.42947591E-15
v -35.9738693 4.05895042 -2.69058228
v -33.5316734 4.05895042 -3.82297087
v -34.5941544 4.05895042 -3.97269964
v -37.6164017 4.05895042 0.951864302
v -37.6164284 4.05895042 -0.951855183
v -38.013649 4.05895042 6.21904474E-06
v -22.5919285 2.78462172 -3.29295349
v -22.461216 -1.91240132 -3.25588942
v -22.461216 -1.91240132 3.24746609
v -22.5919285 2.78462172 3.28453541
v -28.9430294 2.78462172 6.60049629
v -29.0737267 0.30117774 6.63755989
v -29.0737267 0.30117774 -6.64597607
v -28.9430294 2.78462172 -6.60891056
v -28.9430294 2.78462172 -6.60891056
v -22.5919285 2.78462172 -3.29295349
v -22.5919285 2.78462172 3.28453541
v -28.9430294 2.78462172 6.60049629
v -29.0737267 0.30117774 6.63755989
v -28.9430294 2.78462172 6.60049629
v -22.5919285 2.78462172 3.28453541
v -22.461216 -1.91240132 3.24746609
v -22.461216 -1.91240132 -3.25588942
v -22.5919285 2.78462172 -3.29295349
v -28.9430294 2.78462172 -6.60891056
v -29.0737267 0.30117774 -6.64597607
v 38.0967178 4.05895042 1.80285251
v 39.0362816 4.05895042 8.91009712E-15
v 39.0362816 -0.0895750523 8.54126086E-15
v 38.0967178 -0.0895750523 1.80285251
v 34.0112 4.05895042 5.91839266
v 34.0112 -0.0895750523 5.91839266
v 32.0671082 -0.0723785162 7.02137375
v 32.0671082 4.05895042 7.02137375
v 27.4670601 4.05895042 5.03474998
v 27.4627762 -0.0638940334 5.03978062
v 27.4670601 4.05895042 6.15873421E-15
v 27.4627781 -0.0638890266 6.19104682E-15
v 38.0967178 -0.0895750523 1.80285251
v 38.117588 -3.8409667 8.03466655E-15
v 37.1922607 -3.45812488 1.8225081
v 35.8289948 -5.84015274 7.88983746E-15
v 34.3134918 -2.46825242 4.93699884
v 32.0671082 -0.0723785162 7.02137375
v 35.4161263 -5.2936902 1.60233939
v 32.6477737 -7.09524584 6.69960456E-15
v 32.6477737 -6.57329798 1.22299337
v 33.8738518 -4.04900551 4.55461884
v 32.6477737 -4.73608208 3.57161832
v 38.0967178 4.05895042 -1.80285251
v 39.0362816 -0.0895750523 8.54126086E-15
v 39.0362816 4.05895042 8.91009712E-15
v 38.0967178 -0.0895750523 -1.80285251
v 34.0112114 4.05895042 -5.91839266
v 34.0112114 -0.0895750523 -5.91839266
v 32.0671082 -0.0723785162 -7.02136326
v 32.0671082 4.05895042 -7.02137375
v 27.4670601 4.05895042 -5.03474092
v 27.4627762 -0.0638940334 -5.03976917
v 27.4670601 4.05895042 6.15873421E-15
v 27.4627781 -0.0638890266 6.19104682E-15
v 38.0967178 -0.0895750523 -1.80285251
v 38.117588 -3.8409667 8.03466655E-15
v 37.1922607 -3.45812488 -1.8225081
v 35.8289948 -5.84015274 7.88983746E-15
v 34.3134918 -2.46825242 -4.93699884
v 32.0671082 -0.0723785162 -7.02136326
v 35.4161263 -5.2936902 -1.60233939
v 32.6477737 -7.09524584 6.69960456E-15
v 32.6477737 -6.57329798 -1.22298419
v 33.8738518 -4.04900551 -4.55461216
v 32.6477737 -4.73608208 -3.57160711
v 33.5316734 4.05895042 3.82298088
v 35.9738388 4.05895042 2.69059134
v 34.5941544 4.05895042 3.97270417
v 33.3444633 4.05895042 7.24521405E-15
v 35.9738693 4.05895042 -2.69058228
v 33.5316734 4.05895042 -3.82297087
v 34.5941544 4.05895042 -3.97269964
v 37.6164017 4.05895042 0.951864302
v 37.6164284 4.05895042 -0.951855183
v 38.013649 4.05895042 6.21904474E-06
v 22.5919285 2.78462172 -3.29295349
v 22.5919285 2.78462172 3.28453541
v 22.461216 -1.91240132 3.24746609
v 22.461216 -1.91240132 -3.25588942
v 28.9430294 2.78462172 6.60049629
v 28.9430294 2.78462172 -6.60891056
v 29.0737267 0.30117774 -6.64597607
v 29.0737267 0.30117774 6.63755989
v 28.9430294 2.78462172 -6.60891056
v 28.9430294 2.78462172 6.60049629
v 22.5919285 2.78462172 3.28453541
v 22.5919285 2.78462172 -3.29295349
v 29.0737267 0.30117774 6.63755989
v 22.461216 -1.91240132 3.24746609
v 22.5919285 2.78462172 3.28453541
v 28.9430294 2.78462172 6.60049629
v 22.461216 -1.91240132 -3.25588942
v 29.0737267 0.30117774 -6.64597607
v 28.9430294 2.78462172 -6.60891056
v 22.5919285 2.78462172 -3.29295349
v -1.80285251 4.05895042 -38.0967178
v -1.23264946E-16 -0.0895750523 -39.0362816
v -1.80687665E-16 4.05895042 -39.0362816
v -1.80285251 -0.0895750523 -38.0967178
v -5.91839266 4.05895042 -34.0112
v -5.91839266 -0.0895750523 -34.0112
v -7.02137375 -0.0723785162 -32.0671082
v -7.02137375 4.05895042 -32.0671082
v -5.03474998 4.05895042 -27.4670601
v -5.03978062 -0.0638940334 -27.4627762
v -1.31504525E-16 4.05895042 -27.4670601
v 2.59894643E-16 -0.0638890266 -27.4627781
v -1.80285251 -0.0895750523 -38.0967178
v 1.2539269E-17 -3.8409667 -38.117588
v -1.8225081 -3.45812488 -37.1922607
v 1.17175203E-16 -5.84015274 -35.8289948
v -4.93699884 -2.46825242 -34.3134918
v -7.02137375 -0.0723785162 -32.0671082
v -1.60233939 -5.2936902 -35.4161263
v 1.0290256E-15 -7.09524584 -32.6477737
v -1.22299337 -6.57329798 -32.6477737
v -4.55461884 -4.04900551 -33.8738518
v -3.57161832 -4.73608208 -32.6477737
v 1.80285251 4.05895042 -38.0967178
v -1.80687665E-16 4.05895042 -39.0362816
v -1.23264946E-16 -0.0895750523 -39.0362816
v 1.80285251 -0.0895750523 -38.0967178
v 5.91839266 4.05895042 -34.0112114
v 5.91839266 -0.0895750523 -34.0112114
v 7.02136326 -0.0723785162 -32.0671082
v 7.02137375 4.05895042 -32.0671082
v 5.03474092 4.05895042 -27.4670601
v 5.03976917 -0.0638940334 -27.4627762
v -1.31504525E-16 4.05895042 -27.4670601
v 2.59894643E-16 -0.0638890266 -27.4627781
v 1.80285251 -0.0895750523 -38.0967178
v 1.2539269E-17 -3.8409667 -38.117588
v 1.8225081 -3.45812488 -37.1922607
v 1.17175203E-16 -5.84015274 -35.8289948
v 4.93699884 -2.46825242 -34.3134918
v 7.02136326 -0.0723785162 -32.0671082
v 1.60233939 -5.2936902 -35.4161263
v 1.0290256E-15 -7.09524584 -32.6477737
v 1.22298419 -6.57329798 -32.6477737
v 4.55461216 -4.04900551 -33.8738518
v 3.57160711 -4.73608208 -32.6477737
v -3.82298088 4.05895042 -33.5316734
v -3.97270417 4.05895042 -34.5941544
v -2.69059134 4.05895042 -35.9738388
v 2.5517473E-17 4.05895042 -33.3444633
v 2.69058228 4.05895042 -35.9738693
v 3.82297087 4.05895042 -33.5316734
v 3.97269964 4.05895042 -34.5941544
v -0.951864302 4.05895042 -37.6164017
v 0.951855183 4.05895042 -37.6164284
v -6.21904474E-06 4.05895042 -38.013649
v 3.29295349 2.78462172 -22.5919285
v 3.25588942 -1.91240132 -22.461216
v -3.24746609 -1.91240132 -22.461216
v -3.28453541 2.78462172 -22.5919285
v -6.60049629 2.78462172 -28.9430294
v -6.63755989 0.30117774 -29.0737267
v 6.64597607 0.30117774 -29.0737267
v 6.60891056 2.78462172 -28.9430294
v 6.60891056 2.78462172 -28.9430294
v 3.29295349 2.78462172 -22.5919285
v -3.28453541 2.78462172 -22.5919285
v -6.60049629 2.78462172 -28.9430294
v -6.63755989 0.30117774 -29.0737267
v -6.60049629 2.78462172 -28.9430294
v -3.28453541 2.78462172 -22.5919285
v -3.24746609 -1.91240132 -22.461216
v 3.25588942 -1.91240132 -22.461216
v 3.29295349 2.78462172 -22.5919285
v 6.60891056 2.78462172 -28.9430294
v 6.64597607 0.30117774 -29.0737267
v -1.80285251 4.05895042 38.0967178
v -2.42301821E-16 4.05895042 39.0362816
v 1.26535234E-16 -0.0895750523 39.0362816
v -1.80285251 -0.0895750523 38.0967178
v -5.91839266 4.05895042 34.0112
v -5.91839266 -0.0895750523 34.0112
v -7.02137375 -0.0723785162 32.0671082
v -7.02137375 4.05895042 32.0671082
v -5.03474998 4.05895042 27.4670601
v -5.03978062 -0.0638940334 27.4627762
v -5.98216423E-17 4.05895042 27.4670601
v -9.30852945E-17 -0.0638890266 27.4627781
v -1.80285251 -0.0895750523 38.0967178
v 4.29138337E-16 -3.8409667 38.117588
v -1.8225081 -3.45812488 37.1922607
v 6.57971752E-17 -5.84015274 35.8289948
v -4.93699884 -2.46825242 34.3134918
v -7.02137375 -0.0723785162 32.0671082
v -1.60233939 -5.2936902 35.4161263
v 5.49657679E-16 -7.09524584 32.6477737
v -1.22299337 -6.57329798 32.6477737
v -4.55461884 -4.04900551 33.8738518
v -3.57161832 -4.73608208 32.6477737
v 1.80285251 4.05895042 38.0967178
v 1.26535234E-16 -0.0895750523 39.0362816
v -2.42301821E-16 4.05895042 39.0362816
v 1.80285251 -0.0895750523 38.0967178
v 5.91839266 4.05895042 34.0112114
v 5.91839266 -0.0895750523 34.0112114
v 7.02136326 -0.0723785162 32.0671082
v 7.02137375 4.05895042 32.0671082
v 5.03474092 4.05895042 27.4670601
v 5.03976917 -0.0638940334 27.4627762
v -5.98216423E-17 4.05895042 27.4670601
v -9.30852945E-17 -0.0638890266 27.4627781
v 1.80285251 -0.0895750523 38.0967178
v 4.29138337E-16 -3.8409667 38.117588
v 1.8225081 -3.45812488 37.1922607
v 6.57971752E-17 -5.84015274 35.8289948
v 4.93699884 -2.46825242 34.3134918
v 7.02136326 -0.0723785162 32.0671082
v 1.60233939 -5.2936902 35.4161263
v 5.49657679E-16 -7.09524584 32.6477737
v 1.22298419 -6.57329798 32.6477737
v 4.55461216 -4.04900551 33.8738518
v 3.57160711 -4.73608208 32.6477737
v -3.82298088 4.05895042 33.5316734
v -2.69059134 4.05895042 35.9738388
v -3.97270417 4.05895042 34.5941544
v 1.58744245E-16 4.05895042 33.3444633
v 2.69058228 4.05895042 35.9738693
v 3.82297087 4.05895042 33.5316734
v 3.97269964 4.05895042 34.5941544
v -0.951864302 4.05895042 37.6164017
v 0.951855183 4.05895042 37.6164284
v -6.21904474E-06 4.05895042 38.013649
v 3.29295349 2.78462172 22.5919285
v -3.28453541 2.78462172 22.5919285
v -3.24746609 -1.91240132 22.461216
v 3.25588942 -1.91240132 22.461216
v -6.60049629 2.78462172 28.9430294
v 6.60891056 2.78462172 28.9430294
v 6.64597607 0.30117774 29.0737267
v -6.63755989 0.30117774 29.0737267
v 6.60891056 2.78462172 28.9430294
v -6.60049629 2.78462172 28.9430294
v -3.28453541 2.78462172 22.5919285
v 3.29295349 2.78462172 22.5919285
v -6.63755989 0.30117774 29.0737267
v -3.24746609 -1.91240132 22.461216
v -3.28453541 2.78462172 22.5919285
v -6.60049629 2.78462172 28.9430294
v 3.25588942 -1.91240132 22.461216
v 6.64597607 0.30117774 29.0737267
v 6.60891056 2.78462172 28.9430294
v 3.29295349 2.78462172 22.5919285
v 3.82297087 4.05895042 33.5316734
v 5.03474092 4.05895042 27.4670601
v 7.02137375 4.05895042 32.0671082
v -5.98216423E-17 4.05895042 27.4670601
v 5.91839266 4.05895042 34.0112114
v 1.58744245E-16 4.05895042 33.3444633
v 3.97269964 4.05895042 34.5941544
v 2.69058228 4.05895042 35.9738693
v -3.82298088 4.05895042 33.5316734
v 1.80285251 4.05895042 38.0967178
v 0.951855183 4.05895042 37.6164284
v -5.03474998 4.05895042 27.4670601
v -7.02137375 4.05895042 32.0671082
v -6.21904474E-06 4.05895042 38.013649
v -2.42301821E-16 4.05895042 39.0362816
v -5.91839266 4.05895042 34.0112
v -3.97270417 4.05895042 34.5941544
v -2.69059134 4.05895042 35.9738388
v -1.80285251 4.05895042 38.0967178
v -0.951864302 4.05895042 37.6164017
v 3.82297087 4.05895042 -33.5316734
v 7.02137375 4.05895042 -32.0671082
v 5.03474092 4.05895042 -27.4670601
v -1.31504525E-16 4.05895042 -27.4670601
v 5.91839266 4.05895042 -34.0112114
v 2.5517473E-17 4.05895042 -33.3444633
v 3.97269964 4.05895042 -34.5941544
v 2.69058228 4.05895042 -35.9738693
v -3.82298088 4.05895042 -33.5316734
v 1.80285251 4.05895042 -38.0967178
v 0.951855183 4.05895042 -37.6164284
v -5.03474998 4.05895042 -27.4670601
v -7.02137375 4.05895042 -32.0671082
v -6.21904474E-06 4.05895042 -38.013649
v -1.80687665E-16 4.05895042 -39.0362816
v -5.91839266 4.05895042 -34.0112
v -3.97270417 4.05895042 -34.5941544
v -2.69059134 4.05895042 -35.9738388
v -1.80285251 4.05895042 -38.0967178
v -0.951864302 4.05895042 -37.6164017
v 33.5316734 4.05895042 -3.82297087
v 27.4670601 4.05895042 -5.03474092
v 32.0671082 4.05895042 -7.02137375
v 27.4670601 4.05895042 6.15873421E-15
v 34.0112114 4.05895042 -5.91839266
v 33.3444633 4.05895042 7.24521405E-15
v 34.5941544 4.05895042 -3.97269964
v 35.9738693 4.05895042 -2.69058228
v 33.5316734 4.05895042 3.82298088
v 38.0967178 4.05895042 -1.80285251
v 37.6164284 4.05895042 -0.951855183
v 27.4670601 4.05895042 5.03474998
v 32.0671082 4.05895042 7.02137375
v 38.013649 4.05895042 6.21904474E-06
v 39.0362816 4.05895042 8.91009712E-15
v 34.0112 4.05895042 5.91839266
v 34.5941544 4.05895042 3.97270417
v 35.9738388 4.05895042 2.69059134
v 38.0967178 4.05895042 1.80285251
v 37.6164017 4.05895042 0.951864302
v -33.5316734 4.05895042 -3.82297087
v -32.0671082 4.05895042 -7.02137375
v -27.4670601 4.05895042 -5.03474092
v -27.4670601 4.05895042 -5.9674081E-15
v -34.0112114 4.05895042 -5.91839266
v -33.3444633 4.05895042 -7.42947591E-15
v -34.5941544 4.05895042 -3.97269964
v -35.9738693 4.05895042 -2.69058228
v -33.5316734 4.05895042 3.82298088
v -38.0967178 4.05895042 -1.80285251
v -37.6164284 4.05895042 -0.951855183
v -27.4670601 4.05895042 5.03474998
v -32.0671082 4.05895042 7.02137375
v -38.013649 4.05895042 6.21904474E-06
v -39.0362816 4.05895042 -8.48710835E-15
v -34.0112 4.05895042 5.91839266
v -34.5941544 4.05895042 3.97270417
v -35.9738388 4.05895042 2.69059134
v -38.0967178 4.05895042 1.80285251
v -37.6164017 4.05895042 0.951864302
v -27.8642998 1.09675097 0
v -0 1.09675097 0
v 1.27015163E-15 1.09675097 27.8642998
v 1.27015163E-15 1.09675097 -27.8642998
v 27.8642998 1.09675097 0
v -16.4917755 2.48011303 12.295085
v -16.2660122 6.58598089 15.360445
v -16.4379444 6.88692904 15.1902199
v -16.3491173 2.70022011 12.8422766
v -15.9404392 6.79432249 15.8144035
v -12.4206438 2.48011303 16.3626595
v -15.9792805 7.20497847 15.8532925
v -12.9679527 2.70022011 16.2204819
v -15.4861994 6.58598089 16.1395798
v -15.3158302 6.88692904 16.3113708
v 16.4917755 2.48011303 12.295085
v 16.4379444 6.88692904 15.1902199
v 16.2660122 6.58598089 15.360445
v 16.3491173 2.70022011 12.8422766
v 15.9404392 6.79432249 15.8144035
v 12.4206438 2.48011303 16.3626595
v 15.9792805 7.20497847 15.8532925
v 12.9679527 2.70022011 16.2204819
v 15.4861994 6.58598089 16.1395798
v 15.3158302 6.88692904 16.3113708
v -16.269352 2.3703804 -12.39958
v -16.2155209 6.77719641 -15.2947149
v -16.0435886 6.47624826 -15.4649401
v -16.1266937 2.59048748 -12.9467716
v -15.7180157 6.68458986 -15.9188986
v -12.1982203 2.3703804 -16.4671555
v -15.7568569 7.09524584 -15.9577875
v -12.7455292 2.59048748 -16.3249779
v -15.2637758 6.47624826 -16.2440758
v -15.0934067 6.77719641 -16.4158649
v 16.269352 2.3703804 -12.39958
v 16.0435886 6.47624826 -15.4649401
v 16.2155209 6.77719641 -15.2947149
v 16.1266937 2.59048748 -12.9467716
v 15.7180157 6.68458986 -15.9188986
v 12.1982203 2.3703804 -16.4671555
v 15.7568569 7.09524584 -15.9577875
v 12.7455292 2.59048748 -16.3249779
v 15.2637758 6.47624826 -16.2440758
v 15.0934067 6.77719641 -16.4158649
vt 0.993164062 0.177490234
vt 0.993164062 0.0877685547
vt 0.916992188 0.119934082
vt 0.916992188 0.14465332
vt 0.908691406 0.122436523
vt 0.908691406 0.141967773
vt 0.908691406 0.122497559
vt 0.908691406 0.141967773
vt 0.916992188 0.14465332
vt 0.916992188 0.119934082
vt 0.993164062 0.0877685547
vt 0.993164062 0.177490234
vt 0.954589844 0.0905761719
vt 0.929199219 0.0905761719
vt 0.941894531 0.0955200195
vt 0.8984375 0.012840271
vt 0.987792969 0.0128097534
vt 0.8125 0.140380859
vt 0.795898438 0.134155273
vt 0.828613281 0.134155273
vt 0.876953125 0.0185699463
vt 0.748046875 0.0185699463
vt 0.993164062 0.177490234
vt 0.916992188 0.119934082
vt 0.993164062 0.0877685547
vt 0.916992188 0.14465332
vt 0.908691406 0.122436523
vt 0.908691406 0.141967773
vt 0.908691406 0.122497559
vt 0.916992188 0.14465332
vt 0.908691406 0.141967773
vt 0.916992188 0.119934082
vt 0.993164062 0.0877685547
vt 0.993164062 0.177490234
vt 0.954589844 0.0905761719
vt 0.941894531 0.0955200195
vt 0.929199219 0.0905761719
vt 0.8984375 0.012840271
vt 0.987792969 0.0128097534
vt 0.8125 0.140380859
vt 0.828613281 0.134155273
vt 0.795898438 0.134155273
vt 0.876953125 0.0185699463
vt 0.748046875 0.0185699463
vt 0.993164062 0.177490234
vt 0.916992188 0.119934082
vt 0.993164062 0.0877685547
vt 0.916992188 0.14465332
vt 0.908691406 0.122436523
vt 0.908691406 0.141967773
vt 0.908691406 0.122497559
vt 0.916992188 0.14465332
vt 0.908691406 0.141967773
vt 0.916992188 0.119934082
vt 0.993164062 0.0877685547
vt 0.993164062 0.177490234
vt 0.954589844 0.0905761719
vt 0.941894531 0.0955200195
vt 0.929199219 0.0905761719
vt 0.8984375 0.012840271
vt 0.987792969 0.0128097534
vt 0.8125 0.140380859
vt 0.828613281 0.134155273
vt 0.795898438 0.134155273
vt 0.876953125 0.0185699463
vt 0.748046875 0.0185699463
vt 0.993164062 0.177490234
vt 0.993164062 0.0877685547
vt 0.916992188 0.119934082
vt 0.916992188 0.14465332
vt 0.908691406 0.122436523
vt 0.908691406 0.141967773
vt 0.908691406 0.122497559
vt 0.908691406 0.141967773
vt 0.916992188 0.14465332
vt 0.916992188 0.119934082
vt 0.993164062 0.0877685547
vt 0.993164062 0.177490234
vt 0.954589844 0.0905761719
vt 0.929199219 0.0905761719
vt 0.941894531 0.0955200195
vt 0.8984375 0.012840271
vt 0.987792969 0.0128097534
vt 0.8125 0.140380859
vt 0.795898438 0.134155273
vt 0.828613281 0.134155273
vt 0.876953125 0.0185699463
vt 0.748046875 0.0185699463
vt 0.561035156 0.0724487305
vt 0.561035156 0.0103988647
vt 0.117370605 0.0103988647
vt 0.117370605 0.0724487305
vt 0.398681641 0.0850219727
vt 0.398681641 0.174072266
vt 0.0156555176 0.0850219727
vt 0.112731934 0.467773438
vt 0.0156555176 0.467773438
vt 0.0128631592 0.0724487305
vt 0.117370605 0.0724487305
vt 0.117370605 0.0103988647
vt 0.0128631592 0.0103988647
vt 0.561035156 0.0724487305
vt 0.639160156 0.0724487305
vt 0.639160156 0.0103988647
vt 0.561035156 0.0103988647
vt 0.561035156 0.0724487305
vt 0.117370605 0.0724487305
vt 0.117370605 0.0103988647
vt 0.561035156 0.0103988647
vt 0.398681641 0.0850219727
vt 0.0156555176 0.0850219727
vt 0.398681641 0.171508789
vt 0.112731934 0.467773438
vt 0.0156555176 0.467773438
vt 0.0128631592 0.0724487305
vt 0.0128631592 0.0103988647
vt 0.117370605 0.0103988647
vt 0.117370605 0.0724487305
vt 0.561035156 0.0724487305
vt 0.561035156 0.0103988647
vt 0.639160156 0.0103988647
vt 0.639160156 0.0724487305
vt 0.561035156 0.0724487305
vt 0.117370605 0.0724487305
vt 0.117370605 0.0103988647
vt 0.561035156 0.0103988647
vt 0.398681641 0.0850219727
vt 0.0156555176 0.0850219727
vt 0.398681641 0.171508789
vt 0.112731934 0.467773438
vt 0.0156555176 0.467773438
vt 0.0128631592 0.0724487305
vt 0.0128631592 0.0103988647
vt 0.117370605 0.0103988647
vt 0.117370605 0.0724487305
vt 0.561035156 0.0724487305
vt 0.561035156 0.0103988647
vt 0.639160156 0.0103988647
vt 0.639160156 0.0724487305
vt 0.561035156 0.0724487305
vt 0.561035156 0.0103988647
vt 0.117370605 0.0103988647
vt 0.117370605 0.0724487305
vt 0.398681641 0.0850219727
vt 0.398681641 0.171508789
vt 0.0156555176 0.0850219727
vt 0.112731934 0.467773438
vt 0.0156555176 0.467773438
vt 0.0128631592 0.0724487305
vt 0.117370605 0.0724487305
vt 0.117370605 0.0103988647
vt 0.0128631592 0.0103988647
vt 0.561035156 0.0724487305
vt 0.639160156 0.0724487305
vt 0.639160156 0.0103988647
vt 0.561035156 0.0103988647
vt 0.325195312 0.765136719
vt 0.325195312 0.853027344
vt 0.991210938 0.853027344
vt 0.991210938 0.764160156
vt 0.325195312 0.765136719
vt 0.325195312 0.853027344
vt 0.991210938 0.853027344
vt 0.991210938 0.764160156
vt 0.907226562 0.937011719
vt 0.991210938 0.853027344
vt 0.325195312 0.853027344
vt 0.409423828 0.937011719
vt 0.907226562 0.937011719
vt 0.991210938 0.853027344
vt 0.325195312 0.853027344
vt 0.409423828 0.937011719
vt 0.409423828 0.937011719
vt 0.409423828 0.968261719
vt 0.907226562 0.967773438
vt 0.907226562 0.937011719
vt 0.409423828 0.937011719
vt 0.409423828 0.968261719
vt 0.907226562 0.967773438
vt 0.907226562 0.937011719
vt 0.325195312 0.765136719
vt 0.991210938 0.764160156
vt 0.991210938 0.853027344
vt 0.325195312 0.853027344
vt 0.325195312 0.765136719
vt 0.991210938 0.764160156
vt 0.991210938 0.853027344
vt 0.325195312 0.853027344
vt 0.907226562 0.937011719
vt 0.409423828 0.937011719
vt 0.325195312 0.853027344
vt 0.991210938 0.853027344
vt 0.907226562 0.937011719
vt 0.409423828 0.937011719
vt 0.325195312 0.853027344
vt 0.991210938 0.853027344
vt 0.409423828 0.937011719
vt 0.907226562 0.937011719
vt 0.907226562 0.967773438
vt 0.409423828 0.968261719
vt 0.409423828 0.937011719
vt 0.907226562 0.937011719
vt 0.907226562 0.967773438
vt 0.409423828 0.968261719
vt 0.387695312 0.571777344
vt 0.41015625 0.514648438
vt 0.41015625 0.571777344
vt 0.387695312 0.514648438
vt 0.30859375 0.571777344
vt 0.30859375 0.514648438
vt 0.267578125 0.514648438
vt 0.267578125 0.571777344
vt 0.184082031 0.571777344
vt 0.184082031 0.514648438
vt 0.122436523 0.571777344
vt 0.122436523 0.514648438
vt 0.387207031 0.514648438
vt 0.41015625 0.456298828
vt 0.387207031 0.458984375
vt 0.41015625 0.416259766
vt 0.319335938 0.461181641
vt 0.267578125 0.514648438
vt 0.3828125 0.420410156
vt 0.41015625 0.357421875
vt 0.372558594 0.364746094
vt 0.318115234 0.428710938
vt 0.318359375 0.393798828
vt 0.387451172 0.571777344
vt 0.41015625 0.571777344
vt 0.41015625 0.514648438
vt 0.387451172 0.514648438
vt 0.30859375 0.571777344
vt 0.30859375 0.514648438
vt 0.267578125 0.514648438
vt 0.267578125 0.571777344
vt 0.183837891 0.571777344
vt 0.183837891 0.514648438
vt 0.122436523 0.571777344
vt 0.122436523 0.514648438
vt 0.387207031 0.514648438
vt 0.41015625 0.456298828
vt 0.387207031 0.458984375
vt 0.41015625 0.416259766
vt 0.319335938 0.461181641
vt 0.267578125 0.514648438
vt 0.383056641 0.420410156
vt 0.41015625 0.357421875
vt 0.372802734 0.364746094
vt 0.318359375 0.428710938
vt 0.318603516 0.393798828
vt 0.237060547 0.7421875
vt 0.229370117 0.718261719
vt 0.258789062 0.686523438
vt 0.322021484 0.744628906
vt 0.387939453 0.686035156
vt 0.409912109 0.7421875
vt 0.417480469 0.717773438
vt 0.297851562 0.645019531
vt 0.346191406 0.645019531
vt 0.322021484 0.634765625
vt 0.0797119141 0.665527344
vt 0.0800170898 0.686035156
vt 0.145996094 0.686035156
vt 0.146362305 0.665527344
vt 0.179077148 0.610351562
vt 0.17956543 0.600097656
vt 0.0465087891 0.600097656
vt 0.0469360352 0.610351562
vt 0.0469360352 0.610351562
vt 0.0797119141 0.665527344
vt 0.146362305 0.665527344
vt 0.179077148 0.610351562
vt 0.261962891 0.621582031
vt 0.259765625 0.599121094
vt 0.196044922 0.599609375
vt 0.193725586 0.642578125
vt 0.193725586 0.642578125
vt 0.196044922 0.599121094
vt 0.259765625 0.599121094
vt 0.261962891 0.621582031
vt 0.387695312 0.571777344
vt 0.41015625 0.571777344
vt 0.41015625 0.514648438
vt 0.387695312 0.514648438
vt 0.30859375 0.571777344
vt 0.30859375 0.514648438
vt 0.267578125 0.514648438
vt 0.267578125 0.571777344
vt 0.184082031 0.571777344
vt 0.184082031 0.514648438
vt 0.122436523 0.571777344
vt 0.122436523 0.514648438
vt 0.387207031 0.514648438
vt 0.41015625 0.456298828
vt 0.387207031 0.458984375
vt 0.41015625 0.416259766
vt 0.319335938 0.461181641
vt 0.267578125 0.514648438
vt 0.3828125 0.420410156
vt 0.41015625 0.357421875
vt 0.372558594 0.364746094
vt 0.318115234 0.428710938
vt 0.318359375 0.393798828
vt 0.387451172 0.571777344
vt 0.41015625 0.514648438
vt 0.41015625 0.571777344
vt 0.387451172 0.514648438
vt 0.30859375 0.571777344
vt 0.30859375 0.514648438
vt 0.267578125 0.514648438
vt 0.267578125 0.571777344
vt 0.183837891 0.571777344
vt 0.183837891 0.514648438
vt 0.122436523 0.571777344
vt 0.122436523 0.514648438
vt 0.387207031 0.514648438
vt 0.41015625 0.456298828
vt 0.387207031 0.458984375
vt 0.41015625 0.416259766
vt 0.319335938 0.461181641
vt 0.267578125 0.514648438
vt 0.383056641 0.420410156
vt 0.41015625 0.357421875
vt 0.372802734 0.364746094
vt 0.318359375 0.428710938
vt 0.318603516 0.393798828
vt 0.237060547 0.7421875
vt 0.258789062 0.686523438
vt 0.229370117 0.718261719
vt 0.322021484 0.744628906
vt 0.387939453 0.686035156
vt 0.409912109 0.7421875
vt 0.417480469 0.717773438
vt 0.297851562 0.645019531
vt 0.346191406 0.645019531
vt 0.322021484 0.634765625
vt 0.0797119141 0.665527344
vt 0.146362305 0.665527344
vt 0.145996094 0.686035156
vt 0.0800170898 0.686035156
vt 0.179077148 0.610351562
vt 0.0469360352 0.610351562
vt 0.0465087891 0.600097656
vt 0.17956543 0.600097656
vt 0.0469360352 0.610351562
vt 0.179077148 0.610351562
vt 0.146362305 0.665527344
vt 0.0797119141 0.665527344
vt 0.261962891 0.621582031
vt 0.193725586 0.642578125
vt 0.196044922 0.599609375
vt 0.259765625 0.599121094
vt 0.193725586 0.642578125
vt 0.261962891 0.621582031
vt 0.259765625 0.599121094
vt 0.196044922 0.599121094
vt 0.387695312 0.571777344
vt 0.41015625 0.514648438
vt 0.41015625 0.571777344
vt 0.387695312 0.514648438
vt 0.30859375 0.571777344
vt 0.30859375 0.514648438
vt 0.267578125 0.514648438
vt 0.267578125 0.571777344
vt 0.184082031 0.571777344
vt 0.184082031 0.514648438
vt 0.122436523 0.571777344
vt 0.122436523 0.514648438
vt 0.387207031 0.514648438
vt 0.41015625 0.456298828
vt 0.387207031 0.458984375
vt 0.41015625 0.416259766
vt 0.319335938 0.461181641
vt 0.267578125 0.514648438
vt 0.3828125 0.420410156
vt 0.41015625 0.357421875
vt 0.372558594 0.364746094
vt 0.318115234 0.428710938
vt 0.318359375 0.393798828
vt 0.387451172 0.571777344
vt 0.41015625 0.571777344
vt 0.41015625 0.514648438
vt 0.387451172 0.514648438
vt 0.30859375 0.571777344
vt 0.30859375 0.514648438
vt 0.267578125 0.514648438
vt 0.267578125 0.571777344
vt 0.183837891 0.571777344
vt 0.183837891 0.514648438
vt 0.122436523 0.571777344
vt 0.122436523 0.514648438
vt 0.387207031 0.514648438
vt 0.41015625 0.456298828
vt 0.387207031 0.458984375
vt 0.41015625 0.416259766
vt 0.319335938 0.461181641
vt 0.267578125 0.514648438
vt 0.383056641 0.420410156
vt 0.41015625 0.357421875
vt 0.372802734 0.364746094
vt 0.318359375 0.428710938
vt 0.318603516 0.393798828
vt 0.237060547 0.7421875
vt 0.229370117 0.718261719
vt 0.258789062 0.686523438
vt 0.322021484 0.744628906
vt 0.387939453 0.686035156
vt 0.409912109 0.7421875
vt 0.417480469 0.717773438
vt 0.297851562 0.645019531
vt 0.346191406 0.645019531
vt 0.322021484 0.634765625
vt 0.0797119141 0.665527344
vt 0.0800170898 0.686035156
vt 0.145996094 0.686035156
vt 0.146362305 0.665527344
vt 0.179077148 0.610351562
vt 0.17956543 0.600097656
vt 0.0465087891 0.600097656
vt 0.0469360352 0.610351562
vt 0.0469360352 0.610351562
vt 0.0797119141 0.665527344
vt 0.146362305 0.665527344
vt 0.179077148 0.610351562
vt 0.261962891 0.621582031
vt 0.259765625 0.599121094
vt 0.196044922 0.599609375
vt 0.193725586 0.642578125
vt 0.193725586 0.642578125
vt 0.196044922 0.599121094
vt 0.259765625 0.599121094
vt 0.261962891 0.621582031
vt 0.387695312 0.571777344
vt 0.41015625 0.571777344
vt 0.41015625 0.514648438
vt 0.387695312 0.514648438
vt 0.30859375 0.571777344
vt 0.30859375 0.514648438
vt 0.267578125 0.514648438
vt 0.267578125 0.571777344
vt 0.184082031 0.571777344
vt 0.184082031 0.514648438
vt 0.122436523 0.571777344
vt 0.122436523 0.514648438
vt 0.387207031 0.514648438
vt 0.41015625 0.456298828
vt 0.387207031 0.458984375
vt 0.41015625 0.416259766
vt 0.319335938 0.461181641
vt 0.267578125 0.514648438
vt 0.3828125 0.420410156
vt 0.41015625 0.357421875
vt 0.372558594 0.364746094
vt 0.318115234 0.428710938
vt 0.318359375 0.393798828
vt 0.387451172 0.571777344
vt 0.41015625 0.514648438
vt 0.41015625 0.571777344
vt 0.387451172 0.514648438
vt 0.30859375 0.571777344
vt 0.30859375 0.514648438
vt 0.267578125 0.514648438
vt 0.267578125 0.571777344
vt 0.183837891 0.571777344
vt 0.183837891 0.514648438
vt 0.122436523 0.571777344
vt 0.122436523 0.514648438
vt 0.387207031 0.514648438
vt 0.41015625 0.456298828
vt 0.387207031 0.458984375
vt 0.41015625 0.416259766
vt 0.319335938 0.461181641
vt 0.267578125 0.514648438
vt 0.383056641 0.420410156
vt 0.41015625 0.357421875
vt 0.372802734 0.364746094
vt 0.318359375 0.428710938
vt 0.318603516 0.393798828
vt 0.237060547 0.7421875
vt 0.258789062 0.686523438
vt 0.229370117 0.718261719
vt 0.322021484 0.744628906
vt 0.387939453 0.686035156
vt 0.409912109 0.7421875
vt 0.417480469 0.717773438
vt 0.297851562 0.645019531
vt 0.346191406 0.645019531
vt 0.322021484 0.634765625
vt 0.0797119141 0.665527344
vt 0.146362305 0.665527344
vt 0.145996094 0.686035156
vt 0.0800170898 0.686035156
vt 0.179077148 0.610351562
vt 0.0469360352 0.610351562
vt 0.0465087891 0.600097656
vt 0.17956543 0.600097656
vt 0.0469360352 0.610351562
vt 0.179077148 0.610351562
vt 0.146362305 0.665527344
vt 0.0797119141 0.665527344
vt 0.261962891 0.621582031
vt 0.193725586 0.642578125
vt 0.196044922 0.599609375
vt 0.259765625 0.599121094
vt 0.193725586 0.642578125
vt 0.261962891 0.621582031
vt 0.259765625 0.599121094
vt 0.196044922 0.599121094
vt 0.0739746094 0.807617188
vt 0.049987793 0.927734375
vt 0.0106277466 0.836914062
vt 0.149780273 0.927734375
vt 0.0324707031 0.798339844
vt 0.149780273 0.811523438
vt 0.0710449219 0.786621094
vt 0.0964355469 0.759277344
vt 0.225463867 0.807617188
vt 0.114013672 0.717285156
vt 0.130859375 0.7265625
vt 0.249511719 0.927734375
vt 0.288818359 0.836914062
vt 0.149780273 0.71875
vt 0.149780273 0.701171875
vt 0.267089844 0.798339844
vt 0.228515625 0.786621094
vt 0.20300293 0.759277344
vt 0.185424805 0.717285156
vt 0.168579102 0.7265625
vt 0.0739746094 0.807617188
vt 0.0106277466 0.836914062
vt 0.049987793 0.927734375
vt 0.149780273 0.927734375
vt 0.0324707031 0.798339844
vt 0.149780273 0.811523438
vt 0.0710449219 0.786621094
vt 0.0964355469 0.759277344
vt 0.225463867 0.807617188
vt 0.114013672 0.717285156
vt 0.130859375 0.7265625
vt 0.249511719 0.927734375
vt 0.288818359 0.836914062
vt 0.149780273 0.71875
vt 0.149780273 0.701171875
vt 0.267089844 0.798339844
vt 0.228515625 0.786621094
vt 0.20300293 0.759277344
vt 0.185424805 0.717285156
vt 0.168579102 0.7265625
vt 0.0739746094 0.807617188
vt 0.049987793 0.927734375
vt 0.0106277466 0.836914062
vt 0.149780273 0.927734375
vt 0.0324707031 0.798339844
vt 0.149780273 0.811523438
vt 0.0710449219 0.786621094
vt 0.0964355469 0.759277344
vt 0.225463867 0.807617188
vt 0.114013672 0.717285156
vt 0.130859375 0.7265625
vt 0.249511719 0.927734375
vt 0.288818359 0.836914062
vt 0.149780273 0.71875
vt 0.149780273 0.701171875
vt 0.267089844 0.798339844
vt 0.228515625 0.786621094
vt 0.20300293 0.759277344
vt 0.185424805 0.717285156
vt 0.168579102 0.7265625
vt 0.0739746094 0.807617188
vt 0.0106277466 0.836914062
vt 0.049987793 0.927734375
vt 0.149780273 0.927734375
vt 0.0324707031 0.798339844
vt 0.149780273 0.811523438
vt 0.0710449219 0.786621094
vt 0.0964355469 0.759277344
vt 0.225463867 0.807617188
vt 0.114013672 0.717285156
vt 0.130859375 0.7265625
vt 0.249511719 0.927734375
vt 0.288818359 0.836914062
vt 0.149780273 0.71875
vt 0.149780273 0.701171875
vt 0.267089844 0.798339844
vt 0.228515625 0.786621094
vt 0.20300293 0.759277344
vt 0.185424805 0.717285156
vt 0.168579102 0.7265625
vt 0.981933594 0.192749023
vt 0.70703125 0.467529297
vt 0.432373047 0.192749023
vt 0.981933594 0.7421875
vt 0.432373047 0.7421875
vt 0.638671875 0.145507812
vt 0.693359375 0.0361938477
vt 0.687011719 0.0286560059
vt 0.655273438 0.135253906
vt 0.707519531 0.0324707031
vt 0.776367188 0.145507812
vt 0.707519531 0.0208587646
vt 0.759765625 0.135253906
vt 0.721679688 0.0361938477
vt 0.728027344 0.0286407471
vt 0.638671875 0.145507812
vt 0.687011719 0.0286560059
vt 0.693359375 0.0361938477
vt 0.655273438 0.135253906
vt 0.707519531 0.0324707031
vt 0.776367188 0.145507812
vt 0.707519531 0.0208587646
vt 0.759765625 0.135253906
vt 0.721679688 0.0361938477
vt 0.728027344 0.0286407471
vt 0.638671875 0.145507812
vt 0.687011719 0.0286560059
vt 0.693359375 0.0361938477
vt 0.655273438 0.135253906
vt 0.707519531 0.0324707031
vt 0.776367188 0.145507812
vt 0.707519531 0.0208587646
vt 0.759765625 0.135253906
vt 0.721679688 0.0361938477
vt 0.728027344 0.0286407471
vt 0.638671875 0.145507812
vt 0.693359375 0.0361938477
vt 0.687011719 0.0286560059
vt 0.655273438 0.135253906
vt 0.707519531 0.0324707031
vt 0.776367188 0.145507812
vt 0.707519531 0.0208587646
vt 0.759765625 0.135253906
vt 0.721679688 0.0361938477
vt 0.728027344 0.0286407471
vn 0.639648438 0.427490234 0.639160156
vn 0.639648438 0.427490234 0.639160156
vn 0.629394531 0.457275391 0.628417969
vn 0.72265625 0.514648438 0.461181641
vn -0 1 0
vn 0.0956420898 0.990722656 -0.095703125
vn 0.0956420898 0.990722656 -0.095703125
vn -0 1 0
vn -0.629394531 0.457275391 -0.628417969
vn -0.247558594 0.555175781 -0.794433594
vn -0.639648438 0.427490234 -0.639160156
vn -0.639648438 0.427490234 -0.639160156
vn -0.247558594 0.555175781 -0.794433594
vn 0.72265625 0.514648438 0.461181641
vn 0.0956420898 0.990722656 -0.095703125
vn 0.643066406 0.414794922 -0.643554688
vn 0.643066406 0.414794922 -0.643554688
vn -0.694824219 0.183349609 0.6953125
vn -0.686523438 0.382080078 0.618164062
vn -0.617675781 0.382080078 0.6875
vn -0.645996094 0.405273438 0.646484375
vn -0.645996094 0.405273438 0.646484375
vn -0.639648438 0.427490234 0.639160156
vn -0.629394531 0.457275391 0.628417969
vn -0.639648438 0.427490234 0.639160156
vn -0.72265625 0.514648438 0.461181641
vn -0 1 0
vn -0.0956420898 0.990722656 -0.095703125
vn -0.0956420898 0.990722656 -0.095703125
vn 0.629394531 0.457275391 -0.628417969
vn -0 1 0
vn 0.247558594 0.555175781 -0.794433594
vn 0.639648438 0.427490234 -0.639160156
vn 0.639648438 0.427490234 -0.639160156
vn 0.247558594 0.555175781 -0.794433594
vn -0.0956420898 0.990722656 -0.095703125
vn -0.72265625 0.514648438 0.461181641
vn -0.643066406 0.414794922 -0.643554688
vn -0.643066406 0.414794922 -0.643554688
vn 0.694824219 0.183349609 0.6953125
vn 0.617675781 0.382080078 0.6875
vn 0.686523438 0.382080078 0.618164062
vn 0.645996094 0.405273438 0.646484375
vn 0.645996094 0.405273438 0.646484375
vn 0.639648438 0.427490234 -0.639160156
vn 0.629394531 0.457275391 -0.628417969
vn 0.639648438 0.427490234 -0.639160156
vn 0.72265625 0.514648438 -0.461181641
vn -0 1 0
vn 0.0956420898 0.990722656 0.095703125
vn 0.0956420898 0.990722656 0.095703125
vn -0.629394531 0.457275391 0.628417969
vn -0 1 0
vn -0.247558594 0.555175781 0.794433594
vn -0.639648438 0.427490234 0.639160156
vn -0.639648438 0.427490234 0.639160156
vn -0.247558594 0.555175781 0.794433594
vn 0.0956420898 0.990722656 0.095703125
vn 0.72265625 0.514648438 -0.461181641
vn 0.643066406 0.414794922 0.643554688
vn 0.643066406 0.414794922 0.643554688
vn -0.694824219 0.183349609 -0.6953125
vn -0.617675781 0.382080078 -0.6875
vn -0.686523438 0.382080078 -0.618164062
vn -0.645996094 0.405273438 -0.646484375
vn -0.645996094 0.405273438 -0.646484375
vn -0.639648438 0.427490234 -0.639160156
vn -0.639648438 0.427490234 -0.639160156
vn -0.629394531 0.457275391 -0.628417969
vn -0.72265625 0.514648438 -0.461181641
vn -0 1 0
vn -0.0956420898 0.990722656 0.095703125
vn -0.0956420898 0.990722656 0.095703125
vn -0 1 0
vn 0.629394531 0.457275391 0.628417969
vn 0.247558594 0.555175781 0.794433594
vn 0.639648438 0.427490234 0.639160156
vn 0.639648438 0.427490234 0.639160156
vn 0.247558594 0.555175781 0.794433594
vn -0.72265625 0.514648438 -0.461181641
vn -0.0956420898 0.990722656 0.095703125
vn -0.643066406 0.414794922 0.643554688
vn -0.643066406 0.414794922 0.643554688
vn 0.694824219 0.183349609 -0.6953125
vn 0.686523438 0.382080078 -0.618164062
vn 0.617675781 0.382080078 -0.6875
vn 0.645996094 0.405273438 -0.646484375
vn 0.645996094 0.405273438 -0.646484375
vn 0.701660156 0 0.712402344
vn 0.701660156 0 0.712402344
vn 0.701660156 0 0.712402344
vn 0.701660156 0 0.712402344
vn -0 1 0
vn -0 1 0
vn -0 1 0
vn -0 1 0
vn -0 1 0
vn -0 0 1
vn -0 0 1
vn -0 0 1
vn -0 0 1
vn 1 0 0
vn 1 0 0
vn 1 0 0
vn 1 0 0
vn 0.701660156 0 -0.712402344
vn 0.701660156 0 -0.712402344
vn 0.701660156 0 -0.712402344
vn 0.701660156 0 -0.712402344
vn -0 1 0
vn -0 1 0
vn -0 1 0
vn -0 1 0
vn -0 1 0
vn -0 0 -1
vn -0 0 -1
vn -0 0 -1
vn -0 0 -1
vn 1 0 0
vn 1 0 0
vn 1 0 0
vn 1 0 0
vn -0.701660156 0 0.712402344
vn -0.701660156 0 0.712402344
vn -0.701660156 0 0.712402344
vn -0.701660156 0 0.712402344
vn -0 1 0
vn -0 1 0
vn -0 1 0
vn -0 1 0
vn -0 1 0
vn -0 0 1
vn -0 0 1
vn -0 0 1
vn -0 0 1
vn -1 0 0
vn -1 0 0
vn -1 0 0
vn -1 0 0
vn -0.701660156 0 -0.712402344
vn -0.701660156 0 -0.712402344
vn -0.701660156 0 -0.712402344
vn -0.701660156 0 -0.712402344
vn -0 1 0
vn -0 1 0
vn -0 1 0
vn -0 1 0
vn -0 1 0
vn -0 0 -1
vn -0 0 -1
vn -0 0 -1
vn -0 0 -1
vn -1 0 0
vn -1 0 0
vn -1 0 0
vn -1 0 0
vn 0.70703125 0 0.70703125
vn 0.70703125 0 0.70703125
vn 0.70703125 0 0.70703125
vn 0.70703125 0 0.70703125
vn 0.70703125 0 -0.70703125
vn 0.70703125 0 -0.70703125
vn 0.70703125 0 -0.70703125
vn 0.70703125 0 -0.70703125
vn -0 1 0
vn -0 1 0
vn -0 1 0
vn -0 1 0
vn -0 1 0
vn -0 1 0
vn -0 1 0
vn -0 1 0
vn -0.70703125 0 -0.70703125
vn -0.70703125 0 -0.70703125
vn -0.70703125 0 -0.70703125
vn -0.70703125 0 -0.70703125
vn -0.70703125 0 0.70703125
vn -0.70703125 0 0.70703125
vn -0.70703125 0 0.70703125
vn -0.70703125 0 0.70703125
vn -0.70703125 0 0.70703125
vn -0.70703125 0 0.70703125
vn -0.70703125 0 0.70703125
vn -0.70703125 0 0.70703125
vn -0.70703125 0 -0.70703125
vn -0.70703125 0 -0.70703125
vn -0.70703125 0 -0.70703125
vn -0.70703125 0 -0.70703125
vn -0 1 0
vn -0 1 0
vn -0 1 0
vn -0 1 0
vn -0 1 0
vn -0 1 0
vn -0 1 0
vn -0 1 0
vn 0.70703125 0 -0.70703125
vn 0.70703125 0 -0.70703125
vn 0.70703125 0 -0.70703125
vn 0.70703125 0 -0.70703125
vn 0.70703125 0 0.70703125
vn 0.70703125 0 0.70703125
vn 0.70703125 0 0.70703125
vn 0.70703125 0 0.70703125
vn -0.762207031 0 0.647460938
vn -0.993652344 -0.112609863 0
vn -1 0 0
vn -0.767089844 -0.0797729492 0.636230469
vn -0.654296875 0 0.755859375
vn -0.655761719 -0.0649414062 0.751953125
vn 0.102722168 -0.031463623 0.994140625
vn 0.1328125 0.000579833984 0.991210938
vn 0.836425781 0.00107955933 0.548339844
vn 0.8359375 0.00107955933 0.548828125
vn 1 0.00103855133 0
vn 1 0.00103855133 0
vn -0.767089844 -0.0797729492 0.636230469
vn -0.887695312 -0.459960938 0
vn -0.720214844 -0.346191406 0.601074219
vn -0.537597656 -0.843261719 0
vn -0.645507812 -0.280273438 0.710449219
vn 0.102722168 -0.031463623 0.994140625
vn -0.501464844 -0.69921875 0.509765625
vn -0.342773438 -0.860839844 0.375732422
vn -0.317626953 -0.845214844 0.4296875
vn -0.338623047 -0.614257812 0.712402344
vn 0.158691406 -0.705078125 0.690917969
vn -0.762207031 0 -0.647460938
vn -1 0 0
vn -0.993652344 -0.112609863 0
vn -0.767089844 -0.0797729492 -0.636230469
vn -0.654296875 0 -0.755859375
vn -0.655761719 -0.0649414062 -0.751953125
vn 0.102722168 -0.031463623 -0.994140625
vn 0.1328125 0.000578403473 -0.991210938
vn 0.836425781 0.00107955933 -0.548339844
vn 0.8359375 0.00107955933 -0.548828125
vn 1 0.001039505 0
vn 1 0.001039505 0
vn -0.767089844 -0.0797729492 -0.636230469
vn -0.887695312 -0.459960938 0
vn -0.720214844 -0.346191406 -0.601074219
vn -0.537597656 -0.843261719 0
vn -0.645507812 -0.280273438 -0.710449219
vn 0.102722168 -0.031463623 -0.994140625
vn -0.501464844 -0.69921875 -0.509765625
vn -0.342773438 -0.860839844 -0.375732422
vn -0.317626953 -0.845214844 -0.4296875
vn -0.338623047 -0.614257812 -0.712402344
vn 0.158691406 -0.705078125 -0.690917969
vn -0 1 0
vn -0 1 0
vn -0 1 0
vn -0 1 0
vn -0 1 0
vn -0 1 0
vn -0 1 0
vn -0 1 0
vn -0 1 0
vn -0 1 0
vn 0.999511719 0.0278167725 0
vn 0.999511719 0.0278167725 0
vn 0.999511719 0.0278167725 0
vn 0.999511719 0.0278167725 0
vn -0.998535156 0.0525512695 0
vn -0.998535156 0.0525512695 0
vn -0.998535156 0.0525512695 0
vn -0.998535156 0.0525512695 0
vn -0 1 0
vn -0 1 0
vn 0.141967773 0.951171875 0.274414062
vn 0.242553711 0.849121094 0.468994141
vn 0.459472656 0 0.888183594
vn 0.242553711 0.849121094 0.468994141
vn 0.141967773 0.951171875 0.274414062
vn 0.459472656 0 0.888183594
vn 0.459472656 0 -0.888183594
vn 0.459472656 0 -0.888183594
vn 0.459472656 0 -0.888183594
vn 0.459472656 0 -0.888183594
vn 0.762207031 0 0.647460938
vn 1 0 0
vn 0.993652344 -0.112609863 0
vn 0.767089844 -0.0797729492 0.636230469
vn 0.654296875 0 0.755859375
vn 0.655761719 -0.0649414062 0.751953125
vn -0.102722168 -0.031463623 0.994140625
vn -0.1328125 0.000580310822 0.991210938
vn -0.836425781 0.001080513 0.548339844
vn -0.8359375 0.00107955933 0.548828125
vn -1 0.00103855133 0
vn -1 0.00103855133 0
vn 0.767089844 -0.0797729492 0.636230469
vn 0.887695312 -0.459960938 0
vn 0.720214844 -0.346191406 0.601074219
vn 0.537597656 -0.843261719 0
vn 0.645507812 -0.280273438 0.710449219
vn -0.102722168 -0.031463623 0.994140625
vn 0.501464844 -0.69921875 0.509765625
vn 0.342773438 -0.860839844 0.375732422
vn 0.317626953 -0.845214844 0.4296875
vn 0.338623047 -0.614257812 0.712402344
vn -0.158691406 -0.705078125 0.690917969
vn 0.762207031 0 -0.647460938
vn 0.993652344 -0.112609863 0
vn 1 0 0
vn 0.767089844 -0.0797729492 -0.636230469
vn 0.654296875 0 -0.755859375
vn 0.655761719 -0.0649414062 -0.751953125
vn -0.102722168 -0.031463623 -0.994140625
vn -0.1328125 0.000578403473 -0.991210938
vn -0.836425781 0.00107955933 -0.548339844
vn -0.8359375 0.00107955933 -0.548828125
vn -1 0.001039505 0
vn -1 0.001039505 0
vn 0.767089844 -0.0797729492 -0.636230469
vn 0.887695312 -0.459960938 0
vn 0.720214844 -0.346191406 -0.601074219
vn 0.537597656 -0.843261719 0
vn 0.645507812 -0.280273438 -0.710449219
vn -0.102722168 -0.031463623 -0.994140625
vn 0.501464844 -0.69921875 -0.509765625
vn 0.342773438 -0.860839844 -0.375732422
vn 0.317626953 -0.845214844 -0.4296875
vn 0.338623047 -0.614257812 -0.712402344
vn -0.158691406 -0.705078125 -0.690917969
vn -0 1 0
vn -0 1 0
vn -0 1 0
vn -0 1 0
vn -0 1 0
vn -0 1 0
vn -0 1 0
vn -0 1 0
vn -0 1 0
vn -0 1 0
vn -0.999511719 0.0278167725 0
vn -0.999511719 0.0278167725 0
vn -0.999511719 0.0278167725 0
vn -0.999511719 0.0278167725 0
vn 0.998535156 0.0525512695 0
vn 0.998535156 0.0525512695 0
vn 0.998535156 0.0525512695 0
vn 0.998535156 0.0525512695 0
vn -0 1 0
vn -0.242553711 0.849121094 0.468994141
vn -0.141967773 0.951171875 0.274414062
vn -0 1 0
vn -0.459472656 0 0.888183594
vn -0.459472656 0 0.888183594
vn -0.141967773 0.951171875 0.274414062
vn -0.242553711 0.849121094 0.468994141
vn -0.459472656 0 -0.888183594
vn -0.459472656 0 -0.888183594
vn -0.459472656 0 -0.888183594
vn -0.459472656 0 -0.888183594
vn -0.647460938 0 -0.762207031
vn -0 -0.112609863 -0.993652344
vn -0 0 -1
vn -0.636230469 -0.0797729492 -0.767089844
vn -0.755859375 0 -0.654296875
vn -0.751953125 -0.0649414062 -0.655761719
vn -0.994140625 -0.031463623 0.102722168
vn -0.991210938 0.000579833984 0.1328125
vn -0.548339844 0.00107955933 0.836425781
vn -0.548828125 0.00107955933 0.8359375
vn -0 0.00103855133 1
vn -0 0.00103855133 1
vn -0.636230469 -0.0797729492 -0.767089844
vn -0 -0.459960938 -0.887695312
vn -0.601074219 -0.346191406 -0.720214844
vn -0 -0.843261719 -0.537597656
vn -0.710449219 -0.280273438 -0.645507812
vn -0.994140625 -0.031463623 0.102722168
vn -0.509765625 -0.69921875 -0.501464844
vn -0.375732422 -0.860839844 -0.342773438
vn -0.4296875 -0.845214844 -0.317626953
vn -0.712402344 -0.614257812 -0.338623047
vn -0.690917969 -0.705078125 0.158691406
vn 0.647460938 0 -0.762207031
vn -0 0 -1
vn -0 -0.112609863 -0.993652344
vn 0.636230469 -0.0797729492 -0.767089844
vn 0.755859375 0 -0.654296875
vn 0.751953125 -0.0649414062 -0.655761719
vn 0.994140625 -0.031463623 0.102722168
vn 0.991210938 0.000578403473 0.1328125
vn 0.548339844 0.00107955933 0.836425781
vn 0.548828125 0.00107860565 0.8359375
vn -0 0.00103855133 1
vn -0 0.00103855133 1
vn 0.636230469 -0.0797729492 -0.767089844
vn -0 -0.459960938 -0.887695312
vn 0.601074219 -0.346191406 -0.720214844
vn -0 -0.843261719 -0.537597656
vn 0.710449219 -0.280273438 -0.645507812
vn 0.994140625 -0.031463623 0.102722168
vn 0.509765625 -0.69921875 -0.501464844
vn 0.375732422 -0.860839844 -0.342773438
vn 0.4296875 -0.845214844 -0.317626953
vn 0.712402344 -0.614257812 -0.338623047
vn 0.690917969 -0.705078125 0.158691406
vn -0 1 0
vn -0 1 0
vn -0 1 0
vn -0 1 0
vn -0 1 0
vn -0 1 0
vn -0 1 0
vn -0 1 0
vn -0 1 0
vn -0 1 0
vn -0 0.0278167725 0.999511719
vn -0 0.0278167725 0.999511719
vn -0 0.0278167725 0.999511719
vn -0 0.0278167725 0.999511719
vn -0 0.0525512695 -0.998535156
vn -0 0.0525512695 -0.998535156
vn -0 0.0525512695 -0.998535156
vn -0 0.0525512695 -0.998535156
vn -0 1 0
vn -0 1 0
vn -0.274414062 0.951171875 0.141967773
vn -0.468994141 0.849121094 0.242553711
vn -0.888183594 0 0.459472656
vn -0.468994141 0.849121094 0.242553711
vn -0.274414062 0.951171875 0.141967773
vn -0.888183594 0 0.459472656
vn 0.888183594 0 0.459472656
vn 0.888183594 0 0.459472656
vn 0.888183594 0 0.459472656
vn 0.888183594 0 0.459472656
vn -0.647460938 0 0.762207031
vn -0 0 1
vn -0 -0.112609863 0.993652344
vn -0.636230469 -0.0797729492 0.767089844
vn -0.755859375 0 0.654296875
vn -0.751953125 -0.0649414062 0.655761719
vn -0.994140625 -0.031463623 -0.102722168
vn -0.991210938 0.000579833984 -0.1328125
vn -0.548339844 0.00107955933 -0.836425781
vn -0.548828125 0.00107955933 -0.8359375
vn -0 0.00103855133 -1
vn -0 0.00103855133 -1
vn -0.636230469 -0.0797729492 0.767089844
vn -0 -0.459960938 0.887695312
vn -0.601074219 -0.346191406 0.720214844
vn -0 -0.843261719 0.537597656
vn -0.710449219 -0.280273438 0.645507812
vn -0.994140625 -0.031463623 -0.102722168
vn -0.509765625 -0.69921875 0.501464844
vn -0.375732422 -0.860839844 0.342773438
vn -0.4296875 -0.845214844 0.317626953
vn -0.712402344 -0.614257812 0.338623047
vn -0.690917969 -0.705078125 -0.158691406
vn 0.647460938 0 0.762207031
vn -0 -0.112609863 0.993652344
vn -0 0 1
vn 0.636230469 -0.0797729492 0.767089844
vn 0.755859375 0 0.654296875
vn 0.751953125 -0.0649414062 0.655761719
vn 0.994140625 -0.031463623 -0.102722168
vn 0.991210938 0.00057888031 -0.1328125
vn 0.548339844 0.00107955933 -0.836425781
vn 0.548828125 0.00107860565 -0.8359375
vn -0 0.00103855133 -1
vn -0 0.00103855133 -1
vn 0.636230469 -0.0797729492 0.767089844
vn -0 -0.459960938 0.887695312
vn 0.601074219 -0.346191406 0.720214844
vn -0 -0.843261719 0.537597656
vn 0.710449219 -0.280273438 0.645507812
vn 0.994140625 -0.031463623 -0.102722168
vn 0.509765625 -0.69921875 0.501464844
vn 0.375732422 -0.860839844 0.342773438
vn 0.4296875 -0.845214844 0.317626953
vn 0.712402344 -0.614257812 0.338623047
vn 0.690917969 -0.705078125 -0.158691406
vn -0 1 0
vn -0 1 0
vn -0 1 0
vn -0 1 0
vn -0 1 0
vn -0 1 0
vn -0 1 0
vn -0 1 0
vn -0 1 0
vn -0 1 0
vn -0 0.0278167725 -0.999511719
vn -0 0.0278167725 -0.999511719
vn -0 0.0278167725 -0.999511719
vn -0 0.0278167725 -0.999511719
vn -0 0.0525512695 0.998535156
vn -0 0.0525512695 0.998535156
vn -0 0.0525512695 0.998535156
vn -0 0.0525512695 0.998535156
vn -0 1 0
vn -0.468994141 0.849121094 -0.242553711
vn -0.274414062 0.951171875 -0.141967773
vn -0 1 0
vn -0.888183594 0 -0.459472656
vn -0.888183594 0 -0.459472656
vn -0.274414062 0.951171875 -0.141967773
vn -0.468994141 0.849121094 -0.242553711
vn 0.888183594 0 -0.459472656
vn 0.888183594 0 -0.459472656
vn 0.888183594 0 -0.459472656
vn 0.888183594 0 -0.459472656
vn -0 1 0
vn -0 1 0
vn -0 1 0
vn -0 1 0
vn -0 1 0
vn -0 1 0
vn -0 1 0
vn -0 1 0
vn -0 1 0
vn -0 1 0
vn -0 1 0
vn -0 1 0
vn -0 1 0
vn -0 1 0
vn -0 1 0
vn -0 1 0
vn -0 1 0
vn -0 1 0
vn -0 1 0
vn -0 1 0
vn -0 1 0
vn -0 1 0
vn -0 1 0
vn -0 1 0
vn -0 1 0
vn -0 1 0
vn -0 1 0
vn -0 1 0
vn -0 1 0
vn -0 1 0
vn -0 1 0
vn -0 1 0
vn -0 1 0
vn -0 1 0
vn -0 1 0
vn -0 1 0
vn -0 1 0
vn -0 1 0
vn -0 1 0
vn -0 1 0
vn -0 1 0
vn -0 1 0
vn -0 1 0
vn -0 1 0
vn -0 1 0
vn -0 1 0
vn -0 1 0
vn -0 1 0
vn -0 1 0
vn -0 1 0
vn -0 1 0
vn -0 1 0
vn -0 1 0
vn -0 1 0
vn -0 1 0
vn -0 1 0
vn -0 1 0
vn -0 1 0
vn -0 1 0
vn -0 1 0
vn -0 1 0
vn -0 1 0
vn -0 1 0
vn -0 1 0
vn -0 1 0
vn -0 1 0
vn -0 1 0
vn -0 1 0
vn -0 1 0
vn -0 1 0
vn -0 1 0
vn -0 1 0
vn -0 1 0
vn -0 1 0
vn -0 1 0
vn -0 1 0
vn -0 1 0
vn -0 1 0
vn -0 1 0
vn -0 1 0
vn -0 1 0
vn -0 1 0
vn -0 1 0
vn -0 1 0
vn -0 1 0
vn 0.708496094 0.558105469 -0.431884766
vn 0.686523438 0.382080078 -0.618164062
vn 0.888671875 0.211914062 -0.406738281
vn 0.70703125 0.559570312 -0.432128906
vn 0.694824219 0.183349609 -0.6953125
vn 0.431396484 0.558105469 -0.708984375
vn 0.701660156 0.121276855 -0.702148438
vn 0.431396484 0.559570312 -0.707519531
vn 0.617675781 0.382080078 -0.6875
vn 0.406005859 0.211914062 -0.889160156
vn -0.708496094 0.558105469 -0.431884766
vn -0.888671875 0.211914062 -0.406738281
vn -0.686523438 0.382080078 -0.618164062
vn -0.70703125 0.559570312 -0.432128906
vn -0.694824219 0.183349609 -0.6953125
vn -0.431396484 0.558105469 -0.708984375
vn -0.701660156 0.121276855 -0.702148438
vn -0.431396484 0.559570312 -0.707519531
vn -0.617675781 0.382080078 -0.6875
vn -0.406005859 0.211914062 -0.889160156
vn 0.708496094 0.558105469 0.431884766
vn 0.888671875 0.211914062 0.406738281
vn 0.686523438 0.382080078 0.618164062
vn 0.70703125 0.559570312 0.432128906
vn 0.694824219 0.183349609 0.6953125
vn 0.431396484 0.558105469 0.708984375
vn 0.701660156 0.121276855 0.702148438
vn 0.431396484 0.559570312 0.707519531
vn 0.617675781 0.382080078 0.6875
vn 0.406005859 0.211914062 0.889160156
vn -0.708496094 0.558105469 0.431884766
vn -0.686523438 0.382080078 0.618164062
vn -0.888671875 0.211914062 0.406738281
vn -0.70703125 0.559570312 0.432128906
vn -0.694824219 0.183349609 0.6953125
vn -0.431396484 0.558105469 0.708984375
vn -0.701660156 0.121276855 0.702148438
vn -0.431396484 0.559570312 0.707519531
vn -0.617675781 0.382080078 0.6875
vn -0.406005859 0.211914062 0.889160156
g MapWarpBase_0
f 3/3/3 2/2/2 1/1/1
f 4/4/4 3/3/3 1/1/1
f 5/5/5 3/3/3 4/4/4
f 6/6/6 5/5/5 4/4/4
f 9/9/9 8/8/8 7/7/7
f 10/10/10 9/9/9 7/7/7
f 9/9/9 10/10/10 11/11/11
f 12/12/12 9/9/9 11/11/11
f 15/15/15 14/14/14 13/13/13
f 14/14/14 16/16/16 13/13/13
f 16/16/16 17/17/17 13/13/13
f 20/20/20 19/19/19 18/18/18
f 20/20/20 21/21/21 19/19/19
f 21/21/21 22/22/22 19/19/19
f 25/25/25 24/24/24 23/23/23
f 24/24/24 26/26/26 23/23/23
f 24/24/24 27/27/27 26/26/26
f 27/27/27 28/28/28 26/26/26
f 31/31/31 30/30/30 29/29/29
f 30/30/30 32/32/32 29/29/29
f 32/32/32 30/30/30 33/33/33
f 30/30/30 34/34/34 33/33/33
f 37/37/37 36/36/36 35/35/35
f 38/38/38 37/37/37 35/35/35
f 39/39/39 38/38/38 35/35/35
f 42/42/42 41/41/41 40/40/40
f 43/43/43 41/41/41 42/42/42
f 44/44/44 43/43/43 42/42/42
f 47/47/47 46/46/46 45/45/45
f 46/46/46 48/48/48 45/45/45
f 46/46/46 49/49/49 48/48/48
f 49/49/49 50/50/50 48/48/48
f 53/53/53 52/52/52 51/51/51
f 52/52/52 54/54/54 51/51/51
f 54/54/54 52/52/52 55/55/55
f 52/52/52 56/56/56 55/55/55
f 59/59/59 58/58/58 57/57/57
f 60/60/60 59/59/59 57/57/57
f 61/61/61 60/60/60 57/57/57
f 64/64/64 63/63/63 62/62/62
f 65/65/65 63/63/63 64/64/64
f 66/66/66 65/65/65 64/64/64
f 69/69/69 68/68/68 67/67/67
f 70/70/70 69/69/69 67/67/67
f 71/71/71 69/69/69 70/70/70
f 72/72/72 71/71/71 70/70/70
f 75/75/75 74/74/74 73/73/73
f 76/76/76 75/75/75 73/73/73
f 75/75/75 76/76/76 77/77/77
f 78/78/78 75/75/75 77/77/77
f 81/81/81 80/80/80 79/79/79
f 80/80/80 82/82/82 79/79/79
f 82/82/82 83/83/83 79/79/79
f 86/86/86 85/85/85 84/84/84
f 86/86/86 87/87/87 85/85/85
f 87/87/87 88/88/88 85/85/85
f 91/91/91 90/90/90 89/89/89
f 92/92/92 91/91/91 89/89/89
f 95/95/95 94/94/94 93/93/93
f 95/95/95 96/96/96 94/94/94
f 96/96/96 95/95/95 97/97/97
f 100/100/100 99/99/99 98/98/98
f 101/101/101 100/100/100 98/98/98
f 104/104/104 103/103/103 102/102/102
f 105/105/105 104/104/104 102/102/102
f 108/108/108 107/107/107 106/106/106
f 109/109/109 108/108/108 106/106/106
f 112/112/112 111/111/111 110/110/110
f 113/113/113 111/111/111 112/112/112
f 111/111/111 113/113/113 114/114/114
f 117/117/117 116/116/116 115/115/115
f 118/118/118 117/117/117 115/115/115
f 121/121/121 120/120/120 119/119/119
f 122/122/122 121/121/121 119/119/119
f 125/125/125 124/124/124 123/123/123
f 126/126/126 125/125/125 123/123/123
f 129/129/129 128/128/128 127/127/127
f 130/130/130 128/128/128 129/129/129
f 128/128/128 130/130/130 131/131/131
f 134/134/134 133/133/133 132/132/132
f 135/135/135 134/134/134 132/132/132
f 138/138/138 137/137/137 136/136/136
f 139/139/139 138/138/138 136/136/136
f 142/142/142 141/141/141 140/140/140
f 143/143/143 142/142/142 140/140/140
f 146/146/146 145/145/145 144/144/144
f 146/146/146 147/147/147 145/145/145
f 147/147/147 146/146/146 148/148/148
f 151/151/151 150/150/150 149/149/149
f 152/152/152 151/151/151 149/149/149
f 155/155/155 154/154/154 153/153/153
f 156/156/156 155/155/155 153/153/153
f 159/159/159 158/158/158 157/157/157
f 160/160/160 159/159/159 157/157/157
f 163/163/163 162/162/162 161/161/161
f 164/164/164 163/163/163 161/161/161
f 167/167/167 166/166/166 165/165/165
f 168/168/168 167/167/167 165/165/165
f 171/171/171 170/170/170 169/169/169
f 172/172/172 171/171/171 169/169/169
f 175/175/175 174/174/174 173/173/173
f 176/176/176 175/175/175 173/173/173
f 179/179/179 178/178/178 177/177/177
f 180/180/180 179/179/179 177/177/177
f 183/183/183 182/182/182 181/181/181
f 184/184/184 183/183/183 181/181/181
f 187/187/187 186/186/186 185/185/185
f 188/188/188 187/187/187 185/185/185
f 191/191/191 190/190/190 189/189/189
f 192/192/192 191/191/191 189/189/189
f 195/195/195 194/194/194 193/193/193
f 196/196/196 195/195/195 193/193/193
f 199/199/199 198/198/198 197/197/197
f 200/200/200 199/199/199 197/197/197
f 203/203/203 202/202/202 201/201/201
f 204/204/204 203/203/203 201/201/201
f 207/207/207 206/206/206 205/205/205
f 206/206/206 208/208/208 205/205/205
f 209/209/209 205/205/205 208/208/208
f 210/210/210 209/209/209 208/208/208
f 209/209/209 210/210/210 211/211/211
f 212/212/212 209/209/209 211/211/211
f 212/212/212 211/211/211 213/213/213
f 211/211/211 214/214/214 213/213/213
f 215/215/215 213/213/213 214/214/214
f 216/216/216 215/215/215 214/214/214
f 206/206/206 218/218/218 217/217/217
f 218/218/218 219/219/219 217/217/217
f 217/217/217 219/219/219 210/210/210
f 218/218/218 220/220/220 219/219/219
f 219/219/219 221/221/221 210/210/210
f 210/210/210 221/221/221 222/222/222
f 220/220/220 223/223/223 219/219/219
f 219/219/219 223/223/223 221/221/221
f 220/220/220 224/224/224 223/223/223
f 224/224/224 225/225/225 223/223/223
f 221/221/221 226/226/226 222/222/222
f 223/223/223 226/226/226 221/221/221
f 223/223/223 225/225/225 226/226/226
f 226/226/226 227/227/227 222/222/222
f 225/225/225 227/227/227 226/226/226
f 230/230/230 229/229/229 228/228/228
f 231/231/231 230/230/230 228/228/228
f 228/228/228 232/232/232 231/231/231
f 232/232/232 233/233/233 231/231/231
f 233/233/233 232/232/232 234/234/234
f 232/232/232 235/235/235 234/234/234
f 234/234/234 235/235/235 236/236/236
f 237/237/237 234/234/234 236/236/236
f 236/236/236 238/238/238 237/237/237
f 238/238/238 239/239/239 237/237/237
f 241/241/241 230/230/230 240/240/240
f 242/242/242 241/241/241 240/240/240
f 242/242/242 240/240/240 233/233/233
f 243/243/243 241/241/241 242/242/242
f 244/244/244 242/242/242 233/233/233
f 244/244/244 233/233/233 245/245/245
f 246/246/246 243/243/243 242/242/242
f 246/246/246 242/242/242 244/244/244
f 247/247/247 243/243/243 246/246/246
f 248/248/248 247/247/247 246/246/246
f 249/249/249 244/244/244 245/245/245
f 249/249/249 246/246/246 244/244/244
f 248/248/248 246/246/246 249/249/249
f 250/250/250 249/249/249 245/245/245
f 250/250/250 248/248/248 249/249/249
f 253/253/253 252/252/252 251/251/251
f 253/253/253 251/251/251 254/254/254
f 255/255/255 253/253/253 254/254/254
f 255/255/255 254/254/254 256/256/256
f 255/255/255 256/256/256 257/257/257
f 258/258/258 253/253/253 255/255/255
f 259/259/259 258/258/258 255/255/255
f 258/258/258 259/259/259 260/260/260
f 263/263/263 262/262/262 261/261/261
f 264/264/264 263/263/263 261/261/261
f 267/267/267 266/266/266 265/265/265
f 268/268/268 267/267/267 265/265/265
f 271/271/271 270/270/270 269/269/269
f 272/272/272 271/271/271 269/269/269
f 275/275/275 274/274/274 273/273/273
f 276/276/276 275/275/275 273/273/273
f 279/279/279 278/278/278 277/277/277
f 280/280/280 279/279/279 277/277/277
f 283/283/283 282/282/282 281/281/281
f 284/284/284 283/283/283 281/281/281
f 281/281/281 285/285/285 284/284/284
f 285/285/285 286/286/286 284/284/284
f 286/286/286 285/285/285 287/287/287
f 285/285/285 288/288/288 287/287/287
f 287/287/287 288/288/288 289/289/289
f 290/290/290 287/287/287 289/289/289
f 289/289/289 291/291/291 290/290/290
f 291/291/291 292/292/292 290/290/290
f 294/294/294 283/283/283 293/293/293
f 295/295/295 294/294/294 293/293/293
f 295/295/295 293/293/293 286/286/286
f 296/296/296 294/294/294 295/295/295
f 297/297/297 295/295/295 286/286/286
f 297/297/297 286/286/286 298/298/298
f 299/299/299 296/296/296 295/295/295
f 299/299/299 295/295/295 297/297/297
f 300/300/300 296/296/296 299/299/299
f 301/301/301 300/300/300 299/299/299
f 302/302/302 297/297/297 298/298/298
f 302/302/302 299/299/299 297/297/297
f 301/301/301 299/299/299 302/302/302
f 303/303/303 302/302/302 298/298/298
f 303/303/303 301/301/301 302/302/302
f 306/306/306 305/305/305 304/304/304
f 305/305/305 307/307/307 304/304/304
f 308/308/308 304/304/304 307/307/307
f 309/309/309 308/308/308 307/307/307
f 308/308/308 309/309/309 310/310/310
f 311/311/311 308/308/308 310/310/310
f 311/311/311 310/310/310 312/312/312
f 310/310/310 313/313/313 312/312/312
f 314/314/314 312/312/312 313/313/313
f 315/315/315 314/314/314 313/313/313
f 305/305/305 317/317/317 316/316/316
f 317/317/317 318/318/318 316/316/316
f 316/316/316 318/318/318 309/309/309
f 317/317/317 319/319/319 318/318/318
f 318/318/318 320/320/320 309/309/309
f 309/309/309 320/320/320 321/321/321
f 319/319/319 322/322/322 318/318/318
f 318/318/318 322/322/322 320/320/320
f 319/319/319 323/323/323 322/322/322
f 323/323/323 324/324/324 322/322/322
f 320/320/320 325/325/325 321/321/321
f 322/322/322 325/325/325 320/320/320
f 322/322/322 324/324/324 325/325/325
f 325/325/325 326/326/326 321/321/321
f 324/324/324 326/326/326 325/325/325
f 329/329/329 328/328/328 327/327/327
f 327/327/327 328/328/328 330/330/330
f 328/328/328 331/331/331 330/330/330
f 330/330/330 331/331/331 332/332/332
f 332/332/332 331/331/331 333/333/333
f 328/328/328 334/334/334 331/331/331
f 334/334/334 335/335/335 331/331/331
f 335/335/335 334/334/334 336/336/336
f 339/339/339 338/338/338 337/337/337
f 340/340/340 339/339/339 337/337/337
f 343/343/343 342/342/342 341/341/341
f 344/344/344 343/343/343 341/341/341
f 347/347/347 346/346/346 345/345/345
f 348/348/348 347/347/347 345/345/345
f 351/351/351 350/350/350 349/349/349
f 352/352/352 351/351/351 349/349/349
f 355/355/355 354/354/354 353/353/353
f 356/356/356 355/355/355 353/353/353
f 359/359/359 358/358/358 357/357/357
f 358/358/358 360/360/360 357/357/357
f 361/361/361 357/357/357 360/360/360
f 362/362/362 361/361/361 360/360/360
f 361/361/361 362/362/362 363/363/363
f 364/364/364 361/361/361 363/363/363
f 364/364/364 363/363/363 365/365/365
f 363/363/363 366/366/366 365/365/365
f 367/367/367 365/365/365 366/366/366
f 368/368/368 367/367/367 366/366/366
f 358/358/358 370/370/370 369/369/369
f 370/370/370 371/371/371 369/369/369
f 369/369/369 371/371/371 362/362/362
f 370/370/370 372/372/372 371/371/371
f 371/371/371 373/373/373 362/362/362
f 362/362/362 373/373/373 374/374/374
f 372/372/372 375/375/375 371/371/371
f 371/371/371 375/375/375 373/373/373
f 372/372/372 376/376/376 375/375/375
f 376/376/376 377/377/377 375/375/375
f 373/373/373 378/378/378 374/374/374
f 375/375/375 378/378/378 373/373/373
f 375/375/375 377/377/377 378/378/378
f 378/378/378 379/379/379 374/374/374
f 377/377/377 379/379/379 378/378/378
f 382/382/382 381/381/381 380/380/380
f 383/383/383 382/382/382 380/380/380
f 380/380/380 384/384/384 383/383/383
f 384/384/384 385/385/385 383/383/383
f 385/385/385 384/384/384 386/386/386
f 384/384/384 387/387/387 386/386/386
f 386/386/386 387/387/387 388/388/388
f 389/389/389 386/386/386 388/388/388
f 388/388/388 390/390/390 389/389/389
f 390/390/390 391/391/391 389/389/389
f 393/393/393 382/382/382 392/392/392
f 394/394/394 393/393/393 392/392/392
f 394/394/394 392/392/392 385/385/385
f 395/395/395 393/393/393 394/394/394
f 396/396/396 394/394/394 385/385/385
f 396/396/396 385/385/385 397/397/397
f 398/398/398 395/395/395 394/394/394
f 398/398/398 394/394/394 396/396/396
f 399/399/399 395/395/395 398/398/398
f 400/400/400 399/399/399 398/398/398
f 401/401/401 396/396/396 397/397/397
f 401/401/401 398/398/398 396/396/396
f 400/400/400 398/398/398 401/401/401
f 402/402/402 401/401/401 397/397/397
f 402/402/402 400/400/400 401/401/401
f 405/405/405 404/404/404 403/403/403
f 405/405/405 403/403/403 406/406/406
f 407/407/407 405/405/405 406/406/406
f 407/407/407 406/406/406 408/408/408
f 407/407/407 408/408/408 409/409/409
f 410/410/410 405/405/405 407/407/407
f 411/411/411 410/410/410 407/407/407
f 410/410/410 411/411/411 412/412/412
f 415/415/415 414/414/414 413/413/413
f 416/416/416 415/415/415 413/413/413
f 419/419/419 418/418/418 417/417/417
f 420/420/420 419/419/419 417/417/417
f 423/423/423 422/422/422 421/421/421
f 424/424/424 423/423/423 421/421/421
f 427/427/427 426/426/426 425/425/425
f 428/428/428 427/427/427 425/425/425
f 431/431/431 430/430/430 429/429/429
f 432/432/432 431/431/431 429/429/429
f 435/435/435 434/434/434 433/433/433
f 436/436/436 435/435/435 433/433/433
f 433/433/433 437/437/437 436/436/436
f 437/437/437 438/438/438 436/436/436
f 438/438/438 437/437/437 439/439/439
f 437/437/437 440/440/440 439/439/439
f 439/439/439 440/440/440 441/441/441
f 442/442/442 439/439/439 441/441/441
f 441/441/441 443/443/443 442/442/442
f 443/443/443 444/444/444 442/442/442
f 446/446/446 435/435/435 445/445/445
f 447/447/447 446/446/446 445/445/445
f 447/447/447 445/445/445 438/438/438
f 448/448/448 446/446/446 447/447/447
f 449/449/449 447/447/447 438/438/438
f 449/449/449 438/438/438 450/450/450
f 451/451/451 448/448/448 447/447/447
f 451/451/451 447/447/447 449/449/449
f 452/452/452 448/448/448 451/451/451
f 453/453/453 452/452/452 451/451/451
f 454/454/454 449/449/449 450/450/450
f 454/454/454 451/451/451 449/449/449
f 453/453/453 451/451/451 454/454/454
f 455/455/455 454/454/454 450/450/450
f 455/455/455 453/453/453 454/454/454
f 458/458/458 457/457/457 456/456/456
f 457/457/457 459/459/459 456/456/456
f 460/460/460 456/456/456 459/459/459
f 461/461/461 460/460/460 459/459/459
f 460/460/460 461/461/461 462/462/462
f 463/463/463 460/460/460 462/462/462
f 463/463/463 462/462/462 464/464/464
f 462/462/462 465/465/465 464/464/464
f 466/466/466 464/464/464 465/465/465
f 467/467/467 466/466/466 465/465/465
f 457/457/457 469/469/469 468/468/468
f 469/469/469 470/470/470 468/468/468
f 468/468/468 470/470/470 461/461/461
f 469/469/469 471/471/471 470/470/470
f 470/470/470 472/472/472 461/461/461
f 461/461/461 472/472/472 473/473/473
f 471/471/471 474/474/474 470/470/470
f 470/470/470 474/474/474 472/472/472
f 471/471/471 475/475/475 474/474/474
f 475/475/475 476/476/476 474/474/474
f 472/472/472 477/477/477 473/473/473
f 474/474/474 477/477/477 472/472/472
f 474/474/474 476/476/476 477/477/477
f 477/477/477 478/478/478 473/473/473
f 476/476/476 478/478/478 477/477/477
f 481/481/481 480/480/480 479/479/479
f 479/479/479 480/480/480 482/482/482
f 480/480/480 483/483/483 482/482/482
f 482/482/482 483/483/483 484/484/484
f 484/484/484 483/483/483 485/485/485
f 480/480/480 486/486/486 483/483/483
f 486/486/486 487/487/487 483/483/483
f 487/487/487 486/486/486 488/488/488
f 491/491/491 490/490/490 489/489/489
f 492/492/492 491/491/491 489/489/489
f 495/495/495 494/494/494 493/493/493
f 496/496/496 495/495/495 493/493/493
f 499/499/499 498/498/498 497/497/497
f 500/500/500 499/499/499 497/497/497
f 503/503/503 502/502/502 501/501/501
f 504/504/504 503/503/503 501/501/501
f 507/507/507 506/506/506 505/505/505
f 508/508/508 507/507/507 505/505/505
f 511/511/511 510/510/510 509/509/509
f 512/512/512 509/509/509 510/510/510
f 513/513/513 511/511/511 509/509/509
f 512/512/512 514/514/514 509/509/509
f 515/515/515 513/513/513 509/509/509
f 515/515/515 516/516/516 513/513/513
f 514/514/514 512/512/512 517/517/517
f 513/513/513 516/516/516 518/518/518
f 516/516/516 519/519/519 518/518/518
f 517/517/517 512/512/512 520/520/520
f 520/520/520 521/521/521 517/517/517
f 518/518/518 519/519/519 522/522/522
f 523/523/523 518/518/518 522/522/522
f 521/521/521 524/524/524 517/517/517
f 524/524/524 525/525/525 517/517/517
f 526/526/526 525/525/525 524/524/524
f 527/527/527 523/523/523 522/522/522
f 526/526/526 524/524/524 527/527/527
f 528/528/528 527/527/527 522/522/522
f 528/528/528 526/526/526 527/527/527
f 531/531/531 530/530/530 529/529/529
f 529/529/529 532/532/532 531/531/531
f 530/530/530 533/533/533 529/529/529
f 534/534/534 532/532/532 529/529/529
f 533/533/533 535/535/535 529/529/529
f 536/536/536 535/535/535 533/533/533
f 532/532/532 534/534/534 537/537/537
f 536/536/536 533/533/533 538/538/538
f 539/539/539 536/536/536 538/538/538
f 532/532/532 537/537/537 540/540/540
f 541/541/541 540/540/540 537/537/537
f 539/539/539 538/538/538 542/542/542
f 538/538/538 543/543/543 542/542/542
f 544/544/544 541/541/541 537/537/537
f 545/545/545 544/544/544 537/537/537
f 545/545/545 546/546/546 544/544/544
f 543/543/543 547/547/547 542/542/542
f 544/544/544 546/546/546 547/547/547
f 547/547/547 548/548/548 542/542/542
f 546/546/546 548/548/548 547/547/547
f 551/551/551 550/550/550 549/549/549
f 552/552/552 549/549/549 550/550/550
f 553/553/553 551/551/551 549/549/549
f 552/552/552 554/554/554 549/549/549
f 555/555/555 553/553/553 549/549/549
f 555/555/555 556/556/556 553/553/553
f 554/554/554 552/552/552 557/557/557
f 553/553/553 556/556/556 558/558/558
f 556/556/556 559/559/559 558/558/558
f 557/557/557 552/552/552 560/560/560
f 560/560/560 561/561/561 557/557/557
f 558/558/558 559/559/559 562/562/562
f 563/563/563 558/558/558 562/562/562
f 561/561/561 564/564/564 557/557/557
f 564/564/564 565/565/565 557/557/557
f 566/566/566 565/565/565 564/564/564
f 567/567/567 563/563/563 562/562/562
f 566/566/566 564/564/564 567/567/567
f 568/568/568 567/567/567 562/562/562
f 568/568/568 566/566/566 567/567/567
f 571/571/571 570/570/570 569/569/569
f 569/569/569 572/572/572 571/571/571
f 570/570/570 573/573/573 569/569/569
f 574/574/574 572/572/572 569/569/569
f 573/573/573 575/575/575 569/569/569
f 576/576/576 575/575/575 573/573/573
f 572/572/572 574/574/574 577/577/577
f 576/576/576 573/573/573 578/578/578
f 579/579/579 576/576/576 578/578/578
f 572/572/572 577/577/577 580/580/580
f 581/581/581 580/580/580 577/577/577
f 579/579/579 578/578/578 582/582/582
f 578/578/578 583/583/583 582/582/582
f 584/584/584 581/581/581 577/577/577
f 585/585/585 584/584/584 577/577/577
f 585/585/585 586/586/586 584/584/584
f 583/583/583 587/587/587 582/582/582
f 584/584/584 586/586/586 587/587/587
f 587/587/587 588/588/588 582/582/582
f 586/586/586 588/588/588 587/587/587
f 591/591/591 590/590/590 589/589/589
f 589/589/589 590/590/590 592/592/592
f 590/590/590 591/591/591 593/593/593
f 590/590/590 593/593/593 592/592/592
f 596/596/596 595/595/595 594/594/594
f 595/595/595 597/597/597 594/594/594
f 598/598/598 595/595/595 596/596/596
f 594/594/594 597/597/597 599/599/599
f 600/600/600 598/598/598 596/596/596
f 597/597/597 601/601/601 599/599/599
f 602/602/602 598/598/598 600/600/600
f 599/599/599 601/601/601 603/603/603
f 603/603/603 602/602/602 600/600/600
f 601/601/601 602/602/602 603/603/603
f 606/606/606 605/605/605 604/604/604
f 607/607/607 606/606/606 604/604/604
f 606/606/606 608/608/608 605/605/605
f 607/607/607 604/604/604 609/609/609
f 608/608/608 610/610/610 605/605/605
f 611/611/611 607/607/607 609/609/609
f 608/608/608 612/612/612 610/610/610
f 611/611/611 609/609/609 613/613/613
f 612/612/612 613/613/613 610/610/610
f 612/612/612 611/611/611 613/613/613
f 616/616/616 615/615/615 614/614/614
f 617/617/617 616/616/616 614/614/614
f 616/616/616 618/618/618 615/615/615
f 617/617/617 614/614/614 619/619/619
f 618/618/618 620/620/620 615/615/615
f 621/621/621 617/617/617 619/619/619
f 618/618/618 622/622/622 620/620/620
f 621/621/621 619/619/619 623/623/623
f 622/622/622 623/623/623 620/620/620
f 622/622/622 621/621/621 623/623/623
f 626/626/626 625/625/625 624/624/624
f 625/625/625 627/627/627 624/624/624
f 628/628/628 625/625/625 626/626/626
f 624/624/624 627/627/627 629/629/629
f 630/630/630 628/628/628 626/626/626
f 627/627/627 631/631/631 629/629/629
f 632/632/632 628/628/628 630/630/630
f 629/629/629 631/631/631 633/633/633
f 633/633/633 632/632/632 630/630/630
f 631/631/631 632/632/632 633/633/633
