g MirrorDebris
v 4.86197233 -0.0760870352 4.02490759
v 5.02821636 -0.0760803223 3.62987232
v 4.33787632 -0.0760827586 3.15426946
v 3.93562984 -0.076089479 4.396698
v 2.51279283 -0.0760870352 4.5910306
v 3.99795556 -0.0760821551 2.81095386
v 0.937475562 -0.0760858133 4.31418324
v 3.53159904 -0.0760791004 2.19010806
v 0.210595697 -0.0760815442 3.37350202
v 3.19282031 -0.0760736093 1.76864076
v -0.94050777 -0.0760729983 2.76473331
v 2.93749714 -0.0760736093 1.30140686
v -1.30264986 -0.0760742202 1.9451412
v 2.57556581 -0.0760717764 0.722713768
v -1.84032714 -0.0760650635 1.3200165
v 2.17445731 -0.0760583505 -0.304428697
v -1.99439025 -0.0760601759 -0.304424435
v 2.46822739 -0.0760668963 -0.438073099
v -2.90257168 -0.0760534629 -1.27384675
v 1.04374504 -0.0760546848 -2.72516179
v 2.83021975 -0.0760644525 -0.476570129
v 2.88241053 -0.0760620087 -0.883969426
v 3.04025388 -0.0760589615 -1.25289369
v 3.28253412 -0.0760583505 -1.57611144
v -0.901499033 -0.0760491937 -3.27632141
v -3.22699952 -0.0760485828 -2.18912411
v -2.24197268 -0.0760430917 -3.66270185
v 2.06576586 -0.076052852 -2.51143193
v 3.31305265 -0.0760583505 -1.91577816
v 3.37285638 -0.0760571286 -2.0841186
v 2.96480107 -0.0760565177 -2.36491871
v 3.61184573 -0.0760565177 -2.32010317
v -4.35984373 -0.0760449171 -2.7251935
v -3.21394038 -0.0760418698 -3.98386455
v -4.31847763 -0.0760388151 -4.06441689
v -4.94931459 -0.0760412589 -4.19079113
v -5.07969713 -0.0760308802 -3.88096499
v 4.86749029 -0.00139221188 4.0281477
v 4.34338903 -0.0013885498 3.15751147
v 5.03373384 -0.00139404298 3.63312316
v 3.94115233 -0.00139892579 4.39994478
v 2.51831532 -0.00139282225 4.59427786
v 4.00347805 -0.00138793944 2.81420088
v 0.942998052 -0.00139587396 4.3174305
v 3.53711653 -0.00138549798 2.19335985
v 0.216113269 -0.0013885498 3.37674117
v 3.1983428 -0.0013818359 1.77188897
v -0.93498534 -0.00138549798 2.76797843
v 2.94301963 -0.001383667 1.30465269
v -1.29713225 -0.00137878419 1.94838715
v 2.5810833 -0.00137756346 0.725959599
v -1.83480954 -0.00137878419 1.32326353
v 2.1799798 -0.001375122 -0.301174313
v -1.98886776 -0.00136413577 -0.301181018
v 2.47374988 -0.001375122 -0.434832156
v -2.89705157 -0.00136718748 -1.27060091
v 1.04926753 -0.00136108394 -2.72191954
v 2.83574224 -0.00136840821 -0.473332822
v 2.88792801 -0.00136840821 -0.880724788
v 3.04577637 -0.00137207028 -1.24964786
v 3.28805661 -0.00136596675 -1.5728631
v -0.895976543 -0.0013549804 -3.27307415
v -3.22147942 -0.0013568115 -2.1858747
v -2.23644519 -0.00135559076 -3.65945482
v 2.07128835 -0.00135559076 -2.50818729
v 3.31856537 -0.00137084955 -1.91252744
v 3.37837386 -0.00136779784 -2.08087516
v 2.97032332 -0.00136474601 -2.3616693
v 3.61736321 -0.00137023919 -2.31685615
v -4.35431862 -0.00135620113 -2.72194624
v -3.20842528 -0.00134460442 -3.98062253
v -4.31296015 -0.00134826661 -4.06116772
v -4.94379711 -0.00134826661 -4.18754864
v -5.07417965 -0.00134765625 -3.87772274
v 2.5810833 -0.00137756346 0.725959599
v 2.1799798 -0.001375122 -0.301174313
v 2.17445731 -0.0760583505 -0.304428697
v 2.57556581 -0.0760717764 0.722713768
v -1.98886776 -0.00136413577 -0.301181018
v -1.83480954 -0.00137878419 1.32326353
v -1.84032714 -0.0760650635 1.3200165
v -1.99439025 -0.0760601759 -0.304424435
v 4.00347805 -0.00138793944 2.81420088
v 3.53159904 -0.0760791004 2.19010806
v 3.99795556 -0.0760821551 2.81095386
v 3.53711653 -0.00138549798 2.19335985
v 3.19282031 -0.0760736093 1.76864076
v 3.1983428 -0.0013818359 1.77188897
v 0.216113269 -0.0013885498 3.37674117
v 0.942998052 -0.00139587396 4.3174305
v 0.937475562 -0.0760858133 4.31418324
v 0.210595697 -0.0760815442 3.37350202
v 3.1983428 -0.0013818359 1.77188897
v 2.94301963 -0.001383667 1.30465269
v 2.93749714 -0.0760736093 1.30140686
v 3.19282031 -0.0760736093 1.76864076
v -1.29713225 -0.00137878419 1.94838715
v -0.93498534 -0.00138549798 2.76797843
v -0.94050777 -0.0760729983 2.76473331
v -1.30264986 -0.0760742202 1.9451412
v 4.86749029 -0.00139221188 4.0281477
v 5.03373384 -0.00139404298 3.63312316
v 5.02821636 -0.0760803223 3.62987232
v 4.86197233 -0.0760870352 4.02490759
v 5.03373384 -0.00139404298 3.63312316
v 4.34338903 -0.0013885498 3.15751147
v 4.33787632 -0.0760827586 3.15426946
v 5.02821636 -0.0760803223 3.62987232
v 4.34338903 -0.0013885498 3.15751147
v 4.00347805 -0.00138793944 2.81420088
v 3.99795556 -0.0760821551 2.81095386
v 4.33787632 -0.0760827586 3.15426946
v 0.942998052 -0.00139587396 4.3174305
v 2.51831532 -0.00139282225 4.59427786
v 2.51279283 -0.0760870352 4.5910306
v 0.937475562 -0.0760858133 4.31418324
v 2.51831532 -0.00139282225 4.59427786
v 3.94115233 -0.00139892579 4.39994478
v 3.93562984 -0.076089479 4.396698
v 2.51279283 -0.0760870352 4.5910306
v 2.94301963 -0.001383667 1.30465269
v 2.5810833 -0.00137756346 0.725959599
v 2.57556581 -0.0760717764 0.722713768
v 2.93749714 -0.0760736093 1.30140686
v -1.83480954 -0.00137878419 1.32326353
v -1.29713225 -0.00137878419 1.94838715
v -1.30264986 -0.0760742202 1.9451412
v -1.84032714 -0.0760650635 1.3200165
v 2.47374988 -0.001375122 -0.434832156
v 2.83574224 -0.00136840821 -0.473332822
v 2.83021975 -0.0760644525 -0.476570129
v 2.46822739 -0.0760668963 -0.438073099
v 1.04926753 -0.00136108394 -2.72191954
v -0.901499033 -0.0760491937 -3.27632141
v 1.04374504 -0.0760546848 -2.72516179
v -0.895976543 -0.0013549804 -3.27307415
v -2.24197268 -0.0760430917 -3.66270185
v -2.23644519 -0.00135559076 -3.65945482
v -3.22147942 -0.0013568115 -2.1858747
v -2.89705157 -0.00136718748 -1.27060091
v -2.90257168 -0.0760534629 -1.27384675
v -3.22699952 -0.0760485828 -2.18912411
v 2.1799798 -0.001375122 -0.301174313
v 2.47374988 -0.001375122 -0.434832156
v 2.46822739 -0.0760668963 -0.438073099
v 2.17445731 -0.0760583505 -0.304428697
v -2.89705157 -0.00136718748 -1.27060091
v -1.98886776 -0.00136413577 -0.301181018
v -1.99439025 -0.0760601759 -0.304424435
v -2.90257168 -0.0760534629 -1.27384675
v -4.35431862 -0.00135620113 -2.72194624
v -3.22147942 -0.0013568115 -2.1858747
v -3.22699952 -0.0760485828 -2.18912411
v -4.35984373 -0.0760449171 -2.7251935
v -3.20842528 -0.00134460442 -3.98062253
v -4.31296015 -0.00134826661 -4.06116772
v -4.31847763 -0.0760388151 -4.06441689
v -3.21394038 -0.0760418698 -3.98386455
v -4.31296015 -0.00134826661 -4.06116772
v -4.94379711 -0.00134826661 -4.18754864
v -4.94931459 -0.0760412589 -4.19079113
v -4.31847763 -0.0760388151 -4.06441689
v -4.94379711 -0.00134826661 -4.18754864
v -5.07417965 -0.00134765625 -3.87772274
v -5.07969713 -0.0760308802 -3.88096499
v -4.94931459 -0.0760412589 -4.19079113
v -5.07417965 -0.00134765625 -3.87772274
v -4.35431862 -0.00135620113 -2.72194624
v -4.35984373 -0.0760449171 -2.7251935
v -5.07969713 -0.0760308802 -3.88096499
v -2.23644519 -0.00135559076 -3.65945482
v -3.20842528 -0.00134460442 -3.98062253
v -3.21394038 -0.0760418698 -3.98386455
v -2.24197268 -0.0760430917 -3.66270185
v 3.28805661 -0.00136596675 -1.5728631
v 3.31856537 -0.00137084955 -1.91252744
v 3.31305265 -0.0760583505 -1.91577816
v 3.28253412 -0.0760583505 -1.57611144
v 3.37837386 -0.00136779784 -2.08087516
v 3.61736321 -0.00137023919 -2.31685615
v 3.61184573 -0.0760565177 -2.32010317
v 3.37285638 -0.0760571286 -2.0841186
v 3.61736321 -0.00137023919 -2.31685615
v 2.97032332 -0.00136474601 -2.3616693
v 2.96480107 -0.0760565177 -2.36491871
v 3.61184573 -0.0760565177 -2.32010317
v 3.31856537 -0.00137084955 -1.91252744
v 3.37837386 -0.00136779784 -2.08087516
v 3.37285638 -0.0760571286 -2.0841186
v 3.31305265 -0.0760583505 -1.91577816
v 2.97032332 -0.00136474601 -2.3616693
v 2.07128835 -0.00135559076 -2.50818729
v 2.06576586 -0.076052852 -2.51143193
v 2.96480107 -0.0760565177 -2.36491871
v 2.88792801 -0.00136840821 -0.880724788
v 3.04577637 -0.00137207028 -1.24964786
v 3.04025388 -0.0760589615 -1.25289369
v 2.88241053 -0.0760620087 -0.883969426
v 2.83574224 -0.00136840821 -0.473332822
v 2.88792801 -0.00136840821 -0.880724788
v 2.88241053 -0.0760620087 -0.883969426
v 2.83021975 -0.0760644525 -0.476570129
v 3.04577637 -0.00137207028 -1.24964786
v 3.28805661 -0.00136596675 -1.5728631
v 3.28253412 -0.0760583505 -1.57611144
v 3.04025388 -0.0760589615 -1.25289369
v 2.07128835 -0.00135559076 -2.50818729
v 1.04926753 -0.00136108394 -2.72191954
v 1.04374504 -0.0760546848 -2.72516179
v 2.06576586 -0.076052852 -2.51143193
v -0.93498534 -0.00138549798 2.76797843
v 0.216113269 -0.0013885498 3.37674117
v 0.210595697 -0.0760815442 3.37350202
v -0.94050777 -0.0760729983 2.76473331
v 3.94115233 -0.00139892579 4.39994478
v 4.86749029 -0.00139221188 4.0281477
v 4.86197233 -0.0760870352 4.02490759
v 3.93562984 -0.076089479 4.396698
vt 0.498525381 0.263203382
vt 0.505291283 0.25067994
vt 0.490847707 0.235990673
vt 0.472634822 0.275323778
vt 0.435333073 0.282056153
vt 0.484448105 0.22531575
vt 0.397178322 0.274011254
vt 0.476644725 0.205944911
vt 0.384817898 0.244676709
vt 0.470785886 0.19280383
vt 0.359566122 0.22598514
vt 0.46734044 0.178183466
vt 0.355682224 0.200306386
vt 0.461920619 0.160093531
vt 0.346095026 0.180832148
vt 0.458406597 0.127884477
vt 0.352704495 0.129688308
vt 0.466717541 0.123544849
vt 0.335936338 0.0995250866
vt 0.445378691 0.052068606
vt 0.476136237 0.122177221
vt 0.480084896 0.109315023
vt 0.486465186 0.097619459
vt 0.494697779 0.0873260647
vt 0.399634063 0.0355320275
vt 0.333631337 0.0708123744
vt 0.368146867 0.0239313766
vt 0.469902933 0.0583658889
vt 0.497665852 0.0766061991
vt 0.500268996 0.0712741762
vt 0.491753519 0.0625944659
vt 0.50787127 0.0637270659
vt 0.308410853 0.0543931574
vt 0.345589638 0.0142249167
vt 0.318108648 0.0121624246
vt 0.302905351 0.00845918804
vt 0.297621578 0.0182744414
vt 0.010331789 0.234568223
vt 0.0205743928 0.208739221
vt 0.00575141096 0.222161666
vt 0.0335040726 0.250129938
vt 0.0694978833 0.262187421
vt 0.0282658283 0.198718145
vt 0.108662903 0.259757727
vt 0.0387694053 0.180195853
vt 0.125676334 0.232678398
vt 0.0465188585 0.167676136
vt 0.153695554 0.217510447
vt 0.0521716438 0.153358042
vt 0.161633283 0.192452058
vt 0.0603601299 0.135815725
vt 0.174139306 0.17429705
vt 0.0689790845 0.103871457
vt 0.175650924 0.12184301
vt 0.0614138581 0.0982455611
vt 0.196736187 0.0937593281
vt 0.0933222994 0.0305228271
vt 0.0526305698 0.0952883959
vt 0.0506703444 0.0819674432
vt 0.0464107431 0.0693930089
vt 0.0405635871 0.0579650588
vt 0.141490683 0.0204598419
vt 0.203312069 0.0650535971
vt 0.174578995 0.0133329295
vt 0.0683297813 0.0336205997
vt 0.0396129005 0.0472543798
vt 0.038712848 0.0417043529
vt 0.0470160954 0.035334859
vt 0.0352335386 0.0354188271
vt 0.230113596 0.0510546528
vt 0.1982207 0.00678201392
vt 0.225535482 0.00811094418
vt 0.240545124 0.0070678927
vt 0.244694903 0.0167362131
vt 0.0603601299 0.135815725
vt 0.0689790845 0.103871457
vt 0.0672256276 0.103790238
vt 0.0585210361 0.135178208
vt 0.175650924 0.12184301
vt 0.174139306 0.17429705
vt 0.175947681 0.174656674
vt 0.177457079 0.122357316
vt 0.0282658283 0.198718145
vt 0.0370998867 0.179216892
vt 0.02662188 0.19767724
vt 0.0387694053 0.180195853
vt 0.0447706096 0.166802287
vt 0.0465188585 0.167676136
vt 0.125676334 0.232678398
vt 0.108662903 0.259757727
vt 0.109441757 0.261256456
vt 0.126981422 0.234063968
vt 0.0465188585 0.167676136
vt 0.0521716438 0.153358042
vt 0.0503962226 0.152584106
vt 0.0447706096 0.166802287
vt 0.161633283 0.192452058
vt 0.153695554 0.217510447
vt 0.155003086 0.218676522
vt 0.163386002 0.193285897
vt 0.010331789 0.234568223
vt 0.00575141096 0.222161666
vt 0.00436506653 0.221664295
vt 0.0090692807 0.235791489
vt 0.00575141096 0.222161666
vt 0.0205743928 0.208739221
vt 0.0191908423 0.207457468
vt 0.00436506653 0.221664295
vt 0.0205743928 0.208739221
vt 0.0282658283 0.198718145
vt 0.02662188 0.19767724
vt 0.0191908423 0.207457468
vt 0.108662903 0.259757727
vt 0.0694978833 0.262187421
vt 0.0692591071 0.264044702
vt 0.109441757 0.261256456
vt 0.0694978833 0.262187421
vt 0.0335040726 0.250129938
vt 0.0327110626 0.251823992
vt 0.0692591071 0.264044702
vt 0.0521716438 0.153358042
vt 0.0603601299 0.135815725
vt 0.0585210361 0.135178208
vt 0.0503962226 0.152584106
vt 0.174139306 0.17429705
vt 0.161633283 0.192452058
vt 0.163386002 0.193285897
vt 0.175947681 0.174656674
vt 0.0614138581 0.0982455611
vt 0.0526305698 0.0952883959
vt 0.0513751768 0.0961782783
vt 0.0605832152 0.0998227149
vt 0.0933222994 0.0305228271
vt 0.141084537 0.01859143
vt 0.0929768011 0.0286560543
vt 0.141490683 0.0204598419
vt 0.174120948 0.0114750676
vt 0.174578995 0.0133329295
vt 0.203312069 0.0650535971
vt 0.196736187 0.0937593281
vt 0.198422641 0.0945764631
vt 0.2047171 0.0661459863
vt 0.0689790845 0.103871457
vt 0.0614138581 0.0982455611
vt 0.0605832152 0.0998227149
vt 0.0672256276 0.103790238
vt 0.196736187 0.0937593281
vt 0.175650924 0.12184301
vt 0.177457079 0.122357316
vt 0.198422641 0.0945764631
vt 0.230113596 0.0510546528
vt 0.203312069 0.0650535971
vt 0.2047171 0.0661459863
vt 0.231461585 0.0521942191
vt 0.1982207 0.00678201392
vt 0.225535482 0.00811094418
vt 0.225543991 0.00620967522
vt 0.19803898 0.00494687632
vt 0.225535482 0.00811094418
vt 0.240545124 0.0070678927
vt 0.241179287 0.00570777431
vt 0.225543991 0.00620967522
vt 0.240545124 0.0070678927
vt 0.244694903 0.0167362131
vt 0.246452451 0.0171181299
vt 0.241179287 0.00570777431
vt 0.244694903 0.0167362131
vt 0.230113596 0.0510546528
vt 0.231461585 0.0521942191
vt 0.246452451 0.0171181299
vt 0.174578995 0.0133329295
vt 0.1982207 0.00678201392
vt 0.19803898 0.00494687632
vt 0.174120948 0.0114750676
vt 0.0405635871 0.0579650588
vt 0.0396129005 0.0472543798
vt 0.0378024466 0.0474477001
vt 0.0388675891 0.0584893189
vt 0.038712848 0.0417043529
vt 0.0352335386 0.0354188271
vt 0.0348118655 0.0348425917
vt 0.037293043 0.042109143
vt 0.0352335386 0.0354188271
vt 0.0470160954 0.035334859
vt 0.0469018109 0.0337057225
vt 0.0348118655 0.0348425917
vt 0.0396129005 0.0472543798
vt 0.038712848 0.0417043529
vt 0.037293043 0.042109143
vt 0.0378024466 0.0474477001
vt 0.0470160954 0.035334859
vt 0.0683297813 0.0336205997
vt 0.0681321546 0.0317933373
vt 0.0469018109 0.0337057225
vt 0.0506703444 0.0819674432
vt 0.0464107431 0.0693930089
vt 0.0446945317 0.0701076686
vt 0.0487912036 0.0824379772
vt 0.0526305698 0.0952883959
vt 0.0506703444 0.0819674432
vt 0.0487912036 0.0824379772
vt 0.0513751768 0.0961782783
vt 0.0464107431 0.0693930089
vt 0.0405635871 0.0579650588
vt 0.0388675891 0.0584893189
vt 0.0446945317 0.0701076686
vt 0.0683297813 0.0336205997
vt 0.0933222994 0.0305228271
vt 0.0929768011 0.0286560543
vt 0.0681321546 0.0317933373
vt 0.153695554 0.217510447
vt 0.125676334 0.232678398
vt 0.126981422 0.234063968
vt 0.155003086 0.218676522
vt 0.0335040726 0.250129938
vt 0.010331789 0.234568223
vt 0.0090692807 0.235791489
vt 0.0327110626 0.251823992
vn 2.67694008E-06 -1 -6.51707751E-06
vn 1.18188636E-05 -1 -1.2015319E-05
vn -0 -1 -3.61768548E-06
vn -1.93273718E-06 -1 -6.03228636E-06
vn -2.61162342E-07 -1 -3.07052551E-06
vn -4.30617007E-07 -1 -3.47706191E-06
vn -6.34451908E-07 -1 -3.85096064E-06
vn -1.42746319E-06 -1 -6.12483655E-06
vn -1.89302079E-06 -1 -7.55928158E-06
vn -1.47456126E-06 -1 -5.41546888E-06
vn -6.04627758E-07 -1 -2.09029781E-06
vn -5.70050531E-07 -1 -2.34185063E-06
vn -1.0530913E-06 -1 -4.43871158E-06
vn -1.36983067E-06 -1 -7.14844464E-06
vn -1.2264527E-06 -1 -6.95239441E-06
vn -1.48656261E-06 -1 -3.66839936E-06
vn -1.50449671E-06 -1 -3.54863005E-06
vn -1.18204559E-06 -1 -2.60625006E-06
vn -1.80350503E-06 -1 -2.86516092E-06
vn -1.63068898E-06 -1 -2.51721281E-06
vn 4.06273148E-06 -1 -7.5729713E-06
vn 2.25180656E-06 -1 -6.21552135E-06
vn 2.04492426E-06 -1 -6.35788365E-06
vn 6.16482794E-07 -1 -5.16371938E-06
vn -1.95667212E-06 -1 -4.23011261E-06
vn -1.9888364E-06 -1 -4.53753819E-06
vn -1.88593378E-06 -1 -4.87511898E-06
vn 1.20271295E-06 -1 -5.74409432E-06
vn -3.52181382E-06 -1 -1.10711835E-06
vn -1.86529724E-06 -1 -2.15787963E-06
vn -2.40382406E-06 -1 -2.08633878E-06
vn 1.67397758E-07 -1 -2.4279127E-06
vn -2.84127259E-06 -1 -4.0230475E-06
vn -9.67226697E-07 -1 -3.30836224E-06
vn -6.11658652E-06 -1 -1.64412768E-06
vn -1.00513989E-05 -1 1.54454278E-06
vn -1.0051398E-05 -1 1.54454278E-06
vn -1.98812154E-06 1 5.4030902E-06
vn -9.15730766E-07 1 2.91960964E-06
vn 8.64429239E-06 1 -9.97131906E-07
vn 3.60402123E-06 1 9.51831771E-06
vn -1.09265488E-06 1 2.05501033E-06
vn -4.44257608E-07 1 3.63959066E-06
vn 2.35879E-07 1 4.89190688E-06
vn 6.95374752E-07 1 5.64523225E-06
vn 6.99549503E-07 1 5.58721467E-06
vn 7.49980529E-07 1 4.6338896E-06
vn 7.83066127E-07 1 3.9835777E-06
vn 8.96673384E-07 1 3.7355087E-06
vn 9.51616073E-07 1 3.95151665E-06
vn 1.3388086E-06 1 5.33746515E-06
vn 1.43466843E-06 1 5.67080133E-06
vn 1.2743053E-06 1 3.87022374E-06
vn 1.26284988E-06 1 3.7811069E-06
vn -1.53727967E-07 1 3.70764474E-06
vn 1.4672687E-06 1 4.77949743E-06
vn 1.05515539E-06 1 3.79710696E-06
vn -8.00668568E-06 1 9.61866863E-06
vn 5.88944431E-06 1 -1.90329183E-06
vn -7.16913405E-07 1 9.1908696E-06
vn -3.86846841E-06 1 1.44382948E-05
vn 1.67307746E-06 1 6.97687665E-06
vn 9.93734261E-07 1 4.74334047E-06
vn 3.80703398E-07 1 2.02742285E-06
vn -6.66671394E-06 1 1.80433908E-05
vn 1.32565592E-05 1 -3.59529395E-06
vn 7.09798314E-06 1 5.83101701E-06
vn 6.6993116E-06 1 7.8084704E-06
vn 8.60280488E-06 1 -1.63304674E-06
vn 1.08871426E-07 1 3.46087177E-06
vn 3.34687866E-06 1 1.22603105E-05
vn -9.99663825E-07 1 5.24397956E-06
vn 1.9203469E-06 1 4.6414184E-06
vn 1.9203469E-06 1 4.6414184E-06
vn 0.930187881 -0.0529385246 -0.363246411
vn 0.930187881 -0.0529385358 -0.363246411
vn 0.930187881 -0.0529385433 -0.363246441
vn 0.930187941 -0.0529385284 -0.363246381
vn -0.993138969 0.0693067461 0.0941888019
vn -0.993138969 0.0693067312 0.0941888094
vn -0.993138969 0.0693067387 0.0941888094
vn -0.993138969 0.0693067387 0.0941888094
vn 0.79911679 -0.0329399146 -0.600272596
vn 0.79911679 -0.0329399072 -0.600272596
vn 0.79911679 -0.0329399146 -0.600272596
vn 0.79911691 -0.0329399183 -0.600272596
vn 0.779063761 -0.0303276107 -0.62621069
vn 0.779063821 -0.0303276125 -0.62621063
vn -0.790886045 0.0319141373 0.611130595
vn -0.790886045 0.0319141373 0.611130595
vn -0.790886104 0.0319141336 0.611130595
vn -0.790886045 0.0319141373 0.611130595
vn 0.8766765 -0.0439936109 -0.479064643
vn 0.8766765 -0.0439936034 -0.479064584
vn 0.8766765 -0.0439936034 -0.479064643
vn 0.8766765 -0.0439936034 -0.479064643
vn -0.91354394 0.0499736555 0.40365839
vn -0.91354394 0.0499736555 0.40365842
vn -0.91354394 0.0499736555 0.40365839
vn -0.91354394 0.0499736555 0.40365839
vn 0.918399453 -0.0846323743 0.386496991
vn 0.918399453 -0.0846323743 0.386496991
vn 0.918399453 -0.0846323594 0.386496931
vn 0.918399453 -0.0846323594 0.386496991
vn 0.56732583 -0.00610124972 -0.823470891
vn 0.56732583 -0.00610124925 -0.823470891
vn 0.567325771 -0.00610124925 -0.823470891
vn 0.56732583 -0.00610124972 -0.823470891
vn 0.710442424 -0.0219256021 -0.703413665
vn 0.710442424 -0.021925604 -0.703413665
vn 0.710442424 -0.0219256002 -0.703413665
vn 0.710442424 -0.021925604 -0.703413665
vn -0.173010111 -0.0300055016 0.984462857
vn -0.173010141 -0.0300054979 0.984462857
vn -0.173010111 -0.0300054997 0.984462857
vn -0.173010141 -0.0300055016 0.984462857
vn 0.135134369 -0.0530035906 0.989408612
vn 0.135134369 -0.0530035831 0.989408612
vn 0.135134369 -0.0530035868 0.989408612
vn 0.135134384 -0.0530035906 0.989408612
vn 0.847168565 -0.0395838916 -0.529847682
vn 0.847168565 -0.0395838842 -0.529847682
vn 0.847168565 -0.0395838916 -0.529847682
vn 0.847168565 -0.0395838916 -0.529847682
vn -0.757852972 0.0276517123 0.651839137
vn -0.757852972 0.0276517123 0.651839018
vn -0.757852972 0.0276517142 0.651839137
vn -0.757852912 0.027651716 0.651839197
vn 0.105619967 -0.0508753955 0.993104279
vn 0.105619952 -0.0508753844 0.993104279
vn 0.10561996 -0.0508753844 0.993104279
vn 0.10561996 -0.0508753881 0.993104279
vn 0.272540927 0.021633815 -0.96190089
vn 0.272540927 0.0216338132 -0.96190089
vn 0.272540927 0.0216338094 -0.96190089
vn 0.272540927 0.0216338113 -0.961901009
vn 0.27690348 0.0212805048 -0.960662067
vn 0.27690345 0.0212805048 -0.960662067
vn -0.941111088 0.0550482534 0.333585799
vn -0.941111088 0.0550482571 0.333585858
vn -0.941111088 0.0550482571 0.333585858
vn -0.941111088 0.0550482534 0.333585829
vn 0.41309166 -0.0700275153 0.907993138
vn 0.413091689 -0.0700275227 0.907993138
vn 0.41309166 -0.0700275302 0.907993138
vn 0.41309166 -0.0700275302 0.907993138
vn -0.729566753 0.0242392011 0.683480024
vn -0.729566753 0.0242392011 0.683479905
vn -0.729566753 0.0242392011 0.683480024
vn -0.729566753 0.0242391974 0.683479905
vn -0.427722603 -0.00768436585 0.903877318
vn -0.427722633 -0.00768436631 0.903877437
vn -0.427722603 -0.00768436631 0.903877437
vn -0.427722603 -0.00768436678 0.903877318
vn 0.072679691 0.0379414074 -0.996633351
vn 0.0726796836 0.0379414111 -0.996633351
vn 0.0726796836 0.0379414037 -0.996633351
vn 0.0726796836 0.0379414037 -0.996633351
vn 0.196352556 0.0280880928 -0.98013103
vn 0.196352541 0.0280880891 -0.98013103
vn 0.196352541 0.0280880891 -0.98013103
vn 0.196352541 0.0280880928 -0.98013103
vn -0.918404043 0.0846210122 -0.386488408
vn -0.918404043 0.0846210122 -0.386488438
vn -0.918404043 0.0846210122 -0.386488438
vn -0.918404043 0.0846210048 -0.386488438
vn -0.848151982 0.0397478566 0.528259754
vn -0.848151982 0.0397478491 0.528259814
vn -0.848151982 0.0397478491 0.528259754
vn -0.848151982 0.0397478491 0.528259754
vn 0.31369108 0.0180506445 -0.949353516
vn 0.31369108 0.0180506483 -0.949353516
vn 0.31369105 0.0180506445 -0.949353516
vn 0.31369105 0.0180506445 -0.949353516
vn 0.99301368 -0.0772402436 0.0892072171
vn 0.99301368 -0.0772402361 0.0892072171
vn 0.99301368 -0.0772402436 0.0892072245
vn 0.99301368 -0.0772402361 0.0892072171
vn 0.700218856 -0.0825417563 0.709140599
vn 0.700218916 -0.0825417563 0.709140539
vn 0.700218856 -0.0825417712 0.709140599
vn 0.700218856 -0.0825417712 0.709140599
vn 0.0690446123 0.0382526144 -0.996879935
vn 0.0690446123 0.0382526182 -0.996879935
vn 0.0690446123 0.0382526182 -0.996879935
vn 0.0690446049 0.0382526144 -0.996879935
vn 0.938984752 -0.0838405043 0.333584309
vn 0.938984752 -0.0838405192 0.333584309
vn 0.938984752 -0.0838405043 0.333584279
vn 0.938984752 -0.0838405117 0.333584249
vn 0.160770565 0.0309986807 -0.986504853
vn 0.16077055 0.0309986863 -0.986504853
vn 0.16077055 0.0309986826 -0.986504853
vn 0.16077058 0.0309986826 -0.986504853
vn 0.916076899 -0.0847335681 0.391947955
vn 0.916076899 -0.0847335607 0.391947955
vn 0.916076899 -0.0847335607 0.391947955
vn 0.916076899 -0.0847335681 0.391948014
vn 0.988827825 -0.078574568 0.126671121
vn 0.988827825 -0.0785745531 0.126671121
vn 0.988827825 -0.078574568 0.126671135
vn 0.988827825 -0.078574568 0.126671121
vn 0.797266304 -0.0849309787 0.597622931
vn 0.797266304 -0.0849309787 0.597622991
vn 0.797266304 -0.0849309936 0.597622991
vn 0.797266304 -0.0849309936 0.597622931
vn 0.204621002 0.0273580067 -0.978458881
vn 0.204621002 0.0273580067 -0.978458881
vn 0.204621002 0.0273580085 -0.978458881
vn 0.204620972 0.0273580085 -0.978458881
vn -0.46750012 -0.00382177089 0.883984804
vn -0.46750012 -0.00382177089 0.883984804
vn -0.467500061 -0.00382177089 0.883984804
vn -0.467500061 -0.00382177066 0.883984804
vn 0.371623009 -0.0676694736 0.925914228
vn 0.371623009 -0.0676694736 0.925914228
vn 0.37162298 -0.0676694587 0.925914228
vn 0.371623039 -0.0676694736 0.925914228
g MirrorDebris_0
f 3/3/3 2/2/2 1/1/1
f 4/4/4 3/3/3 1/1/1
f 5/5/5 3/3/3 4/4/4
f 6/6/6 3/3/3 5/5/5
f 7/7/7 6/6/6 5/5/5
f 8/8/8 6/6/6 7/7/7
f 9/9/9 8/8/8 7/7/7
f 10/10/10 8/8/8 9/9/9
f 11/11/11 10/10/10 9/9/9
f 12/12/12 10/10/10 11/11/11
f 13/13/13 12/12/12 11/11/11
f 14/14/14 12/12/12 13/13/13
f 15/15/15 14/14/14 13/13/13
f 16/16/16 14/14/14 15/15/15
f 17/17/17 16/16/16 15/15/15
f 18/18/18 16/16/16 17/17/17
f 18/18/18 17/17/17 19/19/19
f 19/19/19 20/20/20 18/18/18
f 21/21/21 18/18/18 20/20/20
f 22/22/22 21/21/21 20/20/20
f 23/23/23 22/22/22 20/20/20
f 24/24/24 23/23/23 20/20/20
f 25/25/25 20/20/20 19/19/19
f 26/26/26 25/25/25 19/19/19
f 27/27/27 25/25/25 26/26/26
f 28/28/28 24/24/24 20/20/20
f 29/29/29 24/24/24 28/28/28
f 30/30/30 29/29/29 28/28/28
f 31/31/31 30/30/30 28/28/28
f 32/32/32 30/30/30 31/31/31
f 33/33/33 27/27/27 26/26/26
f 34/34/34 27/27/27 33/33/33
f 35/35/35 34/34/34 33/33/33
f 36/36/36 35/35/35 33/33/33
f 37/37/37 36/36/36 33/33/33
f 40/40/40 39/39/39 38/38/38
f 39/39/39 41/41/41 38/38/38
f 39/39/39 42/42/42 41/41/41
f 39/39/39 43/43/43 42/42/42
f 43/43/43 44/44/44 42/42/42
f 43/43/43 45/45/45 44/44/44
f 45/45/45 46/46/46 44/44/44
f 45/45/45 47/47/47 46/46/46
f 47/47/47 48/48/48 46/46/46
f 47/47/47 49/49/49 48/48/48
f 49/49/49 50/50/50 48/48/48
f 49/49/49 51/51/51 50/50/50
f 51/51/51 52/52/52 50/50/50
f 51/51/51 53/53/53 52/52/52
f 53/53/53 54/54/54 52/52/52
f 54/54/54 53/53/53 55/55/55
f 56/56/56 54/54/54 55/55/55
f 55/55/55 57/57/57 56/56/56
f 55/55/55 58/58/58 57/57/57
f 58/58/58 59/59/59 57/57/57
f 59/59/59 60/60/60 57/57/57
f 60/60/60 61/61/61 57/57/57
f 57/57/57 62/62/62 56/56/56
f 62/62/62 63/63/63 56/56/56
f 62/62/62 64/64/64 63/63/63
f 61/61/61 65/65/65 57/57/57
f 61/61/61 66/66/66 65/65/65
f 66/66/66 67/67/67 65/65/65
f 67/67/67 68/68/68 65/65/65
f 67/67/67 69/69/69 68/68/68
f 64/64/64 70/70/70 63/63/63
f 64/64/64 71/71/71 70/70/70
f 71/71/71 72/72/72 70/70/70
f 72/72/72 73/73/73 70/70/70
f 73/73/73 74/74/74 70/70/70
f 77/77/77 76/76/76 75/75/75
f 78/78/78 77/77/77 75/75/75
f 81/81/81 80/80/80 79/79/79
f 82/82/82 81/81/81 79/79/79
f 85/85/85 84/84/84 83/83/83
f 84/84/84 86/86/86 83/83/83
f 84/84/84 87/87/87 86/86/86
f 87/87/87 88/88/88 86/86/86
f 91/91/91 90/90/90 89/89/89
f 92/92/92 91/91/91 89/89/89
f 95/95/95 94/94/94 93/93/93
f 96/96/96 95/95/95 93/93/93
f 99/99/99 98/98/98 97/97/97
f 100/100/100 99/99/99 97/97/97
f 103/103/103 102/102/102 101/101/101
f 104/104/104 103/103/103 101/101/101
f 107/107/107 106/106/106 105/105/105
f 108/108/108 107/107/107 105/105/105
f 111/111/111 110/110/110 109/109/109
f 112/112/112 111/111/111 109/109/109
f 115/115/115 114/114/114 113/113/113
f 116/116/116 115/115/115 113/113/113
f 119/119/119 118/118/118 117/117/117
f 120/120/120 119/119/119 117/117/117
f 123/123/123 122/122/122 121/121/121
f 124/124/124 123/123/123 121/121/121
f 127/127/127 126/126/126 125/125/125
f 128/128/128 127/127/127 125/125/125
f 131/131/131 130/130/130 129/129/129
f 132/132/132 131/131/131 129/129/129
f 135/135/135 134/134/134 133/133/133
f 134/134/134 136/136/136 133/133/133
f 134/134/134 137/137/137 136/136/136
f 137/137/137 138/138/138 136/136/136
f 141/141/141 140/140/140 139/139/139
f 142/142/142 141/141/141 139/139/139
f 145/145/145 144/144/144 143/143/143
f 146/146/146 145/145/145 143/143/143
f 149/149/149 148/148/148 147/147/147
f 150/150/150 149/149/149 147/147/147
f 153/153/153 152/152/152 151/151/151
f 154/154/154 153/153/153 151/151/151
f 157/157/157 156/156/156 155/155/155
f 158/158/158 157/157/157 155/155/155
f 161/161/161 160/160/160 159/159/159
f 162/162/162 161/161/161 159/159/159
f 165/165/165 164/164/164 163/163/163
f 166/166/166 165/165/165 163/163/163
f 169/169/169 168/168/168 167/167/167
f 170/170/170 169/169/169 167/167/167
f 173/173/173 172/172/172 171/171/171
f 174/174/174 173/173/173 171/171/171
f 177/177/177 176/176/176 175/175/175
f 178/178/178 177/177/177 175/175/175
f 181/181/181 180/180/180 179/179/179
f 182/182/182 181/181/181 179/179/179
f 185/185/185 184/184/184 183/183/183
f 186/186/186 185/185/185 183/183/183
f 189/189/189 188/188/188 187/187/187
f 190/190/190 189/189/189 187/187/187
f 193/193/193 192/192/192 191/191/191
f 194/194/194 193/193/193 191/191/191
f 197/197/197 196/196/196 195/195/195
f 198/198/198 197/197/197 195/195/195
f 201/201/201 200/200/200 199/199/199
f 202/202/202 201/201/201 199/199/199
f 205/205/205 204/204/204 203/203/203
f 206/206/206 205/205/205 203/203/203
f 209/209/209 208/208/208 207/207/207
f 210/210/210 209/209/209 207/207/207
f 213/213/213 212/212/212 211/211/211
f 214/214/214 213/213/213 211/211/211
f 217/217/217 216/216/216 215/215/215
f 218/218/218 217/217/217 215/215/215
