g ObstacleChipB
v 0.246787101 -0.147382393 -0.474942625
v 0.246787101 -0.0967519358 -0.474942625
v -0.246788323 -0.0967519358 -0.474942625
v -0.246788323 -0.147382393 -0.474942625
v -0.246788323 -0.147382393 -0.474942625
v -0.246788323 -0.0967519358 -0.474942625
v -0.493574202 -0.0967519358 0
v -0.493574202 -0.147382393 0
v -0.493574202 -0.147382393 0
v -0.493574202 -0.0967519358 0
v -0.246788323 -0.0967519358 0.474942625
v -0.246788323 -0.147382393 0.474942625
v -0.246788323 -0.147382393 0.474942625
v -0.246788323 -0.0967519358 0.474942625
v 0.246787101 -0.0967519358 0.474942625
v 0.246787101 -0.147382393 0.474942625
v 0.246787101 -0.147382393 0.474942625
v 0.246787101 -0.0967519358 0.474942625
v 0.493574202 -0.0967519358 0
v 0.493574202 -0.147382393 0
v 0.493574202 -0.147382393 0
v 0.493574202 -0.0967519358 0
v 0.246787101 -0.0967519358 -0.474942625
v 0.246787101 -0.147382393 -0.474942625
v 0.246787101 -0.0967519358 -0.474942625
v 0.493574202 -0.0967519358 0
v 0.466308594 -0.0725564584 0
v 0.232092276 -0.0725564584 -0.450747073
v -0.246788323 -0.0967519358 -0.474942625
v 0.232092276 -0.0725564584 0.450747669
v 0.246787101 -0.0967519358 0.474942625
v -0.232093498 -0.0725564584 -0.450747669
v -0.493574202 -0.0967519358 0
v -0 -0.0725564584 0
v -0.232093498 -0.0725564584 0.450747669
v -0.246788323 -0.0967519358 0.474942625
v -0.466308594 -0.0725564584 0
vt 0.597167969 0.575683594
vt 0.597167969 0.587890625
vt 0.666992188 0.587890625
vt 0.666992188 0.575683594
vt 0.597167969 0.575683594
vt 0.597167969 0.587890625
vt 0.666992188 0.587890625
vt 0.666992188 0.575683594
vt 0.597167969 0.575683594
vt 0.597167969 0.587890625
vt 0.666992188 0.587890625
vt 0.666992188 0.575683594
vt 0.597167969 0.575683594
vt 0.597167969 0.587890625
vt 0.666992188 0.587890625
vt 0.666992188 0.575683594
vt 0.597167969 0.575683594
vt 0.597167969 0.587890625
vt 0.666992188 0.587890625
vt 0.666992188 0.575683594
vt 0.597167969 0.575683594
vt 0.597167969 0.587890625
vt 0.666992188 0.587890625
vt 0.666992188 0.575683594
vt 0.666503906 0.727539062
vt 0.701660156 0.657714844
vt 0.697753906 0.657714844
vt 0.664550781 0.723632812
vt 0.597167969 0.727539062
vt 0.664550781 0.591796875
vt 0.666503906 0.587890625
vt 0.599121094 0.723632812
vt 0.562011719 0.657714844
vt 0.631835938 0.657714844
vt 0.599121094 0.591796875
vt 0.597167969 0.587890625
vt 0.565917969 0.657714844
vn -0 0 -1
vn -0 0 -1
vn -0 0 -1
vn -0 0 -1
vn -0.887207031 0 -0.461181641
vn -0.887207031 0 -0.461181641
vn -0.887207031 0 -0.461181641
vn -0.887207031 0 -0.461181641
vn -0.887207031 0 0.461181641
vn -0.887207031 0 0.461181641
vn -0.887207031 0 0.461181641
vn -0.887207031 0 0.461181641
vn -0 0 1
vn -0 0 1
vn -0 0 1
vn -0 0 1
vn 0.887207031 0 0.461181641
vn 0.887207031 0 0.461181641
vn 0.887207031 0 0.461181641
vn 0.887207031 0 0.461181641
vn 0.887207031 0 -0.461181641
vn 0.887207031 0 -0.461181641
vn 0.887207031 0 -0.461181641
vn 0.887207031 0 -0.461181641
vn 0.3515625 0.760253906 -0.546386719
vn 0.663574219 0.748046875 0
vn 0.153076172 0.98828125 0
vn 0.0832519531 0.98828125 -0.129394531
vn -0.3515625 0.760253906 -0.546386719
vn 0.0832519531 0.98828125 0.129394531
vn 0.3515625 0.760253906 0.546386719
vn -0.0832519531 0.98828125 -0.129394531
vn -0.663574219 0.748046875 0
vn -0 1 0
vn -0.0832519531 0.98828125 0.129394531
vn -0.3515625 0.760253906 0.546386719
vn -0.153076172 0.98828125 0
g ObstacleChipB_0
f 3/3/3 2/2/2 1/1/1
f 4/4/4 3/3/3 1/1/1
f 7/7/7 6/6/6 5/5/5
f 8/8/8 7/7/7 5/5/5
f 11/11/11 10/10/10 9/9/9
f 12/12/12 11/11/11 9/9/9
f 15/15/15 14/14/14 13/13/13
f 16/16/16 15/15/15 13/13/13
f 19/19/19 18/18/18 17/17/17
f 20/20/20 19/19/19 17/17/17
f 23/23/23 22/22/22 21/21/21
f 24/24/24 23/23/23 21/21/21
f 27/27/27 26/26/26 25/25/25
f 28/28/28 27/27/27 25/25/25
f 25/25/25 29/29/29 28/28/28
f 26/26/26 27/27/27 30/30/30
f 31/31/31 26/26/26 30/30/30
f 29/29/29 32/32/32 28/28/28
f 29/29/29 33/33/33 32/32/32
f 28/28/28 34/34/34 27/27/27
f 27/27/27 34/34/34 30/30/30
f 32/32/32 34/34/34 28/28/28
f 31/31/31 30/30/30 35/35/35
f 30/30/30 34/34/34 35/35/35
f 36/36/36 31/31/31 35/35/35
f 33/33/33 37/37/37 32/32/32
f 37/37/37 34/34/34 32/32/32
f 35/35/35 34/34/34 37/37/37
f 36/36/36 35/35/35 37/37/37
f 33/33/33 36/36/36 37/37/37
