g plane_13
v -1.97812796 -0.179800794 -7.1098503E-17
v -1.97812796 0.179800794 7.1098503E-17
v -0 0.179800794 7.1098503E-17
v -0 -0.179800794 -7.1098503E-17
v 1.97812796 -0.179800794 -7.1098503E-17
v -0 -0.179800794 -7.1098503E-17
v -0 0.179800794 7.1098503E-17
v 1.97812796 0.179800794 7.1098503E-17
vt 3.95476818E-05 3.95476818E-05
vt 3.95476818E-05 0.999960423
vt 0.999960423 0.999960423
vt 0.999960423 3.95476818E-05
vt 3.95476818E-05 3.95476818E-05
vt 0.999960423 3.95476818E-05
vt 0.999960423 0.999960423
vt 3.95476818E-05 0.999960423
vn -0 0 1
vn -0 0 1
vn -0 0 1
vn -0 0 1
vn -0 0 1
vn -0 0 1
vn -0 0 1
vn -0 0 1
g plane_13_0
f 3/3/3 2/2/2 1/1/1
f 4/4/4 3/3/3 1/1/1
f 7/7/7 6/6/6 5/5/5
f 8/8/8 7/7/7 5/5/5
