g Rimuru
v 4.75450922E-16 63.0658875 20.1506844
v -4.16694417E-16 58.5164719 19.1914291
v -4.79065418 58.7435379 18.742321
v -1.58865116E-15 54.5164032 16.8901939
v -4.71129799 54.8373642 16.4772091
v -1.22504978E-15 52.2996178 14.4196215
v -4.72699738 52.6679344 14.0630903
v 4.3141892E-16 50.7717323 7.97116661
v -5.11430359 51.1849747 7.78234291
v -1.1369193E-17 51.0735054 1.34581757
v -5.52713585 51.4795761 1.33109474
v -1.07539102E-15 52.0670204 -3.2870121
v -5.64813805 52.4455757 -3.18169594
v -13.8549423 54.0358734 -2.73925018
v -4.76808167 63.1887283 19.7109528
v -11.9031572 59.5396576 16.8712826
v -11.5296402 55.9281769 14.8630648
v -11.4646492 53.9902267 12.7965202
v -12.4548092 52.7707062 7.2786665
v -13.5624866 53.1380577 1.43175888
v -4.56282234 66.7015533 19.6133671
v 1.66840913E-16 66.6603775 20.0274715
v -11.8479376 63.7045593 17.8639374
v -17.0912476 60.5154572 13.9743509
v -16.276577 57.0832787 12.3370037
v -19.1738052 55.8270798 1.87837029
v -19.5831127 56.698822 -1.99836731
v -22.2968826 59.476387 -1.22559166
v -4.2696619 70.2307053 18.9359245
v -3.80206461E-16 70.2737961 19.312767
v -17.4101028 55.2059975 7.21386337
v -15.4750357 55.2344055 11.0950441
v -21.8586483 58.568924 2.61855125
v -23.7087154 63.8765564 -0.0013923645
v -19.6340618 57.7055664 7.93979454
v -23.2719612 62.878746 3.87552452
v -23.3574257 68.3464966 1.24224663
v -20.9668617 61.6243973 9.32750416
v -22.957489 67.2750549 5.07905579
v -20.7671661 65.7787018 10.4370327
v -21.7132454 70.5661163 5.81764126
v -22.069912 71.6499405 2.16132545
v -16.9957619 64.5041656 15.0007839
v -19.7114582 68.9627609 10.8844566
v -16.2028008 67.6373062 15.1806803
v -19.7918282 73.7422256 6.4497366
v -20.0972099 74.8165436 3.04233932
v -11.3220673 66.9956741 17.8747063
v -15.0032663 70.659584 14.9749975
v -18.073143 72.0394363 11.0992489
v -17.3040123 76.6539764 7.00182247
v -17.5540047 77.711937 3.84788704
v -10.0860157 70.2401581 17.549427
v -13.5844936 73.328949 14.4767456
v -15.9881535 74.8126602 11.1674051
v -14.3605366 79.1421051 7.50652599
v -14.5549498 80.1925735 4.53805161
v -9.38300705 82.8347549 5.27314568
v -9.28755188 73.3068619 16.5772152
v -12.3501492 75.1727905 13.9127359
v -13.4741344 77.1002579 11.3204613
v -9.26544762 81.7474442 8.20410156
v -3.88802958 84.2480698 5.66636276
v -3.96875715 73.6157455 17.7265415
v 2.28165318E-16 73.7441635 18.0552692
v -8.73950672 77.1877289 14.1824741
v -3.72798491 78.0081787 14.981432
v 9.92435152E-16 78.2505264 15.235323
v 1.456701E-15 81.795639 11.6265907
v -3.76004648 81.4670334 11.4403229
v 3.82745363E-16 83.4811707 8.80655003
v -9.0173378 80.2249527 10.8900757
v -3.84098148 83.1173859 8.66677189
v -1.34601879E-15 84.6279144 5.77203369
v 14.3605366 79.1421051 7.50652599
v 9.38300705 82.8347549 5.27314568
v 14.5549498 80.1925735 4.53805161
v 17.5540047 77.711937 3.84788704
v 9.26544762 81.7474442 8.20410156
v 3.88802958 84.2480698 5.66636276
v 17.3040123 76.6539764 7.00182247
v 20.0972099 74.8165436 3.04233932
v 13.4741344 77.1002579 11.3204613
v 3.84098148 83.1173859 8.66677189
v -1.34601879E-15 84.6279144 5.77203369
v 3.82745363E-16 83.4811707 8.80655003
v 19.7918282 73.7422256 6.4497366
v 22.069912 71.6499405 2.16132545
v 9.0173378 80.2249527 10.8900757
v 3.76004648 81.4670334 11.4403229
v 1.456701E-15 81.795639 11.6265907
v 8.73950672 77.1877289 14.1824741
v 3.72798491 78.0081787 14.981432
v 9.92435152E-16 78.2505264 15.235323
v 2.28165318E-16 73.7441635 18.0552692
v 3.96875715 73.6157455 17.7265415
v -3.80206461E-16 70.2737961 19.312767
v 4.2696619 70.2307053 18.9359245
v 1.66840913E-16 66.6603775 20.0274715
v 9.28755188 73.3068619 16.5772152
v 12.3501492 75.1727905 13.9127359
v 15.9881535 74.8126602 11.1674051
v 13.5844936 73.328949 14.4767456
v 18.073143 72.0394363 11.0992489
v 10.0860157 70.2401581 17.549427
v 4.56282234 66.7015533 19.6133671
v 4.75450922E-16 63.0658875 20.1506844
v 15.0032663 70.659584 14.9749975
v 11.3220673 66.9956741 17.8747063
v 21.7132454 70.5661163 5.81764126
v 23.3574257 68.3464966 1.24224663
v 19.7114582 68.9627609 10.8844566
v 16.2028008 67.6373062 15.1806803
v 11.8479376 63.7045593 17.8639374
v 4.76808167 63.1887283 19.7109528
v 22.957489 67.2750549 5.07905579
v 20.7671661 65.7787018 10.4370327
v 4.79065418 58.7435379 18.742321
v -4.16694417E-16 58.5164719 19.1914291
v -1.58865116E-15 54.5164032 16.8901939
v 23.2719612 62.878746 3.87552452
v 23.7087154 63.8765564 -0.0013923645
v 11.9031572 59.5396576 16.8712826
v 4.71129799 54.8373642 16.4772091
v -1.22504978E-15 52.2996178 14.4196215
v 16.9957619 64.5041656 15.0007839
v 17.0912476 60.5154572 13.9743509
v 20.9668617 61.6243973 9.32750416
v 21.8586483 58.568924 2.61855125
v 22.2968826 59.476387 -1.22559166
v 11.5296402 55.9281769 14.8630648
v 4.72699738 52.6679344 14.0630903
v 4.3141892E-16 50.7717323 7.97116661
v 19.6340618 57.7055664 7.93979454
v 16.276577 57.0832787 12.3370037
v 19.1738052 55.8270798 1.87837029
v 19.5831127 56.698822 -1.99836731
v 13.8549423 54.0358734 -2.73925018
v 5.11430359 51.1849747 7.78234291
v -1.1369193E-17 51.0735054 1.34581757
v 11.4646492 53.9902267 12.7965202
v 17.4101028 55.2059975 7.21386337
v 15.4750357 55.2344055 11.0950441
v 12.4548092 52.7707062 7.2786665
v 5.52713585 51.4795761 1.33109474
v -1.07539102E-15 52.0670204 -3.2870121
v 5.64813805 52.4455757 -3.18169594
v 13.5624866 53.1380577 1.43175888
v -14.3605366 80.8320923 1.45523071
v -9.38300705 82.8347549 5.27314568
v -14.5549498 80.1925735 4.53805161
v -17.5540047 77.711937 3.84788704
v -9.26544762 83.4233246 2.20342827
v -3.88802958 84.2480698 5.66636276
v -17.3040123 78.4411545 0.602489471
v -20.0972099 74.8165436 3.04233932
v -13.4741344 81.0613632 -2.8629837
v -3.84098148 84.8354263 2.51478767
v -1.34601879E-15 84.6279144 5.77203369
v -19.7918282 75.6631317 -0.428442001
v -22.069912 71.6499405 2.16132545
v -9.0173378 83.5123901 -0.881347656
v -15.9881535 79.0243225 -3.91314697
v -21.7132454 72.6173935 -1.52738571
v -23.3574257 68.3464966 1.24224663
v -18.073143 76.6156006 -5.28669357
v 8.05188031E-18 85.2193146 2.58294487
v -3.76004648 84.8605576 -0.710933685
v -8.73950672 82.6195374 -5.26716995
v -12.3501492 80.7553406 -6.07668304
v -13.5844936 79.4696732 -7.51137733
v 3.84098148 84.8354263 2.51478767
v 3.88802958 84.2480698 5.66636276
v -9.28755188 80.5394592 -9.32034683
v 9.26544762 83.4233246 2.20342827
v 9.38300705 82.8347549 5.27314568
v 14.3605366 80.8320923 1.45523071
v 14.5549498 80.1925735 4.53805161
v 17.5540047 77.711937 3.84788704
v 17.3040123 78.4411545 0.602489471
v 20.0972099 74.8165436 3.04233932
v 13.4741344 81.0613632 -2.8629837
v 9.0173378 83.5123901 -0.881347656
v 19.7918282 75.6631317 -0.428442001
v 22.069912 71.6499405 2.16132545
v 3.76004648 84.8605576 -0.710933685
v 8.73950672 82.6195374 -5.26716995
v 15.9881535 79.0243225 -3.91314697
v 21.7132454 72.6173935 -1.52738571
v 23.3574257 68.3464966 1.24224663
v 3.42693252E-16 85.2383118 -0.700683594
v 12.3501492 80.7553406 -6.07668304
v 18.073143 76.6156006 -5.28669357
v 13.5844936 79.4696732 -7.51137733
v 3.72798491 83.7357635 -5.5273037
v -3.72798491 83.7357635 -5.5273037
v 9.28755188 80.5394592 -9.32034683
v -1.86116458E-16 84.0747375 -5.61944962
v -3.96875715 81.3994293 -10.1444874
v 2.53075869E-16 81.679718 -10.3595104
v 3.96875715 81.3994293 -10.1444874
v 6.61548296E-16 79.3614578 -13.2274971
v -4.2696619 79.1292572 -12.9272537
v 4.2696619 79.1292572 -12.9272537
v 10.0860157 78.4187698 -11.7358074
v 15.0032663 77.4434509 -9.31604767
v -10.0860157 78.4187698 -11.7358074
v -15.0032663 77.4434509 -9.31604767
v 3.64327373E-16 76.6395264 -15.7048225
v 11.3220673 75.81073 -13.6893425
v 19.7114582 73.8712616 -6.69142723
v -11.3220673 75.81073 -13.6893425
v -19.7114582 73.8712616 -6.69142723
v 4.56282234 76.460144 -15.3291931
v 2.07542527E-16 73.6272354 -17.6661644
v -4.56282234 76.460144 -15.3291931
v -16.2028008 74.963623 -11.0525055
v -22.957489 69.4181061 -2.59454346
v -11.8479376 72.9886017 -15.3794327
v -20.7671661 70.914444 -7.95251083
v -23.2719612 65.0319519 -3.83444214
v -23.7087154 63.8765564 -0.0013923645
v -4.76808167 73.5044022 -17.2264519
v -16.9957619 72.1889725 -12.5162697
v -20.9668617 66.7841034 -9.1479187
v -17.0912476 68.2434692 -13.6972847
v -21.8586483 60.6921234 -4.98397446
v -22.2968826 59.476387 -1.22559166
v -11.9031572 68.9097595 -16.6803284
v -19.6340618 62.7111282 -9.98368645
v -19.1738052 57.9620056 -5.7661953
v -19.5831127 56.698822 -1.99836731
v -13.8549423 54.0358734 -2.73925018
v -16.276577 64.4575653 -14.0681534
v -17.4101028 60.1957626 -10.6530018
v -13.5624866 55.4292603 -6.77238464
v -15.4750357 62.231636 -13.9598656
v -11.5296402 64.7782516 -16.8263512
v -5.52713585 53.9577255 -7.5425396
v -5.64813805 52.4455757 -3.18169594
v -1.07539102E-15 52.0670204 -3.2870121
v -12.4548092 58.1452522 -11.9658623
v -11.4646492 62.0486679 -16.0584106
v -5.11430359 57.0491905 -13.2156525
v -3.43306358E-17 53.6178932 -7.76481438
v -4.72699738 61.5735092 -17.8250542
v -4.71129799 64.681282 -18.7709427
v 3.43957581E-16 56.7933769 -13.5906105
v 5.52713585 53.9577255 -7.5425396
v 5.64813805 52.4455757 -3.18169594
v 13.8549423 54.0358734 -2.73925018
v -4.79065418 69.1981812 -18.6926231
v -3.99487605E-16 61.4430771 -18.3203316
v 5.11430359 57.0491905 -13.2156525
v -6.44571638E-16 64.6206207 -19.2901115
v 4.72699738 61.5735092 -17.8250542
v -6.17777524E-17 69.2366104 -19.1942024
v 4.71129799 64.681282 -18.7709427
v 4.79065418 69.1981812 -18.6926231
v 4.76808167 73.5044022 -17.2264519
v 11.9031572 68.9097595 -16.6803284
v 11.8479376 72.9886017 -15.3794327
v 11.5296402 64.7782516 -16.8263512
v 11.4646492 62.0486679 -16.0584106
v 17.0912476 68.2434692 -13.6972847
v 16.2028008 74.963623 -11.0525055
v 16.9957619 72.1889725 -12.5162697
v 20.7671661 70.914444 -7.95251083
v 16.276577 64.4575653 -14.0681534
v 12.4548092 58.1452522 -11.9658623
v 22.957489 69.4181061 -2.59454346
v 20.9668617 66.7841034 -9.1479187
v 23.2719612 65.0319519 -3.83444214
v 23.7087154 63.8765564 -0.0013923645
v 15.4750357 62.231636 -13.9598656
v 19.6340618 62.7111282 -9.98368645
v 21.8586483 60.6921234 -4.98397446
v 22.2968826 59.476387 -1.22559166
v 17.4101028 60.1957626 -10.6530018
v 19.1738052 57.9620056 -5.7661953
v 19.5831127 56.698822 -1.99836731
v 13.5624866 55.4292603 -6.77238464
vt 0.775878906 0.221557617
vt 0.775878906 0.195556641
vt 0.802734375 0.195922852
vt 0.775878906 0.169189453
vt 0.802734375 0.169799805
vt 0.775878906 0.149291992
vt 0.8046875 0.150024414
vt 0.775878906 0.104309082
vt 0.812988281 0.107116699
vt 0.775878906 0.0567626953
vt 0.824707031 0.0628051758
vt 0.775878906 0.0193481445
vt 0.834472656 0.0286560059
vt 0.909667969 0.0639648438
vt 0.802734375 0.221679688
vt 0.842285156 0.196655273
vt 0.841796875 0.172119141
vt 0.844238281 0.154907227
vt 0.862792969 0.121704102
vt 0.889160156 0.0893554688
vt 0.802246094 0.241943359
vt 0.775878906 0.24206543
vt 0.842285156 0.221435547
vt 0.875976562 0.196533203
vt 0.873535156 0.172607422
vt 0.928222656 0.123962402
vt 0.954101562 0.107849121
vt 0.97265625 0.140625
vt 0.801757812 0.263183594
vt 0.775878906 0.263671875
vt 0.89453125 0.143554688
vt 0.87109375 0.158081055
vt 0.944824219 0.151733398
vt 0.984375 0.18371582
vt 0.907226562 0.1640625
vt 0.954589844 0.188598633
vt 0.987304688 0.227416992
vt 0.9140625 0.193603516
vt 0.955566406 0.225219727
vt 0.9140625 0.222900391
vt 0.950683594 0.253662109
vt 0.979492188 0.261474609
vt 0.875976562 0.221435547
vt 0.911132812 0.245849609
vt 0.874511719 0.241333008
vt 0.939453125 0.282714844
vt 0.964355469 0.295166016
vt 0.841796875 0.240966797
vt 0.871582031 0.26171875
vt 0.904785156 0.26953125
vt 0.922851562 0.310546875
vt 0.942871094 0.326416016
vt 0.836914062 0.261474609
vt 0.866699219 0.281005859
vt 0.894042969 0.291992188
vt 0.899902344 0.334960938
vt 0.916015625 0.353027344
vt 0.868164062 0.383300781
vt 0.835449219 0.281982422
vt 0.861816406 0.295410156
vt 0.877929688 0.312011719
vt 0.857421875 0.361572266
vt 0.809570312 0.401367188
vt 0.801269531 0.28515625
vt 0.775878906 0.285888672
vt 0.837890625 0.311767578
vt 0.802246094 0.318359375
vt 0.775878906 0.319824219
vt 0.775878906 0.354736328
vt 0.806152344 0.352294922
vt 0.775878906 0.379150391
vt 0.84765625 0.340820312
vt 0.810058594 0.375732422
vt 0.775878906 0.404785156
vt 0.899902344 0.334960938
vt 0.868164062 0.383300781
vt 0.916015625 0.353027344
vt 0.942871094 0.326416016
vt 0.857421875 0.361572266
vt 0.809570312 0.401367188
vt 0.922851562 0.310546875
vt 0.964355469 0.295166016
vt 0.877929688 0.312011719
vt 0.810058594 0.375732422
vt 0.775878906 0.404785156
vt 0.775878906 0.379150391
vt 0.939453125 0.282714844
vt 0.979492188 0.261474609
vt 0.84765625 0.340820312
vt 0.806152344 0.352294922
vt 0.775878906 0.354736328
vt 0.837890625 0.311767578
vt 0.802246094 0.318359375
vt 0.775878906 0.319824219
vt 0.775878906 0.285888672
vt 0.801269531 0.28515625
vt 0.775878906 0.263671875
vt 0.801757812 0.263183594
vt 0.775878906 0.24206543
vt 0.835449219 0.281982422
vt 0.861816406 0.295410156
vt 0.894042969 0.291992188
vt 0.866699219 0.281005859
vt 0.904785156 0.26953125
vt 0.836914062 0.261474609
vt 0.802246094 0.241943359
vt 0.775878906 0.221557617
vt 0.871582031 0.26171875
vt 0.841796875 0.240966797
vt 0.950683594 0.253662109
vt 0.987304688 0.227416992
vt 0.911132812 0.245849609
vt 0.874511719 0.241333008
vt 0.842285156 0.221435547
vt 0.802734375 0.221679688
vt 0.955566406 0.225219727
vt 0.9140625 0.222900391
vt 0.802734375 0.195922852
vt 0.775878906 0.195556641
vt 0.775878906 0.169189453
vt 0.954589844 0.188598633
vt 0.984375 0.18371582
vt 0.842285156 0.196655273
vt 0.802734375 0.169799805
vt 0.775878906 0.149291992
vt 0.875976562 0.221435547
vt 0.875976562 0.196533203
vt 0.9140625 0.193603516
vt 0.944824219 0.151733398
vt 0.97265625 0.140625
vt 0.841796875 0.172119141
vt 0.8046875 0.150024414
vt 0.775878906 0.104309082
vt 0.907226562 0.1640625
vt 0.873535156 0.172607422
vt 0.928222656 0.123962402
vt 0.954101562 0.107849121
vt 0.909667969 0.0639648438
vt 0.812988281 0.107116699
vt 0.775878906 0.0567626953
vt 0.844238281 0.154907227
vt 0.89453125 0.143554688
vt 0.87109375 0.158081055
vt 0.862792969 0.121704102
vt 0.824707031 0.0628051758
vt 0.775878906 0.0193481445
vt 0.834472656 0.0286560059
vt 0.889160156 0.0893554688
vt 0.531738281 0.505371094
vt 0.482910156 0.583007812
vt 0.556640625 0.534179688
vt 0.599121094 0.4921875
vt 0.465332031 0.547851562
vt 0.400390625 0.611328125
vt 0.566894531 0.466308594
vt 0.632324219 0.443359375
vt 0.496826172 0.468261719
vt 0.391845703 0.571777344
vt 0.339355469 0.619140625
vt 0.593261719 0.422363281
vt 0.65625 0.390869141
vt 0.449951172 0.515625
vt 0.521484375 0.436523438
vt 0.610839844 0.376708984
vt 0.669433594 0.337158203
vt 0.538085938 0.400634766
vt 0.338867188 0.577148438
vt 0.385009766 0.534179688
vt 0.434326172 0.468994141
vt 0.471191406 0.441650391
vt 0.478759766 0.418457031
vt 0.285888672 0.572753906
vt 0.278076172 0.612792969
vt 0.430175781 0.420654297
vt 0.212036133 0.550292969
vt 0.195068359 0.5859375
vt 0.14465332 0.509277344
vt 0.120361328 0.538574219
vt 0.0772094727 0.497558594
vt 0.108825684 0.470947266
vt 0.0426940918 0.449462891
vt 0.178710938 0.471435547
vt 0.22644043 0.517578125
vt 0.0813598633 0.427490234
vt 0.0180664062 0.397216797
vt 0.291992188 0.53515625
vt 0.241210938 0.470947266
vt 0.153442383 0.440185547
vt 0.0630493164 0.382080078
vt 0.00354576111 0.343994141
vt 0.338378906 0.537597656
vt 0.203979492 0.444335938
vt 0.135986328 0.404541016
vt 0.195800781 0.421386719
vt 0.297119141 0.480224609
vt 0.378662109 0.479492188
vt 0.244506836 0.422607422
vt 0.337890625 0.480957031
vt 0.376464844 0.426269531
vt 0.337402344 0.427734375
vt 0.298339844 0.427001953
vt 0.337158203 0.392333984
vt 0.376708984 0.391113281
vt 0.297363281 0.392089844
vt 0.241699219 0.389892578
vt 0.187744141 0.390869141
vt 0.432373047 0.387939453
vt 0.486328125 0.387695312
vt 0.336669922 0.358154297
vt 0.23425293 0.357421875
vt 0.124816895 0.367431641
vt 0.439208984 0.355224609
vt 0.548828125 0.363037109
vt 0.296386719 0.357910156
vt 0.336425781 0.325195312
vt 0.376953125 0.357177734
vt 0.491210938 0.35546875
vt 0.619140625 0.331542969
vt 0.440185547 0.323974609
vt 0.553710938 0.326416016
vt 0.618164062 0.273681641
vt 0.667480469 0.267822266
vt 0.376953125 0.325195312
vt 0.493164062 0.323974609
vt 0.554199219 0.280029297
vt 0.493652344 0.284423828
vt 0.604003906 0.215209961
vt 0.647460938 0.19921875
vt 0.439453125 0.284667969
vt 0.542480469 0.233520508
vt 0.577148438 0.171020508
vt 0.618164062 0.145385742
vt 0.546875 0.0741577148
vt 0.489746094 0.246459961
vt 0.522460938 0.200927734
vt 0.513671875 0.114746094
vt 0.484619141 0.223632812
vt 0.438720703 0.245849609
vt 0.409179688 0.0718383789
vt 0.426025391 0.0171051025
vt 0.333251953 0.0037689209
vt 0.470947266 0.165893555
vt 0.442138672 0.218383789
vt 0.390625 0.143432617
vt 0.333740234 0.0643310547
vt 0.378417969 0.211547852
vt 0.376220703 0.242919922
vt 0.334472656 0.140991211
vt 0.258300781 0.0733642578
vt 0.240478516 0.0189666748
vt 0.12097168 0.0784301758
vt 0.376220703 0.284179688
vt 0.335205078 0.211791992
vt 0.278564453 0.14453125
vt 0.335449219 0.243286133
vt 0.292236328 0.212402344
vt 0.3359375 0.283935547
vt 0.294677734 0.243774414
vt 0.295654297 0.284912109
vt 0.295654297 0.325927734
vt 0.232421875 0.286621094
vt 0.232543945 0.326171875
vt 0.232421875 0.247802734
vt 0.228393555 0.220581055
vt 0.178344727 0.287597656
vt 0.182128906 0.358642578
vt 0.17956543 0.326904297
vt 0.11920166 0.330810547
vt 0.181396484 0.249511719
vt 0.198608398 0.168579102
vt 0.0537109375 0.337158203
vt 0.117614746 0.284423828
vt 0.0533752441 0.279541016
vt 0.00423431396 0.274414062
vt 0.186035156 0.22668457
vt 0.128295898 0.237670898
vt 0.0667724609 0.220581055
vt 0.0228424072 0.205444336
vt 0.147827148 0.204589844
vt 0.0926513672 0.17590332
vt 0.0511779785 0.151123047
vt 0.154907227 0.118347168
vn -0 -0.106933594 0.994140625
vn -0 -0.359619141 0.933105469
vn -0.203613281 -0.354736328 0.912597656
vn -0 -0.609375 0.79296875
vn -0.203369141 -0.594726562 0.777832031
vn -0 -0.921386719 0.388671875
vn -0.178955078 -0.903320312 0.389892578
vn -0 -0.995605469 0.0927734375
vn -0.159912109 -0.982421875 0.0986938477
vn -0 -0.993652344 -0.113891602
vn -0.150024414 -0.982910156 -0.106079102
vn -0 -0.963378906 -0.269042969
vn -0.146484375 -0.952636719 -0.266113281
vn -0.302978516 -0.91796875 -0.256347656
vn -0.194702148 -0.106506348 0.975097656
vn -0.375488281 -0.342285156 0.861328125
vn -0.358398438 -0.564453125 0.743652344
vn -0.302246094 -0.870605469 0.387695312
vn -0.292480469 -0.951171875 0.0994262695
vn -0.304931641 -0.948730469 -0.0823364258
vn -0.179321289 0.112365723 0.977539062
vn -0 0.112304688 0.993652344
vn -0.367675781 -0.0982666016 0.924804688
vn -0.653808594 -0.303466797 0.693359375
vn -0.619628906 -0.517089844 0.590820312
vn -0.557128906 -0.830566406 -0.0114746094
vn -0.559082031 -0.798339844 -0.223022461
vn -0.875488281 -0.465576172 -0.130004883
vn -0.166870117 0.265136719 0.949707031
vn -0 0.265869141 0.963867188
vn -0.536621094 -0.828613281 0.158691406
vn -0.500488281 -0.78125 0.372314453
vn -0.847167969 -0.515625 0.130004883
vn -0.993164062 -0.113891602 -0.0317993164
vn -0.780273438 -0.524902344 0.339599609
vn -0.955078125 -0.188232422 0.229003906
vn -0.980957031 0.186401367 0.0520629883
vn -0.857421875 -0.247436523 0.451660156
vn -0.948730469 0.109130859 0.297363281
vn -0.854003906 0.0321044922 0.51953125
vn -0.873535156 0.34765625 0.340332031
vn -0.901367188 0.417480469 0.116577148
vn -0.647460938 -0.0495605469 0.760253906
vn -0.791503906 0.275146484 0.545898438
vn -0.599609375 0.193237305 0.776855469
vn -0.790039062 0.492919922 0.364257812
vn -0.813964844 0.559570312 0.15625
vn -0.345458984 0.131591797 0.929199219
vn -0.547363281 0.337890625 0.765625
vn -0.721191406 0.421875 0.549316406
vn -0.690429688 0.612304688 0.385498047
vn -0.7109375 0.677734375 0.189208984
vn -0.311279297 0.278320312 0.908691406
vn -0.489257812 0.455810547 0.743652344
vn -0.640136719 0.541992188 0.544433594
vn -0.5390625 0.737792969 0.405761719
vn -0.546875 0.806640625 0.225219727
vn -0.366699219 0.895996094 0.250244141
vn -0.280517578 0.443603516 0.851074219
vn -0.428955078 0.55078125 0.715820312
vn -0.515625 0.663085938 0.54296875
vn -0.366455078 0.831054688 0.418212891
vn -0.194091797 0.944824219 0.263916016
vn -0.159423828 0.452392578 0.877441406
vn -0 0.453125 0.891601562
vn -0.267089844 0.610839844 0.745117188
vn -0.164550781 0.62109375 0.766113281
vn -0 0.624511719 0.78125
vn -0 0.77734375 0.62890625
vn -0.178466797 0.767578125 0.615234375
vn -0 0.900878906 0.434570312
vn -0.330810547 0.748046875 0.575195312
vn -0.191040039 0.883789062 0.427001953
vn -0 0.963378906 0.269042969
vn 0.5390625 0.737792969 0.405761719
vn 0.366699219 0.895996094 0.250244141
vn 0.546875 0.806640625 0.225219727
vn 0.7109375 0.677734375 0.189208984
vn 0.366455078 0.831054688 0.418212891
vn 0.194091797 0.944824219 0.263916016
vn 0.690429688 0.612304688 0.385498047
vn 0.813964844 0.559570312 0.15625
vn 0.515625 0.663085938 0.54296875
vn 0.191040039 0.883789062 0.427001953
vn -0 0.963378906 0.269042969
vn -0 0.900878906 0.434570312
vn 0.790039062 0.492919922 0.364257812
vn 0.901367188 0.417480469 0.116577148
vn 0.330810547 0.748046875 0.575195312
vn 0.178466797 0.767578125 0.615234375
vn -0 0.77734375 0.62890625
vn 0.267089844 0.610839844 0.745117188
vn 0.164550781 0.62109375 0.766113281
vn -0 0.624511719 0.78125
vn -0 0.453125 0.891601562
vn 0.159423828 0.452392578 0.877441406
vn -0 0.265869141 0.963867188
vn 0.166870117 0.265136719 0.949707031
vn -0 0.112304688 0.993652344
vn 0.280517578 0.443603516 0.851074219
vn 0.428955078 0.55078125 0.715820312
vn 0.640136719 0.541992188 0.544433594
vn 0.489257812 0.455810547 0.743652344
vn 0.721191406 0.421875 0.549316406
vn 0.311279297 0.278320312 0.908691406
vn 0.179321289 0.112365723 0.977539062
vn -0 -0.106933594 0.994140625
vn 0.547363281 0.337890625 0.765625
vn 0.345458984 0.131591797 0.929199219
vn 0.873535156 0.34765625 0.340332031
vn 0.980957031 0.186401367 0.0520629883
vn 0.791503906 0.275146484 0.545898438
vn 0.599609375 0.193237305 0.776855469
vn 0.367675781 -0.0982666016 0.924804688
vn 0.194702148 -0.106506348 0.975097656
vn 0.948730469 0.109130859 0.297363281
vn 0.854003906 0.0321044922 0.51953125
vn 0.203613281 -0.354736328 0.912597656
vn -0 -0.359619141 0.933105469
vn -0 -0.609375 0.79296875
vn 0.955078125 -0.188232422 0.229003906
vn 0.993164062 -0.113891602 -0.0317993164
vn 0.375488281 -0.342285156 0.861328125
vn 0.203369141 -0.594726562 0.777832031
vn -0 -0.921386719 0.388671875
vn 0.647460938 -0.0495605469 0.760253906
vn 0.653808594 -0.303466797 0.693359375
vn 0.857421875 -0.247436523 0.451660156
vn 0.847167969 -0.515625 0.130004883
vn 0.875488281 -0.465576172 -0.130004883
vn 0.358398438 -0.564453125 0.743652344
vn 0.178955078 -0.903320312 0.389892578
vn -0 -0.995605469 0.0927734375
vn 0.780273438 -0.524902344 0.339599609
vn 0.619628906 -0.517089844 0.590820312
vn 0.557128906 -0.830566406 -0.0114746094
vn 0.559082031 -0.798339844 -0.223022461
vn 0.302978516 -0.91796875 -0.256347656
vn 0.159912109 -0.982421875 0.0986938477
vn -0 -0.993652344 -0.113891602
vn 0.302246094 -0.870605469 0.387695312
vn 0.536621094 -0.828613281 0.158691406
vn 0.500488281 -0.78125 0.372314453
vn 0.292480469 -0.951171875 0.0994262695
vn 0.150024414 -0.982910156 -0.106079102
vn -0 -0.963378906 -0.269042969
vn 0.146484375 -0.952636719 -0.266113281
vn 0.304931641 -0.948730469 -0.0823364258
vn -0.539550781 0.841308594 0.0353393555
vn -0.366699219 0.895996094 0.250244141
vn -0.546875 0.806640625 0.225219727
vn -0.7109375 0.677734375 0.189208984
vn -0.366455078 0.927734375 0.0729980469
vn -0.194091797 0.944824219 0.263916016
vn -0.690429688 0.723144531 -0.0125427246
vn -0.813964844 0.559570312 0.15625
vn -0.515625 0.848144531 -0.121032715
vn -0.191040039 0.977050781 0.0926513672
vn -0 0.963378906 0.269042969
vn -0.790527344 0.609863281 -0.0563049316
vn -0.901367188 0.417480469 0.116577148
vn -0.330810547 0.937988281 -0.104614258
vn -0.640625 0.745605469 -0.184814453
vn -0.874023438 0.473388672 -0.111206055
vn -0.980957031 0.186401367 0.0520629883
vn -0.721679688 0.645019531 -0.251464844
vn -0 0.995605469 0.0949707031
vn -0.178588867 0.975585938 -0.12878418
vn -0.267333984 0.908203125 -0.321533203
vn -0.429199219 0.841796875 -0.327392578
vn -0.489746094 0.774414062 -0.400390625
vn 0.191040039 0.977050781 0.0926513672
vn 0.194091797 0.944824219 0.263916016
vn -0.280761719 0.819824219 -0.499023438
vn 0.366455078 0.927734375 0.0729980469
vn 0.366699219 0.895996094 0.250244141
vn 0.539550781 0.841308594 0.0353393555
vn 0.546875 0.806640625 0.225219727
vn 0.7109375 0.677734375 0.189208984
vn 0.690429688 0.723144531 -0.0125427246
vn 0.813964844 0.559570312 0.15625
vn 0.515625 0.848144531 -0.121032715
vn 0.330810547 0.937988281 -0.104614258
vn 0.790527344 0.609863281 -0.0563049316
vn 0.901367188 0.417480469 0.116577148
vn 0.178588867 0.975585938 -0.12878418
vn 0.267333984 0.908203125 -0.321533203
vn 0.640625 0.745605469 -0.184814453
vn 0.874023438 0.473388672 -0.111206055
vn 0.980957031 0.186401367 0.0520629883
vn -0 0.990722656 -0.135620117
vn 0.429199219 0.841796875 -0.327392578
vn 0.721679688 0.645019531 -0.251464844
vn 0.489746094 0.774414062 -0.400390625
vn 0.164672852 0.928222656 -0.333984375
vn -0.164672852 0.928222656 -0.333984375
vn 0.280761719 0.819824219 -0.499023438
vn -0 0.938476562 -0.345214844
vn -0.159545898 0.841308594 -0.517089844
vn -0 0.848632812 -0.528808594
vn 0.159545898 0.841308594 -0.517089844
vn -0 0.726074219 -0.6875
vn -0.166992188 0.717773438 -0.67578125
vn 0.166992188 0.717773438 -0.67578125
vn 0.311523438 0.708007812 -0.633789062
vn 0.547851562 0.685058594 -0.48046875
vn -0.311523438 0.708007812 -0.633789062
vn -0.547851562 0.685058594 -0.48046875
vn -0 0.609375 -0.792480469
vn 0.345703125 0.592773438 -0.727539062
vn 0.791503906 0.517578125 -0.324707031
vn -0.345703125 0.592773438 -0.727539062
vn -0.791503906 0.517578125 -0.324707031
vn 0.179443359 0.601074219 -0.778808594
vn -0 0.422119141 -0.906738281
vn -0.179443359 0.601074219 -0.778808594
vn -0.600097656 0.566894531 -0.564941406
vn -0.948730469 0.246948242 -0.197998047
vn -0.367675781 0.393554688 -0.842773438
vn -0.854003906 0.295898438 -0.427978516
vn -0.955078125 -0.0428771973 -0.293701172
vn -0.993164062 -0.113891602 -0.0317993164
vn -0.194702148 0.412353516 -0.890136719
vn -0.647949219 0.350341797 -0.676269531
vn -0.856933594 0.0214538574 -0.514648438
vn -0.653320312 0.0981445312 -0.750488281
vn -0.846679688 -0.374023438 -0.378417969
vn -0.875488281 -0.465576172 -0.130004883
vn -0.375488281 0.151733398 -0.914550781
vn -0.780273438 -0.273681641 -0.5625
vn -0.557128906 -0.716308594 -0.420410156
vn -0.559082031 -0.798339844 -0.223022461
vn -0.302978516 -0.91796875 -0.256347656
vn -0.619140625 -0.137207031 -0.772949219
vn -0.536132812 -0.626953125 -0.564941406
vn -0.3046875 -0.854492188 -0.421142578
vn -0.500488281 -0.476074219 -0.723144531
vn -0.358154297 -0.0988769531 -0.928222656
vn -0.150024414 -0.895507812 -0.418457031
vn -0.146484375 -0.952636719 -0.266113281
vn -0 -0.963378906 -0.269042969
vn -0.292236328 -0.762207031 -0.577636719
vn -0.302001953 -0.544433594 -0.782226562
vn -0.159790039 -0.7890625 -0.593261719
vn -0 -0.908691406 -0.417236328
vn -0.178833008 -0.571289062 -0.801269531
vn -0.20324707 -0.10748291 -0.973144531
vn -0 -0.803710938 -0.595214844
vn 0.150024414 -0.895507812 -0.418457031
vn 0.146484375 -0.952636719 -0.266113281
vn 0.302978516 -0.91796875 -0.256347656
vn -0.203613281 0.167480469 -0.96484375
vn -0 -0.587402344 -0.809570312
vn 0.159790039 -0.7890625 -0.593261719
vn -0 -0.111938477 -0.993652344
vn 0.178833008 -0.571289062 -0.801269531
vn -0 0.174072266 -0.984863281
vn 0.20324707 -0.10748291 -0.973144531
vn 0.203613281 0.167480469 -0.96484375
vn 0.194702148 0.412353516 -0.890136719
vn 0.375488281 0.151733398 -0.914550781
vn 0.367675781 0.393554688 -0.842773438
vn 0.358154297 -0.0988769531 -0.928222656
vn 0.302001953 -0.544433594 -0.782226562
vn 0.653320312 0.0981445312 -0.750488281
vn 0.600097656 0.566894531 -0.564941406
vn 0.647949219 0.350341797 -0.676269531
vn 0.854003906 0.295898438 -0.427978516
vn 0.619140625 -0.137207031 -0.772949219
vn 0.292236328 -0.762207031 -0.577636719
vn 0.948730469 0.246948242 -0.197998047
vn 0.856933594 0.0214538574 -0.514648438
vn 0.955078125 -0.0428771973 -0.293701172
vn 0.993164062 -0.113891602 -0.0317993164
vn 0.500488281 -0.476074219 -0.723144531
vn 0.780273438 -0.273681641 -0.5625
vn 0.846679688 -0.374023438 -0.378417969
vn 0.875488281 -0.465576172 -0.130004883
vn 0.536132812 -0.626953125 -0.564941406
vn 0.557128906 -0.716308594 -0.420410156
vn 0.559082031 -0.798339844 -0.223022461
vn 0.3046875 -0.854492188 -0.421142578
g Rimuru_0
f 3/3/3 2/2/2 1/1/1
f 4/4/4 2/2/2 3/3/3
f 5/5/5 4/4/4 3/3/3
f 6/6/6 4/4/4 5/5/5
f 7/7/7 6/6/6 5/5/5
f 8/8/8 6/6/6 7/7/7
f 9/9/9 8/8/8 7/7/7
f 10/10/10 8/8/8 9/9/9
f 11/11/11 10/10/10 9/9/9
f 12/12/12 10/10/10 11/11/11
f 13/13/13 12/12/12 11/11/11
f 14/14/14 13/13/13 11/11/11
f 15/15/15 3/3/3 1/1/1
f 5/5/5 3/3/3 16/16/16
f 16/16/16 3/3/3 15/15/15
f 7/7/7 5/5/5 17/17/17
f 17/17/17 5/5/5 16/16/16
f 9/9/9 7/7/7 18/18/18
f 18/18/18 7/7/7 17/17/17
f 11/11/11 9/9/9 19/19/19
f 19/19/19 9/9/9 18/18/18
f 20/20/20 14/14/14 11/11/11
f 20/20/20 11/11/11 19/19/19
f 15/15/15 1/1/1 21/21/21
f 1/1/1 22/22/22 21/21/21
f 23/23/23 16/16/16 15/15/15
f 23/23/23 15/15/15 21/21/21
f 16/16/16 24/24/24 17/17/17
f 16/16/16 23/23/23 24/24/24
f 17/17/17 25/25/25 18/18/18
f 24/24/24 25/25/25 17/17/17
f 20/20/20 26/26/26 14/14/14
f 26/26/26 27/27/27 14/14/14
f 28/28/28 27/27/27 26/26/26
f 21/21/21 22/22/22 29/29/29
f 22/22/22 30/30/30 29/29/29
f 31/31/31 26/26/26 20/20/20
f 19/19/19 31/31/31 20/20/20
f 18/18/18 32/32/32 19/19/19
f 25/25/25 32/32/32 18/18/18
f 32/32/32 31/31/31 19/19/19
f 33/33/33 28/28/28 26/26/26
f 33/33/33 26/26/26 31/31/31
f 34/34/34 28/28/28 33/33/33
f 35/35/35 31/31/31 32/32/32
f 25/25/25 35/35/35 32/32/32
f 35/35/35 33/33/33 31/31/31
f 36/36/36 34/34/34 33/33/33
f 36/36/36 33/33/33 35/35/35
f 37/37/37 34/34/34 36/36/36
f 38/38/38 35/35/35 25/25/25
f 38/38/38 36/36/36 35/35/35
f 24/24/24 38/38/38 25/25/25
f 39/39/39 37/37/37 36/36/36
f 39/39/39 36/36/36 38/38/38
f 40/40/40 38/38/38 24/24/24
f 40/40/40 39/39/39 38/38/38
f 39/39/39 41/41/41 37/37/37
f 41/41/41 42/42/42 37/37/37
f 43/43/43 40/40/40 24/24/24
f 23/23/23 43/43/43 24/24/24
f 40/40/40 44/44/44 39/39/39
f 44/44/44 41/41/41 39/39/39
f 43/43/43 45/45/45 40/40/40
f 45/45/45 43/43/43 23/23/23
f 45/45/45 44/44/44 40/40/40
f 41/41/41 46/46/46 42/42/42
f 46/46/46 47/47/47 42/42/42
f 48/48/48 45/45/45 23/23/23
f 48/48/48 23/23/23 21/21/21
f 48/48/48 21/21/21 29/29/29
f 45/45/45 49/49/49 44/44/44
f 49/49/49 45/45/45 48/48/48
f 44/44/44 50/50/50 41/41/41
f 50/50/50 46/46/46 41/41/41
f 49/49/49 50/50/50 44/44/44
f 46/46/46 51/51/51 47/47/47
f 51/51/51 52/52/52 47/47/47
f 53/53/53 49/49/49 48/48/48
f 53/53/53 48/48/48 29/29/29
f 49/49/49 54/54/54 50/50/50
f 54/54/54 49/49/49 53/53/53
f 50/50/50 55/55/55 46/46/46
f 55/55/55 51/51/51 46/46/46
f 54/54/54 55/55/55 50/50/50
f 51/51/51 56/56/56 52/52/52
f 56/56/56 57/57/57 52/52/52
f 58/58/58 57/57/57 56/56/56
f 53/53/53 29/29/29 59/59/59
f 59/59/59 54/54/54 53/53/53
f 54/54/54 60/60/60 55/55/55
f 60/60/60 54/54/54 59/59/59
f 55/55/55 61/61/61 51/51/51
f 61/61/61 56/56/56 51/51/51
f 60/60/60 61/61/61 55/55/55
f 62/62/62 58/58/58 56/56/56
f 62/62/62 56/56/56 61/61/61
f 63/63/63 58/58/58 62/62/62
f 29/29/29 64/64/64 59/59/59
f 29/29/29 30/30/30 64/64/64
f 30/30/30 65/65/65 64/64/64
f 66/66/66 60/60/60 59/59/59
f 66/66/66 61/61/61 60/60/60
f 59/59/59 64/64/64 66/66/66
f 64/64/64 65/65/65 67/67/67
f 64/64/64 67/67/67 66/66/66
f 65/65/65 68/68/68 67/67/67
f 68/68/68 69/69/69 67/67/67
f 69/69/69 70/70/70 67/67/67
f 67/67/67 70/70/70 66/66/66
f 69/69/69 71/71/71 70/70/70
f 66/66/66 72/72/72 61/61/61
f 70/70/70 72/72/72 66/66/66
f 72/72/72 62/62/62 61/61/61
f 73/73/73 63/63/63 62/62/62
f 73/73/73 62/62/62 72/72/72
f 70/70/70 73/73/73 72/72/72
f 71/71/71 73/73/73 70/70/70
f 74/74/74 63/63/63 73/73/73
f 71/71/71 74/74/74 73/73/73
f 77/77/77 76/76/76 75/75/75
f 77/77/77 75/75/75 78/78/78
f 76/76/76 79/79/79 75/75/75
f 76/76/76 80/80/80 79/79/79
f 75/75/75 81/81/81 78/78/78
f 78/78/78 81/81/81 82/82/82
f 75/75/75 79/79/79 83/83/83
f 75/75/75 83/83/83 81/81/81
f 80/80/80 84/84/84 79/79/79
f 80/80/80 85/85/85 84/84/84
f 85/85/85 86/86/86 84/84/84
f 81/81/81 87/87/87 82/82/82
f 82/82/82 87/87/87 88/88/88
f 79/79/79 84/84/84 89/89/89
f 79/79/79 89/89/89 83/83/83
f 84/84/84 86/86/86 90/90/90
f 84/84/84 90/90/90 89/89/89
f 86/86/86 91/91/91 90/90/90
f 89/89/89 90/90/90 92/92/92
f 89/89/89 92/92/92 83/83/83
f 90/90/90 91/91/91 93/93/93
f 90/90/90 93/93/93 92/92/92
f 91/91/91 94/94/94 93/93/93
f 94/94/94 95/95/95 93/93/93
f 95/95/95 96/96/96 93/93/93
f 93/93/93 96/96/96 92/92/92
f 95/95/95 97/97/97 96/96/96
f 97/97/97 98/98/98 96/96/96
f 97/97/97 99/99/99 98/98/98
f 96/96/96 100/100/100 92/92/92
f 96/96/96 98/98/98 100/100/100
f 83/83/83 92/92/92 101/101/101
f 101/101/101 92/92/92 100/100/100
f 83/83/83 101/101/101 102/102/102
f 83/83/83 102/102/102 81/81/81
f 81/81/81 102/102/102 87/87/87
f 103/103/103 101/101/101 100/100/100
f 101/101/101 103/103/103 102/102/102
f 102/102/102 104/104/104 87/87/87
f 102/102/102 103/103/103 104/104/104
f 103/103/103 100/100/100 105/105/105
f 98/98/98 105/105/105 100/100/100
f 99/99/99 106/106/106 98/98/98
f 99/99/99 107/107/107 106/106/106
f 108/108/108 103/103/103 105/105/105
f 103/103/103 108/108/108 104/104/104
f 109/109/109 105/105/105 98/98/98
f 106/106/106 109/109/109 98/98/98
f 108/108/108 105/105/105 109/109/109
f 87/87/87 104/104/104 110/110/110
f 87/87/87 110/110/110 88/88/88
f 88/88/88 110/110/110 111/111/111
f 104/104/104 108/108/108 112/112/112
f 104/104/104 112/112/112 110/110/110
f 113/113/113 108/108/108 109/109/109
f 108/108/108 113/113/113 112/112/112
f 114/114/114 109/109/109 106/106/106
f 113/113/113 109/109/109 114/114/114
f 107/107/107 115/115/115 106/106/106
f 115/115/115 114/114/114 106/106/106
f 110/110/110 116/116/116 111/111/111
f 110/110/110 112/112/112 116/116/116
f 112/112/112 113/113/113 117/117/117
f 112/112/112 117/117/117 116/116/116
f 118/118/118 115/115/115 107/107/107
f 119/119/119 118/118/118 107/107/107
f 119/119/119 120/120/120 118/118/118
f 111/111/111 116/116/116 121/121/121
f 122/122/122 111/111/111 121/121/121
f 118/118/118 123/123/123 115/115/115
f 123/123/123 114/114/114 115/115/115
f 120/120/120 124/124/124 118/118/118
f 118/118/118 124/124/124 123/123/123
f 120/120/120 125/125/125 124/124/124
f 126/126/126 113/113/113 114/114/114
f 113/113/113 126/126/126 117/117/117
f 126/126/126 114/114/114 127/127/127
f 114/114/114 123/123/123 127/127/127
f 117/117/117 126/126/126 127/127/127
f 116/116/116 117/117/117 128/128/128
f 121/121/121 116/116/116 128/128/128
f 128/128/128 117/117/117 127/127/127
f 122/122/122 121/121/121 129/129/129
f 130/130/130 122/122/122 129/129/129
f 124/124/124 131/131/131 123/123/123
f 127/127/127 123/123/123 131/131/131
f 125/125/125 132/132/132 124/124/124
f 124/124/124 132/132/132 131/131/131
f 125/125/125 133/133/133 132/132/132
f 121/121/121 128/128/128 134/134/134
f 129/129/129 121/121/121 134/134/134
f 128/128/128 127/127/127 135/135/135
f 135/135/135 127/127/127 131/131/131
f 134/134/134 128/128/128 135/135/135
f 130/130/130 129/129/129 136/136/136
f 137/137/137 130/130/130 136/136/136
f 137/137/137 136/136/136 138/138/138
f 133/133/133 139/139/139 132/132/132
f 133/133/133 140/140/140 139/139/139
f 132/132/132 141/141/141 131/131/131
f 135/135/135 131/131/131 141/141/141
f 132/132/132 139/139/139 141/141/141
f 129/129/129 134/134/134 142/142/142
f 136/136/136 129/129/129 142/142/142
f 134/134/134 135/135/135 143/143/143
f 143/143/143 135/135/135 141/141/141
f 142/142/142 134/134/134 143/143/143
f 143/143/143 141/141/141 144/144/144
f 139/139/139 144/144/144 141/141/141
f 142/142/142 143/143/143 144/144/144
f 140/140/140 145/145/145 139/139/139
f 139/139/139 145/145/145 144/144/144
f 140/140/140 146/146/146 145/145/145
f 146/146/146 147/147/147 145/145/145
f 147/147/147 138/138/138 145/145/145
f 136/136/136 142/142/142 148/148/148
f 142/142/142 144/144/144 148/148/148
f 145/145/145 148/148/148 144/144/144
f 136/136/136 148/148/148 138/138/138
f 138/138/138 148/148/148 145/145/145
f 151/151/151 150/150/150 149/149/149
f 151/151/151 149/149/149 152/152/152
f 150/150/150 153/153/153 149/149/149
f 150/150/150 154/154/154 153/153/153
f 149/149/149 155/155/155 152/152/152
f 152/152/152 155/155/155 156/156/156
f 149/149/149 153/153/153 157/157/157
f 149/149/149 157/157/157 155/155/155
f 154/154/154 158/158/158 153/153/153
f 154/154/154 159/159/159 158/158/158
f 155/155/155 160/160/160 156/156/156
f 156/156/156 160/160/160 161/161/161
f 153/153/153 162/162/162 157/157/157
f 153/153/153 158/158/158 162/162/162
f 155/155/155 163/163/163 160/160/160
f 157/157/157 163/163/163 155/155/155
f 160/160/160 164/164/164 161/161/161
f 161/161/161 164/164/164 165/165/165
f 163/163/163 166/166/166 160/160/160
f 160/160/160 166/166/166 164/164/164
f 159/159/159 167/167/167 158/158/158
f 158/158/158 168/168/168 162/162/162
f 158/158/158 167/167/167 168/168/168
f 162/162/162 169/169/169 157/157/157
f 162/162/162 168/168/168 169/169/169
f 157/157/157 170/170/170 163/163/163
f 157/157/157 169/169/169 170/170/170
f 170/170/170 171/171/171 163/163/163
f 163/163/163 171/171/171 166/166/166
f 167/167/167 159/159/159 172/172/172
f 159/159/159 173/173/173 172/172/172
f 170/170/170 169/169/169 174/174/174
f 171/171/171 170/170/170 174/174/174
f 172/172/172 173/173/173 175/175/175
f 173/173/173 176/176/176 175/175/175
f 175/175/175 176/176/176 177/177/177
f 176/176/176 178/178/178 177/177/177
f 177/177/177 178/178/178 179/179/179
f 180/180/180 177/177/177 179/179/179
f 180/180/180 179/179/179 181/181/181
f 175/175/175 177/177/177 182/182/182
f 182/182/182 177/177/177 180/180/180
f 172/172/172 175/175/175 183/183/183
f 183/183/183 175/175/175 182/182/182
f 184/184/184 180/180/180 181/181/181
f 184/184/184 181/181/181 185/185/185
f 186/186/186 172/172/172 183/183/183
f 167/167/167 172/172/172 186/186/186
f 187/187/187 183/183/183 182/182/182
f 186/186/186 183/183/183 187/187/187
f 188/188/188 182/182/182 180/180/180
f 188/188/188 180/180/180 184/184/184
f 189/189/189 184/184/184 185/185/185
f 189/189/189 185/185/185 190/190/190
f 191/191/191 167/167/167 186/186/186
f 167/167/167 191/191/191 168/168/168
f 187/187/187 182/182/182 192/192/192
f 192/192/192 182/182/182 188/188/188
f 193/193/193 188/188/188 184/184/184
f 193/193/193 184/184/184 189/189/189
f 194/194/194 192/192/192 188/188/188
f 194/194/194 188/188/188 193/193/193
f 191/191/191 186/186/186 195/195/195
f 195/195/195 186/186/186 187/187/187
f 168/168/168 191/191/191 196/196/196
f 168/168/168 196/196/196 169/169/169
f 187/187/187 192/192/192 197/197/197
f 192/192/192 194/194/194 197/197/197
f 198/198/198 191/191/191 195/195/195
f 191/191/191 198/198/198 196/196/196
f 196/196/196 199/199/199 169/169/169
f 199/199/199 174/174/174 169/169/169
f 198/198/198 200/200/200 196/196/196
f 200/200/200 198/198/198 195/195/195
f 200/200/200 199/199/199 196/196/196
f 201/201/201 195/195/195 187/187/187
f 201/201/201 200/200/200 195/195/195
f 197/197/197 201/201/201 187/187/187
f 200/200/200 202/202/202 199/199/199
f 202/202/202 200/200/200 201/201/201
f 199/199/199 203/203/203 174/174/174
f 202/202/202 203/203/203 199/199/199
f 204/204/204 201/201/201 197/197/197
f 204/204/204 202/202/202 201/201/201
f 197/197/197 194/194/194 205/205/205
f 205/205/205 204/204/204 197/197/197
f 194/194/194 206/206/206 205/205/205
f 206/206/206 194/194/194 193/193/193
f 203/203/203 207/207/207 174/174/174
f 171/171/171 174/174/174 207/207/207
f 208/208/208 171/171/171 207/207/207
f 171/171/171 208/208/208 166/166/166
f 209/209/209 202/202/202 204/204/204
f 202/202/202 209/209/209 203/203/203
f 205/205/205 210/210/210 204/204/204
f 205/205/205 206/206/206 210/210/210
f 206/206/206 193/193/193 211/211/211
f 211/211/211 193/193/193 189/189/189
f 212/212/212 207/207/207 203/203/203
f 208/208/208 207/207/207 212/212/212
f 166/166/166 208/208/208 213/213/213
f 166/166/166 213/213/213 164/164/164
f 214/214/214 209/209/209 204/204/204
f 210/210/210 214/214/214 204/204/204
f 215/215/215 209/209/209 214/214/214
f 209/209/209 216/216/216 203/203/203
f 216/216/216 212/212/212 203/203/203
f 209/209/209 215/215/215 216/216/216
f 217/217/217 208/208/208 212/212/212
f 208/208/208 217/217/217 213/213/213
f 164/164/164 213/213/213 218/218/218
f 164/164/164 218/218/218 165/165/165
f 219/219/219 212/212/212 216/216/216
f 217/217/217 212/212/212 219/219/219
f 213/213/213 217/217/217 220/220/220
f 213/213/213 220/220/220 218/218/218
f 165/165/165 218/218/218 221/221/221
f 222/222/222 165/165/165 221/221/221
f 215/215/215 223/223/223 216/216/216
f 223/223/223 219/219/219 216/216/216
f 224/224/224 217/217/217 219/219/219
f 217/217/217 224/224/224 220/220/220
f 218/218/218 220/220/220 225/225/225
f 221/221/221 218/218/218 225/225/225
f 220/220/220 224/224/224 226/226/226
f 224/224/224 219/219/219 226/226/226
f 225/225/225 220/220/220 226/226/226
f 222/222/222 221/221/221 227/227/227
f 228/228/228 222/222/222 227/227/227
f 229/229/229 219/219/219 223/223/223
f 219/219/219 229/229/229 226/226/226
f 221/221/221 225/225/225 230/230/230
f 227/227/227 221/221/221 230/230/230
f 228/228/228 227/227/227 231/231/231
f 232/232/232 228/228/228 231/231/231
f 232/232/232 231/231/231 233/233/233
f 225/225/225 226/226/226 234/234/234
f 230/230/230 225/225/225 234/234/234
f 227/227/227 230/230/230 235/235/235
f 231/231/231 227/227/227 235/235/235
f 231/231/231 236/236/236 233/233/233
f 231/231/231 235/235/235 236/236/236
f 235/235/235 230/230/230 237/237/237
f 230/230/230 234/234/234 237/237/237
f 234/234/234 226/226/226 238/238/238
f 226/226/226 229/229/229 238/238/238
f 233/233/233 236/236/236 239/239/239
f 240/240/240 233/233/233 239/239/239
f 241/241/241 240/240/240 239/239/239
f 235/235/235 242/242/242 236/236/236
f 235/235/235 237/237/237 242/242/242
f 239/239/239 236/236/236 242/242/242
f 237/237/237 234/234/234 243/243/243
f 237/237/237 243/243/243 242/242/242
f 234/234/234 238/238/238 243/243/243
f 244/244/244 239/239/239 242/242/242
f 244/244/244 242/242/242 243/243/243
f 245/245/245 241/241/241 239/239/239
f 245/245/245 239/239/239 244/244/244
f 246/246/246 243/243/243 238/238/238
f 246/246/246 244/244/244 243/243/243
f 247/247/247 238/238/238 229/229/229
f 247/247/247 246/246/246 238/238/238
f 248/248/248 244/244/244 246/246/246
f 248/248/248 245/245/245 244/244/244
f 241/241/241 245/245/245 249/249/249
f 250/250/250 241/241/241 249/249/249
f 251/251/251 250/250/250 249/249/249
f 252/252/252 247/247/247 229/229/229
f 252/252/252 229/229/229 223/223/223
f 252/252/252 223/223/223 215/215/215
f 253/253/253 246/246/246 247/247/247
f 253/253/253 248/248/248 246/246/246
f 245/245/245 248/248/248 254/254/254
f 249/249/249 245/245/245 254/254/254
f 255/255/255 247/247/247 252/252/252
f 255/255/255 253/253/253 247/247/247
f 248/248/248 253/253/253 256/256/256
f 254/254/254 248/248/248 256/256/256
f 257/257/257 252/252/252 215/215/215
f 257/257/257 255/255/255 252/252/252
f 253/253/253 255/255/255 258/258/258
f 256/256/256 253/253/253 258/258/258
f 255/255/255 257/257/257 259/259/259
f 259/259/259 257/257/257 215/215/215
f 258/258/258 255/255/255 259/259/259
f 260/260/260 259/259/259 215/215/215
f 260/260/260 215/215/215 214/214/214
f 258/258/258 259/259/259 261/261/261
f 261/261/261 259/259/259 260/260/260
f 262/262/262 260/260/260 214/214/214
f 262/262/262 261/261/261 260/260/260
f 210/210/210 262/262/262 214/214/214
f 256/256/256 258/258/258 263/263/263
f 263/263/263 258/258/258 261/261/261
f 254/254/254 256/256/256 264/264/264
f 264/264/264 256/256/256 263/263/263
f 261/261/261 265/265/265 263/263/263
f 261/261/261 262/262/262 265/265/265
f 210/210/210 266/266/266 262/262/262
f 206/206/206 266/266/266 210/210/210
f 266/266/266 206/206/206 211/211/211
f 266/266/266 267/267/267 262/262/262
f 262/262/262 267/267/267 265/265/265
f 267/267/267 266/266/266 268/268/268
f 266/266/266 211/211/211 268/268/268
f 267/267/267 268/268/268 265/265/265
f 265/265/265 269/269/269 263/263/263
f 263/263/263 269/269/269 264/264/264
f 270/270/270 254/254/254 264/264/264
f 249/249/249 254/254/254 270/270/270
f 268/268/268 211/211/211 271/271/271
f 211/211/211 189/189/189 271/271/271
f 271/271/271 189/189/189 190/190/190
f 268/268/268 272/272/272 265/265/265
f 268/268/268 271/271/271 272/272/272
f 265/265/265 272/272/272 269/269/269
f 271/271/271 190/190/190 273/273/273
f 271/271/271 273/273/273 272/272/272
f 190/190/190 274/274/274 273/273/273
f 269/269/269 275/275/275 264/264/264
f 264/264/264 275/275/275 270/270/270
f 272/272/272 276/276/276 269/269/269
f 272/272/272 273/273/273 276/276/276
f 269/269/269 276/276/276 275/275/275
f 273/273/273 274/274/274 277/277/277
f 273/273/273 277/277/277 276/276/276
f 274/274/274 278/278/278 277/277/277
f 276/276/276 279/279/279 275/275/275
f 275/275/275 279/279/279 270/270/270
f 276/276/276 277/277/277 279/279/279
f 277/277/277 278/278/278 280/280/280
f 277/277/277 280/280/280 279/279/279
f 278/278/278 281/281/281 280/280/280
f 280/280/280 281/281/281 251/251/251
f 270/270/270 279/279/279 282/282/282
f 279/279/279 280/280/280 282/282/282
f 282/282/282 280/280/280 251/251/251
f 282/282/282 249/249/249 270/270/270
f 282/282/282 251/251/251 249/249/249
