g SealedCaveChipA
v 0.246787101 -0.145930529 -0.474942625
v 0.246787101 -0.0194681548 -0.474942625
v -0.246788323 -0.0194681548 -0.474943221
v -0.246788323 -0.145930529 -0.474943221
v -0.246788323 -0.145930529 -0.474943221
v -0.246788323 -0.0194681548 -0.474943221
v -0.493575424 -0.0194681548 0
v -0.493575424 -0.145930529 0
v -0.493575424 -0.145930529 0
v -0.493575424 -0.0194681548 0
v -0.246788323 -0.0194681548 0.474942625
v -0.246788323 -0.145930529 0.474942625
v -0.246788323 -0.145930529 0.474942625
v -0.246788323 -0.0194681548 0.474942625
v 0.246787101 -0.0194681548 0.474942625
v 0.246787101 -0.145930529 0.474942625
v 0.246787101 -0.145930529 0.474942625
v 0.246787101 -0.0194681548 0.474942625
v 0.493575424 -0.0194681548 0
v 0.493575424 -0.145930529 0
v 0.493575424 -0.145930529 0
v 0.493575424 -0.0194681548 0
v 0.246787101 -0.0194681548 -0.474942625
v 0.246787101 -0.145930529 -0.474942625
v 0.246787101 -0.0194681548 -0.474942625
v 0.493575424 -0.0194681548 0
v 0.469035625 1.90734859E-08 0
v 0.233562008 1.90734859E-08 -0.453165591
v -0.246788323 -0.0194681548 -0.474943221
v 0.233562008 1.90734859E-08 0.453166485
v 0.246787101 -0.0194681548 0.474942625
v -0.233563229 1.90734859E-08 -0.453165889
v -0.493575424 -0.0194681548 0
v -0 1.90734859E-08 0
v -0.233563229 1.90734859E-08 0.453166485
v -0.246788323 -0.0194681548 0.474942625
v -0.469035625 1.90734859E-08 0
vt 0.4609375 0.669433594
vt 0.4609375 0.690429688
vt 0.528808594 0.690429688
vt 0.528808594 0.669433594
vt 0.4609375 0.669433594
vt 0.4609375 0.690429688
vt 0.528808594 0.690429688
vt 0.528808594 0.669433594
vt 0.4609375 0.669433594
vt 0.4609375 0.690429688
vt 0.528808594 0.690429688
vt 0.528808594 0.669433594
vt 0.4609375 0.669433594
vt 0.4609375 0.690429688
vt 0.528808594 0.690429688
vt 0.528808594 0.669433594
vt 0.4609375 0.669433594
vt 0.4609375 0.690429688
vt 0.528808594 0.690429688
vt 0.528808594 0.669433594
vt 0.4609375 0.669433594
vt 0.4609375 0.690429688
vt 0.528808594 0.690429688
vt 0.528808594 0.669433594
vt 0.528320312 0.82421875
vt 0.561523438 0.757324219
vt 0.556640625 0.757324219
vt 0.525390625 0.819335938
vt 0.461181641 0.82421875
vt 0.525390625 0.6953125
vt 0.528808594 0.690429688
vt 0.463867188 0.819335938
vt 0.427734375 0.757324219
vt 0.494628906 0.757324219
vt 0.463867188 0.6953125
vt 0.4609375 0.690429688
vt 0.432861328 0.757324219
vn 1.54972076E-06 0 -1
vn 1.54972076E-06 0 -1
vn 1.54972076E-06 0 -1
vn 1.54972076E-06 0 -1
vn -0.887207031 0 -0.461181641
vn -0.887207031 0 -0.461181641
vn -0.887207031 0 -0.461181641
vn -0.887207031 0 -0.461181641
vn -0.887207031 0 0.461181641
vn -0.887207031 0 0.461181641
vn -0.887207031 0 0.461181641
vn -0.887207031 0 0.461181641
vn -0 0 1
vn -0 0 1
vn -0 0 1
vn -0 0 1
vn 0.887207031 0 0.461181641
vn 0.887207031 0 0.461181641
vn 0.887207031 0 0.461181641
vn 0.887207031 0 0.461181641
vn 0.887207031 0 -0.461181641
vn 0.887207031 0 -0.461181641
vn 0.887207031 0 -0.461181641
vn 0.887207031 0 -0.461181641
vn 0.328613281 0.794433594 -0.510742188
vn 0.621582031 0.783203125 0
vn 0.125976562 0.9921875 0
vn 0.0685424805 0.991699219 -0.106567383
vn -0.328613281 0.794433594 -0.510742188
vn 0.0685424805 0.991699219 0.106567383
vn 0.328613281 0.794433594 0.510742188
vn -0.0685424805 0.991699219 -0.106567383
vn -0.621582031 0.783203125 -6.55651093E-07
vn -0 1 0
vn -0.0685424805 0.991699219 0.106567383
vn -0.328613281 0.794433594 0.510742188
vn -0.125976562 0.9921875 -1.1920929E-07
g SealedCaveChipA_0
f 3/3/3 2/2/2 1/1/1
f 4/4/4 3/3/3 1/1/1
f 7/7/7 6/6/6 5/5/5
f 8/8/8 7/7/7 5/5/5
f 11/11/11 10/10/10 9/9/9
f 12/12/12 11/11/11 9/9/9
f 15/15/15 14/14/14 13/13/13
f 16/16/16 15/15/15 13/13/13
f 19/19/19 18/18/18 17/17/17
f 20/20/20 19/19/19 17/17/17
f 23/23/23 22/22/22 21/21/21
f 24/24/24 23/23/23 21/21/21
f 27/27/27 26/26/26 25/25/25
f 28/28/28 27/27/27 25/25/25
f 25/25/25 29/29/29 28/28/28
f 26/26/26 27/27/27 30/30/30
f 31/31/31 26/26/26 30/30/30
f 29/29/29 32/32/32 28/28/28
f 29/29/29 33/33/33 32/32/32
f 28/28/28 34/34/34 27/27/27
f 27/27/27 34/34/34 30/30/30
f 32/32/32 34/34/34 28/28/28
f 31/31/31 30/30/30 35/35/35
f 30/30/30 34/34/34 35/35/35
f 36/36/36 31/31/31 35/35/35
f 33/33/33 37/37/37 32/32/32
f 37/37/37 34/34/34 32/32/32
f 35/35/35 34/34/34 37/37/37
f 36/36/36 35/35/35 37/37/37
f 33/33/33 36/36/36 37/37/37
