g ShadowChipA
v -0.250529766 1.90609732E-08 -0.480686039
v -0 1.90609732E-08 1.13686835E-15
v -0.503107905 1.90609732E-08 1.13686835E-15
v 0.250527352 1.90609732E-08 -0.480686635
v -0.250529766 1.90609732E-08 0.480686039
v 0.503110349 1.90609732E-08 1.13686835E-15
v 0.250529766 1.90609732E-08 0.480685413
vt 0.616210938 0.402832031
vt 0.554199219 0.526855469
vt 0.678222656 0.526855469
vt 0.492675781 0.402832031
vt 0.616210938 0.650390625
vt 0.430664062 0.526855469
vt 0.492675781 0.650390625
vn -0 1 0
vn -0 1 0
vn -0 1 0
vn -0 1 0
vn -0 1 0
vn -0 1 0
vn -0 1 0
g ShadowChipA_0
f 3/3/3 2/2/2 1/1/1
f 1/1/1 2/2/2 4/4/4
f 5/5/5 2/2/2 3/3/3
f 4/4/4 2/2/2 6/6/6
f 7/7/7 2/2/2 5/5/5
f 6/6/6 2/2/2 7/7/7
