g sphere_01
v 0.987688363 0 0.00542611023
v 0.930274606 0.197735831 0.15800871
v 0.966105998 0.205352008 0.00542610884
v 0.95105654 0 0.15800871
v 0.966105044 -0.205351964 0.00542610884
v 0.871536791 0.185250729 0.302982271
v 0.930273712 -0.197735757 0.15800871
v 0.902298331 -0.401729107 0.00542610884
v 0.891006529 0 0.302982271
v 0.791338861 0.168204159 0.436776996
v 0.868833482 -0.386829585 0.15800871
v 0.799056709 -0.580548704 0.00542610884
v 0.871535897 -0.1852507 0.302982271
v 0.809017003 0 0.436776996
v 0.691655457 0.14701581 0.556098521
v 0.769420981 -0.559017062 0.158008724
v 0.660892606 -0.733995616 0.00542610884
v 0.813975036 -0.362405002 0.302982271
v 0.791338086 -0.168204069 0.436776996
v 0.707106769 0 0.556098521
v 0.574941278 0.122207463 0.658008754
v 0.63638109 -0.706772923 0.158008695
v 0.493844241 -0.855363429 0.00542610884
v 0.7208395 -0.523720562 0.302982271
v 0.739073873 -0.329056859 0.436776996
v 0.691654801 -0.14701575 0.556098521
v 0.587785244 0 0.658008754
v 0.44407019 0.0943899751 0.739998281
v 0.47552833 -0.823639274 0.158008695
v 0.305212498 -0.939347684 0.00542610884
v 0.596199811 -0.662146986 0.302982271
v 0.654508531 -0.47552824 0.436776996
v 0.645974219 -0.287606239 0.556098521
v 0.574940741 -0.122207403 0.658008695
v 0.453990519 0 0.739998281
v 0.302264541 0.0642482638 0.800048292
v 0.293892652 -0.90450871 0.158008695
v 0.103241511 -0.98227793 0.00542610884
v 0.445503324 -0.771634519 0.302982271
v 0.541338086 -0.601216912 0.436776996
v 0.572061419 -0.415626943 0.556098521
v 0.536968589 -0.239073813 0.658008754
v 0.444069743 -0.0943899155 0.739998221
v 0.309017003 0 0.800048292
v 0.153016165 0.0325245857 0.836680055
v 0.156434476 0 0.836680114
v -0 0 0.848991752
v 0.302264243 -0.0642482638 0.800048292
v 0.414741009 -0.184654534 0.739998281
v 0.4755283 -0.345491469 0.658008754
v 0.473146826 -0.525482833 0.556098521
v 0.153016016 -0.0325245261 0.836680114
v -0 0 0.848991752
v 0.282301098 -0.125688493 0.800048292
v 0.367286086 -0.266848981 0.739998281
v 0.142910019 -0.0636276603 0.836680114
v -0 0 0.848991752
v 0.25000003 -0.181635678 0.800048232
v 0.393305153 -0.436809599 0.658008754
v 0.404508561 -0.700629473 0.436776996
v 0.126558155 -0.0919498801 0.836680114
v -0 0 0.848991752
v 0.303778976 -0.337380707 0.739998281
v 0.353553414 -0.612372458 0.556098521
v 0.275336176 -0.847397745 0.302982271
v 0.20677276 -0.229644358 0.800048292
v 0.293892652 -0.509037077 0.658008754
v 0.25 -0.769421101 0.436776996
v 0.0994124413 -0.945846796 0.158008695
v -0.103241637 -0.98227793 0.00542610884
v 0.0931355134 -0.886125743 0.302982271
v -0.0994125679 -0.945846796 0.158008695
v -0.305212647 -0.939347684 0.00542610884
v 0.21850802 -0.672498643 0.556098521
v 0.226995289 -0.393167436 0.739998281
v 0.0845652744 -0.804585338 0.436776996
v -0.293892771 -0.904508829 0.158008695
v -0.49384442 -0.855363548 0.00542610884
v -0.0931356251 -0.886125743 0.302982271
v 0.181635633 -0.559017122 0.658008754
v -0.475528508 -0.823639393 0.158008695
v -0.660892844 -0.733995736 0.00542610884
v 0.0739127621 -0.703233302 0.556098521
v -0.275336295 -0.847397745 0.302982271
v -0.0845653787 -0.804585338 0.436776996
v -0.636381328 -0.706773043 0.158008695
v -0.799057007 -0.580548823 0.00542610884
v -0.445503473 -0.771634519 0.302982271
v -0.250000119 -0.769421101 0.436776996
v -0.0739128515 -0.703233302 0.556098521
v 0.0614402667 -0.584565461 0.658008754
v -0.769421279 -0.559017181 0.158008724
v -0.902298629 -0.401729167 0.00542610884
v -0.596200049 -0.662147105 0.302982271
v -0.40450868 -0.700629473 0.436776996
v -0.218508124 -0.672498763 0.556098521
v -0.86883378 -0.386829585 0.15800871
v -0.966105461 -0.205351964 0.00542610884
v -0.720839739 -0.523720622 0.302982271
v -0.541338265 -0.601217031 0.436776996
v -0.930274069 -0.197735757 0.15800871
v -0.987688839 8.94069672E-08 0.00542611023
v -0.813975334 -0.362405062 0.302982271
v -0.951057017 8.94069672E-08 0.15800871
v -0.966105521 0.205352157 0.00542610884
v -0.0614403412 -0.584565461 0.658008754
v -0.353553563 -0.612372696 0.556098521
v -0.654508829 -0.475528359 0.436776996
v -0.871536314 -0.1852507 0.302982271
v -0.930274129 0.197735965 0.158008724
v -0.902298689 0.401729375 0.00542610884
v -0.181635723 -0.559017122 0.658008754
v -0.473147005 -0.525482953 0.556098521
v -0.739074111 -0.329056919 0.436776996
v -0.891006947 8.94069672E-08 0.302982241
v -0.86883378 0.386829853 0.158008695
v -0.799057066 0.580549121 0.00542610884
v -0.293892771 -0.509037077 0.658008754
v -0.572061658 -0.415627062 0.556098521
v -0.791338384 -0.168204069 0.436776996
v -0.871536374 0.185250849 0.302982271
v -0.769421279 0.559017479 0.158008695
v -0.660892844 0.733996093 0.00542610884
v -0.393305272 -0.436809719 0.658008754
v -0.645974457 -0.287606299 0.556098521
v -0.80901736 5.96046448E-08 0.436776996
v -0.813975394 0.3624053 0.302982271
v -0.636381328 0.706773281 0.158008695
v -0.49384442 0.855363905 0.00542610884
v -0.475528479 -0.345491588 0.658008754
v -0.691655099 -0.14701575 0.556098521
v -0.791338444 0.168204278 0.436776996
v -0.720839798 0.52372092 0.302982271
v -0.475528508 0.82363987 0.158008695
v -0.305212587 0.939348221 0.00542610884
v -0.536968768 -0.239073813 0.658008754
v -0.707107127 5.96046448E-08 0.556098521
v -0.739074171 0.329057127 0.436776966
v -0.596200049 0.662147403 0.302982271
v -0.293892741 0.904509306 0.158008695
v -0.103241466 0.982278466 0.00542610884
v -0.574940979 -0.122207403 0.658008695
v -0.691655159 0.147015929 0.556098521
v -0.654508829 0.475528628 0.436776966
v -0.445503473 0.771634936 0.302982211
v -0.099412404 0.945847392 0.158008754
v 0.103241801 0.982278466 0.00542610884
v -0.587785542 5.96046448E-08 0.658008754
v -0.645974517 0.287606478 0.556098521
v -0.541338265 0.60121727 0.436776996
v -0.275336236 0.847398281 0.302982211
v 0.0994127169 0.945847392 0.158008754
v 0.305212915 0.939348161 0.00542610884
v -0.574941039 0.122207522 0.658008754
v -0.572061718 0.415627271 0.556098461
v -0.40450868 0.70062983 0.436776996
v -0.0931354687 0.88612622 0.302982271
v 0.293893039 0.904509306 0.158008754
v 0.493844777 0.855363846 0.00542610884
v -0.536968827 0.239073992 0.658008754
v -0.473147005 0.525483131 0.556098461
v -0.250000089 0.769421518 0.436776936
v 0.0931357667 0.88612622 0.302982271
v 0.475528836 0.82363975 0.158008695
v 0.660893261 0.733996034 0.00542610884
v -0.475528508 0.345491767 0.658008695
v -0.353553563 0.612372935 0.556098521
v -0.0845652372 0.804585755 0.436776936
v 0.275336534 0.847398221 0.302982271
v 0.636381745 0.706773221 0.158008695
v 0.799057484 0.580549061 0.00542610884
v -0.393305272 0.436809897 0.658008695
v -0.21850808 0.672499061 0.556098461
v 0.0845655128 0.804585755 0.436776936
v 0.445503801 0.771634877 0.302982271
v 0.769421697 0.55901742 0.158008695
v 0.902299106 0.401729286 0.00542610884
v -0.293892771 0.509037375 0.658008695
v -0.0739127249 0.703233719 0.556098461
v 0.250000358 0.769421518 0.436776936
v 0.596200407 0.662147343 0.302982271
v 0.868834257 0.386829764 0.158008724
v 0.966105998 0.205352008 0.00542610884
v 0.930274606 0.197735831 0.15800871
v 0.720840156 0.52372086 0.302982271
v 0.813975811 0.362405211 0.302982241
v 0.871536791 0.185250729 0.302982271
v 0.404508978 0.700629771 0.436776936
v 0.0739129633 0.703233719 0.556098461
v 0.541338623 0.60121721 0.436776936
v 0.739074528 0.329057038 0.436776996
v 0.791338861 0.168204159 0.436776996
v 0.654509187 0.475528598 0.436776996
v 0.218508303 0.672499001 0.556098521
v 0.645974815 0.287606388 0.556098461
v 0.691655457 0.14701581 0.556098521
v 0.353553802 0.612372875 0.556098461
v 0.572062016 0.415627211 0.556098461
v 0.473147303 0.525483131 0.556098461
v 0.536969066 0.239073932 0.658008754
v 0.574941278 0.122207463 0.658008754
v 0.475528747 0.345491737 0.658008695
v 0.39330554 0.436809868 0.658008695
v 0.29389298 0.509037316 0.658008754
v 0.181635886 0.55901742 0.658008695
v 0.414741397 0.184654713 0.739998221
v 0.44407019 0.0943899751 0.739998281
v 0.367286414 0.26684916 0.739998221
v 0.303779274 0.337380946 0.739998281
v 0.226995528 0.393167615 0.739998221
v 0.282301366 0.125688612 0.800048292
v 0.302264541 0.0642482638 0.800048292
v 0.250000268 0.181635797 0.800048232
v 0.206772953 0.229644537 0.800048351
v 0.142910153 0.0636276603 0.836680114
v 0.153016165 0.0325245857 0.836680055
v -0 0 0.848991752
v 0.126558289 0.0919499397 0.836680114
v -0 0 0.848991752
v 0.104675211 0.116253555 0.836680114
v -0 0 0.848991752
v 0.15450868 0.267616808 0.800048351
v 0.078217335 0.135476351 0.836680114
v -0 0 0.848991752
v 0.04834098 0.148778141 0.836680114
v -0 0 0.848991752
v 0.0954916403 0.29389286 0.800048232
v 0.140290976 0.43177098 0.739998281
v 0.0163518954 0.15557766 0.836680055
v -0 0 0.848991752
v 0.0323011503 0.307324409 0.800048232
v 0.0474550463 0.451503873 0.739998221
v -0.0163518433 0.15557766 0.836680055
v -0 0 0.848991752
v -0.032301046 0.307324409 0.800048232
v 0.061440438 0.584565759 0.658008695
v -0.0474548936 0.451503873 0.739998221
v -0.0614402406 0.584565759 0.658008695
v -0.0483409278 0.148778141 0.836680114
v -0 0 0.848991752
v -0.095491536 0.29389292 0.800048351
v -0.181635693 0.559017479 0.658008754
v -0.140290827 0.43177101 0.739998221
v -0.0782172754 0.135476351 0.836680114
v -0 0 0.848991752
v -0.226995364 0.393167645 0.739998341
v -0.154508576 0.267616808 0.800048351
v -0.303779095 0.337381005 0.739998221
v -0.104675144 0.116253555 0.836680114
v -0 0 0.848991752
v -0.206772834 0.229644597 0.800048351
v -0.367286235 0.26684916 0.739998221
v -0.126558214 0.0919499397 0.836680114
v -0 0 0.848991752
v -0.250000149 0.181635797 0.800048292
v -0.414741188 0.184654713 0.739998281
v -0.142910078 0.0636276603 0.836680114
v -0 0 0.848991752
v -0.282301217 0.125688672 0.800048232
v -0.444069952 0.0943900347 0.739998281
v -0.15301609 0.0325245857 0.836680114
v -0 0 0.848991752
v -0.302264392 0.0642483234 0.800048292
v -0.453990728 5.96046448E-08 0.739998221
v -0.156434551 0 0.836680114
v -0 0 0.848991752
v -0.309017152 0 0.800048292
v -0.444069952 -0.0943899155 0.739998221
v -0.153016075 -0.0325245261 0.836680114
v -0 0 0.848991752
v -0.302264363 -0.0642482638 0.800048292
v -0.414741158 -0.184654653 0.739998221
v -0.142910063 -0.0636276603 0.836680114
v -0 0 0.848991752
v -0.282301188 -0.125688612 0.800048292
v -0.367286205 -0.266848981 0.739998281
v -0.126558214 -0.0919498801 0.836680055
v -0 0 0.848991752
v -0.250000119 -0.181635678 0.800048292
v -0.303779095 -0.337380826 0.739998281
v -0.104675144 -0.116253555 0.836680114
v -0 0 0.848991752
v -0.206772834 -0.229644477 0.800048292
v -0.226995364 -0.393167436 0.739998281
v -0.0782172754 -0.135476291 0.836680114
v -0 0 0.848991752
v -0.154508576 -0.267616689 0.800048232
v -0.140290856 -0.431770742 0.739998281
v -0.0483409353 -0.148778021 0.836680114
v -0 0 0.848991752
v -0.0954915509 -0.293892682 0.800048232
v -0.0474549718 -0.451503575 0.739998281
v -0.0163518693 -0.1555776 0.836680114
v -0 0 0.848991752
v -0.0323011018 -0.307324231 0.800048292
v 0.0474549159 -0.451503575 0.739998281
v 0.0163518488 -0.1555776 0.836680114
v -0 0 0.848991752
v 0.0323010609 -0.307324231 0.800048292
v 0.140290797 -0.431770742 0.739998281
v 0.0483409129 -0.148778021 0.836680114
v -0 0 0.848991752
v 0.0954915062 -0.293892682 0.800048232
v 0.154508516 -0.26761657 0.800048292
v 0.0782172456 -0.135476291 0.836680055
v -0 0 0.848991752
v 0.104675107 -0.116253436 0.836680114
v -0 0 0.848991752
v -0 0 0.848991752
vt 0.966666698 0
vt 1 0.111111134
vt 1 0
vt 0.966666698 0.111111134
vt 0.933333397 0
vt 1 0.222222269
vt 0.933333397 0.111111134
vt 0.899999976 0
vt 0.966666698 0.222222269
vt 1 0.333333433
vt 0.899999976 0.111111134
vt 0.866666615 0
vt 0.933333397 0.222222269
vt 0.966666698 0.333333433
vt 1 0.444444597
vt 0.866666615 0.111111134
vt 0.833333254 0
vt 0.899999976 0.222222269
vt 0.933333397 0.333333433
vt 0.966666698 0.444444597
vt 1 0.555555642
vt 0.833333254 0.111111134
vt 0.799999952 0
vt 0.866666615 0.222222269
vt 0.899999976 0.333333433
vt 0.933333397 0.444444597
vt 0.966666698 0.555555642
vt 1 0.666666865
vt 0.799999952 0.111111134
vt 0.766666591 0
vt 0.833333254 0.222222269
vt 0.866666615 0.333333433
vt 0.899999976 0.444444597
vt 0.933333397 0.555555642
vt 0.966666698 0.666666865
vt 1 0.777778089
vt 0.766666591 0.111111134
vt 0.73333323 0
vt 0.799999952 0.222222269
vt 0.833333254 0.333333433
vt 0.866666615 0.444444597
vt 0.899999976 0.555555642
vt 0.933333397 0.666666865
vt 0.966666698 0.777778089
vt 1 0.888889194
vt 0.966666698 0.888889194
vt 0.983332992 1
vt 0.933333397 0.777778089
vt 0.899999976 0.666666865
vt 0.866666615 0.555555642
vt 0.833333254 0.444444597
vt 0.933333397 0.888889194
vt 0.94999969 1
vt 0.899999976 0.777778089
vt 0.866666615 0.666666865
vt 0.899999976 0.888889194
vt 0.916666389 1
vt 0.866666615 0.777778089
vt 0.833333254 0.555555642
vt 0.799999952 0.333333433
vt 0.866666615 0.888889194
vt 0.883333087 1
vt 0.833333254 0.666666865
vt 0.799999952 0.444444597
vt 0.766666591 0.222222269
vt 0.833333254 0.777778089
vt 0.799999952 0.555555642
vt 0.766666591 0.333333433
vt 0.73333323 0.111111134
vt 0.699999928 0
vt 0.73333323 0.222222269
vt 0.699999928 0.111111134
vt 0.666666567 0
vt 0.766666591 0.444444597
vt 0.799999952 0.666666865
vt 0.73333323 0.333333433
vt 0.666666567 0.111111134
vt 0.633333206 0
vt 0.699999928 0.222222269
vt 0.766666591 0.555555642
vt 0.633333206 0.111111134
vt 0.599999845 0
vt 0.73333323 0.444444597
vt 0.666666567 0.222222269
vt 0.699999928 0.333333433
vt 0.599999845 0.111111134
vt 0.566666484 0
vt 0.633333206 0.222222269
vt 0.666666567 0.333333433
vt 0.699999928 0.444444597
vt 0.73333323 0.555555642
vt 0.566666484 0.111111134
vt 0.533333182 0
vt 0.599999845 0.222222269
vt 0.633333206 0.333333433
vt 0.666666567 0.444444597
vt 0.533333182 0.111111134
vt 0.499999821 0
vt 0.566666484 0.222222269
vt 0.599999845 0.333333433
vt 0.499999821 0.111111134
vt 0.46666649 0
vt 0.533333182 0.222222269
vt 0.46666649 0.111111134
vt 0.433333188 0
vt 0.699999928 0.555555642
vt 0.633333206 0.444444597
vt 0.566666484 0.333333433
vt 0.499999821 0.222222269
vt 0.433333188 0.111111134
vt 0.399999857 0
vt 0.666666567 0.555555642
vt 0.599999845 0.444444597
vt 0.533333182 0.333333433
vt 0.46666649 0.222222269
vt 0.399999857 0.111111134
vt 0.366666555 0
vt 0.633333206 0.555555642
vt 0.566666484 0.444444597
vt 0.499999821 0.333333433
vt 0.433333188 0.222222269
vt 0.366666555 0.111111134
vt 0.333333254 0
vt 0.599999845 0.555555642
vt 0.533333182 0.444444597
vt 0.46666649 0.333333433
vt 0.399999857 0.222222269
vt 0.333333254 0.111111134
vt 0.299999893 0
vt 0.566666484 0.555555642
vt 0.499999821 0.444444597
vt 0.433333188 0.333333433
vt 0.366666555 0.222222269
vt 0.299999893 0.111111134
vt 0.266666591 0
vt 0.533333182 0.555555642
vt 0.46666649 0.444444597
vt 0.399999857 0.333333433
vt 0.333333254 0.222222269
vt 0.266666591 0.111111134
vt 0.23333329 0
vt 0.499999821 0.555555642
vt 0.433333188 0.444444597
vt 0.366666555 0.333333433
vt 0.299999893 0.222222269
vt 0.23333329 0.111111134
vt 0.199999928 0
vt 0.46666649 0.555555642
vt 0.399999857 0.444444597
vt 0.333333254 0.333333433
vt 0.266666591 0.222222269
vt 0.199999928 0.111111134
vt 0.166666657 0
vt 0.433333188 0.555555642
vt 0.366666555 0.444444597
vt 0.299999893 0.333333433
vt 0.23333329 0.222222269
vt 0.166666657 0.111111134
vt 0.133333296 0
vt 0.399999857 0.555555642
vt 0.333333254 0.444444597
vt 0.266666591 0.333333433
vt 0.199999928 0.222222269
vt 0.133333296 0.111111134
vt 0.100000024 0
vt 0.366666555 0.555555642
vt 0.299999893 0.444444597
vt 0.23333329 0.333333433
vt 0.166666657 0.222222269
vt 0.100000024 0.111111134
vt 0.0666666627 0
vt 0.333333254 0.555555642
vt 0.266666591 0.444444597
vt 0.199999928 0.333333433
vt 0.133333296 0.222222269
vt 0.0666666627 0.111111134
vt 0.0333333313 0
vt 0.299999893 0.555555642
vt 0.23333329 0.444444597
vt 0.166666657 0.333333433
vt 0.100000024 0.222222269
vt 0.0333333313 0.111111134
vt 2.98023224E-08 0
vt 2.98023224E-08 0.111111134
vt 0.0666666627 0.222222269
vt 0.0333333313 0.222222269
vt 2.98023224E-08 0.222222269
vt 0.133333296 0.333333433
vt 0.199999928 0.444444597
vt 0.100000024 0.333333433
vt 0.0333333313 0.333333433
vt 2.98023224E-08 0.333333433
vt 0.0666666627 0.333333433
vt 0.166666657 0.444444597
vt 0.0333333313 0.444444597
vt 2.98023224E-08 0.444444597
vt 0.133333296 0.444444597
vt 0.0666666627 0.444444597
vt 0.100000024 0.444444597
vt 0.0333333313 0.555555642
vt 2.98023224E-08 0.555555642
vt 0.0666666627 0.555555642
vt 0.100000024 0.555555642
vt 0.133333296 0.555555642
vt 0.166666657 0.555555642
vt 0.0333333313 0.666666865
vt 2.98023224E-08 0.666666865
vt 0.0666666627 0.666666865
vt 0.100000024 0.666666865
vt 0.133333296 0.666666865
vt 0.0333333313 0.777778089
vt 2.98023224E-08 0.777778089
vt 0.0666666627 0.777778089
vt 0.100000024 0.777778089
vt 0.0333333313 0.888889194
vt 2.98023224E-08 0.888889194
vt 0.0166667104 1
vt 0.0666666627 0.888889194
vt 0.0500000417 1
vt 0.100000024 0.888889194
vt 0.0833333433 1
vt 0.133333296 0.777778089
vt 0.133333296 0.888889194
vt 0.116666675 1
vt 0.166666657 0.888889194
vt 0.149999976 1
vt 0.166666657 0.777778089
vt 0.166666657 0.666666865
vt 0.199999928 0.888889194
vt 0.183333308 1
vt 0.199999928 0.777778089
vt 0.199999928 0.666666865
vt 0.23333329 0.888889194
vt 0.216666639 1
vt 0.23333329 0.777778089
vt 0.199999928 0.555555642
vt 0.23333329 0.666666865
vt 0.23333329 0.555555642
vt 0.266666591 0.888889194
vt 0.24999997 1
vt 0.266666591 0.777778089
vt 0.266666591 0.555555642
vt 0.266666591 0.666666865
vt 0.299999893 0.888889194
vt 0.283333302 1
vt 0.299999893 0.666666865
vt 0.299999893 0.777778089
vt 0.333333254 0.666666865
vt 0.333333254 0.888889194
vt 0.316666603 1
vt 0.333333254 0.777778089
vt 0.366666555 0.666666865
vt 0.366666555 0.888889194
vt 0.349999905 1
vt 0.366666555 0.777778089
vt 0.399999857 0.666666865
vt 0.399999857 0.888889194
vt 0.383333236 1
vt 0.399999857 0.777778089
vt 0.433333188 0.666666865
vt 0.433333188 0.888889194
vt 0.416666567 1
vt 0.433333188 0.777778089
vt 0.46666649 0.666666865
vt 0.46666649 0.888889194
vt 0.449999869 1
vt 0.46666649 0.777778089
vt 0.499999821 0.666666865
vt 0.499999821 0.888889194
vt 0.48333323 1
vt 0.499999821 0.777778089
vt 0.533333182 0.666666865
vt 0.533333182 0.888889194
vt 0.516666472 1
vt 0.533333182 0.777778089
vt 0.566666484 0.666666865
vt 0.566666484 0.888889194
vt 0.549999833 1
vt 0.566666484 0.777778089
vt 0.599999845 0.666666865
vt 0.599999845 0.888889194
vt 0.583333135 1
vt 0.599999845 0.777778089
vt 0.633333206 0.666666865
vt 0.633333206 0.888889194
vt 0.616666436 1
vt 0.633333206 0.777778089
vt 0.666666567 0.666666865
vt 0.666666567 0.888889194
vt 0.649999797 1
vt 0.666666567 0.777778089
vt 0.699999928 0.666666865
vt 0.699999928 0.888889194
vt 0.683333099 1
vt 0.699999928 0.777778089
vt 0.73333323 0.666666865
vt 0.73333323 0.888889194
vt 0.7166664 1
vt 0.73333323 0.777778089
vt 0.766666591 0.666666865
vt 0.766666591 0.888889194
vt 0.749999762 1
vt 0.766666591 0.777778089
vt 0.799999952 0.777778089
vt 0.799999952 0.888889194
vt 0.783333123 1
vt 0.833333254 0.888889194
vt 0.816666424 1
vt 0.849999785 1
vn 0.972369909 0 0.233445302
vn 0.931365848 0.197965667 0.305560529
vn 0.951121688 0.202164829 0.233445525
vn 0.952172697 0 0.305560321
vn 0.95112139 -0.202166989 0.233445317
vn 0.873979211 0.185767904 0.449055165
vn 0.93136549 -0.197967649 0.30556035
vn 0.888304174 -0.395498544 0.233445123
vn 0.893504143 0 0.449054897
vn 0.79566592 0.169122279 0.581647217
vn 0.869853139 -0.387283415 0.30556038
vn 0.78666389 -0.571544707 0.233445078
vn 0.873978913 -0.185769811 0.449054986
vn 0.813441396 0 0.5816468
vn 0.698444843 0.148457617 0.700096488
vn 0.770323992 -0.559673011 0.305560201
vn 0.650642693 -0.722611547 0.233445302
vn 0.816256702 -0.363420665 0.449055135
vn 0.79566586 -0.169123918 0.5816468
vn 0.714048445 0 0.700096309
vn 0.584938288 0.124331221 0.801491737
vn 0.637128055 -0.707602084 0.305560201
vn 0.486185074 -0.842096984 0.233445406
vn 0.722860038 -0.525188506 0.449055105
vn 0.743115723 -0.330856442 0.58164686
vn 0.698444784 -0.148458868 0.70009625
vn 0.59800601 0 0.801491678
vn 0.458537251 0.0974641293 0.883314371
vn 0.476086497 -0.824605763 0.305560172
vn 0.300478905 -0.924778759 0.23344548
vn 0.597871125 -0.664002836 0.449054897
vn 0.658087969 -0.478128791 0.58164686
vn 0.652315736 -0.290429652 0.70009625
vn 0.584938169 -0.124332219 0.801491559
vn 0.468781292 0 0.883314312
vn 0.324203759 0.0689109489 0.943474054
vn 0.294237584 -0.905570149 0.305560112
vn 0.101640396 -0.967043161 0.233445555
vn 0.446752131 -0.773797393 0.449054748
vn 0.544298768 -0.604504526 0.58164686
vn 0.577677429 -0.419707149 0.700096071
vn 0.546305776 -0.243230835 0.801491559
vn 0.458537698 -0.0974650532 0.883314133
vn 0.331446707 0 0.943473935
vn 0.194261804 0.0412910916 0.980080247
vn 0.198601514 0 0.980080366
vn -0 0 1
vn 0.324204147 -0.0689116195 0.943473816
vn 0.428253114 -0.190670401 0.883314192
vn 0.483797193 -0.3514992 0.801491499
vn 0.477791905 -0.530641317 0.70009619
vn 0.19426167 -0.0412915535 0.980080247
vn -0 0 1
vn 0.302791536 -0.134811521 0.943474054
vn 0.379251957 -0.275542766 0.883314312
vn 0.181431442 -0.0807787776 0.980080366
vn -0 0 1
vn 0.268145978 -0.194819421 0.943473935
vn 0.400144309 -0.444405138 0.801491499
vn 0.406720668 -0.704460859 0.581647038
vn 0.160672382 -0.11673528 0.980080247
vn -0 0 1
vn 0.313676119 -0.348372281 0.883314192
vn 0.357024252 -0.618384004 0.700096309
vn 0.276107907 -0.84977299 0.449054807
vn 0.221781328 -0.246312693 0.943473935
vn 0.299003154 -0.517888486 0.801491499
vn 0.251367062 -0.773628652 0.581646979
vn 0.0995292291 -0.946956635 0.305560321
vn -0.101640247 -0.967043281 0.233445197
vn 0.0933966711 -0.888609409 0.449054837
vn -0.0995290875 -0.946956635 0.30556038
vn -0.300478607 -0.924778879 0.233445182
vn 0.220653057 -0.679100454 0.70009625
vn 0.234390602 -0.405976504 0.883314312
vn 0.0850277469 -0.808985293 0.581646979
vn -0.294237345 -0.90557009 0.305560499
vn -0.486184806 -0.842097044 0.23344548
vn -0.0933966264 -0.888609409 0.449054986
vn 0.184794009 -0.568737566 0.801491559
vn -0.47608614 -0.824605763 0.305560589
vn -0.650642574 -0.722611725 0.233445197
vn 0.0746382698 -0.710136831 0.70009619
vn -0.276107907 -0.849772811 0.449055105
vn -0.0850277692 -0.808985293 0.58164686
vn -0.637127876 -0.707602203 0.30556035
vn -0.786663771 -0.571544707 0.233445108
vn -0.446751833 -0.773797274 0.449055165
vn -0.251367152 -0.773628891 0.581646681
vn -0.0746381879 -0.710136831 0.70009619
vn 0.0625086427 -0.594730079 0.801491559
vn -0.770323932 -0.559673011 0.305560321
vn -0.888304174 -0.395498306 0.233445421
vn -0.597870886 -0.664002955 0.449055165
vn -0.406720549 -0.704461157 0.58164674
vn -0.220652893 -0.679100513 0.70009625
vn -0.869853079 -0.387283444 0.30556041
vn -0.951121271 -0.202167124 0.233445495
vn -0.722860038 -0.525188386 0.449055016
vn -0.54429853 -0.604504704 0.581646919
vn -0.93136543 -0.197967902 0.30556041
vn -0.972369909 0 0.233445436
vn -0.816256642 -0.363420844 0.449055046
vn -0.952172697 0 0.30556044
vn -0.951121271 0.202167124 0.23344557
vn -0.0625084341 -0.594730139 0.801491559
vn -0.357024074 -0.618384123 0.70009625
vn -0.658087969 -0.478128821 0.58164686
vn -0.873978853 -0.18577002 0.449055105
vn -0.93136543 0.197967902 0.30556047
vn -0.888304055 0.395498306 0.233445629
vn -0.18479377 -0.568737566 0.801491678
vn -0.477791667 -0.530641377 0.700096309
vn -0.743115723 -0.330856442 0.581646979
vn -0.893504024 0 0.449055165
vn -0.869853139 0.387283474 0.30556041
vn -0.786663771 0.571544588 0.2334456
vn -0.299002856 -0.517888367 0.801491737
vn -0.57767731 -0.419707119 0.70009625
vn -0.795665681 -0.169123977 0.58164686
vn -0.873978853 0.18576993 0.449055135
vn -0.770323873 0.559673011 0.305560499
vn -0.650642574 0.722611487 0.233445704
vn -0.40014407 -0.444405049 0.801491678
vn -0.652315736 -0.290429622 0.70009625
vn -0.813441396 0 0.581646919
vn -0.816256523 0.363420814 0.449055105
vn -0.637127995 0.707602024 0.305560589
vn -0.486185253 0.842096865 0.233445421
vn -0.483797073 -0.351499021 0.801491678
vn -0.698444724 -0.148459092 0.700096309
vn -0.795665681 0.169123903 0.58164686
vn -0.722860038 0.525188327 0.449055105
vn -0.476086497 0.824605584 0.305560648
vn -0.300478846 0.924778879 0.233445093
vn -0.546305716 -0.243230745 0.801491678
vn -0.714048445 0 0.700096369
vn -0.743115544 0.330856413 0.581646979
vn -0.597871065 0.664002717 0.449055165
vn -0.294237494 0.905569971 0.305560559
vn -0.101640329 0.967043281 0.233444989
vn -0.58493799 -0.124332517 0.801491797
vn -0.698444843 0.148459002 0.70009619
vn -0.65808785 0.478128731 0.581647038
vn -0.446752071 0.773797035 0.449055433
vn -0.0995291397 0.946956575 0.305560648
vn 0.101640418 0.96704334 0.233444661
vn -0.598005831 0 0.801491797
vn -0.652315617 0.290429682 0.70009625
vn -0.544298589 0.604504526 0.581646979
vn -0.276107877 0.849772632 0.449055582
vn 0.0995291919 0.946956575 0.30556047
vn 0.300479054 0.924778879 0.233444735
vn -0.584938049 0.124332413 0.801491737
vn -0.57767725 0.419707179 0.700096369
vn -0.406720638 0.7044608 0.581647098
vn -0.0933966041 0.888609052 0.449055672
vn 0.294237703 0.90557009 0.305560291
vn 0.486184955 0.842096984 0.233445376
vn -0.546305656 0.243231133 0.801491678
vn -0.477791727 0.530641317 0.700096369
vn -0.251367062 0.773628652 0.581646979
vn 0.0933966115 0.888609052 0.449055672
vn 0.476086438 0.824605584 0.305560499
vn 0.650642455 0.722611606 0.233445749
vn -0.483796954 0.35149917 0.801491559
vn -0.357024312 0.618383884 0.700096428
vn -0.0850277841 0.808985114 0.581647038
vn 0.276108086 0.849772632 0.449055433
vn 0.637127876 0.707602024 0.305560738
vn 0.786663771 0.571544647 0.233445525
vn -0.400144339 0.4444049 0.801491678
vn -0.220652953 0.679100573 0.70009625
vn 0.0850277245 0.808985114 0.581647098
vn 0.446752161 0.773797035 0.449055374
vn 0.770323873 0.559673011 0.305560619
vn 0.888304055 0.395498544 0.233445436
vn -0.299003124 0.517888129 0.801491737
vn -0.0746382177 0.710136831 0.70009625
vn 0.251367211 0.773628533 0.581647277
vn 0.597870886 0.664002776 0.449055374
vn 0.86985296 0.387283593 0.305560499
vn 0.951121688 0.202164829 0.233445525
vn 0.931365848 0.197965667 0.305560529
vn 0.722859919 0.525188386 0.449055254
vn 0.816256464 0.363420904 0.449055195
vn 0.873979211 0.185767904 0.449055165
vn 0.406720728 0.70446074 0.581647098
vn 0.0746382549 0.710136652 0.700096369
vn 0.54429841 0.604504704 0.581647098
vn 0.743115485 0.330856383 0.581647217
vn 0.79566592 0.169122279 0.581647217
vn 0.65808779 0.478128701 0.581647217
vn 0.220653012 0.679100275 0.700096428
vn 0.652315497 0.290429652 0.700096488
vn 0.698444843 0.148457617 0.700096488
vn 0.357024342 0.618384004 0.700096369
vn 0.577677131 0.41970697 0.700096607
vn 0.477791667 0.530641377 0.700096369
vn 0.546305418 0.243231028 0.801491797
vn 0.584938288 0.124331221 0.801491737
vn 0.483796805 0.351498991 0.801491797
vn 0.40014407 0.44440493 0.801491737
vn 0.299003005 0.517888248 0.801491797
vn 0.18479386 0.568737447 0.801491737
vn 0.428252816 0.190670699 0.883314312
vn 0.458537251 0.0974641293 0.883314371
vn 0.379252225 0.275542587 0.883314192
vn 0.31367597 0.34837231 0.883314312
vn 0.234390616 0.405976593 0.883314192
vn 0.302791566 0.13481164 0.943473935
vn 0.324203759 0.0689109489 0.943474054
vn 0.268146485 0.194819212 0.943473816
vn 0.221781597 0.246312588 0.943473935
vn 0.181431368 0.0807783082 0.980080366
vn 0.194261804 0.0412910916 0.980080247
vn -0 0 1
vn 0.160671771 0.116734959 0.980080366
vn -0 0 1
vn 0.132890746 0.147589207 0.980080366
vn -0 0 1
vn 0.165722877 0.287041426 0.943473935
vn 0.0992995948 0.171994045 0.980080485
vn -0 0 1
vn 0.061370302 0.188881636 0.980080247
vn -0 0 1
vn 0.102422215 0.315224618 0.943473935
vn 0.144861221 0.445837528 0.883314312
vn 0.0207601786 0.197513834 0.980080247
vn -0 0 1
vn 0.0346456803 0.329630852 0.943474054
vn 0.0490008108 0.466213256 0.883314312
vn -0.0207586624 0.197513774 0.980080247
vn -0 0 1
vn -0.0346447974 0.329631031 0.943473935
vn 0.0625084937 0.59473002 0.801491678
vn -0.0490005612 0.466213256 0.883314312
vn -0.0625083074 0.59473002 0.801491678
vn -0.0613692366 0.188881278 0.980080485
vn -0 0 1
vn -0.102421477 0.315224797 0.943474054
vn -0.184793636 0.568737447 0.801491737
vn -0.14486073 0.445837706 0.883314312
vn -0.0992996544 0.171993718 0.980080485
vn -0 0 1
vn -0.234390631 0.405976534 0.883314312
vn -0.1657231 0.287041217 0.943474054
vn -0.313676238 0.34837234 0.883314192
vn -0.132890403 0.147589341 0.980080366
vn -0 0 1
vn -0.221781477 0.246312618 0.943473935
vn -0.379252195 0.275542825 0.883314133
vn -0.160672188 0.116734669 0.980080366
vn -0 0 1
vn -0.268146515 0.194819272 0.943473816
vn -0.428252965 0.190670684 0.883314312
vn -0.181431726 0.0807785764 0.980080247
vn -0 0 1
vn -0.302791774 0.13481161 0.943473935
vn -0.458537161 0.0974650383 0.883314312
vn -0.194261655 0.0412918068 0.980080247
vn -0 0 1
vn -0.324203759 0.0689117014 0.943473935
vn -0.468781263 0 0.883314312
vn -0.198601574 0 0.980080366
vn -0 0 1
vn -0.331446975 0 0.943473816
vn -0.4585374 -0.097465165 0.883314192
vn -0.19426167 -0.0412916318 0.980080247
vn -0 0 1
vn -0.324203968 -0.0689117163 0.943473935
vn -0.428253293 -0.190670297 0.883314192
vn -0.181431144 -0.0807788894 0.980080366
vn -0 0 1
vn -0.302791774 -0.13481155 0.943473935
vn -0.379252166 -0.275542557 0.883314192
vn -0.16067186 -0.116735056 0.980080366
vn -0 0 1
vn -0.268146068 -0.194819301 0.943473935
vn -0.31367591 -0.3483724 0.883314312
vn -0.132890388 -0.147589535 0.980080366
vn -0 0 1
vn -0.221780822 -0.246312842 0.943474054
vn -0.234390393 -0.405976653 0.883314312
vn -0.0993007347 -0.171994448 0.980080247
vn -0 0 1
vn -0.165722638 -0.287041426 0.943474054
vn -0.144861102 -0.445837498 0.883314312
vn -0.0613721721 -0.188881516 0.980080247
vn -0 0 1
vn -0.10242261 -0.315224469 0.943473935
vn -0.0490009598 -0.466213167 0.883314312
vn -0.0207602102 -0.197513729 0.980080247
vn -0 0 1
vn -0.0346459113 -0.329630941 0.943473935
vn 0.0490010977 -0.466213197 0.883314312
vn 0.0207602084 -0.1975137 0.980080247
vn -0 0 1
vn 0.0346459188 -0.329630941 0.943473935
vn 0.144861251 -0.445837498 0.883314312
vn 0.0613714643 -0.188881293 0.980080247
vn -0 0 1
vn 0.102422468 -0.315224469 0.943474054
vn 0.165722772 -0.287041157 0.943474054
vn 0.0993001312 -0.171994284 0.980080366
vn -0 0 1
vn 0.132890537 -0.147589803 0.980080247
vn -0 0 1
vn -0 0 1
g sphere_01_0
f 3/3/3 2/2/2 1/1/1
f 2/2/2 4/4/4 1/1/1
f 1/1/1 4/4/4 5/5/5
f 2/2/2 6/6/6 4/4/4
f 4/4/4 7/7/7 5/5/5
f 5/5/5 7/7/7 8/8/8
f 6/6/6 9/9/9 4/4/4
f 4/4/4 9/9/9 7/7/7
f 6/6/6 10/10/10 9/9/9
f 7/7/7 11/11/11 8/8/8
f 8/8/8 11/11/11 12/12/12
f 9/9/9 13/13/13 7/7/7
f 7/7/7 13/13/13 11/11/11
f 10/10/10 14/14/14 9/9/9
f 9/9/9 14/14/14 13/13/13
f 10/10/10 15/15/15 14/14/14
f 11/11/11 16/16/16 12/12/12
f 12/12/12 16/16/16 17/17/17
f 13/13/13 18/18/18 11/11/11
f 11/11/11 18/18/18 16/16/16
f 14/14/14 19/19/19 13/13/13
f 13/13/13 19/19/19 18/18/18
f 15/15/15 20/20/20 14/14/14
f 14/14/14 20/20/20 19/19/19
f 15/15/15 21/21/21 20/20/20
f 16/16/16 22/22/22 17/17/17
f 17/17/17 22/22/22 23/23/23
f 18/18/18 24/24/24 16/16/16
f 16/16/16 24/24/24 22/22/22
f 19/19/19 25/25/25 18/18/18
f 18/18/18 25/25/25 24/24/24
f 20/20/20 26/26/26 19/19/19
f 19/19/19 26/26/26 25/25/25
f 21/21/21 27/27/27 20/20/20
f 20/20/20 27/27/27 26/26/26
f 21/21/21 28/28/28 27/27/27
f 22/22/22 29/29/29 23/23/23
f 23/23/23 29/29/29 30/30/30
f 24/24/24 31/31/31 22/22/22
f 22/22/22 31/31/31 29/29/29
f 25/25/25 32/32/32 24/24/24
f 24/24/24 32/32/32 31/31/31
f 26/26/26 33/33/33 25/25/25
f 25/25/25 33/33/33 32/32/32
f 27/27/27 34/34/34 26/26/26
f 26/26/26 34/34/34 33/33/33
f 28/28/28 35/35/35 27/27/27
f 27/27/27 35/35/35 34/34/34
f 28/28/28 36/36/36 35/35/35
f 29/29/29 37/37/37 30/30/30
f 30/30/30 37/37/37 38/38/38
f 31/31/31 39/39/39 29/29/29
f 29/29/29 39/39/39 37/37/37
f 32/32/32 40/40/40 31/31/31
f 31/31/31 40/40/40 39/39/39
f 33/33/33 41/41/41 32/32/32
f 32/32/32 41/41/41 40/40/40
f 34/34/34 42/42/42 33/33/33
f 33/33/33 42/42/42 41/41/41
f 35/35/35 43/43/43 34/34/34
f 34/34/34 43/43/43 42/42/42
f 36/36/36 44/44/44 35/35/35
f 35/35/35 44/44/44 43/43/43
f 36/36/36 45/45/45 44/44/44
f 45/45/45 46/46/46 44/44/44
f 45/45/45 47/47/47 46/46/46
f 44/44/44 48/48/48 43/43/43
f 44/44/44 46/46/46 48/48/48
f 43/43/43 49/49/49 42/42/42
f 43/43/43 48/48/48 49/49/49
f 42/42/42 50/50/50 41/41/41
f 42/42/42 49/49/49 50/50/50
f 41/41/41 51/51/51 40/40/40
f 41/41/41 50/50/50 51/51/51
f 46/46/46 52/52/52 48/48/48
f 46/46/46 53/53/53 52/52/52
f 48/48/48 54/54/54 49/49/49
f 48/48/48 52/52/52 54/54/54
f 49/49/49 55/55/55 50/50/50
f 49/49/49 54/54/54 55/55/55
f 52/52/52 56/56/56 54/54/54
f 52/52/52 57/57/57 56/56/56
f 54/54/54 56/56/56 58/58/58
f 54/54/54 58/58/58 55/55/55
f 50/50/50 55/55/55 59/59/59
f 50/50/50 59/59/59 51/51/51
f 40/40/40 51/51/51 60/60/60
f 40/40/40 60/60/60 39/39/39
f 56/56/56 61/61/61 58/58/58
f 56/56/56 62/62/62 61/61/61
f 55/55/55 58/58/58 63/63/63
f 55/55/55 63/63/63 59/59/59
f 51/51/51 59/59/59 64/64/64
f 51/51/51 64/64/64 60/60/60
f 39/39/39 60/60/60 65/65/65
f 39/39/39 65/65/65 37/37/37
f 58/58/58 61/61/61 66/66/66
f 58/58/58 66/66/66 63/63/63
f 59/59/59 63/63/63 67/67/67
f 59/59/59 67/67/67 64/64/64
f 60/60/60 64/64/64 68/68/68
f 60/60/60 68/68/68 65/65/65
f 37/37/37 65/65/65 69/69/69
f 37/37/37 69/69/69 38/38/38
f 38/38/38 69/69/69 70/70/70
f 65/65/65 71/71/71 69/69/69
f 65/65/65 68/68/68 71/71/71
f 69/69/69 72/72/72 70/70/70
f 69/69/69 71/71/71 72/72/72
f 70/70/70 72/72/72 73/73/73
f 64/64/64 74/74/74 68/68/68
f 64/64/64 67/67/67 74/74/74
f 63/63/63 75/75/75 67/67/67
f 63/63/63 66/66/66 75/75/75
f 68/68/68 76/76/76 71/71/71
f 68/68/68 74/74/74 76/76/76
f 72/72/72 77/77/77 73/73/73
f 73/73/73 77/77/77 78/78/78
f 71/71/71 79/79/79 72/72/72
f 71/71/71 76/76/76 79/79/79
f 72/72/72 79/79/79 77/77/77
f 67/67/67 80/80/80 74/74/74
f 67/67/67 75/75/75 80/80/80
f 77/77/77 81/81/81 78/78/78
f 78/78/78 81/81/81 82/82/82
f 74/74/74 83/83/83 76/76/76
f 74/74/74 80/80/80 83/83/83
f 79/79/79 84/84/84 77/77/77
f 77/77/77 84/84/84 81/81/81
f 76/76/76 85/85/85 79/79/79
f 76/76/76 83/83/83 85/85/85
f 79/79/79 85/85/85 84/84/84
f 81/81/81 86/86/86 82/82/82
f 82/82/82 86/86/86 87/87/87
f 84/84/84 88/88/88 81/81/81
f 81/81/81 88/88/88 86/86/86
f 85/85/85 89/89/89 84/84/84
f 84/84/84 89/89/89 88/88/88
f 83/83/83 90/90/90 85/85/85
f 85/85/85 90/90/90 89/89/89
f 80/80/80 91/91/91 83/83/83
f 83/83/83 91/91/91 90/90/90
f 86/86/86 92/92/92 87/87/87
f 87/87/87 92/92/92 93/93/93
f 88/88/88 94/94/94 86/86/86
f 86/86/86 94/94/94 92/92/92
f 89/89/89 95/95/95 88/88/88
f 88/88/88 95/95/95 94/94/94
f 90/90/90 96/96/96 89/89/89
f 89/89/89 96/96/96 95/95/95
f 92/92/92 97/97/97 93/93/93
f 93/93/93 97/97/97 98/98/98
f 94/94/94 99/99/99 92/92/92
f 92/92/92 99/99/99 97/97/97
f 95/95/95 100/100/100 94/94/94
f 94/94/94 100/100/100 99/99/99
f 97/97/97 101/101/101 98/98/98
f 98/98/98 101/101/101 102/102/102
f 99/99/99 103/103/103 97/97/97
f 97/97/97 103/103/103 101/101/101
f 101/101/101 104/104/104 102/102/102
f 102/102/102 104/104/104 105/105/105
f 90/90/90 106/106/106 96/96/96
f 91/91/91 106/106/106 90/90/90
f 96/96/96 107/107/107 95/95/95
f 95/95/95 107/107/107 100/100/100
f 100/100/100 108/108/108 99/99/99
f 99/99/99 108/108/108 103/103/103
f 103/103/103 109/109/109 101/101/101
f 101/101/101 109/109/109 104/104/104
f 104/104/104 110/110/110 105/105/105
f 105/105/105 110/110/110 111/111/111
f 106/106/106 112/112/112 96/96/96
f 96/96/96 112/112/112 107/107/107
f 107/107/107 113/113/113 100/100/100
f 100/100/100 113/113/113 108/108/108
f 108/108/108 114/114/114 103/103/103
f 103/103/103 114/114/114 109/109/109
f 109/109/109 115/115/115 104/104/104
f 104/104/104 115/115/115 110/110/110
f 110/110/110 116/116/116 111/111/111
f 111/111/111 116/116/116 117/117/117
f 112/112/112 118/118/118 107/107/107
f 107/107/107 118/118/118 113/113/113
f 113/113/113 119/119/119 108/108/108
f 108/108/108 119/119/119 114/114/114
f 114/114/114 120/120/120 109/109/109
f 109/109/109 120/120/120 115/115/115
f 115/115/115 121/121/121 110/110/110
f 110/110/110 121/121/121 116/116/116
f 116/116/116 122/122/122 117/117/117
f 117/117/117 122/122/122 123/123/123
f 118/118/118 124/124/124 113/113/113
f 113/113/113 124/124/124 119/119/119
f 119/119/119 125/125/125 114/114/114
f 114/114/114 125/125/125 120/120/120
f 120/120/120 126/126/126 115/115/115
f 115/115/115 126/126/126 121/121/121
f 121/121/121 127/127/127 116/116/116
f 116/116/116 127/127/127 122/122/122
f 122/122/122 128/128/128 123/123/123
f 123/123/123 128/128/128 129/129/129
f 124/124/124 130/130/130 119/119/119
f 119/119/119 130/130/130 125/125/125
f 125/125/125 131/131/131 120/120/120
f 120/120/120 131/131/131 126/126/126
f 126/126/126 132/132/132 121/121/121
f 121/121/121 132/132/132 127/127/127
f 127/127/127 133/133/133 122/122/122
f 122/122/122 133/133/133 128/128/128
f 128/128/128 134/134/134 129/129/129
f 129/129/129 134/134/134 135/135/135
f 130/130/130 136/136/136 125/125/125
f 125/125/125 136/136/136 131/131/131
f 131/131/131 137/137/137 126/126/126
f 126/126/126 137/137/137 132/132/132
f 132/132/132 138/138/138 127/127/127
f 127/127/127 138/138/138 133/133/133
f 133/133/133 139/139/139 128/128/128
f 128/128/128 139/139/139 134/134/134
f 134/134/134 140/140/140 135/135/135
f 135/135/135 140/140/140 141/141/141
f 136/136/136 142/142/142 131/131/131
f 131/131/131 142/142/142 137/137/137
f 137/137/137 143/143/143 132/132/132
f 132/132/132 143/143/143 138/138/138
f 138/138/138 144/144/144 133/133/133
f 133/133/133 144/144/144 139/139/139
f 139/139/139 145/145/145 134/134/134
f 134/134/134 145/145/145 140/140/140
f 140/140/140 146/146/146 141/141/141
f 141/141/141 146/146/146 147/147/147
f 142/142/142 148/148/148 137/137/137
f 137/137/137 148/148/148 143/143/143
f 143/143/143 149/149/149 138/138/138
f 138/138/138 149/149/149 144/144/144
f 144/144/144 150/150/150 139/139/139
f 139/139/139 150/150/150 145/145/145
f 145/145/145 151/151/151 140/140/140
f 140/140/140 151/151/151 146/146/146
f 146/146/146 152/152/152 147/147/147
f 147/147/147 152/152/152 153/153/153
f 148/148/148 154/154/154 143/143/143
f 143/143/143 154/154/154 149/149/149
f 149/149/149 155/155/155 144/144/144
f 144/144/144 155/155/155 150/150/150
f 150/150/150 156/156/156 145/145/145
f 145/145/145 156/156/156 151/151/151
f 151/151/151 157/157/157 146/146/146
f 146/146/146 157/157/157 152/152/152
f 152/152/152 158/158/158 153/153/153
f 153/153/153 158/158/158 159/159/159
f 154/154/154 160/160/160 149/149/149
f 149/149/149 160/160/160 155/155/155
f 155/155/155 161/161/161 150/150/150
f 150/150/150 161/161/161 156/156/156
f 156/156/156 162/162/162 151/151/151
f 151/151/151 162/162/162 157/157/157
f 157/157/157 163/163/163 152/152/152
f 152/152/152 163/163/163 158/158/158
f 158/158/158 164/164/164 159/159/159
f 159/159/159 164/164/164 165/165/165
f 160/160/160 166/166/166 155/155/155
f 155/155/155 166/166/166 161/161/161
f 161/161/161 167/167/167 156/156/156
f 156/156/156 167/167/167 162/162/162
f 162/162/162 168/168/168 157/157/157
f 157/157/157 168/168/168 163/163/163
f 163/163/163 169/169/169 158/158/158
f 158/158/158 169/169/169 164/164/164
f 164/164/164 170/170/170 165/165/165
f 165/165/165 170/170/170 171/171/171
f 166/166/166 172/172/172 161/161/161
f 161/161/161 172/172/172 167/167/167
f 167/167/167 173/173/173 162/162/162
f 162/162/162 173/173/173 168/168/168
f 168/168/168 174/174/174 163/163/163
f 163/163/163 174/174/174 169/169/169
f 169/169/169 175/175/175 164/164/164
f 164/164/164 175/175/175 170/170/170
f 170/170/170 176/176/176 171/171/171
f 171/171/171 176/176/176 177/177/177
f 172/172/172 178/178/178 167/167/167
f 167/167/167 178/178/178 173/173/173
f 173/173/173 179/179/179 168/168/168
f 168/168/168 179/179/179 174/174/174
f 174/174/174 180/180/180 169/169/169
f 169/169/169 180/180/180 175/175/175
f 175/175/175 181/181/181 170/170/170
f 170/170/170 181/181/181 176/176/176
f 176/176/176 182/182/182 177/177/177
f 177/177/177 182/182/182 183/183/183
f 182/182/182 184/184/184 183/183/183
f 176/176/176 185/185/185 182/182/182
f 181/181/181 185/185/185 176/176/176
f 182/182/182 186/186/186 184/184/184
f 185/185/185 186/186/186 182/182/182
f 186/186/186 187/187/187 184/184/184
f 175/175/175 188/188/188 181/181/181
f 180/180/180 188/188/188 175/175/175
f 174/174/174 189/189/189 180/180/180
f 179/179/179 189/189/189 174/174/174
f 181/181/181 190/190/190 185/185/185
f 188/188/188 190/190/190 181/181/181
f 186/186/186 191/191/191 187/187/187
f 191/191/191 192/192/192 187/187/187
f 185/185/185 193/193/193 186/186/186
f 190/190/190 193/193/193 185/185/185
f 193/193/193 191/191/191 186/186/186
f 180/180/180 194/194/194 188/188/188
f 189/189/189 194/194/194 180/180/180
f 191/191/191 195/195/195 192/192/192
f 195/195/195 196/196/196 192/192/192
f 188/188/188 197/197/197 190/190/190
f 194/194/194 197/197/197 188/188/188
f 193/193/193 198/198/198 191/191/191
f 198/198/198 195/195/195 191/191/191
f 190/190/190 199/199/199 193/193/193
f 197/197/197 199/199/199 190/190/190
f 199/199/199 198/198/198 193/193/193
f 195/195/195 200/200/200 196/196/196
f 200/200/200 201/201/201 196/196/196
f 198/198/198 202/202/202 195/195/195
f 202/202/202 200/200/200 195/195/195
f 199/199/199 203/203/203 198/198/198
f 203/203/203 202/202/202 198/198/198
f 197/197/197 204/204/204 199/199/199
f 204/204/204 203/203/203 199/199/199
f 194/194/194 205/205/205 197/197/197
f 205/205/205 204/204/204 197/197/197
f 200/200/200 206/206/206 201/201/201
f 206/206/206 207/207/207 201/201/201
f 202/202/202 208/208/208 200/200/200
f 208/208/208 206/206/206 200/200/200
f 203/203/203 209/209/209 202/202/202
f 209/209/209 208/208/208 202/202/202
f 204/204/204 210/210/210 203/203/203
f 210/210/210 209/209/209 203/203/203
f 206/206/206 211/211/211 207/207/207
f 211/211/211 212/212/212 207/207/207
f 208/208/208 213/213/213 206/206/206
f 213/213/213 211/211/211 206/206/206
f 209/209/209 214/214/214 208/208/208
f 214/214/214 213/213/213 208/208/208
f 211/211/211 215/215/215 212/212/212
f 215/215/215 216/216/216 212/212/212
f 215/215/215 217/217/217 216/216/216
f 218/218/218 215/215/215 211/211/211
f 213/213/213 218/218/218 211/211/211
f 218/218/218 219/219/219 215/215/215
f 220/220/220 218/218/218 213/213/213
f 214/214/214 220/220/220 213/213/213
f 220/220/220 221/221/221 218/218/218
f 222/222/222 214/214/214 209/209/209
f 210/210/210 222/222/222 209/209/209
f 223/223/223 220/220/220 214/214/214
f 222/222/222 223/223/223 214/214/214
f 223/223/223 224/224/224 220/220/220
f 225/225/225 223/223/223 222/222/222
f 225/225/225 226/226/226 223/223/223
f 227/227/227 222/222/222 210/210/210
f 227/227/227 225/225/225 222/222/222
f 228/228/228 227/227/227 210/210/210
f 228/228/228 210/210/210 204/204/204
f 205/205/205 228/228/228 204/204/204
f 229/229/229 225/225/225 227/227/227
f 229/229/229 230/230/230 225/225/225
f 231/231/231 227/227/227 228/228/228
f 231/231/231 229/229/229 227/227/227
f 232/232/232 228/228/228 205/205/205
f 232/232/232 231/231/231 228/228/228
f 233/233/233 229/229/229 231/231/231
f 233/233/233 234/234/234 229/229/229
f 235/235/235 233/233/233 231/231/231
f 235/235/235 231/231/231 232/232/232
f 236/236/236 232/232/232 205/205/205
f 236/236/236 205/205/205 194/194/194
f 189/189/189 236/236/236 194/194/194
f 237/237/237 232/232/232 236/236/236
f 237/237/237 235/235/235 232/232/232
f 238/238/238 236/236/236 189/189/189
f 238/238/238 237/237/237 236/236/236
f 179/179/179 238/238/238 189/189/189
f 239/239/239 233/233/233 235/235/235
f 239/239/239 240/240/240 233/233/233
f 241/241/241 235/235/235 237/237/237
f 241/241/241 239/239/239 235/235/235
f 242/242/242 238/238/238 179/179/179
f 173/173/173 242/242/242 179/179/179
f 178/178/178 242/242/242 173/173/173
f 243/243/243 237/237/237 238/238/238
f 242/242/242 243/243/243 238/238/238
f 243/243/243 241/241/241 237/237/237
f 244/244/244 239/239/239 241/241/241
f 244/244/244 245/245/245 239/239/239
f 178/178/178 246/246/246 242/242/242
f 246/246/246 243/243/243 242/242/242
f 247/247/247 241/241/241 243/243/243
f 247/247/247 244/244/244 241/241/241
f 246/246/246 247/247/247 243/243/243
f 248/248/248 246/246/246 178/178/178
f 172/172/172 248/248/248 178/178/178
f 249/249/249 244/244/244 247/247/247
f 249/249/249 250/250/250 244/244/244
f 251/251/251 247/247/247 246/246/246
f 251/251/251 249/249/249 247/247/247
f 248/248/248 251/251/251 246/246/246
f 252/252/252 248/248/248 172/172/172
f 166/166/166 252/252/252 172/172/172
f 253/253/253 249/249/249 251/251/251
f 253/253/253 254/254/254 249/249/249
f 255/255/255 251/251/251 248/248/248
f 255/255/255 253/253/253 251/251/251
f 252/252/252 255/255/255 248/248/248
f 256/256/256 252/252/252 166/166/166
f 160/160/160 256/256/256 166/166/166
f 257/257/257 253/253/253 255/255/255
f 257/257/257 258/258/258 253/253/253
f 259/259/259 255/255/255 252/252/252
f 259/259/259 257/257/257 255/255/255
f 256/256/256 259/259/259 252/252/252
f 260/260/260 256/256/256 160/160/160
f 154/154/154 260/260/260 160/160/160
f 261/261/261 257/257/257 259/259/259
f 261/261/261 262/262/262 257/257/257
f 263/263/263 259/259/259 256/256/256
f 263/263/263 261/261/261 259/259/259
f 260/260/260 263/263/263 256/256/256
f 264/264/264 260/260/260 154/154/154
f 148/148/148 264/264/264 154/154/154
f 265/265/265 261/261/261 263/263/263
f 265/265/265 266/266/266 261/261/261
f 267/267/267 263/263/263 260/260/260
f 267/267/267 265/265/265 263/263/263
f 264/264/264 267/267/267 260/260/260
f 268/268/268 264/264/264 148/148/148
f 142/142/142 268/268/268 148/148/148
f 269/269/269 265/265/265 267/267/267
f 269/269/269 270/270/270 265/265/265
f 271/271/271 267/267/267 264/264/264
f 271/271/271 269/269/269 267/267/267
f 268/268/268 271/271/271 264/264/264
f 272/272/272 268/268/268 142/142/142
f 136/136/136 272/272/272 142/142/142
f 273/273/273 269/269/269 271/271/271
f 273/273/273 274/274/274 269/269/269
f 275/275/275 271/271/271 268/268/268
f 275/275/275 273/273/273 271/271/271
f 272/272/272 275/275/275 268/268/268
f 276/276/276 272/272/272 136/136/136
f 130/130/130 276/276/276 136/136/136
f 277/277/277 273/273/273 275/275/275
f 277/277/277 278/278/278 273/273/273
f 279/279/279 275/275/275 272/272/272
f 279/279/279 277/277/277 275/275/275
f 276/276/276 279/279/279 272/272/272
f 280/280/280 276/276/276 130/130/130
f 124/124/124 280/280/280 130/130/130
f 281/281/281 277/277/277 279/279/279
f 281/281/281 282/282/282 277/277/277
f 283/283/283 279/279/279 276/276/276
f 283/283/283 281/281/281 279/279/279
f 280/280/280 283/283/283 276/276/276
f 284/284/284 280/280/280 124/124/124
f 118/118/118 284/284/284 124/124/124
f 285/285/285 281/281/281 283/283/283
f 285/285/285 286/286/286 281/281/281
f 287/287/287 283/283/283 280/280/280
f 287/287/287 285/285/285 283/283/283
f 284/284/284 287/287/287 280/280/280
f 288/288/288 284/284/284 118/118/118
f 112/112/112 288/288/288 118/118/118
f 289/289/289 285/285/285 287/287/287
f 289/289/289 290/290/290 285/285/285
f 291/291/291 287/287/287 284/284/284
f 291/291/291 289/289/289 287/287/287
f 288/288/288 291/291/291 284/284/284
f 292/292/292 288/288/288 112/112/112
f 106/106/106 292/292/292 112/112/112
f 293/293/293 289/289/289 291/291/291
f 293/293/293 294/294/294 289/289/289
f 295/295/295 291/291/291 288/288/288
f 295/295/295 293/293/293 291/291/291
f 292/292/292 295/295/295 288/288/288
f 296/296/296 292/292/292 106/106/106
f 91/91/91 296/296/296 106/106/106
f 297/297/297 293/293/293 295/295/295
f 297/297/297 298/298/298 293/293/293
f 299/299/299 295/295/295 292/292/292
f 299/299/299 297/297/297 295/295/295
f 296/296/296 299/299/299 292/292/292
f 300/300/300 296/296/296 91/91/91
f 80/80/80 300/300/300 91/91/91
f 75/75/75 300/300/300 80/80/80
f 301/301/301 297/297/297 299/299/299
f 301/301/301 302/302/302 297/297/297
f 303/303/303 299/299/299 296/296/296
f 300/300/300 303/303/303 296/296/296
f 303/303/303 301/301/301 299/299/299
f 75/75/75 304/304/304 300/300/300
f 304/304/304 303/303/303 300/300/300
f 66/66/66 304/304/304 75/75/75
f 305/305/305 301/301/301 303/303/303
f 304/304/304 305/305/305 303/303/303
f 305/305/305 306/306/306 301/301/301
f 66/66/66 307/307/307 304/304/304
f 307/307/307 305/305/305 304/304/304
f 307/307/307 308/308/308 305/305/305
f 61/61/61 307/307/307 66/66/66
f 61/61/61 309/309/309 307/307/307
