g StartChipA
v -0.216951996 -0.035431765 -0.268546134
v -0.216951996 0.011288166 -0.202474058
v -0.150880828 0.011288166 -0.268546134
v 0.215853781 -0.035431765 -0.268546134
v 0.149782613 0.011288166 -0.268546134
v 0.215853781 0.011288166 -0.202474058
v -0.246785983 -0.145930544 0.474942625
v -0.246785983 0 0.474942625
v 0.246789455 0 0.474942625
v 0.246789455 -0.145930544 0.474942625
v 0.246789455 -0.145930544 0.474942625
v 0.246789455 0 0.474942625
v 0.493576527 0 0
v 0.493576527 -0.145930544 0
v 0.493576527 -0.145930544 0
v 0.493576527 0 0
v 0.246789455 0 -0.474942625
v 0.246789455 -0.145930544 -0.474942625
v 0.246789455 -0.145930544 -0.474942625
v 0.246789455 0 -0.474942625
v -0.246785983 0 -0.474942625
v -0.246785983 -0.145930544 -0.474942625
v -0.246785983 -0.145930544 -0.474942625
v -0.246785983 0 -0.474942625
v -0.493576139 0 0
v -0.493576139 -0.145930544 0
v -0.493576139 -0.145930544 0
v -0.493576139 0 0
v -0.246785983 0 0.474942625
v -0.246785983 -0.145930544 0.474942625
v -0.286993504 0.0532670766 -0.0090139769
v -0.286993504 0.0532670766 0.165441886
v -0.286993504 0.00286279665 0.165441886
v -0.286993504 0.00286279665 -0.0090139769
v -0.211952001 0.0532670766 0.165442497
v -0.211952001 0.0532670766 -0.0090139769
v -0.211952001 0.011288166 -0.0090139769
v -0.211952001 0.011288166 0.165442497
v -0.120814301 0.0532670766 0.245407715
v -0.120814301 0.011288166 0.245407715
v -0.000549413031 0.011288166 0.245407715
v -0.000549413031 0.0532670766 0.245407715
v -0.286993504 0.0532670766 0.165441886
v -0.286993504 0.0532670766 -0.0090139769
v -0.211952001 0.0532670766 -0.0090139769
v -0.211952001 0.0532670766 0.165442497
v -0.281993508 0.00286279665 0.251436144
v -0.281993508 0.0482670777 0.251436144
v -0.215922326 0.0482670777 0.317507923
v -0.215922326 0.00286279665 0.317507923
v -0.150880828 0.011288166 0.250407696
v -0.150880828 0.0482670777 0.250407696
v -0.216951996 0.0482670777 0.184335932
v -0.216951996 0.011288166 0.184335932
v -0.281993508 0.0482670777 0.251436144
v -0.150880828 0.0482670777 0.250407696
v -0.215922326 0.0482670777 0.317507923
v -0.216951996 0.0482670777 0.184335932
v -0.216951996 0.0482670777 0.165442497
v -0.281993508 0.0482670777 0.165441886
v -0.120814301 0.0482670777 0.250407696
v -0.150880828 0.0482670777 0.250407696
v -0.150880828 0.011288166 0.250407696
v -0.120814301 0.011288166 0.250407696
v -0.150880828 0.0482670777 0.250407696
v -0.120814301 0.0482670777 0.250407696
v -0.120814301 0.0482670777 0.317507923
v -0.215922326 0.0482670777 0.317507923
v -0.215922326 0.0482670777 0.317507923
v -0.120814301 0.0482670777 0.317507923
v -0.120814301 0.00286279665 0.317507923
v -0.215922326 0.00286279665 0.317507923
v -0.120814301 0.0532670766 0.322507918
v -0.120814301 0.0532670766 0.245407715
v -0.000549413031 0.0532670766 0.245407715
v -0.000549413031 0.0532670766 0.322507918
v -0.120814301 0.0532670766 0.322507918
v -0.000549413031 0.0532670766 0.322507918
v -0.000549413031 0.00286279665 0.322507918
v -0.120814301 0.00286279665 0.322507918
v -0.120814301 0.011288166 0.250407696
v -0.120814301 0.011288166 0.245407715
v -0.120814301 0.0532670766 0.245407715
v -0.120814301 0.0482670777 0.250407696
v -0.120814301 0.0482670777 0.250407696
v -0.120814301 0.0532670766 0.245407715
v -0.120814301 0.0532670766 0.322507918
v -0.120814301 0.0482670777 0.317507923
v -0.120814301 0.0482670777 0.317507923
v -0.120814301 0.0532670766 0.322507918
v -0.120814301 0.00286279665 0.322507918
v -0.120814301 0.00286279665 0.317507923
v -0.281993508 0.00286279665 0.251436144
v -0.281993508 0.00286279665 0.165441886
v -0.281993508 0.0482670777 0.165441886
v -0.281993508 0.0482670777 0.251436144
v -0.216951996 0.0482670777 0.184335932
v -0.216951996 0.0482670777 0.165442497
v -0.216951996 0.011288166 0.165442497
v -0.216951996 0.011288166 0.184335932
v -0.281993508 0.00286279665 0.165441886
v -0.286993504 0.00286279665 0.165441886
v -0.286993504 0.0532670766 0.165441886
v -0.281993508 0.0482670777 0.165441886
v -0.216951996 0.0482670777 0.165442497
v -0.211952001 0.0532670766 0.165442497
v -0.211952001 0.011288166 0.165442497
v -0.216951996 0.011288166 0.165442497
v -0.281993508 0.0482670777 0.165441886
v -0.286993504 0.0532670766 0.165441886
v -0.211952001 0.0532670766 0.165442497
v -0.216951996 0.0482670777 0.165442497
v 0.285894662 0.0532670766 -0.0090139769
v 0.285894662 0.00286279665 -0.0090139769
v 0.285894662 0.00286279665 0.165441886
v 0.285894662 0.0532670766 0.165441886
v 0.210853174 0.0532670766 0.165442497
v 0.210853174 0.011288166 0.165442497
v 0.210853174 0.011288166 -0.0090139769
v 0.210853174 0.0532670766 -0.0090139769
v 0.119715475 0.0532670766 0.245407715
v -0.000549413031 0.0532670766 0.245407715
v -0.000549413031 0.011288166 0.245407715
v 0.119715475 0.011288166 0.245407715
v 0.285894662 0.0532670766 0.165441886
v 0.210853174 0.0532670766 0.165442497
v 0.210853174 0.0532670766 -0.0090139769
v 0.285894662 0.0532670766 -0.0090139769
v 0.280894667 0.00286279665 0.251436144
v 0.214823514 0.00286279665 0.317507923
v 0.214823514 0.0482670777 0.317507923
v 0.280894667 0.0482670777 0.251436144
v 0.149782002 0.011288166 0.250407696
v 0.21585317 0.011288166 0.184335932
v 0.21585317 0.0482670777 0.184335932
v 0.149782002 0.0482670777 0.250407696
v 0.280894667 0.0482670777 0.251436144
v 0.214823514 0.0482670777 0.317507923
v 0.149782002 0.0482670777 0.250407696
v 0.21585317 0.0482670777 0.184335932
v 0.21585317 0.0482670777 0.165442497
v 0.280894667 0.0482670777 0.165441886
v 0.119715475 0.0482670777 0.250407696
v 0.119715475 0.011288166 0.250407696
v 0.149782002 0.011288166 0.250407696
v 0.149782002 0.0482670777 0.250407696
v 0.149782002 0.0482670777 0.250407696
v 0.214823514 0.0482670777 0.317507923
v 0.119715475 0.0482670777 0.317507923
v 0.119715475 0.0482670777 0.250407696
v 0.214823514 0.0482670777 0.317507923
v 0.214823514 0.00286279665 0.317507923
v 0.119715475 0.00286279665 0.317507923
v 0.119715475 0.0482670777 0.317507923
v 0.119715475 0.0532670766 0.322507918
v -0.000549413031 0.0532670766 0.322507918
v -0.000549413031 0.0532670766 0.245407715
v 0.119715475 0.0532670766 0.245407715
v 0.119715475 0.0532670766 0.322507918
v 0.119715475 0.00286279665 0.322507918
v -0.000549413031 0.00286279665 0.322507918
v -0.000549413031 0.0532670766 0.322507918
v 0.119715475 0.011288166 0.250407696
v 0.119715475 0.0482670777 0.250407696
v 0.119715475 0.0532670766 0.245407715
v 0.119715475 0.011288166 0.245407715
v 0.119715475 0.0482670777 0.250407696
v 0.119715475 0.0482670777 0.317507923
v 0.119715475 0.0532670766 0.322507918
v 0.119715475 0.0532670766 0.245407715
v 0.119715475 0.0482670777 0.317507923
v 0.119715475 0.00286279665 0.317507923
v 0.119715475 0.00286279665 0.322507918
v 0.119715475 0.0532670766 0.322507918
v 0.280894667 0.00286279665 0.251436144
v 0.280894667 0.0482670777 0.251436144
v 0.280894667 0.0482670777 0.165441886
v 0.280894667 0.00286279665 0.165441886
v 0.21585317 0.0482670777 0.184335932
v 0.21585317 0.011288166 0.184335932
v 0.21585317 0.011288166 0.165442497
v 0.21585317 0.0482670777 0.165442497
v 0.280894667 0.00286279665 0.165441886
v 0.280894667 0.0482670777 0.165441886
v 0.285894662 0.0532670766 0.165441886
v 0.285894662 0.00286279665 0.165441886
v 0.21585317 0.0482670777 0.165442497
v 0.21585317 0.011288166 0.165442497
v 0.210853174 0.011288166 0.165442497
v 0.210853174 0.0532670766 0.165442497
v 0.280894667 0.0482670777 0.165441886
v 0.21585317 0.0482670777 0.165442497
v 0.210853174 0.0532670766 0.165442497
v 0.285894662 0.0532670766 0.165441886
v -0.286993504 0.0532670766 -0.0090139769
v -0.286993504 0.00286279665 -0.0090139769
v -0.286993504 0.00286279665 -0.183469847
v -0.286993504 0.0532670766 -0.183469847
v -0.211952001 0.0532670766 -0.183470458
v -0.211952001 0.011288166 -0.183470458
v -0.211952001 0.011288166 -0.0090139769
v -0.211952001 0.0532670766 -0.0090139769
v -0.120814301 0.0532670766 -0.263435662
v -0.000549413031 0.0532670766 -0.263435662
v -0.000549413031 0.011288166 -0.263435662
v -0.120814301 0.011288166 -0.263435662
v -0.286993504 0.0532670766 -0.183469847
v -0.211952001 0.0532670766 -0.183470458
v -0.211952001 0.0532670766 -0.0090139769
v -0.286993504 0.0532670766 -0.0090139769
v -0.281993508 0.00286279665 -0.269464105
v -0.215922326 0.00286279665 -0.335535884
v -0.215922326 0.0482670777 -0.335535884
v -0.281993508 0.0482670777 -0.269464105
v -0.150880828 0.011288166 -0.268435657
v -0.216951996 0.011288166 -0.202363893
v -0.216951996 0.0482670777 -0.202363893
v -0.150880828 0.0482670777 -0.268435657
v -0.281993508 0.0482670777 -0.269464105
v -0.215922326 0.0482670777 -0.335535884
v -0.150880828 0.0482670777 -0.268435657
v -0.216951996 0.0482670777 -0.202363893
v -0.216951996 0.0482670777 -0.183470458
v -0.281993508 0.0482670777 -0.183469847
v -0.120814301 0.0482670777 -0.268435657
v -0.120814301 0.011288166 -0.268435657
v -0.150880828 0.011288166 -0.268435657
v -0.150880828 0.0482670777 -0.268435657
v -0.150880828 0.0482670777 -0.268435657
v -0.215922326 0.0482670777 -0.335535884
v -0.120814301 0.0482670777 -0.335535884
v -0.120814301 0.0482670777 -0.268435657
v -0.215922326 0.0482670777 -0.335535884
v -0.215922326 0.00286279665 -0.335535884
v -0.120814301 0.00286279665 -0.335535884
v -0.120814301 0.0482670777 -0.335535884
v -0.120814301 0.0532670766 -0.340535879
v -0.000549413031 0.0532670766 -0.340535879
v -0.000549413031 0.0532670766 -0.263435662
v -0.120814301 0.0532670766 -0.263435662
v -0.120814301 0.0532670766 -0.340535879
v -0.120814301 0.00286279665 -0.340535879
v -0.000549413031 0.00286279665 -0.340535879
v -0.000549413031 0.0532670766 -0.340535879
v -0.120814301 0.011288166 -0.268435657
v -0.120814301 0.0482670777 -0.268435657
v -0.120814301 0.0532670766 -0.263435662
v -0.120814301 0.011288166 -0.263435662
v -0.120814301 0.0482670777 -0.268435657
v -0.120814301 0.0482670777 -0.335535884
v -0.120814301 0.0532670766 -0.340535879
v -0.120814301 0.0532670766 -0.263435662
v -0.120814301 0.0482670777 -0.335535884
v -0.120814301 0.00286279665 -0.335535884
v -0.120814301 0.00286279665 -0.340535879
v -0.120814301 0.0532670766 -0.340535879
v -0.281993508 0.00286279665 -0.269464105
v -0.281993508 0.0482670777 -0.269464105
v -0.281993508 0.0482670777 -0.183469847
v -0.281993508 0.00286279665 -0.183469847
v -0.216951996 0.0482670777 -0.202363893
v -0.216951996 0.011288166 -0.202363893
v -0.216951996 0.011288166 -0.183470458
v -0.216951996 0.0482670777 -0.183470458
v -0.281993508 0.00286279665 -0.183469847
v -0.281993508 0.0482670777 -0.183469847
v -0.286993504 0.0532670766 -0.183469847
v -0.286993504 0.00286279665 -0.183469847
v -0.216951996 0.0482670777 -0.183470458
v -0.216951996 0.011288166 -0.183470458
v -0.211952001 0.011288166 -0.183470458
v -0.211952001 0.0532670766 -0.183470458
v -0.281993508 0.0482670777 -0.183469847
v -0.216951996 0.0482670777 -0.183470458
v -0.211952001 0.0532670766 -0.183470458
v -0.286993504 0.0532670766 -0.183469847
v 0.285894662 0.0532670766 -0.0090139769
v 0.285894662 0.0532670766 -0.183469847
v 0.285894662 0.00286279665 -0.183469847
v 0.285894662 0.00286279665 -0.0090139769
v 0.210853174 0.0532670766 -0.183470458
v 0.210853174 0.0532670766 -0.0090139769
v 0.210853174 0.011288166 -0.0090139769
v 0.210853174 0.011288166 -0.183470458
v 0.119715475 0.0532670766 -0.263435662
v 0.119715475 0.011288166 -0.263435662
v -0.000549413031 0.011288166 -0.263435662
v -0.000549413031 0.0532670766 -0.263435662
v 0.285894662 0.0532670766 -0.183469847
v 0.285894662 0.0532670766 -0.0090139769
v 0.210853174 0.0532670766 -0.0090139769
v 0.210853174 0.0532670766 -0.183470458
v 0.280894667 0.00286279665 -0.269464105
v 0.280894667 0.0482670777 -0.269464105
v 0.214823514 0.0482670777 -0.335535884
v 0.214823514 0.00286279665 -0.335535884
v 0.149782002 0.011288166 -0.268435657
v 0.149782002 0.0482670777 -0.268435657
v 0.21585317 0.0482670777 -0.202363893
v 0.21585317 0.011288166 -0.202363893
v 0.280894667 0.0482670777 -0.269464105
v 0.149782002 0.0482670777 -0.268435657
v 0.214823514 0.0482670777 -0.335535884
v 0.21585317 0.0482670777 -0.202363893
v 0.21585317 0.0482670777 -0.183470458
v 0.280894667 0.0482670777 -0.183469847
v 0.119715475 0.0482670777 -0.268435657
v 0.149782002 0.0482670777 -0.268435657
v 0.149782002 0.011288166 -0.268435657
v 0.119715475 0.011288166 -0.268435657
v 0.149782002 0.0482670777 -0.268435657
v 0.119715475 0.0482670777 -0.268435657
v 0.119715475 0.0482670777 -0.335535884
v 0.214823514 0.0482670777 -0.335535884
v 0.214823514 0.0482670777 -0.335535884
v 0.119715475 0.0482670777 -0.335535884
v 0.119715475 0.00286279665 -0.335535884
v 0.214823514 0.00286279665 -0.335535884
v 0.119715475 0.0532670766 -0.340535879
v 0.119715475 0.0532670766 -0.263435662
v -0.000549413031 0.0532670766 -0.263435662
v -0.000549413031 0.0532670766 -0.340535879
v 0.119715475 0.0532670766 -0.340535879
v -0.000549413031 0.0532670766 -0.340535879
v -0.000549413031 0.00286279665 -0.340535879
v 0.119715475 0.00286279665 -0.340535879
v 0.119715475 0.011288166 -0.268435657
v 0.119715475 0.011288166 -0.263435662
v 0.119715475 0.0532670766 -0.263435662
v 0.119715475 0.0482670777 -0.268435657
v 0.119715475 0.0482670777 -0.268435657
v 0.119715475 0.0532670766 -0.263435662
v 0.119715475 0.0532670766 -0.340535879
v 0.119715475 0.0482670777 -0.335535884
v 0.119715475 0.0482670777 -0.335535884
v 0.119715475 0.0532670766 -0.340535879
v 0.119715475 0.00286279665 -0.340535879
v 0.119715475 0.00286279665 -0.335535884
v 0.280894667 0.00286279665 -0.269464105
v 0.280894667 0.00286279665 -0.183469847
v 0.280894667 0.0482670777 -0.183469847
v 0.280894667 0.0482670777 -0.269464105
v 0.21585317 0.0482670777 -0.202363893
v 0.21585317 0.0482670777 -0.183470458
v 0.21585317 0.011288166 -0.183470458
v 0.21585317 0.011288166 -0.202363893
v 0.280894667 0.00286279665 -0.183469847
v 0.285894662 0.00286279665 -0.183469847
v 0.285894662 0.0532670766 -0.183469847
v 0.280894667 0.0482670777 -0.183469847
v 0.21585317 0.0482670777 -0.183470458
v 0.210853174 0.0532670766 -0.183470458
v 0.210853174 0.011288166 -0.183470458
v 0.21585317 0.011288166 -0.183470458
v 0.280894667 0.0482670777 -0.183469847
v 0.285894662 0.0532670766 -0.183469847
v 0.210853174 0.0532670766 -0.183470458
v 0.21585317 0.0482670777 -0.183470458
v 0.215853781 0.011288166 0.150240481
v 0.215853781 0.011288166 0.250407696
v -0.216951996 0.011288166 0.250407696
v -0.216951996 0.011288166 0.150240481
v -0.216951996 0.011288166 0.150240481
v -0.216951996 -0.0257644076 0.150240481
v 0.215853781 -0.0257644076 0.150240481
v 0.215853781 0.011288166 0.150240481
v 0.215853781 -0.0257644076 0.0500741564
v 0.215853781 -0.0257644076 0.150240481
v -0.216951996 -0.0257644076 0.150240481
v -0.216951996 -0.0257644076 0.0500741564
v -0.216951996 -0.0257644076 0.0500741564
v -0.216951996 -0.0628169775 0.0500741564
v 0.215853781 -0.0628169775 0.0500741564
v 0.215853781 -0.0257644076 0.0500741564
v 0.215853781 -0.0998695567 -0.15025939
v 0.215853781 -0.0998695567 -0.0500927716
v -0.216951996 -0.0998695567 -0.0500927716
v -0.216951996 -0.0998695567 -0.15025939
v -0.216951996 -0.0998695567 -0.15025939
v -0.216951996 -0.136922121 -0.15025939
v 0.215853781 -0.136922121 -0.15025939
v 0.215853781 -0.0998695567 -0.15025939
v 0.215853781 -0.0628169775 -0.0500927716
v 0.215853781 -0.0628169775 0.0500741564
v -0.216951996 -0.0628169775 0.0500741564
v -0.216951996 -0.0628169775 -0.0500927716
v -0.216951996 -0.0628169775 -0.0500927716
v -0.216951996 -0.0998695567 -0.0500927716
v 0.215853781 -0.0998695567 -0.0500927716
v 0.215853781 -0.0628169775 -0.0500927716
v 0.215853781 -0.136922121 -0.268546134
v 0.215853781 -0.136922121 -0.15025939
v -0.216951996 -0.136922121 -0.15025939
v -0.216951996 -0.136922121 -0.268546134
v -0.216951996 -0.035431765 -0.268546134
v -0.216951996 -0.143067792 -0.268546134
v -0.216951996 -0.143067792 0.250407696
v -0.216951996 0.011288166 0.250407696
v -0.216951996 0.011288166 -0.202474058
v 0.149782613 0.011288166 -0.268546134
v 0.215853781 -0.035431765 -0.268546134
v 0.215853781 -0.143067792 -0.268546134
v -0.216951996 -0.143067792 -0.268546134
v -0.150880828 0.011288166 -0.268546134
v -0.216951996 -0.035431765 -0.268546134
v 0.215853781 0.011288166 0.250407696
v 0.215853781 -0.143067792 0.250407696
v 0.215853781 -0.143067792 -0.268546134
v 0.215853781 -0.035431765 -0.268546134
v 0.215853781 0.011288166 -0.202474058
v 0.233564347 0 -0.453166485
v 0.244681299 9.26513588E-10 -0.247666016
v 0.163495392 0 -0.314444572
v -0.16349192 0 -0.314444572
v 0.469036728 0 0
v 0.244681299 0 0
v 0.244681299 9.26513588E-10 0.249815062
v -0.233561486 0 -0.453166485
v -0.259350687 9.26513588E-10 -0.247666925
v 0.233564347 0 0.453165889
v 0.163495392 0 0.307889402
v -0.469035149 0 0
v -0.259350687 0 0
v -0.259350687 9.26513588E-10 0.249815673
v -0.233561486 0 0.453165263
v -0.16349192 0 0.307889402
v 0.246789455 0 -0.474942625
v 0.493576527 0 0
v -0.246785983 0 -0.474942625
v 0.246789455 0 0.474942625
v -0.493576139 0 0
v -0.246785983 0 0.474942625
vt 0.982421875 0.779296875
vt 0.991699219 0.779296875
vt 0.981933594 0.770019531
vt 0.938964844 0.779296875
vt 0.938964844 0.770019531
vt 0.9296875 0.779296875
vt 0.893066406 0.834472656
vt 0.893066406 0.85546875
vt 0.9609375 0.85546875
vt 0.9609375 0.834472656
vt 0.893066406 0.834472656
vt 0.893066406 0.85546875
vt 0.9609375 0.85546875
vt 0.9609375 0.834472656
vt 0.893066406 0.834472656
vt 0.893066406 0.85546875
vt 0.9609375 0.85546875
vt 0.9609375 0.834472656
vt 0.893066406 0.834472656
vt 0.893066406 0.85546875
vt 0.9609375 0.85546875
vt 0.9609375 0.834472656
vt 0.893066406 0.834472656
vt 0.893066406 0.85546875
vt 0.9609375 0.85546875
vt 0.9609375 0.834472656
vt 0.893066406 0.834472656
vt 0.893066406 0.85546875
vt 0.9609375 0.85546875
vt 0.9609375 0.834472656
vt 0.888671875 0.73046875
vt 0.921386719 0.73046875
vt 0.921386719 0.721191406
vt 0.888671875 0.721191406
vt 0.9296875 0.743164062
vt 0.897460938 0.743164062
vt 0.897460938 0.734863281
vt 0.9296875 0.734863281
vt 0.955566406 0.743164062
vt 0.955566406 0.734863281
vt 0.985351562 0.734863281
vt 0.985351562 0.743164062
vt 0.901367188 0.779785156
vt 0.901367188 0.8125
vt 0.915527344 0.8125
vt 0.915527344 0.779785156
vt 0.938964844 0.721191406
vt 0.938964844 0.729492188
vt 0.948730469 0.729492188
vt 0.948730469 0.721191406
vt 0.950195312 0.734863281
vt 0.950195312 0.741699219
vt 0.935058594 0.741699219
vt 0.935058594 0.734863281
vt 0.90234375 0.763183594
vt 0.926269531 0.76171875
vt 0.916503906 0.749023438
vt 0.914550781 0.7734375
vt 0.914550781 0.777832031
vt 0.90234375 0.777832031
vt 0.954101562 0.741699219
vt 0.950195312 0.741699219
vt 0.950195312 0.734863281
vt 0.954101562 0.734863281
vt 0.926269531 0.76171875
vt 0.933105469 0.76171875
vt 0.933105469 0.749023438
vt 0.916503906 0.749023438
vt 0.948730469 0.729492188
vt 0.963378906 0.729492188
vt 0.963378906 0.721191406
vt 0.948730469 0.721191406
vt 0.936035156 0.748046875
vt 0.936035156 0.762695312
vt 0.951660156 0.762695312
vt 0.951660156 0.748046875
vt 0.96484375 0.73046875
vt 0.994140625 0.73046875
vt 0.994140625 0.721191406
vt 0.96484375 0.721191406
vt 0.954101562 0.734863281
vt 0.955566406 0.734863281
vt 0.955566406 0.743164062
vt 0.954101562 0.741699219
vt 0.933105469 0.76171875
vt 0.936035156 0.762695312
vt 0.936035156 0.748046875
vt 0.933105469 0.749023438
vt 0.963378906 0.729492188
vt 0.96484375 0.73046875
vt 0.96484375 0.721191406
vt 0.963378906 0.721191406
vt 0.938964844 0.721191406
vt 0.922851562 0.721191406
vt 0.922851562 0.729492188
vt 0.938964844 0.729492188
vt 0.935058594 0.741699219
vt 0.931152344 0.741699219
vt 0.931152344 0.734863281
vt 0.935058594 0.734863281
vt 0.922851562 0.721191406
vt 0.921386719 0.721191406
vt 0.921386719 0.73046875
vt 0.922851562 0.729492188
vt 0.931152344 0.741699219
vt 0.9296875 0.743164062
vt 0.9296875 0.734863281
vt 0.931152344 0.734863281
vt 0.90234375 0.777832031
vt 0.901367188 0.779785156
vt 0.915527344 0.779785156
vt 0.914550781 0.777832031
vt 0.888671875 0.73046875
vt 0.888671875 0.721191406
vt 0.921386719 0.721191406
vt 0.921386719 0.73046875
vt 0.9296875 0.743164062
vt 0.9296875 0.734863281
vt 0.897460938 0.734863281
vt 0.897460938 0.743164062
vt 0.955566406 0.743164062
vt 0.985351562 0.743164062
vt 0.985351562 0.734863281
vt 0.955566406 0.734863281
vt 0.901367188 0.779785156
vt 0.915527344 0.779785156
vt 0.915527344 0.8125
vt 0.901367188 0.8125
vt 0.938964844 0.721191406
vt 0.948730469 0.721191406
vt 0.948730469 0.729492188
vt 0.938964844 0.729492188
vt 0.950195312 0.734863281
vt 0.935058594 0.734863281
vt 0.935058594 0.741699219
vt 0.950195312 0.741699219
vt 0.90234375 0.763183594
vt 0.916503906 0.749023438
vt 0.926269531 0.76171875
vt 0.914550781 0.7734375
vt 0.914550781 0.777832031
vt 0.90234375 0.777832031
vt 0.954101562 0.741699219
vt 0.954101562 0.734863281
vt 0.950195312 0.734863281
vt 0.950195312 0.741699219
vt 0.926269531 0.76171875
vt 0.916503906 0.749023438
vt 0.933105469 0.749023438
vt 0.933105469 0.76171875
vt 0.948730469 0.729492188
vt 0.948730469 0.721191406
vt 0.963378906 0.721191406
vt 0.963378906 0.729492188
vt 0.936035156 0.748046875
vt 0.951660156 0.748046875
vt 0.951660156 0.762695312
vt 0.936035156 0.762695312
vt 0.96484375 0.73046875
vt 0.96484375 0.721191406
vt 0.994140625 0.721191406
vt 0.994140625 0.73046875
vt 0.954101562 0.734863281
vt 0.954101562 0.741699219
vt 0.955566406 0.743164062
vt 0.955566406 0.734863281
vt 0.933105469 0.76171875
vt 0.933105469 0.749023438
vt 0.936035156 0.748046875
vt 0.936035156 0.762695312
vt 0.963378906 0.729492188
vt 0.963378906 0.721191406
vt 0.96484375 0.721191406
vt 0.96484375 0.73046875
vt 0.938964844 0.721191406
vt 0.938964844 0.729492188
vt 0.922851562 0.729492188
vt 0.922851562 0.721191406
vt 0.935058594 0.741699219
vt 0.935058594 0.734863281
vt 0.931152344 0.734863281
vt 0.931152344 0.741699219
vt 0.922851562 0.721191406
vt 0.922851562 0.729492188
vt 0.921386719 0.73046875
vt 0.921386719 0.721191406
vt 0.931152344 0.741699219
vt 0.931152344 0.734863281
vt 0.9296875 0.734863281
vt 0.9296875 0.743164062
vt 0.90234375 0.777832031
vt 0.914550781 0.777832031
vt 0.915527344 0.779785156
vt 0.901367188 0.779785156
vt 0.888671875 0.73046875
vt 0.888671875 0.721191406
vt 0.921386719 0.721191406
vt 0.921386719 0.73046875
vt 0.9296875 0.743164062
vt 0.9296875 0.734863281
vt 0.897460938 0.734863281
vt 0.897460938 0.743164062
vt 0.955566406 0.743164062
vt 0.985351562 0.743164062
vt 0.985351562 0.734863281
vt 0.955566406 0.734863281
vt 0.901367188 0.779785156
vt 0.915527344 0.779785156
vt 0.915527344 0.8125
vt 0.901367188 0.8125
vt 0.938964844 0.721191406
vt 0.948730469 0.721191406
vt 0.948730469 0.729492188
vt 0.938964844 0.729492188
vt 0.950195312 0.734863281
vt 0.935058594 0.734863281
vt 0.935058594 0.741699219
vt 0.950195312 0.741699219
vt 0.90234375 0.763183594
vt 0.916503906 0.749023438
vt 0.926269531 0.76171875
vt 0.914550781 0.7734375
vt 0.914550781 0.777832031
vt 0.90234375 0.777832031
vt 0.954101562 0.741699219
vt 0.954101562 0.734863281
vt 0.950195312 0.734863281
vt 0.950195312 0.741699219
vt 0.926269531 0.76171875
vt 0.916503906 0.749023438
vt 0.933105469 0.749023438
vt 0.933105469 0.76171875
vt 0.948730469 0.729492188
vt 0.948730469 0.721191406
vt 0.963378906 0.721191406
vt 0.963378906 0.729492188
vt 0.936035156 0.748046875
vt 0.951660156 0.748046875
vt 0.951660156 0.762695312
vt 0.936035156 0.762695312
vt 0.96484375 0.73046875
vt 0.96484375 0.721191406
vt 0.994140625 0.721191406
vt 0.994140625 0.73046875
vt 0.954101562 0.734863281
vt 0.954101562 0.741699219
vt 0.955566406 0.743164062
vt 0.955566406 0.734863281
vt 0.933105469 0.76171875
vt 0.933105469 0.749023438
vt 0.936035156 0.748046875
vt 0.936035156 0.762695312
vt 0.963378906 0.729492188
vt 0.963378906 0.721191406
vt 0.96484375 0.721191406
vt 0.96484375 0.73046875
vt 0.938964844 0.721191406
vt 0.938964844 0.729492188
vt 0.922851562 0.729492188
vt 0.922851562 0.721191406
vt 0.935058594 0.741699219
vt 0.935058594 0.734863281
vt 0.931152344 0.734863281
vt 0.931152344 0.741699219
vt 0.922851562 0.721191406
vt 0.922851562 0.729492188
vt 0.921386719 0.73046875
vt 0.921386719 0.721191406
vt 0.931152344 0.741699219
vt 0.931152344 0.734863281
vt 0.9296875 0.734863281
vt 0.9296875 0.743164062
vt 0.90234375 0.777832031
vt 0.914550781 0.777832031
vt 0.915527344 0.779785156
vt 0.901367188 0.779785156
vt 0.888671875 0.73046875
vt 0.921386719 0.73046875
vt 0.921386719 0.721191406
vt 0.888671875 0.721191406
vt 0.9296875 0.743164062
vt 0.897460938 0.743164062
vt 0.897460938 0.734863281
vt 0.9296875 0.734863281
vt 0.955566406 0.743164062
vt 0.955566406 0.734863281
vt 0.985351562 0.734863281
vt 0.985351562 0.743164062
vt 0.901367188 0.779785156
vt 0.901367188 0.8125
vt 0.915527344 0.8125
vt 0.915527344 0.779785156
vt 0.938964844 0.721191406
vt 0.938964844 0.729492188
vt 0.948730469 0.729492188
vt 0.948730469 0.721191406
vt 0.950195312 0.734863281
vt 0.950195312 0.741699219
vt 0.935058594 0.741699219
vt 0.935058594 0.734863281
vt 0.90234375 0.763183594
vt 0.926269531 0.76171875
vt 0.916503906 0.749023438
vt 0.914550781 0.7734375
vt 0.914550781 0.777832031
vt 0.90234375 0.777832031
vt 0.954101562 0.741699219
vt 0.950195312 0.741699219
vt 0.950195312 0.734863281
vt 0.954101562 0.734863281
vt 0.926269531 0.76171875
vt 0.933105469 0.76171875
vt 0.933105469 0.749023438
vt 0.916503906 0.749023438
vt 0.948730469 0.729492188
vt 0.963378906 0.729492188
vt 0.963378906 0.721191406
vt 0.948730469 0.721191406
vt 0.936035156 0.748046875
vt 0.936035156 0.762695312
vt 0.951660156 0.762695312
vt 0.951660156 0.748046875
vt 0.96484375 0.73046875
vt 0.994140625 0.73046875
vt 0.994140625 0.721191406
vt 0.96484375 0.721191406
vt 0.954101562 0.734863281
vt 0.955566406 0.734863281
vt 0.955566406 0.743164062
vt 0.954101562 0.741699219
vt 0.933105469 0.76171875
vt 0.936035156 0.762695312
vt 0.936035156 0.748046875
vt 0.933105469 0.749023438
vt 0.963378906 0.729492188
vt 0.96484375 0.73046875
vt 0.96484375 0.721191406
vt 0.963378906 0.721191406
vt 0.938964844 0.721191406
vt 0.922851562 0.721191406
vt 0.922851562 0.729492188
vt 0.938964844 0.729492188
vt 0.935058594 0.741699219
vt 0.931152344 0.741699219
vt 0.931152344 0.734863281
vt 0.935058594 0.734863281
vt 0.922851562 0.721191406
vt 0.921386719 0.721191406
vt 0.921386719 0.73046875
vt 0.922851562 0.729492188
vt 0.931152344 0.741699219
vt 0.9296875 0.743164062
vt 0.9296875 0.734863281
vt 0.931152344 0.734863281
vt 0.90234375 0.777832031
vt 0.901367188 0.779785156
vt 0.915527344 0.779785156
vt 0.914550781 0.777832031
vt 0.836914062 0.809082031
vt 0.836914062 0.821289062
vt 0.890136719 0.821289062
vt 0.890136719 0.809082031
vt 0.890136719 0.809082031
vt 0.890136719 0.8046875
vt 0.836914062 0.8046875
vt 0.836914062 0.809082031
vt 0.836914062 0.791015625
vt 0.836914062 0.803710938
vt 0.890136719 0.803710938
vt 0.890136719 0.791015625
vt 0.890136719 0.791015625
vt 0.890136719 0.786621094
vt 0.836914062 0.786621094
vt 0.836914062 0.791015625
vt 0.836914062 0.755371094
vt 0.836914062 0.767578125
vt 0.890136719 0.767578125
vt 0.890136719 0.755371094
vt 0.890136719 0.755371094
vt 0.890136719 0.750488281
vt 0.836914062 0.750488281
vt 0.836914062 0.755371094
vt 0.836914062 0.7734375
vt 0.836914062 0.785644531
vt 0.890136719 0.785644531
vt 0.890136719 0.7734375
vt 0.890136719 0.7734375
vt 0.890136719 0.769042969
vt 0.836914062 0.769042969
vt 0.836914062 0.7734375
vt 0.836914062 0.736816406
vt 0.836914062 0.749511719
vt 0.890136719 0.749511719
vt 0.890136719 0.736816406
vt 0.982421875 0.779296875
vt 0.977050781 0.787109375
vt 0.977050781 0.825195312
vt 0.991699219 0.825195312
vt 0.991699219 0.779296875
vt 0.938964844 0.770019531
vt 0.938964844 0.779296875
vt 0.943847656 0.787109375
vt 0.977050781 0.787109375
vt 0.981933594 0.770019531
vt 0.982421875 0.779296875
vt 0.929199219 0.825195312
vt 0.943847656 0.825195312
vt 0.943847656 0.787109375
vt 0.938964844 0.779296875
vt 0.9296875 0.779296875
vt 0.896484375 0.860839844
vt 0.895019531 0.888671875
vt 0.905761719 0.879394531
vt 0.948242188 0.879394531
vt 0.865722656 0.921875
vt 0.895019531 0.921875
vt 0.895019531 0.955566406
vt 0.957519531 0.860839844
vt 0.9609375 0.888671875
vt 0.896484375 0.983398438
vt 0.905761719 0.963378906
vt 0.98828125 0.921875
vt 0.9609375 0.921875
vt 0.9609375 0.955566406
vt 0.957519531 0.983398438
vt 0.948242188 0.963378906
vt 0.893066406 0.85546875
vt 0.859375 0.921875
vt 0.9609375 0.85546875
vt 0.893066406 0.988769531
vt 0.994628906 0.921875
vt 0.9609375 0.988769531
vn 0.5 -0.70703125 0.5
vn 0.5 -0.70703125 0.5
vn 0.5 -0.70703125 0.5
vn -0.5 -0.70703125 0.5
vn -0.5 -0.70703125 0.5
vn -0.5 -0.70703125 0.5
vn -0 0 1
vn -0 0 1
vn -0 0 1
vn -0 0 1
vn 0.887207031 0 0.461181641
vn 0.887207031 0 0.461181641
vn 0.887207031 0 0.461181641
vn 0.887207031 0 0.461181641
vn 0.887207031 0 -0.461181641
vn 0.887207031 0 -0.461181641
vn 0.887207031 0 -0.461181641
vn 0.887207031 0 -0.461181641
vn -0 0 -1
vn -0 0 -1
vn -0 0 -1
vn -0 0 -1
vn -0.887207031 0 -0.461181641
vn -0.887207031 0 -0.461181641
vn -0.887207031 0 -0.461181641
vn -0.887207031 0 -0.461181641
vn -0.887207031 0 0.461181641
vn -0.887207031 0 0.461181641
vn -0.887207031 0 0.461181641
vn -0.887207031 0 0.461181641
vn -1 0 0
vn -1 0 0
vn -1 0 0
vn -1 0 0
vn 1 0 0
vn 1 0 0
vn 1 0 0
vn 1 0 0
vn -0 0 -1
vn -0 0 -1
vn -0 0 -1
vn -0 0 -1
vn -0 1 0
vn -0 1 0
vn -0 1 0
vn -0 1 0
vn -0.70703125 0 0.70703125
vn -0.70703125 0 0.70703125
vn -0.70703125 0 0.70703125
vn -0.70703125 0 0.70703125
vn 0.70703125 0 -0.70703125
vn 0.70703125 0 -0.70703125
vn 0.70703125 0 -0.70703125
vn 0.70703125 0 -0.70703125
vn -0 1 0
vn -0 1 0
vn -0 1 0
vn -0 1 0
vn -0 1 0
vn -0 1 0
vn -0 0 -1
vn -0 0 -1
vn -0 0 -1
vn -0 0 -1
vn -0 1 0
vn -0 1 0
vn -0 1 0
vn -0 1 0
vn -0 0 1
vn -0 0 1
vn -0 0 1
vn -0 0 1
vn -0 1 0
vn -0 1 0
vn -0 1 0
vn -0 1 0
vn -0 0 1
vn -0 0 1
vn -0 0 1
vn -0 0 1
vn -1 0 0
vn -1 0 0
vn -1 0 0
vn -1 0 0
vn -1 0 0
vn -1 0 0
vn -1 0 0
vn -1 0 0
vn -1 0 0
vn -1 0 0
vn -1 0 0
vn -1 0 0
vn -1 0 0
vn -1 0 0
vn -1 0 0
vn -1 0 0
vn 1 0 0
vn 1 0 0
vn 1 0 0
vn 1 0 0
vn -0.000101923943 0 1
vn -0.000101923943 0 1
vn -0.000101923943 0 1
vn -0.000101923943 0 1
vn 7.73072243E-05 0 1
vn 7.73072243E-05 0 1
vn 7.73072243E-05 0 1
vn 7.73072243E-05 0 1
vn -8.70227814E-06 0 1
vn -8.70227814E-06 0 1
vn -8.70227814E-06 0 1
vn -8.70227814E-06 0 1
vn 1 0 0
vn 1 0 0
vn 1 0 0
vn 1 0 0
vn -1 0 0
vn -1 0 0
vn -1 0 0
vn -1 0 0
vn -0 0 -1
vn -0 0 -1
vn -0 0 -1
vn -0 0 -1
vn -0 1 0
vn -0 1 0
vn -0 1 0
vn -0 1 0
vn 0.70703125 0 0.70703125
vn 0.70703125 0 0.70703125
vn 0.70703125 0 0.70703125
vn 0.70703125 0 0.70703125
vn -0.70703125 0 -0.70703125
vn -0.70703125 0 -0.70703125
vn -0.70703125 0 -0.70703125
vn -0.70703125 0 -0.70703125
vn -0 1 0
vn -0 1 0
vn -0 1 0
vn -0 1 0
vn -0 1 0
vn -0 1 0
vn -0 0 -1
vn -0 0 -1
vn -0 0 -1
vn -0 0 -1
vn -0 1 0
vn -0 1 0
vn -0 1 0
vn -0 1 0
vn -0 0 1
vn -0 0 1
vn -0 0 1
vn -0 0 1
vn -0 1 0
vn -0 1 0
vn -0 1 0
vn -0 1 0
vn -0 0 1
vn -0 0 1
vn -0 0 1
vn -0 0 1
vn 1 0 0
vn 1 0 0
vn 1 0 0
vn 1 0 0
vn 1 0 0
vn 1 0 0
vn 1 0 0
vn 1 0 0
vn 1 0 0
vn 1 0 0
vn 1 0 0
vn 1 0 0
vn 1 0 0
vn 1 0 0
vn 1 0 0
vn 1 0 0
vn -1 0 0
vn -1 0 0
vn -1 0 0
vn -1 0 0
vn 0.000101923943 0 1
vn 0.000101923943 0 1
vn 0.000101923943 0 1
vn 0.000101923943 0 1
vn -6.18696213E-05 0 1
vn -6.18696213E-05 0 1
vn -6.18696213E-05 0 1
vn -6.18696213E-05 0 1
vn 8.70227814E-06 0 1
vn 8.70227814E-06 0 1
vn 8.70227814E-06 0 1
vn 8.70227814E-06 0 1
vn -1 0 0
vn -1 0 0
vn -1 0 0
vn -1 0 0
vn 1 0 0
vn 1 0 0
vn 1 0 0
vn 1 0 0
vn -0 0 1
vn -0 0 1
vn -0 0 1
vn -0 0 1
vn -0 1 0
vn -0 1 0
vn -0 1 0
vn -0 1 0
vn -0.70703125 0 -0.70703125
vn -0.70703125 0 -0.70703125
vn -0.70703125 0 -0.70703125
vn -0.70703125 0 -0.70703125
vn 0.70703125 0 0.70703125
vn 0.70703125 0 0.70703125
vn 0.70703125 0 0.70703125
vn 0.70703125 0 0.70703125
vn -0 1 0
vn -0 1 0
vn -0 1 0
vn -0 1 0
vn -0 1 0
vn -0 1 0
vn -0 0 1
vn -0 0 1
vn -0 0 1
vn -0 0 1
vn -0 1 0
vn -0 1 0
vn -0 1 0
vn -0 1 0
vn -0 0 -1
vn -0 0 -1
vn -0 0 -1
vn -0 0 -1
vn -0 1 0
vn -0 1 0
vn -0 1 0
vn -0 1 0
vn -0 0 -1
vn -0 0 -1
vn -0 0 -1
vn -0 0 -1
vn -1 0 0
vn -1 0 0
vn -1 0 0
vn -1 0 0
vn -1 0 0
vn -1 0 0
vn -1 0 0
vn -1 0 0
vn -1 0 0
vn -1 0 0
vn -1 0 0
vn -1 0 0
vn -1 0 0
vn -1 0 0
vn -1 0 0
vn -1 0 0
vn 1 0 0
vn 1 0 0
vn 1 0 0
vn 1 0 0
vn -0 0 -1
vn -0 0 -1
vn -0 0 -1
vn -0 0 -1
vn 6.18696213E-05 0 -1
vn 6.18696213E-05 0 -1
vn 6.18696213E-05 0 -1
vn 6.18696213E-05 0 -1
vn -8.70227814E-06 0 -1
vn -8.70227814E-06 0 -1
vn -8.70227814E-06 0 -1
vn -8.70227814E-06 0 -1
vn 1 0 0
vn 1 0 0
vn 1 0 0
vn 1 0 0
vn -1 0 0
vn -1 0 0
vn -1 0 0
vn -1 0 0
vn -0 0 1
vn -0 0 1
vn -0 0 1
vn -0 0 1
vn -0 1 0
vn -0 1 0
vn -0 1 0
vn -0 1 0
vn 0.70703125 0 -0.70703125
vn 0.70703125 0 -0.70703125
vn 0.70703125 0 -0.70703125
vn 0.70703125 0 -0.70703125
vn -0.70703125 0 0.70703125
vn -0.70703125 0 0.70703125
vn -0.70703125 0 0.70703125
vn -0.70703125 0 0.70703125
vn -0 1 0
vn -0 1 0
vn -0 1 0
vn -0 1 0
vn -0 1 0
vn -0 1 0
vn -0 0 1
vn -0 0 1
vn -0 0 1
vn -0 0 1
vn -0 1 0
vn -0 1 0
vn -0 1 0
vn -0 1 0
vn -0 0 -1
vn -0 0 -1
vn -0 0 -1
vn -0 0 -1
vn -0 1 0
vn -0 1 0
vn -0 1 0
vn -0 1 0
vn -0 0 -1
vn -0 0 -1
vn -0 0 -1
vn -0 0 -1
vn 1 0 0
vn 1 0 0
vn 1 0 0
vn 1 0 0
vn 1 3.38554382E-05 0
vn 1 3.38554382E-05 0
vn 1 3.38554382E-05 0
vn 1 3.38554382E-05 0
vn 1 0 0
vn 1 0 0
vn 1 0 0
vn 1 0 0
vn 1 0 0
vn 1 0 0
vn 1 0 0
vn 1 0 0
vn -1 0 0
vn -1 0 0
vn -1 0 0
vn -1 0 0
vn -0 0 -1
vn -0 0 -1
vn -0 0 -1
vn -0 0 -1
vn -3.09348106E-05 0 -1
vn -3.09348106E-05 0 -1
vn -3.09348106E-05 0 -1
vn -3.09348106E-05 0 -1
vn 8.70227814E-06 0 -1
vn 8.70227814E-06 0 -1
vn 8.70227814E-06 0 -1
vn 8.70227814E-06 0 -1
vn -0 1 0
vn -0 1 0
vn -0 1 0
vn -0 1 0
vn -0 0 -1
vn -0 0 -1
vn -0 0 -1
vn -0 0 -1
vn -0 1 0
vn -0 1 0
vn -0 1 0
vn -0 1 0
vn -0 0 -1
vn -0 0 -1
vn -0 0 -1
vn -0 0 -1
vn -0 1 0
vn -0 1 0
vn -0 1 0
vn -0 1 0
vn -0 0 -1
vn -0 0 -1
vn -0 0 -1
vn -0 0 -1
vn -0 1 0
vn -0 1 0
vn -0 1 0
vn -0 1 0
vn -0 0 -1
vn -0 0 -1
vn -0 0 -1
vn -0 0 -1
vn -0 1 0
vn -0 1 0
vn -0 1 0
vn -0 1 0
vn 1 0 0
vn 1 0 0
vn 1 0 0
vn 1 0 0
vn 1 0 0
vn -0 0 1
vn -0 0 1
vn -0 0 1
vn -0 0 1
vn -0 0 1
vn -0 0 1
vn -1 0 0
vn -1 0 0
vn -1 0 0
vn -1 0 0
vn -1 0 0
vn -0 1 0
vn -0 1 0
vn -0 1 0
vn -0 1 0
vn -0 1 0
vn -0 1 0
vn -0 1 0
vn -0 1 0
vn -0 1 0
vn -0 1 0
vn -0 1 0
vn -0 1 0
vn -0 1 0
vn -0 1 0
vn -0 1 0
vn -0 1 0
vn -0 1 0
vn -0 1 0
vn -0 1 0
vn -0 1 0
vn -0 1 0
vn -0 1 0
g StartChipA_0
f 3/3/3 2/2/2 1/1/1
f 6/6/6 5/5/5 4/4/4
f 9/9/9 8/8/8 7/7/7
f 10/10/10 9/9/9 7/7/7
f 13/13/13 12/12/12 11/11/11
f 14/14/14 13/13/13 11/11/11
f 17/17/17 16/16/16 15/15/15
f 18/18/18 17/17/17 15/15/15
f 21/21/21 20/20/20 19/19/19
f 22/22/22 21/21/21 19/19/19
f 25/25/25 24/24/24 23/23/23
f 26/26/26 25/25/25 23/23/23
f 29/29/29 28/28/28 27/27/27
f 30/30/30 29/29/29 27/27/27
f 33/33/33 32/32/32 31/31/31
f 34/34/34 33/33/33 31/31/31
f 37/37/37 36/36/36 35/35/35
f 38/38/38 37/37/37 35/35/35
f 41/41/41 40/40/40 39/39/39
f 42/42/42 41/41/41 39/39/39
f 45/45/45 44/44/44 43/43/43
f 46/46/46 45/45/45 43/43/43
f 49/49/49 48/48/48 47/47/47
f 50/50/50 49/49/49 47/47/47
f 53/53/53 52/52/52 51/51/51
f 54/54/54 53/53/53 51/51/51
f 57/57/57 56/56/56 55/55/55
f 56/56/56 58/58/58 55/55/55
f 55/55/55 58/58/58 59/59/59
f 60/60/60 55/55/55 59/59/59
f 63/63/63 62/62/62 61/61/61
f 64/64/64 63/63/63 61/61/61
f 67/67/67 66/66/66 65/65/65
f 68/68/68 67/67/67 65/65/65
f 71/71/71 70/70/70 69/69/69
f 72/72/72 71/71/71 69/69/69
f 75/75/75 74/74/74 73/73/73
f 76/76/76 75/75/75 73/73/73
f 79/79/79 78/78/78 77/77/77
f 80/80/80 79/79/79 77/77/77
f 83/83/83 82/82/82 81/81/81
f 84/84/84 83/83/83 81/81/81
f 87/87/87 86/86/86 85/85/85
f 88/88/88 87/87/87 85/85/85
f 91/91/91 90/90/90 89/89/89
f 92/92/92 91/91/91 89/89/89
f 95/95/95 94/94/94 93/93/93
f 96/96/96 95/95/95 93/93/93
f 99/99/99 98/98/98 97/97/97
f 100/100/100 99/99/99 97/97/97
f 103/103/103 102/102/102 101/101/101
f 104/104/104 103/103/103 101/101/101
f 107/107/107 106/106/106 105/105/105
f 108/108/108 107/107/107 105/105/105
f 111/111/111 110/110/110 109/109/109
f 112/112/112 111/111/111 109/109/109
f 115/115/115 114/114/114 113/113/113
f 116/116/116 115/115/115 113/113/113
f 119/119/119 118/118/118 117/117/117
f 120/120/120 119/119/119 117/117/117
f 123/123/123 122/122/122 121/121/121
f 124/124/124 123/123/123 121/121/121
f 127/127/127 126/126/126 125/125/125
f 128/128/128 127/127/127 125/125/125
f 131/131/131 130/130/130 129/129/129
f 132/132/132 131/131/131 129/129/129
f 135/135/135 134/134/134 133/133/133
f 136/136/136 135/135/135 133/133/133
f 139/139/139 138/138/138 137/137/137
f 140/140/140 139/139/139 137/137/137
f 140/140/140 137/137/137 141/141/141
f 137/137/137 142/142/142 141/141/141
f 145/145/145 144/144/144 143/143/143
f 146/146/146 145/145/145 143/143/143
f 149/149/149 148/148/148 147/147/147
f 150/150/150 149/149/149 147/147/147
f 153/153/153 152/152/152 151/151/151
f 154/154/154 153/153/153 151/151/151
f 157/157/157 156/156/156 155/155/155
f 158/158/158 157/157/157 155/155/155
f 161/161/161 160/160/160 159/159/159
f 162/162/162 161/161/161 159/159/159
f 165/165/165 164/164/164 163/163/163
f 166/166/166 165/165/165 163/163/163
f 169/169/169 168/168/168 167/167/167
f 170/170/170 169/169/169 167/167/167
f 173/173/173 172/172/172 171/171/171
f 174/174/174 173/173/173 171/171/171
f 177/177/177 176/176/176 175/175/175
f 178/178/178 177/177/177 175/175/175
f 181/181/181 180/180/180 179/179/179
f 182/182/182 181/181/181 179/179/179
f 185/185/185 184/184/184 183/183/183
f 186/186/186 185/185/185 183/183/183
f 189/189/189 188/188/188 187/187/187
f 190/190/190 189/189/189 187/187/187
f 193/193/193 192/192/192 191/191/191
f 194/194/194 193/193/193 191/191/191
f 197/197/197 196/196/196 195/195/195
f 198/198/198 197/197/197 195/195/195
f 201/201/201 200/200/200 199/199/199
f 202/202/202 201/201/201 199/199/199
f 205/205/205 204/204/204 203/203/203
f 206/206/206 205/205/205 203/203/203
f 209/209/209 208/208/208 207/207/207
f 210/210/210 209/209/209 207/207/207
f 213/213/213 212/212/212 211/211/211
f 214/214/214 213/213/213 211/211/211
f 217/217/217 216/216/216 215/215/215
f 218/218/218 217/217/217 215/215/215
f 221/221/221 220/220/220 219/219/219
f 222/222/222 221/221/221 219/219/219
f 222/222/222 219/219/219 223/223/223
f 219/219/219 224/224/224 223/223/223
f 227/227/227 226/226/226 225/225/225
f 228/228/228 227/227/227 225/225/225
f 231/231/231 230/230/230 229/229/229
f 232/232/232 231/231/231 229/229/229
f 235/235/235 234/234/234 233/233/233
f 236/236/236 235/235/235 233/233/233
f 239/239/239 238/238/238 237/237/237
f 240/240/240 239/239/239 237/237/237
f 243/243/243 242/242/242 241/241/241
f 244/244/244 243/243/243 241/241/241
f 247/247/247 246/246/246 245/245/245
f 248/248/248 247/247/247 245/245/245
f 251/251/251 250/250/250 249/249/249
f 252/252/252 251/251/251 249/249/249
f 255/255/255 254/254/254 253/253/253
f 256/256/256 255/255/255 253/253/253
f 259/259/259 258/258/258 257/257/257
f 260/260/260 259/259/259 257/257/257
f 263/263/263 262/262/262 261/261/261
f 264/264/264 263/263/263 261/261/261
f 267/267/267 266/266/266 265/265/265
f 268/268/268 267/267/267 265/265/265
f 271/271/271 270/270/270 269/269/269
f 272/272/272 271/271/271 269/269/269
f 275/275/275 274/274/274 273/273/273
f 276/276/276 275/275/275 273/273/273
f 279/279/279 278/278/278 277/277/277
f 280/280/280 279/279/279 277/277/277
f 283/283/283 282/282/282 281/281/281
f 284/284/284 283/283/283 281/281/281
f 287/287/287 286/286/286 285/285/285
f 288/288/288 287/287/287 285/285/285
f 291/291/291 290/290/290 289/289/289
f 292/292/292 291/291/291 289/289/289
f 295/295/295 294/294/294 293/293/293
f 296/296/296 295/295/295 293/293/293
f 299/299/299 298/298/298 297/297/297
f 300/300/300 299/299/299 297/297/297
f 303/303/303 302/302/302 301/301/301
f 302/302/302 304/304/304 301/301/301
f 301/301/301 304/304/304 305/305/305
f 306/306/306 301/301/301 305/305/305
f 309/309/309 308/308/308 307/307/307
f 310/310/310 309/309/309 307/307/307
f 313/313/313 312/312/312 311/311/311
f 314/314/314 313/313/313 311/311/311
f 317/317/317 316/316/316 315/315/315
f 318/318/318 317/317/317 315/315/315
f 321/321/321 320/320/320 319/319/319
f 322/322/322 321/321/321 319/319/319
f 325/325/325 324/324/324 323/323/323
f 326/326/326 325/325/325 323/323/323
f 329/329/329 328/328/328 327/327/327
f 330/330/330 329/329/329 327/327/327
f 333/333/333 332/332/332 331/331/331
f 334/334/334 333/333/333 331/331/331
f 337/337/337 336/336/336 335/335/335
f 338/338/338 337/337/337 335/335/335
f 341/341/341 340/340/340 339/339/339
f 342/342/342 341/341/341 339/339/339
f 345/345/345 344/344/344 343/343/343
f 346/346/346 345/345/345 343/343/343
f 349/349/349 348/348/348 347/347/347
f 350/350/350 349/349/349 347/347/347
f 353/353/353 352/352/352 351/351/351
f 354/354/354 353/353/353 351/351/351
f 357/357/357 356/356/356 355/355/355
f 358/358/358 357/357/357 355/355/355
f 361/361/361 360/360/360 359/359/359
f 362/362/362 361/361/361 359/359/359
f 365/365/365 364/364/364 363/363/363
f 366/366/366 365/365/365 363/363/363
f 369/369/369 368/368/368 367/367/367
f 370/370/370 369/369/369 367/367/367
f 373/373/373 372/372/372 371/371/371
f 374/374/374 373/373/373 371/371/371
f 377/377/377 376/376/376 375/375/375
f 378/378/378 377/377/377 375/375/375
f 381/381/381 380/380/380 379/379/379
f 382/382/382 381/381/381 379/379/379
f 385/385/385 384/384/384 383/383/383
f 386/386/386 385/385/385 383/383/383
f 389/389/389 388/388/388 387/387/387
f 390/390/390 389/389/389 387/387/387
f 393/393/393 392/392/392 391/391/391
f 394/394/394 393/393/393 391/391/391
f 397/397/397 396/396/396 395/395/395
f 395/395/395 398/398/398 397/397/397
f 395/395/395 399/399/399 398/398/398
f 402/402/402 401/401/401 400/400/400
f 400/400/400 403/403/403 402/402/402
f 400/400/400 404/404/404 403/403/403
f 404/404/404 405/405/405 403/403/403
f 408/408/408 407/407/407 406/406/406
f 406/406/406 409/409/409 408/408/408
f 406/406/406 410/410/410 409/409/409
f 413/413/413 412/412/412 411/411/411
f 414/414/414 413/413/413 411/411/411
f 411/411/411 412/412/412 415/415/415
f 415/415/415 412/412/412 416/416/416
f 417/417/417 415/415/415 416/416/416
f 418/418/418 414/414/414 411/411/411
f 419/419/419 414/414/414 418/418/418
f 417/417/417 420/420/420 415/415/415
f 417/417/417 421/421/421 420/420/420
f 419/419/419 418/418/418 422/422/422
f 419/419/419 422/422/422 423/423/423
f 422/422/422 424/424/424 423/423/423
f 420/420/420 421/421/421 425/425/425
f 425/425/425 424/424/424 422/422/422
f 421/421/421 426/426/426 425/425/425
f 426/426/426 424/424/424 425/425/425
f 427/427/427 411/411/411 415/415/415
f 428/428/428 427/427/427 415/415/415
f 428/428/428 415/415/415 420/420/420
f 427/427/427 429/429/429 411/411/411
f 429/429/429 418/418/418 411/411/411
f 430/430/430 428/428/428 420/420/420
f 430/430/430 420/420/420 425/425/425
f 429/429/429 431/431/431 418/418/418
f 431/431/431 422/422/422 418/418/418
f 432/432/432 430/430/430 425/425/425
f 422/422/422 431/431/431 432/432/432
f 425/425/425 422/422/422 432/432/432
