g TowerIzisMapGround_EarlyTempestBOSSFire_Chip100
v 0.433693826 -0.155256897 8.60177612
v 0.433693826 -0.155256912 9.77997017
v -0 -0.155256897 9.77997017
v 7.78201628 -0.155256912 5.06718874
v -0 -0.155256897 8.60177612
v -0.433693826 -0.155256912 9.77997017
v -0.433693826 -0.155256897 8.60177612
v -7.78201628 -0.155256912 5.06718874
v -5.94493628 -0.155256897 5.06718874
v -7.78201628 -0.155256912 4.45546913
v -5.94493628 -0.155256912 4.45546913
v -7.78201628 -0.155256912 3.84374809
v -0 -0.155256897 7.4235816
v -0.43369627 -0.155256897 7.4235816
v 0.43369627 -0.155256897 7.4235816
v -4.10785627 -0.155256897 5.06718969
v 5.94493628 -0.155256897 5.06718874
v 4.10785627 -0.155256897 5.06718874
v 5.94493628 -0.155256912 4.45546913
v 7.78201628 -0.155256912 4.45546913
v 4.10785627 -0.155256897 4.45546913
v 5.94493628 -0.155256942 3.84374833
v 7.78201628 -0.155256942 3.84374809
v 4.10785627 -0.155256942 3.84374809
v 0.433693826 -0.155256942 0.30916357
v 0.433693826 -0.155256942 -0.86903125
v 0.43369627 -0.155256942 1.48735714
v -0 -0.155256897 0.30916357
v -0 -0.155256912 -0.86903125
v -0 -0.155256897 1.48735714
v -0.433693826 -0.155256897 0.30916357
v -0.433693826 -0.155256912 -0.86903125
v -0.43369627 -0.155256897 1.48735714
v -5.94493628 -0.155256897 3.84374833
v -4.10785627 -0.155256897 3.84374809
v -4.10785627 -0.155256897 4.45546913
v -0 -0.155256897 2.66555166
v -0.43369627 -0.155256897 2.66555166
v -2.27077627 -0.155256897 3.84374809
v -2.27077627 -0.155256897 4.45546913
v -2.27077627 -0.155256897 5.06719065
v -0.43369627 -0.155256897 3.84374809
v -0.43369627 -0.155256912 4.45546913
v -0 -0.155256897 4.45546913
v 0.43369627 -0.155256942 2.66555166
v -0 -0.155256897 3.84374809
v -0.43369627 -0.155256897 6.24538517
v -0.43369627 -0.155256897 5.06719065
v 2.27077627 -0.155256942 3.84374809
v 0.43369627 -0.155256912 3.84374809
v -0 -0.155256897 6.24538517
v -0 -0.155256897 5.06719065
v 2.27077627 -0.155256897 4.45546913
v 0.43369627 -0.155256912 4.45546913
v 0.43369627 -0.155256897 5.06719065
v 0.43369627 -0.155256897 6.24538517
v 2.27077627 -0.155256897 5.06718969
vt 0.391601562 1.53613281
vt 0.391601562 1.83007812
vt 0.5 1.83007812
vt -1.44433594 0.652832031
vt 0.5 1.53613281
vt 0.608398438 1.83007812
vt 0.608398438 1.53613281
vt 2.44335938 0.652832031
vt 1.98535156 0.652832031
vt 2.44335938 0.5
vt 1.98535156 0.5
vt 2.44335938 0.347167969
vt 0.5 1.24121094
vt 0.608398438 1.24121094
vt 0.391601562 1.24121094
vt 1.52636719 0.652832031
vt -0.985351562 0.652832031
vt -0.526367188 0.652832031
vt -0.985351562 0.5
vt -1.44433594 0.5
vt -0.526367188 0.5
vt -0.985351562 0.347167969
vt -1.44433594 0.347167969
vt -0.526367188 0.347167969
vt 0.391601562 -0.535644531
vt 0.391601562 -0.830078125
vt 0.391601562 -0.241455078
vt 0.5 -0.535644531
vt 0.5 -0.830078125
vt 0.5 -0.241455078
vt 0.608398438 -0.535644531
vt 0.608398438 -0.830078125
vt 0.608398438 -0.241455078
vt 1.98535156 0.347167969
vt 1.52636719 0.347167969
vt 1.52636719 0.5
vt 0.5 0.0528564453
vt 0.608398438 0.0528564453
vt 1.06738281 0.347167969
vt 1.06738281 0.5
vt 1.06738281 0.652832031
vt 0.608398438 0.347167969
vt 0.608398438 0.5
vt 0.5 0.5
vt 0.391601562 0.0528564453
vt 0.5 0.347167969
vt 0.608398438 0.947265625
vt 0.608398438 0.652832031
vt -0.0672607422 0.347167969
vt 0.391601562 0.347167969
vt 0.5 0.947265625
vt 0.5 0.652832031
vt -0.0672607422 0.5
vt 0.391601562 0.5
vt 0.391601562 0.652832031
vt 0.391601562 0.947265625
vt -0.0672607422 0.652832031
vn -0 1 0
vn -0 1 0
vn -0 1 0
vn -0 1 0
vn -0 1 0
vn -0 1 0
vn -0 1 0
vn -0 1 0
vn -0 1 0
vn -0 1 0
vn -0 1 0
vn -0 1 0
vn -0 1 0
vn -0 1 0
vn -0 1 0
vn -0 1 0
vn -0 1 0
vn -0 1 0
vn -0 1 0
vn -0 1 0
vn -0 1 0
vn -0 1 0
vn -0 1 0
vn -0 1 0
vn -0 1 0
vn -0 1 0
vn -0 1 0
vn -0 1 0
vn -0 1 0
vn -0 1 0
vn -0 1 0
vn -0 1 0
vn -0 1 0
vn -0 1 0
vn -0 1 0
vn -0 1 0
vn -0 1 0
vn -0 1 0
vn -0 1 0
vn -0 1 0
vn -0 1 0
vn -0 1 0
vn -0 1 0
vn -0 1 0
vn -0 1 0
vn -0 1 0
vn -0 1 0
vn -0 1 0
vn -0 1 0
vn -0 1 0
vn -0 1 0
vn -0 1 0
vn -0 1 0
vn -0 1 0
vn -0 1 0
vn -0 1 0
vn -0 1 0
g TowerIzisMapGround_EarlyTempestBOSSFire_Chip100_0
f 3/3/3 2/2/2 1/1/1
f 1/1/1 2/2/2 4/4/4
f 5/5/5 3/3/3 1/1/1
f 6/6/6 3/3/3 5/5/5
f 7/7/7 6/6/6 5/5/5
f 8/8/8 6/6/6 7/7/7
f 9/9/9 8/8/8 7/7/7
f 10/10/10 8/8/8 9/9/9
f 11/11/11 10/10/10 9/9/9
f 12/12/12 10/10/10 11/11/11
f 7/7/7 5/5/5 13/13/13
f 9/9/9 7/7/7 14/14/14
f 14/14/14 7/7/7 13/13/13
f 5/5/5 1/1/1 15/15/15
f 13/13/13 5/5/5 15/15/15
f 11/11/11 9/9/9 16/16/16
f 16/16/16 9/9/9 14/14/14
f 17/17/17 1/1/1 4/4/4
f 18/18/18 15/15/15 1/1/1
f 17/17/17 18/18/18 1/1/1
f 17/17/17 4/4/4 19/19/19
f 4/4/4 20/20/20 19/19/19
f 18/18/18 17/17/17 21/21/21
f 17/17/17 19/19/19 21/21/21
f 19/19/19 20/20/20 22/22/22
f 20/20/20 23/23/23 22/22/22
f 21/21/21 19/19/19 24/24/24
f 19/19/19 22/22/22 24/24/24
f 22/22/22 23/23/23 25/25/25
f 23/23/23 26/26/26 25/25/25
f 24/24/24 22/22/22 27/27/27
f 22/22/22 25/25/25 27/27/27
f 25/25/25 26/26/26 28/28/28
f 26/26/26 29/29/29 28/28/28
f 27/27/27 25/25/25 30/30/30
f 25/25/25 28/28/28 30/30/30
f 28/28/28 29/29/29 31/31/31
f 29/29/29 32/32/32 31/31/31
f 31/31/31 32/32/32 12/12/12
f 30/30/30 28/28/28 33/33/33
f 28/28/28 31/31/31 33/33/33
f 34/34/34 31/31/31 12/12/12
f 34/34/34 12/12/12 11/11/11
f 34/34/34 35/35/35 31/31/31
f 35/35/35 33/33/33 31/31/31
f 34/34/34 11/11/11 36/36/36
f 35/35/35 34/34/34 36/36/36
f 36/36/36 11/11/11 16/16/16
f 27/27/27 30/30/30 37/37/37
f 30/30/30 33/33/33 38/38/38
f 37/37/37 30/30/30 38/38/38
f 35/35/35 39/39/39 33/33/33
f 39/39/39 38/38/38 33/33/33
f 35/35/35 36/36/36 40/40/40
f 39/39/39 35/35/35 40/40/40
f 36/36/36 16/16/16 41/41/41
f 40/40/40 36/36/36 41/41/41
f 39/39/39 42/42/42 38/38/38
f 37/37/37 38/38/38 42/42/42
f 39/39/39 40/40/40 43/43/43
f 40/40/40 41/41/41 43/43/43
f 42/42/42 39/39/39 43/43/43
f 42/42/42 43/43/43 44/44/44
f 45/45/45 27/27/27 37/37/37
f 24/24/24 27/27/27 45/45/45
f 46/46/46 37/37/37 42/42/42
f 46/46/46 42/42/42 44/44/44
f 45/45/45 37/37/37 46/46/46
f 41/41/41 16/16/16 47/47/47
f 16/16/16 14/14/14 47/47/47
f 41/41/41 48/48/48 43/43/43
f 43/43/43 48/48/48 44/44/44
f 41/41/41 47/47/47 48/48/48
f 49/49/49 24/24/24 45/45/45
f 21/21/21 24/24/24 49/49/49
f 50/50/50 45/45/45 46/46/46
f 50/50/50 46/46/46 44/44/44
f 49/49/49 45/45/45 50/50/50
f 47/47/47 14/14/14 51/51/51
f 14/14/14 13/13/13 51/51/51
f 48/48/48 47/47/47 52/52/52
f 48/48/48 52/52/52 44/44/44
f 47/47/47 51/51/51 52/52/52
f 53/53/53 21/21/21 49/49/49
f 18/18/18 21/21/21 53/53/53
f 49/49/49 50/50/50 54/54/54
f 54/54/54 50/50/50 44/44/44
f 53/53/53 49/49/49 54/54/54
f 52/52/52 55/55/55 44/44/44
f 52/52/52 51/51/51 55/55/55
f 55/55/55 54/54/54 44/44/44
f 51/51/51 13/13/13 56/56/56
f 51/51/51 56/56/56 55/55/55
f 13/13/13 15/15/15 56/56/56
f 18/18/18 57/57/57 15/15/15
f 57/57/57 18/18/18 53/53/53
f 57/57/57 53/53/53 54/54/54
f 55/55/55 57/57/57 54/54/54
f 57/57/57 55/55/55 56/56/56
f 57/57/57 56/56/56 15/15/15
