g TowerIzisMapGround_RamirisPassage_Chip144
v 0.420678705 -0.155256912 10.6294203
v 0.420678705 -0.155256942 11.7722692
v -0 -0.155256912 11.7722692
v 9.33052254 -0.155256912 6.05802155
v -0 -0.155256897 10.6294203
v -0.420678705 -0.155256942 11.7722692
v -0.420678705 -0.155256912 10.6294203
v -9.33052254 -0.155256912 6.05802155
v -7.54855442 -0.155256897 6.05802155
v -9.33052254 -0.155256912 5.46465445
v -7.54855442 -0.155256912 5.46465397
v -9.33052254 -0.155256912 4.87128544
v 7.54855442 -0.155256897 6.05802155
v 0.420678705 -0.155256897 9.48657131
v -0 -0.155256897 9.48657131
v -0.420678705 -0.155256897 9.48657131
v -5.76658678 -0.155256897 6.05802155
v 7.54855442 -0.155256912 5.46465397
v 9.33052254 -0.155256912 5.46465397
v 7.54855442 -0.155256942 4.87128448
v 9.33052254 -0.155256942 4.87128448
v 0.420678705 -0.155256942 0.299888611
v 0.420678705 -0.155256942 -0.842960477
v -0 -0.155256897 0.299888611
v -0 -0.155256912 -0.842960477
v -0.420678705 -0.155256897 0.299888611
v -0.420678705 -0.155256912 -0.842960477
v -7.54855442 -0.155256897 4.87128448
v -0.420678705 -0.155256897 1.4427377
v -0 -0.155256897 1.4427377
v 0.420678705 -0.155256942 1.4427377
v 5.76658678 -0.155256942 4.87128448
v -5.76658678 -0.155256912 5.46465397
v -5.76658678 -0.155256897 4.87128448
v 5.76658678 -0.155256912 5.46465397
v 5.76658678 -0.155256897 6.05802155
v -0.420683593 -0.155256897 2.58558536
v -0 -0.155256897 2.58558536
v -3.98461914 -0.155256897 4.87128448
v -3.98461914 -0.155256897 5.46465397
v 0.420683593 -0.155256942 2.58558536
v 3.98461914 -0.155256942 4.87128448
v 3.98461914 -0.155256897 5.46465397
v 3.98461914 -0.155256897 6.05802155
v -3.98461914 -0.155256897 6.05802298
v 0.420683593 -0.155256897 8.3437233
v -0.420683593 -0.155256897 8.3437233
v -0 -0.155256897 8.3437233
v 2.20265126 -0.155256942 4.87128448
v 2.20265126 -0.155256897 5.46465397
v 2.20265126 -0.155256897 6.05802298
v 0.420683593 -0.155256897 7.20087242
v -0 -0.155256897 7.20087242
v -0.420683593 -0.155256897 7.20087242
v 0.420683593 -0.155256912 5.46465397
v 0.420683593 -0.155256897 6.05802345
v -0 -0.155256897 5.46465397
v -0 -0.155256897 6.05802345
v -2.20265126 -0.155256897 6.05802345
v -0.420683593 -0.155256897 6.05802345
v 0.420683593 -0.155256912 4.87128448
v -2.20265126 -0.155256897 5.46465397
v -0.420683593 -0.155256912 5.46465397
v -2.20265126 -0.155256897 4.87128448
v 0.420683593 -0.155256942 3.72843409
v -0 -0.155256897 4.87128448
v -0.420683593 -0.155256897 4.87128448
v -0.420683593 -0.155256897 3.72843409
v -0 -0.155256897 3.72843409
vt 0.391601562 1.83007812
vt 0.391601562 2.125
vt 0.5 2.125
vt -1.90332031 0.652832031
vt 0.5 1.83007812
vt 0.608398438 2.125
vt 0.608398438 1.83007812
vt 2.90234375 0.652832031
vt 2.44335938 0.652832031
vt 2.90234375 0.5
vt 2.44335938 0.5
vt 2.90234375 0.347167969
vt -1.44433594 0.652832031
vt 0.391601562 1.53613281
vt 0.5 1.53613281
vt 0.608398438 1.53613281
vt 1.98535156 0.652832031
vt -1.44433594 0.5
vt -1.90332031 0.5
vt -1.44433594 0.347167969
vt -1.90332031 0.347167969
vt 0.391601562 -0.830078125
vt 0.391601562 -1.12402344
vt 0.5 -0.830078125
vt 0.5 -1.12402344
vt 0.608398438 -0.830078125
vt 0.608398438 -1.12402344
vt 2.44335938 0.347167969
vt 0.608398438 -0.535644531
vt 0.5 -0.535644531
vt 0.391601562 -0.535644531
vt -0.985351562 0.347167969
vt 1.98535156 0.5
vt 1.98535156 0.347167969
vt -0.985351562 0.5
vt -0.985351562 0.652832031
vt 0.608398438 -0.241455078
vt 0.5 -0.241455078
vt 1.52636719 0.347167969
vt 1.52636719 0.5
vt 0.391601562 -0.241455078
vt -0.526367188 0.347167969
vt -0.526367188 0.5
vt -0.526367188 0.652832031
vt 1.52636719 0.652832031
vt 0.391601562 1.24121094
vt 0.608398438 1.24121094
vt 0.5 1.24121094
vt -0.0672607422 0.347167969
vt -0.0672607422 0.5
vt -0.0672607422 0.652832031
vt 0.391601562 0.947265625
vt 0.5 0.947265625
vt 0.608398438 0.947265625
vt 0.391601562 0.5
vt 0.391601562 0.652832031
vt 0.5 0.5
vt 0.5 0.652832031
vt 1.06738281 0.652832031
vt 0.608398438 0.652832031
vt 0.391601562 0.347167969
vt 1.06738281 0.5
vt 0.608398438 0.5
vt 1.06738281 0.347167969
vt 0.391601562 0.0528564453
vt 0.5 0.347167969
vt 0.608398438 0.347167969
vt 0.608398438 0.0528564453
vt 0.5 0.0528564453
vn -0 1 0
vn -0 1 0
vn -0 1 0
vn -0 1 0
vn -0 1 0
vn -0 1 0
vn -0 1 0
vn -0 1 0
vn -0 1 0
vn -0 1 0
vn -0 1 0
vn -0 1 0
vn -0 1 0
vn -0 1 0
vn -0 1 0
vn -0 1 0
vn -0 1 0
vn -0 1 0
vn -0 1 0
vn -0 1 0
vn -0 1 0
vn -0 1 0
vn -0 1 0
vn -0 1 0
vn -0 1 0
vn -0 1 0
vn -0 1 0
vn -0 1 0
vn -0 1 0
vn -0 1 0
vn -0 1 0
vn -0 1 0
vn -0 1 0
vn -0 1 0
vn -0 1 0
vn -0 1 0
vn -0 1 0
vn -0 1 0
vn -0 1 0
vn -0 1 0
vn -0 1 0
vn -0 1 0
vn -0 1 0
vn -0 1 0
vn -0 1 0
vn -0 1 0
vn -0 1 0
vn -0 1 0
vn -0 1 0
vn -0 1 0
vn -0 1 0
vn -0 1 0
vn -0 1 0
vn -0 1 0
vn -0 1 0
vn -0 1 0
vn -0 1 0
vn -0 1 0
vn -0 1 0
vn -0 1 0
vn -0 1 0
vn -0 1 0
vn -0 1 0
vn -0 1 0
vn -0 1 0
vn -0 1 0
vn -0 1 0
vn -0 1 0
vn -0 1 0
g TowerIzisMapGround_RamirisPassage_Chip144_0
f 3/3/3 2/2/2 1/1/1
f 1/1/1 2/2/2 4/4/4
f 5/5/5 3/3/3 1/1/1
f 6/6/6 3/3/3 5/5/5
f 7/7/7 6/6/6 5/5/5
f 8/8/8 6/6/6 7/7/7
f 9/9/9 8/8/8 7/7/7
f 10/10/10 8/8/8 9/9/9
f 11/11/11 10/10/10 9/9/9
f 12/12/12 10/10/10 11/11/11
f 13/13/13 1/1/1 4/4/4
f 5/5/5 1/1/1 14/14/14
f 14/14/14 1/1/1 13/13/13
f 7/7/7 5/5/5 15/15/15
f 15/15/15 5/5/5 14/14/14
f 9/9/9 7/7/7 16/16/16
f 16/16/16 7/7/7 15/15/15
f 11/11/11 9/9/9 17/17/17
f 17/17/17 9/9/9 16/16/16
f 13/13/13 4/4/4 18/18/18
f 4/4/4 19/19/19 18/18/18
f 18/18/18 19/19/19 20/20/20
f 19/19/19 21/21/21 20/20/20
f 20/20/20 21/21/21 22/22/22
f 21/21/21 23/23/23 22/22/22
f 22/22/22 23/23/23 24/24/24
f 23/23/23 25/25/25 24/24/24
f 24/24/24 25/25/25 26/26/26
f 25/25/25 27/27/27 26/26/26
f 26/26/26 27/27/27 12/12/12
f 28/28/28 26/26/26 12/12/12
f 28/28/28 12/12/12 11/11/11
f 24/24/24 26/26/26 29/29/29
f 29/29/29 26/26/26 28/28/28
f 22/22/22 24/24/24 30/30/30
f 30/30/30 24/24/24 29/29/29
f 20/20/20 22/22/22 31/31/31
f 31/31/31 22/22/22 30/30/30
f 18/18/18 20/20/20 32/32/32
f 32/32/32 20/20/20 31/31/31
f 28/28/28 11/11/11 33/33/33
f 33/33/33 11/11/11 17/17/17
f 34/34/34 29/29/29 28/28/28
f 34/34/34 28/28/28 33/33/33
f 35/35/35 18/18/18 32/32/32
f 13/13/13 18/18/18 35/35/35
f 36/36/36 13/13/13 35/35/35
f 36/36/36 14/14/14 13/13/13
f 30/30/30 29/29/29 37/37/37
f 31/31/31 30/30/30 38/38/38
f 38/38/38 30/30/30 37/37/37
f 34/34/34 39/39/39 29/29/29
f 39/39/39 37/37/37 29/29/29
f 34/34/34 33/33/33 40/40/40
f 39/39/39 34/34/34 40/40/40
f 32/32/32 31/31/31 41/41/41
f 41/41/41 31/31/31 38/38/38
f 35/35/35 32/32/32 42/42/42
f 42/42/42 32/32/32 41/41/41
f 36/36/36 35/35/35 43/43/43
f 43/43/43 35/35/35 42/42/42
f 36/36/36 44/44/44 14/14/14
f 44/44/44 36/36/36 43/43/43
f 40/40/40 33/33/33 45/45/45
f 33/33/33 17/17/17 45/45/45
f 44/44/44 46/46/46 14/14/14
f 15/15/15 14/14/14 46/46/46
f 45/45/45 17/17/17 47/47/47
f 17/17/17 16/16/16 47/47/47
f 16/16/16 15/15/15 48/48/48
f 48/48/48 15/15/15 46/46/46
f 47/47/47 16/16/16 48/48/48
f 43/43/43 42/42/42 49/49/49
f 44/44/44 43/43/43 50/50/50
f 50/50/50 43/43/43 49/49/49
f 44/44/44 51/51/51 46/46/46
f 51/51/51 44/44/44 50/50/50
f 48/48/48 46/46/46 52/52/52
f 51/51/51 52/52/52 46/46/46
f 47/47/47 48/48/48 53/53/53
f 53/53/53 48/48/48 52/52/52
f 45/45/45 47/47/47 54/54/54
f 54/54/54 47/47/47 53/53/53
f 51/51/51 50/50/50 55/55/55
f 50/50/50 49/49/49 55/55/55
f 51/51/51 56/56/56 52/52/52
f 53/53/53 52/52/52 56/56/56
f 56/56/56 51/51/51 55/55/55
f 56/56/56 55/55/55 57/57/57
f 58/58/58 53/53/53 56/56/56
f 54/54/54 53/53/53 58/58/58
f 58/58/58 56/56/56 57/57/57
f 59/59/59 45/45/45 54/54/54
f 40/40/40 45/45/45 59/59/59
f 60/60/60 54/54/54 58/58/58
f 60/60/60 58/58/58 57/57/57
f 59/59/59 54/54/54 60/60/60
f 49/49/49 61/61/61 55/55/55
f 55/55/55 61/61/61 57/57/57
f 62/62/62 40/40/40 59/59/59
f 39/39/39 40/40/40 62/62/62
f 59/59/59 60/60/60 63/63/63
f 62/62/62 59/59/59 63/63/63
f 63/63/63 60/60/60 57/57/57
f 64/64/64 39/39/39 62/62/62
f 64/64/64 62/62/62 63/63/63
f 39/39/39 64/64/64 37/37/37
f 49/49/49 65/65/65 61/61/61
f 49/49/49 42/42/42 65/65/65
f 42/42/42 41/41/41 65/65/65
f 61/61/61 66/66/66 57/57/57
f 61/61/61 65/65/65 66/66/66
f 67/67/67 63/63/63 57/57/57
f 67/67/67 64/64/64 63/63/63
f 66/66/66 67/67/67 57/57/57
f 64/64/64 68/68/68 37/37/37
f 64/64/64 67/67/67 68/68/68
f 38/38/38 37/37/37 68/68/68
f 41/41/41 38/38/38 69/69/69
f 65/65/65 41/41/41 69/69/69
f 65/65/65 69/69/69 66/66/66
f 66/66/66 69/69/69 67/67/67
f 69/69/69 68/68/68 67/67/67
f 69/69/69 38/38/38 68/68/68
