g TowerIzisMapGround_TowerIzis1_Chip36
v -0.252903432 -0.155257046 2.46221256
v 6.76676506E-18 -0.155257046 2.10549569
v 7.15891071E-18 -0.155257046 2.46221256
v -0.252903432 -0.155257046 2.10549569
v -1.56495619 -0.155257046 2.10549569
v -4.50484836E-18 -0.155257046 0.889361084
v -1.56521738 -0.155257046 2.46221256
v -0.252903432 -0.155257046 0.88947922
v -1.6597331E-17 -0.155256748 -0.642700613
v -0.252903461 -0.155256748 -0.642700613
v -1.56406868 -0.155256748 0.890090168
v -1.56356335 -0.155256748 0.197879136
v -2.64366746 -0.155256748 0.890594304
v -3.12999654 -0.155256748 1.20249712
v -3.13000798 -0.155257046 2.10549569
v -3.13000965 -0.155256748 2.46221256
v 3.80395259E-18 -0.155257046 2.81892943
v -0.252903432 -0.155257046 2.46221256
v 7.15891071E-18 -0.155257046 2.46221256
v -0.252903432 -0.155256748 2.81892943
v -1.56521738 -0.155257046 2.46221256
v -0.252903432 -0.155256748 4.03362417
v 1.20656684E-17 -0.155257046 4.03361797
v 2.81828243E-17 -0.155256748 5.56712627
v -0.252903461 -0.155256748 5.56712627
v -1.56686699 -0.155256748 4.72442722
v -1.56636381 -0.155256748 4.03365231
v -2.64391041 -0.155256748 4.03367567
v -3.13002443 -0.155256748 3.72191024
v -1.5654788 -0.155256748 2.81892943
v -3.13000965 -0.155256748 2.46221256
v -3.13001466 -0.155256748 2.81892943
v -3.13000798 -0.155257046 2.10549569
v -4.53798246 -0.155256748 2.10549593
v -3.12999654 -0.155256748 1.20249712
v -4.53798246 -0.155256748 2.46221256
v -3.13000965 -0.155256748 2.46221256
v -3.13001466 -0.155256748 2.81892943
v -4.53798246 -0.155256748 2.46221256
v -3.13000965 -0.155256748 2.46221256
v -4.53798246 -0.155256748 2.81892943
v -3.13002443 -0.155256748 3.72191024
v 0.252903432 -0.155257046 2.46221256
v 7.15891071E-18 -0.155257046 2.46221256
v 6.76676506E-18 -0.155257046 2.10549569
v 0.252903432 -0.155257046 2.10549569
v 1.56495619 -0.155257046 2.10549569
v -4.50484836E-18 -0.155257046 0.889361084
v 1.56521738 -0.155257046 2.46221256
v 0.252903432 -0.155257046 0.88947922
v -1.6597331E-17 -0.155256748 -0.642700613
v 0.252903461 -0.155256748 -0.642700613
v 1.56406868 -0.155256748 0.890090168
v 1.56356335 -0.155256748 0.197879136
v 2.64366746 -0.155256748 0.890594304
v 3.12999654 -0.155256748 1.20249712
v 3.13000798 -0.155257046 2.10549569
v 3.13000965 -0.155256748 2.46221256
v 3.80395259E-18 -0.155257046 2.81892943
v 7.15891071E-18 -0.155257046 2.46221256
v 0.252903432 -0.155257046 2.46221256
v 0.252903432 -0.155256748 2.81892943
v 1.56521738 -0.155257046 2.46221256
v 0.252903432 -0.155256748 4.03362417
v 1.20656684E-17 -0.155257046 4.03361797
v 2.81828243E-17 -0.155256748 5.56712627
v 0.252903461 -0.155256748 5.56712627
v 1.56686699 -0.155256748 4.72442722
v 1.56636381 -0.155256748 4.03365231
v 2.64391041 -0.155256748 4.03367567
v 3.13002443 -0.155256748 3.72191024
v 3.13001466 -0.155256748 2.81892943
v 1.5654788 -0.155256748 2.81892943
v 3.13000965 -0.155256748 2.46221256
v 3.13000798 -0.155257046 2.10549569
v 3.12999654 -0.155256748 1.20249712
v 4.53798246 -0.155256748 2.10549593
v 4.53798246 -0.155256748 2.46221256
v 3.13000965 -0.155256748 2.46221256
v 3.13001466 -0.155256748 2.81892943
v 3.13000965 -0.155256748 2.46221256
v 4.53798246 -0.155256748 2.46221256
v 4.53798246 -0.155256748 2.81892943
v 3.13002443 -0.155256748 3.72191024
vt 0.0767822266 0.00400924683
vt -0.00400924683 0.117980957
vt -0.00400924683 0.00400924683
vt 0.0767822266 0.117980957
vt 0.49609375 0.117980957
vt -0.00400924683 0.506347656
vt 0.49609375 0.00400924683
vt 0.0767822266 0.506347656
vt -0.00400924683 0.99609375
vt 0.0767822266 0.99609375
vt 0.495605469 0.506347656
vt 0.495605469 0.727539062
vt 0.840820312 0.506347656
vt 0.99609375 0.406494141
vt 0.99609375 0.117980957
vt 0.99609375 0.00400924683
vt -0.00400924683 0.117980957
vt 0.0767822266 0.00400924683
vt -0.00400924683 0.00400924683
vt 0.0767822266 0.117980957
vt 0.49609375 0.00400924683
vt 0.0767822266 0.505859375
vt -0.00400924683 0.505859375
vt -0.00400924683 0.99609375
vt 0.0767822266 0.99609375
vt 0.496582031 0.7265625
vt 0.496337891 0.505859375
vt 0.840820312 0.505859375
vt 0.99609375 0.406494141
vt 0.49609375 0.117980957
vt 0.99609375 0.00400924683
vt 0.99609375 0.117980957
vt 0.99609375 0.118835449
vt 0.489501953 0.118835449
vt 0.99609375 0.409667969
vt 0.489501953 0.00400924683
vt 0.99609375 0.00400924683
vt 0.99609375 0.118835449
vt 0.489501953 0.00400924683
vt 0.99609375 0.00400924683
vt 0.489501953 0.118835449
vt 0.99609375 0.409667969
vt 0.0767822266 0.00400924683
vt -0.00400924683 0.00400924683
vt -0.00400924683 0.117980957
vt 0.0767822266 0.117980957
vt 0.49609375 0.117980957
vt -0.00400924683 0.506347656
vt 0.49609375 0.00400924683
vt 0.0767822266 0.506347656
vt -0.00400924683 0.99609375
vt 0.0767822266 0.99609375
vt 0.495605469 0.506347656
vt 0.495605469 0.727539062
vt 0.840820312 0.506347656
vt 0.99609375 0.406494141
vt 0.99609375 0.117980957
vt 0.99609375 0.00400924683
vt -0.00400924683 0.117980957
vt -0.00400924683 0.00400924683
vt 0.0767822266 0.00400924683
vt 0.0767822266 0.117980957
vt 0.49609375 0.00400924683
vt 0.0767822266 0.505859375
vt -0.00400924683 0.505859375
vt -0.00400924683 0.99609375
vt 0.0767822266 0.99609375
vt 0.496582031 0.7265625
vt 0.496337891 0.505859375
vt 0.840820312 0.505859375
vt 0.99609375 0.406494141
vt 0.99609375 0.117980957
vt 0.49609375 0.117980957
vt 0.99609375 0.00400924683
vt 0.99609375 0.118835449
vt 0.99609375 0.409667969
vt 0.489501953 0.118835449
vt 0.489501953 0.00400924683
vt 0.99609375 0.00400924683
vt 0.99609375 0.118835449
vt 0.99609375 0.00400924683
vt 0.489501953 0.00400924683
vt 0.489501953 0.118835449
vt 0.99609375 0.409667969
vn -0 1 -4.17232513E-07
vn -0 1 0
vn 2.98023224E-07 1 -2.38418579E-07
vn -0 1 1.1920929E-07
vn -0 1 2.38418579E-07
vn -0 1 1.1920929E-07
vn -0 1 -4.17232513E-07
vn 1.1920929E-07 1 1.1920929E-07
vn -0 1 1.78813934E-07
vn 1.1920929E-07 1 1.1920929E-07
vn -0 1 1.78813934E-07
vn 1.1920929E-07 1 0
vn -0 1 2.38418579E-07
vn -0 1 2.98023224E-07
vn 1.1920929E-07 1 -3.57627869E-07
vn -0 1 -2.98023224E-07
vn 1.07288361E-06 1 -1.1920929E-07
vn -0 1 -4.17232513E-07
vn 2.98023224E-07 1 -2.38418579E-07
vn 1.78813934E-07 1 -1.78813934E-07
vn -0 1 -4.17232513E-07
vn 1.78813934E-07 1 0
vn 8.94069672E-07 1 0
vn 5.96046448E-07 1 0
vn 1.78813934E-07 1 0
vn -0 1 0
vn -0 1 0
vn -0 1 0
vn -0 1 0
vn -0 1 -1.78813934E-07
vn -0 1 -2.98023224E-07
vn -0 1 0
vn -0 1 2.98023224E-07
vn 2.38418579E-07 1 2.98023224E-07
vn -0 1 2.98023224E-07
vn -0 1 -1.78813934E-07
vn -0 1 -2.98023224E-07
vn -0 1 0
vn -0 1 -1.78813934E-07
vn -0 1 -2.98023224E-07
vn -0 1 0
vn -0 1 0
vn -0 1 -3.57627869E-07
vn -2.98023224E-07 1 -2.38418579E-07
vn -0 1 0
vn -0 1 1.1920929E-07
vn -0 1 1.78813934E-07
vn -0 1 1.1920929E-07
vn -0 1 -4.17232513E-07
vn -1.1920929E-07 1 1.1920929E-07
vn -0 1 1.78813934E-07
vn -1.1920929E-07 1 1.1920929E-07
vn -0 1 1.78813934E-07
vn -1.1920929E-07 1 0
vn -0 1 2.38418579E-07
vn -0 1 2.38418579E-07
vn -1.1920929E-07 1 -3.57627869E-07
vn -0 1 -2.98023224E-07
vn -1.07288361E-06 1 -1.1920929E-07
vn -2.98023224E-07 1 -2.38418579E-07
vn -0 1 -3.57627869E-07
vn -1.78813934E-07 1 -1.78813934E-07
vn -0 1 -4.17232513E-07
vn -1.78813934E-07 1 0
vn -8.94069672E-07 1 0
vn -5.96046448E-07 1 0
vn -1.78813934E-07 1 0
vn -0 1 0
vn -0 1 0
vn -0 1 0
vn -0 1 0
vn -0 1 0
vn -0 1 -1.78813934E-07
vn -0 1 -2.98023224E-07
vn -0 1 2.38418579E-07
vn -0 1 2.38418579E-07
vn -2.38418579E-07 1 2.98023224E-07
vn -0 1 -1.78813934E-07
vn -0 1 -2.98023224E-07
vn -0 1 0
vn -0 1 -2.98023224E-07
vn -0 1 -1.78813934E-07
vn -0 1 0
vn -0 1 0
g TowerIzisMapGround_TowerIzis1_Chip36_0
f 3/3/3 2/2/2 1/1/1
f 2/2/2 4/4/4 1/1/1
f 1/1/1 4/4/4 5/5/5
f 2/2/2 6/6/6 4/4/4
f 7/7/7 1/1/1 5/5/5
f 6/6/6 8/8/8 4/4/4
f 5/5/5 4/4/4 8/8/8
f 6/6/6 9/9/9 8/8/8
f 9/9/9 10/10/10 8/8/8
f 11/11/11 8/8/8 10/10/10
f 11/11/11 5/5/5 8/8/8
f 12/12/12 11/11/11 10/10/10
f 11/11/11 12/12/12 13/13/13
f 5/5/5 11/11/11 13/13/13
f 13/13/13 14/14/14 5/5/5
f 14/14/14 15/15/15 5/5/5
f 7/7/7 5/5/5 15/15/15
f 16/16/16 7/7/7 15/15/15
f 19/19/19 18/18/18 17/17/17
f 18/18/18 20/20/20 17/17/17
f 18/18/18 21/21/21 20/20/20
f 17/17/17 20/20/20 22/22/22
f 23/23/23 17/17/17 22/22/22
f 23/23/23 22/22/22 24/24/24
f 22/22/22 25/25/25 24/24/24
f 26/26/26 25/25/25 22/22/22
f 27/27/27 26/26/26 22/22/22
f 27/27/27 22/22/22 20/20/20
f 27/27/27 28/28/28 26/26/26
f 29/29/29 28/28/28 27/27/27
f 21/21/21 30/30/30 20/20/20
f 30/30/30 27/27/27 20/20/20
f 29/29/29 27/27/27 30/30/30
f 21/21/21 31/31/31 30/30/30
f 30/30/30 32/32/32 29/29/29
f 31/31/31 32/32/32 30/30/30
f 35/35/35 34/34/34 33/33/33
f 33/33/33 34/34/34 36/36/36
f 37/37/37 33/33/33 36/36/36
f 40/40/40 39/39/39 38/38/38
f 39/39/39 41/41/41 38/38/38
f 38/38/38 41/41/41 42/42/42
f 45/45/45 44/44/44 43/43/43
f 46/46/46 45/45/45 43/43/43
f 46/46/46 43/43/43 47/47/47
f 48/48/48 45/45/45 46/46/46
f 43/43/43 49/49/49 47/47/47
f 50/50/50 48/48/48 46/46/46
f 46/46/46 47/47/47 50/50/50
f 51/51/51 48/48/48 50/50/50
f 52/52/52 51/51/51 50/50/50
f 50/50/50 53/53/53 52/52/52
f 47/47/47 53/53/53 50/50/50
f 53/53/53 54/54/54 52/52/52
f 54/54/54 53/53/53 55/55/55
f 55/55/55 53/53/53 47/47/47
f 47/47/47 56/56/56 55/55/55
f 47/47/47 57/57/57 56/56/56
f 47/47/47 49/49/49 57/57/57
f 49/49/49 58/58/58 57/57/57
f 61/61/61 60/60/60 59/59/59
f 62/62/62 61/61/61 59/59/59
f 63/63/63 61/61/61 62/62/62
f 62/62/62 59/59/59 64/64/64
f 59/59/59 65/65/65 64/64/64
f 64/64/64 65/65/65 66/66/66
f 67/67/67 64/64/64 66/66/66
f 67/67/67 68/68/68 64/64/64
f 68/68/68 69/69/69 64/64/64
f 64/64/64 69/69/69 62/62/62
f 70/70/70 69/69/69 68/68/68
f 69/69/69 70/70/70 71/71/71
f 69/69/69 71/71/71 72/72/72
f 73/73/73 63/63/63 62/62/62
f 69/69/69 73/73/73 62/62/62
f 72/72/72 73/73/73 69/69/69
f 74/74/74 63/63/63 73/73/73
f 72/72/72 74/74/74 73/73/73
f 77/77/77 76/76/76 75/75/75
f 77/77/77 75/75/75 78/78/78
f 75/75/75 79/79/79 78/78/78
f 82/82/82 81/81/81 80/80/80
f 83/83/83 82/82/82 80/80/80
f 83/83/83 80/80/80 84/84/84
