g TowerIzisMapGround_TowerIzis1_Chip144
v 3.0352881 -0.155256912 8.48936367
v 5.5394969 -0.155256927 8.48936367
v 3.0352881 -0.155256942 10.0954132
v 3.0352881 -0.155256912 2.43994474
v 3.0352881 -0.155256942 0.833895445
v 5.5394969 -0.155256927 2.43994474
v -3.0352881 -0.155256912 8.48936367
v -3.0352881 -0.155256942 10.0954132
v -5.5394969 -0.155256927 8.48936367
v -3.0352881 -0.155256912 2.43994474
v -5.5394969 -0.155256927 2.43994474
v -3.0352881 -0.155256942 0.833895445
v -0 -0.155256897 8.48936367
v 0.420678705 -0.155256942 11.5302877
v -0 -0.155256912 11.5302877
v 0.420683593 -0.155256897 8.48936367
v 0.797988236 -0.155256942 11.5302877
v 0.797988236 -0.155256897 8.48936367
v 3.0352881 -0.155256942 10.0954132
v 3.0352881 -0.155256912 8.48936367
v 9.33052254 -0.155256912 6.0580225
v 9.12464333 -0.155256912 6.19006014
v 9.12464333 -0.155256912 6.0580225
v 9.12464333 -0.155256912 5.46465445
v 9.33052254 -0.155256912 5.46465445
v 6.09194326 -0.155256897 6.0580225
v 6.09194326 -0.155256912 5.46465445
v 9.12464333 -0.155256912 5.46465445
v 9.12464333 -0.155256912 6.0580225
v 9.12464333 -0.155256912 6.19006014
v 6.09194326 -0.155256897 6.19006014
v 6.09194326 -0.155256927 8.13505745
v 0.420678705 -0.155256942 11.5302877
v -0 -0.155256912 11.7722692
v -0 -0.155256912 11.5302877
v 0.420678705 -0.155256942 11.7722692
v 0.797988236 -0.155256942 11.5302877
v -0 -0.155256897 2.79425097
v -0 -0.155256897 2.43994474
v 0.420683593 -0.155256897 2.43994474
v 0.420683593 -0.155256897 2.79425097
v 0.797988236 -0.155256897 2.43994474
v -0 -0.155256897 4.73924875
v 0.797988236 -0.155256897 2.79425097
v 3.0352881 -0.155256912 2.43994474
v 3.0352881 -0.155256912 2.79425097
v 0.420683593 -0.155256897 4.73924875
v 0.797988236 -0.155256897 4.73924828
v 3.0352881 -0.155256897 4.73924875
v 0.797988236 -0.155256897 4.87128544
v 3.0352881 -0.155256897 4.87128639
v 3.0352881 -0.155256897 5.46465445
v 0.797988236 -0.155256912 5.46465445
v 0.420683593 -0.155256897 4.87128496
v -0 -0.155256897 4.87128496
v 0.420683593 -0.155256912 5.46465445
v -0 -0.155256897 5.46465445
v -0 -0.155256912 0.833895564
v -0 -0.155256912 -0.600979269
v 0.420678705 -0.155256942 -0.600979269
v 0.420678705 -0.155256912 0.833895564
v -0 -0.155256897 2.43994474
v 0.797988236 -0.155256942 -0.600979269
v 0.420683593 -0.155256897 2.43994474
v 0.797988236 -0.155256912 0.833895564
v 3.0352881 -0.155256942 0.833895445
v 0.797988236 -0.155256897 2.43994474
v 3.0352881 -0.155256912 2.43994474
v 9.33052254 -0.155256912 4.87128687
v 9.12464333 -0.155256912 4.87128687
v 9.12464333 -0.155256912 4.73924875
v 9.12464333 -0.155256912 5.46465445
v 9.33052254 -0.155256912 5.46465445
v 6.09194326 -0.155256897 4.87128687
v 9.12464333 -0.155256912 5.46465445
v 6.09194326 -0.155256912 5.46465445
v 9.12464333 -0.155256912 4.87128687
v 9.12464333 -0.155256912 4.73924875
v 6.09194326 -0.155256897 4.73924875
v 6.09194326 -0.155256927 2.79425097
v 0.420678705 -0.155256942 -0.600979269
v -0 -0.155256912 -0.600979269
v -0 -0.155256912 -0.842960656
v 0.420678705 -0.155256942 -0.842960656
v 0.797988236 -0.155256942 -0.600979269
v 5.5394969 -0.155256912 5.46465445
v 3.0352881 -0.155256897 5.46465445
v 3.0352881 -0.155256897 4.87128639
v 5.5394969 -0.155256912 4.87128687
v 6.09194326 -0.155256912 5.46465445
v 6.09194326 -0.155256897 4.87128687
v 6.09194326 -0.155256897 4.73924875
v 5.5394969 -0.155256912 4.73924875
v 3.0352881 -0.155256897 4.73924875
v 6.09194326 -0.155256927 2.79425097
v 5.5394969 -0.155256927 2.79425097
v 3.0352881 -0.155256912 2.79425097
v 5.5394969 -0.155256927 2.43994474
v 3.0352881 -0.155256912 2.43994474
v -0 -0.155256897 8.48936367
v -0 -0.155256912 11.5302877
v -0.420678705 -0.155256942 11.5302877
v -0.420683593 -0.155256897 8.48936367
v -0.797988236 -0.155256942 11.5302877
v -0.797988236 -0.155256897 8.48936367
v -3.0352881 -0.155256942 10.0954132
v -3.0352881 -0.155256912 8.48936367
v -9.33052254 -0.155256912 6.0580225
v -9.12464333 -0.155256912 6.0580225
v -9.12464333 -0.155256912 6.19006014
v -9.12464333 -0.155256912 5.46465445
v -9.33052254 -0.155256912 5.46465445
v -6.09194326 -0.155256897 6.0580225
v -9.12464333 -0.155256912 5.46465445
v -6.09194326 -0.155256912 5.46465445
v -9.12464333 -0.155256912 6.0580225
v -9.12464333 -0.155256912 6.19006014
v -6.09194326 -0.155256897 6.19006014
v -6.09194326 -0.155256927 8.13505745
v -0.420678705 -0.155256942 11.5302877
v -0 -0.155256912 11.5302877
v -0 -0.155256912 11.7722692
v -0.420678705 -0.155256942 11.7722692
v -0.797988236 -0.155256942 11.5302877
v -9.33052254 -0.155256912 4.87128687
v -9.12464333 -0.155256912 4.73924875
v -9.12464333 -0.155256912 4.87128687
v -9.12464333 -0.155256912 5.46465445
v -9.33052254 -0.155256912 5.46465445
v -6.09194326 -0.155256897 4.87128687
v -6.09194326 -0.155256912 5.46465445
v -9.12464333 -0.155256912 5.46465445
v -9.12464333 -0.155256912 4.87128687
v -9.12464333 -0.155256912 4.73924875
v -6.09194326 -0.155256897 4.73924875
v -6.09194326 -0.155256927 2.79425097
v -0.420678705 -0.155256942 -0.600979269
v -0 -0.155256912 -0.842960656
v -0 -0.155256912 -0.600979269
v -0.420678705 -0.155256942 -0.842960656
v -0.797988236 -0.155256942 -0.600979269
v -5.5394969 -0.155256912 5.46465445
v -3.0352881 -0.155256897 4.87128639
v -3.0352881 -0.155256897 5.46465445
v -5.5394969 -0.155256912 4.87128687
v -6.09194326 -0.155256912 5.46465445
v -3.0352881 -0.155256897 4.73924875
v -6.09194326 -0.155256897 4.87128687
v -5.5394969 -0.155256912 4.73924875
v -3.0352881 -0.155256912 2.79425097
v -6.09194326 -0.155256897 4.73924875
v -5.5394969 -0.155256927 2.79425097
v -3.0352881 -0.155256912 2.43994474
v -6.09194326 -0.155256927 2.79425097
v -5.5394969 -0.155256927 2.43994474
v 4.88281239E-06 -0.155256897 8.13505745
v -0 -0.155256897 8.48936367
v -0.420683593 -0.155256897 8.48936367
v -0.420683593 -0.155256897 8.13505745
v -0.797988236 -0.155256897 8.48936367
v -0 -0.155256897 6.19006014
v -0.797988236 -0.155256897 8.13505745
v -3.0352881 -0.155256912 8.48936367
v -3.0352881 -0.155256912 8.13505745
v -0.420683593 -0.155256897 6.19006014
v -0.797988236 -0.155256897 6.19006014
v -3.0352881 -0.155256897 6.19006014
v -0.420683593 -0.155256897 6.05802345
v -0 -0.155256897 6.05802345
v -0 -0.155256897 5.46465445
v -0.420683593 -0.155256912 5.46465445
v -0.797988236 -0.155256897 6.05802345
v -3.0352881 -0.155256897 6.0580225
v -0.797988236 -0.155256912 5.46465445
v -3.0352881 -0.155256897 5.46465445
v 3.0352881 -0.155256912 8.48936367
v 5.5394969 -0.155256927 8.13505745
v 5.5394969 -0.155256927 8.48936367
v 6.09194326 -0.155256927 8.13505745
v 3.03529286 -0.155256912 8.13505745
v 6.09194326 -0.155256897 6.19006014
v 5.5394969 -0.155256912 6.19006014
v 5.5394969 -0.155256912 6.0580225
v 3.0352881 -0.155256897 6.19006014
v 6.09194326 -0.155256897 6.0580225
v 3.0352881 -0.155256897 6.0580225
v 6.09194326 -0.155256912 5.46465445
v 3.0352881 -0.155256897 5.46465445
v 5.5394969 -0.155256912 5.46465445
v 3.0352881 -0.155256912 8.48936367
v 0.797988236 -0.155256897 8.48936367
v 0.797988236 -0.155256897 8.13505745
v 3.03529286 -0.155256912 8.13505745
v 3.0352881 -0.155256897 6.19006014
v 0.420683593 -0.155256897 8.13505745
v 0.420683593 -0.155256897 8.48936367
v -0 -0.155256897 8.48936367
v 4.88281239E-06 -0.155256897 8.13505745
v 0.797988236 -0.155256897 6.19006014
v 3.0352881 -0.155256897 6.0580225
v 0.420683593 -0.155256897 6.19006014
v -0 -0.155256897 6.19006014
v 0.797988236 -0.155256897 6.05802345
v 3.0352881 -0.155256897 5.46465445
v 0.797988236 -0.155256912 5.46465445
v 0.420683593 -0.155256912 5.46465445
v 0.420683593 -0.155256897 6.05802345
v -0 -0.155256897 6.05802345
v -0 -0.155256897 5.46465445
v -3.0352881 -0.155256912 8.48936367
v -5.5394969 -0.155256927 8.48936367
v -5.5394969 -0.155256927 8.13505745
v -3.0352881 -0.155256912 8.13505745
v -6.09194326 -0.155256927 8.13505745
v -3.0352881 -0.155256897 6.19006014
v -5.5394969 -0.155256912 6.19006014
v -6.09194326 -0.155256897 6.19006014
v -3.0352881 -0.155256897 6.0580225
v -5.5394969 -0.155256912 6.0580225
v -6.09194326 -0.155256897 6.0580225
v -3.0352881 -0.155256897 5.46465445
v -6.09194326 -0.155256912 5.46465445
v -5.5394969 -0.155256912 5.46465445
v -0 -0.155256897 2.43994474
v -0.420683593 -0.155256897 2.43994474
v -0.420678705 -0.155256912 0.833895564
v -0 -0.155256912 0.833895564
v -0 -0.155256912 -0.600979269
v -0.420678705 -0.155256942 -0.600979269
v -0.797988236 -0.155256912 0.833895564
v -0.797988236 -0.155256897 2.43994474
v -0.797988236 -0.155256942 -0.600979269
v -3.0352881 -0.155256912 2.43994474
v -3.0352881 -0.155256942 0.833895445
v -0 -0.155256897 5.46465445
v -0.420683593 -0.155256897 4.87128496
v -0 -0.155256897 4.87128496
v -0.420683593 -0.155256912 5.46465445
v -0 -0.155256897 4.73924875
v -0.797988236 -0.155256912 5.46465445
v -0.420683593 -0.155256897 4.73924875
v -0 -0.155256897 2.79425097
v -0.797988236 -0.155256897 4.87128544
v -3.0352881 -0.155256897 5.46465445
v -3.0352881 -0.155256897 4.87128639
v -0.797988236 -0.155256897 4.73924828
v -3.0352881 -0.155256897 4.73924875
v -0.420678705 -0.155256897 2.79425097
v -0 -0.155256897 2.43994474
v -0.420683593 -0.155256897 2.43994474
v -0.797993124 -0.155256897 2.79425097
v -3.0352881 -0.155256912 2.79425097
v -0.797988236 -0.155256897 2.43994474
v -3.0352881 -0.155256912 2.43994474
vt 1 1
vt 0.163574219 1
vt 1 0.463623047
vt 1 1
vt 1 0.463623047
vt 0.163574219 1
vt 1 1
vt 1 0.463623047
vt 0.163574219 1
vt 1 1
vt 0.163574219 1
vt 1 0.463623047
vt 0.000926971436 1
vt 0.139282227 0
vt 0.000926971436 0
vt 0.139282227 1
vt 0.263427734 0
vt 0.263427734 1
vt 0.999023438 0.471923828
vt 0.999023438 1
vt 0.944824219 0.159423828
vt 1 0.194946289
vt 1 0.159423828
vt 1 0
vt 0.944824219 0
vt 8.94069672E-07 0.195678711
vt 9.53674316E-07 -2.38418579E-07
vt 1 0
vt 1 0.195678711
vt 1 0.239135742
vt 8.94069672E-07 0.239135742
vt 8.34465027E-07 0.880371094
vt 0.391601562 2.0625
vt 0.5 2.125
vt 0.5 2.0625
vt 0.391601562 2.125
vt 0.294433594 2.0625
vt 2.08616257E-06 0.881347656
vt 2.08616257E-06 0.998046875
vt 0.138549805 0.998046875
vt 0.138549805 0.881347656
vt 0.262939453 0.998046875
vt 2.02655792E-06 0.240722656
vt 0.262939453 0.881347656
vt 1 0.998046875
vt 1 0.881347656
vt 0.138549805 0.240722656
vt 0.262939453 0.240722656
vt 1 0.240722656
vt 0.262939453 0.197265625
vt 1 0.197265625
vt 1 0.00174331665
vt 0.262939453 0.00174236298
vt 0.138549805 0.197265625
vt 2.02655792E-06 0.197265625
vt 0.138549805 0.00174236298
vt 2.14576721E-06 0.00174236298
vt 0.000926971436 0.471923828
vt 0.000926971436 0
vt 0.139282227 0
vt 0.139282227 0.471923828
vt 0.000926971436 1
vt 0.263427734 0
vt 0.139282227 1
vt 0.263427734 0.471923828
vt 0.999023438 0.471923828
vt 0.263427734 1
vt 0.999023438 1
vt 0.944824219 0.159423828
vt 1 0.159423828
vt 1 0.194946289
vt 1 0
vt 0.944824219 0
vt 8.94069672E-07 0.195678711
vt 1 0
vt 9.53674316E-07 -2.38418579E-07
vt 1 0.195678711
vt 1 0.239135742
vt 8.94069672E-07 0.239135742
vt 8.34465027E-07 0.880371094
vt 0.391601562 2.0625
vt 0.5 2.0625
vt 0.5 2.125
vt 0.391601562 2.125
vt 0.294433594 2.0625
vt 0.180786133 0.00522613525
vt 1 0.00522613525
vt 1 0.19934082
vt 0.180786133 0.19934082
vt 0 0.00522613525
vt 0 0.19934082
vt 0 0.242553711
vt 0.180786133 0.242553711
vt 1 0.242553711
vt 1.1920929E-07 0.87890625
vt 0.180786133 0.87890625
vt 1 0.87890625
vt 0.180786133 0.994628906
vt 1 0.994628906
vt 0.000926971436 1
vt 0.000926971436 0
vt 0.139282227 0
vt 0.139282227 1
vt 0.263427734 0
vt 0.263427734 1
vt 0.999023438 0.471923828
vt 0.999023438 1
vt 0.944824219 0.159423828
vt 1 0.159423828
vt 1 0.194946289
vt 1 0
vt 0.944824219 0
vt 8.94069672E-07 0.195678711
vt 1 0
vt 9.53674316E-07 -2.38418579E-07
vt 1 0.195678711
vt 1 0.239135742
vt 8.94069672E-07 0.239135742
vt 8.34465027E-07 0.880371094
vt 0.391601562 2.0625
vt 0.5 2.0625
vt 0.5 2.125
vt 0.391601562 2.125
vt 0.294433594 2.0625
vt 0.944824219 0.159423828
vt 1 0.194946289
vt 1 0.159423828
vt 1 0
vt 0.944824219 0
vt 8.94069672E-07 0.195678711
vt 9.53674316E-07 -2.38418579E-07
vt 1 0
vt 1 0.195678711
vt 1 0.239135742
vt 8.94069672E-07 0.239135742
vt 8.34465027E-07 0.880371094
vt 0.391601562 2.0625
vt 0.5 2.125
vt 0.5 2.0625
vt 0.391601562 2.125
vt 0.294433594 2.0625
vt 0.180786133 0.00522613525
vt 1 0.19934082
vt 1 0.00522613525
vt 0.180786133 0.19934082
vt 0 0.00522613525
vt 1 0.242553711
vt 0 0.19934082
vt 0.180786133 0.242553711
vt 1 0.87890625
vt 0 0.242553711
vt 0.180786133 0.87890625
vt 1 0.994628906
vt 1.1920929E-07 0.87890625
vt 0.180786133 0.994628906
vt 2.08616257E-06 0.881347656
vt 2.08616257E-06 0.998046875
vt 0.138549805 0.998046875
vt 0.138549805 0.881347656
vt 0.262939453 0.998046875
vt 2.02655792E-06 0.240722656
vt 0.262939453 0.881347656
vt 1 0.998046875
vt 1 0.881347656
vt 0.138549805 0.240722656
vt 0.262939453 0.240722656
vt 1 0.240722656
vt 0.138549805 0.197265625
vt 2.02655792E-06 0.197265625
vt 2.14576721E-06 0.00174236298
vt 0.138549805 0.00174236298
vt 0.262939453 0.197265625
vt 1 0.197265625
vt 0.262939453 0.00174236298
vt 1 0.00174331665
vt 1 0.994628906
vt 0.180786133 0.87890625
vt 0.180786133 0.994628906
vt 1.1920929E-07 0.87890625
vt 1 0.87890625
vt 0 0.242553711
vt 0.180786133 0.242553711
vt 0.180786133 0.19934082
vt 1 0.242553711
vt 0 0.19934082
vt 1 0.19934082
vt 0 0.00522613525
vt 1 0.00522613525
vt 0.180786133 0.00522613525
vt 1 0.998046875
vt 0.262939453 0.998046875
vt 0.262939453 0.881347656
vt 1 0.881347656
vt 1 0.240722656
vt 0.138549805 0.881347656
vt 0.138549805 0.998046875
vt 2.08616257E-06 0.998046875
vt 2.08616257E-06 0.881347656
vt 0.262939453 0.240722656
vt 1 0.197265625
vt 0.138549805 0.240722656
vt 2.02655792E-06 0.240722656
vt 0.262939453 0.197265625
vt 1 0.00174331665
vt 0.262939453 0.00174236298
vt 0.138549805 0.00174236298
vt 0.138549805 0.197265625
vt 2.02655792E-06 0.197265625
vt 2.14576721E-06 0.00174236298
vt 1 0.994628906
vt 0.180786133 0.994628906
vt 0.180786133 0.87890625
vt 1 0.87890625
vt 1.1920929E-07 0.87890625
vt 1 0.242553711
vt 0.180786133 0.242553711
vt 0 0.242553711
vt 1 0.19934082
vt 0.180786133 0.19934082
vt 0 0.19934082
vt 1 0.00522613525
vt 0 0.00522613525
vt 0.180786133 0.00522613525
vt 0.000926971436 1
vt 0.139282227 1
vt 0.139282227 0.471923828
vt 0.000926971436 0.471923828
vt 0.000926971436 0
vt 0.139282227 0
vt 0.263427734 0.471923828
vt 0.263427734 1
vt 0.263427734 0
vt 0.999023438 1
vt 0.999023438 0.471923828
vt 2.14576721E-06 0.00174236298
vt 0.138549805 0.197265625
vt 2.02655792E-06 0.197265625
vt 0.138549805 0.00174236298
vt 2.02655792E-06 0.240722656
vt 0.262939453 0.00174236298
vt 0.138549805 0.240722656
vt 2.08616257E-06 0.881347656
vt 0.262939453 0.197265625
vt 1 0.00174331665
vt 1 0.197265625
vt 0.262939453 0.240722656
vt 1 0.240722656
vt 0.138549805 0.881347656
vt 2.08616257E-06 0.998046875
vt 0.138549805 0.998046875
vt 0.262939453 0.881347656
vt 1 0.881347656
vt 0.262939453 0.998046875
vt 1 0.998046875
vn -0 1 0
vn -0 1 0
vn -0 1 0
vn -0 1 0
vn -0 1 0
vn -0 1 0
vn -0 1 0
vn -0 1 0
vn -0 1 0
vn -0 1 0
vn -0 1 0
vn -0 1 0
vn -0 1 0
vn -0 1 0
vn -0 1 0
vn -0 1 0
vn -0 1 0
vn -0 1 0
vn -0 1 0
vn -0 1 0
vn -0 1 0
vn -0 1 0
vn -0 1 0
vn -0 1 0
vn -0 1 0
vn -0 1 0
vn -0 1 0
vn -0 1 0
vn -0 1 0
vn -0 1 0
vn -0 1 0
vn -0 1 0
vn -0 1 0
vn -0 1 0
vn -0 1 0
vn -0 1 0
vn -0 1 0
vn -0 1 0
vn -0 1 0
vn -0 1 0
vn -0 1 0
vn -0 1 0
vn -0 1 0
vn -0 1 0
vn -0 1 0
vn -0 1 0
vn -0 1 0
vn -0 1 0
vn -0 1 0
vn -0 1 0
vn -0 1 0
vn -0 1 0
vn -0 1 0
vn -0 1 0
vn -0 1 0
vn -0 1 0
vn -0 1 0
vn -0 1 0
vn -0 1 0
vn -0 1 0
vn -0 1 0
vn -0 1 0
vn -0 1 0
vn -0 1 0
vn -0 1 0
vn -0 1 0
vn -0 1 0
vn -0 1 0
vn -0 1 0
vn -0 1 0
vn -0 1 0
vn -0 1 0
vn -0 1 0
vn -0 1 0
vn -0 1 0
vn -0 1 0
vn -0 1 0
vn -0 1 0
vn -0 1 0
vn -0 1 0
vn -0 1 0
vn -0 1 0
vn -0 1 0
vn -0 1 0
vn -0 1 0
vn -0 1 0
vn -0 1 0
vn -0 1 0
vn -0 1 0
vn -0 1 0
vn -0 1 0
vn -0 1 0
vn -0 1 0
vn -0 1 0
vn -0 1 0
vn -0 1 0
vn -0 1 0
vn -0 1 0
vn -0 1 0
vn -0 1 0
vn -0 1 0
vn -0 1 0
vn -0 1 0
vn -0 1 0
vn -0 1 0
vn -0 1 0
vn -0 1 0
vn -0 1 0
vn -0 1 0
vn -0 1 0
vn -0 1 0
vn -0 1 0
vn -0 1 0
vn -0 1 0
vn -0 1 0
vn -0 1 0
vn -0 1 0
vn -0 1 0
vn -0 1 0
vn -0 1 0
vn -0 1 0
vn -0 1 0
vn -0 1 0
vn -0 1 0
vn -0 1 0
vn -0 1 0
vn -0 1 0
vn -0 1 0
vn -0 1 0
vn -0 1 0
vn -0 1 0
vn -0 1 0
vn -0 1 0
vn -0 1 0
vn -0 1 0
vn -0 1 0
vn -0 1 0
vn -0 1 0
vn -0 1 0
vn -0 1 0
vn -0 1 0
vn -0 1 0
vn -0 1 0
vn -0 1 0
vn -0 1 0
vn -0 1 0
vn -0 1 0
vn -0 1 0
vn -0 1 0
vn -0 1 0
vn -0 1 0
vn -0 1 0
vn -0 1 0
vn -0 1 0
vn -0 1 0
vn -0 1 0
vn -0 1 0
vn -0 1 0
vn -0 1 0
vn -0 1 0
vn -0 1 0
vn -0 1 0
vn -0 1 0
vn -0 1 0
vn -0 1 0
vn -0 1 0
vn -0 1 0
vn -0 1 0
vn -0 1 0
vn -0 1 0
vn -0 1 0
vn -0 1 0
vn -0 1 0
vn -0 1 0
vn -0 1 0
vn -0 1 0
vn -0 1 0
vn -0 1 0
vn -0 1 0
vn -0 1 0
vn -0 1 0
vn -0 1 0
vn -0 1 0
vn -0 1 0
vn -0 1 0
vn -0 1 0
vn -0 1 0
vn -0 1 0
vn -0 1 0
vn -0 1 0
vn -0 1 0
vn -0 1 0
vn -0 1 0
vn -0 1 0
vn -0 1 0
vn -0 1 0
vn -0 1 0
vn -0 1 0
vn -0 1 0
vn -0 1 0
vn -0 1 0
vn -0 1 0
vn -0 1 0
vn -0 1 0
vn -0 1 0
vn -0 1 0
vn -0 1 0
vn -0 1 0
vn -0 1 0
vn -0 1 0
vn -0 1 0
vn -0 1 0
vn -0 1 0
vn -0 1 0
vn -0 1 0
vn -0 1 0
vn -0 1 0
vn -0 1 0
vn -0 1 0
vn -0 1 0
vn -0 1 0
vn -0 1 0
vn -0 1 0
vn -0 1 0
vn -0 1 0
vn -0 1 0
vn -0 1 0
vn -0 1 0
vn -0 1 0
vn -0 1 0
vn -0 1 0
vn -0 1 0
vn -0 1 0
vn -0 1 0
vn -0 1 0
vn -0 1 0
vn -0 1 0
vn -0 1 0
vn -0 1 0
vn -0 1 0
vn -0 1 0
vn -0 1 0
vn -0 1 0
vn -0 1 0
vn -0 1 0
vn -0 1 0
vn -0 1 0
vn -0 1 0
vn -0 1 0
vn -0 1 0
vn -0 1 0
vn -0 1 0
vn -0 1 0
vn -0 1 0
g TowerIzisMapGround_TowerIzis1_Chip144_0
f 3/3/3 2/2/2 1/1/1
f 6/6/6 5/5/5 4/4/4
f 9/9/9 8/8/8 7/7/7
f 12/12/12 11/11/11 10/10/10
f 15/15/15 14/14/14 13/13/13
f 14/14/14 16/16/16 13/13/13
f 14/14/14 17/17/17 16/16/16
f 17/17/17 18/18/18 16/16/16
f 17/17/17 19/19/19 18/18/18
f 19/19/19 20/20/20 18/18/18
f 23/23/23 22/22/22 21/21/21
f 23/23/23 21/21/21 24/24/24
f 21/21/21 25/25/25 24/24/24
f 28/28/28 27/27/27 26/26/26
f 29/29/29 28/28/28 26/26/26
f 30/30/30 29/29/29 26/26/26
f 31/31/31 30/30/30 26/26/26
f 31/31/31 32/32/32 30/30/30
f 35/35/35 34/34/34 33/33/33
f 34/34/34 36/36/36 33/33/33
f 33/33/33 36/36/36 37/37/37
f 40/40/40 39/39/39 38/38/38
f 41/41/41 40/40/40 38/38/38
f 42/42/42 40/40/40 41/41/41
f 41/41/41 38/38/38 43/43/43
f 44/44/44 42/42/42 41/41/41
f 42/42/42 44/44/44 45/45/45
f 44/44/44 46/46/46 45/45/45
f 47/47/47 41/41/41 43/43/43
f 44/44/44 41/41/41 47/47/47
f 44/44/44 48/48/48 46/46/46
f 48/48/48 44/44/44 47/47/47
f 48/48/48 49/49/49 46/46/46
f 48/48/48 50/50/50 49/49/49
f 48/48/48 47/47/47 50/50/50
f 50/50/50 51/51/51 49/49/49
f 51/51/51 50/50/50 52/52/52
f 50/50/50 53/53/53 52/52/52
f 47/47/47 43/43/43 54/54/54
f 47/47/47 54/54/54 50/50/50
f 50/50/50 54/54/54 53/53/53
f 43/43/43 55/55/55 54/54/54
f 54/54/54 56/56/56 53/53/53
f 54/54/54 55/55/55 57/57/57
f 56/56/56 54/54/54 57/57/57
f 60/60/60 59/59/59 58/58/58
f 61/61/61 60/60/60 58/58/58
f 61/61/61 58/58/58 62/62/62
f 63/63/63 60/60/60 61/61/61
f 64/64/64 61/61/61 62/62/62
f 65/65/65 63/63/63 61/61/61
f 65/65/65 61/61/61 64/64/64
f 65/65/65 66/66/66 63/63/63
f 67/67/67 65/65/65 64/64/64
f 65/65/65 67/67/67 66/66/66
f 67/67/67 68/68/68 66/66/66
f 71/71/71 70/70/70 69/69/69
f 69/69/69 70/70/70 72/72/72
f 73/73/73 69/69/69 72/72/72
f 76/76/76 75/75/75 74/74/74
f 75/75/75 77/77/77 74/74/74
f 77/77/77 78/78/78 74/74/74
f 78/78/78 79/79/79 74/74/74
f 78/78/78 80/80/80 79/79/79
f 83/83/83 82/82/82 81/81/81
f 84/84/84 83/83/83 81/81/81
f 84/84/84 81/81/81 85/85/85
f 88/88/88 87/87/87 86/86/86
f 89/89/89 88/88/88 86/86/86
f 89/89/89 86/86/86 90/90/90
f 91/91/91 89/89/89 90/90/90
f 89/89/89 91/91/91 92/92/92
f 88/88/88 89/89/89 93/93/93
f 93/93/93 89/89/89 92/92/92
f 94/94/94 88/88/88 93/93/93
f 93/93/93 92/92/92 95/95/95
f 94/94/94 93/93/93 96/96/96
f 96/96/96 93/93/93 95/95/95
f 97/97/97 94/94/94 96/96/96
f 96/96/96 95/95/95 98/98/98
f 97/97/97 96/96/96 99/99/99
f 96/96/96 98/98/98 99/99/99
f 102/102/102 101/101/101 100/100/100
f 103/103/103 102/102/102 100/100/100
f 104/104/104 102/102/102 103/103/103
f 105/105/105 104/104/104 103/103/103
f 106/106/106 104/104/104 105/105/105
f 107/107/107 106/106/106 105/105/105
f 110/110/110 109/109/109 108/108/108
f 108/108/108 109/109/109 111/111/111
f 112/112/112 108/108/108 111/111/111
f 115/115/115 114/114/114 113/113/113
f 114/114/114 116/116/116 113/113/113
f 116/116/116 117/117/117 113/113/113
f 117/117/117 118/118/118 113/113/113
f 117/117/117 119/119/119 118/118/118
f 122/122/122 121/121/121 120/120/120
f 123/123/123 122/122/122 120/120/120
f 123/123/123 120/120/120 124/124/124
f 127/127/127 126/126/126 125/125/125
f 127/127/127 125/125/125 128/128/128
f 125/125/125 129/129/129 128/128/128
f 132/132/132 131/131/131 130/130/130
f 133/133/133 132/132/132 130/130/130
f 134/134/134 133/133/133 130/130/130
f 135/135/135 134/134/134 130/130/130
f 135/135/135 136/136/136 134/134/134
f 139/139/139 138/138/138 137/137/137
f 138/138/138 140/140/140 137/137/137
f 137/137/137 140/140/140 141/141/141
f 144/144/144 143/143/143 142/142/142
f 143/143/143 145/145/145 142/142/142
f 142/142/142 145/145/145 146/146/146
f 145/145/145 143/143/143 147/147/147
f 145/145/145 148/148/148 146/146/146
f 149/149/149 145/145/145 147/147/147
f 148/148/148 145/145/145 149/149/149
f 149/149/149 147/147/147 150/150/150
f 151/151/151 148/148/148 149/149/149
f 152/152/152 149/149/149 150/150/150
f 151/151/151 149/149/149 152/152/152
f 152/152/152 150/150/150 153/153/153
f 154/154/154 151/151/151 152/152/152
f 155/155/155 152/152/152 153/153/153
f 154/154/154 152/152/152 155/155/155
f 158/158/158 157/157/157 156/156/156
f 159/159/159 158/158/158 156/156/156
f 158/158/158 159/159/159 160/160/160
f 159/159/159 156/156/156 161/161/161
f 159/159/159 162/162/162 160/160/160
f 160/160/160 162/162/162 163/163/163
f 162/162/162 164/164/164 163/163/163
f 165/165/165 159/159/159 161/161/161
f 159/159/159 165/165/165 162/162/162
f 162/162/162 166/166/166 164/164/164
f 165/165/165 166/166/166 162/162/162
f 166/166/166 167/167/167 164/164/164
f 165/165/165 161/161/161 168/168/168
f 165/165/165 168/168/168 166/166/166
f 161/161/161 169/169/169 168/168/168
f 168/168/168 169/169/169 170/170/170
f 171/171/171 168/168/168 170/170/170
f 166/166/166 172/172/172 167/167/167
f 168/168/168 172/172/172 166/166/166
f 168/168/168 171/171/171 172/172/172
f 172/172/172 173/173/173 167/167/167
f 171/171/171 174/174/174 172/172/172
f 173/173/173 172/172/172 175/175/175
f 172/172/172 174/174/174 175/175/175
f 178/178/178 177/177/177 176/176/176
f 177/177/177 178/178/178 179/179/179
f 177/177/177 180/180/180 176/176/176
f 177/177/177 179/179/179 181/181/181
f 177/177/177 182/182/182 180/180/180
f 182/182/182 177/177/177 181/181/181
f 182/182/182 181/181/181 183/183/183
f 182/182/182 184/184/184 180/180/180
f 182/182/182 183/183/183 184/184/184
f 181/181/181 185/185/185 183/183/183
f 183/183/183 186/186/186 184/184/184
f 183/183/183 185/185/185 187/187/187
f 188/188/188 186/186/186 183/183/183
f 189/189/189 183/183/183 187/187/187
f 189/189/189 188/188/188 183/183/183
f 192/192/192 191/191/191 190/190/190
f 193/193/193 192/192/192 190/190/190
f 193/193/193 194/194/194 192/192/192
f 192/192/192 195/195/195 191/191/191
f 195/195/195 196/196/196 191/191/191
f 197/197/197 196/196/196 195/195/195
f 198/198/198 197/197/197 195/195/195
f 194/194/194 199/199/199 192/192/192
f 192/192/192 199/199/199 195/195/195
f 194/194/194 200/200/200 199/199/199
f 198/198/198 195/195/195 201/201/201
f 199/199/199 201/201/201 195/195/195
f 202/202/202 198/198/198 201/201/201
f 200/200/200 203/203/203 199/199/199
f 199/199/199 203/203/203 201/201/201
f 203/203/203 200/200/200 204/204/204
f 205/205/205 203/203/203 204/204/204
f 205/205/205 206/206/206 203/203/203
f 202/202/202 201/201/201 207/207/207
f 203/203/203 207/207/207 201/201/201
f 206/206/206 207/207/207 203/203/203
f 208/208/208 202/202/202 207/207/207
f 207/207/207 206/206/206 209/209/209
f 208/208/208 207/207/207 209/209/209
f 212/212/212 211/211/211 210/210/210
f 213/213/213 212/212/212 210/210/210
f 214/214/214 211/211/211 212/212/212
f 213/213/213 215/215/215 212/212/212
f 214/214/214 212/212/212 216/216/216
f 215/215/215 216/216/216 212/212/212
f 217/217/217 214/214/214 216/216/216
f 215/215/215 218/218/218 216/216/216
f 217/217/217 216/216/216 219/219/219
f 218/218/218 219/219/219 216/216/216
f 220/220/220 217/217/217 219/219/219
f 218/218/218 221/221/221 219/219/219
f 220/220/220 219/219/219 222/222/222
f 221/221/221 223/223/223 219/219/219
f 219/219/219 223/223/223 222/222/222
f 226/226/226 225/225/225 224/224/224
f 227/227/227 226/226/226 224/224/224
f 227/227/227 228/228/228 226/226/226
f 228/228/228 229/229/229 226/226/226
f 226/226/226 230/230/230 225/225/225
f 226/226/226 229/229/229 230/230/230
f 230/230/230 231/231/231 225/225/225
f 229/229/229 232/232/232 230/230/230
f 233/233/233 231/231/231 230/230/230
f 234/234/234 230/230/230 232/232/232
f 234/234/234 233/233/233 230/230/230
f 237/237/237 236/236/236 235/235/235
f 236/236/236 238/238/238 235/235/235
f 237/237/237 239/239/239 236/236/236
f 238/238/238 236/236/236 240/240/240
f 239/239/239 241/241/241 236/236/236
f 239/239/239 242/242/242 241/241/241
f 236/236/236 243/243/243 240/240/240
f 236/236/236 241/241/241 243/243/243
f 240/240/240 243/243/243 244/244/244
f 243/243/243 245/245/245 244/244/244
f 245/245/245 243/243/243 246/246/246
f 241/241/241 246/246/246 243/243/243
f 247/247/247 245/245/245 246/246/246
f 242/242/242 248/248/248 241/241/241
f 241/241/241 248/248/248 246/246/246
f 242/242/242 249/249/249 248/248/248
f 249/249/249 250/250/250 248/248/248
f 247/247/247 246/246/246 251/251/251
f 248/248/248 251/251/251 246/246/246
f 248/248/248 250/250/250 251/251/251
f 252/252/252 247/247/247 251/251/251
f 250/250/250 253/253/253 251/251/251
f 252/252/252 251/251/251 254/254/254
f 251/251/251 253/253/253 254/254/254
