g TowerIzisMapGround_TowerIzis1_Chip100
v -3.87988758 -0.155256942 1.34115291
v -3.12528563 -0.155256942 0.857196391
v -3.12528324 -0.155256942 1.34115291
v 3.87988758 -0.155256942 1.34115291
v 3.12528324 -0.155256942 1.34115291
v 3.12528563 -0.155256942 0.857196391
v -3.87988758 -0.155256942 7.56978559
v -3.12528324 -0.155256942 7.56978559
v -3.12528563 -0.155256942 8.05374146
v 3.87988758 -0.155256942 7.56978559
v 3.12528563 -0.155256942 8.05374146
v 3.12528324 -0.155256942 7.56978559
v -1.58247066 -0.155256942 4.45546913
v -3.12528563 -0.155256912 4.45546913
v -3.12528563 -0.155256912 3.84374809
v -1.58247066 -0.155256912 3.84374809
v -0.43369627 -0.155256942 4.45546913
v -1.58247066 -0.155256912 2.90029407
v -3.12528563 -0.155256912 2.90029407
v -0.43369627 -0.155256912 3.84374809
v -0 -0.155256912 4.45546913
v -0 -0.155256912 3.84374809
v -0 -0.155256942 2.90029407
v -0.43369627 -0.155256942 2.90029407
v -0 -0.155256912 1.34115291
v -0.43369627 -0.155256912 1.34115291
v -1.58247316 -0.155256912 1.34115291
v -3.12528324 -0.155256942 1.34115291
v -3.12528563 -0.155256942 0.857196391
v -1.58247316 -0.155256912 1.34115291
v -3.12528324 -0.155256942 1.34115291
v -1.58247066 -0.155256942 -0.132273823
v -0.43369627 -0.155256912 1.34115291
v -1.46054685 -0.155256942 -0.210469112
v -0.433693826 -0.155256942 -0.210469127
v -0.433693826 -0.155256942 -0.86903125
v -0 -0.155256942 -0.86903125
v -0 -0.155256942 -0.210469276
v -0 -0.155256912 1.34115291
v -4.69564915 -0.155256942 1.8643347
v -3.87988758 -0.155256942 1.34115291
v -3.12528324 -0.155256942 1.34115291
v -3.12528563 -0.155256912 2.90029407
v -4.69564915 -0.155256942 2.90029407
v -6.27938461 -0.155256942 2.88004804
v -6.27938461 -0.155256942 2.90029407
v -6.27938461 -0.155256897 3.84374809
v -4.69564915 -0.155256897 3.84374809
v -3.12528563 -0.155256912 3.84374809
v -3.12528563 -0.155256912 4.45546913
v -4.69564915 -0.155256912 4.45546913
v -6.27938461 -0.155256942 4.45546913
v -6.31095219 -0.155256942 2.90029407
v -6.27938461 -0.155256942 2.88004804
v -6.27938461 -0.155256942 2.90029407
v -7.78201628 -0.155256942 3.84374809
v -6.27938461 -0.155256897 3.84374809
v -6.27938461 -0.155256942 4.45546913
v -7.78201628 -0.155256942 4.45546913
v 1.58247066 -0.155256942 4.45546913
v 3.12528563 -0.155256912 3.84374809
v 3.12528563 -0.155256912 4.45546913
v 1.58247066 -0.155256912 3.84374809
v 0.43369627 -0.155256942 4.45546913
v 1.58247066 -0.155256912 2.90029407
v 3.12528563 -0.155256912 2.90029407
v 0.43369627 -0.155256912 3.84374809
v -0 -0.155256912 4.45546913
v -0 -0.155256912 3.84374809
v -0 -0.155256942 2.90029407
v 0.43369627 -0.155256942 2.90029407
v -0 -0.155256912 1.34115291
v 0.43369627 -0.155256912 1.34115291
v 1.58247316 -0.155256912 1.34115291
v 3.12528324 -0.155256942 1.34115291
v 3.12528563 -0.155256942 0.857196391
v 3.12528324 -0.155256942 1.34115291
v 1.58247316 -0.155256912 1.34115291
v 1.58247066 -0.155256942 -0.132273823
v 0.43369627 -0.155256912 1.34115291
v 1.46054685 -0.155256942 -0.210469112
v 0.433693826 -0.155256942 -0.210469127
v 0.433693826 -0.155256942 -0.86903125
v -0 -0.155256942 -0.86903125
v -0 -0.155256942 -0.210469276
v -0 -0.155256912 1.34115291
v 3.12528563 -0.155256912 2.90029407
v 3.12528324 -0.155256942 1.34115291
v 3.87988758 -0.155256942 1.34115291
v 4.69564915 -0.155256942 1.8643347
v 4.69564915 -0.155256942 2.90029407
v 6.27938461 -0.155256942 2.88004804
v 6.27938461 -0.155256942 2.90029407
v 6.27938461 -0.155256897 3.84374809
v 4.69564915 -0.155256897 3.84374809
v 3.12528563 -0.155256912 3.84374809
v 3.12528563 -0.155256912 4.45546913
v 4.69564915 -0.155256912 4.45546913
v 6.27938461 -0.155256942 4.45546913
v 6.31095219 -0.155256942 2.90029407
v 6.27938461 -0.155256942 2.90029407
v 6.27938461 -0.155256942 2.88004804
v 7.78201628 -0.155256942 3.84374809
v 6.27938461 -0.155256897 3.84374809
v 6.27938461 -0.155256942 4.45546913
v 7.78201628 -0.155256942 4.45546913
v -1.58247066 -0.155256942 4.45546913
v -3.12528563 -0.155256912 5.06719065
v -3.12528563 -0.155256912 4.45546913
v -1.58247066 -0.155256912 5.06719065
v -0.43369627 -0.155256942 4.45546913
v -1.58247066 -0.155256912 6.01064444
v -3.12528563 -0.155256912 6.01064444
v -0.43369627 -0.155256912 5.06719065
v -0 -0.155256912 4.45546913
v -0 -0.155256912 5.06719065
v -0 -0.155256942 6.01064444
v -0.43369627 -0.155256942 6.01064444
v -0 -0.155256912 7.56978559
v -0.43369627 -0.155256912 7.56978559
v -1.58247316 -0.155256912 7.56978559
v -3.12528324 -0.155256942 7.56978559
v -3.12528563 -0.155256942 8.05374146
v -3.12528324 -0.155256942 7.56978559
v -1.58247316 -0.155256912 7.56978559
v -1.58247066 -0.155256942 9.04321194
v -0.43369627 -0.155256912 7.56978559
v -0.433693826 -0.155256942 9.12140751
v -1.46054685 -0.155256942 9.12140751
v -0.433693826 -0.155256942 9.77997017
v -0 -0.155256942 9.77997017
v -0 -0.155256942 9.12140751
v -0 -0.155256912 7.56978559
v -3.12528324 -0.155256942 7.56978559
v -3.87988758 -0.155256942 7.56978559
v -4.69564915 -0.155256942 7.04660368
v -3.12528563 -0.155256912 6.01064444
v -4.69564915 -0.155256942 6.01064444
v -6.27938461 -0.155256942 6.03089046
v -6.27938461 -0.155256942 6.01064444
v -6.27938461 -0.155256897 5.06719065
v -4.69564915 -0.155256897 5.06719065
v -3.12528563 -0.155256912 5.06719065
v -3.12528563 -0.155256912 4.45546913
v -4.69564915 -0.155256912 4.45546913
v -6.27938461 -0.155256942 4.45546913
v -6.31095219 -0.155256942 6.01064444
v -6.27938461 -0.155256942 6.01064444
v -6.27938461 -0.155256942 6.03089046
v -7.78201628 -0.155256942 5.06719065
v -6.27938461 -0.155256897 5.06719065
v -6.27938461 -0.155256942 4.45546913
v -7.78201628 -0.155256942 4.45546913
v 1.58247066 -0.155256942 4.45546913
v 3.12528563 -0.155256912 4.45546913
v 3.12528563 -0.155256912 5.06719065
v 1.58247066 -0.155256912 5.06719065
v 0.43369627 -0.155256942 4.45546913
v 1.58247066 -0.155256912 6.01064444
v 3.12528563 -0.155256912 6.01064444
v 0.43369627 -0.155256912 5.06719065
v -0 -0.155256912 4.45546913
v -0 -0.155256912 5.06719065
v -0 -0.155256942 6.01064444
v 0.43369627 -0.155256942 6.01064444
v -0 -0.155256912 7.56978559
v 0.43369627 -0.155256912 7.56978559
v 1.58247316 -0.155256912 7.56978559
v 3.12528324 -0.155256942 7.56978559
v 3.12528563 -0.155256942 8.05374146
v 1.58247316 -0.155256912 7.56978559
v 3.12528324 -0.155256942 7.56978559
v 1.58247066 -0.155256942 9.04321194
v 0.433693826 -0.155256942 9.12140751
v 1.46054685 -0.155256942 9.12140751
v 0.433693826 -0.155256942 9.77997017
v -0 -0.155256942 9.77997017
v 0.43369627 -0.155256912 7.56978559
v -0 -0.155256942 9.12140751
v -0 -0.155256912 7.56978559
v 4.69564915 -0.155256942 7.04660368
v 3.87988758 -0.155256942 7.56978559
v 3.12528324 -0.155256942 7.56978559
v 4.69564915 -0.155256942 6.01064444
v 6.27938461 -0.155256942 6.03089046
v 6.27938461 -0.155256942 6.01064444
v 3.12528563 -0.155256912 6.01064444
v 6.27938461 -0.155256897 5.06719065
v 4.69564915 -0.155256897 5.06719065
v 3.12528563 -0.155256912 5.06719065
v 3.12528563 -0.155256912 4.45546913
v 4.69564915 -0.155256912 4.45546913
v 6.27938461 -0.155256942 4.45546913
v 6.31095219 -0.155256942 6.01064444
v 6.27938461 -0.155256942 6.03089046
v 6.27938461 -0.155256942 6.01064444
v 7.78201628 -0.155256942 5.06719065
v 6.27938461 -0.155256897 5.06719065
v 6.27938461 -0.155256942 4.45546913
v 7.78201628 -0.155256942 4.45546913
vt 0.756835938 1
vt 1 0.844238281
vt 1 1
vt 0.756835938 1
vt 1 1
vt 1 0.844238281
vt 0.756835938 1
vt 1 1
vt 1 0.844238281
vt 0.756835938 1
vt 1 0.844238281
vt 1 1
vt 0.506347656 5.96046448E-08
vt 1 5.96046448E-08
vt 1 0.197509766
vt 0.506347656 0.197509766
vt 0.138793945 5.96046448E-08
vt 0.506347656 0.499267578
vt 1 0.499267578
vt 0.138793945 0.197509766
vt 1.1920929E-07 5.96046448E-08
vt 0 0.197509766
vt 0 0.499267578
vt 0.138793945 0.499267578
vt 0 1
vt 0.138793945 1
vt 0.506347656 1
vt 1 1
vt 1 0.845214844
vt 0.506347656 1
vt 1 1
vt 0.506347656 0.528320312
vt 0.138793945 1
vt 0.467285156 0.503417969
vt 0.138793945 0.503417969
vt 0.138793945 0.292724609
vt 2.38418579E-07 0.292724609
vt 0 0.503417969
vt 0 1
vt 0.501953125 0.827636719
vt 0.760742188 1
vt 1 1
vt 1 0.499267578
vt 0.501953125 0.499267578
vt 0 0.505859375
vt 0 0.499267578
vt 0 0.200195312
vt 0.501953125 0.200195312
vt 1 0.200195312
vt 1 -5.96046448E-08
vt 0.501953125 -5.96046448E-08
vt 0 -5.96046448E-08
vt 0.0100784302 0.496582031
vt 1.1920929E-07 0.502929688
vt 1.1920929E-07 0.496582031
vt 0.479736328 0.1953125
vt 1.1920929E-07 0.1953125
vt 1.1920929E-07 0
vt 0.479736328 5.96046448E-08
vt 0.506347656 5.96046448E-08
vt 1 0.197509766
vt 1 5.96046448E-08
vt 0.506347656 0.197509766
vt 0.138793945 5.96046448E-08
vt 0.506347656 0.499267578
vt 1 0.499267578
vt 0.138793945 0.197509766
vt 0 5.96046448E-08
vt 0 0.197509766
vt 0 0.499267578
vt 0.138793945 0.499267578
vt 0 1
vt 0.138793945 1
vt 0.506347656 1
vt 1 1
vt 1 0.845214844
vt 1 1
vt 0.506347656 1
vt 0.506347656 0.528320312
vt 0.138793945 1
vt 0.467285156 0.503417969
vt 0.138793945 0.503417969
vt 0.138793945 0.292724609
vt 0 0.292724609
vt 0 0.503417969
vt 0 1
vt 1 0.499267578
vt 1 1
vt 0.760742188 1
vt 0.501953125 0.827636719
vt 0.501953125 0.499267578
vt 0 0.505859375
vt 0 0.499267578
vt 0 0.200195312
vt 0.501953125 0.200195312
vt 1 0.200195312
vt 1 5.96046448E-08
vt 0.501953125 5.96046448E-08
vt 0 5.96046448E-08
vt 0.0100784302 0.496582031
vt 1.1920929E-07 0.496582031
vt 1.1920929E-07 0.502929688
vt 0.479736328 0.1953125
vt 1.1920929E-07 0.1953125
vt 1.1920929E-07 0
vt 0.479736328 0
vt 0.506347656 5.96046448E-08
vt 1 0.197509766
vt 1 5.96046448E-08
vt 0.506347656 0.197509766
vt 0.138793945 5.96046448E-08
vt 0.506347656 0.499267578
vt 1 0.499267578
vt 0.138793945 0.197509766
vt 0 5.96046448E-08
vt 0 0.197509766
vt 0 0.499267578
vt 0.138793945 0.499267578
vt 0 1
vt 0.138793945 1
vt 0.506347656 1
vt 1 1
vt 1 0.845214844
vt 1 1
vt 0.506347656 1
vt 0.506347656 0.528320312
vt 0.138793945 1
vt 0.138793945 0.503417969
vt 0.467285156 0.503417969
vt 0.138793945 0.292724609
vt 0 0.292724609
vt 0 0.503417969
vt 0 1
vt 1 1
vt 0.760742188 1
vt 0.501953125 0.827636719
vt 1 0.499267578
vt 0.501953125 0.499267578
vt 0 0.505859375
vt 0 0.499267578
vt 0 0.200195312
vt 0.501953125 0.200195312
vt 1 0.200195312
vt 1 1.1920929E-07
vt 0.501953125 -5.96046448E-08
vt 1.1920929E-07 -1.1920929E-07
vt 0.0100784302 0.496582031
vt 1.1920929E-07 0.496582031
vt 0 0.502929688
vt 0.479736328 0.1953125
vt 0 0.1953125
vt 0 5.96046448E-08
vt 0.479736328 2.38418579E-07
vt 0.506347656 5.96046448E-08
vt 1 5.96046448E-08
vt 1 0.197509766
vt 0.506347656 0.197509766
vt 0.138793945 5.96046448E-08
vt 0.506347656 0.499267578
vt 1 0.499267578
vt 0.138793945 0.197509766
vt 0 5.96046448E-08
vt 0 0.197509766
vt 0 0.499267578
vt 0.138793945 0.499267578
vt 0 1
vt 0.138793945 1
vt 0.506347656 1
vt 1 1
vt 1 0.845214844
vt 0.506347656 1
vt 1 1
vt 0.506347656 0.528320312
vt 0.138793945 0.503417969
vt 0.467285156 0.503417969
vt 0.138793945 0.292724609
vt 0 0.292724609
vt 0.138793945 1
vt 0 0.503417969
vt 0 1
vt 0.501953125 0.827636719
vt 0.760742188 1
vt 1 1
vt 0.501953125 0.499267578
vt 0 0.505859375
vt 0 0.499267578
vt 1 0.499267578
vt 0 0.200195312
vt 0.501953125 0.200195312
vt 1 0.200195312
vt 1 5.96046448E-08
vt 0.501953125 5.96046448E-08
vt 0 5.96046448E-08
vt 0.0100784302 0.496582031
vt 0 0.502929688
vt 0 0.496582031
vt 0.479736328 0.1953125
vt 0 0.1953125
vt 0 0
vt 0.479736328 0
vn -0 1 0
vn -0 1 0
vn -0 1 0
vn -0 1 0
vn -0 1 0
vn -0 1 0
vn -0 1 0
vn -0 1 0
vn -0 1 0
vn -0 1 0
vn -0 1 0
vn -0 1 0
vn -0 1 0
vn -0 1 0
vn -0 1 0
vn -0 1 0
vn -0 1 0
vn -0 1 0
vn -0 1 0
vn -0 1 0
vn -0 1 0
vn -0 1 0
vn -0 1 0
vn -0 1 0
vn -0 1 0
vn -0 1 0
vn -0 1 0
vn -0 1 0
vn -0 1 0
vn -0 1 0
vn -0 1 0
vn -0 1 0
vn -0 1 0
vn -0 1 0
vn -0 1 0
vn -0 1 0
vn -0 1 0
vn -0 1 0
vn -0 1 0
vn -0 1 0
vn -0 1 0
vn -0 1 0
vn -0 1 0
vn -0 1 0
vn -0 1 0
vn -0 1 0
vn -0 1 0
vn -0 1 0
vn -0 1 0
vn -0 1 0
vn -0 1 0
vn -0 1 0
vn -0 1 0
vn -0 1 0
vn -0 1 0
vn -0 1 0
vn -0 1 0
vn -0 1 0
vn -0 1 0
vn -0 1 0
vn -0 1 0
vn -0 1 0
vn -0 1 0
vn -0 1 0
vn -0 1 0
vn -0 1 0
vn -0 1 0
vn -0 1 0
vn -0 1 0
vn -0 1 0
vn -0 1 0
vn -0 1 0
vn -0 1 0
vn -0 1 0
vn -0 1 0
vn -0 1 0
vn -0 1 0
vn -0 1 0
vn -0 1 0
vn -0 1 0
vn -0 1 0
vn -0 1 0
vn -0 1 0
vn -0 1 0
vn -0 1 0
vn -0 1 0
vn -0 1 0
vn -0 1 0
vn -0 1 0
vn -0 1 0
vn -0 1 0
vn -0 1 0
vn -0 1 0
vn -0 1 0
vn -0 1 0
vn -0 1 0
vn -0 1 0
vn -0 1 0
vn -0 1 0
vn -0 1 0
vn -0 1 0
vn -0 1 0
vn -0 1 0
vn -0 1 0
vn -0 1 0
vn -0 1 0
vn -0 1 0
vn -0 1 0
vn -0 1 0
vn -0 1 0
vn -0 1 0
vn -0 1 0
vn -0 1 0
vn -0 1 0
vn -0 1 0
vn -0 1 0
vn -0 1 0
vn -0 1 0
vn -0 1 0
vn -0 1 0
vn -0 1 0
vn -0 1 0
vn -0 1 0
vn -0 1 0
vn -0 1 0
vn -0 1 0
vn -0 1 0
vn -0 1 0
vn -0 1 0
vn -0 1 0
vn -0 1 0
vn -0 1 0
vn -0 1 0
vn -0 1 0
vn -0 1 0
vn -0 1 0
vn -0 1 0
vn -0 1 0
vn -0 1 0
vn -0 1 0
vn -0 1 0
vn -0 1 0
vn -0 1 0
vn -0 1 0
vn -0 1 0
vn -0 1 0
vn -0 1 0
vn -0 1 0
vn -0 1 0
vn -0 1 0
vn -0 1 0
vn -0 1 0
vn -0 1 0
vn -0 1 0
vn -0 1 0
vn -0 1 0
vn -0 1 0
vn -0 1 0
vn -0 1 0
vn -0 1 0
vn -0 1 0
vn -0 1 0
vn -0 1 0
vn -0 1 0
vn -0 1 0
vn -0 1 0
vn -0 1 0
vn -0 1 0
vn -0 1 0
vn -0 1 0
vn -0 1 0
vn -0 1 0
vn -0 1 0
vn -0 1 0
vn -0 1 0
vn -0 1 0
vn -0 1 0
vn -0 1 0
vn -0 1 0
vn -0 1 0
vn -0 1 0
vn -0 1 0
vn -0 1 0
vn -0 1 0
vn -0 1 0
vn -0 1 0
vn -0 1 0
vn -0 1 0
vn -0 1 0
vn -0 1 0
vn -0 1 0
vn -0 1 0
vn -0 1 0
vn -0 1 0
vn -0 1 0
vn -0 1 0
vn -0 1 0
vn -0 1 0
vn -0 1 0
vn -0 1 0
g TowerIzisMapGround_TowerIzis1_Chip100_0
f 3/3/3 2/2/2 1/1/1
f 6/6/6 5/5/5 4/4/4
f 9/9/9 8/8/8 7/7/7
f 12/12/12 11/11/11 10/10/10
f 15/15/15 14/14/14 13/13/13
f 16/16/16 15/15/15 13/13/13
f 16/16/16 13/13/13 17/17/17
f 15/15/15 16/16/16 18/18/18
f 19/19/19 15/15/15 18/18/18
f 20/20/20 16/16/16 17/17/17
f 20/20/20 17/17/17 21/21/21
f 22/22/22 20/20/20 21/21/21
f 22/22/22 23/23/23 20/20/20
f 16/16/16 20/20/20 24/24/24
f 23/23/23 24/24/24 20/20/20
f 18/18/18 16/16/16 24/24/24
f 23/23/23 25/25/25 24/24/24
f 25/25/25 26/26/26 24/24/24
f 18/18/18 24/24/24 26/26/26
f 27/27/27 18/18/18 26/26/26
f 18/18/18 27/27/27 19/19/19
f 27/27/27 28/28/28 19/19/19
f 31/31/31 30/30/30 29/29/29
f 30/30/30 32/32/32 29/29/29
f 32/32/32 30/30/30 33/33/33
f 34/34/34 32/32/32 33/33/33
f 33/33/33 35/35/35 34/34/34
f 35/35/35 36/36/36 34/34/34
f 37/37/37 36/36/36 35/35/35
f 38/38/38 37/37/37 35/35/35
f 38/38/38 35/35/35 33/33/33
f 39/39/39 38/38/38 33/33/33
f 42/42/42 41/41/41 40/40/40
f 40/40/40 43/43/43 42/42/42
f 40/40/40 44/44/44 43/43/43
f 44/44/44 40/40/40 45/45/45
f 46/46/46 44/44/44 45/45/45
f 44/44/44 46/46/46 47/47/47
f 43/43/43 44/44/44 48/48/48
f 48/48/48 44/44/44 47/47/47
f 49/49/49 43/43/43 48/48/48
f 49/49/49 48/48/48 50/50/50
f 48/48/48 51/51/51 50/50/50
f 48/48/48 47/47/47 51/51/51
f 47/47/47 52/52/52 51/51/51
f 55/55/55 54/54/54 53/53/53
f 55/55/55 53/53/53 56/56/56
f 57/57/57 55/55/55 56/56/56
f 57/57/57 56/56/56 58/58/58
f 56/56/56 59/59/59 58/58/58
f 62/62/62 61/61/61 60/60/60
f 61/61/61 63/63/63 60/60/60
f 60/60/60 63/63/63 64/64/64
f 63/63/63 61/61/61 65/65/65
f 61/61/61 66/66/66 65/65/65
f 63/63/63 67/67/67 64/64/64
f 64/64/64 67/67/67 68/68/68
f 67/67/67 69/69/69 68/68/68
f 70/70/70 69/69/69 67/67/67
f 67/67/67 63/63/63 71/71/71
f 71/71/71 70/70/70 67/67/67
f 63/63/63 65/65/65 71/71/71
f 72/72/72 70/70/70 71/71/71
f 73/73/73 72/72/72 71/71/71
f 71/71/71 65/65/65 73/73/73
f 65/65/65 74/74/74 73/73/73
f 74/74/74 65/65/65 66/66/66
f 75/75/75 74/74/74 66/66/66
f 78/78/78 77/77/77 76/76/76
f 79/79/79 78/78/78 76/76/76
f 80/80/80 78/78/78 79/79/79
f 80/80/80 79/79/79 81/81/81
f 81/81/81 82/82/82 80/80/80
f 83/83/83 82/82/82 81/81/81
f 83/83/83 84/84/84 82/82/82
f 84/84/84 85/85/85 82/82/82
f 82/82/82 85/85/85 80/80/80
f 85/85/85 86/86/86 80/80/80
f 89/89/89 88/88/88 87/87/87
f 87/87/87 90/90/90 89/89/89
f 87/87/87 91/91/91 90/90/90
f 90/90/90 91/91/91 92/92/92
f 91/91/91 93/93/93 92/92/92
f 93/93/93 91/91/91 94/94/94
f 91/91/91 87/87/87 95/95/95
f 91/91/91 95/95/95 94/94/94
f 87/87/87 96/96/96 95/95/95
f 95/95/95 96/96/96 97/97/97
f 98/98/98 95/95/95 97/97/97
f 94/94/94 95/95/95 98/98/98
f 99/99/99 94/94/94 98/98/98
f 102/102/102 101/101/101 100/100/100
f 100/100/100 101/101/101 103/103/103
f 101/101/101 104/104/104 103/103/103
f 103/103/103 104/104/104 105/105/105
f 106/106/106 103/103/103 105/105/105
f 109/109/109 108/108/108 107/107/107
f 108/108/108 110/110/110 107/107/107
f 107/107/107 110/110/110 111/111/111
f 110/110/110 108/108/108 112/112/112
f 108/108/108 113/113/113 112/112/112
f 110/110/110 114/114/114 111/111/111
f 111/111/111 114/114/114 115/115/115
f 114/114/114 116/116/116 115/115/115
f 117/117/117 116/116/116 114/114/114
f 114/114/114 110/110/110 118/118/118
f 118/118/118 117/117/117 114/114/114
f 110/110/110 112/112/112 118/118/118
f 119/119/119 117/117/117 118/118/118
f 120/120/120 119/119/119 118/118/118
f 118/118/118 112/112/112 120/120/120
f 112/112/112 121/121/121 120/120/120
f 121/121/121 112/112/112 113/113/113
f 122/122/122 121/121/121 113/113/113
f 125/125/125 124/124/124 123/123/123
f 126/126/126 125/125/125 123/123/123
f 127/127/127 125/125/125 126/126/126
f 126/126/126 128/128/128 127/127/127
f 126/126/126 129/129/129 128/128/128
f 130/130/130 128/128/128 129/129/129
f 130/130/130 131/131/131 128/128/128
f 131/131/131 132/132/132 128/128/128
f 128/128/128 132/132/132 127/127/127
f 132/132/132 133/133/133 127/127/127
f 136/136/136 135/135/135 134/134/134
f 136/136/136 134/134/134 137/137/137
f 137/137/137 138/138/138 136/136/136
f 136/136/136 138/138/138 139/139/139
f 138/138/138 140/140/140 139/139/139
f 140/140/140 138/138/138 141/141/141
f 138/138/138 137/137/137 142/142/142
f 138/138/138 142/142/142 141/141/141
f 137/137/137 143/143/143 142/142/142
f 142/142/142 143/143/143 144/144/144
f 145/145/145 142/142/142 144/144/144
f 141/141/141 142/142/142 145/145/145
f 146/146/146 141/141/141 145/145/145
f 149/149/149 148/148/148 147/147/147
f 147/147/147 148/148/148 150/150/150
f 148/148/148 151/151/151 150/150/150
f 150/150/150 151/151/151 152/152/152
f 153/153/153 150/150/150 152/152/152
f 156/156/156 155/155/155 154/154/154
f 157/157/157 156/156/156 154/154/154
f 157/157/157 154/154/154 158/158/158
f 156/156/156 157/157/157 159/159/159
f 160/160/160 156/156/156 159/159/159
f 161/161/161 157/157/157 158/158/158
f 161/161/161 158/158/158 162/162/162
f 163/163/163 161/161/161 162/162/162
f 163/163/163 164/164/164 161/161/161
f 157/157/157 161/161/161 165/165/165
f 164/164/164 165/165/165 161/161/161
f 159/159/159 157/157/157 165/165/165
f 164/164/164 166/166/166 165/165/165
f 166/166/166 167/167/167 165/165/165
f 159/159/159 165/165/165 167/167/167
f 168/168/168 159/159/159 167/167/167
f 159/159/159 168/168/168 160/160/160
f 168/168/168 169/169/169 160/160/160
f 172/172/172 171/171/171 170/170/170
f 171/171/171 173/173/173 170/170/170
f 174/174/174 173/173/173 171/171/171
f 174/174/174 175/175/175 173/173/173
f 174/174/174 176/176/176 175/175/175
f 177/177/177 176/176/176 174/174/174
f 171/171/171 178/178/178 174/174/174
f 179/179/179 177/177/177 174/174/174
f 179/179/179 174/174/174 178/178/178
f 180/180/180 179/179/179 178/178/178
f 183/183/183 182/182/182 181/181/181
f 183/183/183 181/181/181 184/184/184
f 184/184/184 181/181/181 185/185/185
f 186/186/186 184/184/184 185/185/185
f 184/184/184 187/187/187 183/183/183
f 184/184/184 186/186/186 188/188/188
f 187/187/187 184/184/184 189/189/189
f 189/189/189 184/184/184 188/188/188
f 190/190/190 187/187/187 189/189/189
f 190/190/190 189/189/189 191/191/191
f 189/189/189 192/192/192 191/191/191
f 189/189/189 188/188/188 192/192/192
f 188/188/188 193/193/193 192/192/192
f 196/196/196 195/195/195 194/194/194
f 196/196/196 194/194/194 197/197/197
f 198/198/198 196/196/196 197/197/197
f 198/198/198 197/197/197 199/199/199
f 197/197/197 200/200/200 199/199/199
