g TowerIzisMapGround_TowerIzis1_Chip64
v -0.341754138 -0.155256897 0.344470918
v -0 -0.155256912 -0.730698884
v -0 -0.155256897 0.344470918
v -0.341754138 -0.155256912 -0.730698884
v -1.57744384 -0.155256912 0.0617995821
v -1.57744384 -0.155256912 0.344470978
v -2.01819324 -0.155256912 0.344470918
v -1.57744384 -0.155256897 3.46504426
v -3.12326908 -0.155256897 3.46504426
v -3.12326908 -0.155256897 2.98300338
v -1.57744384 -0.155256897 2.98300338
v -0.34175536 -0.155256912 3.46504426
v -1.57744384 -0.155256882 1.90454447
v -3.12326908 -0.155256897 1.90454447
v -3.12326908 -0.155256912 1.05320048
v -0.34175536 -0.155256897 2.98300338
v -0 -0.155256897 3.46504426
v -0 -0.155256897 2.98300338
v -0 -0.155256897 1.90454447
v -0.34175536 -0.155256897 1.90454447
v -0 -0.155256897 0.344470918
v -0.341754138 -0.155256897 0.344470918
v -1.57744384 -0.155256912 0.344470978
v -2.01819324 -0.155256912 0.344470918
v -4.69382811 -0.155256912 3.46504426
v -6.13228273 -0.155256912 3.46504426
v -6.13228273 -0.155256912 2.98300409
v -4.69382811 -0.155256897 2.98300409
v -3.12326908 -0.155256897 3.46504426
v -3.12326908 -0.155256897 2.98300338
v -4.69382811 -0.155256912 2.06046438
v -3.12326908 -0.155256897 1.90454447
v -4.45071268 -0.155256897 1.90454447
v -3.12326908 -0.155256912 1.05320048
v 0.341754138 -0.155256897 0.344470918
v -0 -0.155256897 0.344470918
v -0 -0.155256912 -0.730698884
v 0.341754138 -0.155256912 -0.730698884
v 1.57744384 -0.155256912 0.0617995821
v 1.57744384 -0.155256912 0.344470978
v 2.01819324 -0.155256912 0.344470918
v 1.57744384 -0.155256897 3.46504426
v 3.12326908 -0.155256897 2.98300338
v 3.12326908 -0.155256897 3.46504426
v 1.57744384 -0.155256897 2.98300338
v 0.34175536 -0.155256912 3.46504426
v 1.57744384 -0.155256882 1.90454447
v 3.12326908 -0.155256897 1.90454447
v 3.12326908 -0.155256912 1.05320048
v 0.34175536 -0.155256897 2.98300338
v -0 -0.155256897 3.46504426
v -0 -0.155256897 2.98300338
v -0 -0.155256897 1.90454447
v 0.34175536 -0.155256897 1.90454447
v -0 -0.155256897 0.344470918
v 0.341754138 -0.155256897 0.344470918
v 1.57744384 -0.155256912 0.344470978
v 2.01819324 -0.155256912 0.344470918
v 4.69382811 -0.155256912 3.46504426
v 6.13228273 -0.155256912 2.98300409
v 6.13228273 -0.155256912 3.46504426
v 4.69382811 -0.155256897 2.98300409
v 3.12326908 -0.155256897 3.46504426
v 4.69382811 -0.155256912 2.06046438
v 3.12326908 -0.155256897 2.98300338
v 4.45071268 -0.155256897 1.90454447
v 3.12326908 -0.155256897 1.90454447
v 3.12326908 -0.155256912 1.05320048
v -0.341754138 -0.155256897 6.58561754
v -0 -0.155256897 6.58561754
v -0 -0.155256912 7.66078711
v -0.341754138 -0.155256912 7.66078711
v -1.57744384 -0.155256912 6.86828899
v -1.57744384 -0.155256912 6.58561754
v -2.01819324 -0.155256912 6.58561754
v -1.57744384 -0.155256897 3.46504426
v -3.12326908 -0.155256897 3.9470849
v -3.12326908 -0.155256897 3.46504426
v -1.57744384 -0.155256897 3.9470849
v -0.34175536 -0.155256912 3.46504426
v -1.57744384 -0.155256882 5.02554369
v -3.12326908 -0.155256897 5.02554369
v -3.12326908 -0.155256912 5.8768878
v -0.34175536 -0.155256897 3.9470849
v -0 -0.155256897 3.46504426
v -0 -0.155256897 3.9470849
v -0 -0.155256897 5.02554369
v -0.34175536 -0.155256897 5.02554369
v -0 -0.155256897 6.58561754
v -0.341754138 -0.155256897 6.58561754
v -1.57744384 -0.155256912 6.58561754
v -2.01819324 -0.155256912 6.58561754
v -4.69382811 -0.155256912 3.46504426
v -6.13228273 -0.155256912 3.94708419
v -6.13228273 -0.155256912 3.46504426
v -4.69382811 -0.155256897 3.94708419
v -3.12326908 -0.155256897 3.46504426
v -3.12326908 -0.155256897 3.9470849
v -4.69382811 -0.155256912 4.86962414
v -3.12326908 -0.155256897 5.02554369
v -4.45071268 -0.155256897 5.02554369
v -3.12326908 -0.155256912 5.8768878
v 0.341754138 -0.155256897 6.58561754
v -0 -0.155256912 7.66078711
v -0 -0.155256897 6.58561754
v 0.341754138 -0.155256912 7.66078711
v 1.57744384 -0.155256912 6.86828899
v 1.57744384 -0.155256912 6.58561754
v 2.01819324 -0.155256912 6.58561754
v 1.57744384 -0.155256897 3.46504426
v 3.12326908 -0.155256897 3.46504426
v 3.12326908 -0.155256897 3.9470849
v 1.57744384 -0.155256897 3.9470849
v 0.34175536 -0.155256912 3.46504426
v 1.57744384 -0.155256882 5.02554369
v 3.12326908 -0.155256897 5.02554369
v 0.34175536 -0.155256897 3.9470849
v -0 -0.155256897 3.46504426
v -0 -0.155256897 3.9470849
v -0 -0.155256897 5.02554369
v 0.34175536 -0.155256897 5.02554369
v -0 -0.155256897 6.58561754
v 0.341754138 -0.155256897 6.58561754
v 1.57744384 -0.155256912 6.58561754
v 3.12326908 -0.155256912 5.8768878
v 2.01819324 -0.155256912 6.58561754
v 4.69382811 -0.155256912 3.46504426
v 6.13228273 -0.155256912 3.46504426
v 6.13228273 -0.155256912 3.94708419
v 4.69382811 -0.155256897 3.94708419
v 3.12326908 -0.155256897 3.46504426
v 3.12326908 -0.155256897 3.9470849
v 4.69382811 -0.155256912 4.86962414
v 3.12326908 -0.155256897 5.02554369
v 4.45071268 -0.155256897 5.02554369
v 3.12326908 -0.155256912 5.8768878
vt 0.109741211 0.999511719
vt 0 0.654785156
vt 0 0.999511719
vt 0.109741211 0.654785156
vt 0.506347656 0.908691406
vt 0.506347656 0.999511719
vt 0.646972656 0.999511719
vt 0.504882812 5.96046448E-08
vt 1 1.1920929E-07
vt 1 0.154296875
vt 0.504882812 0.154296875
vt 0.109436035 1.1920929E-07
vt 0.504882812 0.499755859
vt 1 0.499755859
vt 1 0.772460938
vt 0.109436035 0.154296875
vt 1.78813934E-07 1.78813934E-07
vt 1.78813934E-07 0.154296875
vt 1.78813934E-07 0.499755859
vt 0.109436035 0.499755859
vt 1.78813934E-07 0.999511719
vt 0.109436035 0.999511719
vt 0.504882812 0.999511719
vt 0.646972656 0.999511719
vt 0.478027344 0
vt 0 0
vt 0 0.16015625
vt 0.478027344 0.16015625
vt 1 0
vt 1 0.16015625
vt 0.478027344 0.466796875
vt 1 0.518554688
vt 0.559082031 0.518554688
vt 1 0.801757812
vt 0.109741211 0.999511719
vt 0 0.999511719
vt 0 0.654785156
vt 0.109741211 0.654785156
vt 0.506347656 0.909667969
vt 0.506347656 0.999511719
vt 0.646972656 0.999511719
vt 0.504882812 1.1920929E-07
vt 1 0.154296875
vt 1 1.1920929E-07
vt 0.504882812 0.154296875
vt 0.109436035 1.1920929E-07
vt 0.504882812 0.499755859
vt 1 0.499755859
vt 1 0.772460938
vt 0.109436035 0.154296875
vt 1.78813934E-07 1.1920929E-07
vt 1.78813934E-07 0.154296875
vt 1.78813934E-07 0.499755859
vt 0.109436035 0.499755859
vt 1.78813934E-07 0.999511719
vt 0.109436035 0.999511719
vt 0.504882812 0.999511719
vt 0.646972656 0.999511719
vt 0.478027344 0
vt 0 0.16015625
vt 1.78813934E-07 0
vt 0.478027344 0.16015625
vt 1 1.78813934E-07
vt 0.478027344 0.466796875
vt 1 0.16015625
vt 0.559082031 0.518554688
vt 1 0.518554688
vt 1 0.801757812
vt 0.109741211 0.999511719
vt 0 0.999511719
vt 0 0.654785156
vt 0.109741211 0.654785156
vt 0.506347656 0.908691406
vt 0.506347656 0.999511719
vt 0.646972656 0.999511719
vt 0.504882812 1.1920929E-07
vt 1 0.154296875
vt 1 1.1920929E-07
vt 0.504882812 0.154296875
vt 0.109436035 1.1920929E-07
vt 0.504882812 0.499755859
vt 1 0.499755859
vt 1 0.772460938
vt 0.109436035 0.154296875
vt 1.78813934E-07 1.1920929E-07
vt 1.78813934E-07 0.154296875
vt 1.78813934E-07 0.499755859
vt 0.109436035 0.499755859
vt 1.78813934E-07 0.999511719
vt 0.109436035 0.999511719
vt 0.504882812 0.999511719
vt 0.646972656 0.999511719
vt 0.478027344 1.1920929E-07
vt 0 0.16015625
vt 1.1920929E-07 0
vt 0.478027344 0.16015625
vt 1 1.78813934E-07
vt 1 0.16015625
vt 0.478027344 0.466796875
vt 1 0.518554688
vt 0.559082031 0.518554688
vt 1 0.801757812
vt 0.109741211 0.999511719
vt 0 0.654785156
vt 0 0.999511719
vt 0.109741211 0.654785156
vt 0.506347656 0.909667969
vt 0.506347656 0.999511719
vt 0.646972656 0.999511719
vt 0.504882812 1.1920929E-07
vt 1 5.96046448E-08
vt 1 0.154296875
vt 0.504882812 0.154296875
vt 0.109436035 0
vt 0.504882812 0.499755859
vt 1 0.499755859
vt 0.109436035 0.154296875
vt 2.98023224E-07 0
vt 2.98023224E-07 0.154296875
vt 1.78813934E-07 0.499755859
vt 0.109436035 0.499755859
vt 0 0.999511719
vt 0.109436035 0.999511719
vt 0.504882812 0.999511719
vt 1 0.772460938
vt 0.646972656 0.999511719
vt 0.478027344 1.1920929E-07
vt 1.1920929E-07 0
vt 0 0.16015625
vt 0.478027344 0.16015625
vt 1 1.78813934E-07
vt 1 0.16015625
vt 0.478027344 0.466796875
vt 1 0.518554688
vt 0.559082031 0.518554688
vt 1 0.801757812
vn -0 1 0
vn -0 1 0
vn -0 1 0
vn -0 1 0
vn -0 1 0
vn -0 1 0
vn -0 1 0
vn -0 1 0
vn -0 1 0
vn -0 1 0
vn -0 1 0
vn -0 1 0
vn -0 1 0
vn -0 1 0
vn -0 1 0
vn -0 1 0
vn -0 1 0
vn -0 1 0
vn -0 1 0
vn -0 1 0
vn -0 1 0
vn -0 1 0
vn -0 1 0
vn -0 1 0
vn -0 1 0
vn -0 1 0
vn -0 1 0
vn -0 1 0
vn -0 1 0
vn -0 1 0
vn -0 1 0
vn -0 1 0
vn -0 1 0
vn -0 1 0
vn -0 1 0
vn -0 1 0
vn -0 1 0
vn -0 1 0
vn -0 1 0
vn -0 1 0
vn -0 1 0
vn -0 1 0
vn -0 1 0
vn -0 1 0
vn -0 1 0
vn -0 1 0
vn -0 1 0
vn -0 1 0
vn -0 1 0
vn -0 1 0
vn -0 1 0
vn -0 1 0
vn -0 1 0
vn -0 1 0
vn -0 1 0
vn -0 1 0
vn -0 1 0
vn -0 1 0
vn -0 1 0
vn -0 1 0
vn -0 1 0
vn -0 1 0
vn -0 1 0
vn -0 1 0
vn -0 1 0
vn -0 1 0
vn -0 1 0
vn -0 1 0
vn -0 1 0
vn -0 1 0
vn -0 1 0
vn -0 1 0
vn -0 1 0
vn -0 1 0
vn -0 1 0
vn -0 1 0
vn -0 1 0
vn -0 1 0
vn -0 1 0
vn -0 1 0
vn -0 1 0
vn -0 1 0
vn -0 1 0
vn -0 1 0
vn -0 1 0
vn -0 1 0
vn -0 1 0
vn -0 1 0
vn -0 1 0
vn -0 1 0
vn -0 1 0
vn -0 1 0
vn -0 1 0
vn -0 1 0
vn -0 1 0
vn -0 1 0
vn -0 1 0
vn -0 1 0
vn -0 1 0
vn -0 1 0
vn -0 1 0
vn -0 1 0
vn -0 1 0
vn -0 1 0
vn -0 1 0
vn -0 1 0
vn -0 1 0
vn -0 1 0
vn -0 1 0
vn -0 1 0
vn -0 1 0
vn -0 1 0
vn -0 1 0
vn -0 1 0
vn -0 1 0
vn -0 1 0
vn -0 1 0
vn -0 1 0
vn -0 1 0
vn -0 1 0
vn -0 1 0
vn -0 1 0
vn -0 1 0
vn -0 1 0
vn -0 1 0
vn -0 1 0
vn -0 1 0
vn -0 1 0
vn -0 1 0
vn -0 1 0
vn -0 1 0
vn -0 1 0
vn -0 1 0
vn -0 1 0
vn -0 1 0
vn -0 1 0
g TowerIzisMapGround_TowerIzis1_Chip64_0
f 3/3/3 2/2/2 1/1/1
f 2/2/2 4/4/4 1/1/1
f 1/1/1 4/4/4 5/5/5
f 6/6/6 1/1/1 5/5/5
f 6/6/6 5/5/5 7/7/7
f 10/10/10 9/9/9 8/8/8
f 11/11/11 10/10/10 8/8/8
f 11/11/11 8/8/8 12/12/12
f 11/11/11 13/13/13 10/10/10
f 13/13/13 14/14/14 10/10/10
f 15/15/15 14/14/14 13/13/13
f 16/16/16 11/11/11 12/12/12
f 16/16/16 12/12/12 17/17/17
f 18/18/18 16/16/16 17/17/17
f 18/18/18 19/19/19 16/16/16
f 16/16/16 20/20/20 11/11/11
f 19/19/19 20/20/20 16/16/16
f 20/20/20 13/13/13 11/11/11
f 19/19/19 21/21/21 20/20/20
f 21/21/21 22/22/22 20/20/20
f 20/20/20 22/22/22 13/13/13
f 22/22/22 23/23/23 13/13/13
f 15/15/15 13/13/13 23/23/23
f 23/23/23 24/24/24 15/15/15
f 27/27/27 26/26/26 25/25/25
f 28/28/28 27/27/27 25/25/25
f 28/28/28 25/25/25 29/29/29
f 30/30/30 28/28/28 29/29/29
f 28/28/28 31/31/31 27/27/27
f 31/31/31 28/28/28 30/30/30
f 31/31/31 30/30/30 32/32/32
f 32/32/32 33/33/33 31/31/31
f 32/32/32 34/34/34 33/33/33
f 37/37/37 36/36/36 35/35/35
f 38/38/38 37/37/37 35/35/35
f 38/38/38 35/35/35 39/39/39
f 35/35/35 40/40/40 39/39/39
f 39/39/39 40/40/40 41/41/41
f 44/44/44 43/43/43 42/42/42
f 43/43/43 45/45/45 42/42/42
f 42/42/42 45/45/45 46/46/46
f 47/47/47 45/45/45 43/43/43
f 48/48/48 47/47/47 43/43/43
f 47/47/47 48/48/48 49/49/49
f 45/45/45 50/50/50 46/46/46
f 46/46/46 50/50/50 51/51/51
f 50/50/50 52/52/52 51/51/51
f 53/53/53 52/52/52 50/50/50
f 54/54/54 50/50/50 45/45/45
f 54/54/54 53/53/53 50/50/50
f 47/47/47 54/54/54 45/45/45
f 55/55/55 53/53/53 54/54/54
f 56/56/56 55/55/55 54/54/54
f 56/56/56 54/54/54 47/47/47
f 57/57/57 56/56/56 47/47/47
f 57/57/57 47/47/47 49/49/49
f 49/49/49 58/58/58 57/57/57
f 61/61/61 60/60/60 59/59/59
f 60/60/60 62/62/62 59/59/59
f 59/59/59 62/62/62 63/63/63
f 64/64/64 62/62/62 60/60/60
f 62/62/62 65/65/65 63/63/63
f 65/65/65 62/62/62 64/64/64
f 65/65/65 64/64/64 66/66/66
f 66/66/66 67/67/67 65/65/65
f 68/68/68 67/67/67 66/66/66
f 71/71/71 70/70/70 69/69/69
f 72/72/72 71/71/71 69/69/69
f 72/72/72 69/69/69 73/73/73
f 69/69/69 74/74/74 73/73/73
f 73/73/73 74/74/74 75/75/75
f 78/78/78 77/77/77 76/76/76
f 77/77/77 79/79/79 76/76/76
f 76/76/76 79/79/79 80/80/80
f 81/81/81 79/79/79 77/77/77
f 82/82/82 81/81/81 77/77/77
f 81/81/81 82/82/82 83/83/83
f 79/79/79 84/84/84 80/80/80
f 80/80/80 84/84/84 85/85/85
f 84/84/84 86/86/86 85/85/85
f 87/87/87 86/86/86 84/84/84
f 88/88/88 84/84/84 79/79/79
f 88/88/88 87/87/87 84/84/84
f 81/81/81 88/88/88 79/79/79
f 89/89/89 87/87/87 88/88/88
f 90/90/90 89/89/89 88/88/88
f 90/90/90 88/88/88 81/81/81
f 91/91/91 90/90/90 81/81/81
f 83/83/83 91/91/91 81/81/81
f 83/83/83 92/92/92 91/91/91
f 95/95/95 94/94/94 93/93/93
f 94/94/94 96/96/96 93/93/93
f 93/93/93 96/96/96 97/97/97
f 96/96/96 98/98/98 97/97/97
f 99/99/99 96/96/96 94/94/94
f 98/98/98 96/96/96 99/99/99
f 99/99/99 100/100/100 98/98/98
f 99/99/99 101/101/101 100/100/100
f 102/102/102 100/100/100 101/101/101
f 105/105/105 104/104/104 103/103/103
f 104/104/104 106/106/106 103/103/103
f 103/103/103 106/106/106 107/107/107
f 108/108/108 103/103/103 107/107/107
f 108/108/108 107/107/107 109/109/109
f 112/112/112 111/111/111 110/110/110
f 113/113/113 112/112/112 110/110/110
f 113/113/113 110/110/110 114/114/114
f 113/113/113 115/115/115 112/112/112
f 115/115/115 116/116/116 112/112/112
f 117/117/117 113/113/113 114/114/114
f 117/117/117 114/114/114 118/118/118
f 119/119/119 117/117/117 118/118/118
f 119/119/119 120/120/120 117/117/117
f 117/117/117 121/121/121 113/113/113
f 120/120/120 121/121/121 117/117/117
f 121/121/121 115/115/115 113/113/113
f 120/120/120 122/122/122 121/121/121
f 122/122/122 123/123/123 121/121/121
f 121/121/121 123/123/123 115/115/115
f 123/123/123 124/124/124 115/115/115
f 116/116/116 115/115/115 124/124/124
f 124/124/124 125/125/125 116/116/116
f 124/124/124 126/126/126 125/125/125
f 129/129/129 128/128/128 127/127/127
f 130/130/130 129/129/129 127/127/127
f 130/130/130 127/127/127 131/131/131
f 132/132/132 130/130/130 131/131/131
f 130/130/130 133/133/133 129/129/129
f 133/133/133 130/130/130 132/132/132
f 132/132/132 134/134/134 133/133/133
f 134/134/134 135/135/135 133/133/133
f 134/134/134 136/136/136 135/135/135
