g Wall
v 2.83130646 -0.100002438 -5.73392916
v 4.99356842 10.5706301 -5.07800913
v 4.99356842 -0.100002438 -5.07800913
v 2.83130646 10.5706301 -5.73392916
v 1.84847556E-06 -0.100002438 -6.01278687
v 1.84847556E-06 10.5706301 -6.01278687
v -2.8313024 -0.100002438 -5.73393297
v -2.8313024 10.5706301 -5.73393297
v -4.99356747 10.5706301 -5.07801676
v -4.99356747 -0.100002438 -5.07801676
vt 0.674804688 0.183105469
vt 0.813476562 0.803710938
vt 0.813476562 0.183105469
vt 0.674804688 0.803710938
vt 0.500488281 0.183105469
vt 0.500488281 0.803710938
vt 0.326171875 0.183105469
vt 0.326171875 0.803710938
vt 0.187744141 0.803710938
vt 0.187744141 0.183105469
vn -0.183959961 0 0.982910156
vn -0.290283203 0 0.95703125
vn -0.290283203 0 0.95703125
vn -0.183959961 0 0.982910156
vn -7.15255737E-07 0 1
vn -7.15255737E-07 0 1
vn 0.183959961 0 0.982910156
vn 0.183959961 0 0.982910156
vn 0.290283203 0 0.95703125
vn 0.290283203 0 0.95703125
g Wall_0
f 3/3/3 2/2/2 1/1/1
f 2/2/2 4/4/4 1/1/1
f 1/1/1 4/4/4 5/5/5
f 4/4/4 6/6/6 5/5/5
f 5/5/5 6/6/6 7/7/7
f 6/6/6 8/8/8 7/7/7
f 7/7/7 8/8/8 9/9/9
f 10/10/10 7/7/7 9/9/9
