o rock_00
v -0.137520865 -0.238439471 -0.177446365
v 0.0038567353 -0.218440503 -0.294900417
v 0.188008606 -0.19239077 -0.273082495
v 0.120848008 -0.201891184 -0.0391154289
v 0.354557216 -0.16883117 -0.273492455
v 0.429301381 -0.158258036 -0.130590081
v 0.318820417 -0.173886418 0.02884233
v 0.0467142612 -0.212377965 0.219144046
v 0.265850455 -0.181379437 0.167603374
v -0.0845623016 -0.230948061 0.163627565
v -0.086026229 -0.231155142 0.00429105759
v -0.229865894 -0.251502395 0.186667025
v -0.281105578 -0.258750647 0.0452227592
v -0.287748069 -0.259690255 -0.155157804
v -0.436278015 -0.280700982 -0.100713968
v -0.486052454 -0.287741989 0.000665903091
v -0.427606255 -0.279474318 0.075961709
v -0.360479623 -0.269978732 0.1624403
v 0.633476019 -1.49011612e-08 -0.170628309
v 0.525387883 -1.49011612e-08 -0.375244021
v 0.284539819 -1.49011612e-08 -0.374656796
v 0.187418178 0 -0.039649725
v 0.473708332 -1.49011612e-08 0.0576560497
v 0.0802126303 -1.49011612e-08 0.330140531
v 0.397107899 -1.49011612e-08 0.256341755
v -0.109627843 -1.49011612e-08 0.250649035
v -0.186211824 -1.49011612e-08 -0.237719655
v 0.0182358325 -1.49011612e-08 -0.405896902
v -0.111744821 0 0.0225020647
v -0.319752991 -1.49011612e-08 0.283638239
v -0.39385131 0 0.0811104774
v -0.403456986 -1.49011612e-08 -0.205805659
v -0.618247747 -1.49011612e-08 -0.127849936
v -0.690227151 -1.49011612e-08 0.0173113346
v -0.605707407 0 0.125124097
v -0.508634865 -1.49011612e-08 0.248948991
v 0.284539819 -1.49011612e-08 -0.374656796
v 0.525387883 -1.49011612e-08 -0.375244021
v 0.354557216 -0.16883117 -0.273492455
v 0.188008606 -0.19239077 -0.273082495
v 0.525387883 -1.49011612e-08 -0.375244021
v 0.633476019 -1.49011612e-08 -0.170628309
v 0.429301381 -0.158258036 -0.130590081
v 0.354557216 -0.16883117 -0.273492455
v 0.633476019 -1.49011612e-08 -0.170628309
v 0.473708332 -1.49011612e-08 0.0576560497
v 0.318820417 -0.173886418 0.02884233
v 0.429301381 -0.158258036 -0.130590081
v -0.186211824 -1.49011612e-08 -0.237719655
v 0.0182358325 -1.49011612e-08 -0.405896902
v 0.0038567353 -0.218440503 -0.294900417
v -0.137520865 -0.238439471 -0.177446365
v 0.0182358325 -1.49011612e-08 -0.405896902
v 0.284539819 -1.49011612e-08 -0.374656796
v 0.188008606 -0.19239077 -0.273082495
v 0.0038567353 -0.218440503 -0.294900417
v 0.473708332 -1.49011612e-08 0.0576560497
v 0.397107899 -1.49011612e-08 0.256341755
v 0.265850455 -0.181379437 0.167603374
v 0.318820417 -0.173886418 0.02884233
v 0.397107899 -1.49011612e-08 0.256341755
v 0.0802126303 -1.49011612e-08 0.330140531
v 0.0467142612 -0.212377965 0.219144046
v 0.265850455 -0.181379437 0.167603374
v 0.0802126303 -1.49011612e-08 0.330140531
v -0.109627843 -1.49011612e-08 0.250649035
v -0.0845623016 -0.230948061 0.163627565
v 0.0467142612 -0.212377965 0.219144046
v -0.109627843 -1.49011612e-08 0.250649035
v -0.319752991 -1.49011612e-08 0.283638239
v -0.229865894 -0.251502395 0.186667025
v -0.0845623016 -0.230948061 0.163627565
v -0.403456986 -1.49011612e-08 -0.205805659
v -0.186211824 -1.49011612e-08 -0.237719655
v -0.137520865 -0.238439471 -0.177446365
v -0.287748069 -0.259690255 -0.155157804
v -0.319752991 -1.49011612e-08 0.283638239
v -0.508634865 -1.49011612e-08 0.248948991
v -0.360479623 -0.269978732 0.1624403
v -0.229865894 -0.251502395 0.186667025
v -0.508634865 -1.49011612e-08 0.248948991
v -0.605707407 0 0.125124097
v -0.427606255 -0.279474318 0.075961709
v -0.360479623 -0.269978732 0.1624403
v -0.605707407 0 0.125124097
v -0.690227151 -1.49011612e-08 0.0173113346
v -0.486052454 -0.287741989 0.000665903091
v -0.427606255 -0.279474318 0.075961709
v -0.690227151 -1.49011612e-08 0.0173113346
v -0.618247747 -1.49011612e-08 -0.127849936
v -0.436278015 -0.280700982 -0.100713968
v -0.486052454 -0.287741989 0.000665903091
v -0.618247747 -1.49011612e-08 -0.127849936
v -0.403456986 -1.49011612e-08 -0.205805659
v -0.287748069 -0.259690255 -0.155157804
v -0.436278015 -0.280700982 -0.100713968
vt 0.322064489 0.110912085
vt 0.458225965 0.0490377545
vt 0.584353507 0.113872111
vt 0.467455208 0.291491747
vt 0.704327404 0.155751824
vt 0.716236115 0.293584973
vt 0.59000653 0.398214906
vt 0.338419586 0.487553328
vt 0.511221707 0.500226855
vt 0.26021865 0.408088177
vt 0.305860966 0.275159597
vt 0.148901403 0.390420467
vt 0.153479993 0.2597588
vt 0.207424223 0.0913715363
vt 0.0845817924 0.0990122855
vt 0.019051671 0.170735627
vt 0.0390449166 0.248193115
vt 0.062007606 0.337154359
vt -0.0598776862 0.953008056
vt 0.0217782333 1.12751758
vt 0.203728437 1.12701666
vt 0.277099639 0.841301084
vt 0.0608198754 0.758312345
vt 0.358088762 0.525919914
vt 0.118688166 0.588860273
vt 0.501504958 0.59371531
vt 0.559360802 1.01022792
vt 0.404909521 1.15366042
vt 0.50310415 0.788293958
vt 0.660245359 0.56558013
vt 0.7162233 0.738309026
vt 0.723480046 0.983009696
vt 0.885745108 0.916523933
vt 0.940122306 0.792720914
vt 0.876271427 0.700771213
vt 0.802937329 0.595165253
vt 1.09534502 0.662457347
vt 0.92511791 0.662974119
vt 1.13551903 0.509639919
vt 1.21780825 0.509390354
vt 0.92511791 0.662974119
vt 0.848723054 0.482950896
vt 0.989809752 0.447724849
vt 1.13551903 0.509639919
vt 0.848723054 0.482950896
vt 0.961644351 0.282103777
vt 1.15317607 0.325524509
vt 0.989809752 0.447724849
vt 1.42806435 0.541978538
vt 1.28356409 0.689942777
vt 1.3087945 0.522676945
vt 1.37864733 0.45114997
vt 1.28356409 0.689942777
vt 1.09534502 0.662457347
vt 1.21780825 0.509390354
vt 1.3087945 0.522676945
vt 0.961644351 0.282103777
vt 1.01578403 0.107297882
vt 1.17934787 0.241021931
vt 1.15317607 0.325524509
vt 1.01578403 0.107297882
vt 1.23976016 0.0423689634
vt 1.28761959 0.209634796
vt 1.17934787 0.241021931
vt 1.23976016 0.0423689634
vt 1.37393606 0.112306431
vt 1.35248125 0.243443161
vt 1.28761959 0.209634796
vt 1.37393606 0.112306431
vt 1.5224489 0.0832821876
vt 1.42427349 0.229412585
vt 1.35248125 0.243443161
vt 1.58160937 0.51390034
vt 1.42806435 0.541978538
vt 1.37864733 0.45114997
vt 1.45287204 0.437576681
vt 1.5224489 0.0832821876
vt 1.65594733 0.11380212
vt 1.48880756 0.244166136
vt 1.42427349 0.229412585
vt 1.65594733 0.11380212
vt 1.72455633 0.222744659
vt 1.52197385 0.29682979
vt 1.48880756 0.244166136
vt 1.72455633 0.222744659
vt 1.78429353 0.317599535
vt 1.55085111 0.342683315
vt 1.52197385 0.29682979
vt 1.78429353 0.317599535
vt 1.73341978 0.44531408
vt 1.52625835 0.404421479
vt 1.55085111 0.342683315
vt 1.73341978 0.44531408
vt 1.58160937 0.51390034
vt 1.45287204 0.437576681
vt 1.52625835 0.404421479
vn 0.140063405 -0.990142465 0
vn 0.140063405 -0.990142465 0
vn 0.140063375 -0.990142465 0
vn 0.14006339 -0.990142465 0
vn 0.140063375 -0.990142465 0
vn 0.14006345 -0.990142465 0
vn 0.14006345 -0.990142465 0
vn 0.14006345 -0.990142465 0
vn 0.14006345 -0.990142465 0
vn 0.140063345 -0.990142465 0
vn 0.14006339 -0.990142465 0
vn 0.14006342 -0.990142465 0
vn 0.140063435 -0.990142465 0
vn 0.14006336 -0.990142465 0
vn 0.140063405 -0.990142465 0
vn 0.140063405 -0.990142465 0
vn 0.140063435 -0.990142465 0
vn 0.140063435 -0.990142465 0
vn 0 1 0
vn 0 1 0
vn 0 1 0
vn 0 1 0
vn 0 1 0
vn 0 1 0
vn 0 1 0
vn 0 1 0
vn 0 1 0
vn 0 1 0
vn 0 1 0
vn 0 1 0
vn 0 1 0
vn 0 1 0
vn 0 1 0
vn 0 1 0
vn 0 1 0
vn 0 1 0
vn 0.0271223187 -0.505504251 -0.86239773
vn 0.0271223225 -0.505504251 -0.86239773
vn 0.0271223225 -0.505504251 -0.86239773
vn 0.0271223225 -0.505504251 -0.86239773
vn 0.570210755 -0.773583531 -0.276456773
vn 0.570210695 -0.773583591 -0.276456773
vn 0.570210695 -0.773583531 -0.276456803
vn 0.570210755 -0.773583531 -0.276456773
vn 0.62628597 -0.663193524 0.409805119
vn 0.62628603 -0.663193524 0.409805149
vn 0.62628603 -0.663193524 0.409805149
vn 0.62628597 -0.663193524 0.409805149
vn -0.591878295 -0.321523935 -0.739122748
vn -0.591878235 -0.321523935 -0.739122748
vn -0.591878235 -0.321523935 -0.739122808
vn -0.591878295 -0.321523935 -0.739122748
vn 0.129926234 -0.48309353 -0.865875125
vn 0.12992622 -0.48309353 -0.865875125
vn 0.129926249 -0.48309353 -0.865875125
vn 0.129926234 -0.48309356 -0.865875125
vn 0.709064066 -0.656373262 0.257686615
vn 0.709064066 -0.656373203 0.257686585
vn 0.709064007 -0.656373262 0.257686555
vn 0.709064066 -0.656373262 0.257686585
vn 0.223406106 -0.513679206 0.828385949
vn 0.223406136 -0.513679266 0.828385949
vn 0.223406076 -0.513679206 0.828385949
vn 0.223406106 -0.513679206 0.828385949
vn -0.340130985 -0.378113449 0.861011684
vn -0.340130985 -0.378113449 0.861011684
vn -0.340130955 -0.378113419 0.861011684
vn -0.340130955 -0.378113419 0.861011684
vn 0.165542752 -0.316739917 0.933954775
vn 0.165542766 -0.316739917 0.933954775
vn 0.165542752 -0.316739857 0.933954775
vn 0.165542766 -0.316739947 0.933954775
vn -0.126627058 -0.255236804 -0.95855093
vn -0.126627043 -0.255236745 -0.95855093
vn -0.126627043 -0.255236775 -0.95855093
vn -0.126627043 -0.255236804 -0.95855093
vn -0.145546511 -0.386825204 0.910594523
vn -0.145546496 -0.386825204 0.910594523
vn -0.145546526 -0.386825234 0.910594642
vn -0.145546526 -0.386825234 0.910594642
vn -0.659422696 -0.524531662 0.538542628
vn -0.659422755 -0.524531603 0.538542628
vn -0.659422755 -0.524531603 0.538542628
vn -0.659422755 -0.524531662 0.538542628
vn -0.66582644 -0.511728168 0.542963684
vn -0.66582638 -0.511728168 0.542963684
vn -0.66582638 -0.511728168 0.542963684
vn -0.66582638 -0.511728108 0.542963684
vn -0.758508325 -0.522444725 -0.389508396
vn -0.758508325 -0.522444665 -0.389508396
vn -0.758508205 -0.522444725 -0.389508307
vn -0.758508325 -0.522444665 -0.389508396
vn -0.311078757 -0.301110774 -0.901422381
vn -0.311078727 -0.301110744 -0.901422381
vn -0.311078757 -0.301110774 -0.901422381
vn -0.311078727 -0.301110744 -0.901422381
g submesh_0
usemtl submesh_0
f 1/1/1 2/2/2 3/3/3
f 3/3/3 4/4/4 1/1/1
f 5/5/5 4/4/4 3/3/3
f 6/6/6 4/4/4 5/5/5
f 7/7/7 4/4/4 6/6/6
f 7/7/7 8/8/8 4/4/4
f 7/7/7 9/9/9 8/8/8
f 10/10/10 4/4/4 8/8/8
f 10/10/10 11/11/11 4/4/4
f 4/4/4 11/11/11 1/1/1
f 12/12/12 11/11/11 10/10/10
f 1/1/1 11/11/11 13/13/13
f 12/12/12 13/13/13 11/11/11
f 1/1/1 13/13/13 14/14/14
f 15/15/15 14/14/14 13/13/13
f 13/13/13 16/16/16 15/15/15
f 13/13/13 17/17/17 16/16/16
f 17/17/17 13/13/13 12/12/12
f 17/17/17 12/12/12 18/18/18
f 19/19/19 20/20/20 21/21/21
f 21/21/21 22/22/22 19/19/19
f 22/22/22 23/23/23 19/19/19
f 23/23/23 22/22/22 24/24/24
f 23/23/23 24/24/24 25/25/25
f 26/26/26 24/24/24 22/22/22
f 27/27/27 22/22/22 21/21/21
f 21/21/21 28/28/28 27/27/27
f 26/26/26 22/22/22 29/29/29
f 27/27/27 29/29/29 22/22/22
f 30/30/30 26/26/26 29/29/29
f 27/27/27 31/31/31 29/29/29
f 30/30/30 29/29/29 31/31/31
f 27/27/27 32/32/32 31/31/31
f 31/31/31 32/32/32 33/33/33
f 33/33/33 34/34/34 31/31/31
f 34/34/34 35/35/35 31/31/31
f 35/35/35 30/30/30 31/31/31
f 35/35/35 36/36/36 30/30/30
f 37/37/37 38/38/38 39/39/39
f 37/37/37 39/39/39 40/40/40
f 41/41/41 42/42/42 43/43/43
f 41/41/41 43/43/43 44/44/44
f 45/45/45 46/46/46 47/47/47
f 45/45/45 47/47/47 48/48/48
f 49/49/49 50/50/50 51/51/51
f 49/49/49 51/51/51 52/52/52
f 53/53/53 54/54/54 55/55/55
f 53/53/53 55/55/55 56/56/56
f 57/57/57 58/58/58 59/59/59
f 57/57/57 59/59/59 60/60/60
f 61/61/61 62/62/62 63/63/63
f 61/61/61 63/63/63 64/64/64
f 65/65/65 66/66/66 67/67/67
f 65/65/65 67/67/67 68/68/68
f 69/69/69 70/70/70 71/71/71
f 69/69/69 71/71/71 72/72/72
f 73/73/73 74/74/74 75/75/75
f 73/73/73 75/75/75 76/76/76
f 77/77/77 78/78/78 79/79/79
f 77/77/77 79/79/79 80/80/80
f 81/81/81 82/82/82 83/83/83
f 81/81/81 83/83/83 84/84/84
f 85/85/85 86/86/86 87/87/87
f 85/85/85 87/87/87 88/88/88
f 89/89/89 90/90/90 91/91/91
f 89/89/89 91/91/91 92/92/92
f 93/93/93 94/94/94 95/95/95
f 93/93/93 95/95/95 96/96/96
