o pSphere_02
v -0.126558229 -0.987688363 -0.0919499323
v 0 -1 0
v -0.148778126 -0.987688363 -0.0483409427
v -0.250000179 -0.95105654 -0.181635737
v -0.293892831 -0.95105654 -0.0954915658
v -0.367286295 -0.891006529 -0.266849101
v -0.431770921 -0.891006529 -0.140290871
v -0.475528568 -0.809017003 -0.345491707
v -0.55901736 -0.809017003 -0.181635737
v -0.572061777 -0.707106769 -0.415627182
v -0.672498941 -0.707106769 -0.218508139
v -0.654508948 -0.587785244 -0.475528538
v -0.769421399 -0.587785244 -0.250000149
v -0.720839918 -0.453990519 -0.523720801
v -0.847398102 -0.453990519 -0.275336325
v -0.769421399 -0.309016973 -0.55901736
v -0.904509127 -0.309016973 -0.293892801
v -0.799057186 -0.156434372 -0.580549002
v -0.939348042 -0.156434372 -0.305212677
v -0.809017539 0 -0.587785602
v -0.951057136 0 -0.309017181
v -0.799057186 0.156434372 -0.580549002
v -0.939348042 0.156434372 -0.305212677
v -0.769421399 0.309016973 -0.55901736
v -0.904509127 0.309016973 -0.293892801
v -0.720839918 0.453990519 -0.523720801
v -0.847398102 0.453990519 -0.275336325
v -0.654508948 0.587785244 -0.475528538
v -0.769421399 0.587785244 -0.250000149
v -0.572061777 0.707106769 -0.415627182
v -0.672498941 0.707106769 -0.218508139
v -0.475528568 0.809017003 -0.345491707
v -0.55901736 0.809017003 -0.181635737
v -0.367286295 0.891006529 -0.266849101
v -0.431770921 0.891006529 -0.140290871
v -0.250000179 0.95105654 -0.181635737
v -0.293892831 0.95105654 -0.0954915658
v -0.126558229 0.987688363 -0.0919499323
v -0.148778126 0.987688363 -0.0483409427
v 0 1 0
v -0.0919499323 0.987688363 -0.126558229
v 0 1 0
v -0.181635737 0.95105654 -0.250000149
v -0.266849101 0.891006529 -0.367286265
v -0.345491707 0.809017003 -0.475528538
v -0.0483409353 0.987688363 -0.148778111
v 0 1 0
v -0.0954915509 0.95105654 -0.293892801
v -0.415627182 0.707106769 -0.572061718
v -0.140290856 0.891006529 -0.431770861
v 0 0.987688363 -0.156434551
v 0 1 0
v 0 0.95105654 -0.309017152
v -0.181635723 0.809017003 -0.559017301
v -0.475528538 0.587785244 -0.654508889
v 0.0483409353 0.987688363 -0.148778096
v 0 1 0
v 0 0.891006529 -0.453990728
v -0.218508124 0.707106769 -0.672498882
v -0.523720801 0.453990519 -0.720839858
v 0.0954915509 0.95105654 -0.293892771
v 0 0.809017003 -0.587785542
v -0.250000119 0.587785244 -0.769421279
v -0.55901736 0.309016973 -0.769421339
v 0.0919499174 0.987688363 -0.1265582
v 0 1 0
v 0.140290856 0.891006529 -0.431770831
v 0 0.707106769 -0.707107127
v -0.275336295 0.453990519 -0.847397983
v -0.580549002 0.156434372 -0.799057126
v 0.181635708 0.95105654 -0.250000089
v 0.181635723 0.809017003 -0.559017241
v 0 0.587785244 -0.80901736
v -0.293892771 0.309016973 -0.904509008
v -0.587785602 0 -0.809017479
v 0.126558185 0.987688363 -0.0919499025
v 0 1 0
v 0.218508124 0.707106769 -0.672498822
v 0 0.453990519 -0.891006947
v -0.305212647 0.156434372 -0.939347923
v -0.580549002 -0.156434372 -0.799057126
v 0.250000119 0.587785244 -0.76942122
v 0 0.309016973 -0.951057017
v -0.309017152 0 -0.951057017
v -0.55901736 -0.309016973 -0.769421339
v 0.275336295 0.453990519 -0.847397983
v 0 0.156434372 -0.987688839
v -0.305212647 -0.156434372 -0.939347923
v -0.523720801 -0.453990519 -0.720839858
v 0.293892771 0.309016973 -0.904508948
v 0 0 -1.00000048
v -0.293892771 -0.309016973 -0.904509008
v -0.475528538 -0.587785244 -0.654508889
v 0.305212647 0.156434372 -0.939347863
v 0 -0.156434372 -0.987688839
v -0.275336295 -0.453990519 -0.847397983
v -0.415627182 -0.707106769 -0.572061718
v 0.309017152 0 -0.951056957
v 0 -0.309016973 -0.951057017
v -0.250000119 -0.587785244 -0.769421279
v -0.345491707 -0.809017003 -0.475528538
v 0.305212647 -0.156434372 -0.939347863
v 0 -0.453990519 -0.891006947
v -0.218508124 -0.707106769 -0.672498882
v -0.266849101 -0.891006529 -0.367286265
v 0.293892771 -0.309016973 -0.904508948
v 0 -0.587785244 -0.80901736
v -0.181635723 -0.809017003 -0.559017301
v -0.181635737 -0.95105654 -0.250000149
v 0.275336295 -0.453990519 -0.847397983
v 0 -0.707106769 -0.707107127
v -0.140290856 -0.891006529 -0.431770861
v -0.0919499323 -0.987688363 -0.126558229
v 0 -1 0
v -0.0954915509 -0.95105654 -0.293892801
v 0 -0.809017003 -0.587785542
v 0.250000119 -0.587785244 -0.76942122
v -0.0483409353 -0.987688363 -0.148778111
v 0 -1 0
v 0 -0.891006529 -0.453990728
v 0.218508124 -0.707106769 -0.672498822
v 0 -0.95105654 -0.309017152
v 0.181635723 -0.809017003 -0.559017241
v 0 -0.987688363 -0.156434551
v 0 -1 0
v 0.140290856 -0.891006529 -0.431770831
v 0.0954915509 -0.95105654 -0.293892771
v 0.0483409353 -0.987688363 -0.148778096
v 0 -1 0
v 0.475528449 -0.587785244 -0.65450877
v 0.415627092 -0.707106769 -0.572061598
v 0.345491648 -0.809017003 -0.475528419
v 0.266849041 -0.891006529 -0.367286175
v 0.181635708 -0.95105654 -0.250000089
v 0.523720682 -0.453990519 -0.720839679
v 0.0919499174 -0.987688363 -0.1265582
v 0 -1 0
v 0.559017241 -0.309016973 -0.76942122
v 0.580548882 -0.156434372 -0.799056947
v 0.587785482 0 -0.809017301
v 0.580548882 0.156434372 -0.799056947
v 0.559017241 0.309016973 -0.76942122
v 0.523720682 0.453990519 -0.720839679
v 0.475528449 0.587785244 -0.65450877
v 0.415627092 0.707106769 -0.572061598
v 0.345491648 0.809017003 -0.475528419
v 0.266849041 0.891006529 -0.367286175
v 0.250000089 0.95105654 -0.181635693
v 0.367286146 0.891006529 -0.266849011
v 0.475528389 0.809017003 -0.345491588
v 0.572061539 0.707106769 -0.415627062
v 0.65450871 0.587785244 -0.475528389
v 0.148778066 0.987688363 -0.0483409241
v 0 1 0
v 0.293892711 0.95105654 -0.0954915285
v 0.431770772 0.891006529 -0.140290812
v 0.559017122 0.809017003 -0.181635663
v 0.156434521 0.987688363 0
v 0 1 0
v 0.309017062 0.95105654 0
v 0.72083962 0.453990519 -0.523720622
v 0.672498703 0.707106769 -0.21850805
v 0.453990638 0.891006529 0
v 0.148778066 0.987688363 0.0483409241
v 0 1 0
v 0.293892711 0.95105654 0.0954915285
v 0.587785363 0.809017003 0
v 0.769421101 0.587785244 -0.25000006
v 0.76942116 0.309016973 -0.559017181
v 0.126558185 0.987688363 0.091949895
v 0 1 0
v 0.431770772 0.891006529 0.140290812
v 0.707106948 0.707106769 0
v 0.847397804 0.453990519 -0.275336206
v 0.799056888 0.156434372 -0.580548823
v 0.25000006 0.95105654 0.181635678
v 0.559017122 0.809017003 0.181635663
v 0.809017181 0.587785244 0
v 0.90450877 0.309016973 -0.293892711
v 0.809017241 0 -0.587785423
v 0.091949895 0.987688363 0.12655817
v 0 1 0
v 0.672498703 0.707106769 0.21850805
v 0.891006768 0.453990519 0
v 0.939347684 0.156434372 -0.305212557
v 0.799056888 -0.156434372 -0.580548823
v 0.769421101 0.587785244 0.25000006
v 0.951056778 0.309016973 0
v 0.951056778 0 -0.309017062
v 0.76942116 -0.309016973 -0.559017181
v 0.847397804 0.453990519 0.275336206
v 0.987688601 0.156434372 0
v 0.939347684 -0.156434372 -0.305212557
v 0.72083962 -0.453990519 -0.523720622
v 0.90450877 0.309016973 0.293892711
v 1.00000024 0 0
v 0.90450877 -0.309016973 -0.293892711
v 0.65450871 -0.587785244 -0.475528389
v 0.939347684 0.156434372 0.305212557
v 0.987688601 -0.156434372 0
v 0.847397804 -0.453990519 -0.275336206
v 0.572061539 -0.707106769 -0.415627062
v 0.951056778 0 0.309017062
v 0.951056778 -0.309016973 0
v 0.769421101 -0.587785244 -0.25000006
v 0.475528389 -0.809017003 -0.345491588
v 0.939347684 -0.156434372 0.305212557
v 0.891006768 -0.453990519 0
v 0.672498703 -0.707106769 -0.21850805
v 0.367286146 -0.891006529 -0.266849011
v 0.90450877 -0.309016973 0.293892711
v 0.809017181 -0.587785244 0
v 0.559017122 -0.809017003 -0.181635663
v 0.250000089 -0.95105654 -0.181635693
v 0.847397804 -0.453990519 0.275336206
v 0.707106948 -0.707106769 0
v 0.431770772 -0.891006529 -0.140290812
v 0.126558185 -0.987688363 -0.0919499025
v 0 -1 0
v 0.293892711 -0.95105654 -0.0954915285
v 0.587785363 -0.809017003 0
v 0.769421101 -0.587785244 0.25000006
v 0.148778066 -0.987688363 -0.0483409241
v 0 -1 0
v 0.453990638 -0.891006529 0
v 0.672498703 -0.707106769 0.21850805
v 0.309017062 -0.95105654 0
v 0.559017122 -0.809017003 0.181635663
v 0.156434521 -0.987688363 0
v 0 -1 0
v 0.431770772 -0.891006529 0.140290812
v 0.293892711 -0.95105654 0.0954915285
v 0.148778066 -0.987688363 0.0483409241
v 0 -1 0
v 0.65450865 -0.587785244 0.475528359
v 0.572061539 -0.707106769 0.415627003
v 0.475528359 -0.809017003 0.345491558
v 0.367286116 -0.891006529 0.266848981
v 0.25000006 -0.95105654 0.181635678
v 0.72083962 -0.453990519 0.523720622
v 0.126558185 -0.987688363 0.091949895
v 0 -1 0
v 0.769421101 -0.309016973 0.559017122
v 0.799056828 -0.156434372 0.580548763
v 0.809017181 0 0.587785363
v 0.799056828 0.156434372 0.580548763
v 0.769421101 0.309016973 0.559017122
v 0.72083962 0.453990519 0.523720622
v 0.65450865 0.587785244 0.475528359
v 0.572061539 0.707106769 0.415627003
v 0.475528359 0.809017003 0.345491558
v 0.367286116 0.891006529 0.266848981
v 0.181635678 0.95105654 0.25000006
v 0.266848981 0.891006529 0.367286116
v 0.345491558 0.809017003 0.47552833
v 0.415627003 0.707106769 0.572061479
v 0.475528359 0.587785244 0.654508591
v 0.0483409241 0.987688363 0.148778051
v 0 1 0
v 0.0954915285 0.95105654 0.293892682
v 0.140290812 0.891006529 0.431770712
v 0.181635663 0.809017003 0.559017062
v 4.6621107e-09 0.987688363 0.156434491
v 0 1 0
v 9.20942433e-09 0.95105654 0.309017032
v 0.523720622 0.453990519 0.72083956
v 0.21850805 0.707106769 0.672498584
v 1.35299718e-08 0.891006529 0.453990579
v -0.0483409092 0.987688363 0.148778036
v 0 1 0
v -0.0954914987 0.95105654 0.293892652
v 1.75173653e-08 0.809017003 0.587785304
v 0.25000006 0.587785244 0.769420981
v 0.559017122 0.309016973 0.769421041
v -0.0919498801 0.987688363 0.126558155
v 0 1 0
v -0.140290782 0.891006529 0.431770682
v 2.10734239e-08 0.707106769 0.707106829
v 0.275336206 0.453990519 0.847397685
v 0.580548763 0.156434372 0.799056768
v -0.181635633 0.95105654 0.25000003
v -0.181635618 0.809017003 0.559017062
v 2.41105855e-08 0.587785244 0.809017122
v 0.293892711 0.309016973 0.90450865
v 0.587785363 0 0.809017122
v -0.126558155 0.987688363 0.0919498876
v 0 1 0
v -0.21850799 0.707106769 0.672498584
v 2.65540638e-08 0.453990519 0.891006649
v 0.305212557 0.156434372 0.939347565
v 0.580548763 -0.156434372 0.799056768
v -0.249999985 0.587785244 0.769420981
v 2.83436936e-08 0.309016973 0.951056659
v 0.309017062 0 0.951056659
v 0.559017122 -0.309016973 0.769421041
v -0.275336146 0.453990519 0.847397625
v 2.9435407e-08 0.156434372 0.987688482
v 0.305212557 -0.156434372 0.939347565
v 0.523720622 -0.453990519 0.72083956
v -0.293892622 0.309016973 0.904508591
v 2.98023224e-08 0 1.00000012
v 0.293892711 -0.309016973 0.90450865
v 0.475528359 -0.587785244 0.654508591
v -0.305212468 0.156434372 0.939347565
v 2.9435407e-08 -0.156434372 0.987688482
v 0.275336206 -0.453990519 0.847397685
v 0.415627003 -0.707106769 0.572061479
v -0.309016973 0 0.9510566
v 2.83436936e-08 -0.309016973 0.951056659
v 0.25000006 -0.587785244 0.769420981
v 0.345491558 -0.809017003 0.47552833
v -0.305212468 -0.156434372 0.939347565
v 2.65540638e-08 -0.453990519 0.891006649
v 0.21850805 -0.707106769 0.672498584
v 0.266848981 -0.891006529 0.367286116
v -0.293892622 -0.309016973 0.904508591
v 2.41105855e-08 -0.587785244 0.809017122
v 0.181635663 -0.809017003 0.559017062
v 0.181635678 -0.95105654 0.25000006
v -0.275336146 -0.453990519 0.847397625
v 2.10734239e-08 -0.707106769 0.707106829
v 0.140290812 -0.891006529 0.431770712
v 0.091949895 -0.987688363 0.12655817
v 0 -1 0
v 0.0954915285 -0.95105654 0.293892682
v 1.75173653e-08 -0.809017003 0.587785304
v -0.249999985 -0.587785244 0.769420981
v 0.0483409241 -0.987688363 0.148778051
v 0 -1 0
v 1.35299718e-08 -0.891006529 0.453990579
v -0.21850799 -0.707106769 0.672498584
v 9.20942433e-09 -0.95105654 0.309017032
v -0.181635618 -0.809017003 0.559017062
v 4.6621107e-09 -0.987688363 0.156434491
v 0 -1 0
v -0.140290782 -0.891006529 0.431770682
v -0.0954914987 -0.95105654 0.293892652
v -0.0483409092 -0.987688363 0.148778036
v 0 -1 0
v -0.47552827 -0.587785244 0.654508531
v -0.415626913 -0.707106769 0.572061419
v -0.345491499 -0.809017003 0.4755283
v -0.266848922 -0.891006529 0.367286086
v -0.181635633 -0.95105654 0.25000003
v -0.523720503 -0.453990519 0.7208395
v -0.0919498801 -0.987688363 0.126558155
v 0 -1 0
v -0.559017003 -0.309016973 0.769420981
v -0.580548644 -0.156434372 0.799056709
v -0.587785244 0 0.809017062
v -0.580548644 0.156434372 0.799056709
v -0.559017003 0.309016973 0.769420981
v -0.523720503 0.453990519 0.7208395
v -0.47552827 0.587785244 0.654508531
v -0.415626913 0.707106769 0.572061419
v -0.345491499 0.809017003 0.4755283
v -0.266848922 0.891006529 0.367286086
v -0.25 0.95105654 0.181635648
v -0.367286056 0.891006529 0.266848952
v -0.47552827 0.809017003 0.345491529
v -0.572061419 0.707106769 0.415626973
v -0.654508531 0.587785244 0.4755283
v -0.148778036 0.987688363 0.0483409129
v 0 1 0
v -0.293892652 0.95105654 0.0954915062
v -0.431770653 0.891006529 0.140290797
v -0.559017003 0.809017003 0.181635633
v -0.156434476 0.987688363 0
v 0 1 0
v -0.309017003 0.95105654 0
v -0.148778126 0.987688363 -0.0483409427
v 0 1 0
v -0.293892831 0.95105654 -0.0954915658
v -0.453990519 0.891006529 0
v -0.431770921 0.891006529 -0.140290871
v -0.587785244 0.809017003 0
v -0.55901736 0.809017003 -0.181635737
v -0.672498524 0.707106769 0.21850802
v -0.707106769 0.707106769 0
v -0.672498941 0.707106769 -0.218508139
v -0.769420922 0.587785244 0.25
v -0.809017003 0.587785244 0
v -0.769421399 0.587785244 -0.250000149
v -0.720839441 0.453990519 0.523720562
v -0.847397566 0.453990519 0.275336176
v -0.891006529 0.453990519 0
v -0.847398102 0.453990519 -0.275336325
v -0.769420922 0.309016973 0.559017062
v -0.904508531 0.309016973 0.293892652
v -0.95105654 0.309016973 0
v -0.904509127 0.309016973 -0.293892801
v -0.799056649 0.156434372 0.580548704
v -0.939347506 0.156434372 0.305212498
v -0.987688363 0.156434372 0
v -0.939348042 0.156434372 -0.305212677
v -0.809017003 0 0.587785304
v -0.95105654 0 0.309017003
v -1 0 0
v -0.951057136 0 -0.309017181
v -0.799056649 -0.156434372 0.580548704
v -0.939347506 -0.156434372 0.305212498
v -0.987688363 -0.156434372 0
v -0.939348042 -0.156434372 -0.305212677
v -0.769420922 -0.309016973 0.559017062
v -0.904508531 -0.309016973 0.293892652
v -0.95105654 -0.309016973 0
v -0.904509127 -0.309016973 -0.293892801
v -0.720839441 -0.453990519 0.523720562
v -0.847397566 -0.453990519 0.275336176
v -0.891006529 -0.453990519 0
v -0.847398102 -0.453990519 -0.275336325
v -0.654508531 -0.587785244 0.4755283
v -0.769420922 -0.587785244 0.25
v -0.809017003 -0.587785244 0
v -0.769421399 -0.587785244 -0.250000149
v -0.572061419 -0.707106769 0.415626973
v -0.672498524 -0.707106769 0.21850802
v -0.707106769 -0.707106769 0
v -0.672498941 -0.707106769 -0.218508139
v -0.47552827 -0.809017003 0.345491529
v -0.559017003 -0.809017003 0.181635633
v -0.587785244 -0.809017003 0
v -0.55901736 -0.809017003 -0.181635737
v -0.367286056 -0.891006529 0.266848952
v -0.431770653 -0.891006529 0.140290797
v -0.453990519 -0.891006529 0
v -0.431770921 -0.891006529 -0.140290871
v -0.25 -0.95105654 0.181635648
v -0.293892652 -0.95105654 0.0954915062
v -0.309017003 -0.95105654 0
v -0.293892831 -0.95105654 -0.0954915658
v -0.126558155 -0.987688363 0.0919498876
v 0 -1 0
v -0.148778036 -0.987688363 0.0483409129
v 0 -1 0
v -0.156434476 -0.987688363 0
v 0 -1 0
v -0.148778126 -0.987688363 -0.0483409427
v 0 -1 0
vt 0.0500000007 0.0500000007
vt 0.0250000004 0
vt 0 0.0500000007
vt 0.0500000007 0.100000001
vt 0 0.100000001
vt 0.0500000007 0.150000006
vt 0 0.150000006
vt 0.0500000007 0.200000003
vt 0 0.200000003
vt 0.0500000007 0.25
vt 0 0.25
vt 0.0500000007 0.300000012
vt 0 0.300000012
vt 0.0500000007 0.350000024
vt 0 0.350000024
vt 0.0500000007 0.400000036
vt 0 0.400000036
vt 0.0500000007 0.450000048
vt 0 0.450000048
vt 0.0500000007 0.50000006
vt 0 0.50000006
vt 0.0500000007 0.550000072
vt 0 0.550000072
vt 0.0500000007 0.600000083
vt 0 0.600000083
vt 0.0500000007 0.650000095
vt 0 0.650000095
vt 0.0500000007 0.700000107
vt 0 0.700000107
vt 0.0500000007 0.750000119
vt 0 0.750000119
vt 0.0500000007 0.800000131
vt 0 0.800000131
vt 0.0500000007 0.850000143
vt 0 0.850000143
vt 0.0500000007 0.900000155
vt 0 0.900000155
vt 0.0500000007 0.950000167
vt 0 0.950000167
vt 0.0250000004 1
vt 0.100000001 0.950000167
vt 0.075000003 1
vt 0.100000001 0.900000155
vt 0.100000001 0.850000143
vt 0.100000001 0.800000131
vt 0.150000006 0.950000167
vt 0.125 1
vt 0.150000006 0.900000155
vt 0.100000001 0.750000119
vt 0.150000006 0.850000143
vt 0.200000003 0.950000167
vt 0.175000012 1
vt 0.200000003 0.900000155
vt 0.150000006 0.800000131
vt 0.100000001 0.700000107
vt 0.25 0.950000167
vt 0.225000009 1
vt 0.200000003 0.850000143
vt 0.150000006 0.750000119
vt 0.100000001 0.650000095
vt 0.25 0.900000155
vt 0.200000003 0.800000131
vt 0.150000006 0.700000107
vt 0.100000001 0.600000083
vt 0.300000012 0.950000167
vt 0.275000006 1
vt 0.25 0.850000143
vt 0.200000003 0.750000119
vt 0.150000006 0.650000095
vt 0.100000001 0.550000072
vt 0.300000012 0.900000155
vt 0.25 0.800000131
vt 0.200000003 0.700000107
vt 0.150000006 0.600000083
vt 0.100000001 0.50000006
vt 0.350000024 0.950000167
vt 0.325000018 1
vt 0.25 0.750000119
vt 0.200000003 0.650000095
vt 0.150000006 0.550000072
vt 0.100000001 0.450000048
vt 0.25 0.700000107
vt 0.200000003 0.600000083
vt 0.150000006 0.50000006
vt 0.100000001 0.400000036
vt 0.25 0.650000095
vt 0.200000003 0.550000072
vt 0.150000006 0.450000048
vt 0.100000001 0.350000024
vt 0.25 0.600000083
vt 0.200000003 0.50000006
vt 0.150000006 0.400000036
vt 0.100000001 0.300000012
vt 0.25 0.550000072
vt 0.200000003 0.450000048
vt 0.150000006 0.350000024
vt 0.100000001 0.25
vt 0.25 0.50000006
vt 0.200000003 0.400000036
vt 0.150000006 0.300000012
vt 0.100000001 0.200000003
vt 0.25 0.450000048
vt 0.200000003 0.350000024
vt 0.150000006 0.25
vt 0.100000001 0.150000006
vt 0.25 0.400000036
vt 0.200000003 0.300000012
vt 0.150000006 0.200000003
vt 0.100000001 0.100000001
vt 0.25 0.350000024
vt 0.200000003 0.25
vt 0.150000006 0.150000006
vt 0.100000001 0.0500000007
vt 0.075000003 0
vt 0.150000006 0.100000001
vt 0.200000003 0.200000003
vt 0.25 0.300000012
vt 0.150000006 0.0500000007
vt 0.125 0
vt 0.200000003 0.150000006
vt 0.25 0.25
vt 0.200000003 0.100000001
vt 0.25 0.200000003
vt 0.200000003 0.0500000007
vt 0.175000012 0
vt 0.25 0.150000006
vt 0.25 0.100000001
vt 0.25 0.0500000007
vt 0.225000009 0
vt 0.300000012 0.300000012
vt 0.300000012 0.25
vt 0.300000012 0.200000003
vt 0.300000012 0.150000006
vt 0.300000012 0.100000001
vt 0.300000012 0.350000024
vt 0.300000012 0.0500000007
vt 0.275000006 0
vt 0.300000012 0.400000036
vt 0.300000012 0.450000048
vt 0.300000012 0.50000006
vt 0.300000012 0.550000072
vt 0.300000012 0.600000083
vt 0.300000012 0.650000095
vt 0.300000012 0.700000107
vt 0.300000012 0.750000119
vt 0.300000012 0.800000131
vt 0.300000012 0.850000143
vt 0.350000024 0.900000155
vt 0.350000024 0.850000143
vt 0.350000024 0.800000131
vt 0.350000024 0.750000119
vt 0.350000024 0.700000107
vt 0.400000036 0.950000167
vt 0.375 1
vt 0.400000036 0.900000155
vt 0.400000036 0.850000143
vt 0.400000036 0.800000131
vt 0.450000048 0.950000167
vt 0.425000012 1
vt 0.450000048 0.900000155
vt 0.350000024 0.650000095
vt 0.400000036 0.750000119
vt 0.450000048 0.850000143
vt 0.50000006 0.950000167
vt 0.475000024 1
vt 0.50000006 0.900000155
vt 0.450000048 0.800000131
vt 0.400000036 0.700000107
vt 0.350000024 0.600000083
vt 0.550000072 0.950000167
vt 0.524999976 1
vt 0.50000006 0.850000143
vt 0.450000048 0.750000119
vt 0.400000036 0.650000095
vt 0.350000024 0.550000072
vt 0.550000072 0.900000155
vt 0.50000006 0.800000131
vt 0.450000048 0.700000107
vt 0.400000036 0.600000083
vt 0.350000024 0.50000006
vt 0.600000083 0.950000167
vt 0.574999988 1
vt 0.50000006 0.750000119
vt 0.450000048 0.650000095
vt 0.400000036 0.550000072
vt 0.350000024 0.450000048
vt 0.50000006 0.700000107
vt 0.450000048 0.600000083
vt 0.400000036 0.50000006
vt 0.350000024 0.400000036
vt 0.50000006 0.650000095
vt 0.450000048 0.550000072
vt 0.400000036 0.450000048
vt 0.350000024 0.350000024
vt 0.50000006 0.600000083
vt 0.450000048 0.50000006
vt 0.400000036 0.400000036
vt 0.350000024 0.300000012
vt 0.50000006 0.550000072
vt 0.450000048 0.450000048
vt 0.400000036 0.350000024
vt 0.350000024 0.25
vt 0.50000006 0.50000006
vt 0.450000048 0.400000036
vt 0.400000036 0.300000012
vt 0.350000024 0.200000003
vt 0.50000006 0.450000048
vt 0.450000048 0.350000024
vt 0.400000036 0.25
vt 0.350000024 0.150000006
vt 0.50000006 0.400000036
vt 0.450000048 0.300000012
vt 0.400000036 0.200000003
vt 0.350000024 0.100000001
vt 0.50000006 0.350000024
vt 0.450000048 0.25
vt 0.400000036 0.150000006
vt 0.350000024 0.0500000007
vt 0.325000018 0
vt 0.400000036 0.100000001
vt 0.450000048 0.200000003
vt 0.50000006 0.300000012
vt 0.400000036 0.0500000007
vt 0.375 0
vt 0.450000048 0.150000006
vt 0.50000006 0.25
vt 0.450000048 0.100000001
vt 0.50000006 0.200000003
vt 0.450000048 0.0500000007
vt 0.425000012 0
vt 0.50000006 0.150000006
vt 0.50000006 0.100000001
vt 0.50000006 0.0500000007
vt 0.475000024 0
vt 0.550000072 0.300000012
vt 0.550000072 0.25
vt 0.550000072 0.200000003
vt 0.550000072 0.150000006
vt 0.550000072 0.100000001
vt 0.550000072 0.350000024
vt 0.550000072 0.0500000007
vt 0.524999976 0
vt 0.550000072 0.400000036
vt 0.550000072 0.450000048
vt 0.550000072 0.50000006
vt 0.550000072 0.550000072
vt 0.550000072 0.600000083
vt 0.550000072 0.650000095
vt 0.550000072 0.700000107
vt 0.550000072 0.750000119
vt 0.550000072 0.800000131
vt 0.550000072 0.850000143
vt 0.600000083 0.900000155
vt 0.600000083 0.850000143
vt 0.600000083 0.800000131
vt 0.600000083 0.750000119
vt 0.600000083 0.700000107
vt 0.650000095 0.950000167
vt 0.625 1
vt 0.650000095 0.900000155
vt 0.650000095 0.850000143
vt 0.650000095 0.800000131
vt 0.700000107 0.950000167
vt 0.675000012 1
vt 0.700000107 0.900000155
vt 0.600000083 0.650000095
vt 0.650000095 0.750000119
vt 0.700000107 0.850000143
vt 0.750000119 0.950000167
vt 0.724999964 1
vt 0.750000119 0.900000155
vt 0.700000107 0.800000131
vt 0.650000095 0.700000107
vt 0.600000083 0.600000083
vt 0.800000131 0.950000167
vt 0.774999976 1
vt 0.750000119 0.850000143
vt 0.700000107 0.750000119
vt 0.650000095 0.650000095
vt 0.600000083 0.550000072
vt 0.800000131 0.900000155
vt 0.750000119 0.800000131
vt 0.700000107 0.700000107
vt 0.650000095 0.600000083
vt 0.600000083 0.50000006
vt 0.850000143 0.950000167
vt 0.824999988 1
vt 0.750000119 0.750000119
vt 0.700000107 0.650000095
vt 0.650000095 0.550000072
vt 0.600000083 0.450000048
vt 0.750000119 0.700000107
vt 0.700000107 0.600000083
vt 0.650000095 0.50000006
vt 0.600000083 0.400000036
vt 0.750000119 0.650000095
vt 0.700000107 0.550000072
vt 0.650000095 0.450000048
vt 0.600000083 0.350000024
vt 0.750000119 0.600000083
vt 0.700000107 0.50000006
vt 0.650000095 0.400000036
vt 0.600000083 0.300000012
vt 0.750000119 0.550000072
vt 0.700000107 0.450000048
vt 0.650000095 0.350000024
vt 0.600000083 0.25
vt 0.750000119 0.50000006
vt 0.700000107 0.400000036
vt 0.650000095 0.300000012
vt 0.600000083 0.200000003
vt 0.750000119 0.450000048
vt 0.700000107 0.350000024
vt 0.650000095 0.25
vt 0.600000083 0.150000006
vt 0.750000119 0.400000036
vt 0.700000107 0.300000012
vt 0.650000095 0.200000003
vt 0.600000083 0.100000001
vt 0.750000119 0.350000024
vt 0.700000107 0.25
vt 0.650000095 0.150000006
vt 0.600000083 0.0500000007
vt 0.574999988 0
vt 0.650000095 0.100000001
vt 0.700000107 0.200000003
vt 0.750000119 0.300000012
vt 0.650000095 0.0500000007
vt 0.625 0
vt 0.700000107 0.150000006
vt 0.750000119 0.25
vt 0.700000107 0.100000001
vt 0.750000119 0.200000003
vt 0.700000107 0.0500000007
vt 0.675000012 0
vt 0.750000119 0.150000006
vt 0.750000119 0.100000001
vt 0.750000119 0.0500000007
vt 0.724999964 0
vt 0.800000131 0.300000012
vt 0.800000131 0.25
vt 0.800000131 0.200000003
vt 0.800000131 0.150000006
vt 0.800000131 0.100000001
vt 0.800000131 0.350000024
vt 0.800000131 0.0500000007
vt 0.774999976 0
vt 0.800000131 0.400000036
vt 0.800000131 0.450000048
vt 0.800000131 0.50000006
vt 0.800000131 0.550000072
vt 0.800000131 0.600000083
vt 0.800000131 0.650000095
vt 0.800000131 0.700000107
vt 0.800000131 0.750000119
vt 0.800000131 0.800000131
vt 0.800000131 0.850000143
vt 0.850000143 0.900000155
vt 0.850000143 0.850000143
vt 0.850000143 0.800000131
vt 0.850000143 0.750000119
vt 0.850000143 0.700000107
vt 0.900000155 0.950000167
vt 0.875 1
vt 0.900000155 0.900000155
vt 0.900000155 0.850000143
vt 0.900000155 0.800000131
vt 0.950000167 0.950000167
vt 0.925000012 1
vt 0.950000167 0.900000155
vt 1.00000012 0.950000167
vt 0.974999964 1
vt 1.00000012 0.900000155
vt 0.950000167 0.850000143
vt 1.00000012 0.850000143
vt 0.950000167 0.800000131
vt 1.00000012 0.800000131
vt 0.900000155 0.750000119
vt 0.950000167 0.750000119
vt 1.00000012 0.750000119
vt 0.900000155 0.700000107
vt 0.950000167 0.700000107
vt 1.00000012 0.700000107
vt 0.850000143 0.650000095
vt 0.900000155 0.650000095
vt 0.950000167 0.650000095
vt 1.00000012 0.650000095
vt 0.850000143 0.600000083
vt 0.900000155 0.600000083
vt 0.950000167 0.600000083
vt 1.00000012 0.600000083
vt 0.850000143 0.550000072
vt 0.900000155 0.550000072
vt 0.950000167 0.550000072
vt 1.00000012 0.550000072
vt 0.850000143 0.50000006
vt 0.900000155 0.50000006
vt 0.950000167 0.50000006
vt 1.00000012 0.50000006
vt 0.850000143 0.450000048
vt 0.900000155 0.450000048
vt 0.950000167 0.450000048
vt 1.00000012 0.450000048
vt 0.850000143 0.400000036
vt 0.900000155 0.400000036
vt 0.950000167 0.400000036
vt 1.00000012 0.400000036
vt 0.850000143 0.350000024
vt 0.900000155 0.350000024
vt 0.950000167 0.350000024
vt 1.00000012 0.350000024
vt 0.850000143 0.300000012
vt 0.900000155 0.300000012
vt 0.950000167 0.300000012
vt 1.00000012 0.300000012
vt 0.850000143 0.25
vt 0.900000155 0.25
vt 0.950000167 0.25
vt 1.00000012 0.25
vt 0.850000143 0.200000003
vt 0.900000155 0.200000003
vt 0.950000167 0.200000003
vt 1.00000012 0.200000003
vt 0.850000143 0.150000006
vt 0.900000155 0.150000006
vt 0.950000167 0.150000006
vt 1.00000012 0.150000006
vt 0.850000143 0.100000001
vt 0.900000155 0.100000001
vt 0.950000167 0.100000001
vt 1.00000012 0.100000001
vt 0.850000143 0.0500000007
vt 0.824999988 0
vt 0.900000155 0.0500000007
vt 0.875 0
vt 0.950000167 0.0500000007
vt 0.925000012 0
vt 1.00000012 0.0500000007
vt 0.974999964 0
vn -0.162095517 -0.979722083 -0.117769495
vn 0 -1 0
vn -0.190554827 -0.979722083 -0.0619152486
vn -0.269870281 -0.942722499 -0.196072266
vn -0.317251682 -0.942722499 -0.103081062
vn -0.380846053 -0.882265687 -0.276700974
vn -0.447711557 -0.882265806 -0.145469978
vn -0.485138208 -0.800251901 -0.352473736
vn -0.570314407 -0.800251901 -0.18530573
vn -0.578712523 -0.698788702 -0.420459419
vn -0.680317819 -0.698788702 -0.221047819
vn -0.658807576 -0.580400825 -0.478651792
vn -0.774475098 -0.580400646 -0.251641303
vn -0.72329092 -0.447993606 -0.525501668
vn -0.850279689 -0.447993606 -0.276271671
vn -0.770523965 -0.304788619 -0.559818566
vn -0.905805647 -0.304788619 -0.294313103
vn -0.799334645 -0.15424858 -0.580750644
vn -0.939674616 -0.154248685 -0.305317789
vn -0.809017003 0 -0.587785244
vn -0.951056778 0 -0.309016049
vn -0.799334645 0.154248551 -0.580750644
vn -0.939674616 0.15424867 -0.305317789
vn -0.770523906 0.304788649 -0.559818566
vn -0.905805528 0.304788619 -0.294313073
vn -0.723290861 0.447993755 -0.525501668
vn -0.850279689 0.447993606 -0.276271671
vn -0.658807516 0.580400825 -0.478651732
vn -0.774475038 0.580400705 -0.251641303
vn -0.578712463 0.698788762 -0.420459509
vn -0.68031776 0.698788702 -0.221047848
vn -0.485138148 0.800251901 -0.352473885
vn -0.570314467 0.800251901 -0.185305819
vn -0.380846083 0.882265687 -0.276701182
vn -0.447711498 0.882265806 -0.145469964
vn -0.269870251 0.94272244 -0.196072519
vn -0.317251652 0.942722499 -0.103081048
vn -0.162095517 0.979722083 -0.1177691
vn -0.190554842 0.979722083 -0.0619148277
vn 0 1 0
vn -0.117769286 0.979722083 -0.162095517
vn 0 1 0
vn -0.196072176 0.94272244 -0.269870609
vn -0.276700824 0.882265627 -0.380846381
vn -0.352473497 0.800251901 -0.485138506
vn -0.0619149804 0.979722083 -0.190554887
vn 0 1 0
vn -0.103081226 0.942722499 -0.317251474
vn -0.42045927 0.698788643 -0.578712761
vn -0.145470157 0.882265687 -0.447711498
vn 0 0.979722083 -0.200361177
vn 0 1 0
vn 0 0.942722619 -0.333577752
vn -0.185306296 0.800251901 -0.570314288
vn -0.478651613 0.580400765 -0.658807695
vn 0.06191504 0.979722083 -0.190554842
vn 0 1 0
vn 0 0.882265806 -0.470751613
vn -0.221048549 0.698788524 -0.6803177
vn -0.52550143 0.447993726 -0.723291039
vn 0.103081346 0.942722499 -0.317251384
vn 0 0.800251901 -0.599663913
vn -0.251641959 0.580400646 -0.774474919
vn -0.559818268 0.304788679 -0.770524085
vn 0.117769375 0.979722083 -0.162095457
vn 0 1 0
vn 0.145470381 0.882265806 -0.447711349
vn 0 0.698788524 -0.715328336
vn -0.276272357 0.447993726 -0.85027945
vn -0.580750525 0.1542487 -0.799334884
vn 0.196072355 0.942722499 -0.269870311
vn 0.185306504 0.800251842 -0.570314348
vn 0 0.580400705 -0.814330935
vn -0.294313788 0.304788679 -0.90580523
vn -0.587785125 0 -0.809017122
vn 0.162095577 0.979722083 -0.117768869
vn 0 1 0
vn 0.221048728 0.698788524 -0.68031764
vn 0 0.447993815 -0.89403671
vn -0.305318505 0.1542487 -0.939674437
vn -0.580750525 -0.154248714 -0.799334884
vn 0.251642257 0.580400765 -0.77447474
vn 0 0.304788709 -0.952420056
vn -0.309016705 0 -0.95105654
vn -0.559818268 -0.304788649 -0.770524085
vn 0.276272625 0.447993785 -0.850279272
vn 0 0.154248625 -0.988031983
vn -0.305318505 -0.154248714 -0.939674437
vn -0.52550143 -0.447993636 -0.723291039
vn 0.294314146 0.304788649 -0.905805171
vn 0 0 -1
vn -0.294313788 -0.304788679 -0.90580523
vn -0.478651673 -0.580400765 -0.658807755
vn 0.305318922 0.15424867 -0.939674318
vn 0 -0.15424861 -0.988031983
vn -0.276272327 -0.447993785 -0.85027945
vn -0.42045927 -0.698788643 -0.578712821
vn 0.309017241 0 -0.95105648
vn 0 -0.304788679 -0.952420056
vn -0.251641989 -0.580400646 -0.774474919
vn -0.352473468 -0.800251901 -0.485138386
vn 0.305318922 -0.15424867 -0.939674318
vn 0 -0.447993815 -0.89403671
vn -0.221048549 -0.698788583 -0.6803177
vn -0.276700824 -0.882265806 -0.380846083
vn 0.294314146 -0.304788619 -0.90580523
vn 0 -0.580400705 -0.814331055
vn -0.185306281 -0.800251901 -0.570314288
vn -0.196072176 -0.942722499 -0.269870162
vn 0.276272714 -0.447993815 -0.850279391
vn 0 -0.698788524 -0.715328336
vn -0.145470187 -0.882265806 -0.447711408
vn -0.117769301 -0.979722083 -0.162095234
vn 0 -1 0
vn -0.103081226 -0.942722619 -0.317251265
vn 0 -0.800251842 -0.599664092
vn 0.251642287 -0.580400765 -0.77447474
vn -0.0619149804 -0.979722083 -0.190554634
vn 0 -1 0
vn 0 -0.882265687 -0.470751643
vn 0.221048743 -0.698788524 -0.680317581
vn 0 -0.942722499 -0.333577901
vn 0.185306519 -0.800251842 -0.570314348
vn 0 -0.979722083 -0.200361267
vn 0 -1 0
vn 0.145470366 -0.882265687 -0.447711438
vn 0.103081353 -0.94272244 -0.317251623
vn 0.0619150326 -0.979722083 -0.190554976
vn 0 -1 0
vn 0.478651971 -0.580400705 -0.658807516
vn 0.420459509 -0.698788524 -0.578712642
vn 0.352473766 -0.800251842 -0.485138327
vn 0.276701063 -0.882265687 -0.380846173
vn 0.19607234 -0.94272244 -0.26987052
vn 0.525501788 -0.447993755 -0.723290741
vn 0.11776939 -0.979722023 -0.162095964
vn 0 -1 0
vn 0.559818625 -0.304788679 -0.770523787
vn 0.580750942 -0.15424861 -0.799334526
vn 0.587785423 0 -0.809016824
vn 0.580750942 0.15424861 -0.799334526
vn 0.559818685 0.304788649 -0.770523906
vn 0.525501788 0.447993726 -0.723290741
vn 0.478651971 0.580400705 -0.658807516
vn 0.420459509 0.698788524 -0.578712642
vn 0.352473795 0.800251842 -0.485138357
vn 0.276701003 0.882265687 -0.380845994
vn 0.2698704 0.942722499 -0.196072042
vn 0.380846202 0.882265687 -0.276700824
vn 0.485138416 0.800251842 -0.352473617
vn 0.578712761 0.698788643 -0.42045933
vn 0.658807755 0.580400646 -0.478651702
vn 0.190554783 0.979722083 -0.0619150884
vn 0 1 0
vn 0.317251682 0.94272244 -0.103081338
vn 0.447711587 0.882265687 -0.145470306
vn 0.570314348 0.800251901 -0.185306355
vn 0.200361177 0.979722083 0
vn 0 1 0
vn 0.333578169 0.94272244 0
vn 0.723291039 0.447993696 -0.52550143
vn 0.6803177 0.698788643 -0.221048594
vn 0.470751941 0.882265627 0
vn 0.190554827 0.979722083 0.0619153753
vn 0 1 0
vn 0.317251652 0.94272244 0.103081591
vn 0.599664032 0.800251842 0
vn 0.774474919 0.580400705 -0.251642078
vn 0.770524085 0.304788589 -0.559818268
vn 0.162095651 0.979722083 0.117769398
vn 0 1 0
vn 0.447711617 0.882265627 0.145470574
vn 0.715328395 0.698788524 0
vn 0.85027945 0.447993726 -0.276272506
vn 0.799334824 0.154248565 -0.580750525
vn 0.269870341 0.942722499 0.196072161
vn 0.570314407 0.800251842 0.185306489
vn 0.814331055 0.580400646 0
vn 0.90580523 0.304788589 -0.294313908
vn 0.809017062 0 -0.587785184
vn 0.117769346 0.979722083 0.162095815
vn 0 1 0
vn 0.68031764 0.698788524 0.221048549
vn 0.89403671 0.447993755 0
vn 0.939674437 0.154248461 -0.305318624
vn 0.799334824 -0.154248551 -0.580750585
vn 0.774474859 0.580400705 0.251642108
vn 0.952420056 0.304788679 0
vn 0.95105654 0 -0.309016973
vn 0.770524085 -0.304788649 -0.559818327
vn 0.85027945 0.447993785 0.276272506
vn 0.988032103 0.154248297 0
vn 0.939674437 -0.154248476 -0.305318654
vn 0.72329098 -0.447993696 -0.52550143
vn 0.90580523 0.304788589 0.294313967
vn 1 0 0
vn 0.90580523 -0.304788589 -0.294313908
vn 0.658807814 -0.580400586 -0.478651673
vn 0.939674437 0.154248297 0.305318773
vn 0.988032103 -0.154248297 0
vn 0.85027945 -0.447993726 -0.276272476
vn 0.578712761 -0.698788524 -0.420459449
vn 0.95105654 0 0.309017092
vn 0.952420056 -0.304788768 0
vn 0.774474919 -0.580400586 -0.251642078
vn 0.485138416 -0.800251842 -0.352473766
vn 0.939674437 -0.154248312 0.305318773
vn 0.894036651 -0.447993815 0
vn 0.6803177 -0.698788464 -0.221048594
vn 0.380846173 -0.882265687 -0.276700914
vn 0.90580523 -0.304788738 0.294314027
vn 0.814331055 -0.580400646 0
vn 0.570314407 -0.800251901 -0.185306385
vn 0.2698704 -0.94272244 -0.196072251
vn 0.850279391 -0.447993845 0.276272506
vn 0.715328395 -0.698788464 0
vn 0.447711587 -0.882265687 -0.145470202
vn 0.162095621 -0.979722083 -0.117769599
vn 0 -1 0
vn 0.317251682 -0.94272244 -0.10308145
vn 0.599664032 -0.800251842 0
vn 0.774474859 -0.580400705 0.251642108
vn 0.190554813 -0.979722083 -0.0619153604
vn 0 -1 0
vn 0.470751941 -0.882265627 0
vn 0.6803177 -0.698788643 0.221048594
vn 0.333578199 -0.94272244 0
vn 0.570314407 -0.800251842 0.185306445
vn 0.200361177 -0.979722083 0
vn 0 -1 0
vn 0.447711676 -0.882265627 0.145470351
vn 0.317251682 -0.94272244 0.103081353
vn 0.190554813 -0.979722083 0.0619153678
vn 0 -1 0
vn 0.658807576 -0.580400705 0.478651792
vn 0.578712761 -0.698788464 0.420459539
vn 0.485138327 -0.800251782 0.352473855
vn 0.380846232 -0.882265627 0.276701003
vn 0.2698704 -0.942722499 0.196072072
vn 0.723290861 -0.447993785 0.525501668
vn 0.162095606 -0.979722083 0.117769167
vn 0 -1 0
vn 0.770523965 -0.304788381 0.559818506
vn 0.799334645 -0.154248416 0.580750763
vn 0.809016883 0 0.587785363
vn 0.799334645 0.154248416 0.580750704
vn 0.770523965 0.30478844 0.559818506
vn 0.723290861 0.447993755 0.525501668
vn 0.658807576 0.580400646 0.478651881
vn 0.578712761 0.698788464 0.420459539
vn 0.485138327 0.800251842 0.352473766
vn 0.380846202 0.882265687 0.276701003
vn 0.19607231 0.942722499 0.269870341
vn 0.276700914 0.882265687 0.380846143
vn 0.352473646 0.800251842 0.485138416
vn 0.42045939 0.698788464 0.578712881
vn 0.478651732 0.580400705 0.658807755
vn 0.0619150028 0.979722083 0.190554693
vn 0 1 0
vn 0.103081279 0.94272244 0.317251891
vn 0.145470291 0.882265627 0.447711766
vn 0.185306311 0.800251901 0.570314407
vn 0 0.979722202 0.200360745
vn 0 1 0
vn 0 0.94272244 0.333578169
vn 0.525501549 0.447993696 0.72329098
vn 0.221048519 0.698788464 0.680317819
vn 0 0.882265508 0.47075209
vn -0.0619150586 0.979722083 0.190554738
vn 0 1 0
vn -0.103081375 0.94272244 0.317251623
vn 0 0.800251782 0.599664092
vn 0.251642168 0.580400586 0.774474978
vn 0.559818327 0.304788381 0.770524085
vn -0.11776939 0.979722083 0.162095547
vn 0 1 0
vn -0.145470381 0.882265627 0.447711736
vn 0 0.698788464 0.715328395
vn 0.276272535 0.447993577 0.85027945
vn 0.580750644 0.154248565 0.799334764
vn -0.19607231 0.94272244 0.2698704
vn -0.18530634 0.800251782 0.570314527
vn 0 0.580400705 0.814331055
vn 0.294313908 0.30478856 0.905805349
vn 0.587785184 0 0.809017062
vn -0.162095666 0.979722083 0.117768958
vn 0 1 0
vn -0.221048698 0.698788524 0.68031764
vn 0 0.447993606 0.894036829
vn 0.305318594 0.154248655 0.939674437
vn 0.580750585 -0.15424861 0.799334824
vn -0.251642287 0.580400646 0.77447474
vn 0 0.304788589 0.952420056
vn 0.309016854 0 0.95105654
vn 0.559818387 -0.304788411 0.770524085
vn -0.276272625 0.447993577 0.85027945
vn 0 0.154248625 0.988031983
vn 0.305318594 -0.1542487 0.939674437
vn 0.525501549 -0.447993636 0.72329098
vn -0.294314057 0.304788619 0.90580523
vn 0 0 1
vn 0.294313908 -0.30478856 0.905805349
vn 0.478651702 -0.580400646 0.658807755
vn -0.305318773 0.15424864 0.939674318
vn 0 -0.154248625 0.988031983
vn 0.276272535 -0.447993636 0.85027957
vn 0.42045939 -0.698788464 0.578712881
vn -0.309017032 0 0.95105654
vn 0 -0.304788589 0.952420056
vn 0.251642138 -0.580400586 0.774474978
vn 0.352473676 -0.800251782 0.485138506
vn -0.305318743 -0.15424861 0.939674318
vn 0 -0.447993606 0.894036829
vn 0.221048564 -0.698788464 0.680317819
vn 0.276700914 -0.882265627 0.380846262
vn -0.294314086 -0.304788619 0.90580523
vn 0 -0.580400527 0.814331114
vn 0.185306296 -0.800251842 0.570314467
vn 0.19607231 -0.94272244 0.269870371
vn -0.276272625 -0.447993547 0.85027945
vn 0 -0.698788524 0.715328395
vn 0.145470276 -0.882265627 0.447711736
vn 0.117769346 -0.979722083 0.162095472
vn 0 -1 0
vn 0.103081279 -0.94272244 0.317251682
vn 0 -0.800251782 0.599664092
vn -0.251642287 -0.580400586 0.774474919
vn 0.0619149953 -0.979722083 0.190554649
vn 0 -1 0
vn 0 -0.882265627 0.470752001
vn -0.221048698 -0.698788524 0.68031764
vn 0 -0.94272244 0.333578199
vn -0.18530637 -0.800251782 0.570314467
vn 0 -0.979722202 0.200360805
vn 0 -1 0
vn -0.145470351 -0.882265627 0.447711617
vn -0.10308136 -0.94272244 0.317251652
vn -0.0619150586 -0.979722083 0.190554589
vn 0 -1 0
vn -0.478651941 -0.580400586 0.658807695
vn -0.420459569 -0.698788345 0.578712821
vn -0.352473795 -0.800251722 0.485138625
vn -0.276700974 -0.882265627 0.380846232
vn -0.196072295 -0.94272244 0.26987046
vn -0.525501549 -0.447993547 0.72329098
vn -0.11776939 -0.979722083 0.162095621
vn 0 -1 0
vn -0.559818447 -0.304788589 0.770523965
vn -0.580750644 -0.154248551 0.799334764
vn -0.587785244 0 0.809017003
vn -0.580750644 0.154248595 0.799334645
vn -0.559818387 0.304788589 0.770523965
vn -0.525501549 0.447993606 0.723291039
vn -0.478651851 0.580400646 0.658807695
vn -0.420459479 0.698788404 0.578712881
vn -0.352473795 0.800251722 0.485138565
vn -0.276700974 0.882265627 0.380846232
vn -0.26987043 0.94272244 0.1960724
vn -0.380846262 0.882265627 0.276701093
vn -0.485138565 0.800251722 0.352473766
vn -0.578712821 0.698788464 0.420459539
vn -0.658807695 0.580400646 0.478651762
vn -0.190554872 0.979722083 0.061915148
vn 0 1 0
vn -0.317251772 0.94272244 0.103081398
vn -0.447711617 0.882265627 0.145470351
vn -0.570314467 0.800251842 0.185306475
vn -0.200361162 0.979722083 0
vn 0 1 0
vn -0.33357814 0.94272244 0
vn -0.190554842 0.979722083 -0.0619148277
vn 0 1 0
vn -0.317251652 0.942722499 -0.103081048
vn -0.470751822 0.882265687 0
vn -0.447711498 0.882265806 -0.145469964
vn -0.599664092 0.800251782 0
vn -0.570314467 0.800251901 -0.185305819
vn -0.6803177 0.698788464 0.221048594
vn -0.715328455 0.698788464 0
vn -0.68031776 0.698788702 -0.221047848
vn -0.774474978 0.580400586 0.251642048
vn -0.814331174 0.580400527 0
vn -0.774475038 0.580400705 -0.251641303
vn -0.723291039 0.447993606 0.525501549
vn -0.85027957 0.447993606 0.276272535
vn -0.894036829 0.447993606 0
vn -0.850279689 0.447993606 -0.276271671
vn -0.770524025 0.30478856 0.559818447
vn -0.905805349 0.30478847 0.294313937
vn -0.952420056 0.3047885 0
vn -0.905805528 0.304788619 -0.294313073
vn -0.799334764 0.15424861 0.580750704
vn -0.939674318 0.154248551 0.305318683
vn -0.988031983 0.15424861 0
vn -0.939674616 0.15424867 -0.305317789
vn -0.809017003 0 0.587785244
vn -0.95105654 0 0.309017062
vn -1 0 0
vn -0.951056778 0 -0.309016049
vn -0.799334764 -0.154248595 0.580750644
vn -0.939674318 -0.154248551 0.305318683
vn -0.988031983 -0.15424861 0
vn -0.939674616 -0.154248685 -0.305317789
vn -0.770524025 -0.30478856 0.559818447
vn -0.905805349 -0.3047885 0.294313937
vn -0.952420115 -0.304788411 0
vn -0.905805647 -0.304788619 -0.294313103
vn -0.723291039 -0.447993547 0.525501609
vn -0.85027957 -0.447993636 0.276272535
vn -0.894036829 -0.447993547 0
vn -0.850279689 -0.447993606 -0.276271671
vn -0.658807755 -0.580400527 0.478651762
vn -0.774474978 -0.580400586 0.251642108
vn -0.814331174 -0.580400527 0
vn -0.774475098 -0.580400646 -0.251641303
vn -0.578712881 -0.698788464 0.420459449
vn -0.6803177 -0.698788464 0.221048579
vn -0.715328395 -0.698788464 0
vn -0.680317819 -0.698788702 -0.221047819
vn -0.485138476 -0.800251782 0.352473825
vn -0.570314467 -0.800251782 0.18530637
vn -0.599664092 -0.800251842 0
vn -0.570314407 -0.800251901 -0.18530573
vn -0.380846232 -0.882265627 0.276701182
vn -0.447711617 -0.882265627 0.145470247
vn -0.470751822 -0.882265687 0
vn -0.447711557 -0.882265806 -0.145469978
vn -0.2698704 -0.94272244 0.196072489
vn -0.317251742 -0.94272244 0.103081495
vn -0.333578169 -0.94272244 0
vn -0.317251682 -0.942722499 -0.103081062
vn -0.162095651 -0.979722083 0.117769413
vn 0 -1 0
vn -0.190554827 -0.979722083 0.0619153976
vn 0 -1 0
vn -0.200361207 -0.979722083 0
vn 0 -1 0
vn -0.190554827 -0.979722083 -0.0619152486
vn 0 -1 0
g submesh_0
usemtl submesh_0
f 1/1/1 2/2/2 3/3/3
f 3/3/3 4/4/4 1/1/1
f 3/3/3 5/5/5 4/4/4
f 5/5/5 6/6/6 4/4/4
f 5/5/5 7/7/7 6/6/6
f 7/7/7 8/8/8 6/6/6
f 7/7/7 9/9/9 8/8/8
f 9/9/9 10/10/10 8/8/8
f 9/9/9 11/11/11 10/10/10
f 11/11/11 12/12/12 10/10/10
f 11/11/11 13/13/13 12/12/12
f 13/13/13 14/14/14 12/12/12
f 13/13/13 15/15/15 14/14/14
f 15/15/15 16/16/16 14/14/14
f 15/15/15 17/17/17 16/16/16
f 17/17/17 18/18/18 16/16/16
f 17/17/17 19/19/19 18/18/18
f 19/19/19 20/20/20 18/18/18
f 19/19/19 21/21/21 20/20/20
f 21/21/21 22/22/22 20/20/20
f 21/21/21 23/23/23 22/22/22
f 23/23/23 24/24/24 22/22/22
f 23/23/23 25/25/25 24/24/24
f 25/25/25 26/26/26 24/24/24
f 25/25/25 27/27/27 26/26/26
f 27/27/27 28/28/28 26/26/26
f 27/27/27 29/29/29 28/28/28
f 29/29/29 30/30/30 28/28/28
f 29/29/29 31/31/31 30/30/30
f 31/31/31 32/32/32 30/30/30
f 31/31/31 33/33/33 32/32/32
f 33/33/33 34/34/34 32/32/32
f 33/33/33 35/35/35 34/34/34
f 35/35/35 36/36/36 34/34/34
f 35/35/35 37/37/37 36/36/36
f 37/37/37 38/38/38 36/36/36
f 37/37/37 39/39/39 38/38/38
f 39/39/39 40/40/40 38/38/38
f 36/36/36 38/38/38 41/41/41
f 38/38/38 42/42/42 41/41/41
f 34/34/34 36/36/36 43/43/43
f 36/36/36 41/41/41 43/43/43
f 32/32/32 34/34/34 44/44/44
f 34/34/34 43/43/43 44/44/44
f 30/30/30 32/32/32 45/45/45
f 32/32/32 44/44/44 45/45/45
f 43/43/43 41/41/41 46/46/46
f 41/41/41 47/47/47 46/46/46
f 44/44/44 43/43/43 48/48/48
f 43/43/43 46/46/46 48/48/48
f 30/30/30 45/45/45 49/49/49
f 28/28/28 30/30/30 49/49/49
f 45/45/45 44/44/44 50/50/50
f 44/44/44 48/48/48 50/50/50
f 48/48/48 46/46/46 51/51/51
f 46/46/46 52/52/52 51/51/51
f 48/48/48 51/51/51 53/53/53
f 50/50/50 48/48/48 53/53/53
f 45/45/45 50/50/50 54/54/54
f 49/49/49 45/45/45 54/54/54
f 28/28/28 49/49/49 55/55/55
f 26/26/26 28/28/28 55/55/55
f 53/53/53 51/51/51 56/56/56
f 51/51/51 57/57/57 56/56/56
f 50/50/50 53/53/53 58/58/58
f 54/54/54 50/50/50 58/58/58
f 49/49/49 54/54/54 59/59/59
f 55/55/55 49/49/49 59/59/59
f 26/26/26 55/55/55 60/60/60
f 24/24/24 26/26/26 60/60/60
f 53/53/53 56/56/56 61/61/61
f 58/58/58 53/53/53 61/61/61
f 54/54/54 58/58/58 62/62/62
f 59/59/59 54/54/54 62/62/62
f 55/55/55 59/59/59 63/63/63
f 60/60/60 55/55/55 63/63/63
f 24/24/24 60/60/60 64/64/64
f 22/22/22 24/24/24 64/64/64
f 61/61/61 56/56/56 65/65/65
f 56/56/56 66/66/66 65/65/65
f 58/58/58 61/61/61 67/67/67
f 62/62/62 58/58/58 67/67/67
f 59/59/59 62/62/62 68/68/68
f 63/63/63 59/59/59 68/68/68
f 60/60/60 63/63/63 69/69/69
f 64/64/64 60/60/60 69/69/69
f 22/22/22 64/64/64 70/70/70
f 20/20/20 22/22/22 70/70/70
f 61/61/61 65/65/65 71/71/71
f 67/67/67 61/61/61 71/71/71
f 62/62/62 67/67/67 72/72/72
f 68/68/68 62/62/62 72/72/72
f 63/63/63 68/68/68 73/73/73
f 69/69/69 63/63/63 73/73/73
f 64/64/64 69/69/69 74/74/74
f 70/70/70 64/64/64 74/74/74
f 20/20/20 70/70/70 75/75/75
f 18/18/18 20/20/20 75/75/75
f 71/71/71 65/65/65 76/76/76
f 65/65/65 77/77/77 76/76/76
f 68/68/68 72/72/72 78/78/78
f 73/73/73 68/68/68 78/78/78
f 69/69/69 73/73/73 79/79/79
f 74/74/74 69/69/69 79/79/79
f 70/70/70 74/74/74 80/80/80
f 75/75/75 70/70/70 80/80/80
f 18/18/18 75/75/75 81/81/81
f 16/16/16 18/18/18 81/81/81
f 73/73/73 78/78/78 82/82/82
f 79/79/79 73/73/73 82/82/82
f 74/74/74 79/79/79 83/83/83
f 80/80/80 74/74/74 83/83/83
f 75/75/75 80/80/80 84/84/84
f 81/81/81 75/75/75 84/84/84
f 16/16/16 81/81/81 85/85/85
f 14/14/14 16/16/16 85/85/85
f 79/79/79 82/82/82 86/86/86
f 83/83/83 79/79/79 86/86/86
f 80/80/80 83/83/83 87/87/87
f 84/84/84 80/80/80 87/87/87
f 81/81/81 84/84/84 88/88/88
f 85/85/85 81/81/81 88/88/88
f 14/14/14 85/85/85 89/89/89
f 12/12/12 14/14/14 89/89/89
f 83/83/83 86/86/86 90/90/90
f 87/87/87 83/83/83 90/90/90
f 84/84/84 87/87/87 91/91/91
f 88/88/88 84/84/84 91/91/91
f 85/85/85 88/88/88 92/92/92
f 89/89/89 85/85/85 92/92/92
f 12/12/12 89/89/89 93/93/93
f 10/10/10 12/12/12 93/93/93
f 87/87/87 90/90/90 94/94/94
f 91/91/91 87/87/87 94/94/94
f 88/88/88 91/91/91 95/95/95
f 92/92/92 88/88/88 95/95/95
f 89/89/89 92/92/92 96/96/96
f 93/93/93 89/89/89 96/96/96
f 10/10/10 93/93/93 97/97/97
f 8/8/8 10/10/10 97/97/97
f 91/91/91 94/94/94 98/98/98
f 95/95/95 91/91/91 98/98/98
f 92/92/92 95/95/95 99/99/99
f 96/96/96 92/92/92 99/99/99
f 93/93/93 96/96/96 100/100/100
f 97/97/97 93/93/93 100/100/100
f 8/8/8 97/97/97 101/101/101
f 6/6/6 8/8/8 101/101/101
f 95/95/95 98/98/98 102/102/102
f 99/99/99 95/95/95 102/102/102
f 96/96/96 99/99/99 103/103/103
f 100/100/100 96/96/96 103/103/103
f 97/97/97 100/100/100 104/104/104
f 101/101/101 97/97/97 104/104/104
f 6/6/6 101/101/101 105/105/105
f 4/4/4 6/6/6 105/105/105
f 99/99/99 102/102/102 106/106/106
f 103/103/103 99/99/99 106/106/106
f 100/100/100 103/103/103 107/107/107
f 104/104/104 100/100/100 107/107/107
f 101/101/101 104/104/104 108/108/108
f 105/105/105 101/101/101 108/108/108
f 4/4/4 105/105/105 109/109/109
f 1/1/1 4/4/4 109/109/109
f 103/103/103 106/106/106 110/110/110
f 107/107/107 103/103/103 110/110/110
f 104/104/104 107/107/107 111/111/111
f 108/108/108 104/104/104 111/111/111
f 105/105/105 108/108/108 112/112/112
f 109/109/109 105/105/105 112/112/112
f 1/1/1 109/109/109 113/113/113
f 113/113/113 114/114/114 1/1/1
f 113/113/113 109/109/109 115/115/115
f 109/109/109 112/112/112 115/115/115
f 112/112/112 108/108/108 116/116/116
f 108/108/108 111/111/111 116/116/116
f 111/111/111 107/107/107 117/117/117
f 107/107/107 110/110/110 117/117/117
f 113/113/113 115/115/115 118/118/118
f 118/118/118 119/119/119 113/113/113
f 115/115/115 112/112/112 120/120/120
f 112/112/112 116/116/116 120/120/120
f 116/116/116 111/111/111 121/121/121
f 111/111/111 117/117/117 121/121/121
f 118/118/118 115/115/115 122/122/122
f 115/115/115 120/120/120 122/122/122
f 120/120/120 116/116/116 123/123/123
f 116/116/116 121/121/121 123/123/123
f 118/118/118 122/122/122 124/124/124
f 124/124/124 125/125/125 118/118/118
f 122/122/122 120/120/120 126/126/126
f 120/120/120 123/123/123 126/126/126
f 124/124/124 122/122/122 127/127/127
f 122/122/122 126/126/126 127/127/127
f 124/124/124 127/127/127 128/128/128
f 128/128/128 129/129/129 124/124/124
f 121/121/121 117/117/117 130/130/130
f 123/123/123 121/121/121 131/131/131
f 121/121/121 130/130/130 131/131/131
f 126/126/126 123/123/123 132/132/132
f 123/123/123 131/131/131 132/132/132
f 127/127/127 126/126/126 133/133/133
f 126/126/126 132/132/132 133/133/133
f 128/128/128 127/127/127 134/134/134
f 127/127/127 133/133/133 134/134/134
f 117/117/117 135/135/135 130/130/130
f 117/117/117 110/110/110 135/135/135
f 128/128/128 134/134/134 136/136/136
f 136/136/136 137/137/137 128/128/128
f 110/110/110 138/138/138 135/135/135
f 110/110/110 106/106/106 138/138/138
f 106/106/106 139/139/139 138/138/138
f 106/106/106 102/102/102 139/139/139
f 102/102/102 140/140/140 139/139/139
f 102/102/102 98/98/98 140/140/140
f 98/98/98 141/141/141 140/140/140
f 98/98/98 94/94/94 141/141/141
f 94/94/94 142/142/142 141/141/141
f 94/94/94 90/90/90 142/142/142
f 90/90/90 143/143/143 142/142/142
f 90/90/90 86/86/86 143/143/143
f 86/86/86 144/144/144 143/143/143
f 86/86/86 82/82/82 144/144/144
f 82/82/82 145/145/145 144/144/144
f 82/82/82 78/78/78 145/145/145
f 78/78/78 146/146/146 145/145/145
f 78/78/78 72/72/72 146/146/146
f 72/72/72 147/147/147 146/146/146
f 72/72/72 67/67/67 147/147/147
f 67/67/67 71/71/71 147/147/147
f 147/147/147 71/71/71 148/148/148
f 71/71/71 76/76/76 148/148/148
f 146/146/146 147/147/147 149/149/149
f 147/147/147 148/148/148 149/149/149
f 145/145/145 146/146/146 150/150/150
f 146/146/146 149/149/149 150/150/150
f 144/144/144 145/145/145 151/151/151
f 145/145/145 150/150/150 151/151/151
f 143/143/143 144/144/144 152/152/152
f 144/144/144 151/151/151 152/152/152
f 148/148/148 76/76/76 153/153/153
f 76/76/76 154/154/154 153/153/153
f 149/149/149 148/148/148 155/155/155
f 148/148/148 153/153/153 155/155/155
f 150/150/150 149/149/149 156/156/156
f 149/149/149 155/155/155 156/156/156
f 151/151/151 150/150/150 157/157/157
f 150/150/150 156/156/156 157/157/157
f 155/155/155 153/153/153 158/158/158
f 153/153/153 159/159/159 158/158/158
f 156/156/156 155/155/155 160/160/160
f 155/155/155 158/158/158 160/160/160
f 143/143/143 152/152/152 161/161/161
f 142/142/142 143/143/143 161/161/161
f 152/152/152 151/151/151 162/162/162
f 151/151/151 157/157/157 162/162/162
f 157/157/157 156/156/156 163/163/163
f 156/156/156 160/160/160 163/163/163
f 160/160/160 158/158/158 164/164/164
f 158/158/158 165/165/165 164/164/164
f 160/160/160 164/164/164 166/166/166
f 163/163/163 160/160/160 166/166/166
f 157/157/157 163/163/163 167/167/167
f 162/162/162 157/157/157 167/167/167
f 152/152/152 162/162/162 168/168/168
f 161/161/161 152/152/152 168/168/168
f 142/142/142 161/161/161 169/169/169
f 141/141/141 142/142/142 169/169/169
f 166/166/166 164/164/164 170/170/170
f 164/164/164 171/171/171 170/170/170
f 163/163/163 166/166/166 172/172/172
f 167/167/167 163/163/163 172/172/172
f 162/162/162 167/167/167 173/173/173
f 168/168/168 162/162/162 173/173/173
f 161/161/161 168/168/168 174/174/174
f 169/169/169 161/161/161 174/174/174
f 141/141/141 169/169/169 175/175/175
f 140/140/140 141/141/141 175/175/175
f 166/166/166 170/170/170 176/176/176
f 172/172/172 166/166/166 176/176/176
f 167/167/167 172/172/172 177/177/177
f 173/173/173 167/167/167 177/177/177
f 168/168/168 173/173/173 178/178/178
f 174/174/174 168/168/168 178/178/178
f 169/169/169 174/174/174 179/179/179
f 175/175/175 169/169/169 179/179/179
f 140/140/140 175/175/175 180/180/180
f 139/139/139 140/140/140 180/180/180
f 176/176/176 170/170/170 181/181/181
f 170/170/170 182/182/182 181/181/181
f 173/173/173 177/177/177 183/183/183
f 178/178/178 173/173/173 183/183/183
f 174/174/174 178/178/178 184/184/184
f 179/179/179 174/174/174 184/184/184
f 175/175/175 179/179/179 185/185/185
f 180/180/180 175/175/175 185/185/185
f 139/139/139 180/180/180 186/186/186
f 138/138/138 139/139/139 186/186/186
f 178/178/178 183/183/183 187/187/187
f 184/184/184 178/178/178 187/187/187
f 179/179/179 184/184/184 188/188/188
f 185/185/185 179/179/179 188/188/188
f 180/180/180 185/185/185 189/189/189
f 186/186/186 180/180/180 189/189/189
f 138/138/138 186/186/186 190/190/190
f 135/135/135 138/138/138 190/190/190
f 184/184/184 187/187/187 191/191/191
f 188/188/188 184/184/184 191/191/191
f 185/185/185 188/188/188 192/192/192
f 189/189/189 185/185/185 192/192/192
f 186/186/186 189/189/189 193/193/193
f 190/190/190 186/186/186 193/193/193
f 135/135/135 190/190/190 194/194/194
f 130/130/130 135/135/135 194/194/194
f 188/188/188 191/191/191 195/195/195
f 192/192/192 188/188/188 195/195/195
f 189/189/189 192/192/192 196/196/196
f 193/193/193 189/189/189 196/196/196
f 190/190/190 193/193/193 197/197/197
f 194/194/194 190/190/190 197/197/197
f 130/130/130 194/194/194 198/198/198
f 131/131/131 130/130/130 198/198/198
f 192/192/192 195/195/195 199/199/199
f 196/196/196 192/192/192 199/199/199
f 193/193/193 196/196/196 200/200/200
f 197/197/197 193/193/193 200/200/200
f 194/194/194 197/197/197 201/201/201
f 198/198/198 194/194/194 201/201/201
f 131/131/131 198/198/198 202/202/202
f 132/132/132 131/131/131 202/202/202
f 196/196/196 199/199/199 203/203/203
f 200/200/200 196/196/196 203/203/203
f 197/197/197 200/200/200 204/204/204
f 201/201/201 197/197/197 204/204/204
f 198/198/198 201/201/201 205/205/205
f 202/202/202 198/198/198 205/205/205
f 132/132/132 202/202/202 206/206/206
f 133/133/133 132/132/132 206/206/206
f 200/200/200 203/203/203 207/207/207
f 204/204/204 200/200/200 207/207/207
f 201/201/201 204/204/204 208/208/208
f 205/205/205 201/201/201 208/208/208
f 202/202/202 205/205/205 209/209/209
f 206/206/206 202/202/202 209/209/209
f 133/133/133 206/206/206 210/210/210
f 134/134/134 133/133/133 210/210/210
f 204/204/204 207/207/207 211/211/211
f 208/208/208 204/204/204 211/211/211
f 205/205/205 208/208/208 212/212/212
f 209/209/209 205/205/205 212/212/212
f 206/206/206 209/209/209 213/213/213
f 210/210/210 206/206/206 213/213/213
f 134/134/134 210/210/210 214/214/214
f 136/136/136 134/134/134 214/214/214
f 208/208/208 211/211/211 215/215/215
f 212/212/212 208/208/208 215/215/215
f 209/209/209 212/212/212 216/216/216
f 213/213/213 209/209/209 216/216/216
f 210/210/210 213/213/213 217/217/217
f 214/214/214 210/210/210 217/217/217
f 136/136/136 214/214/214 218/218/218
f 218/218/218 219/219/219 136/136/136
f 218/218/218 214/214/214 220/220/220
f 214/214/214 217/217/217 220/220/220
f 217/217/217 213/213/213 221/221/221
f 213/213/213 216/216/216 221/221/221
f 216/216/216 212/212/212 222/222/222
f 212/212/212 215/215/215 222/222/222
f 218/218/218 220/220/220 223/223/223
f 223/223/223 224/224/224 218/218/218
f 220/220/220 217/217/217 225/225/225
f 217/217/217 221/221/221 225/225/225
f 221/221/221 216/216/216 226/226/226
f 216/216/216 222/222/222 226/226/226
f 223/223/223 220/220/220 227/227/227
f 220/220/220 225/225/225 227/227/227
f 225/225/225 221/221/221 228/228/228
f 221/221/221 226/226/226 228/228/228
f 223/223/223 227/227/227 229/229/229
f 229/229/229 230/230/230 223/223/223
f 227/227/227 225/225/225 231/231/231
f 225/225/225 228/228/228 231/231/231
f 229/229/229 227/227/227 232/232/232
f 227/227/227 231/231/231 232/232/232
f 229/229/229 232/232/232 233/233/233
f 233/233/233 234/234/234 229/229/229
f 226/226/226 222/222/222 235/235/235
f 228/228/228 226/226/226 236/236/236
f 226/226/226 235/235/235 236/236/236
f 231/231/231 228/228/228 237/237/237
f 228/228/228 236/236/236 237/237/237
f 232/232/232 231/231/231 238/238/238
f 231/231/231 237/237/237 238/238/238
f 233/233/233 232/232/232 239/239/239
f 232/232/232 238/238/238 239/239/239
f 222/222/222 240/240/240 235/235/235
f 222/222/222 215/215/215 240/240/240
f 233/233/233 239/239/239 241/241/241
f 241/241/241 242/242/242 233/233/233
f 215/215/215 243/243/243 240/240/240
f 215/215/215 211/211/211 243/243/243
f 211/211/211 244/244/244 243/243/243
f 211/211/211 207/207/207 244/244/244
f 207/207/207 245/245/245 244/244/244
f 207/207/207 203/203/203 245/245/245
f 203/203/203 246/246/246 245/245/245
f 203/203/203 199/199/199 246/246/246
f 199/199/199 247/247/247 246/246/246
f 199/199/199 195/195/195 247/247/247
f 195/195/195 248/248/248 247/247/247
f 195/195/195 191/191/191 248/248/248
f 191/191/191 249/249/249 248/248/248
f 191/191/191 187/187/187 249/249/249
f 187/187/187 250/250/250 249/249/249
f 187/187/187 183/183/183 250/250/250
f 183/183/183 251/251/251 250/250/250
f 183/183/183 177/177/177 251/251/251
f 177/177/177 252/252/252 251/251/251
f 177/177/177 172/172/172 252/252/252
f 172/172/172 176/176/176 252/252/252
f 252/252/252 176/176/176 253/253/253
f 176/176/176 181/181/181 253/253/253
f 251/251/251 252/252/252 254/254/254
f 252/252/252 253/253/253 254/254/254
f 250/250/250 251/251/251 255/255/255
f 251/251/251 254/254/254 255/255/255
f 249/249/249 250/250/250 256/256/256
f 250/250/250 255/255/255 256/256/256
f 248/248/248 249/249/249 257/257/257
f 249/249/249 256/256/256 257/257/257
f 253/253/253 181/181/181 258/258/258
f 181/181/181 259/259/259 258/258/258
f 254/254/254 253/253/253 260/260/260
f 253/253/253 258/258/258 260/260/260
f 255/255/255 254/254/254 261/261/261
f 254/254/254 260/260/260 261/261/261
f 256/256/256 255/255/255 262/262/262
f 255/255/255 261/261/261 262/262/262
f 260/260/260 258/258/258 263/263/263
f 258/258/258 264/264/264 263/263/263
f 261/261/261 260/260/260 265/265/265
f 260/260/260 263/263/263 265/265/265
f 248/248/248 257/257/257 266/266/266
f 247/247/247 248/248/248 266/266/266
f 257/257/257 256/256/256 267/267/267
f 256/256/256 262/262/262 267/267/267
f 262/262/262 261/261/261 268/268/268
f 261/261/261 265/265/265 268/268/268
f 265/265/265 263/263/263 269/269/269
f 263/263/263 270/270/270 269/269/269
f 265/265/265 269/269/269 271/271/271
f 268/268/268 265/265/265 271/271/271
f 262/262/262 268/268/268 272/272/272
f 267/267/267 262/262/262 272/272/272
f 257/257/257 267/267/267 273/273/273
f 266/266/266 257/257/257 273/273/273
f 247/247/247 266/266/266 274/274/274
f 246/246/246 247/247/247 274/274/274
f 271/271/271 269/269/269 275/275/275
f 269/269/269 276/276/276 275/275/275
f 268/268/268 271/271/271 277/277/277
f 272/272/272 268/268/268 277/277/277
f 267/267/267 272/272/272 278/278/278
f 273/273/273 267/267/267 278/278/278
f 266/266/266 273/273/273 279/279/279
f 274/274/274 266/266/266 279/279/279
f 246/246/246 274/274/274 280/280/280
f 245/245/245 246/246/246 280/280/280
f 271/271/271 275/275/275 281/281/281
f 277/277/277 271/271/271 281/281/281
f 272/272/272 277/277/277 282/282/282
f 278/278/278 272/272/272 282/282/282
f 273/273/273 278/278/278 283/283/283
f 279/279/279 273/273/273 283/283/283
f 274/274/274 279/279/279 284/284/284
f 280/280/280 274/274/274 284/284/284
f 245/245/245 280/280/280 285/285/285
f 244/244/244 245/245/245 285/285/285
f 281/281/281 275/275/275 286/286/286
f 275/275/275 287/287/287 286/286/286
f 278/278/278 282/282/282 288/288/288
f 283/283/283 278/278/278 288/288/288
f 279/279/279 283/283/283 289/289/289
f 284/284/284 279/279/279 289/289/289
f 280/280/280 284/284/284 290/290/290
f 285/285/285 280/280/280 290/290/290
f 244/244/244 285/285/285 291/291/291
f 243/243/243 244/244/244 291/291/291
f 283/283/283 288/288/288 292/292/292
f 289/289/289 283/283/283 292/292/292
f 284/284/284 289/289/289 293/293/293
f 290/290/290 284/284/284 293/293/293
f 285/285/285 290/290/290 294/294/294
f 291/291/291 285/285/285 294/294/294
f 243/243/243 291/291/291 295/295/295
f 240/240/240 243/243/243 295/295/295
f 289/289/289 292/292/292 296/296/296
f 293/293/293 289/289/289 296/296/296
f 290/290/290 293/293/293 297/297/297
f 294/294/294 290/290/290 297/297/297
f 291/291/291 294/294/294 298/298/298
f 295/295/295 291/291/291 298/298/298
f 240/240/240 295/295/295 299/299/299
f 235/235/235 240/240/240 299/299/299
f 293/293/293 296/296/296 300/300/300
f 297/297/297 293/293/293 300/300/300
f 294/294/294 297/297/297 301/301/301
f 298/298/298 294/294/294 301/301/301
f 295/295/295 298/298/298 302/302/302
f 299/299/299 295/295/295 302/302/302
f 235/235/235 299/299/299 303/303/303
f 236/236/236 235/235/235 303/303/303
f 297/297/297 300/300/300 304/304/304
f 301/301/301 297/297/297 304/304/304
f 298/298/298 301/301/301 305/305/305
f 302/302/302 298/298/298 305/305/305
f 299/299/299 302/302/302 306/306/306
f 303/303/303 299/299/299 306/306/306
f 236/236/236 303/303/303 307/307/307
f 237/237/237 236/236/236 307/307/307
f 301/301/301 304/304/304 308/308/308
f 305/305/305 301/301/301 308/308/308
f 302/302/302 305/305/305 309/309/309
f 306/306/306 302/302/302 309/309/309
f 303/303/303 306/306/306 310/310/310
f 307/307/307 303/303/303 310/310/310
f 237/237/237 307/307/307 311/311/311
f 238/238/238 237/237/237 311/311/311
f 305/305/305 308/308/308 312/312/312
f 309/309/309 305/305/305 312/312/312
f 306/306/306 309/309/309 313/313/313
f 310/310/310 306/306/306 313/313/313
f 307/307/307 310/310/310 314/314/314
f 311/311/311 307/307/307 314/314/314
f 238/238/238 311/311/311 315/315/315
f 239/239/239 238/238/238 315/315/315
f 309/309/309 312/312/312 316/316/316
f 313/313/313 309/309/309 316/316/316
f 310/310/310 313/313/313 317/317/317
f 314/314/314 310/310/310 317/317/317
f 311/311/311 314/314/314 318/318/318
f 315/315/315 311/311/311 318/318/318
f 239/239/239 315/315/315 319/319/319
f 241/241/241 239/239/239 319/319/319
f 313/313/313 316/316/316 320/320/320
f 317/317/317 313/313/313 320/320/320
f 314/314/314 317/317/317 321/321/321
f 318/318/318 314/314/314 321/321/321
f 315/315/315 318/318/318 322/322/322
f 319/319/319 315/315/315 322/322/322
f 241/241/241 319/319/319 323/323/323
f 323/323/323 324/324/324 241/241/241
f 323/323/323 319/319/319 325/325/325
f 319/319/319 322/322/322 325/325/325
f 322/322/322 318/318/318 326/326/326
f 318/318/318 321/321/321 326/326/326
f 321/321/321 317/317/317 327/327/327
f 317/317/317 320/320/320 327/327/327
f 323/323/323 325/325/325 328/328/328
f 328/328/328 329/329/329 323/323/323
f 325/325/325 322/322/322 330/330/330
f 322/322/322 326/326/326 330/330/330
f 326/326/326 321/321/321 331/331/331
f 321/321/321 327/327/327 331/331/331
f 328/328/328 325/325/325 332/332/332
f 325/325/325 330/330/330 332/332/332
f 330/330/330 326/326/326 333/333/333
f 326/326/326 331/331/331 333/333/333
f 328/328/328 332/332/332 334/334/334
f 334/334/334 335/335/335 328/328/328
f 332/332/332 330/330/330 336/336/336
f 330/330/330 333/333/333 336/336/336
f 334/334/334 332/332/332 337/337/337
f 332/332/332 336/336/336 337/337/337
f 334/334/334 337/337/337 338/338/338
f 338/338/338 339/339/339 334/334/334
f 331/331/331 327/327/327 340/340/340
f 333/333/333 331/331/331 341/341/341
f 331/331/331 340/340/340 341/341/341
f 336/336/336 333/333/333 342/342/342
f 333/333/333 341/341/341 342/342/342
f 337/337/337 336/336/336 343/343/343
f 336/336/336 342/342/342 343/343/343
f 338/338/338 337/337/337 344/344/344
f 337/337/337 343/343/343 344/344/344
f 327/327/327 345/345/345 340/340/340
f 327/327/327 320/320/320 345/345/345
f 338/338/338 344/344/344 346/346/346
f 346/346/346 347/347/347 338/338/338
f 320/320/320 348/348/348 345/345/345
f 320/320/320 316/316/316 348/348/348
f 316/316/316 349/349/349 348/348/348
f 316/316/316 312/312/312 349/349/349
f 312/312/312 350/350/350 349/349/349
f 312/312/312 308/308/308 350/350/350
f 308/308/308 351/351/351 350/350/350
f 308/308/308 304/304/304 351/351/351
f 304/304/304 352/352/352 351/351/351
f 304/304/304 300/300/300 352/352/352
f 300/300/300 353/353/353 352/352/352
f 300/300/300 296/296/296 353/353/353
f 296/296/296 354/354/354 353/353/353
f 296/296/296 292/292/292 354/354/354
f 292/292/292 355/355/355 354/354/354
f 292/292/292 288/288/288 355/355/355
f 288/288/288 356/356/356 355/355/355
f 288/288/288 282/282/282 356/356/356
f 282/282/282 357/357/357 356/356/356
f 282/282/282 277/277/277 357/357/357
f 277/277/277 281/281/281 357/357/357
f 357/357/357 281/281/281 358/358/358
f 281/281/281 286/286/286 358/358/358
f 356/356/356 357/357/357 359/359/359
f 357/357/357 358/358/358 359/359/359
f 355/355/355 356/356/356 360/360/360
f 356/356/356 359/359/359 360/360/360
f 354/354/354 355/355/355 361/361/361
f 355/355/355 360/360/360 361/361/361
f 353/353/353 354/354/354 362/362/362
f 354/354/354 361/361/361 362/362/362
f 358/358/358 286/286/286 363/363/363
f 286/286/286 364/364/364 363/363/363
f 359/359/359 358/358/358 365/365/365
f 358/358/358 363/363/363 365/365/365
f 360/360/360 359/359/359 366/366/366
f 359/359/359 365/365/365 366/366/366
f 361/361/361 360/360/360 367/367/367
f 360/360/360 366/366/366 367/367/367
f 365/365/365 363/363/363 368/368/368
f 363/363/363 369/369/369 368/368/368
f 366/366/366 365/365/365 370/370/370
f 365/365/365 368/368/368 370/370/370
f 370/370/370 368/368/368 371/371/371
f 368/368/368 372/372/372 371/371/371
f 370/370/370 371/371/371 373/373/373
f 366/366/366 370/370/370 374/374/374
f 374/374/374 370/370/370 373/373/373
f 367/367/367 366/366/366 374/374/374
f 374/374/374 373/373/373 375/375/375
f 376/376/376 374/374/374 375/375/375
f 367/367/367 374/374/374 376/376/376
f 376/376/376 375/375/375 377/377/377
f 361/361/361 367/367/367 378/378/378
f 378/378/378 367/367/367 376/376/376
f 362/362/362 361/361/361 378/378/378
f 379/379/379 376/376/376 377/377/377
f 378/378/378 376/376/376 379/379/379
f 379/379/379 377/377/377 380/380/380
f 362/362/362 378/378/378 381/381/381
f 381/381/381 378/378/378 379/379/379
f 382/382/382 379/379/379 380/380/380
f 381/381/381 379/379/379 382/382/382
f 382/382/382 380/380/380 383/383/383
f 384/384/384 362/362/362 381/381/381
f 353/353/353 362/362/362 384/384/384
f 352/352/352 353/353/353 384/384/384
f 385/385/385 381/381/381 382/382/382
f 384/384/384 381/381/381 385/385/385
f 386/386/386 382/382/382 383/383/383
f 385/385/385 382/382/382 386/386/386
f 386/386/386 383/383/383 387/387/387
f 352/352/352 384/384/384 388/388/388
f 388/388/388 384/384/384 385/385/385
f 351/351/351 352/352/352 388/388/388
f 389/389/389 385/385/385 386/386/386
f 388/388/388 385/385/385 389/389/389
f 390/390/390 386/386/386 387/387/387
f 389/389/389 386/386/386 390/390/390
f 390/390/390 387/387/387 391/391/391
f 351/351/351 388/388/388 392/392/392
f 392/392/392 388/388/388 389/389/389
f 350/350/350 351/351/351 392/392/392
f 393/393/393 389/389/389 390/390/390
f 392/392/392 389/389/389 393/393/393
f 394/394/394 390/390/390 391/391/391
f 393/393/393 390/390/390 394/394/394
f 394/394/394 391/391/391 395/395/395
f 350/350/350 392/392/392 396/396/396
f 396/396/396 392/392/392 393/393/393
f 349/349/349 350/350/350 396/396/396
f 397/397/397 393/393/393 394/394/394
f 396/396/396 393/393/393 397/397/397
f 398/398/398 394/394/394 395/395/395
f 397/397/397 394/394/394 398/398/398
f 398/398/398 395/395/395 399/399/399
f 349/349/349 396/396/396 400/400/400
f 400/400/400 396/396/396 397/397/397
f 348/348/348 349/349/349 400/400/400
f 401/401/401 397/397/397 398/398/398
f 400/400/400 397/397/397 401/401/401
f 402/402/402 398/398/398 399/399/399
f 401/401/401 398/398/398 402/402/402
f 402/402/402 399/399/399 403/403/403
f 348/348/348 400/400/400 404/404/404
f 404/404/404 400/400/400 401/401/401
f 345/345/345 348/348/348 404/404/404
f 405/405/405 401/401/401 402/402/402
f 404/404/404 401/401/401 405/405/405
f 406/406/406 402/402/402 403/403/403
f 405/405/405 402/402/402 406/406/406
f 406/406/406 403/403/403 407/407/407
f 345/345/345 404/404/404 408/408/408
f 408/408/408 404/404/404 405/405/405
f 340/340/340 345/345/345 408/408/408
f 409/409/409 405/405/405 406/406/406
f 408/408/408 405/405/405 409/409/409
f 410/410/410 406/406/406 407/407/407
f 409/409/409 406/406/406 410/410/410
f 410/410/410 407/407/407 411/411/411
f 340/340/340 408/408/408 412/412/412
f 412/412/412 408/408/408 409/409/409
f 341/341/341 340/340/340 412/412/412
f 413/413/413 409/409/409 410/410/410
f 412/412/412 409/409/409 413/413/413
f 414/414/414 410/410/410 411/411/411
f 413/413/413 410/410/410 414/414/414
f 414/414/414 411/411/411 415/415/415
f 341/341/341 412/412/412 416/416/416
f 416/416/416 412/412/412 413/413/413
f 342/342/342 341/341/341 416/416/416
f 417/417/417 413/413/413 414/414/414
f 416/416/416 413/413/413 417/417/417
f 418/418/418 414/414/414 415/415/415
f 417/417/417 414/414/414 418/418/418
f 418/418/418 415/415/415 419/419/419
f 342/342/342 416/416/416 420/420/420
f 420/420/420 416/416/416 417/417/417
f 343/343/343 342/342/342 420/420/420
f 421/421/421 417/417/417 418/418/418
f 420/420/420 417/417/417 421/421/421
f 422/422/422 418/418/418 419/419/419
f 421/421/421 418/418/418 422/422/422
f 422/422/422 419/419/419 423/423/423
f 343/343/343 420/420/420 424/424/424
f 424/424/424 420/420/420 421/421/421
f 344/344/344 343/343/343 424/424/424
f 425/425/425 421/421/421 422/422/422
f 424/424/424 421/421/421 425/425/425
f 426/426/426 422/422/422 423/423/423
f 425/425/425 422/422/422 426/426/426
f 426/426/426 423/423/423 427/427/427
f 344/344/344 424/424/424 428/428/428
f 428/428/428 424/424/424 425/425/425
f 346/346/346 344/344/344 428/428/428
f 429/429/429 425/425/425 426/426/426
f 428/428/428 425/425/425 429/429/429
f 430/430/430 426/426/426 427/427/427
f 429/429/429 426/426/426 430/430/430
f 430/430/430 427/427/427 431/431/431
f 346/346/346 428/428/428 432/432/432
f 432/432/432 428/428/428 429/429/429
f 432/432/432 433/433/433 346/346/346
f 432/432/432 429/429/429 434/434/434
f 434/434/434 429/429/429 430/430/430
f 434/434/434 435/435/435 432/432/432
f 436/436/436 430/430/430 431/431/431
f 434/434/434 430/430/430 436/436/436
f 436/436/436 437/437/437 434/434/434
f 436/436/436 431/431/431 438/438/438
f 438/438/438 439/439/439 436/436/436
