o RimuruHA2026_Scythe_00
v -0.711945176 1.91094112 57.0679092
v -0.711944938 -1.910918 57.0679092
v 1.17067236e-06 1.91094398 59.732605
v 1.17067236e-06 1.91094398 59.732605
v 1.43051125e-06 -1.9109174 59.732605
v 0.711950421 -1.910918 57.0679092
v -0.711944938 -1.910918 57.0679092
v 1.43051125e-06 -1.9109174 59.732605
v 1.17067236e-06 1.91094398 59.732605
v 1.17067236e-06 1.91094398 59.732605
v 0.711950421 -1.910918 57.0679092
v 0.711950183 1.91094112 57.0679092
v -0.711945176 1.91094112 57.0679092
v 1.17067236e-06 1.91094398 59.732605
v 2.27615237e-06 4.32776642 59.9026299
v -0.711945534 5.42134857 57.6394806
v 1.83284283e-06 10.184597 61.6580811
v -0.711945176 1.91094112 53.7270317
v -0.711946189 11.2658844 59.671875
v 1.49011612e-06 14.6773567 63.9755783
v 1.54972076e-06 13.9747086 59.8929482
v 1.54972076e-06 14.0256004 56.4501266
v -0.711945593 6.22246933 53.4396935
v 1.17067248e-06 1.91094124 50.3011208
v 2.11596489e-06 6.44157791 49.9662209
v -0.71194607 13.1437912 52.3275757
v 1.59442425e-06 13.3565979 48.5551453
v 1.02818012e-06 20.8753891 45.8586121
v 1.31130219e-06 17.0505066 50.2557449
v 1.44541264e-06 15.2544212 53.0073013
v -0.711945951 10.7464447 55.635128
v 2.27615237e-06 4.32776642 59.9026299
v 1.17067236e-06 1.91094398 59.732605
v 0.711950183 1.91094112 57.0679092
v 0.711949944 5.42134857 57.6394844
v 1.83284283e-06 10.184597 61.6580811
v 0.711950183 1.91094112 53.7270317
v 0.711949646 11.2658844 59.671875
v 1.49011612e-06 14.6773567 63.9755783
v 1.54972076e-06 13.9747086 59.8929482
v 1.54972076e-06 14.0256004 56.4501266
v 0.711949825 6.22246933 53.4396973
v 1.17067248e-06 1.91094124 50.3011208
v 2.11596489e-06 6.44157791 49.9662209
v 0.711949289 13.1437912 52.3275833
v 1.59442425e-06 13.3565979 48.5551453
v 1.02818012e-06 20.8753891 45.8586121
v 1.31130219e-06 17.0505066 50.2557449
v 1.44541264e-06 15.2544212 53.0073013
v 0.711949527 10.7464447 55.635128
v -0.711945176 1.91094112 53.7270317
v -0.711944997 -1.91091812 53.7270355
v -0.711945176 1.91094112 57.0679092
v -0.711944938 -1.910918 57.0679092
v 0.711950183 1.91094112 57.0679092
v 0.711950421 -1.910918 57.0679092
v 0.711950481 -1.91091812 53.7270355
v 0.711950183 1.91094112 53.7270317
v 0.711950183 1.91094112 53.7270317
v 0.711950481 -1.91091812 53.7270355
v 1.43051147e-06 -1.91091788 49.9115944
v 1.17067248e-06 1.91094124 50.3011208
v 1.17067248e-06 1.91094124 50.3011208
v 1.43051147e-06 -1.91091788 49.9115944
v -0.711945176 1.91094112 53.7270317
v -0.711944997 -1.91091812 53.7270355
v 7.15255737e-06 -60.5828629 36.6962318
v 6.31809235e-06 -49.3631744 42.7699966
v 0.630940676 -62.9994049 40.5241585
v 7.9870224e-06 -71.1254349 29.2999001
v 0.711954892 -50.6618614 47.3710594
v 5.27501106e-06 -35.3434448 48.2588234
v 0.594480217 -73.5399551 31.6327896
v 8.64267349e-06 -79.6229401 21.1908836
v 0.500992298 -81.4119644 22.6904907
v 9.1791153e-06 -86.7199402 13.1240463
v 0.314017057 -87.7423401 13.7451859
v 9.65595245e-06 -93.1222153 4.27754974
v 0.314017057 -88.8352432 14.4510651
v 9.35792923e-06 -89.3720322 14.7740631
v 0.500992298 -83.3120422 24.3743668
v 8.94069672e-06 -84.2522736 25.1556892
v 0.594480217 -76.0950623 34.2413063
v 8.46385956e-06 -77.3647003 35.4576073
v 0.630940795 -65.5119553 44.7580681
v 7.62939453e-06 -66.7859955 46.7572937
v 0.711955011 -52.5554581 54.0797958
v 6.61611557e-06 -53.4108582 56.767807
v 0.711953282 -36.670269 53.6803741
v 0.711952507 -26.3757095 55.3372192
v 4.529953e-06 -25.5945854 49.9735298
v 4.15742397e-06 -20.6048622 49.6562119
v 0.711953402 -38.6048889 61.585453
v 5.54323196e-06 -38.9206085 64.0241089
v 0.711952329 -24.5984116 66.6049194
v 4.48524952e-06 -24.9279938 69.0926514
v 0.711951256 -12.5359116 69.6257019
v 3.21120024e-06 -8.10607147 73.7262039
v 3.36021185e-06 -10.0473404 68.2619247
v 0.711951554 -13.3880539 66.7880707
v 3.34531069e-06 -9.80906677 64.3043976
v 0.711951613 -16.038044 51.2505569
v 3.91900539e-06 -17.522274 48.2563171
v 0.711951375 -13.0184097 62.6933937
v 0.711951137 -11.5617943 47.4573669
v 3.60608101e-06 -13.3476753 44.8751678
v 3.41236591e-06 -10.74366 41.5501099
v 3.33786011e-06 -9.73112106 45.8056488
v 0.711951196 -10.0193863 50.4500275
v 3.01003456e-06 -5.37548447 49.0290833
v 0.711950898 -9.99728775 59.8798752
v 3.1888485e-06 -7.73792267 61.9554253
v 0.711951077 -6.52496719 52.7022629
v 1.43051147e-06 -1.91091788 49.9115944
v 0.711950481 -1.91091812 53.7270355
v 0.711950541 -5.45853806 57.790329
v 2.94297934e-06 -4.50141144 60.4528503
v 0.711950421 -1.910918 57.0679092
v 1.43051125e-06 -1.9109174 59.732605
v 6.31809235e-06 -49.3631744 42.7699966
v 7.15255737e-06 -60.5828629 36.6962318
v -0.630926013 -62.9994049 40.5241585
v 7.9870224e-06 -71.1254349 29.2999001
v -0.711942077 -50.6618614 47.3710594
v 5.27501106e-06 -35.3434448 48.2588234
v -0.594463885 -73.5399475 31.6327934
v 8.64267349e-06 -79.6229401 21.1908836
v -0.500974834 -81.4119644 22.6904945
v 9.1791153e-06 -86.7199402 13.1240463
v -0.313998699 -87.7423401 13.7451859
v 9.65595245e-06 -93.1222153 4.27754974
v -0.313998401 -88.8352432 14.4510651
v 9.35792923e-06 -89.3720322 14.7740631
v -0.500974536 -83.3120422 24.3743668
v 8.94069672e-06 -84.2522736 25.1556892
v -0.594463587 -76.0950546 34.2413025
v 8.46385956e-06 -77.3647003 35.4576073
v -0.630925655 -65.5119476 44.7580719
v 7.62939453e-06 -66.7859955 46.7572937
v -0.711941898 -52.5554543 54.079792
v 6.61611557e-06 -53.4108582 56.767807
v -0.711942494 -36.670269 53.6803741
v -0.711943328 -26.3757057 55.3372154
v 4.529953e-06 -25.5945854 49.9735298
v 4.15742397e-06 -20.6048622 49.6562119
v -0.711942375 -38.6048927 61.5854492
v 5.54323196e-06 -38.9206085 64.0241089
v -0.711943388 -24.5984116 66.6049194
v 4.48524952e-06 -24.9279938 69.0926514
v -0.711944103 -12.5359116 69.6257019
v 3.21120024e-06 -8.10607147 73.7262039
v 3.36021185e-06 -10.0473404 68.2619247
v -0.711944282 -13.3880539 66.7880707
v 3.34531069e-06 -9.80906677 64.3043976
v -0.711943924 -16.038044 51.2505569
v 3.91900539e-06 -17.522274 48.2563171
v -0.711944222 -13.0184059 62.6933899
v -0.711944222 -11.5617943 47.4573669
v 3.60608101e-06 -13.3476753 44.8751678
v 3.41236591e-06 -10.74366 41.5501099
v 3.33786011e-06 -9.73112106 45.8056488
v -0.71194452 -10.0193863 50.4500237
v 3.01003456e-06 -5.37548447 49.0290833
v -0.711944163 -9.99729156 59.8798676
v 3.1888485e-06 -7.73792267 61.9554253
v -0.711944818 -6.52496719 52.7022629
v 1.43051147e-06 -1.91091788 49.9115944
v -0.711944997 -1.91091812 53.7270355
v -0.71194458 -5.45853806 57.7903252
v 2.94297934e-06 -4.50141144 60.4528503
v -0.711944938 -1.910918 57.0679092
v 1.43051125e-06 -1.9109174 59.732605
vt 0.885029256 0.0250522923
vt 0.881357789 0.0491108522
vt 0.882958353 0.0327809267
vt 0.882958353 0.0327809267
vt 0.884788811 0.0564684346
vt 0.881357849 0.0491108559
vt 0.881357789 0.0491108522
vt 0.884788811 0.0564684346
vt 0.882958353 0.0327809267
vt 0.882958353 0.0327809267
vt 0.881357849 0.0491108559
vt 0.885029316 0.0250522904
vt 0.885029256 0.0250522923
vt 0.882958353 0.0327809267
vt 0.889968038 0.0351978391
vt 0.894993544 0.0293739103
vt 0.90589112 0.045026511
vt 0.887570918 0.0155663807
vt 0.910660923 0.0400113091
vt 0.917336643 0.0554358661
vt 0.91849339 0.0428104773
vt 0.921370804 0.0326733142
vt 0.900688291 0.017593408
vt 0.890428901 0.00490026595
vt 0.904087365 0.00749896839
vt 0.922029436 0.0197880883
vt 0.925646663 0.00880477764
vt 0.950009108 0.00678922608
vt 0.935219467 0.0167580266
vt 0.927730262 0.0234692004
vt 0.9123227 0.0276668556
vt 0.889968038 0.0351978391
vt 0.882958353 0.0327809267
vt 0.885029316 0.0250522904
vt 0.894993544 0.0293739103
vt 0.90589112 0.045026511
vt 0.887570977 0.0155663975
vt 0.910660923 0.0400113091
vt 0.917336643 0.0554358661
vt 0.91849339 0.0428104773
vt 0.921370804 0.0326733142
vt 0.900688291 0.017593408
vt 0.890428901 0.00490026595
vt 0.904087365 0.00749896839
vt 0.922029436 0.0197880883
vt 0.925646663 0.00880477764
vt 0.950009108 0.00678922608
vt 0.935219467 0.0167580266
vt 0.927730262 0.0234692004
vt 0.9123227 0.0276668556
vt 0.887570918 0.0155663807
vt 0.877274275 0.0403536223
vt 0.885029256 0.0250522923
vt 0.881357789 0.0491108522
vt 0.885029316 0.0250522904
vt 0.881357849 0.0491108559
vt 0.877274334 0.0403536409
vt 0.887570977 0.0155663975
vt 0.887570977 0.0155663975
vt 0.877274334 0.0403536409
vt 0.872377932 0.0298533291
vt 0.890428901 0.00490026595
vt 0.890428901 0.00490026595
vt 0.872377932 0.0298533291
vt 0.887570918 0.0155663807
vt 0.877274275 0.0403536223
vt 0.69667542 0.0681840256
vt 0.734756589 0.0704653636
vt 0.694963992 0.0816115513
vt 0.658757985 0.0614625253
vt 0.737051547 0.0845756754
vt 0.779686511 0.0676234141
vt 0.655162692 0.0708360597
vt 0.625482202 0.0502255373
vt 0.622528791 0.056550201
vt 0.59605515 0.0373329259
vt 0.594069183 0.0403081141
vt 0.567525327 0.021449171
vt 0.59199959 0.0436020978
vt 0.590952814 0.0451557823
vt 0.619507611 0.0635146797
vt 0.617946923 0.0668202415
vt 0.651534855 0.0811340287
vt 0.649631143 0.0860346928
vt 0.693505347 0.0962605998
vt 0.69257915 0.103288643
vt 0.740397692 0.10514944
vt 0.741476417 0.113514937
vt 0.782942116 0.0839926377
vt 0.812934399 0.0754734203
vt 0.808273196 0.0599505827
vt 0.821394324 0.0527850501
vt 0.787688971 0.107860319
vt 0.789915025 0.114868008
vt 0.831989944 0.103763081
vt 0.834240675 0.110921301
vt 0.868496954 0.0967058465
vt 0.885683775 0.102220207
vt 0.873517573 0.0898651555
vt 0.862601519 0.0900927708
vt 0.869162202 0.0788389817
vt 0.83578521 0.0513347052
vt 0.827979088 0.0450957492
vt 0.858428895 0.078528963
vt 0.843122303 0.0353982262
vt 0.83501941 0.0306572765
vt 0.837874472 0.0183556341
vt 0.845996201 0.0286087096
vt 0.851084173 0.0415592715
vt 0.861873686 0.0318399109
vt 0.863060832 0.0670863464
vt 0.871806622 0.0698561594
vt 0.863400459 0.0432469063
vt 0.872377932 0.0298533291
vt 0.877274334 0.0403536409
vt 0.872720242 0.0556879938
vt 0.878678799 0.0616939552
vt 0.881357849 0.0491108559
vt 0.884788811 0.0564684346
vt 0.734756589 0.0704653636
vt 0.69667542 0.0681840256
vt 0.694963992 0.0816115513
vt 0.658757985 0.0614625253
vt 0.737051547 0.0845756754
vt 0.779686511 0.0676234141
vt 0.655162692 0.0708360597
vt 0.625482202 0.0502255373
vt 0.622528791 0.056550201
vt 0.59605515 0.0373329259
vt 0.594069183 0.0403081141
vt 0.567525327 0.021449171
vt 0.59199959 0.0436020978
vt 0.590952814 0.0451557823
vt 0.619507611 0.0635146797
vt 0.617946923 0.0668202415
vt 0.651534855 0.0811340287
vt 0.649631143 0.0860346928
vt 0.693505347 0.0962605998
vt 0.69257915 0.103288643
vt 0.740397632 0.105149351
vt 0.741476417 0.113514937
vt 0.782942116 0.0839926377
vt 0.812934399 0.0754734203
vt 0.808273196 0.0599505827
vt 0.821394324 0.0527850501
vt 0.787688971 0.107860319
vt 0.789915025 0.114868008
vt 0.831989944 0.103763081
vt 0.834240675 0.110921301
vt 0.868496954 0.0967058465
vt 0.885683775 0.102220207
vt 0.873517573 0.0898651555
vt 0.862601519 0.0900927708
vt 0.869162202 0.0788389817
vt 0.83578521 0.0513347052
vt 0.827979088 0.0450957492
vt 0.858428895 0.078528963
vt 0.843122303 0.0353982262
vt 0.83501941 0.0306572765
vt 0.837874472 0.0183556341
vt 0.845996201 0.0286087096
vt 0.851084173 0.0415592715
vt 0.861873686 0.0318399109
vt 0.863060832 0.0670863464
vt 0.871806622 0.0698561594
vt 0.863400459 0.0432469063
vt 0.872377932 0.0298533291
vt 0.877274275 0.0403536223
vt 0.872720242 0.0556879938
vt 0.878678799 0.0616939552
vt 0.881357789 0.0491108522
vt 0.884788811 0.0564684346
vn -0.966111958 0 0.258123487
vn -0.966111958 0 0.258123457
vn -0.966111958 0 0.258123517
vn 0.96611172 0 0.258124441
vn 0.9661116 0 0.258124501
vn 0.96611172 0 0.258124471
vn -0.966111958 0 0.258123457
vn -0.966111958 0 0.258123487
vn -0.966111958 0 0.258123517
vn 0.96611172 0 0.258124441
vn 0.96611172 0 0.258124471
vn 0.96611172 0 0.258124352
vn -0.995271504 -0.0121573973 0.0963684469
vn 0 -0.0701770708 0.997534513
vn 0 -0.224192843 0.974544823
vn -0.994132102 -0.0276105311 0.104589671
vn 0 -0.378142416 0.925747395
vn -0.99518162 -0.00651996024 -0.0978309214
vn -0.994068623 0.0361121185 0.102583699
vn 0 0.552246332 0.833680987
vn 0 0.995504439 -0.0947152302
vn 0 0.975461185 0.220171601
vn -0.995035529 -0.0119237108 -0.0988032296
vn 0 -0.0697211772 -0.997566462
vn 0 -0.138451204 -0.99036926
vn -0.996054411 0.0317119919 -0.082884863
vn 0 -0.287045956 -0.957916856
vn 0 -0.101200998 -0.994866014
vn 0 0.763241589 0.646113217
vn 0 0.894158602 0.44775039
vn -0.998360574 0.0554812886 0.0140722161
vn 0 -0.224192843 0.974544823
vn 0 -0.0701770708 0.997534513
vn 0.995271504 -0.012157443 0.0963683948
vn 0.994132102 -0.0276105106 0.104590066
vn 0 -0.378142416 0.925747395
vn 0.99518162 -0.00651972089 -0.0978311971
vn 0.994068623 0.0361123905 0.102583587
vn 0 0.552246332 0.833680987
vn 0 0.995504439 -0.0947152302
vn 0 0.975461185 0.220171601
vn 0.995035529 -0.0119235842 -0.0988033935
vn 0 -0.0697211772 -0.997566462
vn 0 -0.138451204 -0.99036926
vn 0.996054411 0.0317120776 -0.0828847066
vn 0 -0.287045956 -0.957916856
vn 0 -0.101200998 -0.994866014
vn 0 0.763241589 0.646113217
vn 0 0.894158602 0.44775039
vn 0.998360574 0.0554813743 0.0140721733
vn -1 0 0
vn -1 0 0
vn -1 0 0
vn -1 0 0
vn 1 0 0
vn 1 0 0
vn 1 0 0
vn 1 0 0
vn 0.981183171 0.00973163918 -0.192833617
vn 0.983032763 0 -0.18343018
vn 0.981280744 0.00924156513 -0.192360893
vn 0.978871524 0.0207330491 -0.20342271
vn -0.978871644 0.0207328442 -0.20342198
vn -0.981280863 0.00924139936 -0.192360178
vn -0.98118341 0.00973147526 -0.192832947
vn -0.983032882 0 -0.18342945
vn 0 0.526030719 -0.850465477
vn 0 0.412541002 -0.910939038
vn 0.998131812 0.0301006455 -0.0531675778
vn 0 0.652038515 -0.758185804
vn 0.998297393 0.0221561342 -0.0539589114
vn 0 0.311002582 -0.950409055
vn 0.99671644 0.0515576974 -0.0624358058
vn 0 0.73353368 -0.679653108
vn 0.995096385 0.0683856234 -0.0714601055
vn 0 0.789561808 -0.613671124
vn 0.992411256 0.0897443071 -0.0840582997
vn 0 0.391740978 -0.920075476
vn 0.985982835 -0.158340991 0.0525927134
vn 0 -0.914858937 0.403773427
vn 0.990347147 -0.122996971 0.0639075786
vn 0 -0.855139434 0.518398046
vn 0.993194222 -0.0915772393 0.071963504
vn 0 -0.765821159 0.64305371
vn 0.99552983 -0.0652968511 0.0682403743
vn 0 -0.658610046 0.752484381
vn 0.996784329 -0.0451125987 0.0662255138
vn 0 -0.528156102 0.84914726
vn 0.998897076 0.0144298542 -0.0446808338
vn 0.999593556 0.000942362996 -0.0284941066
vn 0 0.0887391493 -0.996054888
vn 0 -0.335424244 -0.942067206
vn 0.99713099 -0.0307594575 0.069163911
vn 0 -0.386033326 0.922484875
vn 0.997964978 -0.0191907417 0.0608074293
vn 0 -0.291912526 0.956444979
vn 0.988857746 -0.00462972047 0.148791373
vn 0 0.0591254793 0.998250544
vn 0 0.978051424 -0.208363608
vn 0.999533772 0.0305276308 -0.000552229641
vn 0 0.920878172 0.389850527
vn 0.999361336 -0.0178049002 -0.030981604
vn 0 -0.566987216 -0.823726535
vn 0.999763191 0.0195046831 0.009646249
vn 0.994599462 0.000864822068 -0.103783883
vn 0 -0.71203953 -0.702139437
vn 0 -0.0756608173 -0.997133613
vn 0 0.881667435 -0.471871287
vn 0.999040782 0.0277803447 -0.0338470601
vn 0 0.452028841 -0.892003298
vn 0.998080611 0.0355723612 0.05069286
vn 0 0.549276412 0.835640728
vn 0.998340726 0.0219150484 -0.0532504506
vn 0 0.22807835 -0.973642766
vn 0.996739209 0.01749493 -0.0787705928
vn 0.997312546 0.0249904431 0.0688708648
vn 0 0.356760979 0.934195638
vn 0.99460125 0.0207065344 0.101684228
vn 0 0.224183843 0.97454685
vn 0 0.412541002 -0.910939038
vn 0 0.526030719 -0.850465477
vn -0.998131812 0.0301004741 -0.0531675592
vn 0 0.652038515 -0.758185804
vn -0.998297393 0.0221560076 -0.0539589636
vn 0 0.311002582 -0.950409055
vn -0.99671644 0.051557634 -0.0624358803
vn 0 0.73353368 -0.679653108
vn -0.995096385 0.0683854595 -0.0714601427
vn 0 0.789561808 -0.613671124
vn -0.992411375 0.0897442251 -0.0840582997
vn 0 0.391740978 -0.920075476
vn -0.985982835 -0.158341184 0.0525926873
vn 0 -0.914858937 0.403773427
vn -0.990347147 -0.122997165 0.0639078692
vn 0 -0.855139434 0.518398046
vn -0.993194222 -0.0915772468 0.0719633251
vn 0 -0.765821159 0.64305371
vn -0.99552983 -0.0652970076 0.0682404116
vn 0 -0.658610046 0.752484381
vn -0.996784329 -0.045112703 0.0662254393
vn 0 -0.528156102 0.84914726
vn -0.998897076 0.0144297024 -0.0446808599
vn -0.999593556 0.000942211424 -0.0284940973
vn 0 0.0887391493 -0.996054888
vn 0 -0.335424244 -0.942067206
vn -0.99713099 -0.0307596214 0.069163911
vn 0 -0.386033326 0.922484875
vn -0.997964978 -0.019190887 0.0608074106
vn 0 -0.291912526 0.956444979
vn -0.988857746 -0.00462976284 0.148791239
vn 0 0.0591254793 0.998250544
vn 0 0.978051424 -0.208363608
vn -0.999533772 0.0305274632 -0.000552211714
vn 0 0.920878172 0.389850527
vn -0.999361336 -0.017805038 -0.0309815742
vn 0 -0.566987216 -0.823726535
vn -0.999763191 0.0195046011 0.0096462816
vn -0.994599462 0.000864609843 -0.103783987
vn 0 -0.71203953 -0.702139437
vn 0 -0.0756608173 -0.997133613
vn 0 0.881667435 -0.471871287
vn -0.999040782 0.0277802218 -0.0338470824
vn 0 0.452028841 -0.892003298
vn -0.998080611 0.035572242 0.0506928191
vn 0 0.549276412 0.835640728
vn -0.998340726 0.0219148695 -0.0532504134
vn 0 0.22807835 -0.973642766
vn -0.996739209 0.0174947176 -0.0787703693
vn -0.997312546 0.0249901246 0.0688707083
vn 0 0.356760979 0.934195638
vn -0.99460125 0.0207062028 0.101683885
vn 0 0.224183843 0.97454685
g submesh_0
usemtl submesh_0
f 1/1/1 2/2/2 3/3/3
f 4/4/4 5/5/5 6/6/6
f 7/7/7 8/8/8 9/9/9
f 10/10/10 11/11/11 12/12/12
f 13/13/13 14/14/14 15/15/15
f 16/16/16 13/13/13 15/15/15
f 16/16/16 15/15/15 17/17/17
f 18/18/18 13/13/13 16/16/16
f 19/19/19 16/16/16 17/17/17
f 20/20/20 19/19/19 17/17/17
f 21/21/21 19/19/19 20/20/20
f 21/21/21 22/22/22 19/19/19
f 23/23/23 18/18/18 16/16/16
f 24/24/24 18/18/18 23/23/23
f 25/25/25 24/24/24 23/23/23
f 25/25/25 23/23/23 26/26/26
f 27/27/27 25/25/25 26/26/26
f 27/27/27 26/26/26 28/28/28
f 28/28/28 26/26/26 29/29/29
f 29/29/29 26/26/26 30/30/30
f 30/30/30 26/26/26 22/22/22
f 31/31/31 16/16/16 19/19/19
f 31/31/31 23/23/23 16/16/16
f 26/26/26 23/23/23 31/31/31
f 22/22/22 31/31/31 19/19/19
f 26/26/26 31/31/31 22/22/22
f 32/32/32 33/33/33 34/34/34
f 35/35/35 32/32/32 34/34/34
f 36/36/36 32/32/32 35/35/35
f 35/35/35 34/34/34 37/37/37
f 38/38/38 36/36/36 35/35/35
f 39/39/39 36/36/36 38/38/38
f 40/40/40 39/39/39 38/38/38
f 41/41/41 40/40/40 38/38/38
f 42/42/42 35/35/35 37/37/37
f 42/42/42 37/37/37 43/43/43
f 44/44/44 42/42/42 43/43/43
f 45/45/45 42/42/42 44/44/44
f 46/46/46 45/45/45 44/44/44
f 46/46/46 47/47/47 45/45/45
f 47/47/47 48/48/48 45/45/45
f 48/48/48 49/49/49 45/45/45
f 49/49/49 41/41/41 45/45/45
f 50/50/50 38/38/38 35/35/35
f 50/50/50 35/35/35 42/42/42
f 50/50/50 41/41/41 38/38/38
f 45/45/45 50/50/50 42/42/42
f 41/41/41 50/50/50 45/45/45
f 51/51/51 52/52/52 53/53/53
f 52/52/52 54/54/54 53/53/53
f 55/55/55 56/56/56 57/57/57
f 55/55/55 57/57/57 58/58/58
f 59/59/59 60/60/60 61/61/61
f 59/59/59 61/61/61 62/62/62
f 63/63/63 64/64/64 65/65/65
f 64/64/64 66/66/66 65/65/65
f 67/67/67 68/68/68 69/69/69
f 67/67/67 69/69/69 70/70/70
f 68/68/68 71/71/71 69/69/69
f 68/68/68 72/72/72 71/71/71
f 69/69/69 73/73/73 70/70/70
f 70/70/70 73/73/73 74/74/74
f 73/73/73 75/75/75 74/74/74
f 74/74/74 75/75/75 76/76/76
f 75/75/75 77/77/77 76/76/76
f 76/76/76 77/77/77 78/78/78
f 77/77/77 79/79/79 78/78/78
f 77/77/77 75/75/75 79/79/79
f 79/79/79 80/80/80 78/78/78
f 75/75/75 81/81/81 79/79/79
f 79/79/79 81/81/81 80/80/80
f 75/75/75 73/73/73 81/81/81
f 81/81/81 82/82/82 80/80/80
f 73/73/73 83/83/83 81/81/81
f 81/81/81 83/83/83 82/82/82
f 73/73/73 69/69/69 83/83/83
f 83/83/83 84/84/84 82/82/82
f 69/69/69 85/85/85 83/83/83
f 83/83/83 85/85/85 84/84/84
f 69/69/69 71/71/71 85/85/85
f 85/85/85 86/86/86 84/84/84
f 85/85/85 87/87/87 86/86/86
f 71/71/71 87/87/87 85/85/85
f 87/87/87 88/88/88 86/86/86
f 71/71/71 89/89/89 87/87/87
f 72/72/72 89/89/89 71/71/71
f 90/90/90 89/89/89 72/72/72
f 91/91/91 90/90/90 72/72/72
f 90/90/90 91/91/91 92/92/92
f 87/87/87 93/93/93 88/88/88
f 89/89/89 93/93/93 87/87/87
f 90/90/90 93/93/93 89/89/89
f 93/93/93 94/94/94 88/88/88
f 93/93/93 95/95/95 94/94/94
f 90/90/90 95/95/95 93/93/93
f 95/95/95 96/96/96 94/94/94
f 95/95/95 97/97/97 96/96/96
f 97/97/97 98/98/98 96/96/96
f 99/99/99 98/98/98 97/97/97
f 100/100/100 97/97/97 95/95/95
f 100/100/100 99/99/99 97/97/97
f 90/90/90 100/100/100 95/95/95
f 101/101/101 99/99/99 100/100/100
f 90/90/90 92/92/92 102/102/102
f 92/92/92 103/103/103 102/102/102
f 100/100/100 90/90/90 104/104/104
f 104/104/104 101/101/101 100/100/100
f 90/90/90 102/102/102 104/104/104
f 105/105/105 102/102/102 103/103/103
f 105/105/105 103/103/103 106/106/106
f 107/107/107 105/105/105 106/106/106
f 107/107/107 108/108/108 105/105/105
f 102/102/102 105/105/105 109/109/109
f 108/108/108 109/109/109 105/105/105
f 104/104/104 102/102/102 109/109/109
f 108/108/108 110/110/110 109/109/109
f 104/104/104 111/111/111 101/101/101
f 104/104/104 109/109/109 111/111/111
f 111/111/111 112/112/112 101/101/101
f 110/110/110 113/113/113 109/109/109
f 109/109/109 113/113/113 111/111/111
f 110/110/110 114/114/114 113/113/113
f 114/114/114 115/115/115 113/113/113
f 111/111/111 116/116/116 112/112/112
f 113/113/113 116/116/116 111/111/111
f 113/113/113 115/115/115 116/116/116
f 116/116/116 117/117/117 112/112/112
f 115/115/115 118/118/118 116/116/116
f 119/119/119 117/117/117 116/116/116
f 118/118/118 119/119/119 116/116/116
f 120/120/120 121/121/121 122/122/122
f 121/121/121 123/123/123 122/122/122
f 124/124/124 120/120/120 122/122/122
f 125/125/125 120/120/120 124/124/124
f 123/123/123 126/126/126 122/122/122
f 123/123/123 127/127/127 126/126/126
f 127/127/127 128/128/128 126/126/126
f 127/127/127 129/129/129 128/128/128
f 129/129/129 130/130/130 128/128/128
f 129/129/129 131/131/131 130/130/130
f 130/130/130 131/131/131 132/132/132
f 128/128/128 130/130/130 132/132/132
f 132/132/132 131/131/131 133/133/133
f 134/134/134 128/128/128 132/132/132
f 134/134/134 132/132/132 133/133/133
f 126/126/126 128/128/128 134/134/134
f 135/135/135 134/134/134 133/133/133
f 136/136/136 126/126/126 134/134/134
f 136/136/136 134/134/134 135/135/135
f 122/122/122 126/126/126 136/136/136
f 137/137/137 136/136/136 135/135/135
f 138/138/138 122/122/122 136/136/136
f 138/138/138 136/136/136 137/137/137
f 124/124/124 122/122/122 138/138/138
f 139/139/139 138/138/138 137/137/137
f 140/140/140 138/138/138 139/139/139
f 140/140/140 124/124/124 138/138/138
f 141/141/141 140/140/140 139/139/139
f 142/142/142 124/124/124 140/140/140
f 142/142/142 125/125/125 124/124/124
f 125/125/125 142/142/142 143/143/143
f 144/144/144 125/125/125 143/143/143
f 143/143/143 145/145/145 144/144/144
f 146/146/146 140/140/140 141/141/141
f 146/146/146 142/142/142 140/140/140
f 143/143/143 142/142/142 146/146/146
f 147/147/147 146/146/146 141/141/141
f 148/148/148 146/146/146 147/147/147
f 143/143/143 146/146/146 148/148/148
f 149/149/149 148/148/148 147/147/147
f 150/150/150 148/148/148 149/149/149
f 151/151/151 150/150/150 149/149/149
f 150/150/150 151/151/151 152/152/152
f 153/153/153 148/148/148 150/150/150
f 153/153/153 150/150/150 152/152/152
f 143/143/143 148/148/148 153/153/153
f 153/153/153 152/152/152 154/154/154
f 143/143/143 155/155/155 145/145/145
f 145/145/145 155/155/155 156/156/156
f 153/153/153 157/157/157 143/143/143
f 157/157/157 153/153/153 154/154/154
f 143/143/143 157/157/157 155/155/155
f 158/158/158 156/156/156 155/155/155
f 158/158/158 159/159/159 156/156/156
f 160/160/160 159/159/159 158/158/158
f 160/160/160 158/158/158 161/161/161
f 155/155/155 162/162/162 158/158/158
f 161/161/161 158/158/158 162/162/162
f 157/157/157 162/162/162 155/155/155
f 163/163/163 161/161/161 162/162/162
f 164/164/164 157/157/157 154/154/154
f 157/157/157 164/164/164 162/162/162
f 165/165/165 164/164/164 154/154/154
f 166/166/166 163/163/163 162/162/162
f 162/162/162 164/164/164 166/166/166
f 167/167/167 163/163/163 166/166/166
f 168/168/168 167/167/167 166/166/166
f 169/169/169 164/164/164 165/165/165
f 166/166/166 164/164/164 169/169/169
f 168/168/168 166/166/166 169/169/169
f 170/170/170 169/169/169 165/165/165
f 171/171/171 168/168/168 169/169/169
f 169/169/169 170/170/170 172/172/172
f 171/171/171 169/169/169 172/172/172
