o rock_01
v -0.0490010679 -0.350408703 -0.273492455
v -0.283154398 -0.384484768 -0.0391154289
v -0.215866178 -0.329206288 -0.273082495
v -0.0848058164 -0.345859259 0.02884233
v -0.283154398 -0.384484768 -0.0391154289
v 0.0258850753 -0.286559731 -0.130590081
v 0.0258850753 -0.286559731 -0.130590081
v -0.283154398 -0.384484768 -0.0391154289
v -0.0490010679 -0.350408703 -0.273492455
v -0.542014182 -0.287764966 -0.177446365
v -0.400367945 -0.305762947 -0.294900417
v -0.215866178 -0.329206288 -0.273082495
v -0.283154398 -0.384484768 -0.0391154289
v -0.490421712 -0.369735181 0.00429105759
v -0.0848058164 -0.345859259 0.02884233
v -0.137876391 -0.339115947 0.167603374
v -0.357428968 -0.311218917 0.219144046
v -0.283154398 -0.384484768 -0.0391154289
v -0.488955021 -0.258829117 0.163627565
v -0.490421712 -0.369735181 0.00429105759
v -0.283154398 -0.384484768 -0.0391154289
v -0.357428968 -0.311218917 0.219144046
v -0.634534717 -0.276009023 0.186667025
v -0.68587172 -0.289181769 0.0452227592
v -0.490421712 -0.369735181 0.00429105759
v -0.488955021 -0.258829117 0.163627565
v -0.542014182 -0.287764966 -0.177446365
v -0.490421712 -0.369735181 0.00429105759
v -0.68587172 -0.289181769 0.0452227592
v -0.692526817 -0.268640339 -0.155157804
v -0.832650781 -0.250835776 0.075961709
v -0.68587172 -0.289181769 0.0452227592
v -0.634534717 -0.276009023 0.186667025
v -0.765396595 -0.259381294 0.1624403
v -0.841338992 -0.249731824 -0.100713968
v -0.692526817 -0.268640339 -0.155157804
v -0.68587172 -0.289181769 0.0452227592
v -0.891208053 -0.243395329 0.000665903091
v -0.832650781 -0.250835776 0.075961709
v 0.229190081 -0.0786596611 -0.170628309
v 0.121101946 -0.0786596611 -0.375244021
v -0.119746119 -0.0786596611 -0.374656796
v -0.168234974 -0.00529542379 -0.207401499
v 0.069422394 -0.0786596611 0.0576560497
v -0.21686776 -0.0365776941 -0.039649725
v -0.119746119 -0.0786596611 -0.374656796
v -0.386050105 -0.0786596611 -0.405896902
v -0.590497732 -0.0786596611 -0.237719655
v -0.168234974 -0.00529542379 -0.207401499
v -0.554675698 -0.0786596537 -0.112541027
v -0.21686776 -0.0365776941 -0.039649725
v -0.516030788 -0.0494262129 0.0225020647
v -0.268054008 -0.0345098116 0.136909962
v -0.324073315 -0.0786596611 0.330140531
v -0.00717803836 -0.0786596611 0.256341755
v 0.069422394 -0.0786596611 0.0576560497
v -0.21686776 -0.0365776941 -0.039649725
v -0.513913751 -0.0786596611 0.250649035
v -0.324073315 -0.0786596611 0.330140531
v -0.268054008 -0.0345098116 0.136909962
v -0.514851391 -0.0786596537 0.149602741
v -0.516030788 -0.0494262129 0.0225020647
v -0.21686776 -0.0365776941 -0.039649725
v -0.724038959 -0.0786596611 0.283638239
v -0.513913751 -0.0786596611 0.250649035
v -0.514851391 -0.0786596537 0.149602741
v -0.762230754 -0.0489866622 0.179251179
v -0.798137248 -0.0786596462 0.0811104774
v -0.516030788 -0.0494262129 0.0225020647
v -0.802250028 -0.0429819524 -0.0417366847
v -0.554675698 -0.0786596537 -0.112541027
v -0.590497732 -0.0786596611 -0.237719655
v -0.807742953 -0.0786596611 -0.205805659
v -0.912920833 -0.0786596611 0.248948991
v -0.724038959 -0.0786596611 0.283638239
v -0.762230754 -0.0489866622 0.179251179
v -1.00999331 -0.0786596462 0.125124097
v -0.798137248 -0.0786596462 0.0811104774
v -0.807742953 -0.0786596611 -0.205805659
v -1.02253366 -0.0786596611 -0.127849936
v -1.09451306 -0.0786596611 0.0173113346
v -0.802250028 -0.0429819524 -0.0417366847
v -0.798137248 -0.0786596462 0.0811104774
v -1.00999331 -0.0786596462 0.125124097
v -0.119746119 -0.0786596611 -0.374656796
v 0.121101946 -0.0786596611 -0.375244021
v -0.0490010679 -0.350408703 -0.273492455
v -0.215866178 -0.329206288 -0.273082495
v 0.121101946 -0.0786596611 -0.375244021
v 0.229190081 -0.0786596611 -0.170628309
v 0.0258850753 -0.286559731 -0.130590081
v -0.0490010679 -0.350408703 -0.273492455
v 0.229190081 -0.0786596611 -0.170628309
v 0.069422394 -0.0786596611 0.0576560497
v -0.0848058164 -0.345859259 0.02884233
v 0.0258850753 -0.286559731 -0.130590081
v -0.590497732 -0.0786596611 -0.237719655
v -0.386050105 -0.0786596611 -0.405896902
v -0.400367945 -0.305762947 -0.294900417
v -0.542014182 -0.287764966 -0.177446365
v -0.386050105 -0.0786596611 -0.405896902
v -0.119746119 -0.0786596611 -0.374656796
v -0.215866178 -0.329206288 -0.273082495
v -0.400367945 -0.305762947 -0.294900417
v 0.069422394 -0.0786596611 0.0576560497
v -0.00717803836 -0.0786596611 0.256341755
v -0.137876391 -0.339115947 0.167603374
v -0.0848058164 -0.345859259 0.02884233
v -0.00717803836 -0.0786596611 0.256341755
v -0.324073315 -0.0786596611 0.330140531
v -0.357428968 -0.311218917 0.219144046
v -0.137876391 -0.339115947 0.167603374
v -0.324073315 -0.0786596611 0.330140531
v -0.513913751 -0.0786596611 0.250649035
v -0.488955021 -0.258829117 0.163627565
v -0.357428968 -0.311218917 0.219144046
v -0.513913751 -0.0786596611 0.250649035
v -0.724038959 -0.0786596611 0.283638239
v -0.634534717 -0.276009023 0.186667025
v -0.488955021 -0.258829117 0.163627565
v -0.807742953 -0.0786596611 -0.205805659
v -0.590497732 -0.0786596611 -0.237719655
v -0.542014182 -0.287764966 -0.177446365
v -0.692526817 -0.268640339 -0.155157804
v -0.724038959 -0.0786596611 0.283638239
v -0.912920833 -0.0786596611 0.248948991
v -0.765396595 -0.259381294 0.1624403
v -0.634534717 -0.276009023 0.186667025
v -0.912920833 -0.0786596611 0.248948991
v -0.832650781 -0.250835776 0.075961709
v -0.765396595 -0.259381294 0.1624403
v -1.00999331 -0.0786596462 0.125124097
v -0.891208053 -0.243395329 0.000665903091
v -1.09451306 -0.0786596611 0.0173113346
v -1.09451306 -0.0786596611 0.0173113346
v -1.02253366 -0.0786596611 -0.127849936
v -0.841338992 -0.249731824 -0.100713968
v -0.891208053 -0.243395329 0.000665903091
v -1.02253366 -0.0786596611 -0.127849936
v -0.807742953 -0.0786596611 -0.205805659
v -0.692526817 -0.268640339 -0.155157804
v -0.841338992 -0.249731824 -0.100713968
vt 0.704327404 0.155751824
vt 0.467455208 0.291491747
vt 0.584353507 0.113872111
vt 0.59000653 0.398214906
vt 0.467455208 0.291491747
vt 0.716236115 0.293584973
vt 0.716236115 0.293584973
vt 0.467455208 0.291491747
vt 0.704327404 0.155751824
vt 0.322064489 0.110912085
vt 0.458225965 0.0490377545
vt 0.584353507 0.113872111
vt 0.467455208 0.291491747
vt 0.305860966 0.275159597
vt 0.59000653 0.398214906
vt 0.511221707 0.500226855
vt 0.338419586 0.487553328
vt 0.467455208 0.291491747
vt 0.26021865 0.408088177
vt 0.305860966 0.275159597
vt 0.467455208 0.291491747
vt 0.338419586 0.487553328
vt 0.148901403 0.390420467
vt 0.153479993 0.2597588
vt 0.305860966 0.275159597
vt 0.26021865 0.408088177
vt 0.322064489 0.110912085
vt 0.305860966 0.275159597
vt 0.153479993 0.2597588
vt 0.207424223 0.0913715363
vt 0.0390449166 0.248193115
vt 0.153479993 0.2597588
vt 0.148901403 0.390420467
vt 0.062007606 0.337154359
vt 0.0845817924 0.0990122855
vt 0.207424223 0.0913715363
vt 0.153479993 0.2597588
vt 0.019051671 0.170735627
vt 0.0390449166 0.248193115
vt -0.0598776862 0.953008056
vt 0.0217782333 1.12751758
vt 0.203728437 1.12701666
vt 0.240359664 0.984370589
vt 0.0608198754 0.758312345
vt 0.277099639 0.841301084
vt 0.203728437 1.12701666
vt 0.404909521 1.15366042
vt 0.559360802 1.01022792
vt 0.240359664 0.984370589
vt 0.532298803 0.903467417
vt 0.277099639 0.841301084
vt 0.50310415 0.788293958
vt 0.315768629 0.690719485
vt 0.358088762 0.525919914
vt 0.118688166 0.588860273
vt 0.0608198754 0.758312345
vt 0.277099639 0.841301084
vt 0.501504958 0.59371531
vt 0.358088762 0.525919914
vt 0.315768629 0.690719485
vt 0.50221324 0.679894209
vt 0.50310415 0.788293958
vt 0.277099639 0.841301084
vt 0.660245359 0.56558013
vt 0.501504958 0.59371531
vt 0.50221324 0.679894209
vt 0.689097524 0.65460825
vt 0.7162233 0.738309026
vt 0.50310415 0.788293958
vt 0.71933037 0.843081057
vt 0.532298803 0.903467417
vt 0.559360802 1.01022792
vt 0.723480046 0.983009696
vt 0.802937329 0.595165253
vt 0.660245359 0.56558013
vt 0.689097524 0.65460825
vt 0.876271427 0.700771213
vt 0.7162233 0.738309026
vt 0.723480046 0.983009696
vt 0.885745108 0.916523933
vt 0.940122306 0.792720914
vt 0.71933037 0.843081057
vt 0.7162233 0.738309026
vt 0.876271427 0.700771213
vt 1.09534502 0.662457347
vt 0.92511791 0.662974119
vt 1.13551903 0.509639919
vt 1.21780825 0.509390354
vt 0.92511791 0.662974119
vt 0.848723054 0.482950896
vt 0.989809752 0.447724849
vt 1.13551903 0.509639919
vt 0.848723054 0.482950896
vt 0.961644351 0.282103777
vt 1.15317607 0.325524509
vt 0.989809752 0.447724849
vt 1.42806435 0.541978538
vt 1.28356409 0.689942777
vt 1.3087945 0.522676945
vt 1.37864733 0.45114997
vt 1.28356409 0.689942777
vt 1.09534502 0.662457347
vt 1.21780825 0.509390354
vt 1.3087945 0.522676945
vt 0.961644351 0.282103777
vt 1.01578403 0.107297882
vt 1.17934787 0.241021931
vt 1.15317607 0.325524509
vt 1.01578403 0.107297882
vt 1.23976016 0.0423689634
vt 1.28761959 0.209634796
vt 1.17934787 0.241021931
vt 1.23976016 0.0423689634
vt 1.37393606 0.112306431
vt 1.35248125 0.243443161
vt 1.28761959 0.209634796
vt 1.37393606 0.112306431
vt 1.5224489 0.0832821876
vt 1.42427349 0.229412585
vt 1.35248125 0.243443161
vt 1.58160937 0.51390034
vt 1.42806435 0.541978538
vt 1.37864733 0.45114997
vt 1.45287204 0.437576681
vt 1.5224489 0.0832821876
vt 1.65594733 0.11380212
vt 1.48880756 0.244166136
vt 1.42427349 0.229412585
vt 1.65594733 0.11380212
vt 1.52197385 0.29682979
vt 1.48880756 0.244166136
vt 1.72455633 0.222744659
vt 1.55085111 0.342683315
vt 1.78429353 0.317599535
vt 1.78429353 0.317599535
vt 1.73341978 0.44531408
vt 1.52625835 0.404421479
vt 1.55085111 0.342683315
vt 1.73341978 0.44531408
vt 1.58160937 0.51390034
vt 1.45287204 0.437576681
vt 1.52625835 0.404421479
vn -0.12229947 -0.95745492 -0.261386722
vn -0.122299477 -0.95745492 -0.261386722
vn -0.122299477 -0.95745492 -0.261386722
vn 0.247663587 -0.951599538 -0.181991354
vn 0.247663587 -0.951599538 -0.181991383
vn 0.247663617 -0.951599538 -0.181991383
vn 0.353428364 -0.908998072 0.220931754
vn 0.353428394 -0.908998072 0.220931754
vn 0.353428364 -0.908998072 0.220931739
vn -0.172012657 -0.949748039 -0.261515409
vn -0.172012672 -0.949748039 -0.261515439
vn -0.172012657 -0.949748039 -0.261515439
vn -0.172012672 -0.949748039 -0.261515409
vn -0.172012672 -0.949748039 -0.261515409
vn 0.0171675012 -0.979067147 0.20281215
vn 0.0171675012 -0.979067147 0.20281215
vn 0.017167503 -0.979067147 0.20281215
vn 0.017167503 -0.979067147 0.20281215
vn -0.19341211 -0.909697294 0.36748144
vn -0.19341208 -0.909697294 0.36748144
vn -0.19341208 -0.909697294 0.36748147
vn -0.193412095 -0.909697294 0.36748147
vn -0.0959730595 -0.914111674 0.39394024
vn -0.095973067 -0.914111674 0.39394024
vn -0.0959730595 -0.914111674 0.39394024
vn -0.0959730595 -0.914111674 0.39394024
vn -0.305172652 -0.93039149 -0.203079686
vn -0.305172652 -0.93039149 -0.203079686
vn -0.305172592 -0.93039149 -0.203079671
vn -0.305172652 -0.93039149 -0.203079686
vn -0.190177321 -0.974543154 0.118736416
vn -0.190177292 -0.974543154 0.118736424
vn -0.190177336 -0.974543154 0.118736409
vn -0.190177307 -0.974543154 0.118736409
vn -0.192139834 -0.9805125 -0.0409562923
vn -0.192139864 -0.9805125 -0.040956296
vn -0.192139849 -0.9805125 -0.0409562923
vn -0.192139849 -0.9805125 -0.040956296
vn -0.192139864 -0.9805125 -0.0409562923
vn 0.132821381 0.991124332 -0.00557187945
vn 0.123419523 0.969646633 -0.211076096
vn 0.123419508 0.969646633 -0.211076111
vn 0.133372664 0.990988672 0.0123784533
vn 0.136154652 0.979417264 0.149009347
vn 0.136154637 0.979417264 0.149009362
vn -0.107452594 0.978092134 -0.178296492
vn -0.107452594 0.978092134 -0.178296492
vn -0.107452594 0.978092134 -0.178296521
vn -0.111685023 0.98432368 -0.136504471
vn -0.11374744 0.98679775 -0.115289204
vn -0.124173991 0.992256999 0.00261805067
vn -0.124173976 0.992256999 0.00261805067
vn 0.115548648 0.988351524 0.0990439281
vn 0.0553372949 0.969780505 0.237620875
vn 0.124416955 0.989167452 0.0778981447
vn 0.139290944 0.989361107 0.0419822335
vn 0.139290944 0.989361107 0.0419822372
vn -0.118796356 0.984951019 0.125534683
vn -0.118796341 0.984951019 0.125534683
vn -0.102307536 0.990546346 0.0913852379
vn -0.105501249 0.989579856 0.0979858413
vn -0.0935950354 0.992900133 0.0734118894
vn -0.0935950428 0.992900133 0.0734118968
vn 0.0815355927 0.988513529 0.127251655
vn 0.0815355852 0.988513529 0.12725167
vn 0.0340987444 0.998087049 0.05157106
vn 0.0308543611 0.998446524 0.0463958122
vn 0.017553214 0.999602377 0.0220680423
vn 0.0175532158 0.999602377 0.0220680442
vn 0.0302645061 0.998673439 -0.0416574255
vn 0.0326559134 0.998023033 -0.0536985584
vn 0.0475282706 0.990509629 -0.128964826
vn 0.0475282669 0.990509629 -0.128964812
vn -0.0979090482 0.994854152 -0.0260575823
vn -0.0534593351 0.955202579 0.291084319
vn -0.0913375691 0.995489776 0.0256440826
vn -0.103375919 0.992126584 -0.0706980005
vn -0.103375912 0.992126584 -0.0706980005
vn -0.106175624 0.984938383 -0.136466473
vn -0.106175631 0.984938383 -0.136466473
vn -0.0713749677 0.997303724 0.0170566645
vn -0.0784483328 0.996826947 -0.0134864217
vn -0.0357706919 0.985447943 0.166170776
vn -0.0357706882 0.985447943 0.166170791
vn -0.0206718873 -0.353527904 -0.935195446
vn -0.0206718873 -0.353527904 -0.935195446
vn -0.0206718855 -0.353527904 -0.935195446
vn -0.0206718873 -0.353527904 -0.935195565
vn 0.722188354 -0.639877081 -0.262681067
vn 0.722188354 -0.639876962 -0.262681037
vn 0.722188354 -0.639877021 -0.262681037
vn 0.722188354 -0.639877021 -0.262681097
vn 0.727881968 -0.53771013 0.425506473
vn 0.727881968 -0.537710071 0.425506473
vn 0.727881968 -0.537710011 0.425506473
vn 0.727881968 -0.537710011 0.425506473
vn -0.610947907 -0.330335319 -0.719458938
vn -0.610947907 -0.330335319 -0.719458938
vn -0.610947967 -0.330335319 -0.719458938
vn -0.610947907 -0.330335349 -0.719458938
vn 0.0843631253 -0.421355575 -0.902963042
vn 0.0843631253 -0.421355605 -0.902963042
vn 0.0843631253 -0.421355575 -0.902963042
vn 0.0843631178 -0.421355575 -0.902963042
vn 0.802611411 -0.504354298 0.318498999
vn 0.80261147 -0.504354298 0.318498969
vn 0.802611411 -0.504354298 0.318498999
vn 0.80261147 -0.504354298 0.318498969
vn 0.185499951 -0.421366006 0.887716472
vn 0.185499951 -0.421366006 0.887716353
vn 0.185499966 -0.421366006 0.887716472
vn 0.185499966 -0.421366006 0.887716472
vn -0.410028994 -0.387738883 0.825551152
vn -0.410029024 -0.387738883 0.825551152
vn -0.410028994 -0.387738883 0.825551152
vn -0.410028994 -0.387738883 0.825551152
vn 0.161581412 -0.392334789 0.905519128
vn 0.161581397 -0.392334789 0.905519128
vn 0.161581382 -0.392334729 0.905519128
vn 0.161581382 -0.392334789 0.905519128
vn -0.154414162 -0.322866857 -0.933762968
vn -0.154414147 -0.322866827 -0.933762968
vn -0.154414147 -0.322866857 -0.933762968
vn -0.154414147 -0.322866857 -0.933762968
vn -0.180928528 -0.518891454 0.835473895
vn -0.180928484 -0.518891454 0.835473776
vn -0.180928484 -0.518891454 0.835473776
vn -0.180928484 -0.518891454 0.835473776
vn -0.579104125 -0.696192384 0.424210459
vn -0.579104125 -0.696192384 0.424210459
vn -0.579104066 -0.696192384 0.424210459
vn -0.579104066 -0.696192384 0.424210459
vn -0.563321769 -0.716736972 0.411043376
vn -0.563321769 -0.716736972 0.411043376
vn -0.624981046 -0.724670589 -0.290260345
vn -0.624981046 -0.724670589 -0.290260345
vn -0.624981105 -0.724670589 -0.290260375
vn -0.624981046 -0.724670589 -0.290260345
vn -0.326453477 -0.447384864 -0.832631409
vn -0.326453477 -0.447384804 -0.83263129
vn -0.326453507 -0.447384804 -0.83263129
vn -0.326453507 -0.447384804 -0.83263129
g submesh_0
usemtl submesh_0
f 1/1/1 2/2/2 3/3/3
f 4/4/4 5/5/5 6/6/6
f 7/7/7 8/8/8 9/9/9
f 10/10/10 11/11/11 12/12/12
f 12/12/12 13/13/13 10/10/10
f 13/13/13 14/14/14 10/10/10
f 15/15/15 16/16/16 17/17/17
f 15/15/15 17/17/17 18/18/18
f 19/19/19 20/20/20 21/21/21
f 19/19/19 21/21/21 22/22/22
f 23/23/23 24/24/24 25/25/25
f 23/23/23 25/25/25 26/26/26
f 27/27/27 28/28/28 29/29/29
f 27/27/27 29/29/29 30/30/30
f 31/31/31 32/32/32 33/33/33
f 31/31/31 33/33/33 34/34/34
f 35/35/35 36/36/36 37/37/37
f 37/37/37 38/38/38 35/35/35
f 37/37/37 39/39/39 38/38/38
f 40/40/40 41/41/41 42/42/42
f 40/40/40 42/42/42 43/43/43
f 44/44/44 40/40/40 43/43/43
f 44/44/44 43/43/43 45/45/45
f 46/46/46 47/47/47 48/48/48
f 48/48/48 49/49/49 46/46/46
f 48/48/48 50/50/50 49/49/49
f 50/50/50 51/51/51 49/49/49
f 50/50/50 52/52/52 51/51/51
f 53/53/53 54/54/54 55/55/55
f 56/56/56 53/53/53 55/55/55
f 56/56/56 57/57/57 53/53/53
f 58/58/58 59/59/59 60/60/60
f 58/58/58 60/60/60 61/61/61
f 60/60/60 62/62/62 61/61/61
f 60/60/60 63/63/63 62/62/62
f 64/64/64 65/65/65 66/66/66
f 64/64/64 66/66/66 67/67/67
f 66/66/66 68/68/68 67/67/67
f 66/66/66 69/69/69 68/68/68
f 70/70/70 68/68/68 69/69/69
f 70/70/70 69/69/69 71/71/71
f 72/72/72 70/70/70 71/71/71
f 72/72/72 73/73/73 70/70/70
f 74/74/74 75/75/75 76/76/76
f 77/77/77 74/74/74 76/76/76
f 77/77/77 76/76/76 78/78/78
f 79/79/79 80/80/80 81/81/81
f 79/79/79 81/81/81 82/82/82
f 81/81/81 83/83/83 82/82/82
f 81/81/81 84/84/84 83/83/83
f 85/85/85 86/86/86 87/87/87
f 85/85/85 87/87/87 88/88/88
f 89/89/89 90/90/90 91/91/91
f 89/89/89 91/91/91 92/92/92
f 93/93/93 94/94/94 95/95/95
f 93/93/93 95/95/95 96/96/96
f 97/97/97 98/98/98 99/99/99
f 97/97/97 99/99/99 100/100/100
f 101/101/101 102/102/102 103/103/103
f 101/101/101 103/103/103 104/104/104
f 105/105/105 106/106/106 107/107/107
f 105/105/105 107/107/107 108/108/108
f 109/109/109 110/110/110 111/111/111
f 109/109/109 111/111/111 112/112/112
f 113/113/113 114/114/114 115/115/115
f 113/113/113 115/115/115 116/116/116
f 117/117/117 118/118/118 119/119/119
f 117/117/117 119/119/119 120/120/120
f 121/121/121 122/122/122 123/123/123
f 121/121/121 123/123/123 124/124/124
f 125/125/125 126/126/126 127/127/127
f 125/125/125 127/127/127 128/128/128
f 129/129/129 130/130/130 131/131/131
f 129/129/129 132/132/132 130/130/130
f 132/132/132 133/133/133 130/130/130
f 132/132/132 134/134/134 133/133/133
f 135/135/135 136/136/136 137/137/137
f 135/135/135 137/137/137 138/138/138
f 139/139/139 140/140/140 141/141/141
f 139/139/139 141/141/141 142/142/142
