o cylinder_03
v -5.72458747e-17 0.000443339348 -0.891830206
v -3.09048309e-17 0.000443339348 -1.11175501
v -0.169819593 0.000443339348 -1.09822488
v -0.136251286 0.000443339348 -0.880974591
v -0.0940315649 0.000443339348 -0.607775688
v -3.26270507e-17 0.000443339348 -0.615267456
v -0.185803965 0.000443339348 -0.585930407
v -0.269229054 0.000443339348 -0.849321008
v -0.335559189 0.000443339348 -1.0587728
v -0.273294032 0.000443339348 -0.550640821
v -0.493564904 0.000443339348 -0.995040119
v -0.396001726 0.000443339348 -0.798186421
v -0.354553282 0.000443339348 -0.502719641
v -0.640317917 0.000443339348 -0.908495426
v -0.513745964 0.000443339348 -0.728749037
v -0.427530318 0.000443339348 -0.442948282
v -0.619489372 0.000443339348 -0.642140567
v -0.772113323 0.000443339348 -0.80054915
v -0.490129352 0.000443339348 -0.372384697
v -0.885166228 0.000443339348 -0.673112392
v -0.710195005 0.000443339348 -0.539894283
v -0.541088104 0.000443339348 -0.292996705
v -0.97719723 0.000443339348 -0.529738843
v -0.784034193 0.000443339348 -0.424861431
v -0.5796085 0.000443339348 -0.206880257
v -0.839850008 0.000443339348 -0.300079137
v -1.04676449 0.000443339348 -0.374213845
v -0.604896545 0.000443339348 -0.115995154
v -1.09243417 0.000443339348 -0.21007666
v -0.876492202 0.000443339348 -0.16838704
v -0.616065502 0.000443339348 -0.0223270319
v -1.11260509 0.000443339348 -0.040913403
v -0.892675936 0.000443339348 -0.0326623768
v -0.612304807 0.000443339348 0.0719254166
v -0.887226701 0.000443339348 0.103908971
v -1.10581338 0.000443339348 0.129305124
v -0.59395957 0.000443339348 0.164459631
v -1.07268226 0.000443339348 0.296420574
v -0.860644639 0.000443339348 0.237990618
v -0.561951101 0.000443339348 0.253202438
v -0.814264476 0.000443339348 0.366578549
v -1.01487541 0.000443339348 0.456688792
v -0.517115831 0.000443339348 0.336205244
v -0.933903456 0.000443339348 0.606590509
v -0.749298275 0.000443339348 0.486849159
v -0.460229456 0.000443339348 0.411455423
v -0.831167579 0.000443339348 0.742491305
v -0.666870296 0.000443339348 0.59588635
v -0.392212689 0.000443339348 0.476810396
v -0.568314373 0.000443339348 0.690585315
v -0.708330393 0.000443339348 0.860521317
v -0.314826578 0.000443339348 0.530758202
v -0.568572223 0.000443339348 0.957950413
v -0.456182271 0.000443339348 0.768755555
v -0.230205506 0.000443339348 0.572460234
v -0.333566636 0.000443339348 0.829181492
v -0.415747672 0.000443339348 1.03326344
v -0.140330717 0.000443339348 0.601135373
v -0.253435194 0.000443339348 1.08505046
v -0.203338549 0.000443339348 0.870731652
v -0.0471632816 0.000443339348 0.615922034
v -0.0851761848 0.000443339348 1.11175501
v -0.0683393702 0.000443339348 0.892157495
v 0.0471632816 0.000443339348 0.615922034
v 0.0683393702 0.000443339348 0.892157495
v 0.0851761848 0.000443339348 1.11175501
v 0.140330717 0.000443339348 0.601135373
v 0.253435194 0.000443339348 1.08505046
v 0.203338549 0.000443339348 0.870731652
v 0.230205506 0.000443339348 0.572460234
v 0.333566636 0.000443339348 0.829181492
v 0.415747672 0.000443339348 1.03326344
v 0.314826578 0.000443339348 0.530758202
v 0.568572223 0.000443339348 0.957950413
v 0.456182271 0.000443339348 0.768755555
v 0.392212689 0.000443339348 0.476810396
v 0.708330393 0.000443339348 0.860521317
v 0.568314373 0.000443339348 0.690585315
v 0.460229456 0.000443339348 0.411455423
v 0.666870296 0.000443339348 0.59588635
v 0.831167579 0.000443339348 0.742491305
v 0.517115831 0.000443339348 0.336205244
v 0.933903456 0.000443339348 0.606590509
v 0.749298275 0.000443339348 0.486849159
v 0.561951101 0.000443339348 0.253202438
v 0.814264476 0.000443339348 0.366578549
v 1.01487541 0.000443339348 0.456688792
v 0.59395957 0.000443339348 0.164459631
v 1.07268226 0.000443339348 0.296420574
v 0.860644639 0.000443339348 0.237990618
v 0.612304807 0.000443339348 0.0719254166
v 1.10581338 0.000443339348 0.129305124
v 0.887226701 0.000443339348 0.103908971
v 0.616065502 0.000443339348 -0.0223270319
v 0.892675936 0.000443339348 -0.0326623768
v 1.11260509 0.000443339348 -0.040913403
v 0.604896545 0.000443339348 -0.115995154
v 1.09243417 0.000443339348 -0.21007666
v 0.876492202 0.000443339348 -0.16838704
v 0.5796085 0.000443339348 -0.206880257
v 0.839850008 0.000443339348 -0.300079137
v 1.04676449 0.000443339348 -0.374213845
v 0.541088104 0.000443339348 -0.292996705
v 0.97719723 0.000443339348 -0.529738843
v 0.784034193 0.000443339348 -0.424861431
v 0.490129352 0.000443339348 -0.372384697
v 0.885166228 0.000443339348 -0.673112392
v 0.710195005 0.000443339348 -0.539894283
v 0.427530318 0.000443339348 -0.442948282
v 0.619489372 0.000443339348 -0.642140567
v 0.772113323 0.000443339348 -0.80054915
v 0.354553282 0.000443339348 -0.502719641
v 0.640317917 0.000443339348 -0.908495426
v 0.513745964 0.000443339348 -0.728749037
v 0.273294032 0.000443339348 -0.550640821
v 0.396001726 0.000443339348 -0.798186421
v 0.493564904 0.000443339348 -0.995040119
v 0.185803965 0.000443339348 -0.585930407
v 0.335559189 0.000443339348 -1.0587728
v 0.269229054 0.000443339348 -0.849321008
v 0.0940315649 0.000443339348 -0.607775688
v 0.169819593 0.000443339348 -1.09822488
v 0.136251286 0.000443339348 -0.880974591
v -3.26270507e-17 0.000443339348 -0.615267456
v -5.72458747e-17 0.000443339348 -0.891830206
v -3.09048309e-17 0.000443339348 -1.11175501
v -5.72458747e-17 0.000443339348 -0.891830206
v -0.152514696 0.100000001 -0.986313879
v -2.77555756e-17 0.100000001 -0.9984653
v -0.136251286 0.000443339348 -0.880974591
v -0.119987868 -0.100000001 -0.775635302
v -4.16333634e-17 -0.100000001 -0.785195112
v -0.237092957 -0.100000001 -0.747759938
v -0.269229054 0.000443339348 -0.849321008
v -0.301365137 0.100000001 -0.950882018
v -0.348733604 -0.100000001 -0.702728987
v -0.443269819 0.100000001 -0.893643856
v -0.396001726 0.000443339348 -0.798186421
v -0.452423513 -0.100000001 -0.641579866
v -0.575068474 0.100000001 -0.815918207
v -0.513745964 0.000443339348 -0.728749037
v -0.545544982 -0.100000001 -0.565309286
v -0.619489372 0.000443339348 -0.642140567
v -0.693433702 0.100000001 -0.718971848
v -0.625423729 -0.100000001 -0.47526747
v -0.79496628 0.100000001 -0.604521096
v -0.710195005 0.000443339348 -0.539894283
v -0.690449178 -0.100000001 -0.373965353
v -0.877619147 0.100000001 -0.475757539
v -0.784034193 0.000443339348 -0.424861431
v -0.739602625 -0.100000001 -0.264077485
v -0.839850008 0.000443339348 -0.300079137
v -0.940097392 0.100000001 -0.336080819
v -0.77187115 -0.100000001 -0.148104608
v -0.981113315 0.100000001 -0.188669488
v -0.876492202 0.000443339348 -0.16838704
v -0.786123097 -0.100000001 -0.028580498
v -0.999228776 0.100000001 -0.0367442593
v -0.892675936 0.000443339348 -0.0326623768
v -0.781324327 -0.100000001 0.091689229
v -0.887226701 0.000443339348 0.103908971
v -0.993129134 0.100000001 0.116128713
v -0.757915139 -0.100000001 0.209766433
v -0.963374138 0.100000001 0.266214818
v -0.860644639 0.000443339348 0.237990618
v -0.717071116 -0.100000001 0.323005646
v -0.814264476 0.000443339348 0.366578549
v -0.911457896 0.100000001 0.410151422
v -0.659859478 -0.100000001 0.428920388
v -0.838737071 0.100000001 0.54477793
v -0.749298275 0.000443339348 0.486849159
v -0.587270379 -0.100000001 0.524942517
v -0.746470213 0.100000001 0.666830182
v -0.666870296 0.000443339348 0.59588635
v -0.500478387 -0.100000001 0.608337879
v -0.568314373 0.000443339348 0.690585315
v -0.636150301 0.100000001 0.772832751
v -0.401730806 -0.100000001 0.677177429
v -0.510633767 0.100000001 0.860333622
v -0.456182271 0.000443339348 0.768755555
v -0.293751001 -0.100000001 0.730390728
v -0.333566636 0.000443339348 0.829181492
v -0.3733823 0.100000001 0.927972198
v -0.179067373 -0.100000001 0.766981363
v -0.227609739 0.100000001 0.974482
v -0.203338549 0.000443339348 0.870731652
v -0.0601821505 -0.100000001 0.78584975
v -0.0764965862 0.100000001 0.9984653
v -0.0683393702 0.000443339348 0.892157495
v 0.0601821505 -0.100000001 0.78584975
v 0.0683393702 0.000443339348 0.892157495
v 0.0764965862 0.100000001 0.9984653
v 0.179067373 -0.100000001 0.766981363
v 0.227609739 0.100000001 0.974482
v 0.203338549 0.000443339348 0.870731652
v 0.293751001 -0.100000001 0.730390728
v 0.333566636 0.000443339348 0.829181492
v 0.3733823 0.100000001 0.927972198
v 0.401730806 -0.100000001 0.677177429
v 0.510633767 0.100000001 0.860333622
v 0.456182271 0.000443339348 0.768755555
v 0.500478387 -0.100000001 0.608337879
v 0.636150301 0.100000001 0.772832751
v 0.568314373 0.000443339348 0.690585315
v 0.587270379 -0.100000001 0.524942517
v 0.666870296 0.000443339348 0.59588635
v 0.746470213 0.100000001 0.666830182
v 0.659859478 -0.100000001 0.428920388
v 0.838737071 0.100000001 0.54477793
v 0.749298275 0.000443339348 0.486849159
v 0.717071116 -0.100000001 0.323005646
v 0.814264476 0.000443339348 0.366578549
v 0.911457896 0.100000001 0.410151422
v 0.757915139 -0.100000001 0.209766433
v 0.963374138 0.100000001 0.266214818
v 0.860644639 0.000443339348 0.237990618
v 0.781324327 -0.100000001 0.091689229
v 0.993129134 0.100000001 0.116128713
v 0.887226701 0.000443339348 0.103908971
v 0.786123097 -0.100000001 -0.028580498
v 0.892675936 0.000443339348 -0.0326623768
v 0.999228776 0.100000001 -0.0367442593
v 0.77187115 -0.100000001 -0.148104608
v 0.981113315 0.100000001 -0.188669488
v 0.876492202 0.000443339348 -0.16838704
v 0.739602625 -0.100000001 -0.264077485
v 0.839850008 0.000443339348 -0.300079137
v 0.940097392 0.100000001 -0.336080819
v 0.690449178 -0.100000001 -0.373965353
v 0.877619147 0.100000001 -0.475757539
v 0.784034193 0.000443339348 -0.424861431
v 0.625423729 -0.100000001 -0.47526747
v 0.79496628 0.100000001 -0.604521096
v 0.710195005 0.000443339348 -0.539894283
v 0.545544982 -0.100000001 -0.565309286
v 0.619489372 0.000443339348 -0.642140567
v 0.693433702 0.100000001 -0.718971848
v 0.452423513 -0.100000001 -0.641579866
v 0.575068474 0.100000001 -0.815918207
v 0.513745964 0.000443339348 -0.728749037
v 0.348733604 -0.100000001 -0.702728987
v 0.396001726 0.000443339348 -0.798186421
v 0.443269819 0.100000001 -0.893643856
v 0.237092957 -0.100000001 -0.747759938
v 0.301365137 0.100000001 -0.950882018
v 0.269229054 0.000443339348 -0.849321008
v 0.119987868 -0.100000001 -0.775635302
v 0.152514696 0.100000001 -0.986313879
v 0.136251286 0.000443339348 -0.880974591
v -4.16333634e-17 -0.100000001 -0.785195112
v -5.72458747e-17 0.000443339348 -0.891830206
v -2.77555756e-17 0.100000001 -0.9984653
vt 1 0.5
vt 1 1
vt 0.975580215 1
vt 0.975580215 0.5
vt 0.975580215 0
vt 1 0
vt 0.951200783 0
vt 0.951200783 0.5
vt 0.951200783 1
vt 0.926844239 0
vt 0.926844239 1
vt 0.926844239 0.5
vt 0.902469516 0
vt 0.902469516 1
vt 0.902469516 0.5
vt 0.878053904 0
vt 0.878053904 0.5
vt 0.878053904 1
vt 0.853630662 0
vt 0.853630662 1
vt 0.853630662 0.5
vt 0.829246223 0
vt 0.829246223 1
vt 0.829246223 0.5
vt 0.804888964 0
vt 0.804888964 0.5
vt 0.804888964 1
vt 0.780518532 0
vt 0.780518532 1
vt 0.780518532 0.5
vt 0.756107628 0
vt 0.756107628 1
vt 0.756107628 0.5
vt 0.731681824 0
vt 0.731681824 0.5
vt 0.731681824 1
vt 0.70729208 0
vt 0.70729208 1
vt 0.70729208 0.5
vt 0.68293345 0
vt 0.68293345 0.5
vt 0.68293345 1
vt 0.658566892 0
vt 0.658566892 1
vt 0.658566892 0.5
vt 0.634160995 0
vt 0.634160995 1
vt 0.634160995 0.5
vt 0.609733641 0
vt 0.609733641 0.5
vt 0.609733641 1
vt 0.585338473 0
vt 0.585338473 1
vt 0.585338473 0.5
vt 0.560977817 0
vt 0.560977817 0.5
vt 0.560977817 1
vt 0.536614537 0
vt 0.536614537 1
vt 0.536614537 0.5
vt 0.512213945 0
vt 0.512213945 1
vt 0.512213945 0.5
vt 0.487786055 0
vt 0.487786055 0.5
vt 0.487786055 1
vt 0.463385493 0
vt 0.463385493 1
vt 0.463385493 0.5
vt 0.439022154 0
vt 0.439022154 0.5
vt 0.439022154 1
vt 0.414661527 0
vt 0.414661527 1
vt 0.414661527 0.5
vt 0.390266389 0
vt 0.390266389 1
vt 0.390266389 0.5
vt 0.365839005 0
vt 0.365839005 0.5
vt 0.365839005 1
vt 0.341433138 0
vt 0.341433138 1
vt 0.341433138 0.5
vt 0.31706652 0
vt 0.31706652 0.5
vt 0.31706652 1
vt 0.29270792 0
vt 0.29270792 1
vt 0.29270792 0.5
vt 0.268318206 0
vt 0.268318206 1
vt 0.268318206 0.5
vt 0.243892401 0
vt 0.243892401 0.5
vt 0.243892401 1
vt 0.219481438 0
vt 0.219481438 1
vt 0.219481438 0.5
vt 0.195111021 0
vt 0.195111021 0.5
vt 0.195111021 1
vt 0.170753807 0
vt 0.170753807 1
vt 0.170753807 0.5
vt 0.146369338 0
vt 0.146369338 1
vt 0.146369338 0.5
vt 0.121946111 0
vt 0.121946111 0.5
vt 0.121946111 1
vt 0.0975304618 0
vt 0.0975304618 1
vt 0.0975304618 0.5
vt 0.0731557459 0
vt 0.0731557459 0.5
vt 0.0731557459 1
vt 0.0487992205 0
vt 0.0487992205 1
vt 0.0487992205 0.5
vt 0.0244197994 0
vt 0.0244197994 1
vt 0.0244197994 0.5
vt 0 0
vt 0 0.5
vt 0 1
vt 1 0.5
vt 0.975580215 1
vt 1 1
vt 0.975580215 0.5
vt 0.975580215 0
vt 1 0
vt 0.951200783 0
vt 0.951200783 0.5
vt 0.951200783 1
vt 0.926844239 0
vt 0.926844239 1
vt 0.926844239 0.5
vt 0.902469516 0
vt 0.902469516 1
vt 0.902469516 0.5
vt 0.878053904 0
vt 0.878053904 0.5
vt 0.878053904 1
vt 0.853630662 0
vt 0.853630662 1
vt 0.853630662 0.5
vt 0.829246223 0
vt 0.829246223 1
vt 0.829246223 0.5
vt 0.804888964 0
vt 0.804888964 0.5
vt 0.804888964 1
vt 0.780518532 0
vt 0.780518532 1
vt 0.780518532 0.5
vt 0.756107628 0
vt 0.756107628 1
vt 0.756107628 0.5
vt 0.731681824 0
vt 0.731681824 0.5
vt 0.731681824 1
vt 0.70729208 0
vt 0.70729208 1
vt 0.70729208 0.5
vt 0.68293345 0
vt 0.68293345 0.5
vt 0.68293345 1
vt 0.658566892 0
vt 0.658566892 1
vt 0.658566892 0.5
vt 0.634160995 0
vt 0.634160995 1
vt 0.634160995 0.5
vt 0.609733641 0
vt 0.609733641 0.5
vt 0.609733641 1
vt 0.585338473 0
vt 0.585338473 1
vt 0.585338473 0.5
vt 0.560977817 0
vt 0.560977817 0.5
vt 0.560977817 1
vt 0.536614537 0
vt 0.536614537 1
vt 0.536614537 0.5
vt 0.512213945 0
vt 0.512213945 1
vt 0.512213945 0.5
vt 0.487786055 0
vt 0.487786055 0.5
vt 0.487786055 1
vt 0.463385493 0
vt 0.463385493 1
vt 0.463385493 0.5
vt 0.439022154 0
vt 0.439022154 0.5
vt 0.439022154 1
vt 0.414661527 0
vt 0.414661527 1
vt 0.414661527 0.5
vt 0.390266389 0
vt 0.390266389 1
vt 0.390266389 0.5
vt 0.365839005 0
vt 0.365839005 0.5
vt 0.365839005 1
vt 0.341433138 0
vt 0.341433138 1
vt 0.341433138 0.5
vt 0.31706652 0
vt 0.31706652 0.5
vt 0.31706652 1
vt 0.29270792 0
vt 0.29270792 1
vt 0.29270792 0.5
vt 0.268318206 0
vt 0.268318206 1
vt 0.268318206 0.5
vt 0.243892401 0
vt 0.243892401 0.5
vt 0.243892401 1
vt 0.219481438 0
vt 0.219481438 1
vt 0.219481438 0.5
vt 0.195111021 0
vt 0.195111021 0.5
vt 0.195111021 1
vt 0.170753807 0
vt 0.170753807 1
vt 0.170753807 0.5
vt 0.146369338 0
vt 0.146369338 1
vt 0.146369338 0.5
vt 0.121946111 0
vt 0.121946111 0.5
vt 0.121946111 1
vt 0.0975304618 0
vt 0.0975304618 1
vt 0.0975304618 0.5
vt 0.0731557459 0
vt 0.0731557459 0.5
vt 0.0731557459 1
vt 0.0487992205 0
vt 0.0487992205 1
vt 0.0487992205 0.5
vt 0.0244197994 0
vt 0.0244197994 1
vt 0.0244197994 0.5
vt 0 0
vt 0 0.5
vt 0 1
vn 0 1 0
vn 0 1 0
vn 0 1 0
vn 0 1 0
vn 0 1 0
vn 0 1 0
vn 0 1 0
vn 0 1 0
vn 0 1 0
vn 0 1 0
vn 0 1 0
vn 0 1 0
vn 0 1 0
vn 0 1 0
vn 0 1 0
vn 0 1 0
vn 0 1 0
vn 0 1 0
vn 0 1 0
vn 0 1 0
vn 0 1 0
vn 0 1 0
vn 0 1 0
vn 0 1 0
vn 0 1 0
vn 0 1 0
vn 0 1 0
vn 0 1 0
vn 0 1 0
vn 0 1 0
vn 0 1 0
vn 0 1 0
vn 0 1 0
vn 0 1 0
vn 0 1 0
vn 0 1 0
vn 0 1 0
vn 0 1 0
vn 0 1 0
vn 0 1 0
vn 0 1 0
vn 0 1 0
vn 0 1 0
vn 0 1 0
vn 0 1 0
vn 0 1 0
vn 0 1 0
vn 0 1 0
vn 0 1 0
vn 0 1 0
vn 0 1 0
vn 0 1 0
vn 0 1 0
vn 0 1 0
vn 0 1 0
vn 0 1 0
vn 0 1 0
vn 0 1 0
vn 0 1 0
vn 0 1 0
vn 0 1 0
vn 0 1 0
vn 0 1 0
vn 0 1 0
vn 0 1 0
vn 0 1 0
vn 0 1 0
vn 0 1 0
vn 0 1 0
vn 0 1 0
vn 0 1 0
vn 0 1 0
vn 0 1 0
vn 0 1 0
vn 0 1 0
vn 0 1 0
vn 0 1 0
vn 0 1 0
vn 0 1 0
vn 0 1 0
vn 0 1 0
vn 0 1 0
vn 0 1 0
vn 0 1 0
vn 0 1 0
vn 0 1 0
vn 0 1 0
vn 0 1 0
vn 0 1 0
vn 0 1 0
vn 0 1 0
vn 0 1 0
vn 0 1 0
vn 0 1 0
vn 0 1 0
vn 0 1 0
vn 0 1 0
vn 0 1 0
vn 0 1 0
vn 0 1 0
vn 0 1 0
vn 0 1 0
vn 0 1 0
vn 0 1 0
vn 0 1 0
vn 0 1 0
vn 0 1 0
vn 0 1 0
vn 0 1 0
vn 0 1 0
vn 0 1 0
vn 0 1 0
vn 0 1 0
vn 0 1 0
vn 0 1 0
vn 0 1 0
vn 0 1 0
vn 0 1 0
vn 0 1 0
vn 0 1 0
vn 0 1 0
vn 0 1 0
vn 0 1 0
vn 0 1 0
vn 0 1 0
vn 0 1 0
vn 0 -0.729581892 -0.683893442
vn -0.106372081 -0.730796456 -0.674256265
vn 0 -0.730950654 -0.682430387
vn -0.106690958 -0.72942555 -0.675688863
vn -0.107040852 -0.727769017 -0.677417517
vn 0 -0.727924228 -0.68565768
vn -0.208375171 -0.727566898 -0.653625309
vn -0.207797647 -0.729222357 -0.65196234
vn -0.207300618 -0.730595231 -0.650582135
vn -0.303377718 -0.727552414 -0.61532867
vn -0.30202195 -0.730580807 -0.612400472
vn -0.302631676 -0.729207873 -0.613734484
vn -0.392575175 -0.727739215 -0.562387943
vn -0.390868902 -0.730767071 -0.559643686
vn -0.39163059 -0.729395688 -0.560898721
vn -0.475177497 -0.727920771 -0.494305283
vn -0.473964363 -0.729578376 -0.493024647
vn -0.472961545 -0.730947137 -0.491958946
vn -0.546758294 -0.727798343 -0.413962513
vn -0.544090092 -0.730825543 -0.412140697
vn -0.545309842 -0.729454994 -0.412955821
vn -0.603495181 -0.727584541 -0.326212138
vn -0.600600898 -0.730612993 -0.324781835
vn -0.601921201 -0.729240179 -0.325422257
vn -0.645397186 -0.727541447 -0.232692748
vn -0.643750608 -0.729196846 -0.232071355
vn -0.642381847 -0.730570078 -0.231544629
vn -0.672865868 -0.727709889 -0.133003563
vn -0.669733405 -0.730737805 -0.132209405
vn -0.671152771 -0.729366243 -0.13258557
vn -0.685138404 -0.727910995 -0.0270366315
vn -0.6819157 -0.73093766 -0.026853554
vn -0.68337667 -0.72956872 -0.0269417893
vn -0.68100059 -0.727826357 0.0806654915
vn -0.679257691 -0.729483306 0.0803930908
vn -0.677812874 -0.730853498 0.0801424235
vn -0.660953283 -0.727605045 0.183661744
vn -0.657880783 -0.730633318 0.182668477
vn -0.659273565 -0.729260743 0.18313165
vn -0.626251698 -0.727533937 0.280184209
vn -0.624638915 -0.729189396 0.27948007
vn -0.623292685 -0.730562627 0.278898656
vn -0.577041745 -0.7276811 0.370813996
vn -0.57423687 -0.730709076 0.369210422
vn -0.575519085 -0.729337096 0.369925737
vn -0.512659311 -0.727895617 0.455355227
vn -0.510191977 -0.730922341 0.453273237
vn -0.511315882 -0.729553163 0.454211652
vn -0.434920311 -0.727852583 0.530164957
vn -0.433846414 -0.729509771 0.52876538
vn -0.432971448 -0.730879605 0.5275895
vn -0.348691136 -0.72762841 0.590737998
vn -0.347179115 -0.730656385 0.587884247
vn -0.347854316 -0.729284108 0.589187622
vn -0.256625384 -0.72753036 0.636272609
vn -0.255962551 -0.729185581 0.63464278
vn -0.255408406 -0.730558693 0.633285522
vn -0.158541217 -0.727653742 0.667371392
vn -0.157640174 -0.730681956 0.66426909
vn -0.158063754 -0.729309797 0.665674925
vn -0.0539621376 -0.727875829 0.683582366
vn -0.0536023229 -0.730902791 0.680373311
vn -0.0537753664 -0.729533255 0.681828022
vn 0.0539621376 -0.727875829 0.683582366
vn 0.0537753664 -0.729533255 0.681828022
vn 0.0536023229 -0.730902791 0.680373371
vn 0.158541203 -0.727653742 0.667371452
vn 0.157640174 -0.730681956 0.66426909
vn 0.158063754 -0.729309738 0.665674984
vn 0.256625354 -0.72753036 0.636272609
vn 0.255962521 -0.729185581 0.63464278
vn 0.255408436 -0.730558693 0.633285463
vn 0.348691165 -0.727628529 0.590737939
vn 0.347179145 -0.730656445 0.587884247
vn 0.347854286 -0.729284167 0.589187622
vn 0.434920251 -0.727852643 0.530164957
vn 0.432971388 -0.730879664 0.5275895
vn 0.433846354 -0.72950983 0.528765321
vn 0.512659311 -0.727895617 0.455355227
vn 0.511315882 -0.729553223 0.454211593
vn 0.510191858 -0.730922401 0.453273177
vn 0.577041745 -0.7276811 0.370813996
vn 0.57423681 -0.730709076 0.369210422
vn 0.575519025 -0.729337156 0.369925708
vn 0.626251638 -0.727533996 0.280184209
vn 0.624638796 -0.729189396 0.27948001
vn 0.623292685 -0.730562627 0.278898627
vn 0.660953343 -0.727605045 0.183661729
vn 0.657880843 -0.730633318 0.182668492
vn 0.659273505 -0.729260802 0.183131665
vn 0.681000531 -0.727826416 0.0806654915
vn 0.677812815 -0.730853617 0.0801424086
vn 0.679257572 -0.729483366 0.0803930759
vn 0.685138345 -0.727910995 -0.0270366371
vn 0.68337661 -0.72956872 -0.0269417968
vn 0.681915581 -0.730937779 -0.0268535577
vn 0.672865927 -0.72770983 -0.133003578
vn 0.669733405 -0.730737805 -0.132209405
vn 0.67115283 -0.729366124 -0.13258557
vn 0.645397246 -0.727541447 -0.232692793
vn 0.643750608 -0.729196846 -0.2320714
vn 0.642381907 -0.730570018 -0.231544599
vn 0.603495181 -0.727584541 -0.326212108
vn 0.600600898 -0.730612993 -0.324781805
vn 0.601921201 -0.729240179 -0.325422257
vn 0.546758294 -0.727798343 -0.413962513
vn 0.544089973 -0.730825603 -0.412140638
vn 0.545309782 -0.729455113 -0.412955791
vn 0.475177407 -0.727920771 -0.494305253
vn 0.473964274 -0.729578376 -0.493024588
vn 0.472961545 -0.730947196 -0.491958976
vn 0.392575234 -0.727739155 -0.562388062
vn 0.390868932 -0.730767012 -0.559643805
vn 0.39163053 -0.729395628 -0.560898781
vn 0.303377777 -0.727552414 -0.615328729
vn 0.302631646 -0.729207873 -0.613734484
vn 0.30202195 -0.730580807 -0.612400472
vn 0.208375186 -0.727567017 -0.653625369
vn 0.207300618 -0.730595231 -0.650582135
vn 0.207797647 -0.729222357 -0.65196234
vn 0.107040845 -0.727769017 -0.677417457
vn 0.106372081 -0.730796456 -0.674256265
vn 0.106690951 -0.72942555 -0.675688863
vn 0 -0.727924228 -0.68565768
vn 0 -0.729581892 -0.683893442
vn 0 -0.730950654 -0.682430387
g submesh_0
usemtl submesh_0
f 1/1/1 2/2/2 3/3/3
f 1/1/1 3/3/3 4/4/4
f 5/5/5 1/1/1 4/4/4
f 5/5/5 6/6/6 1/1/1
f 7/7/7 5/5/5 4/4/4
f 3/3/3 8/8/8 4/4/4
f 7/7/7 4/4/4 8/8/8
f 3/3/3 9/9/9 8/8/8
f 10/10/10 7/7/7 8/8/8
f 8/8/8 9/9/9 11/11/11
f 10/10/10 8/8/8 12/12/12
f 8/8/8 11/11/11 12/12/12
f 13/13/13 10/10/10 12/12/12
f 12/12/12 11/11/11 14/14/14
f 13/13/13 12/12/12 15/15/15
f 12/12/12 14/14/14 15/15/15
f 16/16/16 13/13/13 15/15/15
f 14/14/14 17/17/17 15/15/15
f 16/16/16 15/15/15 17/17/17
f 14/14/14 18/18/18 17/17/17
f 19/19/19 16/16/16 17/17/17
f 17/17/17 18/18/18 20/20/20
f 19/19/19 17/17/17 21/21/21
f 17/17/17 20/20/20 21/21/21
f 22/22/22 19/19/19 21/21/21
f 21/21/21 20/20/20 23/23/23
f 22/22/22 21/21/21 24/24/24
f 21/21/21 23/23/23 24/24/24
f 25/25/25 22/22/22 24/24/24
f 23/23/23 26/26/26 24/24/24
f 25/25/25 24/24/24 26/26/26
f 23/23/23 27/27/27 26/26/26
f 28/28/28 25/25/25 26/26/26
f 26/26/26 27/27/27 29/29/29
f 28/28/28 26/26/26 30/30/30
f 26/26/26 29/29/29 30/30/30
f 31/31/31 28/28/28 30/30/30
f 30/30/30 29/29/29 32/32/32
f 31/31/31 30/30/30 33/33/33
f 30/30/30 32/32/32 33/33/33
f 34/34/34 31/31/31 33/33/33
f 32/32/32 35/35/35 33/33/33
f 34/34/34 33/33/33 35/35/35
f 32/32/32 36/36/36 35/35/35
f 37/37/37 34/34/34 35/35/35
f 35/35/35 36/36/36 38/38/38
f 37/37/37 35/35/35 39/39/39
f 35/35/35 38/38/38 39/39/39
f 40/40/40 37/37/37 39/39/39
f 38/38/38 41/41/41 39/39/39
f 40/40/40 39/39/39 41/41/41
f 38/38/38 42/42/42 41/41/41
f 43/43/43 40/40/40 41/41/41
f 41/41/41 42/42/42 44/44/44
f 43/43/43 41/41/41 45/45/45
f 41/41/41 44/44/44 45/45/45
f 46/46/46 43/43/43 45/45/45
f 45/45/45 44/44/44 47/47/47
f 46/46/46 45/45/45 48/48/48
f 45/45/45 47/47/47 48/48/48
f 49/49/49 46/46/46 48/48/48
f 47/47/47 50/50/50 48/48/48
f 49/49/49 48/48/48 50/50/50
f 47/47/47 51/51/51 50/50/50
f 52/52/52 49/49/49 50/50/50
f 50/50/50 51/51/51 53/53/53
f 52/52/52 50/50/50 54/54/54
f 50/50/50 53/53/53 54/54/54
f 55/55/55 52/52/52 54/54/54
f 53/53/53 56/56/56 54/54/54
f 55/55/55 54/54/54 56/56/56
f 53/53/53 57/57/57 56/56/56
f 58/58/58 55/55/55 56/56/56
f 56/56/56 57/57/57 59/59/59
f 58/58/58 56/56/56 60/60/60
f 56/56/56 59/59/59 60/60/60
f 61/61/61 58/58/58 60/60/60
f 60/60/60 59/59/59 62/62/62
f 61/61/61 60/60/60 63/63/63
f 60/60/60 62/62/62 63/63/63
f 64/64/64 61/61/61 63/63/63
f 62/62/62 65/65/65 63/63/63
f 64/64/64 63/63/63 65/65/65
f 62/62/62 66/66/66 65/65/65
f 67/67/67 64/64/64 65/65/65
f 65/65/65 66/66/66 68/68/68
f 67/67/67 65/65/65 69/69/69
f 65/65/65 68/68/68 69/69/69
f 70/70/70 67/67/67 69/69/69
f 68/68/68 71/71/71 69/69/69
f 70/70/70 69/69/69 71/71/71
f 68/68/68 72/72/72 71/71/71
f 73/73/73 70/70/70 71/71/71
f 71/71/71 72/72/72 74/74/74
f 73/73/73 71/71/71 75/75/75
f 71/71/71 74/74/74 75/75/75
f 76/76/76 73/73/73 75/75/75
f 75/75/75 74/74/74 77/77/77
f 76/76/76 75/75/75 78/78/78
f 75/75/75 77/77/77 78/78/78
f 79/79/79 76/76/76 78/78/78
f 77/77/77 80/80/80 78/78/78
f 79/79/79 78/78/78 80/80/80
f 77/77/77 81/81/81 80/80/80
f 82/82/82 79/79/79 80/80/80
f 80/80/80 81/81/81 83/83/83
f 82/82/82 80/80/80 84/84/84
f 80/80/80 83/83/83 84/84/84
f 85/85/85 82/82/82 84/84/84
f 83/83/83 86/86/86 84/84/84
f 85/85/85 84/84/84 86/86/86
f 83/83/83 87/87/87 86/86/86
f 88/88/88 85/85/85 86/86/86
f 86/86/86 87/87/87 89/89/89
f 88/88/88 86/86/86 90/90/90
f 86/86/86 89/89/89 90/90/90
f 91/91/91 88/88/88 90/90/90
f 90/90/90 89/89/89 92/92/92
f 91/91/91 90/90/90 93/93/93
f 90/90/90 92/92/92 93/93/93
f 94/94/94 91/91/91 93/93/93
f 92/92/92 95/95/95 93/93/93
f 94/94/94 93/93/93 95/95/95
f 92/92/92 96/96/96 95/95/95
f 97/97/97 94/94/94 95/95/95
f 95/95/95 96/96/96 98/98/98
f 97/97/97 95/95/95 99/99/99
f 95/95/95 98/98/98 99/99/99
f 100/100/100 97/97/97 99/99/99
f 98/98/98 101/101/101 99/99/99
f 100/100/100 99/99/99 101/101/101
f 98/98/98 102/102/102 101/101/101
f 103/103/103 100/100/100 101/101/101
f 101/101/101 102/102/102 104/104/104
f 103/103/103 101/101/101 105/105/105
f 101/101/101 104/104/104 105/105/105
f 106/106/106 103/103/103 105/105/105
f 105/105/105 104/104/104 107/107/107
f 106/106/106 105/105/105 108/108/108
f 105/105/105 107/107/107 108/108/108
f 109/109/109 106/106/106 108/108/108
f 107/107/107 110/110/110 108/108/108
f 109/109/109 108/108/108 110/110/110
f 107/107/107 111/111/111 110/110/110
f 112/112/112 109/109/109 110/110/110
f 110/110/110 111/111/111 113/113/113
f 112/112/112 110/110/110 114/114/114
f 110/110/110 113/113/113 114/114/114
f 115/115/115 112/112/112 114/114/114
f 113/113/113 116/116/116 114/114/114
f 115/115/115 114/114/114 116/116/116
f 113/113/113 117/117/117 116/116/116
f 118/118/118 115/115/115 116/116/116
f 116/116/116 117/117/117 119/119/119
f 118/118/118 116/116/116 120/120/120
f 116/116/116 119/119/119 120/120/120
f 121/121/121 118/118/118 120/120/120
f 120/120/120 119/119/119 122/122/122
f 121/121/121 120/120/120 123/123/123
f 120/120/120 122/122/122 123/123/123
f 124/124/124 121/121/121 123/123/123
f 124/124/124 123/123/123 125/125/125
f 122/122/122 125/125/125 123/123/123
f 122/122/122 126/126/126 125/125/125
f 127/127/127 128/128/128 129/129/129
f 127/127/127 130/130/130 128/128/128
f 131/131/131 130/130/130 127/127/127
f 131/131/131 127/127/127 132/132/132
f 133/133/133 130/130/130 131/131/131
f 128/128/128 130/130/130 134/134/134
f 133/133/133 134/134/134 130/130/130
f 128/128/128 134/134/134 135/135/135
f 136/136/136 134/134/134 133/133/133
f 134/134/134 137/137/137 135/135/135
f 136/136/136 138/138/138 134/134/134
f 134/134/134 138/138/138 137/137/137
f 139/139/139 138/138/138 136/136/136
f 138/138/138 140/140/140 137/137/137
f 139/139/139 141/141/141 138/138/138
f 138/138/138 141/141/141 140/140/140
f 142/142/142 141/141/141 139/139/139
f 140/140/140 141/141/141 143/143/143
f 142/142/142 143/143/143 141/141/141
f 140/140/140 143/143/143 144/144/144
f 145/145/145 143/143/143 142/142/142
f 143/143/143 146/146/146 144/144/144
f 145/145/145 147/147/147 143/143/143
f 143/143/143 147/147/147 146/146/146
f 148/148/148 147/147/147 145/145/145
f 147/147/147 149/149/149 146/146/146
f 148/148/148 150/150/150 147/147/147
f 147/147/147 150/150/150 149/149/149
f 151/151/151 150/150/150 148/148/148
f 149/149/149 150/150/150 152/152/152
f 151/151/151 152/152/152 150/150/150
f 149/149/149 152/152/152 153/153/153
f 154/154/154 152/152/152 151/151/151
f 152/152/152 155/155/155 153/153/153
f 154/154/154 156/156/156 152/152/152
f 152/152/152 156/156/156 155/155/155
f 157/157/157 156/156/156 154/154/154
f 156/156/156 158/158/158 155/155/155
f 157/157/157 159/159/159 156/156/156
f 156/156/156 159/159/159 158/158/158
f 160/160/160 159/159/159 157/157/157
f 158/158/158 159/159/159 161/161/161
f 160/160/160 161/161/161 159/159/159
f 158/158/158 161/161/161 162/162/162
f 163/163/163 161/161/161 160/160/160
f 161/161/161 164/164/164 162/162/162
f 163/163/163 165/165/165 161/161/161
f 161/161/161 165/165/165 164/164/164
f 166/166/166 165/165/165 163/163/163
f 164/164/164 165/165/165 167/167/167
f 166/166/166 167/167/167 165/165/165
f 164/164/164 167/167/167 168/168/168
f 169/169/169 167/167/167 166/166/166
f 167/167/167 170/170/170 168/168/168
f 169/169/169 171/171/171 167/167/167
f 167/167/167 171/171/171 170/170/170
f 172/172/172 171/171/171 169/169/169
f 171/171/171 173/173/173 170/170/170
f 172/172/172 174/174/174 171/171/171
f 171/171/171 174/174/174 173/173/173
f 175/175/175 174/174/174 172/172/172
f 173/173/173 174/174/174 176/176/176
f 175/175/175 176/176/176 174/174/174
f 173/173/173 176/176/176 177/177/177
f 178/178/178 176/176/176 175/175/175
f 176/176/176 179/179/179 177/177/177
f 178/178/178 180/180/180 176/176/176
f 176/176/176 180/180/180 179/179/179
f 181/181/181 180/180/180 178/178/178
f 179/179/179 180/180/180 182/182/182
f 181/181/181 182/182/182 180/180/180
f 179/179/179 182/182/182 183/183/183
f 184/184/184 182/182/182 181/181/181
f 182/182/182 185/185/185 183/183/183
f 184/184/184 186/186/186 182/182/182
f 182/182/182 186/186/186 185/185/185
f 187/187/187 186/186/186 184/184/184
f 186/186/186 188/188/188 185/185/185
f 187/187/187 189/189/189 186/186/186
f 186/186/186 189/189/189 188/188/188
f 190/190/190 189/189/189 187/187/187
f 188/188/188 189/189/189 191/191/191
f 190/190/190 191/191/191 189/189/189
f 188/188/188 191/191/191 192/192/192
f 193/193/193 191/191/191 190/190/190
f 191/191/191 194/194/194 192/192/192
f 193/193/193 195/195/195 191/191/191
f 191/191/191 195/195/195 194/194/194
f 196/196/196 195/195/195 193/193/193
f 194/194/194 195/195/195 197/197/197
f 196/196/196 197/197/197 195/195/195
f 194/194/194 197/197/197 198/198/198
f 199/199/199 197/197/197 196/196/196
f 197/197/197 200/200/200 198/198/198
f 199/199/199 201/201/201 197/197/197
f 197/197/197 201/201/201 200/200/200
f 202/202/202 201/201/201 199/199/199
f 201/201/201 203/203/203 200/200/200
f 202/202/202 204/204/204 201/201/201
f 201/201/201 204/204/204 203/203/203
f 205/205/205 204/204/204 202/202/202
f 203/203/203 204/204/204 206/206/206
f 205/205/205 206/206/206 204/204/204
f 203/203/203 206/206/206 207/207/207
f 208/208/208 206/206/206 205/205/205
f 206/206/206 209/209/209 207/207/207
f 208/208/208 210/210/210 206/206/206
f 206/206/206 210/210/210 209/209/209
f 211/211/211 210/210/210 208/208/208
f 209/209/209 210/210/210 212/212/212
f 211/211/211 212/212/212 210/210/210
f 209/209/209 212/212/212 213/213/213
f 214/214/214 212/212/212 211/211/211
f 212/212/212 215/215/215 213/213/213
f 214/214/214 216/216/216 212/212/212
f 212/212/212 216/216/216 215/215/215
f 217/217/217 216/216/216 214/214/214
f 216/216/216 218/218/218 215/215/215
f 217/217/217 219/219/219 216/216/216
f 216/216/216 219/219/219 218/218/218
f 220/220/220 219/219/219 217/217/217
f 218/218/218 219/219/219 221/221/221
f 220/220/220 221/221/221 219/219/219
f 218/218/218 221/221/221 222/222/222
f 223/223/223 221/221/221 220/220/220
f 221/221/221 224/224/224 222/222/222
f 223/223/223 225/225/225 221/221/221
f 221/221/221 225/225/225 224/224/224
f 226/226/226 225/225/225 223/223/223
f 224/224/224 225/225/225 227/227/227
f 226/226/226 227/227/227 225/225/225
f 224/224/224 227/227/227 228/228/228
f 229/229/229 227/227/227 226/226/226
f 227/227/227 230/230/230 228/228/228
f 229/229/229 231/231/231 227/227/227
f 227/227/227 231/231/231 230/230/230
f 232/232/232 231/231/231 229/229/229
f 231/231/231 233/233/233 230/230/230
f 232/232/232 234/234/234 231/231/231
f 231/231/231 234/234/234 233/233/233
f 235/235/235 234/234/234 232/232/232
f 233/233/233 234/234/234 236/236/236
f 235/235/235 236/236/236 234/234/234
f 233/233/233 236/236/236 237/237/237
f 238/238/238 236/236/236 235/235/235
f 236/236/236 239/239/239 237/237/237
f 238/238/238 240/240/240 236/236/236
f 236/236/236 240/240/240 239/239/239
f 241/241/241 240/240/240 238/238/238
f 239/239/239 240/240/240 242/242/242
f 241/241/241 242/242/242 240/240/240
f 239/239/239 242/242/242 243/243/243
f 244/244/244 242/242/242 241/241/241
f 242/242/242 245/245/245 243/243/243
f 244/244/244 246/246/246 242/242/242
f 242/242/242 246/246/246 245/245/245
f 247/247/247 246/246/246 244/244/244
f 246/246/246 248/248/248 245/245/245
f 247/247/247 249/249/249 246/246/246
f 246/246/246 249/249/249 248/248/248
f 250/250/250 249/249/249 247/247/247
f 250/250/250 251/251/251 249/249/249
f 248/248/248 249/249/249 251/251/251
f 248/248/248 251/251/251 252/252/252
