o ClicheDefault_line_01
v 0.233733207 0.871296108 -0.453187436
v 0.251567364 0.843302727 -0.348626137
v 0.250269532 0.912641764 -0.38892293
v 0.236057162 0.807409465 -0.407840073
v 0.216501147 0.817340076 -0.507750332
v 0.252865195 0.773963749 -0.308329374
v 0.220019206 0.760777235 -0.459081948
v 0.19953759 0.756297708 -0.553825378
v 0.238381132 0.743522823 -0.36249271
v 0.203926101 0.706599832 -0.502323866
v 0.183449239 0.692400932 -0.593097687
v 0.238401502 0.681524754 -0.325344741
v 0.252319127 0.709234715 -0.27685824
v 0.251773059 0.64450568 -0.245387092
v 0.238421857 0.619526684 -0.288196772
v 0.223537266 0.704214394 -0.410413593
v 0.22415024 0.645909548 -0.368201077
v 0.2247632 0.587604642 -0.325988591
v 0.209663779 0.60357368 -0.404615462
v 0.21101293 0.550245404 -0.35840863
v 0.188269258 0.64822793 -0.538322687
v 0.167885005 0.62473619 -0.623740971
v 0.208314613 0.656901896 -0.450822294
v 0.195241705 0.556551039 -0.434435308
v 0.197394148 0.509047091 -0.385322988
v 0.193089262 0.604054987 -0.483547628
v 0.173053384 0.586205363 -0.566276431
v 0.153120771 0.555369794 -0.646534681
v 0.181165397 0.506417274 -0.457767904
v 0.184109047 0.465160042 -0.406723946
v 0.158563226 0.52245909 -0.586843252
v 0.139299884 0.485888183 -0.66245544
v 0.178221762 0.547674477 -0.508811831
v 0.167670488 0.454606414 -0.474959373
v 0.17133528 0.419664413 -0.422766954
v 0.164005682 0.489548415 -0.527151763
v 0.144965619 0.458530784 -0.600920796
v 0.126468033 0.417325735 -0.672260642
v 0.155147403 0.402889013 -0.487252295
v 0.159663439 0.374604613 -0.435118467
v 0.13254343 0.396020591 -0.610091805
v 0.114576109 0.350281864 -0.676519096
v 0.150631368 0.431173384 -0.539386094
v 0.143898636 0.352662355 -0.496190965
v 0.14917843 0.330609262 -0.444458932
v 0.138618827 0.374715447 -0.547923028
v 0.121041924 0.33491385 -0.614239335
v 0.103472233 0.284801066 -0.674634099
v 0.133324221 0.303022325 -0.500457466
v 0.13914071 0.286498815 -0.448955417
v 0.110177442 0.274964988 -0.612273932
v 0.0929741561 0.220877945 -0.665322304
v 0.127507731 0.319545805 -0.551959515
v 0.123008549 0.253594548 -0.498553723
v 0.129134461 0.24206017 -0.447193682
v 0.116882645 0.265128911 -0.549913764
v 0.0999485105 0.216665745 -0.604055762
v 0.0830901265 0.15943408 -0.648824275
v 0.113243468 0.205604732 -0.491720676
v 0.119564071 0.198755935 -0.440652221
v 0.0903126895 0.160632208 -0.589491129
v 0.0738151073 0.10129869 -0.625683188
v 0.106922865 0.212453544 -0.542789161
v 0.104069889 0.159616753 -0.480179101
v 0.110604525 0.157403171 -0.430200219
v 0.0975352526 0.161830336 -0.530157983
v 0.0812409669 0.107527897 -0.568869412
v 0.0651437938 0.0473008752 -0.596442103
v 0.0954189152 0.116005167 -0.463951945
v 0.102171004 0.118253231 -0.415848255
v 0.0727294534 0.058106482 -0.542673767
v 0.0570523739 -0.00192326307 -0.561845064
v 0.0886668265 0.113757104 -0.512055635
v 0.0872462094 0.075266704 -0.443157554
v 0.0941773057 0.0816213191 -0.397409678
v 0.0803151131 0.0689120889 -0.48890543
v 0.0647575557 0.0129495412 -0.511569738
v 0.0495169163 -0.0457375646 -0.522635937
v 0.0795365423 0.0378759801 -0.418319255
v 0.086610347 0.0479296148 -0.375344098
v 0.0573044121 -0.0273612738 -0.476222694
v 0.0424973369 -0.0837535262 -0.479688942
v 0.0724627376 0.0278223455 -0.461294413
v 0.072274521 0.00430759788 -0.389960438
v 0.079457134 0.0176001787 -0.350111425
v 0.065091908 -0.00898498297 -0.429809451
v 0.0503343642 -0.0624658912 -0.437416971
v 0.0359533727 -0.115582317 -0.433877677
v 0.0654324144 -0.0251376182 -0.358700335
v 0.0726934373 -0.00909698009 -0.322255701
v 0.0438116193 -0.0920038968 -0.395936608
v 0.0298330709 -0.141109765 -0.38612026
v 0.0581713915 -0.0411782563 -0.395144999
v 0.0589824915 -0.050158605 -0.325158179
v 0.0662951171 -0.0318917334 -0.292320788
v 0.0516698658 -0.0684254766 -0.35799557
v 0.0376893878 -0.115861297 -0.352607995
v 0.0240842402 -0.160221517 -0.337334752
v 0.0528874248 -0.0706481338 -0.289989293
v 0.0602291524 -0.0506834388 -0.260882854
v 0.0319206566 -0.133923933 -0.308257192
v 0.0186479092 -0.1730735 -0.288394511
v 0.0455457009 -0.0906128287 -0.319095731
v 0.0471098572 -0.0864988863 -0.253848612
v 0.0544626452 -0.065371424 -0.228517592
v 0.0397570729 -0.107626349 -0.279179633
v 0.0264520496 -0.146320805 -0.263673007
v 0.0134654045 -0.179821521 -0.240172923
v 0.0416066796 -0.0977953672 -0.217365161
v 0.0489571691 -0.076022625 -0.195778817
v 0.0212303251 -0.153180763 -0.219643936
v 0.00847678632 -0.180856407 -0.193417937
v 0.0342561901 -0.11956811 -0.238951504
v 0.0363348722 -0.104622006 -0.181167409
v 0.0436745025 -0.0827040076 -0.163219869
v 0.0289952457 -0.126540005 -0.199114949
v 0.0162008069 -0.154844791 -0.176848367
v 0.00362244248 -0.176568896 -0.148877621
v 0.0312496722 -0.107231349 -0.14580062
v 0.0385745168 -0.0856295228 -0.131322443
v 0.011309132 -0.151653811 -0.135964736
v -0.00115275383 -0.167524368 -0.107113451
v 0.0239248276 -0.128833175 -0.160278797
v 0.0263064802 -0.105875969 -0.111809954
v 0.0336171389 -0.0850132108 -0.100568056
v 0.0189958215 -0.126738727 -0.123051852
v 0.00650452077 -0.144107282 -0.0975060314
v -0.00590395927 -0.154288173 -0.0686870813
v 0.0214630216 -0.100935236 -0.0796137452
v 0.0287642479 -0.0811802745 -0.0713288784
v 0.0017362833 -0.132704586 -0.0619853735
v -0.0106768608 -0.137523904 -0.033939898
v 0.0141617954 -0.120690197 -0.087898612
v 0.0166770518 -0.0927885175 -0.0496302992
v 0.0239775777 -0.0744560361 -0.0439769328
v 0.00937652588 -0.111120999 -0.0552836657
v -0.00303800404 -0.118035629 -0.0297197104
v -0.0155174732 -0.117895231 -0.003213346
v 0.0119124651 -0.0818894431 -0.0221265405
v 0.0192240775 -0.0652315319 -0.0187535584
v -0.00786113739 -0.100690365 -0.00102607906
v -0.0204596519 -0.0960846394 0.0233743489
v 0.00460085273 -0.0985473543 -0.0254995227
v 0.00713285059 -0.0686917678 0.00263054669
v 0.0144705027 -0.0538980365 0.00409990549
v -0.000204801559 -0.083485499 0.00116118789
v -0.0127649605 -0.0812781453 0.0239779055
v -0.0255368948 -0.072774604 0.045704931
v 0.00231017172 -0.0536682755 0.0245286077
v 0.00969061255 -0.0408648998 0.0244757533
v -0.00507026911 -0.0664716512 0.0245814621
v -0.017781198 -0.0604085103 0.0451745763
v -0.00258354843 -0.0372921228 0.0434552804
v 0.0048584044 -0.0265418291 0.0422663391
v 0 -0.0115737468 0.0587642789
v -0.0075128302 -0.0202395767 0.0608962551
v -0.0100255013 -0.0480424166 0.0446442217
v -0.0150256604 -0.0289054066 0.0630282313
v -0.0228537172 -0.0388101116 0.0644676015
v -0.030681774 -0.0487148166 0.0659069717
v 0.308899224 0.706041813 -0.301707
v 0.327343017 0.682100594 -0.303345352
v 0.312803328 0.652530432 -0.348512292
v 0.294377327 0.67657274 -0.349278092
v 0.239099294 0.748699605 -0.351575494
v 0.253567874 0.77786541 -0.296791941
v 0.196421444 0.844881654 -0.283080399
v 0.279271543 0.639317274 -0.390824497
v 0.297562838 0.615416408 -0.387548983
v 0.281980574 0.572581589 -0.420229197
v 0.18173261 0.816083491 -0.344354868
v 0.224397704 0.711019754 -0.400650978
v 0.263796687 0.59567517 -0.425759017
v 0.162610382 0.838544786 -0.341947973
v 0.177372634 0.867220402 -0.278509885
v 0.167137817 0.778729081 -0.40057236
v 0.148051187 0.801298916 -0.400546163
v 0.133395508 0.754180074 -0.45186156
v 0.248314887 0.547659397 -0.454034895
v 0.266423315 0.525917411 -0.44661206
v 0.25120911 0.476825088 -0.466895342
v 0.209245026 0.664955914 -0.44234854
v 0.152357876 0.731874049 -0.449483305
v 0.19398959 0.612885475 -0.476303369
v 0.13764438 0.67777729 -0.490297794
v 0.118862651 0.699407935 -0.494962603
v 0.104743086 0.639186978 -0.529676259
v 0.233168453 0.496858895 -0.475858361
v 0.179046512 0.556960285 -0.502747416
v 0.218625933 0.444636643 -0.491594374
v 0.23659423 0.426513255 -0.481404752
v 0.223148346 0.376685441 -0.491562605
v 0.12331894 0.61863029 -0.522944093
v 0.164721057 0.499006838 -0.522163153
v 0.109631032 0.556510806 -0.547789574
v 0.0912676901 0.575678766 -0.556331754
v 0.0785730556 0.510839403 -0.575726569
v 0.205166742 0.39266324 -0.502511859
v 0.151221916 0.440596581 -0.535359561
v 0.193136647 0.342198581 -0.510026872
v 0.211168379 0.328307152 -0.498508215
v 0.199782491 0.280362934 -0.500521779
v 0.0967352688 0.493278682 -0.565634847
v 0.139041439 0.383872867 -0.544582903
v 0.0847936049 0.430551946 -0.577650368
v 0.0667109936 0.446111649 -0.588672876
v 0.0556538738 0.382475764 -0.595975935
v 0.181800991 0.292416215 -0.51278317
v 0.127856508 0.328576058 -0.549567342
v 0.17070812 0.243100554 -0.509503245
v 0.188554764 0.232816651 -0.496500999
v 0.177980646 0.18694979 -0.488014668
v 0.0737045333 0.369000852 -0.584373832
v 0.117168151 0.273952276 -0.548509896
v 0.0632952601 0.308854789 -0.585672379
v 0.0453376323 0.32048896 -0.598059893
v 0.0356748402 0.260260224 -0.594703317
v 0.160264969 0.195438206 -0.501557112
v 0.107117951 0.220903456 -0.542184532
v 0.150452882 0.149884254 -0.48908636
v 0.168047965 0.143219084 -0.475287497
v 0.158571482 0.101855934 -0.458039463
v 0.0535356179 0.250421047 -0.581573606
v 0.0976676345 0.169879794 -0.530482888
v 0.0443916768 0.193769395 -0.571028352
v 0.0266330242 0.201732606 -0.584543467
v 0.018209666 0.145674556 -0.567859888
v 0.141113311 0.106715165 -0.471835703
v 0.0887387991 0.121292859 -0.513224423
v 0.13222301 0.0664886087 -0.450103283
v 0.149520516 0.0633725822 -0.436532378
v 0.140882909 0.0281942487 -0.411274612
v 0.0358419493 0.139579132 -0.554201007
v 0.0803304613 0.0758366883 -0.490816027
v 0.0278855413 0.0886549205 -0.531509757
v 0.0104039013 0.0929276645 -0.545074344
v 0.00319558382 0.0441755056 -0.51682508
v 0.123768732 0.0296603441 -0.424414635
v 0.0724261999 0.0340586305 -0.463834763
v 0.115737073 -0.00331397355 -0.395295352
v 0.132646382 -0.00325399637 -0.382774591
v 0.124788076 -0.0307111442 -0.351621777
v 0.0205032378 0.0416462868 -0.503577471
v 0.0650091469 -0.00349390507 -0.432857662
v 0.0136756673 -0.000797323883 -0.471027195
v -0.00343549252 0.000101536505 -0.483750373
v -0.00952741504 -0.038832888 -0.446643651
v 0.108103238 -0.0321501717 -0.363360614
v 0.0580487251 -0.0364672542 -0.398577124
v 0.10084229 -0.0565640405 -0.329225838
v 0.117284954 -0.0539161265 -0.318405956
v 0.110105693 -0.0727873743 -0.283742785
v 0.00736662 -0.0382414795 -0.434627026
v 0.0515142977 -0.0645077825 -0.361685574
v 0.00154013932 -0.0702519417 -0.395145476
v -0.0151179135 -0.0721666664 -0.406298757
v -0.0202589035 -0.0996996313 -0.363583773
v 0.0939203575 -0.076460883 -0.293537855
v 0.0453643501 -0.0874814093 -0.322923005
v 0.0873035938 -0.0917459875 -0.256943345
v 0.103219092 -0.087243259 -0.248247981
v 0.096588552 -0.0973770618 -0.21250701
v -0.00385309011 -0.0966450721 -0.353418589
v 0.0395570993 -0.105254173 -0.283029497
v -0.00886221603 -0.117237315 -0.310282469
v -0.0250019878 -0.12123169 -0.319366813
v -0.0294073224 -0.136831582 -0.274501026
v 0.0809525773 -0.102510825 -0.220060349
v 0.0340446532 -0.117912114 -0.242720366
v 0.0748280883 -0.108846948 -0.183506653
v 0.0901778936 -0.103282154 -0.177105248
v 0.0839490891 -0.105203688 -0.142547369
v -0.0135443285 -0.132101715 -0.266555846
v 0.0287786722 -0.125541329 -0.202710867
v -0.0179566294 -0.141311228 -0.223057479
v -0.0335350633 -0.146567866 -0.229839683
v -0.0374475121 -0.150752276 -0.186136007
v 0.0688891485 -0.11100854 -0.147816747
v 0.023709327 -0.128423095 -0.163624853
v 0.0630947798 -0.109249897 -0.1135251
v 0.0778641328 -0.103386998 -0.109338075
v 0.0718872249 -0.0981906652 -0.0778631568
v -0.0221583024 -0.145169973 -0.180508226
v 0.018786706 -0.126838595 -0.126086175
v -0.0262085963 -0.143982023 -0.139629096
v -0.0412070304 -0.149696484 -0.144143403
v -0.0448725522 -0.143900901 -0.104447424
v 0.0574063435 -0.103947513 -0.0810412318
v 0.0139636993 -0.121218055 -0.0905754566
v 0.0517849326 -0.0954778343 -0.0507746637
v 0.065982163 -0.0899733007 -0.0485084951
v 0.060117811 -0.07915923 -0.0215201378
v -0.0301634893 -0.13823019 -0.100979432
v 0.0091932416 -0.111991435 -0.0575731695
v -0.0340785012 -0.12839748 -0.0651183799
v -0.0485024154 -0.133866161 -0.06763345
v -0.0521467924 -0.120207697 -0.0340782404
v 0.0461971238 -0.0842887461 -0.0229867175
v 0.00443506241 -0.0996772945 -0.0273864567
v 0.0406095237 -0.0708281025 0.00206128508
v 0.0542630553 -0.066172719 0.00285580754
v 0.0483935475 -0.051454097 0.024515152
v -0.0380013287 -0.115075096 -0.0324052945
v -0.000351071358 -0.0847942531 -0.000322282314
v -0.0419794023 -0.0988545492 -0.0031992197
v -0.0558555126 -0.103541315 -0.00415819883
v -0.0596662462 -0.084517777 0.0219685137
v 0.0349961966 -0.0555619039 0.0242591351
v -0.00519585609 -0.0678853244 0.0234910846
v 0.0293311588 -0.0389562733 0.043496646
v 0.0424848646 -0.0354438424 0.0433537364
v 0.0365567356 -0.0187877119 0.0607818961
v 0.0236403309 -0.021680899 0.06125395
v -0.0101299584 -0.0494935662 0.0439253747
v -0.0151088834 -0.0303604603 0.0626701117
v -0.0545044541 -0.0392440706 0.0639252663
v -0.0460486487 -0.0803596675 0.0223491564
v -0.0502447747 -0.0602144338 0.0440892689
v -0.0676363111 -0.0422052704 0.0643436462
v -0.0636163801 -0.0637880564 0.0441439003
vt 0.0353402495 1
vt 0 0.75
vt 0 1
vt 0.0353402495 0.75
vt 0.0673058331 1
vt 0 0.5
vt 0.0673058331 0.75
vt 0.0992713571 1
vt 0.0353402495 0.5
vt 0.0992713571 0.75
vt 0.131236881 1
vt 0.0353402495 0.25
vt 0 0.25
vt 0 0
vt 0.0353402495 0
vt 0.0673058331 0.5
vt 0.0673058331 0.25
vt 0.0673058331 0
vt 0.0992713571 0.25
vt 0.0992713571 0
vt 0.131236881 0.75
vt 0.163202435 1
vt 0.0992713571 0.5
vt 0.131236881 0.25
vt 0.131236881 0
vt 0.131236881 0.5
vt 0.163202435 0.75
vt 0.195167989 1
vt 0.163202435 0.25
vt 0.163202435 0
vt 0.195167989 0.75
vt 0.227133542 1
vt 0.163202435 0.5
vt 0.195167989 0.25
vt 0.195167989 0
vt 0.195167989 0.5
vt 0.227133542 0.75
vt 0.259099126 1
vt 0.227133542 0.25
vt 0.227133542 0
vt 0.259099126 0.75
vt 0.291064709 1
vt 0.227133542 0.5
vt 0.259099126 0.25
vt 0.259099126 0
vt 0.259099126 0.5
vt 0.291064709 0.75
vt 0.323030114 1
vt 0.291064709 0.25
vt 0.291064709 0
vt 0.323030114 0.75
vt 0.354995728 1
vt 0.291064709 0.5
vt 0.323030114 0.25
vt 0.323030114 0
vt 0.323030114 0.5
vt 0.354995728 0.75
vt 0.386961222 1
vt 0.354995728 0.25
vt 0.354995728 0
vt 0.386961222 0.75
vt 0.418926895 1
vt 0.354995728 0.5
vt 0.386961222 0.25
vt 0.386961222 0
vt 0.386961222 0.5
vt 0.418926895 0.75
vt 0.450892299 1
vt 0.418926895 0.25
vt 0.418926895 0
vt 0.450892299 0.75
vt 0.482857883 1
vt 0.418926895 0.5
vt 0.450892299 0.25
vt 0.450892299 0
vt 0.450892299 0.5
vt 0.482857883 0.75
vt 0.514823496 1
vt 0.482857883 0.25
vt 0.482857883 0
vt 0.514823496 0.75
vt 0.54678911 1
vt 0.482857883 0.5
vt 0.514823496 0.25
vt 0.514823496 0
vt 0.514823496 0.5
vt 0.54678911 0.75
vt 0.578754663 1
vt 0.54678911 0.25
vt 0.54678911 0
vt 0.578754663 0.75
vt 0.610720098 1
vt 0.54678911 0.5
vt 0.578754663 0.25
vt 0.578754663 0
vt 0.578754663 0.5
vt 0.610720098 0.75
vt 0.642685652 1
vt 0.610720098 0.25
vt 0.610720098 0
vt 0.642685652 0.75
vt 0.674651265 1
vt 0.610720098 0.5
vt 0.642685652 0.25
vt 0.642685652 0
vt 0.642685652 0.5
vt 0.674651265 0.75
vt 0.70661664 1
vt 0.674651265 0.25
vt 0.674651265 0
vt 0.70661664 0.75
vt 0.738582253 1
vt 0.674651265 0.5
vt 0.70661664 0.25
vt 0.70661664 0
vt 0.70661664 0.5
vt 0.738582253 0.75
vt 0.770547867 1
vt 0.738582253 0.25
vt 0.738582253 0
vt 0.770547867 0.75
vt 0.80251348 1
vt 0.738582253 0.5
vt 0.770547867 0.25
vt 0.770547867 0
vt 0.770547867 0.5
vt 0.80251348 0.75
vt 0.834478855 1
vt 0.80251348 0.25
vt 0.80251348 0
vt 0.834478855 0.75
vt 0.866444468 1
vt 0.80251348 0.5
vt 0.834478855 0.25
vt 0.834478855 0
vt 0.834478855 0.5
vt 0.866444468 0.75
vt 0.898410082 1
vt 0.866444468 0.25
vt 0.866444468 0
vt 0.898410082 0.75
vt 0.930375636 1
vt 0.866444468 0.5
vt 0.898410082 0.25
vt 0.898410082 0
vt 0.898410082 0.5
vt 0.930375636 0.75
vt 0.96234107 1
vt 0.930375636 0.25
vt 0.930375636 0
vt 0.930375636 0.5
vt 0.96234107 0.75
vt 0.96234107 0.25
vt 0.96234107 0
vt 1 0
vt 1 0.25
vt 0.96234107 0.5
vt 1 0.5
vt 1 0.75
vt 1 1
vt 0 0.874851942
vt 0 0.999802589
vt 0.0353402495 0.999802589
vt 0.0353402495 0.874851942
vt 0.0353402495 0.5
vt 0 0.5
vt 0 0.125148043
vt 0.0673058331 0.874851942
vt 0.0673058331 0.999802589
vt 0.0992713571 0.999802589
vt 0.0353402495 0.125148043
vt 0.0673058331 0.5
vt 0.0992713571 0.874851942
vt 0.0353402495 0.000197380781
vt 0 0.000197380781
vt 0.0673058331 0.125148043
vt 0.0673058331 0.000197380781
vt 0.0992713571 0.000197380781
vt 0.131236881 0.874851942
vt 0.131236881 0.999802589
vt 0.163202435 0.999802589
vt 0.0992713571 0.5
vt 0.0992713571 0.125148043
vt 0.131236881 0.5
vt 0.131236881 0.125148043
vt 0.131236881 0.000197380781
vt 0.163202435 0.000197380781
vt 0.163202435 0.874851942
vt 0.163202435 0.5
vt 0.195167989 0.874851942
vt 0.195167989 0.999802589
vt 0.227133542 0.999802589
vt 0.163202435 0.125148043
vt 0.195167989 0.5
vt 0.195167989 0.125148043
vt 0.195167989 0.000197380781
vt 0.227133542 0.000197380781
vt 0.227133542 0.874851942
vt 0.227133542 0.5
vt 0.259099126 0.874851942
vt 0.259099126 0.999802589
vt 0.291064709 0.999802589
vt 0.227133542 0.125148043
vt 0.259099126 0.5
vt 0.259099126 0.125148043
vt 0.259099126 0.000197380781
vt 0.291064709 0.000197380781
vt 0.291064709 0.874851942
vt 0.291064709 0.5
vt 0.323030114 0.874851942
vt 0.323030114 0.999802589
vt 0.354995728 0.999802589
vt 0.291064709 0.125148043
vt 0.323030114 0.5
vt 0.323030114 0.125148043
vt 0.323030114 0.000197380781
vt 0.354995728 0.000197380781
vt 0.354995728 0.874851942
vt 0.354995728 0.5
vt 0.386961222 0.874851942
vt 0.386961222 0.999802589
vt 0.418926895 0.999802589
vt 0.354995728 0.125148043
vt 0.386961222 0.5
vt 0.386961222 0.125148043
vt 0.386961222 0.000197380781
vt 0.418926895 0.000197380781
vt 0.418926895 0.874851942
vt 0.418926895 0.5
vt 0.450892299 0.874851942
vt 0.450892299 0.999802589
vt 0.482857883 0.999802589
vt 0.418926895 0.125148043
vt 0.450892299 0.5
vt 0.450892299 0.125148043
vt 0.450892299 0.000197380781
vt 0.482857883 0.000197380781
vt 0.482857883 0.874851942
vt 0.482857883 0.5
vt 0.514823496 0.874851942
vt 0.514823496 0.999802589
vt 0.54678911 0.999802589
vt 0.482857883 0.125148043
vt 0.514823496 0.5
vt 0.514823496 0.125148043
vt 0.514823496 0.000197380781
vt 0.54678911 0.000197380781
vt 0.54678911 0.874851942
vt 0.54678911 0.5
vt 0.578754663 0.874851942
vt 0.578754663 0.999802589
vt 0.610720098 0.999802589
vt 0.54678911 0.125148043
vt 0.578754663 0.5
vt 0.578754663 0.125148043
vt 0.578754663 0.000197380781
vt 0.610720098 0.000197380781
vt 0.610720098 0.874851942
vt 0.610720098 0.5
vt 0.642685652 0.874851942
vt 0.642685652 0.999802589
vt 0.674651265 0.999802589
vt 0.610720098 0.125148043
vt 0.642685652 0.5
vt 0.642685652 0.125148043
vt 0.642685652 0.000197380781
vt 0.674651265 0.000197410583
vt 0.674651265 0.874851942
vt 0.674651265 0.5
vt 0.70661664 0.874851942
vt 0.70661664 0.999802589
vt 0.738582253 0.999802589
vt 0.674651265 0.125148058
vt 0.70661664 0.5
vt 0.70661664 0.125148058
vt 0.70661664 0.000197410583
vt 0.738582253 0.000197410583
vt 0.738582253 0.874851942
vt 0.738582253 0.5
vt 0.770547867 0.874851942
vt 0.770547867 0.999802589
vt 0.80251348 0.999802589
vt 0.738582253 0.125148058
vt 0.770547867 0.5
vt 0.770547867 0.125148058
vt 0.770547867 0.000197410583
vt 0.80251348 0.000197410583
vt 0.80251348 0.874851942
vt 0.80251348 0.5
vt 0.834478855 0.874851942
vt 0.834478855 0.999802589
vt 0.866444468 0.999802589
vt 0.80251348 0.125148058
vt 0.834478855 0.5
vt 0.834478855 0.125148058
vt 0.834478855 0.000197410583
vt 0.866444468 0.000197410583
vt 0.866444468 0.874851942
vt 0.866444468 0.5
vt 0.898410082 0.874851942
vt 0.898410082 0.999802589
vt 0.930375636 0.999802589
vt 0.866444468 0.125148058
vt 0.898410082 0.5
vt 0.898410082 0.125148058
vt 0.898410082 0.000197410583
vt 0.930375636 0.000197410583
vt 0.930375636 0.874851942
vt 0.930375636 0.5
vt 0.96234107 0.874851942
vt 0.96234107 0.999802589
vt 1 0.999802589
vt 1 0.874851942
vt 0.96234107 0.5
vt 1 0.5
vt 1 0.125148058
vt 0.930375636 0.125148058
vt 0.96234107 0.125148058
vt 1 0.000197410583
vt 0.96234107 0.000197410583
vn -0.974986792 0.10331554 0.19679077
vn -0.975692928 0.0991177633 0.195445582
vn -0.976449251 0.0972569212 0.192582622
vn -0.974331439 0.10505233 0.199103579
vn -0.972504735 0.114609905 0.202728987
vn -0.974143088 0.0959615037 0.204540461
vn -0.971769214 0.11691913 0.204925641
vn -0.971459031 0.124489017 0.201915145
vn -0.974168539 0.109703772 0.197384775
vn -0.970289409 0.128575161 0.204956159
vn -0.971166611 0.135802612 0.195941627
vn -0.96946913 0.125833586 0.210464999
vn -0.970405698 0.11808148 0.21064049
vn -0.96812427 0.122355655 0.21855092
vn -0.967057884 0.130906656 0.218317494
vn -0.974304497 0.122634433 0.188921869
vn -0.967346013 0.141505569 0.210280269
vn -0.964942753 0.147278264 0.217243284
vn -0.965285838 0.156316429 0.209256947
vn -0.963065982 0.162227675 0.214909539
vn -0.969573319 0.141744941 0.199589357
vn -0.970972598 0.148079351 0.187842637
vn -0.974453807 0.134965926 0.17951043
vn -0.963751197 0.169145957 0.206332952
vn -0.961687744 0.175148055 0.210902631
vn -0.97464186 0.146584183 0.169074759
vn -0.969358563 0.154572532 0.190921962
vn -0.971606791 0.157335117 0.176708505
vn -0.962886691 0.179856956 0.201248214
vn -0.960931897 0.18602629 0.204949006
vn -0.970021009 0.164170533 0.179185241
vn -0.972835779 0.163012654 0.164370164
vn -0.974929333 0.157187805 0.157495558
vn -0.963058233 0.186642975 0.194121584
vn -0.961741328 0.191179484 0.196224391
vn -0.975304544 0.166690201 0.144897953
vn -0.971497595 0.16914624 0.166077763
vn -0.974094987 0.166258112 0.15328747
vn -0.964864612 0.186339974 0.185239598
vn -0.964071274 0.189375609 0.186288565
vn -0.973054647 0.171386927 0.154244035
vn -0.974704266 0.1710767 0.143820629
vn -0.975764334 0.174995482 0.1313795
vn -0.966102242 0.187195331 0.177776426
vn -0.964944601 0.191893086 0.179050222
vn -0.976293743 0.1820544 0.117075741
vn -0.973608494 0.176764876 0.144362658
vn -0.974699974 0.178623706 0.134363636
vn -0.964899242 0.198641375 0.171787679
vn -0.963021517 0.206459031 0.173101991
vn -0.97353369 0.1848187 0.134440094
vn -0.974254489 0.187643588 0.124972388
vn -0.976887226 0.187799037 0.102092028
vn -0.963549376 0.212547436 0.162468895
vn -0.96142453 0.221631914 0.162917748
vn -0.97752738 0.19221729 0.0865607187
vn -0.973184466 0.193445325 0.124462858
vn -0.973475754 0.197430953 0.115610778
vn -0.963266671 0.222904444 0.149769127
vn -0.96121335 0.231867492 0.149353117
vn -0.97242862 0.203143671 0.114521503
vn -0.972466409 0.207778811 0.10553208
vn -0.978206873 0.195266843 0.0705841482
vn -0.962703109 0.23342444 0.136805266
vn -0.960785866 0.241843879 0.135653883
vn -0.978906691 0.196965396 0.0542783737
vn -0.971401215 0.213536784 0.103834517
vn -0.971226752 0.218647704 0.0944014937
vn -0.961447477 0.245538294 0.123812951
vn -0.959540784 0.253832102 0.121863917
vn -0.970140278 0.224385053 0.0920825154
vn -0.969719708 0.230035186 0.0820211321
vn -0.979618311 0.197291911 0.0377335586
vn -0.959700644 0.258670866 0.109836191
vn -0.957783759 0.266825348 0.107026063
vn -0.980321467 0.196283445 0.0210395996
vn -0.968589842 0.235764638 0.0790489465
vn -0.967853427 0.242113918 0.06812305
vn -0.957605183 0.272191286 0.0943620726
vn -0.9556548 0.280177861 0.0906872526
vn -0.966673613 0.247756809 0.0644888952
vn -0.965563238 0.254829645 0.0524350069
vn -0.981006145 0.193929628 0.00426733121
vn -0.955073357 0.286150038 0.0771566704
vn -0.953091562 0.293835789 0.0726429373
vn -0.981650949 0.190274552 -0.0125257503
vn -0.964298129 0.260417759 0.0480797812
vn -0.962695181 0.268376023 0.0345313996
vn -0.952002466 0.300561875 0.0579128675
vn -0.949955642 0.307932347 0.0525549836
vn -0.961332202 0.273811758 0.0294535719
vn -0.959130943 0.282613665 0.0140493615
vn -0.982244194 0.185306087 -0.0292917676
vn -0.948249638 0.315445185 0.0362891145
vn -0.946138501 0.322355628 0.0301460214
vn -0.982761919 0.179059505 -0.0460078605
vn -0.957612813 0.287943065 0.00814680383
vn -0.954602122 0.297727078 -0.0096673537
vn -0.943647146 0.330740511 0.0118627418
vn -0.941424608 0.337187439 0.00492531713
vn -0.952903867 0.302829742 -0.016383037
vn -0.9488796 0.313450813 -0.0370956324
vn -0.983188987 0.171506226 -0.0626487657
vn -0.93795675 0.346390247 -0.0158395302
vn -0.935623109 0.352219909 -0.0234631151
vn -0.983497262 0.162655652 -0.0792232826
vn -0.946907818 0.318371177 -0.044780653
vn -0.941481233 0.329884291 -0.069205828
vn -0.930898011 0.36219576 -0.0473613665
vn -0.928390741 0.367410719 -0.0556773022
vn -0.939186811 0.334472984 -0.0778200328
vn -0.931950748 0.346556067 -0.106614098
vn -0.983665168 0.152446553 -0.0957231447
vn -0.922068357 0.377952188 -0.0833193883
vn -0.919389904 0.382402778 -0.0921435654
vn -0.983655453 0.140844911 -0.112181485
vn -0.929179132 0.350834072 -0.116368093
vn -0.919394851 0.363328099 -0.150684237
vn -0.910992861 0.393228441 -0.124351792
vn -0.908066154 0.39692533 -0.133664072
vn -0.916055739 0.367111385 -0.161465943
vn -0.902900577 0.379356056 -0.202137768
vn -0.983435452 0.127741888 -0.128595173
vn -0.896995068 0.407553047 -0.171173304
vn -0.893836856 0.410382181 -0.180671498
vn -0.982951701 0.113043055 -0.145008132
vn -0.898745835 0.382608503 -0.214164793
vn -0.880798161 0.39394778 -0.262677908
vn -0.879286885 0.420123249 -0.224390298
vn -0.875822604 0.422126651 -0.233973727
vn -0.875687838 0.396463841 -0.275657743
vn -0.851315796 0.405560434 -0.332839698
vn -0.982151628 0.0965760052 -0.161403984
vn -0.856772125 0.430037528 -0.284621119
vn -0.853068292 0.431216568 -0.293814212
vn -0.980952919 0.0781729519 -0.177820906
vn -0.844914556 0.407234609 -0.346813202
vn -0.8114838 0.412382424 -0.414047003
vn -0.828233659 0.435966432 -0.352082908
vn -0.824278414 0.436480492 -0.360624313
vn -0.803695679 0.413090289 -0.42828697
vn -0.758299112 0.411681384 -0.50547111
vn -0.97926873 0.057593789 -0.194205046
vn -0.792067111 0.436434537 -0.426795632
vn -0.788067281 0.436567694 -0.434003115
vn -0.976963818 0.0345959403 -0.210582122
vn -0.748955965 0.411419064 -0.519422114
vn -0.694589615 0.40501529 -0.594565272
vn -0.746707797 0.429579675 -0.507827401
vn -0.74286443 0.429817051 -0.513234496
vn -0.973890305 0.00887994468 -0.226845518
vn -0.689397871 0.407376081 -0.598978579
vn -0.699985802 0.421628654 -0.576410651
vn -0.698942065 0.424358934 -0.575673163
vn -0.682113945 0.423408687 -0.596192598
vn -0.679388225 0.420418978 -0.601398051
vn -0.972067595 -0.0187936481 -0.233947173
vn -0.971183836 -0.0343946144 -0.235837027
vn -0.662652433 0.408146352 -0.627939761
vn -0.657202721 0.403570235 -0.636565506
vn 0.679448247 0.531280279 -0.50605464
vn 0.883116066 0.253503293 -0.394768566
vn 0.873491585 0.219178751 -0.434710562
vn 0.667602718 0.488635153 -0.561731398
vn 0.88686806 0.242641807 -0.393179417
vn 0.895358145 0.27167961 -0.352879614
vn 0.640500844 0.616950512 -0.457308084
vn 0.642402649 0.401551664 -0.652744293
vn 0.863340497 0.179403692 -0.471654028
vn 0.855106294 0.135760307 -0.500362337
vn 0.631703734 0.590242684 -0.502557516
vn 0.877932549 0.208264798 -0.431115001
vn 0.61534667 0.311008781 -0.724308014
vn 0.897612333 0.259819478 -0.35607022
vn 0.905182064 0.284394026 -0.315856606
vn 0.60862875 0.517739177 -0.601262987
vn 0.889584839 0.230123207 -0.394565791
vn 0.882877886 0.195881605 -0.426798582
vn 0.589209616 0.225362375 -0.775914788
vn 0.847933948 0.0888107866 -0.522609532
vn 0.840828001 0.0384724662 -0.539933443
vn 0.870577335 0.169619009 -0.46187079
vn 0.58280015 0.426151127 -0.691909909
vn 0.864051878 0.127335355 -0.487031758
vn 0.562399328 0.330826461 -0.757799983
vn 0.876850784 0.157755971 -0.454142898
vn 0.87081784 0.115861423 -0.477757841
vn 0.565528691 0.145177752 -0.811850131
vn 0.857549608 0.0814303011 -0.50791496
vn 0.546437979 0.0754164904 -0.834097028
vn 0.833904982 -0.014715082 -0.551711857
vn 0.827310205 -0.0701016411 -0.557354033
vn 0.547727704 0.238778561 -0.801859796
vn 0.851181149 0.0323355794 -0.523875058
vn 0.538874984 0.153851137 -0.82821703
vn 0.86487031 0.0705405548 -0.497014582
vn 0.859118581 0.022219792 -0.511294067
vn 0.536264002 0.0256410167 -0.843660712
vn 0.84506321 -0.0194209889 -0.5343135
vn 0.527666926 -0.0265682731 -0.84903574
vn 0.821164131 -0.126913384 -0.556401432
vn 0.815615356 -0.184272334 -0.548466265
vn 0.535211086 0.0820723251 -0.840721846
vn 0.839315355 -0.0731708109 -0.538698196
vn 0.530818522 0.0231718402 -0.847168624
vn 0.853663683 -0.0285311602 -0.520042539
vn 0.848626375 -0.0810515508 -0.522746563
vn 0.513465703 -0.10727755 -0.851377904
vn 0.83406055 -0.128154144 -0.536581457
vn 0.503644109 -0.193313465 -0.842005014
vn 0.810765088 -0.241238102 -0.533351719
vn 0.806739628 -0.296791404 -0.510965705
vn 0.519466162 -0.0415650755 -0.853479564
vn 0.829405963 -0.183509156 -0.527645767
vn 0.509701431 -0.117290817 -0.852318764
vn 0.844100118 -0.134569243 -0.519024074
vn 0.840198636 -0.1882274 -0.50856334
vn 0.498446614 -0.273409635 -0.822677493
vn 0.825460434 -0.238305673 -0.511688769
vn 0.489135593 -0.35803932 -0.795332789
vn 0.803595126 -0.349936694 -0.481434613
vn 0.801413774 -0.399633527 -0.445004612
vn 0.503051162 -0.199628651 -0.840885222
vn 0.822296202 -0.291576982 -0.488683701
vn 0.49150002 -0.289994538 -0.821176529
vn 0.836988151 -0.241118759 -0.491235822
vn 0.834555507 -0.292268485 -0.467007697
vn 0.476668119 -0.44467628 -0.758320808
vn 0.819986999 -0.342319787 -0.458735734
vn 0.464088231 -0.52773577 -0.711419046
vn 0.800188541 -0.444960833 -0.402129501
vn 0.799941242 -0.484989822 -0.353381962
vn 0.477812529 -0.381321877 -0.791384101
vn 0.818550289 -0.389582455 -0.422138512
vn 0.464360684 -0.469814092 -0.750762165
vn 0.832918763 -0.340740472 -0.436053038
vn 0.832121432 -0.385552108 -0.398652077
vn 0.451760262 -0.605748653 -0.654966533
vn 0.818007469 -0.432412386 -0.379319549
vn 0.439584762 -0.677575231 -0.589624584
vn 0.800594091 -0.518995643 -0.299487203
vn 0.802108526 -0.546268344 -0.241273314
vn 0.451254398 -0.553958178 -0.699642658
vn 0.818310857 -0.469995439 -0.330864727
vn 0.438242406 -0.632760346 -0.638402641
vn 0.832121015 -0.425857097 -0.355274916
vn 0.832910001 -0.460781217 -0.306499004
vn 0.427426487 -0.74229759 -0.516043425
vn 0.819427013 -0.501542211 -0.277479112
vn 0.415113449 -0.798981071 -0.435097724
vn 0.80434376 -0.566358447 -0.179636255
vn 0.807212353 -0.578839898 -0.11555364
vn 0.425366104 -0.704797447 -0.567736089
vn 0.821243942 -0.526474059 -0.219962105
vn 0.412309915 -0.769180059 -0.488223881
vn 0.834383905 -0.489671856 -0.253031373
vn 0.836484194 -0.511862338 -0.195681155
vn 0.402475625 -0.846852541 -0.347640842
vn 0.823679805 -0.544245958 -0.15921019
vn 0.389286399 -0.885203063 -0.25469926
vn 0.810527444 -0.583565235 -0.0499691032
vn 0.814171374 -0.580401242 0.0161045194
vn 0.399054587 -0.824647129 -0.400889724
vn 0.826570332 -0.554564536 -0.0961229131
vn 0.385238469 -0.870431066 -0.306497931
vn 0.839051783 -0.526961625 -0.135290921
vn 0.841991663 -0.534555256 -0.0728057623
vn 0.375365734 -0.913428664 -0.157317236
vn 0.829800606 -0.55715996 -0.0316817425
vn 0.360460579 -0.931053758 -0.0566312075
vn 0.81793052 -0.569473565 0.0817894489
vn 0.821676075 -0.550902188 0.146133989
vn 0.370805234 -0.905489326 -0.206379563
vn 0.833171666 -0.552015066 0.033233244
vn 0.355383098 -0.929195642 -0.101480462
vn 0.845104516 -0.534523845 -0.00908511598
vn 0.84826988 -0.526711345 0.0548938513
vn 0.344411552 -0.937685013 0.0461250171
vn 0.836551189 -0.539115548 0.0976548642
vn 0.326972783 -0.933095396 0.149738804
vn 0.825181842 -0.52501452 0.208409965
vn 0.828316092 -0.492119133 0.267789334
vn 0.338909268 -0.940796077 0.00658301823
vn 0.839715719 -0.518666506 0.160818443
vn 0.321041644 -0.939851105 0.116671383
vn 0.851257145 -0.511226594 0.118358001
vn 0.853927851 -0.488128334 0.180382594
vn 0.308041364 -0.917169869 0.252804339
vn 0.842524767 -0.490852982 0.221845254
vn 0.28741619 -0.889955282 0.354078472
vn 0.830842316 -0.452657402 0.323731571
vn 0.832625329 -0.407052398 0.375557363
vn 0.301749051 -0.92598784 0.22692287
vn 0.844731748 -0.456014127 0.280141741
vn 0.280766159 -0.899035037 0.336015642
vn 0.856021643 -0.457667053 0.240349308
vn 0.857370317 -0.420053691 0.297440976
vn 0.265083075 -0.851699948 0.452037841
vn 0.846181095 -0.414467186 0.33495447
vn 0.240922168 -0.80275023 0.545480251
vn 0.833398759 -0.355785102 0.422922552
vn 0.83299309 -0.299358428 0.465303183
vn 0.258135498 -0.859101653 0.441939414
vn 0.846579432 -0.366601795 0.385883927
vn 0.233710587 -0.806381583 0.543256879
vn 0.857654214 -0.375589013 0.351229519
vn 0.856637836 -0.324570328 0.401030898
vn 0.215030253 -0.743779838 0.632892907
vn 0.845720291 -0.312819451 0.432320774
vn 0.191689327 -0.691078186 0.696897626
vn 0.840364814 -0.238904476 0.486530244
vn 0.849013627 -0.20548974 0.486774951
vn 0.181801677 -0.670892119 0.718924105
vn 0.852959692 -0.254072458 0.455968082
vn 0.861517251 -0.220960289 0.457126617
vn 0.17574276 -0.659886599 0.730523229
vn 0.207641289 -0.741533935 0.637975276
vn 0.184766501 -0.682301223 0.707337558
vn 0.871936202 -0.23537156 0.429333687
vn 0.863772988 -0.26763761 0.426926732
g submesh_0
usemtl submesh_0
f 1/1/1 2/2/2 3/3/3
f 1/1/1 4/4/4 2/2/2
f 5/5/5 4/4/4 1/1/1
f 6/6/6 2/2/2 4/4/4
f 5/5/5 7/7/7 4/4/4
f 8/8/8 7/7/7 5/5/5
f 6/6/6 4/4/4 9/9/9
f 7/7/7 9/9/9 4/4/4
f 8/8/8 10/10/10 7/7/7
f 11/11/11 10/10/10 8/8/8
f 12/12/12 6/6/6 9/9/9
f 12/12/12 13/13/13 6/6/6
f 12/12/12 14/14/14 13/13/13
f 12/12/12 15/15/15 14/14/14
f 7/7/7 16/16/16 9/9/9
f 16/16/16 12/12/12 9/9/9
f 16/16/16 7/7/7 10/10/10
f 17/17/17 15/15/15 12/12/12
f 16/16/16 17/17/17 12/12/12
f 17/17/17 18/18/18 15/15/15
f 19/19/19 18/18/18 17/17/17
f 19/19/19 17/17/17 16/16/16
f 19/19/19 20/20/20 18/18/18
f 11/11/11 21/21/21 10/10/10
f 22/22/22 21/21/21 11/11/11
f 16/16/16 10/10/10 23/23/23
f 19/19/19 16/16/16 23/23/23
f 21/21/21 23/23/23 10/10/10
f 24/24/24 20/20/20 19/19/19
f 24/24/24 25/25/25 20/20/20
f 26/26/26 19/19/19 23/23/23
f 21/21/21 26/26/26 23/23/23
f 26/26/26 24/24/24 19/19/19
f 22/22/22 27/27/27 21/21/21
f 26/26/26 21/21/21 27/27/27
f 28/28/28 27/27/27 22/22/22
f 29/29/29 25/25/25 24/24/24
f 29/29/29 24/24/24 26/26/26
f 29/29/29 30/30/30 25/25/25
f 28/28/28 31/31/31 27/27/27
f 32/32/32 31/31/31 28/28/28
f 26/26/26 27/27/27 33/33/33
f 29/29/29 26/26/26 33/33/33
f 31/31/31 33/33/33 27/27/27
f 34/34/34 30/30/30 29/29/29
f 34/34/34 35/35/35 30/30/30
f 36/36/36 29/29/29 33/33/33
f 31/31/31 36/36/36 33/33/33
f 36/36/36 34/34/34 29/29/29
f 32/32/32 37/37/37 31/31/31
f 36/36/36 31/31/31 37/37/37
f 38/38/38 37/37/37 32/32/32
f 39/39/39 35/35/35 34/34/34
f 39/39/39 34/34/34 36/36/36
f 39/39/39 40/40/40 35/35/35
f 38/38/38 41/41/41 37/37/37
f 42/42/42 41/41/41 38/38/38
f 36/36/36 37/37/37 43/43/43
f 39/39/39 36/36/36 43/43/43
f 41/41/41 43/43/43 37/37/37
f 44/44/44 40/40/40 39/39/39
f 44/44/44 45/45/45 40/40/40
f 46/46/46 39/39/39 43/43/43
f 41/41/41 46/46/46 43/43/43
f 46/46/46 44/44/44 39/39/39
f 42/42/42 47/47/47 41/41/41
f 46/46/46 41/41/41 47/47/47
f 48/48/48 47/47/47 42/42/42
f 49/49/49 45/45/45 44/44/44
f 49/49/49 44/44/44 46/46/46
f 49/49/49 50/50/50 45/45/45
f 48/48/48 51/51/51 47/47/47
f 52/52/52 51/51/51 48/48/48
f 46/46/46 47/47/47 53/53/53
f 49/49/49 46/46/46 53/53/53
f 51/51/51 53/53/53 47/47/47
f 54/54/54 50/50/50 49/49/49
f 54/54/54 55/55/55 50/50/50
f 56/56/56 49/49/49 53/53/53
f 51/51/51 56/56/56 53/53/53
f 56/56/56 54/54/54 49/49/49
f 52/52/52 57/57/57 51/51/51
f 56/56/56 51/51/51 57/57/57
f 58/58/58 57/57/57 52/52/52
f 59/59/59 55/55/55 54/54/54
f 59/59/59 54/54/54 56/56/56
f 59/59/59 60/60/60 55/55/55
f 58/58/58 61/61/61 57/57/57
f 62/62/62 61/61/61 58/58/58
f 56/56/56 57/57/57 63/63/63
f 59/59/59 56/56/56 63/63/63
f 61/61/61 63/63/63 57/57/57
f 64/64/64 60/60/60 59/59/59
f 64/64/64 65/65/65 60/60/60
f 66/66/66 59/59/59 63/63/63
f 61/61/61 66/66/66 63/63/63
f 66/66/66 64/64/64 59/59/59
f 62/62/62 67/67/67 61/61/61
f 66/66/66 61/61/61 67/67/67
f 68/68/68 67/67/67 62/62/62
f 69/69/69 65/65/65 64/64/64
f 69/69/69 64/64/64 66/66/66
f 69/69/69 70/70/70 65/65/65
f 68/68/68 71/71/71 67/67/67
f 72/72/72 71/71/71 68/68/68
f 66/66/66 67/67/67 73/73/73
f 69/69/69 66/66/66 73/73/73
f 71/71/71 73/73/73 67/67/67
f 74/74/74 70/70/70 69/69/69
f 74/74/74 75/75/75 70/70/70
f 76/76/76 69/69/69 73/73/73
f 71/71/71 76/76/76 73/73/73
f 76/76/76 74/74/74 69/69/69
f 72/72/72 77/77/77 71/71/71
f 76/76/76 71/71/71 77/77/77
f 78/78/78 77/77/77 72/72/72
f 79/79/79 75/75/75 74/74/74
f 79/79/79 74/74/74 76/76/76
f 79/79/79 80/80/80 75/75/75
f 78/78/78 81/81/81 77/77/77
f 82/82/82 81/81/81 78/78/78
f 76/76/76 77/77/77 83/83/83
f 79/79/79 76/76/76 83/83/83
f 81/81/81 83/83/83 77/77/77
f 84/84/84 80/80/80 79/79/79
f 84/84/84 85/85/85 80/80/80
f 86/86/86 79/79/79 83/83/83
f 81/81/81 86/86/86 83/83/83
f 86/86/86 84/84/84 79/79/79
f 82/82/82 87/87/87 81/81/81
f 86/86/86 81/81/81 87/87/87
f 88/88/88 87/87/87 82/82/82
f 89/89/89 85/85/85 84/84/84
f 89/89/89 84/84/84 86/86/86
f 89/89/89 90/90/90 85/85/85
f 88/88/88 91/91/91 87/87/87
f 92/92/92 91/91/91 88/88/88
f 86/86/86 87/87/87 93/93/93
f 89/89/89 86/86/86 93/93/93
f 91/91/91 93/93/93 87/87/87
f 94/94/94 90/90/90 89/89/89
f 94/94/94 95/95/95 90/90/90
f 96/96/96 89/89/89 93/93/93
f 91/91/91 96/96/96 93/93/93
f 96/96/96 94/94/94 89/89/89
f 92/92/92 97/97/97 91/91/91
f 96/96/96 91/91/91 97/97/97
f 98/98/98 97/97/97 92/92/92
f 99/99/99 95/95/95 94/94/94
f 99/99/99 94/94/94 96/96/96
f 99/99/99 100/100/100 95/95/95
f 98/98/98 101/101/101 97/97/97
f 102/102/102 101/101/101 98/98/98
f 96/96/96 97/97/97 103/103/103
f 99/99/99 96/96/96 103/103/103
f 101/101/101 103/103/103 97/97/97
f 104/104/104 100/100/100 99/99/99
f 104/104/104 105/105/105 100/100/100
f 106/106/106 99/99/99 103/103/103
f 101/101/101 106/106/106 103/103/103
f 106/106/106 104/104/104 99/99/99
f 102/102/102 107/107/107 101/101/101
f 106/106/106 101/101/101 107/107/107
f 108/108/108 107/107/107 102/102/102
f 109/109/109 105/105/105 104/104/104
f 109/109/109 104/104/104 106/106/106
f 109/109/109 110/110/110 105/105/105
f 108/108/108 111/111/111 107/107/107
f 112/112/112 111/111/111 108/108/108
f 106/106/106 107/107/107 113/113/113
f 109/109/109 106/106/106 113/113/113
f 111/111/111 113/113/113 107/107/107
f 114/114/114 110/110/110 109/109/109
f 114/114/114 115/115/115 110/110/110
f 116/116/116 109/109/109 113/113/113
f 111/111/111 116/116/116 113/113/113
f 116/116/116 114/114/114 109/109/109
f 112/112/112 117/117/117 111/111/111
f 116/116/116 111/111/111 117/117/117
f 118/118/118 117/117/117 112/112/112
f 119/119/119 115/115/115 114/114/114
f 119/119/119 114/114/114 116/116/116
f 119/119/119 120/120/120 115/115/115
f 118/118/118 121/121/121 117/117/117
f 122/122/122 121/121/121 118/118/118
f 116/116/116 117/117/117 123/123/123
f 119/119/119 116/116/116 123/123/123
f 121/121/121 123/123/123 117/117/117
f 124/124/124 120/120/120 119/119/119
f 124/124/124 125/125/125 120/120/120
f 126/126/126 119/119/119 123/123/123
f 121/121/121 126/126/126 123/123/123
f 126/126/126 124/124/124 119/119/119
f 122/122/122 127/127/127 121/121/121
f 126/126/126 121/121/121 127/127/127
f 128/128/128 127/127/127 122/122/122
f 129/129/129 125/125/125 124/124/124
f 129/129/129 124/124/124 126/126/126
f 129/129/129 130/130/130 125/125/125
f 128/128/128 131/131/131 127/127/127
f 132/132/132 131/131/131 128/128/128
f 126/126/126 127/127/127 133/133/133
f 129/129/129 126/126/126 133/133/133
f 131/131/131 133/133/133 127/127/127
f 134/134/134 130/130/130 129/129/129
f 134/134/134 135/135/135 130/130/130
f 136/136/136 129/129/129 133/133/133
f 131/131/131 136/136/136 133/133/133
f 136/136/136 134/134/134 129/129/129
f 132/132/132 137/137/137 131/131/131
f 136/136/136 131/131/131 137/137/137
f 138/138/138 137/137/137 132/132/132
f 139/139/139 135/135/135 134/134/134
f 139/139/139 134/134/134 136/136/136
f 139/139/139 140/140/140 135/135/135
f 138/138/138 141/141/141 137/137/137
f 142/142/142 141/141/141 138/138/138
f 136/136/136 137/137/137 143/143/143
f 139/139/139 136/136/136 143/143/143
f 141/141/141 143/143/143 137/137/137
f 144/144/144 140/140/140 139/139/139
f 144/144/144 145/145/145 140/140/140
f 146/146/146 139/139/139 143/143/143
f 141/141/141 146/146/146 143/143/143
f 146/146/146 144/144/144 139/139/139
f 142/142/142 147/147/147 141/141/141
f 146/146/146 141/141/141 147/147/147
f 148/148/148 147/147/147 142/142/142
f 149/149/149 145/145/145 144/144/144
f 149/149/149 144/144/144 146/146/146
f 149/149/149 150/150/150 145/145/145
f 146/146/146 147/147/147 151/151/151
f 149/149/149 146/146/146 151/151/151
f 148/148/148 152/152/152 147/147/147
f 152/152/152 151/151/151 147/147/147
f 153/153/153 150/150/150 149/149/149
f 153/153/153 154/154/154 150/150/150
f 155/155/155 154/154/154 153/153/153
f 155/155/155 153/153/153 156/156/156
f 157/157/157 149/149/149 151/151/151
f 157/157/157 153/153/153 149/149/149
f 156/156/156 153/153/153 157/157/157
f 152/152/152 157/157/157 151/151/151
f 156/156/156 157/157/157 158/158/158
f 157/157/157 159/159/159 158/158/158
f 157/157/157 152/152/152 159/159/159
f 159/159/159 152/152/152 148/148/148
f 159/159/159 148/148/148 160/160/160
f 161/161/161 162/162/162 163/163/163
f 161/161/161 163/163/163 164/164/164
f 161/161/161 164/164/164 165/165/165
f 161/161/161 165/165/165 166/166/166
f 165/165/165 167/167/167 166/166/166
f 163/163/163 168/168/168 164/164/164
f 165/165/165 164/164/164 168/168/168
f 163/163/163 169/169/169 168/168/168
f 168/168/168 169/169/169 170/170/170
f 165/165/165 171/171/171 167/167/167
f 165/165/165 168/168/168 172/172/172
f 172/172/172 171/171/171 165/165/165
f 168/168/168 170/170/170 173/173/173
f 172/172/172 168/168/168 173/173/173
f 174/174/174 167/167/167 171/171/171
f 174/174/174 175/175/175 167/167/167
f 176/176/176 174/174/174 171/171/171
f 172/172/172 176/176/176 171/171/171
f 176/176/176 177/177/177 174/174/174
f 178/178/178 177/177/177 176/176/176
f 170/170/170 179/179/179 173/173/173
f 170/170/170 180/180/180 179/179/179
f 179/179/179 180/180/180 181/181/181
f 172/172/172 173/173/173 182/182/182
f 182/182/182 176/176/176 172/172/172
f 182/182/182 173/173/173 179/179/179
f 178/178/178 176/176/176 183/183/183
f 182/182/182 183/183/183 176/176/176
f 182/182/182 179/179/179 184/184/184
f 184/184/184 183/183/183 182/182/182
f 185/185/185 178/178/178 183/183/183
f 184/184/184 185/185/185 183/183/183
f 185/185/185 186/186/186 178/178/178
f 187/187/187 186/186/186 185/185/185
f 179/179/179 181/181/181 188/188/188
f 184/184/184 179/179/179 188/188/188
f 189/189/189 185/185/185 184/184/184
f 184/184/184 188/188/188 189/189/189
f 181/181/181 190/190/190 188/188/188
f 189/189/189 188/188/188 190/190/190
f 181/181/181 191/191/191 190/190/190
f 190/190/190 191/191/191 192/192/192
f 187/187/187 185/185/185 193/193/193
f 189/189/189 193/193/193 185/185/185
f 189/189/189 190/190/190 194/194/194
f 194/194/194 193/193/193 189/189/189
f 195/195/195 187/187/187 193/193/193
f 194/194/194 195/195/195 193/193/193
f 195/195/195 196/196/196 187/187/187
f 197/197/197 196/196/196 195/195/195
f 190/190/190 192/192/192 198/198/198
f 194/194/194 190/190/190 198/198/198
f 199/199/199 195/195/195 194/194/194
f 194/194/194 198/198/198 199/199/199
f 192/192/192 200/200/200 198/198/198
f 199/199/199 198/198/198 200/200/200
f 192/192/192 201/201/201 200/200/200
f 200/200/200 201/201/201 202/202/202
f 197/197/197 195/195/195 203/203/203
f 199/199/199 203/203/203 195/195/195
f 199/199/199 200/200/200 204/204/204
f 204/204/204 203/203/203 199/199/199
f 205/205/205 197/197/197 203/203/203
f 204/204/204 205/205/205 203/203/203
f 205/205/205 206/206/206 197/197/197
f 207/207/207 206/206/206 205/205/205
f 200/200/200 202/202/202 208/208/208
f 204/204/204 200/200/200 208/208/208
f 209/209/209 205/205/205 204/204/204
f 204/204/204 208/208/208 209/209/209
f 202/202/202 210/210/210 208/208/208
f 209/209/209 208/208/208 210/210/210
f 202/202/202 211/211/211 210/210/210
f 210/210/210 211/211/211 212/212/212
f 207/207/207 205/205/205 213/213/213
f 209/209/209 213/213/213 205/205/205
f 209/209/209 210/210/210 214/214/214
f 214/214/214 213/213/213 209/209/209
f 215/215/215 207/207/207 213/213/213
f 214/214/214 215/215/215 213/213/213
f 215/215/215 216/216/216 207/207/207
f 217/217/217 216/216/216 215/215/215
f 210/210/210 212/212/212 218/218/218
f 214/214/214 210/210/210 218/218/218
f 219/219/219 215/215/215 214/214/214
f 214/214/214 218/218/218 219/219/219
f 212/212/212 220/220/220 218/218/218
f 219/219/219 218/218/218 220/220/220
f 212/212/212 221/221/221 220/220/220
f 220/220/220 221/221/221 222/222/222
f 217/217/217 215/215/215 223/223/223
f 219/219/219 223/223/223 215/215/215
f 219/219/219 220/220/220 224/224/224
f 224/224/224 223/223/223 219/219/219
f 225/225/225 217/217/217 223/223/223
f 224/224/224 225/225/225 223/223/223
f 225/225/225 226/226/226 217/217/217
f 227/227/227 226/226/226 225/225/225
f 220/220/220 222/222/222 228/228/228
f 224/224/224 220/220/220 228/228/228
f 229/229/229 225/225/225 224/224/224
f 224/224/224 228/228/228 229/229/229
f 222/222/222 230/230/230 228/228/228
f 229/229/229 228/228/228 230/230/230
f 222/222/222 231/231/231 230/230/230
f 230/230/230 231/231/231 232/232/232
f 227/227/227 225/225/225 233/233/233
f 229/229/229 233/233/233 225/225/225
f 229/229/229 230/230/230 234/234/234
f 234/234/234 233/233/233 229/229/229
f 235/235/235 227/227/227 233/233/233
f 234/234/234 235/235/235 233/233/233
f 235/235/235 236/236/236 227/227/227
f 237/237/237 236/236/236 235/235/235
f 230/230/230 232/232/232 238/238/238
f 234/234/234 230/230/230 238/238/238
f 239/239/239 235/235/235 234/234/234
f 234/234/234 238/238/238 239/239/239
f 232/232/232 240/240/240 238/238/238
f 239/239/239 238/238/238 240/240/240
f 232/232/232 241/241/241 240/240/240
f 240/240/240 241/241/241 242/242/242
f 237/237/237 235/235/235 243/243/243
f 239/239/239 243/243/243 235/235/235
f 239/239/239 240/240/240 244/244/244
f 244/244/244 243/243/243 239/239/239
f 245/245/245 237/237/237 243/243/243
f 244/244/244 245/245/245 243/243/243
f 245/245/245 246/246/246 237/237/237
f 247/247/247 246/246/246 245/245/245
f 240/240/240 242/242/242 248/248/248
f 244/244/244 240/240/240 248/248/248
f 249/249/249 245/245/245 244/244/244
f 244/244/244 248/248/248 249/249/249
f 242/242/242 250/250/250 248/248/248
f 249/249/249 248/248/248 250/250/250
f 242/242/242 251/251/251 250/250/250
f 250/250/250 251/251/251 252/252/252
f 247/247/247 245/245/245 253/253/253
f 249/249/249 253/253/253 245/245/245
f 249/249/249 250/250/250 254/254/254
f 254/254/254 253/253/253 249/249/249
f 255/255/255 247/247/247 253/253/253
f 254/254/254 255/255/255 253/253/253
f 255/255/255 256/256/256 247/247/247
f 257/257/257 256/256/256 255/255/255
f 250/250/250 252/252/252 258/258/258
f 254/254/254 250/250/250 258/258/258
f 259/259/259 255/255/255 254/254/254
f 254/254/254 258/258/258 259/259/259
f 252/252/252 260/260/260 258/258/258
f 259/259/259 258/258/258 260/260/260
f 252/252/252 261/261/261 260/260/260
f 260/260/260 261/261/261 262/262/262
f 257/257/257 255/255/255 263/263/263
f 259/259/259 263/263/263 255/255/255
f 259/259/259 260/260/260 264/264/264
f 264/264/264 263/263/263 259/259/259
f 265/265/265 257/257/257 263/263/263
f 264/264/264 265/265/265 263/263/263
f 265/265/265 266/266/266 257/257/257
f 267/267/267 266/266/266 265/265/265
f 260/260/260 262/262/262 268/268/268
f 264/264/264 260/260/260 268/268/268
f 269/269/269 265/265/265 264/264/264
f 264/264/264 268/268/268 269/269/269
f 262/262/262 270/270/270 268/268/268
f 269/269/269 268/268/268 270/270/270
f 262/262/262 271/271/271 270/270/270
f 270/270/270 271/271/271 272/272/272
f 267/267/267 265/265/265 273/273/273
f 269/269/269 273/273/273 265/265/265
f 269/269/269 270/270/270 274/274/274
f 274/274/274 273/273/273 269/269/269
f 275/275/275 267/267/267 273/273/273
f 274/274/274 275/275/275 273/273/273
f 275/275/275 276/276/276 267/267/267
f 277/277/277 276/276/276 275/275/275
f 270/270/270 272/272/272 278/278/278
f 274/274/274 270/270/270 278/278/278
f 279/279/279 275/275/275 274/274/274
f 274/274/274 278/278/278 279/279/279
f 272/272/272 280/280/280 278/278/278
f 279/279/279 278/278/278 280/280/280
f 272/272/272 281/281/281 280/280/280
f 280/280/280 281/281/281 282/282/282
f 277/277/277 275/275/275 283/283/283
f 279/279/279 283/283/283 275/275/275
f 279/279/279 280/280/280 284/284/284
f 284/284/284 283/283/283 279/279/279
f 285/285/285 277/277/277 283/283/283
f 284/284/284 285/285/285 283/283/283
f 285/285/285 286/286/286 277/277/277
f 287/287/287 286/286/286 285/285/285
f 280/280/280 282/282/282 288/288/288
f 284/284/284 280/280/280 288/288/288
f 289/289/289 285/285/285 284/284/284
f 284/284/284 288/288/288 289/289/289
f 282/282/282 290/290/290 288/288/288
f 289/289/289 288/288/288 290/290/290
f 282/282/282 291/291/291 290/290/290
f 290/290/290 291/291/291 292/292/292
f 287/287/287 285/285/285 293/293/293
f 289/289/289 293/293/293 285/285/285
f 289/289/289 290/290/290 294/294/294
f 294/294/294 293/293/293 289/289/289
f 295/295/295 287/287/287 293/293/293
f 294/294/294 295/295/295 293/293/293
f 295/295/295 296/296/296 287/287/287
f 297/297/297 296/296/296 295/295/295
f 290/290/290 292/292/292 298/298/298
f 294/294/294 290/290/290 298/298/298
f 299/299/299 295/295/295 294/294/294
f 294/294/294 298/298/298 299/299/299
f 292/292/292 300/300/300 298/298/298
f 299/299/299 298/298/298 300/300/300
f 292/292/292 301/301/301 300/300/300
f 300/300/300 301/301/301 302/302/302
f 297/297/297 295/295/295 303/303/303
f 299/299/299 303/303/303 295/295/295
f 299/299/299 300/300/300 304/304/304
f 304/304/304 303/303/303 299/299/299
f 305/305/305 297/297/297 303/303/303
f 304/304/304 305/305/305 303/303/303
f 305/305/305 306/306/306 297/297/297
f 307/307/307 306/306/306 305/305/305
f 300/300/300 302/302/302 308/308/308
f 304/304/304 300/300/300 308/308/308
f 309/309/309 305/305/305 304/304/304
f 304/304/304 308/308/308 309/309/309
f 302/302/302 310/310/310 308/308/308
f 309/309/309 308/308/308 310/310/310
f 302/302/302 311/311/311 310/310/310
f 310/310/310 311/311/311 312/312/312
f 310/310/310 312/312/312 313/313/313
f 314/314/314 310/310/310 313/313/313
f 309/309/309 310/310/310 314/314/314
f 314/314/314 313/313/313 315/315/315
f 316/316/316 314/314/314 315/315/315
f 309/309/309 317/317/317 305/305/305
f 307/307/307 305/305/305 317/317/317
f 314/314/314 317/317/317 309/309/309
f 316/316/316 318/318/318 314/314/314
f 314/314/314 318/318/318 317/317/317
f 318/318/318 307/307/307 317/317/317
f 319/319/319 318/318/318 316/316/316
f 318/318/318 320/320/320 307/307/307
f 319/319/319 320/320/320 318/318/318
