o plane_00
v 0 2.7137773 1.39142983e-07
v 0.324081212 1.80918491 0.324081361
v 0.324081212 2.7137773 0.324081361
v 0.648162484 2.7137773 0.648162603
v 0.648162484 1.80918491 0.648162603
v 0.648162484 0.904592395 0.648162603
v 0 1.80918491 1.39142983e-07
v -0.324081242 2.7137773 -0.324081093
v 0.324081212 0.904592395 0.324081361
v 0.648162484 1.0982572e-07 0.648162603
v -0.324081242 1.80918491 -0.324081093
v -0.648162484 2.7137773 -0.648162365
v -0.648162484 1.80918491 -0.648162365
v 0.324081212 1.0982572e-07 0.324081361
v 0.648162484 -0.904592395 0.648162603
v 0 0.904592395 1.39142983e-07
v -0.324081242 0.904592395 -0.324081093
v -0.648162484 0.904592395 -0.648162365
v 0.324081212 -0.904592395 0.324081361
v 0.648162484 -1.80918479 0.648162603
v 0 1.0982572e-07 1.39142983e-07
v -0.324081242 1.0982572e-07 -0.324081093
v -0.648162484 1.0982572e-07 -0.648162365
v 0.324081212 -1.80918479 0.324081361
v 0.648162484 -2.7137773 0.648162603
v 0.324081212 -2.7137773 0.324081361
v 0 -0.904592395 1.39142983e-07
v -0.324081242 -0.904592395 -0.324081093
v -0.648162484 -0.904592395 -0.648162365
v 0 -1.80918479 1.39142983e-07
v 0 -2.7137773 1.39142983e-07
v -0.324081242 -1.80918479 -0.324081093
v -0.648162484 -1.80918479 -0.648162365
v -0.324081242 -2.7137773 -0.324081093
v -0.648162484 -2.7137773 -0.648162365
v 0 2.7137773 1.39142983e-07
v 0.458320111 1.80918491 1.39142983e-07
v 0.458320111 2.7137773 1.39142983e-07
v 0.916640162 2.7137773 1.39142983e-07
v 0.916640162 1.80918491 1.39142983e-07
v 0.916640162 0.904592395 1.39142983e-07
v 0 1.80918491 1.39142983e-07
v -0.458320081 2.7137773 1.39142983e-07
v 0.458320111 0.904592395 1.39142983e-07
v 0.916640162 1.0982572e-07 1.39142983e-07
v -0.458320081 1.80918491 1.39142983e-07
v -0.916640162 2.7137773 1.39142983e-07
v -0.916640162 1.80918491 1.39142983e-07
v 0.458320111 1.0982572e-07 1.39142983e-07
v 0.916640162 -0.904592395 1.39142983e-07
v 0 0.904592395 1.39142983e-07
v -0.458320081 0.904592395 1.39142983e-07
v -0.916640162 0.904592395 1.39142983e-07
v 0.458320111 -0.904592395 1.39142983e-07
v 0.916640162 -1.80918479 1.39142983e-07
v 0 1.0982572e-07 1.39142983e-07
v -0.458320081 1.0982572e-07 1.39142983e-07
v -0.916640162 1.0982572e-07 1.39142983e-07
v 0.458320111 -1.80918479 1.39142983e-07
v 0.916640162 -2.7137773 1.39142983e-07
v 0.458320111 -2.7137773 1.39142983e-07
v 0 -0.904592395 1.39142983e-07
v -0.458320081 -0.904592395 1.39142983e-07
v -0.916640162 -0.904592395 1.39142983e-07
v 0 -1.80918479 1.39142983e-07
v 0 -2.7137773 1.39142983e-07
v -0.458320081 -1.80918479 1.39142983e-07
v -0.916640162 -1.80918479 1.39142983e-07
v -0.458320081 -2.7137773 1.39142983e-07
v -0.916640162 -2.7137773 1.39142983e-07
v 0.0031394246 2.7137773 1.39142983e-07
v 0.327220619 1.80918491 -0.324081242
v 0.327220619 2.7137773 -0.324081242
v 0.651301861 2.7137773 -0.648162663
v 0.651301861 1.80918491 -0.648162663
v 0.651301861 0.904592156 -0.648162663
v 0.0031394246 1.80918491 1.39142983e-07
v -0.320941776 2.7137773 0.324081302
v 0.327220619 0.904592156 -0.324081242
v 0.651301861 1.0982572e-07 -0.648162663
v -0.320941776 1.80918491 0.324081302
v -0.645022988 2.7137773 0.648162425
v -0.645022988 1.80918491 0.648162425
v 0.327220619 1.0982572e-07 -0.324081242
v 0.651301861 -0.904592514 -0.648162663
v 0.0031394246 0.904592156 1.39142983e-07
v -0.320941776 0.904592156 0.324081302
v -0.645022988 0.904592156 0.648162425
v 0.327220619 -0.904592514 -0.324081242
v 0.651301861 -1.80918491 -0.648162663
v 0.0031394246 1.0982572e-07 1.39142983e-07
v -0.320941776 1.0982572e-07 0.324081302
v -0.645022988 1.0982572e-07 0.648162425
v 0.327220619 -1.80918491 -0.324081242
v 0.651301861 -2.7137773 -0.648162663
v 0.327220619 -2.7137773 -0.324081242
v 0.0031394246 -0.904592514 1.39142983e-07
v -0.320941776 -0.904592514 0.324081302
v -0.645022988 -0.904592514 0.648162425
v 0.0031394246 -1.80918491 1.39142983e-07
v 0.0031394246 -2.7137773 1.39142983e-07
v -0.320941776 -1.80918491 0.324081302
v -0.645022988 -1.80918491 0.648162425
v -0.320941776 -2.7137773 0.324081302
v -0.645022988 -2.7137773 0.648162425
vt 0.5 1
vt 0.25 0.833333373
vt 0.25 1
vt 0 1
vt 0 0.833333373
vt 0 0.666666687
vt 0.5 0.833333373
vt 0.75 1
vt 0.25 0.666666687
vt 0 0.5
vt 0.75 0.833333373
vt 1 1
vt 1 0.833333373
vt 0.25 0.5
vt 0 0.333333313
vt 0.5 0.666666687
vt 0.75 0.666666687
vt 1 0.666666687
vt 0.25 0.333333313
vt 0 0.166666657
vt 0.5 0.5
vt 0.75 0.5
vt 1 0.5
vt 0.25 0.166666657
vt 0 0
vt 0.25 0
vt 0.5 0.333333313
vt 0.75 0.333333313
vt 1 0.333333313
vt 0.5 0.166666657
vt 0.5 0
vt 0.75 0.166666657
vt 1 0.166666657
vt 0.75 0
vt 1 0
vt 0.5 1
vt 0.25 0.833333373
vt 0.25 1
vt 0 1
vt 0 0.833333373
vt 0 0.666666687
vt 0.5 0.833333373
vt 0.75 1
vt 0.25 0.666666687
vt 0 0.5
vt 0.75 0.833333373
vt 1 1
vt 1 0.833333373
vt 0.25 0.5
vt 0 0.333333313
vt 0.5 0.666666687
vt 0.75 0.666666687
vt 1 0.666666687
vt 0.25 0.333333313
vt 0 0.166666657
vt 0.5 0.5
vt 0.75 0.5
vt 1 0.5
vt 0.25 0.166666657
vt 0 0
vt 0.25 0
vt 0.5 0.333333313
vt 0.75 0.333333313
vt 1 0.333333313
vt 0.5 0.166666657
vt 0.5 0
vt 0.75 0.166666657
vt 1 0.166666657
vt 0.75 0
vt 1 0
vt 0.5 1
vt 0.25 0.833333373
vt 0.25 1
vt 0 1
vt 0 0.833333373
vt 0 0.666666687
vt 0.5 0.833333373
vt 0.75 1
vt 0.25 0.666666687
vt 0 0.5
vt 0.75 0.833333373
vt 1 1
vt 1 0.833333373
vt 0.25 0.5
vt 0 0.333333313
vt 0.5 0.666666687
vt 0.75 0.666666687
vt 1 0.666666687
vt 0.25 0.333333313
vt 0 0.166666657
vt 0.5 0.5
vt 0.75 0.5
vt 1 0.5
vt 0.25 0.166666657
vt 0 0
vt 0.25 0
vt 0.5 0.333333313
vt 0.75 0.333333313
vt 1 0.333333313
vt 0.5 0.166666657
vt 0.5 0
vt 0.75 0.166666657
vt 1 0.166666657
vt 0.75 0
vt 1 0
vn -0.707106888 0 0.70710665
vn -0.707106709 0 0.707106829
vn -0.707106888 0 0.70710665
vn -0.707106709 0 0.707106769
vn -0.70710665 0 0.707106888
vn -0.707106769 0 0.707106769
vn -0.707106769 0 0.707106769
vn -0.707106769 0 0.707106769
vn -0.707106709 0 0.707106769
vn -0.707106769 0 0.707106769
vn -0.707106709 0 0.707106829
vn -0.707106769 0 0.707106769
vn -0.707106769 0 0.707106769
vn -0.707106769 0 0.707106769
vn -0.707106709 0 0.707106769
vn -0.707106709 0 0.707106769
vn -0.707106709 0 0.707106769
vn -0.707106709 0 0.707106769
vn -0.707106769 0 0.707106769
vn -0.707106709 0 0.707106769
vn -0.707106769 0 0.707106769
vn -0.707106769 0 0.707106769
vn -0.707106769 0 0.707106769
vn -0.707106769 0 0.707106769
vn -0.707106769 0 0.707106769
vn -0.707106769 0 0.707106709
vn -0.707106769 0 0.707106769
vn -0.707106709 0 0.707106769
vn -0.707106709 0 0.707106769
vn -0.707106769 0 0.707106769
vn -0.707106769 0 0.707106769
vn -0.707106769 0 0.707106769
vn -0.707106709 0 0.707106769
vn -0.707106769 0 0.707106769
vn -0.707106769 0 0.707106769
vn 0 0 1
vn 0 0 1
vn 0 0 1
vn 0 0 1
vn 0 0 1
vn 0 0 1
vn 0 0 1
vn 0 0 1
vn 0 0 1
vn 0 0 1
vn 0 0 1
vn 0 0 1
vn 0 0 1
vn 0 0 1
vn 0 0 1
vn 0 0 1
vn 0 0 1
vn 0 0 1
vn 0 0 1
vn 0 0 1
vn 0 0 1
vn 0 0 1
vn 0 0 1
vn 0 0 1
vn 0 0 1
vn 0 0 1
vn 0 0 1
vn 0 0 1
vn 0 0 1
vn 0 0 1
vn 0 0 1
vn 0 0 1
vn 0 0 1
vn 0 0 1
vn 0 0 1
vn 0.70710665 0 0.707106888
vn 0.707106829 0 0.707106709
vn 0.70710665 0 0.707106888
vn 0.707106769 0 0.707106709
vn 0.707106888 0 0.70710665
vn 0.707106769 0 0.707106769
vn 0.707106769 0 0.707106769
vn 0.707106769 0 0.707106769
vn 0.707106769 0 0.707106709
vn 0.707106769 0 0.707106769
vn 0.707106829 0 0.707106709
vn 0.707106769 0 0.707106769
vn 0.707106769 0 0.707106769
vn 0.707106769 0 0.707106769
vn 0.707106769 0 0.707106709
vn 0.707106769 0 0.707106709
vn 0.707106769 0 0.707106709
vn 0.707106769 0 0.707106709
vn 0.707106769 0 0.707106769
vn 0.707106769 0 0.707106709
vn 0.707106769 0 0.707106769
vn 0.707106769 0 0.707106769
vn 0.707106769 0 0.707106769
vn 0.707106769 0 0.707106769
vn 0.707106769 0 0.707106769
vn 0.707106709 0 0.707106769
vn 0.707106769 0 0.707106769
vn 0.707106769 0 0.707106709
vn 0.707106769 0 0.707106709
vn 0.707106769 0 0.707106769
vn 0.707106769 0 0.707106769
vn 0.707106769 0 0.707106769
vn 0.707106769 0 0.707106709
vn 0.707106769 0 0.707106769
vn 0.707106769 0 0.707106769
g submesh_0
usemtl submesh_0
f 1/1/1 2/2/2 3/3/3
f 4/4/4 3/3/3 2/2/2
f 5/5/5 4/4/4 2/2/2
f 6/6/6 5/5/5 2/2/2
f 1/1/1 7/7/7 2/2/2
f 8/8/8 7/7/7 1/1/1
f 6/6/6 2/2/2 9/9/9
f 7/7/7 9/9/9 2/2/2
f 10/10/10 6/6/6 9/9/9
f 8/8/8 11/11/11 7/7/7
f 11/11/11 8/8/8 12/12/12
f 13/13/13 11/11/11 12/12/12
f 10/10/10 9/9/9 14/14/14
f 15/15/15 10/10/10 14/14/14
f 7/7/7 16/16/16 9/9/9
f 11/11/11 16/16/16 7/7/7
f 16/16/16 14/14/14 9/9/9
f 13/13/13 17/17/17 11/11/11
f 11/11/11 17/17/17 16/16/16
f 13/13/13 18/18/18 17/17/17
f 15/15/15 14/14/14 19/19/19
f 20/20/20 15/15/15 19/19/19
f 16/16/16 21/21/21 14/14/14
f 17/17/17 21/21/21 16/16/16
f 21/21/21 19/19/19 14/14/14
f 18/18/18 22/22/22 17/17/17
f 17/17/17 22/22/22 21/21/21
f 18/18/18 23/23/23 22/22/22
f 20/20/20 19/19/19 24/24/24
f 25/25/25 20/20/20 24/24/24
f 26/26/26 25/25/25 24/24/24
f 21/21/21 27/27/27 19/19/19
f 22/22/22 27/27/27 21/21/21
f 27/27/27 24/24/24 19/19/19
f 23/23/23 28/28/28 22/22/22
f 22/22/22 28/28/28 27/27/27
f 23/23/23 29/29/29 28/28/28
f 30/30/30 26/26/26 24/24/24
f 27/27/27 30/30/30 24/24/24
f 28/28/28 30/30/30 27/27/27
f 30/30/30 31/31/31 26/26/26
f 29/29/29 32/32/32 28/28/28
f 28/28/28 32/32/32 30/30/30
f 32/32/32 31/31/31 30/30/30
f 29/29/29 33/33/33 32/32/32
f 32/32/32 34/34/34 31/31/31
f 33/33/33 35/35/35 32/32/32
f 35/35/35 34/34/34 32/32/32
f 36/36/36 37/37/37 38/38/38
f 39/39/39 38/38/38 37/37/37
f 40/40/40 39/39/39 37/37/37
f 41/41/41 40/40/40 37/37/37
f 36/36/36 42/42/42 37/37/37
f 43/43/43 42/42/42 36/36/36
f 41/41/41 37/37/37 44/44/44
f 42/42/42 44/44/44 37/37/37
f 45/45/45 41/41/41 44/44/44
f 43/43/43 46/46/46 42/42/42
f 46/46/46 43/43/43 47/47/47
f 48/48/48 46/46/46 47/47/47
f 45/45/45 44/44/44 49/49/49
f 50/50/50 45/45/45 49/49/49
f 42/42/42 51/51/51 44/44/44
f 46/46/46 51/51/51 42/42/42
f 51/51/51 49/49/49 44/44/44
f 48/48/48 52/52/52 46/46/46
f 46/46/46 52/52/52 51/51/51
f 48/48/48 53/53/53 52/52/52
f 50/50/50 49/49/49 54/54/54
f 55/55/55 50/50/50 54/54/54
f 51/51/51 56/56/56 49/49/49
f 52/52/52 56/56/56 51/51/51
f 56/56/56 54/54/54 49/49/49
f 53/53/53 57/57/57 52/52/52
f 52/52/52 57/57/57 56/56/56
f 53/53/53 58/58/58 57/57/57
f 55/55/55 54/54/54 59/59/59
f 60/60/60 55/55/55 59/59/59
f 61/61/61 60/60/60 59/59/59
f 56/56/56 62/62/62 54/54/54
f 57/57/57 62/62/62 56/56/56
f 62/62/62 59/59/59 54/54/54
f 58/58/58 63/63/63 57/57/57
f 57/57/57 63/63/63 62/62/62
f 58/58/58 64/64/64 63/63/63
f 65/65/65 61/61/61 59/59/59
f 62/62/62 65/65/65 59/59/59
f 63/63/63 65/65/65 62/62/62
f 65/65/65 66/66/66 61/61/61
f 64/64/64 67/67/67 63/63/63
f 63/63/63 67/67/67 65/65/65
f 67/67/67 66/66/66 65/65/65
f 64/64/64 68/68/68 67/67/67
f 67/67/67 69/69/69 66/66/66
f 68/68/68 70/70/70 67/67/67
f 70/70/70 69/69/69 67/67/67
f 71/71/71 72/72/72 73/73/73
f 74/74/74 73/73/73 72/72/72
f 75/75/75 74/74/74 72/72/72
f 76/76/76 75/75/75 72/72/72
f 71/71/71 77/77/77 72/72/72
f 78/78/78 77/77/77 71/71/71
f 76/76/76 72/72/72 79/79/79
f 77/77/77 79/79/79 72/72/72
f 80/80/80 76/76/76 79/79/79
f 78/78/78 81/81/81 77/77/77
f 81/81/81 78/78/78 82/82/82
f 83/83/83 81/81/81 82/82/82
f 80/80/80 79/79/79 84/84/84
f 85/85/85 80/80/80 84/84/84
f 77/77/77 86/86/86 79/79/79
f 81/81/81 86/86/86 77/77/77
f 86/86/86 84/84/84 79/79/79
f 83/83/83 87/87/87 81/81/81
f 81/81/81 87/87/87 86/86/86
f 83/83/83 88/88/88 87/87/87
f 85/85/85 84/84/84 89/89/89
f 90/90/90 85/85/85 89/89/89
f 86/86/86 91/91/91 84/84/84
f 87/87/87 91/91/91 86/86/86
f 91/91/91 89/89/89 84/84/84
f 88/88/88 92/92/92 87/87/87
f 87/87/87 92/92/92 91/91/91
f 88/88/88 93/93/93 92/92/92
f 90/90/90 89/89/89 94/94/94
f 95/95/95 90/90/90 94/94/94
f 96/96/96 95/95/95 94/94/94
f 91/91/91 97/97/97 89/89/89
f 92/92/92 97/97/97 91/91/91
f 97/97/97 94/94/94 89/89/89
f 93/93/93 98/98/98 92/92/92
f 92/92/92 98/98/98 97/97/97
f 93/93/93 99/99/99 98/98/98
f 100/100/100 96/96/96 94/94/94
f 97/97/97 100/100/100 94/94/94
f 98/98/98 100/100/100 97/97/97
f 100/100/100 101/101/101 96/96/96
f 99/99/99 102/102/102 98/98/98
f 98/98/98 102/102/102 100/100/100
f 102/102/102 101/101/101 100/100/100
f 99/99/99 103/103/103 102/102/102
f 102/102/102 104/104/104 101/101/101
f 103/103/103 105/105/105 102/102/102
f 105/105/105 104/104/104 102/102/102
