o plane_01
v -1.14929545 0.384647757 -1.09878421
v 6.5818447e-18 -7.52939234e-17 -9.20445822e-17
v -0.028899651 1.16950321 -1.99593306
v 1.12039578 0.784855604 -0.897148728
v 1.5449388 0.487380922 -0.227561429
v 6.5818447e-18 -7.52939234e-17 -9.20445822e-17
v 1.98005998 -0.238161474 1.17258787
v 0.435121179 -0.725542426 1.40014935
v -0.395643473 -0.872028649 1.32634568
v 6.5818447e-18 -7.52939234e-17 -9.20445822e-17
v -1.95116043 -0.931341648 0.823344886
v -1.55551672 -0.0593130216 -0.503000736
v -1.07619548 0.213804215 1.1312058
v 6.5818447e-18 -7.52939234e-17 -9.20445822e-17
v -1.5639993 1.68941832 0.870158255
v -0.487803817 1.47561407 -0.261047423
v 1.07619548 -0.213804215 -1.1312058
v 6.5818447e-18 -7.52939234e-17 -9.20445822e-17
v 1.5639993 -1.68941832 -0.870158255
v 0.487803817 -1.47561407 0.261047423
v -0.183532164 1.09590578 0.0765671134
v 6.5818447e-18 -7.52939234e-17 -9.20445822e-17
v 0.642383575 1.18236375 0.818823397
v 0.825915754 0.0864578784 0.742256284
v 0.183532164 -1.09590578 -0.0765671134
v 6.5818447e-18 -7.52939234e-17 -9.20445822e-17
v -0.642383575 -1.18236375 -0.818823397
v -0.825915754 -0.0864578784 -0.742256284
vt 1 0
vt 0 0
vt 1 1
vt 0 1
vt 0 1
vt 0 0
vt 1 1
vt 1 0
vt 1 0
vt 0 0
vt 1 1
vt 0 1
vt 1 0
vt 0 0
vt 1 1
vt 0 1
vt 0 1
vt 0 0
vt 1 1
vt 1 0
vt 1 0
vt 0 0
vt 1 1
vt 0 1
vt 1 0
vt 0 0
vt 1 1
vt 0 1
vn -0.193299696 0.84530133 0.498097301
vn -0.193299621 0.84530133 0.498097301
vn -0.193299636 0.84530133 0.49809736
vn -0.193299592 0.84530133 0.498097301
vn -0.193299547 0.84530133 0.49809742
vn -0.193299592 0.84530133 0.49809742
vn -0.193299592 0.84530133 0.49809742
vn -0.193299606 0.84530133 0.49809742
vn -0.193299592 0.84530133 0.49809742
vn -0.193299562 0.84530133 0.49809736
vn -0.193299562 0.84530133 0.49809736
vn -0.193299592 0.84530133 0.49809736
vn 0.71195358 0.343688756 0.612372577
vn 0.71195358 0.343688786 0.612372577
vn 0.7119537 0.343688786 0.612372458
vn 0.71195364 0.343688786 0.612372398
vn 0.71195358 0.343688756 0.612372577
vn 0.71195358 0.343688786 0.612372577
vn 0.7119537 0.343688786 0.612372458
vn 0.71195364 0.343688786 0.612372398
vn -0.650372028 -0.160787463 0.742403805
vn -0.650372028 -0.160787463 0.742403805
vn -0.650372028 -0.160787463 0.742403805
vn -0.650372028 -0.160787463 0.742403805
vn -0.650372028 -0.160787463 0.742403805
vn -0.650372028 -0.160787463 0.742403805
vn -0.650372028 -0.160787463 0.742403805
vn -0.650372028 -0.160787463 0.742403805
g submesh_0
usemtl submesh_0
f 1/1/1 2/2/2 3/3/3
f 2/2/2 4/4/4 3/3/3
f 5/5/5 6/6/6 7/7/7
f 6/6/6 8/8/8 7/7/7
f 9/9/9 10/10/10 11/11/11
f 10/10/10 12/12/12 11/11/11
f 13/13/13 14/14/14 15/15/15
f 14/14/14 16/16/16 15/15/15
f 17/17/17 18/18/18 19/19/19
f 18/18/18 20/20/20 19/19/19
f 21/21/21 22/22/22 23/23/23
f 22/22/22 24/24/24 23/23/23
f 25/25/25 26/26/26 27/27/27
f 26/26/26 28/28/28 27/27/27
