o Shion1kuji2024_disk_00
v -5.26976651e-17 -1.1920929e-07 -0.75612843
v -8.32667268e-17 -1.1920929e-07 -1
v -0.222286344 -1.1920929e-07 -0.974200368
v -0.168077976 -1.1920929e-07 -0.736632347
v -0.433430761 -1.1920929e-07 -0.899961412
v -3.67794544e-17 -1.1920929e-07 -0.586141527
v -0.327733845 -1.1920929e-07 -0.68049705
v -0.623364806 -1.1920929e-07 -0.781585515
v -0.1302903 -1.1920929e-07 -0.571014583
v -0.471348375 -1.1920929e-07 -0.590986311
v -0.781585515 -1.1920929e-07 -0.623364806
v -0.0991249681 -1.1920929e-07 -0.43442741
v -2.73366798e-17 -1.1920929e-07 -0.445930362
v -0.254052758 -1.1920929e-07 -0.527501702
v -0.590986311 -1.1920929e-07 -0.471348375
v -0.899961412 -1.1920929e-07 -0.433430761
v -0.0767206252 -1.1920929e-07 -0.336234212
v -2.08990209e-17 -1.1920929e-07 -0.345145404
v -0.365381956 -1.1920929e-07 -0.458120137
v -0.193279132 -1.1920929e-07 -0.401324242
v -0.0577548742 -1.1920929e-07 -0.253118634
v -1.58452601e-17 -1.1920929e-07 -0.259821981
v -0.14959456 -1.1920929e-07 -0.310616165
v -0.0422844365 -1.1920929e-07 -0.185317338
v -1.22031028e-17 -1.1920929e-07 -0.190225065
v -8.46696533e-18 -1.1920929e-07 -0.131985217
v -0.277980447 -1.1920929e-07 -0.348533988
v -0.348533988 -1.1920929e-07 -0.277980447
v -0.458120137 -1.1920929e-07 -0.365381956
v -0.112614833 -1.1920929e-07 -0.233829737
v -0.215150699 -1.1920929e-07 -0.269758284
v -0.0293385107 -1.1920929e-07 -0.128580049
v -5.69725279e-18 -1.1920929e-07 -0.0888102278
v -0.68049705 -1.1920929e-07 -0.327733845
v -0.0824494064 -1.1920929e-07 -0.171195254
v -0.527501702 -1.1920929e-07 -0.254052758
v -0.571014583 -1.1920929e-07 -0.1302903
v -0.736632347 -1.1920929e-07 -0.168077976
v -0.974200368 -1.1920929e-07 -0.222286344
v -1 -1.1920929e-07 -2.75985061e-15
v -0.75612843 -1.1920929e-07 -2.08311046e-15
v -0.974200368 -1.1920929e-07 0.222286344
v -0.736632347 -1.1920929e-07 0.168077976
v -0.899961412 -1.1920929e-07 0.433430761
v -0.401324242 -1.1920929e-07 -0.193279132
v -0.586141527 -1.1920929e-07 -1.60841985e-15
v -0.68049705 -1.1920929e-07 0.327733845
v -0.781585515 -1.1920929e-07 0.623364806
v -0.571014583 -1.1920929e-07 0.1302903
v -0.590986311 -1.1920929e-07 0.471348375
v -0.623364806 -1.1920929e-07 0.781585515
v -0.527501702 -1.1920929e-07 0.254052758
v -0.43442741 -1.1920929e-07 0.0991249681
v -0.445930362 -1.1920929e-07 -1.22177176e-15
v -0.43442741 -1.1920929e-07 -0.0991249681
v -0.471348375 -1.1920929e-07 0.590986311
v -0.433430761 -1.1920929e-07 0.899961412
v -0.458120137 -1.1920929e-07 0.365381956
v -0.401324242 -1.1920929e-07 0.193279132
v -0.336234212 -1.1920929e-07 0.0767206252
v -0.327733845 -1.1920929e-07 0.68049705
v -0.222286344 -1.1920929e-07 0.974200368
v -0.310616165 -1.1920929e-07 -0.14959456
v -0.345145404 -1.1920929e-07 -9.4424406e-16
v -0.365381956 -1.1920929e-07 0.458120137
v -0.277980447 -1.1920929e-07 0.348533988
v -0.348533988 -1.1920929e-07 0.277980447
v -0.168077976 -1.1920929e-07 0.736632347
v 2.16703236e-15 -1.1920929e-07 1
v -0.254052758 -1.1920929e-07 0.527501702
v -0.310616165 -1.1920929e-07 0.14959456
v 1.62315844e-15 -1.1920929e-07 0.75612843
v 0.222286344 -1.1920929e-07 0.974200368
v -0.1302903 -1.1920929e-07 0.571014583
v 0.168077976 -1.1920929e-07 0.736632347
v 0.433430761 -1.1920929e-07 0.899961412
v -0.193279132 -1.1920929e-07 0.401324242
v -0.253118634 -1.1920929e-07 0.0577548742
v -0.269758284 -1.1920929e-07 0.215150699
v 1.25429676e-15 -1.1920929e-07 0.586141527
v 0.327733845 -1.1920929e-07 0.68049705
v 0.623364806 -1.1920929e-07 0.781585515
v -0.233829737 -1.1920929e-07 0.112614833
v 0.1302903 -1.1920929e-07 0.571014583
v 0.471348375 -1.1920929e-07 0.590986311
v 0.781585515 -1.1920929e-07 0.623364806
v 0.254052758 -1.1920929e-07 0.527501702
v 0.0991249681 -1.1920929e-07 0.43442741
v 9.53673019e-16 -1.1920929e-07 0.445930362
v 0.590986311 -1.1920929e-07 0.471348375
v 0.899961412 -1.1920929e-07 0.433430761
v 0.365381956 -1.1920929e-07 0.458120137
v 0.193279132 -1.1920929e-07 0.401324242
v 0.68049705 -1.1920929e-07 0.327733845
v 0.974200368 -1.1920929e-07 0.222286344
v -0.0991249681 -1.1920929e-07 0.43442741
v 0.0767206252 -1.1920929e-07 0.336234212
v 0.458120137 -1.1920929e-07 0.365381956
v 0.348533988 -1.1920929e-07 0.277980447
v 0.736632347 -1.1920929e-07 0.168077976
v 1 -1.1920929e-07 -7.03840439e-16
v 0.527501702 -1.1920929e-07 0.254052758
v 0.277980447 -1.1920929e-07 0.348533988
v 0.75612843 -1.1920929e-07 -5.41833e-16
v 0.974200368 -1.1920929e-07 -0.222286344
v 0.571014583 -1.1920929e-07 0.1302903
v 0.14959456 -1.1920929e-07 0.310616165
v 0.736632347 -1.1920929e-07 -0.168077976
v 0.899961412 -1.1920929e-07 -0.433430761
v 0.401324242 -1.1920929e-07 0.193279132
v 0.215150699 -1.1920929e-07 0.269758284
v 0.586141527 -1.1920929e-07 -4.186927e-16
v 0.68049705 -1.1920929e-07 -0.327733845
v 0.781585515 -1.1920929e-07 -0.623364806
v 0.571014583 -1.1920929e-07 -0.1302903
v 0.590986311 -1.1920929e-07 -0.471348375
v 0.623364806 -1.1920929e-07 -0.781585515
v 0.527501702 -1.1920929e-07 -0.254052758
v 0.43442741 -1.1920929e-07 -0.0991249681
v 0.445930362 -1.1920929e-07 -3.17283613e-16
v 0.471348375 -1.1920929e-07 -0.590986311
v 0.433430761 -1.1920929e-07 -0.899961412
v 0.458120137 -1.1920929e-07 -0.365381956
v 0.401324242 -1.1920929e-07 -0.193279132
v 0.327733845 -1.1920929e-07 -0.68049705
v 0.222286344 -1.1920929e-07 -0.974200368
v 0.43442741 -1.1920929e-07 0.0991249681
v 0.336234212 -1.1920929e-07 -0.0767206252
v 0.365381956 -1.1920929e-07 -0.458120137
v 0.277980447 -1.1920929e-07 -0.348533988
v 0.168077976 -1.1920929e-07 -0.736632347
v -8.32667268e-17 -1.1920929e-07 -1
v -5.26976651e-17 -1.1920929e-07 -0.75612843
v 0.254052758 -1.1920929e-07 -0.527501702
v 0.1302903 -1.1920929e-07 -0.571014583
v -3.67794544e-17 -1.1920929e-07 -0.586141527
v -2.73366798e-17 -1.1920929e-07 -0.445930362
v 0.348533988 -1.1920929e-07 -0.277980447
v 0.193279132 -1.1920929e-07 -0.401324242
v 0.0991249681 -1.1920929e-07 -0.43442741
v -2.08990209e-17 -1.1920929e-07 -0.345145404
v 0.310616165 -1.1920929e-07 -0.14959456
v 0.14959456 -1.1920929e-07 -0.310616165
v 0.0767206252 -1.1920929e-07 -0.336234212
v -1.58452601e-17 -1.1920929e-07 -0.259821981
v 0.269758284 -1.1920929e-07 -0.215150699
v 0.0577548742 -1.1920929e-07 -0.253118634
v -1.22031028e-17 -1.1920929e-07 -0.190225065
v 0.112614833 -1.1920929e-07 -0.233829737
v 0.215150699 -1.1920929e-07 -0.269758284
v 0.16196388 -1.1920929e-07 -0.203073099
v 0.0422844365 -1.1920929e-07 -0.185317338
v 0.0293385107 -1.1920929e-07 -0.128580049
v -8.46696533e-18 -1.1920929e-07 -0.131985217
v 0.0197412986 -1.1920929e-07 -0.0865189582
v -5.69725279e-18 -1.1920929e-07 -0.0888102278
v 0.0572064593 -1.1920929e-07 -0.118781619
v 0.0824494064 -1.1920929e-07 -0.171195254
v 0.118579619 -1.1920929e-07 -0.148677185
v 0.203073099 -1.1920929e-07 -0.16196388
v 0.0133952824 -1.1920929e-07 -0.0587066598
v -3.86581991e-18 -1.1920929e-07 -0.0602613911
v 0.00799107272 -1.1920929e-07 -0.0350219719
v -2.30618844e-18 -1.1920929e-07 -0.0359494574
v 0.0155816004 -1.1920929e-07 -0.0323531255
v 0.0384930894 -1.1920929e-07 -0.0799257904
v 0.026119139 -1.1920929e-07 -0.0542329252
v 0.0224096254 -1.1920929e-07 -0.0280975737
v 0.0375648253 -1.1920929e-07 -0.0470994301
v 0.0280975737 -1.1920929e-07 -0.0224096254
v 0.0553611703 -1.1920929e-07 -0.0694127902
v 0.0470994301 -1.1920929e-07 -0.0375648253
v 0.0323531255 -1.1920929e-07 -0.0155816004
v 0.0694127902 -1.1920929e-07 -0.0553611703
v 0.0822749436 -1.1920929e-07 -0.103157736
v 0.103157736 -1.1920929e-07 -0.0822749436
v 0.0542329252 -1.1920929e-07 -0.026119139
v 0.148677185 -1.1920929e-07 -0.118579619
v 0.0799257904 -1.1920929e-07 -0.0384930894
v 0.0587066598 -1.1920929e-07 -0.0133952824
v 0.0350219719 -1.1920929e-07 -0.00799107272
v 0.0359494574 -1.1920929e-07 -2.5187916e-17
v 0.118781619 -1.1920929e-07 -0.0572064593
v 0.171195254 -1.1920929e-07 -0.0824494064
v 0.0865189582 -1.1920929e-07 -0.0197412986
v 0.0602613911 -1.1920929e-07 -4.22220215e-17
v 0.0350219719 -1.1920929e-07 0.00799107272
v 0.128580049 -1.1920929e-07 -0.0293385107
v 0.233829737 -1.1920929e-07 -0.112614833
v 0.0888102278 -1.1920929e-07 -6.22247145e-17
v 0.0587066598 -1.1920929e-07 0.0133952824
v 0.0323531255 -1.1920929e-07 0.0155816004
v 0.185317338 -1.1920929e-07 -0.0422844365
v 0.253118634 -1.1920929e-07 -0.0577548742
v 0.131985217 -1.1920929e-07 -9.24751926e-17
v 0.345145404 -1.1920929e-07 -2.44325277e-16
v 0.259821981 -1.1920929e-07 -1.82878265e-16
v 0.336234212 -1.1920929e-07 0.0767206252
v 0.190225065 -1.1920929e-07 -1.33280846e-16
v 0.0865189582 -1.1920929e-07 0.0197412986
v 0.310616165 -1.1920929e-07 0.14959456
v 0.253118634 -1.1920929e-07 0.0577548742
v 0.128580049 -1.1920929e-07 0.0293385107
v 0.233829737 -1.1920929e-07 0.112614833
v 0.185317338 -1.1920929e-07 0.0422844365
v 0.269758284 -1.1920929e-07 0.215150699
v 0.203073099 -1.1920929e-07 0.16196388
v 0.118781619 -1.1920929e-07 0.0572064593
v 0.171195254 -1.1920929e-07 0.0824494064
v 0.148677185 -1.1920929e-07 0.118579619
v 0.16196388 -1.1920929e-07 0.203073099
v 0.0799257904 -1.1920929e-07 0.0384930894
v 0.103157736 -1.1920929e-07 0.0822749436
v 0.0694127902 -1.1920929e-07 0.0553611703
v 0.0542329252 -1.1920929e-07 0.026119139
v 0.0280975737 -1.1920929e-07 0.0224096254
v 0.0470994301 -1.1920929e-07 0.0375648253
v 0.0224096254 -1.1920929e-07 0.0280975737
v 0.0822749436 -1.1920929e-07 0.103157736
v 0.0553611703 -1.1920929e-07 0.0694127902
v 0.0375648253 -1.1920929e-07 0.0470994301
v 0.0155816004 -1.1920929e-07 0.0323531255
v 0.026119139 -1.1920929e-07 0.0542329252
v 0.00799107272 -1.1920929e-07 0.0350219719
v 0.118579619 -1.1920929e-07 0.148677185
v 0.0384930894 -1.1920929e-07 0.0799257904
v 0.0133952824 -1.1920929e-07 0.0587066598
v 7.6430357e-17 -1.1920929e-07 0.0359494574
v 0.0572064593 -1.1920929e-07 0.118781619
v 0.0824494064 -1.1920929e-07 0.171195254
v 0.0197412986 -1.1920929e-07 0.0865189582
v 1.28118736e-16 -1.1920929e-07 0.0602613911
v -0.00799107272 -1.1920929e-07 0.0350219719
v 0.0293385107 -1.1920929e-07 0.128580049
v 0.112614833 -1.1920929e-07 0.233829737
v 1.88815039e-16 -1.1920929e-07 0.0888102278
v -0.0133952824 -1.1920929e-07 0.0587066598
v -0.0155816004 -1.1920929e-07 0.0323531255
v 0.0422844365 -1.1920929e-07 0.185317338
v 0.0577548742 -1.1920929e-07 0.253118634
v 2.80607219e-16 -1.1920929e-07 0.131985217
v 7.37631654e-16 -1.1920929e-07 0.345145404
v 5.54537912e-16 -1.1920929e-07 0.259821981
v -0.0767206252 -1.1920929e-07 0.336234212
v 4.04428136e-16 -1.1920929e-07 0.190225065
v -0.0197412986 -1.1920929e-07 0.0865189582
v -0.14959456 -1.1920929e-07 0.310616165
v -0.0577548742 -1.1920929e-07 0.253118634
v -0.0293385107 -1.1920929e-07 0.128580049
v -0.112614833 -1.1920929e-07 0.233829737
v -0.0422844365 -1.1920929e-07 0.185317338
v -0.215150699 -1.1920929e-07 0.269758284
v -0.16196388 -1.1920929e-07 0.203073099
v -0.0572064593 -1.1920929e-07 0.118781619
v -0.203073099 -1.1920929e-07 0.16196388
v -0.118579619 -1.1920929e-07 0.148677185
v -0.0824494064 -1.1920929e-07 0.171195254
v -0.0384930894 -1.1920929e-07 0.0799257904
v -0.0822749436 -1.1920929e-07 0.103157736
v -0.0553611703 -1.1920929e-07 0.0694127902
v -0.026119139 -1.1920929e-07 0.0542329252
v -0.0224096254 -1.1920929e-07 0.0280975737
v -0.0375648253 -1.1920929e-07 0.0470994301
v -0.0280975737 -1.1920929e-07 0.0224096254
v -0.103157736 -1.1920929e-07 0.0822749436
v -0.0694127902 -1.1920929e-07 0.0553611703
v -0.0470994301 -1.1920929e-07 0.0375648253
v -0.0323531255 -1.1920929e-07 0.0155816004
v -0.0542329252 -1.1920929e-07 0.026119139
v -0.0350219719 -1.1920929e-07 0.00799107272
v -0.148677185 -1.1920929e-07 0.118579619
v -0.0799257904 -1.1920929e-07 0.0384930894
v -0.0587066598 -1.1920929e-07 0.0133952824
v -0.0359494574 -1.1920929e-07 -9.83859936e-17
v -0.171195254 -1.1920929e-07 0.0824494064
v -0.118781619 -1.1920929e-07 0.0572064593
v -0.0865189582 -1.1920929e-07 0.0197412986
v -0.0602613911 -1.1920929e-07 -1.64922569e-16
v -0.0350219719 -1.1920929e-07 -0.00799107272
v -0.128580049 -1.1920929e-07 0.0293385107
v -0.185317338 -1.1920929e-07 0.0422844365
v -0.0888102278 -1.1920929e-07 -2.43054648e-16
v -0.0587066598 -1.1920929e-07 -0.0133952824
v -0.0323531255 -1.1920929e-07 -0.0155816004
v -0.131985217 -1.1920929e-07 -3.61215374e-16
v -0.259821981 -1.1920929e-07 -7.1021648e-16
v -0.0865189582 -1.1920929e-07 -0.0197412986
v -0.0542329252 -1.1920929e-07 -0.026119139
v -0.0280975737 -1.1920929e-07 -0.0224096254
v -0.190225065 -1.1920929e-07 -5.20605508e-16
v -0.336234212 -1.1920929e-07 -0.0767206252
v -0.0799257904 -1.1920929e-07 -0.0384930894
v -0.0470994301 -1.1920929e-07 -0.0375648253
v -0.0224096254 -1.1920929e-07 -0.0280975737
v -0.128580049 -1.1920929e-07 -0.0293385107
v -0.253118634 -1.1920929e-07 -0.0577548742
v -0.118781619 -1.1920929e-07 -0.0572064593
v -0.185317338 -1.1920929e-07 -0.0422844365
v -0.233829737 -1.1920929e-07 -0.112614833
v -0.0694127902 -1.1920929e-07 -0.0553611703
v -0.0375648253 -1.1920929e-07 -0.0470994301
v -0.0155816004 -1.1920929e-07 -0.0323531255
v -0.171195254 -1.1920929e-07 -0.0824494064
v -0.0553611703 -1.1920929e-07 -0.0694127902
v -0.026119139 -1.1920929e-07 -0.0542329252
v -0.00799107272 -1.1920929e-07 -0.0350219719
v -0.103157736 -1.1920929e-07 -0.0822749436
v -0.148677185 -1.1920929e-07 -0.118579619
v -0.0822749436 -1.1920929e-07 -0.103157736
v -0.0384930894 -1.1920929e-07 -0.0799257904
v -0.0133952824 -1.1920929e-07 -0.0587066598
v -2.30618844e-18 -1.1920929e-07 -0.0359494574
v -3.86581991e-18 -1.1920929e-07 -0.0602613911
v -0.0197412986 -1.1920929e-07 -0.0865189582
v -0.0572064593 -1.1920929e-07 -0.118781619
v -0.118579619 -1.1920929e-07 -0.148677185
v -0.16196388 -1.1920929e-07 -0.203073099
v -0.203073099 -1.1920929e-07 -0.16196388
v -0.269758284 -1.1920929e-07 -0.215150699
vt 1 0.0843237862
vt 1 0
vt 0.964256048 0
vt 0.964256048 0.0844944939
vt 0.928584218 0
vt 1 0.161279485
vt 0.928584218 0.0845624357
vt 0.892882407 0
vt 0.964256048 0.161492869
vt 0.892882407 0.0843460634
vt 0.857117593 0
vt 0.964256048 0.244050249
vt 1 0.243824497
vt 0.928584218 0.161582708
vt 0.857117593 0.0843449384
vt 0.821415782 0
vt 0.964256048 0.321495682
vt 1 0.321269304
vt 0.892882407 0.16133295
vt 0.928584218 0.244149387
vt 0.964256048 0.40722844
vt 1 0.406993181
vt 0.928584218 0.321593463
vt 0.964256048 0.501256466
vt 1 0.501044512
vt 1 0.610871255
vt 0.892882407 0.243897676
vt 0.857117593 0.243897721
vt 0.857117593 0.161326304
vt 0.928584218 0.407335401
vt 0.892882407 0.321340412
vt 0.964256048 0.611107647
vt 1 0.729773641
vt 0.821415782 0.0845435262
vt 0.928584218 0.501351416
vt 0.821415782 0.161562219
vt 0.785743952 0.161451474
vt 0.785743952 0.0844642967
vt 0.785743952 0
vt 0.75 0
vt 0.75 0.0842693299
vt 0.714256048 0
vt 0.714256048 0.0844490826
vt 0.678584218 0
vt 0.821415782 0.244139701
vt 0.75 0.161215425
vt 0.678584218 0.0845252052
vt 0.642882407 0
vt 0.714256048 0.161433429
vt 0.642882407 0.0843226686
vt 0.607117593 0
vt 0.678584218 0.161533669
vt 0.714256048 0.244033456
vt 0.75 0.243796393
vt 0.785743952 0.244027406
vt 0.607117593 0.0843131319
vt 0.571415782 0
vt 0.642882407 0.161282465
vt 0.678584218 0.244140044
vt 0.714256048 0.321494699
vt 0.571415782 0.0845100358
vt 0.535743952 0
vt 0.821415782 0.321588457
vt 0.75 0.321253955
vt 0.607117593 0.161282599
vt 0.607117593 0.243900135
vt 0.642882407 0.243892655
vt 0.535743952 0.0844280794
vt 0.5 0
vt 0.571415782 0.16153276
vt 0.678584218 0.321606547
vt 0.5 0.0842330605
vt 0.464256018 0
vt 0.535743952 0.16143851
vt 0.464256018 0.0844280645
vt 0.428584188 0
vt 0.571415782 0.244139001
vt 0.714256048 0.407246739
vt 0.642882407 0.321346492
vt 0.5 0.161219507
vt 0.428584188 0.0845100358
vt 0.392882407 0
vt 0.678584218 0.407343805
vt 0.464256018 0.16143851
vt 0.392882407 0.0843131244
vt 0.357117593 0
vt 0.428584188 0.16153276
vt 0.464256018 0.244034201
vt 0.5 0.243813112
vt 0.357117593 0.0843226686
vt 0.321415812 0
vt 0.392882407 0.161282599
vt 0.428584188 0.244139001
vt 0.321415812 0.0845252052
vt 0.285743982 0
vt 0.535743952 0.244034216
vt 0.464256018 0.321516067
vt 0.357117593 0.161282465
vt 0.357117593 0.24389267
vt 0.285743982 0.0844490901
vt 0.25 0
vt 0.321415812 0.161533684
vt 0.392882407 0.243900135
vt 0.25 0.0842693374
vt 0.214256018 0
vt 0.285743982 0.161433429
vt 0.428584188 0.321615994
vt 0.214256018 0.0844643041
vt 0.178584188 0
vt 0.321415812 0.244140029
vt 0.392882407 0.321356237
vt 0.25 0.161215439
vt 0.178584188 0.0845435187
vt 0.142882407 0
vt 0.214256018 0.161451474
vt 0.142882407 0.0843449458
vt 0.107117586 0
vt 0.178584188 0.161562234
vt 0.214256018 0.244027451
vt 0.25 0.243796378
vt 0.107117586 0.0843460634
vt 0.0714158118 0
vt 0.142882407 0.161326304
vt 0.178584188 0.244139686
vt 0.0714158118 0.0845624506
vt 0.0357439741 0
vt 0.285743982 0.244033471
vt 0.214256018 0.321474254
vt 0.107117586 0.16133295
vt 0.107117586 0.243897676
vt 0.0357439741 0.0844944939
vt 0 0
vt 0 0.0843237862
vt 0.0714158118 0.161582723
vt 0.0357439741 0.161492884
vt 0 0.161279485
vt 0 0.243824497
vt 0.142882407 0.243897721
vt 0.0714158118 0.244149402
vt 0.0357439741 0.244050249
vt 0 0.321269304
vt 0.178584188 0.321588486
vt 0.0714158118 0.321593434
vt 0.0357439741 0.321495712
vt 0 0.40699321
vt 0.142882407 0.321339905
vt 0.0357439741 0.40722838
vt 0 0.501044512
vt 0.0714158118 0.40733555
vt 0.107117586 0.321340442
vt 0.107117586 0.407081723
vt 0.0357439741 0.501256704
vt 0.0357439741 0.611107111
vt 0 0.610871375
vt 0.0357439741 0.729997694
vt 0 0.729773402
vt 0.0714158118 0.611219943
vt 0.0714158118 0.501351058
vt 0.107117586 0.501099467
vt 0.142882407 0.407089919
vt 0.0357439741 0.846420288
vt 0 0.846200109
vt 0.0357439741 0.99999994
vt 0 0.99999994
vt 0.0714158118 0.99999994
vt 0.0714158118 0.73010391
vt 0.0714158118 0.846532226
vt 0.107117586 0.99999994
vt 0.107117586 0.846279323
vt 0.142882407 0.99999994
vt 0.107117586 0.72987175
vt 0.142882407 0.846297562
vt 0.178584188 0.99999994
vt 0.142882407 0.72986722
vt 0.107117586 0.610982001
vt 0.142882407 0.61098206
vt 0.178584188 0.846529603
vt 0.142882407 0.501104414
vt 0.178584188 0.730100989
vt 0.214256018 0.8464185
vt 0.214256018 0.99999994
vt 0.25 0.99999994
vt 0.178584188 0.611236334
vt 0.178584188 0.501352012
vt 0.214256018 0.73000443
vt 0.25 0.846209466
vt 0.285743982 0.99999994
vt 0.214256018 0.611136079
vt 0.178584188 0.407339483
vt 0.25 0.72978729
vt 0.285743982 0.846438348
vt 0.321415812 0.99999994
vt 0.214256018 0.501248896
vt 0.214256018 0.407239139
vt 0.25 0.610900402
vt 0.25 0.321253985
vt 0.25 0.407015651
vt 0.285743982 0.321494669
vt 0.25 0.50102824
vt 0.285743982 0.730005801
vt 0.321415812 0.321606576
vt 0.285743982 0.407246828
vt 0.285743982 0.611120522
vt 0.321415812 0.407343745
vt 0.285743982 0.501254737
vt 0.357117593 0.321346492
vt 0.357117593 0.407087803
vt 0.321415812 0.61121875
vt 0.321415812 0.501352966
vt 0.357117593 0.501092553
vt 0.392882407 0.407081068
vt 0.321415812 0.730109215
vt 0.357117593 0.610985458
vt 0.357117593 0.72985971
vt 0.321415812 0.846525967
vt 0.357117593 0.99999994
vt 0.357117593 0.846298099
vt 0.392882407 0.99999994
vt 0.392882407 0.610972762
vt 0.392882407 0.729870737
vt 0.392882407 0.846283257
vt 0.428584188 0.99999994
vt 0.428584188 0.846515417
vt 0.464256018 0.99999994
vt 0.392882407 0.50109154
vt 0.428584188 0.730101228
vt 0.464256018 0.846412599
vt 0.5 0.99999994
vt 0.428584188 0.611230493
vt 0.428584188 0.501349032
vt 0.464256018 0.730008602
vt 0.5 0.846187413
vt 0.535743952 0.99999994
vt 0.464256018 0.611128926
vt 0.428584188 0.407327145
vt 0.5 0.729775071
vt 0.535743952 0.846412659
vt 0.571415782 0.99999994
vt 0.464256018 0.501242638
vt 0.464256018 0.407224298
vt 0.5 0.610894799
vt 0.5 0.32130152
vt 0.5 0.406987578
vt 0.535743952 0.321516037
vt 0.5 0.501012325
vt 0.535743952 0.730008543
vt 0.571415782 0.321615994
vt 0.535743952 0.407224327
vt 0.535743952 0.611128926
vt 0.571415782 0.407327145
vt 0.535743952 0.501242638
vt 0.607117593 0.321356267
vt 0.607117593 0.407081068
vt 0.571415782 0.611230433
vt 0.642882407 0.407087773
vt 0.607117593 0.50109148
vt 0.571415782 0.501349092
vt 0.571415782 0.730101347
vt 0.607117593 0.610972881
vt 0.607117593 0.729870439
vt 0.571415782 0.846515238
vt 0.607117593 0.99999994
vt 0.607117593 0.846283555
vt 0.642882407 0.99999994
vt 0.642882407 0.61098516
vt 0.642882407 0.729860127
vt 0.642882407 0.846297503
vt 0.678584218 0.99999994
vt 0.678584218 0.846526802
vt 0.714256048 0.99999994
vt 0.642882407 0.501092613
vt 0.678584218 0.7301085
vt 0.714256048 0.846437097
vt 0.75 0.99999994
vt 0.678584218 0.501352787
vt 0.678584218 0.611219168
vt 0.714256048 0.730006933
vt 0.75 0.846211076
vt 0.785743952 0.99999994
vt 0.714256048 0.611119926
vt 0.714256048 0.501254976
vt 0.75 0.72978586
vt 0.785743952 0.846416533
vt 0.821415782 0.99999994
vt 0.75 0.610901237
vt 0.75 0.407015741
vt 0.785743952 0.730006158
vt 0.821415782 0.846531868
vt 0.857117593 0.99999994
vt 0.75 0.501027942
vt 0.785743952 0.321474284
vt 0.821415782 0.730099022
vt 0.857117593 0.846295238
vt 0.892882407 0.99999994
vt 0.785743952 0.611135125
vt 0.785743952 0.40723899
vt 0.821415782 0.611237407
vt 0.785743952 0.501249194
vt 0.821415782 0.407339633
vt 0.857117593 0.729869246
vt 0.892882407 0.846281528
vt 0.928584218 0.99999994
vt 0.821415782 0.501351595
vt 0.892882407 0.729869783
vt 0.928584218 0.846530378
vt 0.964256048 0.99999994
vt 0.857117593 0.610980868
vt 0.857117593 0.501104832
vt 0.892882407 0.610983074
vt 0.928584218 0.73010546
vt 0.964256048 0.84642148
vt 1 0.99999994
vt 1 0.846199751
vt 0.964256048 0.729996622
vt 0.928584218 0.611219049
vt 0.892882407 0.50109899
vt 0.892882407 0.407081842
vt 0.857117593 0.40708977
vt 0.857117593 0.321339935
vn 0 1 0
vn 0 1 0
vn 0 1 0
vn 0 1 0
vn 0 1 0
vn 0 1 0
vn 0 1 0
vn 0 1 0
vn 0 1 0
vn 0 1 0
vn 0 1 0
vn 0 1 0
vn 0 1 0
vn 0 1 0
vn 0 1 0
vn 0 1 0
vn 0 1 0
vn 0 1 0
vn 0 1 0
vn 0 1 0
vn 0 1 0
vn 0 1 0
vn 0 1 0
vn 0 1 0
vn 0 1 0
vn 0 1 0
vn 0 1 0
vn 0 1 0
vn 0 1 0
vn 0 1 0
vn 0 1 0
vn 0 1 0
vn 0 1 0
vn 0 1 0
vn 0 1 0
vn 0 1 0
vn 0 1 0
vn 0 1 0
vn 0 1 0
vn 0 1 0
vn 0 1 0
vn 0 1 0
vn 0 1 0
vn 0 1 0
vn 0 1 0
vn 0 1 0
vn 0 1 0
vn 0 1 0
vn 0 1 0
vn 0 1 0
vn 0 1 0
vn 0 1 0
vn 0 1 0
vn 0 1 0
vn 0 1 0
vn 0 1 0
vn 0 1 0
vn 0 1 0
vn 0 1 0
vn 0 1 0
vn 0 1 0
vn 0 1 0
vn 0 1 0
vn 0 1 0
vn 0 1 0
vn 0 1 0
vn 0 1 0
vn 0 1 0
vn 0 1 0
vn 0 1 0
vn 0 1 0
vn 0 1 0
vn 0 1 0
vn 0 1 0
vn 0 1 0
vn 0 1 0
vn 0 1 0
vn 0 1 0
vn 0 1 0
vn 0 1 0
vn 0 1 0
vn 0 1 0
vn 0 1 0
vn 0 1 0
vn 0 1 0
vn 0 1 0
vn 0 1 0
vn 0 1 0
vn 0 1 0
vn 0 1 0
vn 0 1 0
vn 0 1 0
vn 0 1 0
vn 0 1 0
vn 0 1 0
vn 0 1 0
vn 0 1 0
vn 0 1 0
vn 0 1 0
vn 0 1 0
vn 0 1 0
vn 0 1 0
vn 0 1 0
vn 0 1 0
vn 0 1 0
vn 0 1 0
vn 0 1 0
vn 0 1 0
vn 0 1 0
vn 0 1 0
vn 0 1 0
vn 0 1 0
vn 0 1 0
vn 0 1 0
vn 0 1 0
vn 0 1 0
vn 0 1 0
vn 0 1 0
vn 0 1 0
vn 0 1 0
vn 0 1 0
vn 0 1 0
vn 0 1 0
vn 0 1 0
vn 0 1 0
vn 0 1 0
vn 0 1 0
vn 0 1 0
vn 0 1 0
vn 0 1 0
vn 0 1 0
vn 0 1 0
vn 0 1 0
vn 0 1 0
vn 0 1 0
vn 0 1 0
vn 0 1 0
vn 0 1 0
vn 0 1 0
vn 0 1 0
vn 0 1 0
vn 0 1 0
vn 0 1 0
vn 0 1 0
vn 0 1 0
vn 0 1 0
vn 0 1 0
vn 0 1 0
vn 0 1 0
vn 0 1 0
vn 0 1 0
vn 0 1 0
vn 0 1 0
vn 0 1 0
vn 0 1 0
vn 0 1 0
vn 0 1 0
vn 0 1 0
vn 0 1 0
vn 0 1 0
vn 0 1 0
vn 0 1 0
vn 0 1 0
vn 0 1 0
vn 0 1 0
vn 0 1 0
vn 0 1 0
vn 0 1 0
vn 0 1 0
vn 0 1 0
vn 0 1 0
vn 0 1 0
vn 0 1 0
vn 0 1 0
vn 0 1 0
vn 0 1 0
vn 0 1 0
vn 0 1 0
vn 0 1 0
vn 0 1 0
vn 0 1 0
vn 0 1 0
vn 0 1 0
vn 0 1 0
vn 0 1 0
vn 0 1 0
vn 0 1 0
vn 0 1 0
vn 0 1 0
vn 0 1 0
vn 0 1 0
vn 0 1 0
vn 0 1 0
vn 0 1 0
vn 0 1 0
vn 0 1 0
vn 0 1 0
vn 0 1 0
vn 0 1 0
vn 0 1 0
vn 0 1 0
vn 0 1 0
vn 0 1 0
vn 0 1 0
vn 0 1 0
vn 0 1 0
vn 0 1 0
vn 0 1 0
vn 0 1 0
vn 0 1 0
vn 0 1 0
vn 0 1 0
vn 0 1 0
vn 0 1 0
vn 0 1 0
vn 0 1 0
vn 0 1 0
vn 0 1 0
vn 0 1 0
vn 0 1 0
vn 0 1 0
vn 0 1 0
vn 0 1 0
vn 0 1 0
vn 0 1 0
vn 0 1 0
vn 0 1 0
vn 0 1 0
vn 0 1 0
vn 0 1 0
vn 0 1 0
vn 0 1 0
vn 0 1 0
vn 0 1 0
vn 0 1 0
vn 0 1 0
vn 0 1 0
vn 0 1 0
vn 0 1 0
vn 0 1 0
vn 0 1 0
vn 0 1 0
vn 0 1 0
vn 0 1 0
vn 0 1 0
vn 0 1 0
vn 0 1 0
vn 0 1 0
vn 0 1 0
vn 0 1 0
vn 0 1 0
vn 0 1 0
vn 0 1 0
vn 0 1 0
vn 0 1 0
vn 0 1 0
vn 0 1 0
vn 0 1 0
vn 0 1 0
vn 0 1 0
vn 0 1 0
vn 0 1 0
vn 0 1 0
vn 0 1 0
vn 0 1 0
vn 0 1 0
vn 0 1 0
vn 0 1 0
vn 0 1 0
vn 0 1 0
vn 0 1 0
vn 0 1 0
vn 0 1 0
vn 0 1 0
vn 0 1 0
vn 0 1 0
vn 0 1 0
vn 0 1 0
vn 0 1 0
vn 0 1 0
vn 0 1 0
vn 0 1 0
vn 0 1 0
vn 0 1 0
vn 0 1 0
vn 0 1 0
vn 0 1 0
vn 0 1 0
vn 0 1 0
vn 0 1 0
vn 0 1 0
vn 0 1 0
vn 0 1 0
vn 0 1 0
vn 0 1 0
vn 0 1 0
vn 0 1 0
vn 0 1 0
vn 0 1 0
vn 0 1 0
vn 0 1 0
vn 0 1 0
vn 0 1 0
vn 0 1 0
vn 0 1 0
vn 0 1 0
vn 0 1 0
vn 0 1 0
vn 0 1 0
vn 0 1 0
vn 0 1 0
vn 0 1 0
vn 0 1 0
vn 0 1 0
vn 0 1 0
vn 0 1 0
vn 0 1 0
vn 0 1 0
vn 0 1 0
g submesh_0
usemtl submesh_0
f 1/1/1 2/2/2 3/3/3
f 1/1/1 3/3/3 4/4/4
f 4/4/4 3/3/3 5/5/5
f 6/6/6 1/1/1 4/4/4
f 4/4/4 5/5/5 7/7/7
f 7/7/7 5/5/5 8/8/8
f 6/6/6 4/4/4 9/9/9
f 9/9/9 4/4/4 7/7/7
f 7/7/7 8/8/8 10/10/10
f 10/10/10 8/8/8 11/11/11
f 6/6/6 9/9/9 12/12/12
f 6/6/6 12/12/12 13/13/13
f 9/9/9 7/7/7 14/14/14
f 14/14/14 7/7/7 10/10/10
f 12/12/12 9/9/9 14/14/14
f 10/10/10 11/11/11 15/15/15
f 15/15/15 11/11/11 16/16/16
f 13/13/13 12/12/12 17/17/17
f 13/13/13 17/17/17 18/18/18
f 14/14/14 10/10/10 19/19/19
f 19/19/19 10/10/10 15/15/15
f 12/12/12 14/14/14 20/20/20
f 17/17/17 12/12/12 20/20/20
f 19/19/19 20/20/20 14/14/14
f 18/18/18 17/17/17 21/21/21
f 18/18/18 21/21/21 22/22/22
f 17/17/17 20/20/20 23/23/23
f 21/21/21 17/17/17 23/23/23
f 22/22/22 21/21/21 24/24/24
f 22/22/22 24/24/24 25/25/25
f 24/24/24 26/26/26 25/25/25
f 19/19/19 27/27/27 20/20/20
f 23/23/23 20/20/20 27/27/27
f 28/28/28 27/27/27 19/19/19
f 19/19/19 15/15/15 29/29/29
f 28/28/28 19/19/19 29/29/29
f 21/21/21 23/23/23 30/30/30
f 24/24/24 21/21/21 30/30/30
f 23/23/23 27/27/27 31/31/31
f 31/31/31 27/27/27 28/28/28
f 31/31/31 30/30/30 23/23/23
f 24/24/24 32/32/32 26/26/26
f 33/33/33 26/26/26 32/32/32
f 29/29/29 15/15/15 34/34/34
f 15/15/15 16/16/16 34/34/34
f 24/24/24 30/30/30 35/35/35
f 35/35/35 32/32/32 24/24/24
f 36/36/36 28/28/28 29/29/29
f 29/29/29 34/34/34 36/36/36
f 34/34/34 37/37/37 36/36/36
f 16/16/16 38/38/38 34/34/34
f 34/34/34 38/38/38 37/37/37
f 16/16/16 39/39/39 38/38/38
f 38/38/38 39/39/39 40/40/40
f 38/38/38 40/40/40 41/41/41
f 37/37/37 38/38/38 41/41/41
f 41/41/41 40/40/40 42/42/42
f 41/41/41 42/42/42 43/43/43
f 43/43/43 42/42/42 44/44/44
f 36/36/36 45/45/45 28/28/28
f 37/37/37 45/45/45 36/36/36
f 46/46/46 41/41/41 43/43/43
f 37/37/37 41/41/41 46/46/46
f 43/43/43 44/44/44 47/47/47
f 47/47/47 44/44/44 48/48/48
f 46/46/46 43/43/43 49/49/49
f 49/49/49 43/43/43 47/47/47
f 47/47/47 48/48/48 50/50/50
f 50/50/50 48/48/48 51/51/51
f 49/49/49 47/47/47 52/52/52
f 52/52/52 47/47/47 50/50/50
f 46/46/46 49/49/49 53/53/53
f 53/53/53 49/49/49 52/52/52
f 54/54/54 37/37/37 46/46/46
f 46/46/46 53/53/53 54/54/54
f 37/37/37 55/55/55 45/45/45
f 54/54/54 55/55/55 37/37/37
f 50/50/50 51/51/51 56/56/56
f 56/56/56 51/51/51 57/57/57
f 52/52/52 50/50/50 58/58/58
f 58/58/58 50/50/50 56/56/56
f 53/53/53 52/52/52 59/59/59
f 58/58/58 59/59/59 52/52/52
f 54/54/54 53/53/53 60/60/60
f 60/60/60 53/53/53 59/59/59
f 56/56/56 57/57/57 61/61/61
f 61/61/61 57/57/57 62/62/62
f 63/63/63 45/45/45 55/55/55
f 28/28/28 45/45/45 63/63/63
f 64/64/64 55/55/55 54/54/54
f 54/54/54 60/60/60 64/64/64
f 58/58/58 56/56/56 65/65/65
f 65/65/65 56/56/56 61/61/61
f 66/66/66 58/58/58 65/65/65
f 58/58/58 67/67/67 59/59/59
f 66/66/66 67/67/67 58/58/58
f 61/61/61 62/62/62 68/68/68
f 68/68/68 62/62/62 69/69/69
f 65/65/65 61/61/61 70/70/70
f 70/70/70 66/66/66 65/65/65
f 70/70/70 61/61/61 68/68/68
f 60/60/60 59/59/59 71/71/71
f 71/71/71 59/59/59 67/67/67
f 68/68/68 69/69/69 72/72/72
f 72/72/72 69/69/69 73/73/73
f 70/70/70 68/68/68 74/74/74
f 74/74/74 68/68/68 72/72/72
f 72/72/72 73/73/73 75/75/75
f 75/75/75 73/73/73 76/76/76
f 70/70/70 77/77/77 66/66/66
f 74/74/74 77/77/77 70/70/70
f 78/78/78 60/60/60 71/71/71
f 64/64/64 60/60/60 78/78/78
f 71/71/71 67/67/67 79/79/79
f 79/79/79 67/67/67 66/66/66
f 80/80/80 72/72/72 75/75/75
f 74/74/74 72/72/72 80/80/80
f 75/75/75 76/76/76 81/81/81
f 81/81/81 76/76/76 82/82/82
f 78/78/78 71/71/71 83/83/83
f 79/79/79 83/83/83 71/71/71
f 80/80/80 75/75/75 84/84/84
f 84/84/84 75/75/75 81/81/81
f 81/81/81 82/82/82 85/85/85
f 85/85/85 82/82/82 86/86/86
f 84/84/84 81/81/81 87/87/87
f 87/87/87 81/81/81 85/85/85
f 80/80/80 84/84/84 88/88/88
f 88/88/88 84/84/84 87/87/87
f 89/89/89 74/74/74 80/80/80
f 80/80/80 88/88/88 89/89/89
f 85/85/85 86/86/86 90/90/90
f 90/90/90 86/86/86 91/91/91
f 87/87/87 85/85/85 92/92/92
f 92/92/92 85/85/85 90/90/90
f 88/88/88 87/87/87 93/93/93
f 92/92/92 93/93/93 87/87/87
f 90/90/90 91/91/91 94/94/94
f 94/94/94 91/91/91 95/95/95
f 89/89/89 96/96/96 74/74/74
f 74/74/74 96/96/96 77/77/77
f 89/89/89 88/88/88 97/97/97
f 97/97/97 88/88/88 93/93/93
f 92/92/92 90/90/90 98/98/98
f 98/98/98 90/90/90 94/94/94
f 99/99/99 92/92/92 98/98/98
f 94/94/94 95/95/95 100/100/100
f 100/100/100 95/95/95 101/101/101
f 98/98/98 94/94/94 102/102/102
f 102/102/102 99/99/99 98/98/98
f 102/102/102 94/94/94 100/100/100
f 92/92/92 103/103/103 93/93/93
f 99/99/99 103/103/103 92/92/92
f 100/100/100 101/101/101 104/104/104
f 104/104/104 101/101/101 105/105/105
f 102/102/102 100/100/100 106/106/106
f 106/106/106 100/100/100 104/104/104
f 107/107/107 93/93/93 103/103/103
f 97/97/97 93/93/93 107/107/107
f 104/104/104 105/105/105 108/108/108
f 108/108/108 105/105/105 109/109/109
f 102/102/102 110/110/110 99/99/99
f 106/106/106 110/110/110 102/102/102
f 107/107/107 103/103/103 111/111/111
f 111/111/111 103/103/103 99/99/99
f 112/112/112 104/104/104 108/108/108
f 106/106/106 104/104/104 112/112/112
f 108/108/108 109/109/109 113/113/113
f 113/113/113 109/109/109 114/114/114
f 112/112/112 108/108/108 115/115/115
f 115/115/115 108/108/108 113/113/113
f 113/113/113 114/114/114 116/116/116
f 116/116/116 114/114/114 117/117/117
f 115/115/115 113/113/113 118/118/118
f 118/118/118 113/113/113 116/116/116
f 112/112/112 115/115/115 119/119/119
f 119/119/119 115/115/115 118/118/118
f 120/120/120 106/106/106 112/112/112
f 112/112/112 119/119/119 120/120/120
f 116/116/116 117/117/117 121/121/121
f 121/121/121 117/117/117 122/122/122
f 118/118/118 116/116/116 123/123/123
f 123/123/123 116/116/116 121/121/121
f 119/119/119 118/118/118 124/124/124
f 123/123/123 124/124/124 118/118/118
f 121/121/121 122/122/122 125/125/125
f 125/125/125 122/122/122 126/126/126
f 120/120/120 127/127/127 106/106/106
f 106/106/106 127/127/127 110/110/110
f 120/120/120 119/119/119 128/128/128
f 128/128/128 119/119/119 124/124/124
f 123/123/123 121/121/121 129/129/129
f 129/129/129 121/121/121 125/125/125
f 130/130/130 123/123/123 129/129/129
f 125/125/125 126/126/126 131/131/131
f 131/131/131 126/126/126 132/132/132
f 131/131/131 132/132/132 133/133/133
f 129/129/129 125/125/125 134/134/134
f 134/134/134 125/125/125 131/131/131
f 134/134/134 130/130/130 129/129/129
f 135/135/135 131/131/131 133/133/133
f 134/134/134 131/131/131 135/135/135
f 135/135/135 133/133/133 136/136/136
f 137/137/137 135/135/135 136/136/136
f 123/123/123 138/138/138 124/124/124
f 130/130/130 138/138/138 123/123/123
f 135/135/135 139/139/139 134/134/134
f 134/134/134 139/139/139 130/130/130
f 137/137/137 140/140/140 135/135/135
f 135/135/135 140/140/140 139/139/139
f 141/141/141 140/140/140 137/137/137
f 142/142/142 124/124/124 138/138/138
f 128/128/128 124/124/124 142/142/142
f 143/143/143 139/139/139 140/140/140
f 130/130/130 139/139/139 143/143/143
f 141/141/141 144/144/144 140/140/140
f 143/143/143 140/140/140 144/144/144
f 145/145/145 144/144/144 141/141/141
f 146/146/146 138/138/138 130/130/130
f 142/142/142 138/138/138 146/146/146
f 145/145/145 147/147/147 144/144/144
f 148/148/148 147/147/147 145/145/145
f 144/144/144 147/147/147 149/149/149
f 144/144/144 149/149/149 143/143/143
f 130/130/130 143/143/143 150/150/150
f 146/146/146 130/130/130 150/150/150
f 143/143/143 151/151/151 150/150/150
f 143/143/143 149/149/149 151/151/151
f 151/151/151 146/146/146 150/150/150
f 148/148/148 152/152/152 147/147/147
f 152/152/152 149/149/149 147/147/147
f 148/148/148 153/153/153 152/152/152
f 148/148/148 154/154/154 153/153/153
f 155/155/155 153/153/153 154/154/154
f 155/155/155 154/154/154 156/156/156
f 152/152/152 153/153/153 157/157/157
f 157/157/157 153/153/153 155/155/155
f 152/152/152 158/158/158 149/149/149
f 152/152/152 157/157/157 158/158/158
f 149/149/149 159/159/159 151/151/151
f 149/149/149 158/158/158 159/159/159
f 151/151/151 160/160/160 146/146/146
f 159/159/159 160/160/160 151/151/151
f 161/161/161 155/155/155 156/156/156
f 161/161/161 156/156/156 162/162/162
f 162/162/162 163/163/163 161/161/161
f 162/162/162 164/164/164 163/163/163
f 161/161/161 163/163/163 165/165/165
f 166/166/166 155/155/155 161/161/161
f 157/157/157 155/155/155 166/166/166
f 161/161/161 165/165/165 167/167/167
f 166/166/166 161/161/161 167/167/167
f 167/167/167 165/165/165 168/168/168
f 167/167/167 168/168/168 169/169/169
f 169/169/169 166/166/166 167/167/167
f 169/169/169 168/168/168 170/170/170
f 171/171/171 157/157/157 166/166/166
f 169/169/169 171/171/171 166/166/166
f 169/169/169 170/170/170 172/172/172
f 172/172/172 170/170/170 173/173/173
f 174/174/174 169/169/169 172/172/172
f 174/174/174 171/171/171 169/169/169
f 171/171/171 175/175/175 157/157/157
f 158/158/158 157/157/157 175/175/175
f 158/158/158 175/175/175 159/159/159
f 176/176/176 175/175/175 171/171/171
f 159/159/159 175/175/175 176/176/176
f 176/176/176 171/171/171 174/174/174
f 172/172/172 173/173/173 177/177/177
f 177/177/177 174/174/174 172/172/172
f 159/159/159 176/176/176 178/178/178
f 159/159/159 178/178/178 160/160/160
f 179/179/179 176/176/176 174/174/174
f 177/177/177 179/179/179 174/174/174
f 173/173/173 180/180/180 177/177/177
f 173/173/173 181/181/181 180/180/180
f 180/180/180 181/181/181 182/182/182
f 178/178/178 176/176/176 183/183/183
f 179/179/179 183/183/183 176/176/176
f 160/160/160 178/178/178 184/184/184
f 178/178/178 183/183/183 184/184/184
f 185/185/185 179/179/179 177/177/177
f 185/185/185 177/177/177 180/180/180
f 180/180/180 182/182/182 186/186/186
f 186/186/186 185/185/185 180/180/180
f 186/186/186 182/182/182 187/187/187
f 188/188/188 183/183/183 179/179/179
f 188/188/188 179/179/179 185/185/185
f 188/188/188 184/184/184 183/183/183
f 160/160/160 184/184/184 189/189/189
f 146/146/146 160/160/160 189/189/189
f 146/146/146 189/189/189 142/142/142
f 186/186/186 190/190/190 185/185/185
f 190/190/190 188/188/188 185/185/185
f 186/186/186 187/187/187 191/191/191
f 191/191/191 190/190/190 186/186/186
f 191/191/191 187/187/187 192/192/192
f 193/193/193 189/189/189 184/184/184
f 188/188/188 193/193/193 184/184/184
f 194/194/194 142/142/142 189/189/189
f 193/193/193 194/194/194 189/189/189
f 194/194/194 128/128/128 142/142/142
f 190/190/190 195/195/195 188/188/188
f 193/193/193 188/188/188 195/195/195
f 196/196/196 128/128/128 194/194/194
f 120/120/120 128/128/128 196/196/196
f 196/196/196 127/127/127 120/120/120
f 197/197/197 194/194/194 193/193/193
f 196/196/196 194/194/194 197/197/197
f 196/196/196 198/198/198 127/127/127
f 197/197/197 198/198/198 196/196/196
f 197/197/197 193/193/193 199/199/199
f 193/193/193 195/195/195 199/199/199
f 200/200/200 195/195/195 190/190/190
f 191/191/191 200/200/200 190/190/190
f 201/201/201 127/127/127 198/198/198
f 201/201/201 110/110/110 127/127/127
f 99/99/99 110/110/110 201/201/201
f 197/197/197 202/202/202 198/198/198
f 199/199/199 202/202/202 197/197/197
f 199/199/199 195/195/195 203/203/203
f 200/200/200 203/203/203 195/195/195
f 198/198/198 202/202/202 204/204/204
f 198/198/198 204/204/204 201/201/201
f 199/199/199 205/205/205 202/202/202
f 199/199/199 203/203/203 205/205/205
f 205/205/205 204/204/204 202/202/202
f 99/99/99 201/201/201 206/206/206
f 111/111/111 99/99/99 206/206/206
f 201/201/201 207/207/207 206/206/206
f 201/201/201 204/204/204 207/207/207
f 207/207/207 111/111/111 206/206/206
f 208/208/208 203/203/203 200/200/200
f 205/205/205 203/203/203 208/208/208
f 205/205/205 209/209/209 204/204/204
f 205/205/205 208/208/208 209/209/209
f 204/204/204 210/210/210 207/207/207
f 204/204/204 209/209/209 210/210/210
f 207/207/207 211/211/211 111/111/111
f 210/210/210 211/211/211 207/207/207
f 208/208/208 200/200/200 212/212/212
f 212/212/212 200/200/200 191/191/191
f 209/209/209 208/208/208 213/213/213
f 209/209/209 213/213/213 210/210/210
f 214/214/214 213/213/213 208/208/208
f 214/214/214 208/208/208 212/212/212
f 212/212/212 191/191/191 215/215/215
f 191/191/191 192/192/192 215/215/215
f 215/215/215 192/192/192 216/216/216
f 217/217/217 212/212/212 215/215/215
f 215/215/215 216/216/216 217/217/217
f 217/217/217 214/214/214 212/212/212
f 217/217/217 216/216/216 218/218/218
f 210/210/210 213/213/213 219/219/219
f 219/219/219 213/213/213 214/214/214
f 220/220/220 214/214/214 217/217/217
f 219/219/219 214/214/214 220/220/220
f 217/217/217 218/218/218 221/221/221
f 220/220/220 217/217/217 221/221/221
f 221/221/221 218/218/218 222/222/222
f 221/221/221 222/222/222 223/223/223
f 223/223/223 220/220/220 221/221/221
f 223/223/223 222/222/222 224/224/224
f 210/210/210 219/219/219 225/225/225
f 210/210/210 225/225/225 211/211/211
f 226/226/226 219/219/219 220/220/220
f 223/223/223 226/226/226 220/220/220
f 223/223/223 224/224/224 227/227/227
f 227/227/227 224/224/224 228/228/228
f 225/225/225 219/219/219 229/229/229
f 226/226/226 229/229/229 219/219/219
f 211/211/211 225/225/225 230/230/230
f 225/225/225 229/229/229 230/230/230
f 231/231/231 226/226/226 223/223/223
f 231/231/231 223/223/223 227/227/227
f 227/227/227 228/228/228 232/232/232
f 232/232/232 231/231/231 227/227/227
f 232/232/232 228/228/228 233/233/233
f 234/234/234 229/229/229 226/226/226
f 234/234/234 226/226/226 231/231/231
f 230/230/230 229/229/229 234/234/234
f 211/211/211 230/230/230 235/235/235
f 111/111/111 211/211/211 235/235/235
f 111/111/111 235/235/235 107/107/107
f 232/232/232 236/236/236 231/231/231
f 236/236/236 234/234/234 231/231/231
f 232/232/232 233/233/233 237/237/237
f 237/237/237 236/236/236 232/232/232
f 237/237/237 233/233/233 238/238/238
f 239/239/239 235/235/235 230/230/230
f 230/230/230 234/234/234 239/239/239
f 240/240/240 107/107/107 235/235/235
f 239/239/239 240/240/240 235/235/235
f 240/240/240 97/97/97 107/107/107
f 236/236/236 241/241/241 234/234/234
f 239/239/239 234/234/234 241/241/241
f 242/242/242 97/97/97 240/240/240
f 89/89/89 97/97/97 242/242/242
f 242/242/242 96/96/96 89/89/89
f 243/243/243 240/240/240 239/239/239
f 242/242/242 240/240/240 243/243/243
f 242/242/242 244/244/244 96/96/96
f 243/243/243 244/244/244 242/242/242
f 243/243/243 239/239/239 245/245/245
f 239/239/239 241/241/241 245/245/245
f 246/246/246 241/241/241 236/236/236
f 237/237/237 246/246/246 236/236/236
f 247/247/247 96/96/96 244/244/244
f 247/247/247 77/77/77 96/96/96
f 66/66/66 77/77/77 247/247/247
f 243/243/243 248/248/248 244/244/244
f 245/245/245 248/248/248 243/243/243
f 245/245/245 241/241/241 249/249/249
f 246/246/246 249/249/249 241/241/241
f 244/244/244 248/248/248 250/250/250
f 244/244/244 250/250/250 247/247/247
f 245/245/245 251/251/251 248/248/248
f 245/245/245 249/249/249 251/251/251
f 251/251/251 250/250/250 248/248/248
f 66/66/66 247/247/247 252/252/252
f 79/79/79 66/66/66 252/252/252
f 247/247/247 253/253/253 252/252/252
f 253/253/253 79/79/79 252/252/252
f 247/247/247 250/250/250 253/253/253
f 254/254/254 249/249/249 246/246/246
f 251/251/251 249/249/249 254/254/254
f 253/253/253 255/255/255 79/79/79
f 79/79/79 255/255/255 83/83/83
f 250/250/250 256/256/256 253/253/253
f 256/256/256 255/255/255 253/253/253
f 251/251/251 257/257/257 250/250/250
f 251/251/251 254/254/254 257/257/257
f 250/250/250 257/257/257 256/256/256
f 254/254/254 246/246/246 258/258/258
f 258/258/258 246/246/246 237/237/237
f 257/257/257 254/254/254 259/259/259
f 257/257/257 259/259/259 256/256/256
f 260/260/260 259/259/259 254/254/254
f 260/260/260 254/254/254 258/258/258
f 258/258/258 237/237/237 261/261/261
f 237/237/237 238/238/238 261/261/261
f 261/261/261 238/238/238 262/262/262
f 263/263/263 258/258/258 261/261/261
f 261/261/261 262/262/262 263/263/263
f 263/263/263 260/260/260 258/258/258
f 263/263/263 262/262/262 264/264/264
f 256/256/256 259/259/259 265/265/265
f 265/265/265 259/259/259 260/260/260
f 266/266/266 260/260/260 263/263/263
f 265/265/265 260/260/260 266/266/266
f 263/263/263 264/264/264 267/267/267
f 266/266/266 263/263/263 267/267/267
f 267/267/267 264/264/264 268/268/268
f 267/267/267 268/268/268 269/269/269
f 269/269/269 266/266/266 267/267/267
f 269/269/269 268/268/268 270/270/270
f 256/256/256 265/265/265 271/271/271
f 256/256/256 271/271/271 255/255/255
f 272/272/272 265/265/265 266/266/266
f 269/269/269 272/272/272 266/266/266
f 269/269/269 270/270/270 273/273/273
f 273/273/273 270/270/270 274/274/274
f 255/255/255 271/271/271 275/275/275
f 255/255/255 275/275/275 83/83/83
f 271/271/271 265/265/265 276/276/276
f 272/272/272 276/276/276 265/265/265
f 271/271/271 276/276/276 275/275/275
f 277/277/277 272/272/272 269/269/269
f 277/277/277 269/269/269 273/273/273
f 273/273/273 274/274/274 278/278/278
f 278/278/278 277/277/277 273/273/273
f 278/278/278 274/274/274 279/279/279
f 280/280/280 276/276/276 272/272/272
f 275/275/275 276/276/276 280/280/280
f 280/280/280 272/272/272 277/277/277
f 281/281/281 83/83/83 275/275/275
f 275/275/275 280/280/280 281/281/281
f 281/281/281 78/78/78 83/83/83
f 278/278/278 282/282/282 277/277/277
f 282/282/282 280/280/280 277/277/277
f 278/278/278 279/279/279 283/283/283
f 283/283/283 282/282/282 278/278/278
f 283/283/283 279/279/279 284/284/284
f 282/282/282 285/285/285 280/280/280
f 281/281/281 280/280/280 285/285/285
f 286/286/286 78/78/78 281/281/281
f 64/64/64 78/78/78 286/286/286
f 283/283/283 287/287/287 282/282/282
f 287/287/287 285/285/285 282/282/282
f 283/283/283 284/284/284 288/288/288
f 288/288/288 284/284/284 289/289/289
f 281/281/281 285/285/285 290/290/290
f 286/286/286 281/281/281 290/290/290
f 286/286/286 291/291/291 64/64/64
f 64/64/64 291/291/291 55/55/55
f 63/63/63 55/55/55 291/291/291
f 292/292/292 283/283/283 288/288/288
f 292/292/292 287/287/287 283/283/283
f 288/288/288 289/289/289 293/293/293
f 293/293/293 292/292/292 288/288/288
f 293/293/293 289/289/289 294/294/294
f 287/287/287 295/295/295 285/285/285
f 290/290/290 285/285/285 295/295/295
f 286/286/286 296/296/296 291/291/291
f 290/290/290 296/296/296 286/286/286
f 297/297/297 287/287/287 292/292/292
f 297/297/297 295/295/295 287/287/287
f 290/290/290 295/295/295 298/298/298
f 290/290/290 298/298/298 296/296/296
f 298/298/298 295/295/295 297/297/297
f 291/291/291 296/296/296 299/299/299
f 298/298/298 299/299/299 296/296/296
f 291/291/291 299/299/299 63/63/63
f 293/293/293 300/300/300 292/292/292
f 300/300/300 297/297/297 292/292/292
f 293/293/293 294/294/294 301/301/301
f 301/301/301 294/294/294 302/302/302
f 298/298/298 297/297/297 303/303/303
f 298/298/298 303/303/303 299/299/299
f 304/304/304 293/293/293 301/301/301
f 304/304/304 300/300/300 293/293/293
f 301/301/301 302/302/302 305/305/305
f 305/305/305 304/304/304 301/301/301
f 305/305/305 302/302/302 306/306/306
f 303/303/303 297/297/297 307/307/307
f 300/300/300 307/307/307 297/297/297
f 299/299/299 303/303/303 308/308/308
f 303/303/303 307/307/307 308/308/308
f 309/309/309 307/307/307 300/300/300
f 309/309/309 300/300/300 304/304/304
f 308/308/308 307/307/307 309/309/309
f 305/305/305 310/310/310 304/304/304
f 310/310/310 309/309/309 304/304/304
f 305/305/305 306/306/306 311/311/311
f 311/311/311 306/306/306 312/312/312
f 311/311/311 312/312/312 313/313/313
f 314/314/314 305/305/305 311/311/311
f 313/313/313 314/314/314 311/311/311
f 314/314/314 310/310/310 305/305/305
f 313/313/313 33/33/33 314/314/314
f 33/33/33 32/32/32 314/314/314
f 32/32/32 310/310/310 314/314/314
f 32/32/32 315/315/315 310/310/310
f 310/310/310 315/315/315 309/309/309
f 35/35/35 315/315/315 32/32/32
f 316/316/316 309/309/309 315/315/315
f 316/316/316 315/315/315 35/35/35
f 308/308/308 309/309/309 316/316/316
f 317/317/317 316/316/316 35/35/35
f 308/308/308 316/316/316 317/317/317
f 317/317/317 35/35/35 30/30/30
f 31/31/31 317/317/317 30/30/30
f 308/308/308 317/317/317 318/318/318
f 318/318/318 317/317/317 31/31/31
f 299/299/299 308/308/308 318/318/318
f 63/63/63 299/299/299 318/318/318
f 318/318/318 31/31/31 319/319/319
f 63/63/63 318/318/318 319/319/319
f 31/31/31 28/28/28 319/319/319
f 28/28/28 63/63/63 319/319/319
