o disk_05
v -1.01133741e-08 4.26155999e-10 -0.810611486
v -0.0591304265 -0.0718453825 -0.808348298
v -1.01133679e-08 -0.0718453825 -0.810611486
v -0.0591304302 4.26155999e-10 -0.808348358
v -1.01133741e-08 0.0718453825 -0.810611486
v -0.0591304302 0.0718453825 -0.808348417
v -0.117923528 0.0718453825 -0.801647723
v -0.117923528 4.26155999e-10 -0.801647723
v -0.117923535 -0.0718453825 -0.801647663
v -0.176066414 4.26155999e-10 -0.790645182
v -0.176066443 -0.0718453825 -0.790645123
v -0.176066414 0.0718453825 -0.790645182
v -0.233263642 -0.0718453825 -0.775474966
v -0.233263656 4.26155999e-10 -0.775474966
v -0.233263656 0.0718453825 -0.775474966
v -0.289233804 0.0718453825 -0.756265223
v -0.289233774 4.26155999e-10 -0.756265223
v -0.289233774 -0.0718453825 -0.756265283
v -0.343701869 4.26155999e-10 -0.733136296
v -0.343701869 -0.0718453825 -0.733136237
v -0.343701869 0.0718453825 -0.733136296
v -0.39639169 -0.0718453825 -0.706201494
v -0.39639172 4.26155999e-10 -0.706201434
v -0.39639172 0.0718453825 -0.706201494
v -0.447021395 0.0718453825 -0.675569654
v -0.447021395 4.26155999e-10 -0.675569654
v -0.447021425 -0.0718453825 -0.675569654
v -0.495298058 4.26155999e-10 -0.641350091
v -0.495298028 -0.0718453825 -0.641350091
v -0.495298058 0.0718453825 -0.641350091
v -0.540914536 -0.0718453825 -0.603658438
v -0.540914595 4.26155999e-10 -0.603658438
v -0.540914595 0.0718453825 -0.603658438
v -0.583550572 0.0718453825 -0.562625766
v -0.583550572 4.26155999e-10 -0.562625766
v -0.583550572 -0.0718453825 -0.562625825
v -0.622930229 -0.0718453825 -0.518458605
v -0.622930288 4.26155999e-10 -0.518458605
v -0.622930229 0.0718453825 -0.518458605
v -0.658901393 0.0718453825 -0.471472591
v -0.658901334 4.26155999e-10 -0.471472591
v -0.658901393 -0.0718453825 -0.471472621
v -0.691341281 4.26155999e-10 -0.42198208
v -0.691341221 -0.0718453825 -0.42198208
v -0.691341281 0.0718453825 -0.42198205
v -0.720137715 -0.0718453825 -0.370286554
v -0.720137775 4.26155999e-10 -0.370286584
v -0.720137775 0.0718453825 -0.370286554
v -0.745183349 0.0718453825 -0.316672981
v -0.745183349 4.26155999e-10 -0.316672981
v -0.745183349 -0.0718453825 -0.316672981
v -0.766367376 4.26155999e-10 -0.261419535
v -0.766367435 -0.0718453825 -0.261419535
v -0.766367376 0.0718453825 -0.261419535
v -0.783572793 -0.0718453825 -0.204801038
v -0.783572912 4.26155999e-10 -0.204801038
v -0.783572912 0.0718453825 -0.204801023
v -0.796675742 0.0718453825 -0.147095144
v -0.796675742 4.26155999e-10 -0.147095144
v -0.796675742 -0.0718453825 -0.147095129
v -0.805544376 4.26155999e-10 -0.0885891616
v -0.805544496 -0.0718453825 -0.0885891691
v -0.805544376 0.0718453825 -0.0885891542
v -0.810043037 -0.0718453825 -0.0295866244
v -0.810043097 4.26155999e-10 -0.0295866244
v -0.810043097 0.0718453825 -0.0295866244
v -0.810043097 0.0718453825 0.0295866244
v -0.810043097 4.26155999e-10 0.0295866244
v -0.810043037 -0.0718453825 0.0295866244
v -0.805544496 -0.0718453825 0.0885891691
v -0.805544376 4.26155999e-10 0.0885891616
v -0.805544376 0.0718453825 0.0885891542
v -0.796675742 0.0718453825 0.147095144
v -0.796675742 4.26155999e-10 0.147095144
v -0.796675742 -0.0718453825 0.147095129
v -0.783572912 4.26155999e-10 0.204801038
v -0.783572793 -0.0718453825 0.204801038
v -0.783572912 0.0718453825 0.204801023
v -0.766367435 -0.0718453825 0.261419535
v -0.766367376 4.26155999e-10 0.261419535
v -0.766367376 0.0718453825 0.261419535
v -0.745183349 0.0718453825 0.316672981
v -0.745183349 4.26155999e-10 0.316672981
v -0.745183349 -0.0718453825 0.316672981
v -0.720137775 4.26155999e-10 0.370286584
v -0.720137715 -0.0718453825 0.370286554
v -0.720137775 0.0718453825 0.370286554
v -0.691341221 -0.0718453825 0.42198208
v -0.691341281 4.26155999e-10 0.42198208
v -0.691341281 0.0718453825 0.42198205
v -0.658901393 0.0718453825 0.471472591
v -0.658901334 4.26155999e-10 0.471472591
v -0.658901393 -0.0718453825 0.471472621
v -0.622930288 4.26155999e-10 0.518458605
v -0.622930229 -0.0718453825 0.518458605
v -0.622930229 0.0718453825 0.518458605
v -0.583550572 -0.0718453825 0.562625825
v -0.583550572 4.26155999e-10 0.562625766
v -0.583550572 0.0718453825 0.562625766
v -0.540914595 0.0718453825 0.603658438
v -0.540914595 4.26155999e-10 0.603658438
v -0.540914536 -0.0718453825 0.603658438
v -0.495298028 -0.0718453825 0.641350091
v -0.495298058 4.26155999e-10 0.641350091
v -0.495298058 0.0718453825 0.641350091
v -0.447021395 0.0718453825 0.675569654
v -0.447021395 4.26155999e-10 0.675569654
v -0.447021425 -0.0718453825 0.675569654
v -0.39639172 4.26155999e-10 0.706201434
v -0.39639169 -0.0718453825 0.706201494
v -0.39639172 0.0718453825 0.706201494
v -0.343701869 -0.0718453825 0.733136237
v -0.343701869 4.26155999e-10 0.733136296
v -0.343701869 0.0718453825 0.733136296
v -0.289233804 0.0718453825 0.756265223
v -0.289233774 4.26155999e-10 0.756265223
v -0.289233774 -0.0718453825 0.756265283
v -0.233263642 -0.0718453825 0.775474966
v -0.233263656 4.26155999e-10 0.775474966
v -0.233263656 0.0718453825 0.775474966
v -0.176066414 0.0718453825 0.790645182
v -0.176066414 4.26155999e-10 0.790645182
v -0.176066443 -0.0718453825 0.790645123
v -0.117923528 4.26155999e-10 0.801647723
v -0.117923535 -0.0718453825 0.801647663
v -0.117923528 0.0718453825 0.801647723
v -0.0591304265 -0.0718453825 0.808348298
v -0.0591304302 4.26155999e-10 0.808348358
v -0.0591304302 0.0718453825 0.808348417
v -1.01133741e-08 0.0718453825 0.810611486
v -1.01133741e-08 4.26155999e-10 0.810611486
v -1.01133679e-08 -0.0718453825 0.810611486
v 0.0591304116 -0.0718453825 0.808348298
v 0.0591304116 4.26155999e-10 0.808348358
v 0.0591304116 0.0718453825 0.808348417
v 0.117923513 0.0718453825 0.801647723
v 0.117923513 4.26155999e-10 0.801647723
v 0.117923498 -0.0718453825 0.801647663
v 0.176066399 4.26155999e-10 0.790645182
v 0.176066399 -0.0718453825 0.790645123
v 0.176066399 0.0718453825 0.790645182
v 0.233263642 -0.0718453825 0.775474966
v 0.233263642 4.26155999e-10 0.775474966
v 0.233263642 0.0718453825 0.775474966
v 0.289233774 0.0718453825 0.756265223
v 0.289233774 4.26155999e-10 0.756265223
v 0.289233774 -0.0718453825 0.756265283
v 0.343701869 4.26155999e-10 0.733136296
v 0.343701839 -0.0718453825 0.733136237
v 0.343701869 0.0718453825 0.733136296
v 0.39639172 -0.0718453825 0.706201494
v 0.39639169 4.26155999e-10 0.706201434
v 0.39639169 0.0718453825 0.706201494
v 0.447021365 0.0718453825 0.675569654
v 0.447021365 4.26155999e-10 0.675569654
v 0.447021425 -0.0718453825 0.675569654
v 0.495298088 4.26155999e-10 0.641350091
v 0.495298028 -0.0718453825 0.641350091
v 0.495298058 0.0718453825 0.641350091
v 0.540914595 -0.0718453825 0.603658438
v 0.540914595 4.26155999e-10 0.603658438
v 0.540914595 0.0718453825 0.603658438
v 0.583550572 0.0718453825 0.562625766
v 0.583550572 4.26155999e-10 0.562625766
v 0.583550572 -0.0718453825 0.562625825
v 0.622930229 -0.0718453825 0.518458605
v 0.622930229 4.26155999e-10 0.518458605
v 0.622930229 0.0718453825 0.518458605
v 0.658901334 0.0718453825 0.471472591
v 0.658901334 4.26155999e-10 0.471472591
v 0.658901393 -0.0718453825 0.471472621
v 0.691341221 4.26155999e-10 0.42198208
v 0.691341281 -0.0718453825 0.42198208
v 0.691341221 0.0718453825 0.42198205
v 0.720137715 -0.0718453825 0.370286554
v 0.720137775 4.26155999e-10 0.370286584
v 0.720137775 0.0718453825 0.370286554
v 0.74518311 0.0718453825 0.316672981
v 0.74518311 4.26155999e-10 0.316672981
v 0.74518311 -0.0718453825 0.316672981
v 0.766367316 4.26155999e-10 0.261419535
v 0.766367435 -0.0718453825 0.261419535
v 0.766367376 0.0718453825 0.261419535
v 0.783572555 -0.0718453825 0.204801038
v 0.783572674 4.26155999e-10 0.204801038
v 0.783572674 0.0718453825 0.204801023
v 0.796675503 0.0718453825 0.147095144
v 0.796675503 4.26155999e-10 0.147095144
v 0.796675503 -0.0718453825 0.147095129
v 0.805544555 4.26155999e-10 0.0885891616
v 0.805544615 -0.0718453825 0.0885891691
v 0.805544555 0.0718453825 0.0885891542
v 0.810042799 -0.0718453825 0.0295866244
v 0.810042858 4.26155999e-10 0.0295866244
v 0.810042858 0.0718453825 0.0295866244
v 0.810042858 0.0718453825 -0.0295866244
v 0.810042858 4.26155999e-10 -0.0295866244
v 0.810042799 -0.0718453825 -0.0295866244
v 0.805544615 -0.0718453825 -0.0885891691
v 0.805544555 4.26155999e-10 -0.0885891616
v 0.805544555 0.0718453825 -0.0885891542
v 0.796675503 0.0718453825 -0.147095144
v 0.796675503 4.26155999e-10 -0.147095144
v 0.796675503 -0.0718453825 -0.147095129
v 0.783572674 4.26155999e-10 -0.204801038
v 0.783572555 -0.0718453825 -0.204801038
v 0.783572674 0.0718453825 -0.204801023
v 0.766367435 -0.0718453825 -0.261419535
v 0.766367316 4.26155999e-10 -0.261419535
v 0.766367376 0.0718453825 -0.261419535
v 0.74518311 0.0718453825 -0.316672981
v 0.74518311 4.26155999e-10 -0.316672981
v 0.74518311 -0.0718453825 -0.316672981
v 0.720137775 4.26155999e-10 -0.370286584
v 0.720137715 -0.0718453825 -0.370286554
v 0.720137775 0.0718453825 -0.370286554
v 0.691341281 -0.0718453825 -0.42198208
v 0.691341221 4.26155999e-10 -0.42198208
v 0.691341221 0.0718453825 -0.42198205
v 0.658901334 0.0718453825 -0.471472591
v 0.658901334 4.26155999e-10 -0.471472591
v 0.658901393 -0.0718453825 -0.471472621
v 0.622930229 4.26155999e-10 -0.518458605
v 0.622930229 -0.0718453825 -0.518458605
v 0.622930229 0.0718453825 -0.518458605
v 0.583550572 -0.0718453825 -0.562625825
v 0.583550572 4.26155999e-10 -0.562625766
v 0.583550572 0.0718453825 -0.562625766
v 0.540914595 0.0718453825 -0.603658438
v 0.540914595 4.26155999e-10 -0.603658438
v 0.540914595 -0.0718453825 -0.603658438
v 0.495298028 -0.0718453825 -0.641350091
v 0.495298088 4.26155999e-10 -0.641350091
v 0.495298058 0.0718453825 -0.641350091
v 0.447021365 0.0718453825 -0.675569654
v 0.447021365 4.26155999e-10 -0.675569654
v 0.447021425 -0.0718453825 -0.675569654
v 0.39639169 4.26155999e-10 -0.706201434
v 0.39639172 -0.0718453825 -0.706201494
v 0.39639169 0.0718453825 -0.706201494
v 0.343701839 -0.0718453825 -0.733136237
v 0.343701869 4.26155999e-10 -0.733136296
v 0.343701869 0.0718453825 -0.733136296
v 0.289233774 0.0718453825 -0.756265223
v 0.289233774 4.26155999e-10 -0.756265223
v 0.289233774 -0.0718453825 -0.756265283
v 0.233263642 -0.0718453825 -0.775474966
v 0.233263642 4.26155999e-10 -0.775474966
v 0.233263642 0.0718453825 -0.775474966
v 0.176066399 0.0718453825 -0.790645182
v 0.176066399 4.26155999e-10 -0.790645182
v 0.176066399 -0.0718453825 -0.790645123
v 0.117923513 4.26155999e-10 -0.801647723
v 0.117923498 -0.0718453825 -0.801647663
v 0.117923513 0.0718453825 -0.801647723
v 0.0591304116 -0.0718453825 -0.808348298
v 0.0591304116 4.26155999e-10 -0.808348358
v 0.0591304116 0.0718453825 -0.808348417
v -1.01133741e-08 0.0718453825 -0.810611486
v -1.01133741e-08 4.26155999e-10 -0.810611486
v -1.01133679e-08 -0.0718453825 -0.810611486
v 7.33246353e-08 1.39698386e-09 0.590058148
v 6.23331289e-08 4.26155999e-10 0.80016005
v 0.0784284845 4.26155999e-10 0.796297848
v 0.0578351654 1.39698386e-09 0.587210059
v 0.115114674 1.39698386e-09 0.578720391
v 8.29678584e-08 0 1.02033615
v 0.10000927 0 1.01541126
v 0.199057728 0 1.00073051
v -0.0784282163 4.26155999e-10 0.796297431
v 7.33246353e-08 1.39698386e-09 0.590058148
v -0.0578349233 1.39698386e-09 0.587209761
v -0.100008935 0 1.01541078
v -0.115114257 1.39698386e-09 0.578719854
v -0.156103 4.26155999e-10 0.784784496
v -0.199057072 0 1.00072968
v -0.296183735 0 0.976388812
v -0.232270882 4.26155999e-10 0.76569581
v -0.171282351 1.39698386e-09 0.564643383
v -0.390464932 0 0.942667186
v -0.225804925 1.39698386e-09 0.545142233
v -0.306207359 4.26155999e-10 0.739250898
v -0.377187788 4.26155999e-10 0.705669403
v -0.480976641 0 0.899844766
v -0.278147668 1.39698386e-09 0.520378351
v -0.566867471 0 0.848378003
v -0.327818215 1.39698386e-09 0.490615129
v -0.444544405 4.26155999e-10 0.665308356
v -0.507609487 4.26155999e-10 0.618524611
v -0.647285938 0 0.788720667
v -0.374323964 1.39698386e-09 0.456115484
v -0.721485674 0 0.72148627
v -0.417233527 1.39698386e-09 0.417233884
v -0.565797806 4.26155999e-10 0.565798342
v -0.618524075 4.26155999e-10 0.507610083
v -0.78872031 0 0.647286415
v -0.456115216 1.39698386e-09 0.374324471
v -0.848377466 0 0.566868544
v -0.490614653 1.39698386e-09 0.327818692
v -0.665307939 4.26155999e-10 0.444545031
v -0.705669165 4.26155999e-10 0.377188474
v -0.899844587 0 0.480977416
v -0.520378113 1.39698386e-09 0.278148264
v -0.942666709 0 0.390465915
v -0.545142055 1.39698386e-09 0.225805551
v -0.73925072 4.26155999e-10 0.306208104
v -0.765695751 4.26155999e-10 0.232271671
v -0.976388454 0 0.296184659
v -0.564643264 1.39698386e-09 0.171282977
v -1.00072968 0 0.199057996
v -0.578719735 1.39698386e-09 0.11511483
v -0.784784436 4.26155999e-10 0.156103715
v -0.796297073 4.26155999e-10 0.07842879
v -1.01541018 0 0.100009643
v -0.587209463 1.39698386e-09 0.0578353815
v -1.02033532 0 4.50901894e-07
v -0.590057731 1.39698386e-09 2.86164237e-07
v -0.800159395 4.26155999e-10 3.61048876e-07
v -0.796297133 4.26155999e-10 -0.0784280673
v -1.0154103 0 -0.100008763
v -0.587209642 1.39698386e-09 -0.0578348115
v -1.00072992 0 -0.199057132
v -0.578719854 1.39698386e-09 -0.115114264
v -0.784784615 4.26155999e-10 -0.156103015
v -0.765695989 4.26155999e-10 -0.232270986
v -0.976388752 0 -0.296183825
v -0.564643502 1.39698386e-09 -0.171282411
v -0.942667067 0 -0.390465111
v -0.545142412 1.39698386e-09 -0.225805029
v -0.739251137 4.26155999e-10 -0.306207448
v -0.705669582 4.26155999e-10 -0.377187878
v -0.899845183 0 -0.480976671
v -0.52037847 1.39698386e-09 -0.278147757
v -0.848378062 0 -0.566867888
v -0.490615249 1.39698386e-09 -0.327818245
v -0.665308475 4.26155999e-10 -0.444544524
v -0.61852473 4.26155999e-10 -0.507609665
v -0.788720965 0 -0.647285879
v -0.456115574 1.39698386e-09 -0.374324083
v -0.72148633 0 -0.721485853
v -0.417233944 1.39698386e-09 -0.417233706
v -0.565798461 4.26155999e-10 -0.565798044
v -0.507610202 4.26155999e-10 -0.618524313
v -0.647286654 0 -0.788720369
v -0.374324501 1.39698386e-09 -0.456115246
v -0.566868305 0 -0.848377943
v -0.327818692 1.39698386e-09 -0.490614921
v -0.44454509 4.26155999e-10 -0.665308237
v -0.377188504 4.26155999e-10 -0.705669403
v -0.480977535 0 -0.899844766
v -0.278148234 1.39698386e-09 -0.520378351
v -0.390465826 0 -0.942667246
v -0.225805506 1.39698386e-09 -0.545142412
v -0.306208104 4.26155999e-10 -0.739251018
v -0.232271641 4.26155999e-10 -0.765696049
v -0.296184659 0 -0.97638905
v -0.171282932 1.39698386e-09 -0.564643502
v -0.199057937 0 -1.0007298
v -0.115114726 1.39698386e-09 -0.578719974
v -0.156103656 4.26155999e-10 -0.784784734
v -0.0784287155 4.26155999e-10 -0.796297312
v -0.100009546 0 -1.01541054
v -0.0578352846 1.39698386e-09 -0.587209642
v -3.36698008e-07 0 -1.02033567
v -1.70361943e-07 1.39698386e-09 -0.59005785
v -2.68291359e-07 4.26155999e-10 -0.800159693
v 0.156103492 4.26155999e-10 0.784785271
v 0.232271522 4.26155999e-10 0.765696526
v 0.29618454 0 0.976389766
v 0.171282873 1.39698386e-09 0.564643919
v 0.390465766 0 0.942668021
v 0.225805491 1.39698386e-09 0.54514277
v 0.306208044 4.26155999e-10 0.739251494
v 0.377188504 4.26155999e-10 0.70566994
v 0.480977595 0 0.899845481
v 0.278148353 1.39698386e-09 0.520378709
v 0.566868424 0 0.848378539
v 0.327818841 1.39698386e-09 0.490615427
v 0.44454518 4.26155999e-10 0.665308714
v 0.507610321 4.26155999e-10 0.618524849
v 0.647286892 0 0.788721085
v 0.374324679 1.39698386e-09 0.456115752
v 0.721486688 0 0.721486568
v 0.417234182 1.39698386e-09 0.417234123
v 0.5657987 4.26155999e-10 0.565798581
v 0.618524909 4.26155999e-10 0.507610202
v 0.788721323 0 0.647286534
v 0.456115901 1.39698386e-09 0.37432453
v 0.848378539 0 0.566868484
v 0.490615517 1.39698386e-09 0.327818632
v 0.665308893 4.26155999e-10 0.444545031
v 0.705669999 4.26155999e-10 0.377188325
v 0.89984566 0 0.480977237
v 0.520378828 1.39698386e-09 0.278148144
v 0.942667663 0 0.390465647
v 0.54514271 1.39698386e-09 0.225805402
v 0.739251494 4.26155999e-10 0.306207895
v 0.765696466 4.26155999e-10 0.232271373
v 0.976389349 0 0.296184301
v 0.56464386 1.39698386e-09 0.171282768
v 1.00073063 0 0.199057564
v 0.578720212 1.39698386e-09 0.11511457
v 0.784785151 4.26155999e-10 0.156103358
v 0.796297729 4.26155999e-10 0.0784283504
v 1.0154109 0 0.100009114
v 0.58721 1.39698386e-09 0.0578350648
v 1.02033591 0 -1.70880327e-07
v 0.590058148 1.39698386e-09 -7.13706285e-08
v 0.800159931 4.26155999e-10 -1.27384368e-07
v 0.79629755 4.26155999e-10 -0.0784286037
v 1.0154109 0 -0.100009426
v 0.587209821 1.39698386e-09 -0.0578351915
v 1.0007304 0 -0.199057847
v 0.578720152 1.39698386e-09 -0.115114689
v 0.784785032 4.26155999e-10 -0.156103581
v 0.765696228 4.26155999e-10 -0.232271582
v 0.97638911 0 -0.29618457
v 0.564643681 1.39698386e-09 -0.171282873
v 0.942667305 0 -0.390465945
v 0.545142472 1.39698386e-09 -0.225805491
v 0.739251256 4.26155999e-10 -0.306208074
v 0.705669641 4.26155999e-10 -0.377188474
v 0.899845302 0 -0.480977416
v 0.52037847 1.39698386e-09 -0.278148234
v 0.848378062 0 -0.566868603
v 0.490615189 1.39698386e-09 -0.327818692
v 0.665308475 4.26155999e-10 -0.44454512
v 0.618524551 4.26155999e-10 -0.507610321
v 0.788720906 0 -0.647286654
v 0.456115484 1.39698386e-09 -0.37432456
v 0.721486211 0 -0.721486509
v 0.417233884 1.39698386e-09 -0.417234063
v 0.565798223 4.26155999e-10 -0.565798581
v 0.507609844 4.26155999e-10 -0.618524849
v 0.647286415 0 -0.788720965
v 0.374324322 1.39698386e-09 -0.456115663
v 0.566867948 0 -0.84837842
v 0.327818483 1.39698386e-09 -0.490615308
v 0.444544762 4.26155999e-10 -0.665308654
v 0.377188087 4.26155999e-10 -0.705669761
v 0.480977058 0 -0.899845243
v 0.278147966 1.39698386e-09 -0.52037859
v 0.390465289 0 -0.942667663
v 0.306207657 4.26155999e-10 -0.739251256
v 0.225805193 1.39698386e-09 -0.545142591
v 0.171282619 1.39698386e-09 -0.564643621
v 0.232271165 4.26155999e-10 -0.765696287
v 0.296184063 0 -0.976389408
v 0.115114428 1.39698386e-09 -0.578720093
v 0.199057296 0 -1.00073004
v 0.156103164 4.26155999e-10 -0.784784853
v 0.0784281865 4.26155999e-10 -0.796297431
v 0.0578349531 1.39698386e-09 -0.587209642
v 0.10000889 0 -1.01541066
v -1.70361943e-07 1.39698386e-09 -0.59005785
v -3.36698008e-07 0 -1.02033567
v -2.68291359e-07 4.26155999e-10 -0.800159693
vt 1.00094211 0.499559462
vt 0.989296257 0.997817993
vt 1.00094211 0.997817993
vt 0.989296257 0.499559462
vt 1.00094211 0.000118785072
vt 0.989296257 0.000118785072
vt 0.977657378 0.000118785072
vt 0.977657378 0.499559462
vt 0.977657378 0.997817993
vt 0.966028631 0.499559462
vt 0.966028631 0.997817993
vt 0.966028631 0.000118785072
vt 0.954409301 0.997817993
vt 0.954409301 0.499559462
vt 0.954409301 0.000118785072
vt 0.94279629 0.000118785072
vt 0.94279629 0.499559462
vt 0.94279629 0.997817993
vt 0.931185067 0.499559462
vt 0.931185067 0.997817993
vt 0.931185067 0.000118785072
vt 0.919570863 0.997817993
vt 0.919570863 0.499559462
vt 0.919570863 0.000118785072
vt 0.907949388 0.000118785072
vt 0.907949388 0.499559462
vt 0.907949388 0.997817993
vt 0.896318018 0.499559462
vt 0.896318018 0.997817993
vt 0.896318018 0.000118785072
vt 0.884676993 0.997817993
vt 0.884676993 0.499559462
vt 0.884676993 0.000118785072
vt 0.873030305 0.000118785072
vt 0.873030305 0.499559462
vt 0.873030305 0.997817993
vt 0.861385643 0.997817993
vt 0.861385643 0.499559462
vt 0.861385643 0.000118785072
vt 0.849749207 0.000118785072
vt 0.849749207 0.499559462
vt 0.849749207 0.997817993
vt 0.838122964 0.499559462
vt 0.838122964 0.997817993
vt 0.838122964 0.000118785072
vt 0.826505601 0.997817993
vt 0.826505601 0.499559462
vt 0.826505601 0.000118785072
vt 0.814893484 0.000118785072
vt 0.814893484 0.499559462
vt 0.814893484 0.997817993
vt 0.803281963 0.499559462
vt 0.803281963 0.997817993
vt 0.803281963 0.000118785072
vt 0.791666329 0.997817993
vt 0.791666329 0.499559462
vt 0.791666329 0.000118785072
vt 0.780042529 0.000118785072
vt 0.780042529 0.499559462
vt 0.780042529 0.997817993
vt 0.768408597 0.499559462
vt 0.768408597 0.997817993
vt 0.768408597 0.000118785072
vt 0.756765604 0.997817993
vt 0.756765604 0.499559462
vt 0.756765604 0.000118785072
vt 0.745118618 0.000118785072
vt 0.745118618 0.499559462
vt 0.745118618 0.997817993
vt 0.733475626 0.997817993
vt 0.733475626 0.499559462
vt 0.733475626 0.000118785072
vt 0.721841693 0.000118785072
vt 0.721841693 0.499559462
vt 0.721841693 0.997817993
vt 0.710217893 0.499559462
vt 0.710217893 0.997817993
vt 0.710217893 0.000118785072
vt 0.698602259 0.997817993
vt 0.698602259 0.499559462
vt 0.698602259 0.000118785072
vt 0.686990738 0.000118785072
vt 0.686990738 0.499559462
vt 0.686990738 0.997817993
vt 0.675378621 0.499559462
vt 0.675378621 0.997817993
vt 0.675378621 0.000118785072
vt 0.663761258 0.997817993
vt 0.663761258 0.499559462
vt 0.663761258 0.000118785072
vt 0.652135015 0.000118785072
vt 0.652135015 0.499559462
vt 0.652135015 0.997817993
vt 0.640498579 0.499559462
vt 0.640498579 0.997817993
vt 0.640498579 0.000118785072
vt 0.628853917 0.997817993
vt 0.628853917 0.499559462
vt 0.628853917 0.000118785072
vt 0.617207229 0.000118785072
vt 0.617207229 0.499559462
vt 0.617207229 0.997817993
vt 0.605566204 0.997817993
vt 0.605566204 0.499559462
vt 0.605566204 0.000118785072
vt 0.593934834 0.000118785072
vt 0.593934834 0.499559462
vt 0.593934834 0.997817993
vt 0.582313359 0.499559462
vt 0.582313359 0.997817993
vt 0.582313359 0.000118785072
vt 0.570699155 0.997817993
vt 0.570699155 0.499559462
vt 0.570699155 0.000118785072
vt 0.559087992 0.000118785072
vt 0.559087992 0.499559462
vt 0.559087992 0.997817993
vt 0.547474921 0.997817993
vt 0.547474921 0.499559462
vt 0.547474921 0.000118785072
vt 0.535855591 0.000118785072
vt 0.535855591 0.499559462
vt 0.535855591 0.997817993
vt 0.524226844 0.499559462
vt 0.524226844 0.997817993
vt 0.524226844 0.000118785072
vt 0.512588024 0.997817993
vt 0.512588024 0.499559462
vt 0.512588024 0.000118785072
vt 0.500942111 0.000118785072
vt 0.500942111 0.499559462
vt 0.500942111 0.997817993
vt 0.489296198 0.997817993
vt 0.489296198 0.499559462
vt 0.489296198 0.000118785072
vt 0.477657378 0.000118785072
vt 0.477657378 0.499559462
vt 0.477657378 0.997817993
vt 0.466028631 0.499559462
vt 0.466028631 0.997817993
vt 0.466028631 0.000118785072
vt 0.454409301 0.997817993
vt 0.454409301 0.499559462
vt 0.454409301 0.000118785072
vt 0.44279629 0.000118785072
vt 0.44279629 0.499559462
vt 0.44279629 0.997817993
vt 0.431185067 0.499559462
vt 0.431185067 0.997817993
vt 0.431185067 0.000118785072
vt 0.419570863 0.997817993
vt 0.419570863 0.499559462
vt 0.419570863 0.000118785072
vt 0.407949388 0.000118785072
vt 0.407949388 0.499559462
vt 0.407949388 0.997817993
vt 0.396318048 0.499559462
vt 0.396318048 0.997817993
vt 0.396318048 0.000118785072
vt 0.384677052 0.997817993
vt 0.384677052 0.499559462
vt 0.384677052 0.000118785072
vt 0.373030305 0.000118785072
vt 0.373030305 0.499559462
vt 0.373030305 0.997817993
vt 0.361385673 0.997817993
vt 0.361385673 0.499559462
vt 0.361385673 0.000118785072
vt 0.349749267 0.000118785072
vt 0.349749267 0.499559462
vt 0.349749267 0.997817993
vt 0.338123024 0.499559462
vt 0.338123024 0.997817993
vt 0.338123024 0.000118785072
vt 0.326505631 0.997817993
vt 0.326505631 0.499559462
vt 0.326505631 0.000118785072
vt 0.314893514 0.000118785072
vt 0.314893514 0.499559462
vt 0.314893514 0.997817993
vt 0.303282022 0.499559462
vt 0.303282022 0.997817993
vt 0.303282022 0.000118785072
vt 0.291666329 0.997817993
vt 0.291666329 0.499559462
vt 0.291666329 0.000118785072
vt 0.280042529 0.000118785072
vt 0.280042529 0.499559462
vt 0.280042529 0.997817993
vt 0.268408626 0.499559462
vt 0.268408626 0.997817993
vt 0.268408626 0.000118785072
vt 0.256765634 0.997817993
vt 0.256765634 0.499559462
vt 0.256765634 0.000118785072
vt 0.245118648 0.000118785072
vt 0.245118648 0.499559462
vt 0.245118648 0.997817993
vt 0.233475655 0.997817993
vt 0.233475655 0.499559462
vt 0.233475655 0.000118785072
vt 0.221841753 0.000118785072
vt 0.221841753 0.499559462
vt 0.221841753 0.997817993
vt 0.210217953 0.499559462
vt 0.210217953 0.997817993
vt 0.210217953 0.000118785072
vt 0.198602259 0.997817993
vt 0.198602259 0.499559462
vt 0.198602259 0.000118785072
vt 0.186990768 0.000118785072
vt 0.186990768 0.499559462
vt 0.186990768 0.997817993
vt 0.17537865 0.499559462
vt 0.17537865 0.997817993
vt 0.17537865 0.000118785072
vt 0.163761258 0.997817993
vt 0.163761258 0.499559462
vt 0.163761258 0.000118785072
vt 0.152135015 0.000118785072
vt 0.152135015 0.499559462
vt 0.152135015 0.997817993
vt 0.140498608 0.499559462
vt 0.140498608 0.997817993
vt 0.140498608 0.000118785072
vt 0.128853947 0.997817993
vt 0.128853947 0.499559462
vt 0.128853947 0.000118785072
vt 0.117207229 0.000118785072
vt 0.117207229 0.499559462
vt 0.117207229 0.997817993
vt 0.105566218 0.997817993
vt 0.105566218 0.499559462
vt 0.105566218 0.000118785072
vt 0.0939348787 0.000118785072
vt 0.0939348787 0.499559462
vt 0.0939348787 0.997817993
vt 0.0823133886 0.499559462
vt 0.0823133886 0.997817993
vt 0.0823133886 0.000118785072
vt 0.0706991702 0.997817993
vt 0.0706991702 0.499559462
vt 0.0706991702 0.000118785072
vt 0.0590879917 0.000118785072
vt 0.0590879917 0.499559462
vt 0.0590879917 0.997817993
vt 0.0474749655 0.997817993
vt 0.0474749655 0.499559462
vt 0.0474749655 0.000118785072
vt 0.0358556211 0.000118785072
vt 0.0358556211 0.499559462
vt 0.0358556211 0.997817993
vt 0.0242268592 0.499559462
vt 0.0242268592 0.997817993
vt 0.0242268592 0.000118785072
vt 0.0125880539 0.997817993
vt 0.0125880539 0.499559462
vt 0.0125880539 0.000118785072
vt 0.000942133367 0.000118785072
vt 0.000942133367 0.499559462
vt 0.000942133367 0.997817993
vt 0.5 1
vt 0.5 0.500392497
vt 0.514998734 0.500392497
vt 0.514998734 1
vt 0.529997468 1
vt 0.5 0
vt 0.514998674 0
vt 0.529997408 0
vt 0.483639836 0.500392497
vt 0.498638511 1
vt 0.482959092 1
vt 0.483639836 0
vt 0.467279702 1
vt 0.467279673 0.500392497
vt 0.467279643 0
vt 0.451600194 0
vt 0.451600224 0.500392497
vt 0.451600254 1
vt 0.435920775 0
vt 0.435920775 1
vt 0.435920775 0.500392497
vt 0.420241356 0.500392497
vt 0.420241386 0
vt 0.420241356 1
vt 0.404561996 0
vt 0.404561937 1
vt 0.404561967 0.500392497
vt 0.388882518 0.500392497
vt 0.388882548 0
vt 0.388882518 1
vt 0.373203099 0
vt 0.373203099 1
vt 0.373203099 0.500392497
vt 0.35752368 0.500392497
vt 0.35752362 0
vt 0.35752371 1
vt 0.341844141 0
vt 0.34184432 1
vt 0.341844231 0.500392497
vt 0.326164782 0.500392497
vt 0.326164782 0
vt 0.326164812 1
vt 0.310485423 0
vt 0.310485303 1
vt 0.310485363 0.500392497
vt 0.294805944 0.500392497
vt 0.294806004 0
vt 0.294805944 1
vt 0.279126585 0
vt 0.279126555 1
vt 0.279126555 0.500392497
vt 0.263447165 0.500392497
vt 0.263447225 0
vt 0.263447136 1
vt 0.247767836 0
vt 0.247767717 1
vt 0.247767776 0.500392497
vt 0.232088238 0.500392497
vt 0.232088223 0
vt 0.232088253 1
vt 0.21640861 0
vt 0.216408789 1
vt 0.2164087 0.500392497
vt 0.2007294 0.500392497
vt 0.200729355 0
vt 0.20072946 1
vt 0.1850501 0
vt 0.18505013 1
vt 0.185050115 0.500392497
vt 0.169370636 0.500392497
vt 0.169370621 0
vt 0.169370651 1
vt 0.153691143 0
vt 0.153691173 1
vt 0.153691158 0.500392497
vt 0.138011768 0.500392497
vt 0.138011739 0
vt 0.138011798 1
vt 0.122332327 0
vt 0.122332416 1
vt 0.122332372 0.500392497
vt 0.106652878 0.500392497
vt 0.106652848 0
vt 0.106652908 1
vt 0.0909733698 0
vt 0.0909733996 1
vt 0.0909733847 0.500392497
vt 0.0752940401 0.500392497
vt 0.0752940699 0
vt 0.0752940103 1
vt 0.0596147738 0
vt 0.0596146248 1
vt 0.0596146993 0.500392497
vt 0.0439352654 0.500392497
vt 0.0439352654 0
vt 0.0439352654 1
vt 0.0282557569 0
vt 0.028255906 1
vt 0.0282558315 0.500392497
vt 0.0141279157 0.500392497
vt 0.0141278785 0
vt 0.014127953 1
vt 0 0
vt 0 1
vt 0 0.500392497
vt 0.529997468 0.500392497
vt 0.545676827 0.500392497
vt 0.545676827 0
vt 0.545676827 1
vt 0.561356187 0
vt 0.561356246 1
vt 0.561356187 0.500392497
vt 0.577035666 0.500392497
vt 0.577035666 0
vt 0.577035666 1
vt 0.592715085 0
vt 0.592715085 1
vt 0.592715085 0.500392497
vt 0.608394504 0.500392497
vt 0.608394504 0
vt 0.608394504 1
vt 0.624073863 0
vt 0.624073863 1
vt 0.624073863 0.500392497
vt 0.639753222 0.500392497
vt 0.639753222 0
vt 0.639753222 1
vt 0.655432582 0
vt 0.655432642 1
vt 0.655432642 0.500392497
vt 0.67111212 0.500392497
vt 0.671112061 0
vt 0.67111212 1
vt 0.686791599 0
vt 0.686791599 1
vt 0.686791599 0.500392497
vt 0.702471077 0.500392497
vt 0.702471077 0
vt 0.702471018 1
vt 0.718150556 0
vt 0.718150437 1
vt 0.718150556 0.500392497
vt 0.733829975 0.500392497
vt 0.733829975 0
vt 0.733829856 1
vt 0.749509335 0
vt 0.749509275 1
vt 0.749509335 0.500392497
vt 0.765188694 0.500392497
vt 0.765188694 0
vt 0.765188694 1
vt 0.780868113 0
vt 0.780868113 1
vt 0.780868113 0.500392497
vt 0.796547532 0.500392497
vt 0.796547592 0
vt 0.796547532 1
vt 0.81222707 0
vt 0.812227011 1
vt 0.812227011 0.500392497
vt 0.82790643 0.500392497
vt 0.82790643 0
vt 0.827906489 1
vt 0.843585789 0
vt 0.843585908 1
vt 0.843585849 0.500392497
vt 0.859265268 0.500392497
vt 0.859265208 0
vt 0.859265268 1
vt 0.874944627 0
vt 0.874944627 1
vt 0.874944687 0.500392497
vt 0.890624046 0.500392497
vt 0.890623987 0
vt 0.890624046 1
vt 0.906303346 0
vt 0.906303465 1
vt 0.906303406 0.500392497
vt 0.921982884 0.500392497
vt 0.921982884 0
vt 0.921982884 1
vt 0.937662423 0
vt 0.937662423 0.500392497
vt 0.937662363 1
vt 0.953341782 1
vt 0.953341842 0.500392497
vt 0.953341842 0
vt 0.969021201 1
vt 0.969021261 0
vt 0.969021201 0.500392497
vt 0.984510601 0.500392497
vt 0.984510601 1
vt 0.98451066 0
vt 1 1
vt 1 0
vt 1 0.500392497
vn 0 0 1
vn 0.0757942796 0 0.99712342
vn 0 0 1
vn 0.0757942796 0 0.99712342
vn 0 0 1
vn 0.0757942796 0 0.99712342
vn 0.149686351 0 0.98873353
vn 0.149686351 0 0.98873353
vn 0.149686351 0 0.98873353
vn 0.221293151 0 0.975207388
vn 0.221293136 0 0.975207388
vn 0.221293136 0 0.975207388
vn 0.290679842 0 0.956820369
vn 0.290679842 0 0.956820369
vn 0.290679842 0 0.956820369
vn 0.357965291 0 0.933734894
vn 0.357965291 0 0.933734894
vn 0.357965291 0 0.933734894
vn 0.423279494 0 0.905999124
vn 0.423279494 0 0.905999124
vn 0.423279494 0 0.905999124
vn 0.486720979 0 0.873557568
vn 0.486720979 0 0.873557568
vn 0.486720979 0 0.873557568
vn 0.548326313 0 0.836264431
vn 0.548326313 0 0.836264431
vn 0.548326313 0 0.836264431
vn 0.60803926 0 0.793906927
vn 0.6080392 0 0.793906987
vn 0.6080392 0 0.793906987
vn 0.66567415 0 0.746242523
vn 0.66567415 0 0.746242523
vn 0.66567415 0 0.746242523
vn 0.720440745 0 0.693516493
vn 0.720440745 0 0.693516493
vn 0.720440745 0 0.693516493
vn 0.770752549 0 0.637134552
vn 0.770752549 0 0.637134552
vn 0.770752549 0 0.637134552
vn 0.815733194 0 0.578428268
vn 0.815733194 0 0.578428268
vn 0.815733194 0 0.578428268
vn 0.855529249 0 0.517754555
vn 0.855529249 0 0.517754555
vn 0.855529249 0 0.517754555
vn 0.890374124 0 0.455229521
vn 0.890374124 0 0.455229521
vn 0.890374124 0 0.455229521
vn 0.920449257 0 0.390862107
vn 0.920449257 0 0.390862137
vn 0.920449257 0 0.390862107
vn 0.945859134 0 0.324577302
vn 0.945859134 0 0.324577302
vn 0.945859134 0 0.324577302
vn 0.966608882 0 0.256256282
vn 0.966608882 0 0.256256282
vn 0.966608882 0 0.256256282
vn 0.982592702 0 0.185772896
vn 0.982592702 0 0.185772911
vn 0.982592702 0 0.185772896
vn 0.993591845 0 0.113027066
vn 0.993591845 0 0.113027066
vn 0.993591845 0 0.113027066
vn 0.999276221 0 0.0380401351
vn 0.999276221 0 0.0380401351
vn 0.999276221 0 0.0380401351
vn 0.999276221 0 -0.0380401351
vn 0.999276221 0 -0.0380401351
vn 0.999276221 0 -0.0380401351
vn 0.993591845 0 -0.113027066
vn 0.993591845 0 -0.113027066
vn 0.993591845 0 -0.113027066
vn 0.982592702 0 -0.185772896
vn 0.982592702 0 -0.185772896
vn 0.982592702 0 -0.185772896
vn 0.966608882 0 -0.256256282
vn 0.966608882 0 -0.256256282
vn 0.966608882 0 -0.256256282
vn 0.945859134 0 -0.324577302
vn 0.945859134 0 -0.324577302
vn 0.945859134 0 -0.324577302
vn 0.920449257 0 -0.390862107
vn 0.920449257 0 -0.390862107
vn 0.920449257 0 -0.390862107
vn 0.890374124 0 -0.455229521
vn 0.890374124 0 -0.455229521
vn 0.890374124 0 -0.455229521
vn 0.855529249 0 -0.517754555
vn 0.855529249 0 -0.517754555
vn 0.855529249 0 -0.517754555
vn 0.815733194 0 -0.578428268
vn 0.815733194 0 -0.578428268
vn 0.815733194 0 -0.578428268
vn 0.770752549 0 -0.637134552
vn 0.770752549 0 -0.637134552
vn 0.770752549 0 -0.637134552
vn 0.720440745 0 -0.693516493
vn 0.720440745 0 -0.693516493
vn 0.720440745 0 -0.693516493
vn 0.66567415 0 -0.746242523
vn 0.66567415 0 -0.746242523
vn 0.66567415 0 -0.746242523
vn 0.6080392 0 -0.793906987
vn 0.60803926 0 -0.793906927
vn 0.6080392 0 -0.793906987
vn 0.548326313 0 -0.836264431
vn 0.548326313 0 -0.836264431
vn 0.548326313 0 -0.836264431
vn 0.486720979 0 -0.873557568
vn 0.486720979 0 -0.873557568
vn 0.486720979 0 -0.873557568
vn 0.423279494 0 -0.905999124
vn 0.423279494 0 -0.905999124
vn 0.423279494 0 -0.905999124
vn 0.357965291 0 -0.933734894
vn 0.357965291 0 -0.933734894
vn 0.357965291 0 -0.933734894
vn 0.290679842 0 -0.956820369
vn 0.290679842 0 -0.956820369
vn 0.290679842 0 -0.956820369
vn 0.221293136 0 -0.975207388
vn 0.221293136 0 -0.975207388
vn 0.221293136 0 -0.975207388
vn 0.149686351 0 -0.98873353
vn 0.149686351 0 -0.98873353
vn 0.149686351 0 -0.98873353
vn 0.0757942796 0 -0.99712342
vn 0.075794287 0 -0.99712342
vn 0.0757942796 0 -0.99712342
vn 0 0 -1
vn 0 0 -1
vn 0 0 -1
vn -0.0757942796 0 -0.99712342
vn -0.0757942796 0 -0.99712342
vn -0.0757942796 0 -0.99712342
vn -0.149686351 0 -0.98873353
vn -0.149686351 0 -0.98873353
vn -0.149686351 0 -0.98873353
vn -0.221293151 0 -0.975207388
vn -0.221293136 0 -0.975207388
vn -0.221293136 0 -0.975207388
vn -0.290679842 0 -0.956820369
vn -0.290679842 0 -0.956820369
vn -0.290679842 0 -0.956820369
vn -0.357965291 0 -0.933734894
vn -0.357965291 0 -0.933734894
vn -0.357965291 0 -0.933734894
vn -0.423279494 0 -0.905999124
vn -0.423279494 0 -0.905999124
vn -0.423279494 0 -0.905999124
vn -0.486720979 0 -0.873557568
vn -0.486720979 0 -0.873557568
vn -0.486720979 0 -0.873557568
vn -0.548326313 0 -0.836264431
vn -0.548326313 0 -0.836264431
vn -0.548326313 0 -0.836264431
vn -0.60803926 0 -0.793906927
vn -0.6080392 0 -0.793906987
vn -0.6080392 0 -0.793906987
vn -0.66567415 0 -0.746242523
vn -0.66567415 0 -0.746242523
vn -0.66567415 0 -0.746242523
vn -0.720440745 0 -0.693516493
vn -0.720440745 0 -0.693516493
vn -0.720440745 0 -0.693516493
vn -0.770752549 0 -0.637134552
vn -0.770752549 0 -0.637134552
vn -0.770752549 0 -0.637134552
vn -0.815733194 0 -0.578428268
vn -0.815733194 0 -0.578428268
vn -0.815733194 0 -0.578428268
vn -0.855529249 0 -0.517754555
vn -0.855529249 0 -0.517754555
vn -0.855529249 0 -0.517754555
vn -0.890374124 0 -0.455229521
vn -0.890374124 0 -0.455229521
vn -0.890374124 0 -0.455229521
vn -0.920449257 0 -0.390862107
vn -0.920449257 0 -0.390862137
vn -0.920449257 0 -0.390862107
vn -0.945859134 0 -0.324577302
vn -0.945859134 0 -0.324577302
vn -0.945859134 0 -0.324577302
vn -0.966608882 0 -0.256256282
vn -0.966608882 0 -0.256256282
vn -0.966608882 0 -0.256256282
vn -0.982592702 0 -0.185772896
vn -0.982592702 0 -0.185772911
vn -0.982592702 0 -0.185772896
vn -0.993591845 0 -0.113027066
vn -0.993591845 0 -0.113027066
vn -0.993591845 0 -0.113027066
vn -0.999276221 0 -0.0380401351
vn -0.999276221 0 -0.0380401351
vn -0.999276221 0 -0.0380401351
vn -0.999276221 0 0.0380401351
vn -0.999276221 0 0.0380401351
vn -0.999276221 0 0.0380401351
vn -0.993591845 0 0.113027066
vn -0.993591845 0 0.113027066
vn -0.993591845 0 0.113027066
vn -0.982592702 0 0.185772896
vn -0.982592702 0 0.185772896
vn -0.982592702 0 0.185772896
vn -0.966608882 0 0.256256282
vn -0.966608882 0 0.256256282
vn -0.966608882 0 0.256256282
vn -0.945859134 0 0.324577302
vn -0.945859134 0 0.324577302
vn -0.945859134 0 0.324577302
vn -0.920449257 0 0.390862107
vn -0.920449257 0 0.390862107
vn -0.920449257 0 0.390862107
vn -0.890374124 0 0.455229521
vn -0.890374124 0 0.455229521
vn -0.890374124 0 0.455229521
vn -0.855529249 0 0.517754555
vn -0.855529249 0 0.517754555
vn -0.855529249 0 0.517754555
vn -0.815733194 0 0.578428268
vn -0.815733194 0 0.578428268
vn -0.815733194 0 0.578428268
vn -0.770752549 0 0.637134552
vn -0.770752549 0 0.637134552
vn -0.770752549 0 0.637134552
vn -0.720440745 0 0.693516493
vn -0.720440745 0 0.693516493
vn -0.720440745 0 0.693516493
vn -0.66567415 0 0.746242523
vn -0.66567415 0 0.746242523
vn -0.66567415 0 0.746242523
vn -0.6080392 0 0.793906987
vn -0.60803926 0 0.793906927
vn -0.6080392 0 0.793906987
vn -0.548326313 0 0.836264431
vn -0.548326313 0 0.836264431
vn -0.548326313 0 0.836264431
vn -0.486720979 0 0.873557568
vn -0.486720979 0 0.873557568
vn -0.486720979 0 0.873557568
vn -0.423279494 0 0.905999124
vn -0.423279494 0 0.905999124
vn -0.423279494 0 0.905999124
vn -0.357965291 0 0.933734894
vn -0.357965291 0 0.933734894
vn -0.357965291 0 0.933734894
vn -0.290679842 0 0.956820369
vn -0.290679842 0 0.956820369
vn -0.290679842 0 0.956820369
vn -0.221293136 0 0.975207388
vn -0.221293136 0 0.975207388
vn -0.221293136 0 0.975207388
vn -0.149686351 0 0.98873353
vn -0.149686351 0 0.98873353
vn -0.149686351 0 0.98873353
vn -0.0757942796 0 0.99712342
vn -0.075794287 0 0.99712342
vn -0.0757942796 0 0.99712342
vn 0 0 1
vn 0 0 1
vn 0 0 1
vn 0 1 0
vn 0 1 0
vn 0 1 0
vn 0 1 0
vn 0 1 0
vn 0 1 0
vn 0 1 0
vn 0 1 0
vn 0 1 0
vn 0 1 0
vn 0 1 0
vn 0 1 0
vn 0 1 0
vn 0 1 0
vn 0 1 0
vn 0 1 0
vn 0 1 0
vn 0 1 0
vn 0 1 0
vn 0 1 0
vn 0 1 0
vn 0 1 0
vn 0 1 0
vn 0 1 0
vn 0 1 0
vn 0 1 0
vn 0 1 0
vn 0 1 0
vn 0 1 0
vn 0 1 0
vn 0 1 0
vn 0 1 0
vn 0 1 0
vn 0 1 0
vn 0 1 0
vn 0 1 0
vn 0 1 0
vn 0 1 0
vn 0 1 0
vn 0 1 0
vn 0 1 0
vn 0 1 0
vn 0 1 0
vn 0 1 0
vn 0 1 0
vn 0 1 0
vn 0 1 0
vn 0 1 0
vn 0 1 0
vn 0 1 0
vn 0 1 0
vn 0 1 0
vn 0 1 0
vn 0 1 0
vn 0 1 0
vn 0 1 0
vn 0 1 0
vn 0 1 0
vn 0 1 0
vn 0 1 0
vn 0 1 0
vn 0 1 0
vn 0 1 0
vn 0 1 0
vn 0 1 0
vn 0 1 0
vn 0 1 0
vn 0 1 0
vn 0 1 0
vn 0 1 0
vn 0 1 0
vn 0 1 0
vn 0 1 0
vn 0 1 0
vn 0 1 0
vn 0 1 0
vn 0 1 0
vn 0 1 0
vn 0 1 0
vn 0 1 0
vn 0 1 0
vn 0 1 0
vn 0 1 0
vn 0 1 0
vn 0 1 0
vn 0 1 0
vn 0 1 0
vn 0 1 0
vn 0 1 0
vn 0 1 0
vn 0 1 0
vn 0 1 0
vn 0 1 0
vn 0 1 0
vn 0 1 0
vn 0 1 0
vn 0 1 0
vn 0 1 0
vn 0 1 0
vn 0 1 0
vn 0 1 0
vn 0 1 0
vn 0 1 0
vn 0 1 0
vn 0 1 0
vn 0 1 0
vn 0 1 0
vn 0 1 0
vn 0 1 0
vn 0 1 0
vn 0 1 0
vn 0 1 0
vn 0 1 0
vn 0 1 0
vn 0 1 0
vn 0 1 0
vn 0 1 0
vn 0 1 0
vn 0 1 0
vn 0 1 0
vn 0 1 0
vn 0 1 0
vn 0 1 0
vn 0 1 0
vn 0 1 0
vn 0 1 0
vn 0 1 0
vn 0 1 0
vn 0 1 0
vn 0 1 0
vn 0 1 0
vn 0 1 0
vn 0 1 0
vn 0 1 0
vn 0 1 0
vn 0 1 0
vn 0 1 0
vn 0 1 0
vn 0 1 0
vn 0 1 0
vn 0 1 0
vn 0 1 0
vn 0 1 0
vn 0 1 0
vn 0 1 0
vn 0 1 0
vn 0 1 0
vn 0 1 0
vn 0 1 0
vn 0 1 0
vn 0 1 0
vn 0 1 0
vn 0 1 0
vn 0 1 0
vn 0 1 0
vn 0 1 0
vn 0 1 0
vn 0 1 0
vn 0 1 0
vn 0 1 0
vn 0 1 0
vn 0 1 0
vn 0 1 0
vn 0 1 0
vn 0 1 0
vn 0 1 0
vn 0 1 0
vn 0 1 0
vn 0 1 0
vn 0 1 0
vn 0 1 0
vn 0 1 0
vn 0 1 0
vn 0 1 0
vn 0 1 0
vn 0 1 0
vn 0 1 0
vn 0 1 0
vn 0 1 0
vn 0 1 0
vn 0 1 0
vn 0 1 0
vn 0 1 0
vn 0 1 0
vn 0 1 0
vn 0 1 0
vn 0 1 0
vn 0 1 0
vn 0 1 0
vn 0 1 0
vn 0 1 0
vn 0 1 0
vn 0 1 0
vn 0 1 0
vn 0 1 0
vn 0 1 0
g submesh_0
usemtl submesh_0
f 1/1/1 2/2/2 3/3/3
f 1/1/1 4/4/4 2/2/2
f 5/5/5 4/4/4 1/1/1
f 5/5/5 6/6/6 4/4/4
f 4/4/4 6/6/6 7/7/7
f 2/2/2 4/4/4 8/8/8
f 4/4/4 7/7/7 8/8/8
f 2/2/2 8/8/8 9/9/9
f 10/10/10 8/8/8 7/7/7
f 9/9/9 8/8/8 10/10/10
f 9/9/9 10/10/10 11/11/11
f 10/10/10 7/7/7 12/12/12
f 10/10/10 13/13/13 11/11/11
f 12/12/12 14/14/14 10/10/10
f 10/10/10 14/14/14 13/13/13
f 12/12/12 15/15/15 14/14/14
f 14/14/14 15/15/15 16/16/16
f 13/13/13 14/14/14 17/17/17
f 14/14/14 16/16/16 17/17/17
f 13/13/13 17/17/17 18/18/18
f 19/19/19 17/17/17 16/16/16
f 18/18/18 17/17/17 19/19/19
f 18/18/18 19/19/19 20/20/20
f 19/19/19 16/16/16 21/21/21
f 19/19/19 22/22/22 20/20/20
f 21/21/21 23/23/23 19/19/19
f 19/19/19 23/23/23 22/22/22
f 21/21/21 24/24/24 23/23/23
f 23/23/23 24/24/24 25/25/25
f 22/22/22 23/23/23 26/26/26
f 23/23/23 25/25/25 26/26/26
f 22/22/22 26/26/26 27/27/27
f 28/28/28 26/26/26 25/25/25
f 27/27/27 26/26/26 28/28/28
f 27/27/27 28/28/28 29/29/29
f 28/28/28 25/25/25 30/30/30
f 28/28/28 31/31/31 29/29/29
f 30/30/30 32/32/32 28/28/28
f 28/28/28 32/32/32 31/31/31
f 30/30/30 33/33/33 32/32/32
f 32/32/32 33/33/33 34/34/34
f 31/31/31 32/32/32 35/35/35
f 32/32/32 34/34/34 35/35/35
f 31/31/31 35/35/35 36/36/36
f 35/35/35 37/37/37 36/36/36
f 34/34/34 38/38/38 35/35/35
f 35/35/35 38/38/38 37/37/37
f 34/34/34 39/39/39 38/38/38
f 38/38/38 39/39/39 40/40/40
f 37/37/37 38/38/38 41/41/41
f 38/38/38 40/40/40 41/41/41
f 37/37/37 41/41/41 42/42/42
f 43/43/43 41/41/41 40/40/40
f 42/42/42 41/41/41 43/43/43
f 42/42/42 43/43/43 44/44/44
f 43/43/43 40/40/40 45/45/45
f 43/43/43 46/46/46 44/44/44
f 45/45/45 47/47/47 43/43/43
f 43/43/43 47/47/47 46/46/46
f 45/45/45 48/48/48 47/47/47
f 47/47/47 48/48/48 49/49/49
f 46/46/46 47/47/47 50/50/50
f 47/47/47 49/49/49 50/50/50
f 46/46/46 50/50/50 51/51/51
f 52/52/52 50/50/50 49/49/49
f 51/51/51 50/50/50 52/52/52
f 51/51/51 52/52/52 53/53/53
f 52/52/52 49/49/49 54/54/54
f 52/52/52 55/55/55 53/53/53
f 54/54/54 56/56/56 52/52/52
f 52/52/52 56/56/56 55/55/55
f 54/54/54 57/57/57 56/56/56
f 56/56/56 57/57/57 58/58/58
f 55/55/55 56/56/56 59/59/59
f 56/56/56 58/58/58 59/59/59
f 55/55/55 59/59/59 60/60/60
f 61/61/61 59/59/59 58/58/58
f 60/60/60 59/59/59 61/61/61
f 60/60/60 61/61/61 62/62/62
f 61/61/61 58/58/58 63/63/63
f 61/61/61 64/64/64 62/62/62
f 63/63/63 65/65/65 61/61/61
f 61/61/61 65/65/65 64/64/64
f 63/63/63 66/66/66 65/65/65
f 65/65/65 66/66/66 67/67/67
f 64/64/64 65/65/65 68/68/68
f 65/65/65 67/67/67 68/68/68
f 64/64/64 68/68/68 69/69/69
f 68/68/68 70/70/70 69/69/69
f 67/67/67 71/71/71 68/68/68
f 68/68/68 71/71/71 70/70/70
f 67/67/67 72/72/72 71/71/71
f 71/71/71 72/72/72 73/73/73
f 70/70/70 71/71/71 74/74/74
f 71/71/71 73/73/73 74/74/74
f 70/70/70 74/74/74 75/75/75
f 76/76/76 74/74/74 73/73/73
f 75/75/75 74/74/74 76/76/76
f 75/75/75 76/76/76 77/77/77
f 76/76/76 73/73/73 78/78/78
f 76/76/76 79/79/79 77/77/77
f 78/78/78 80/80/80 76/76/76
f 76/76/76 80/80/80 79/79/79
f 78/78/78 81/81/81 80/80/80
f 80/80/80 81/81/81 82/82/82
f 79/79/79 80/80/80 83/83/83
f 80/80/80 82/82/82 83/83/83
f 79/79/79 83/83/83 84/84/84
f 85/85/85 83/83/83 82/82/82
f 84/84/84 83/83/83 85/85/85
f 84/84/84 85/85/85 86/86/86
f 85/85/85 82/82/82 87/87/87
f 85/85/85 88/88/88 86/86/86
f 87/87/87 89/89/89 85/85/85
f 85/85/85 89/89/89 88/88/88
f 87/87/87 90/90/90 89/89/89
f 89/89/89 90/90/90 91/91/91
f 88/88/88 89/89/89 92/92/92
f 89/89/89 91/91/91 92/92/92
f 88/88/88 92/92/92 93/93/93
f 94/94/94 92/92/92 91/91/91
f 93/93/93 92/92/92 94/94/94
f 93/93/93 94/94/94 95/95/95
f 94/94/94 91/91/91 96/96/96
f 94/94/94 97/97/97 95/95/95
f 96/96/96 98/98/98 94/94/94
f 94/94/94 98/98/98 97/97/97
f 96/96/96 99/99/99 98/98/98
f 98/98/98 99/99/99 100/100/100
f 97/97/97 98/98/98 101/101/101
f 98/98/98 100/100/100 101/101/101
f 97/97/97 101/101/101 102/102/102
f 101/101/101 103/103/103 102/102/102
f 100/100/100 104/104/104 101/101/101
f 101/101/101 104/104/104 103/103/103
f 100/100/100 105/105/105 104/104/104
f 104/104/104 105/105/105 106/106/106
f 103/103/103 104/104/104 107/107/107
f 104/104/104 106/106/106 107/107/107
f 103/103/103 107/107/107 108/108/108
f 109/109/109 107/107/107 106/106/106
f 108/108/108 107/107/107 109/109/109
f 108/108/108 109/109/109 110/110/110
f 109/109/109 106/106/106 111/111/111
f 109/109/109 112/112/112 110/110/110
f 111/111/111 113/113/113 109/109/109
f 109/109/109 113/113/113 112/112/112
f 111/111/111 114/114/114 113/113/113
f 113/113/113 114/114/114 115/115/115
f 112/112/112 113/113/113 116/116/116
f 113/113/113 115/115/115 116/116/116
f 112/112/112 116/116/116 117/117/117
f 116/116/116 118/118/118 117/117/117
f 115/115/115 119/119/119 116/116/116
f 116/116/116 119/119/119 118/118/118
f 115/115/115 120/120/120 119/119/119
f 119/119/119 120/120/120 121/121/121
f 118/118/118 119/119/119 122/122/122
f 119/119/119 121/121/121 122/122/122
f 118/118/118 122/122/122 123/123/123
f 124/124/124 122/122/122 121/121/121
f 123/123/123 122/122/122 124/124/124
f 123/123/123 124/124/124 125/125/125
f 124/124/124 121/121/121 126/126/126
f 124/124/124 127/127/127 125/125/125
f 126/126/126 128/128/128 124/124/124
f 124/124/124 128/128/128 127/127/127
f 126/126/126 129/129/129 128/128/128
f 128/128/128 129/129/129 130/130/130
f 127/127/127 128/128/128 131/131/131
f 128/128/128 130/130/130 131/131/131
f 127/127/127 131/131/131 132/132/132
f 131/131/131 133/133/133 132/132/132
f 130/130/130 134/134/134 131/131/131
f 131/131/131 134/134/134 133/133/133
f 130/130/130 135/135/135 134/134/134
f 134/134/134 135/135/135 136/136/136
f 133/133/133 134/134/134 137/137/137
f 134/134/134 136/136/136 137/137/137
f 133/133/133 137/137/137 138/138/138
f 139/139/139 137/137/137 136/136/136
f 138/138/138 137/137/137 139/139/139
f 138/138/138 139/139/139 140/140/140
f 139/139/139 136/136/136 141/141/141
f 139/139/139 142/142/142 140/140/140
f 141/141/141 143/143/143 139/139/139
f 139/139/139 143/143/143 142/142/142
f 141/141/141 144/144/144 143/143/143
f 143/143/143 144/144/144 145/145/145
f 142/142/142 143/143/143 146/146/146
f 143/143/143 145/145/145 146/146/146
f 142/142/142 146/146/146 147/147/147
f 148/148/148 146/146/146 145/145/145
f 147/147/147 146/146/146 148/148/148
f 147/147/147 148/148/148 149/149/149
f 148/148/148 145/145/145 150/150/150
f 148/148/148 151/151/151 149/149/149
f 150/150/150 152/152/152 148/148/148
f 148/148/148 152/152/152 151/151/151
f 150/150/150 153/153/153 152/152/152
f 152/152/152 153/153/153 154/154/154
f 151/151/151 152/152/152 155/155/155
f 152/152/152 154/154/154 155/155/155
f 151/151/151 155/155/155 156/156/156
f 157/157/157 155/155/155 154/154/154
f 156/156/156 155/155/155 157/157/157
f 156/156/156 157/157/157 158/158/158
f 157/157/157 154/154/154 159/159/159
f 157/157/157 160/160/160 158/158/158
f 159/159/159 161/161/161 157/157/157
f 157/157/157 161/161/161 160/160/160
f 159/159/159 162/162/162 161/161/161
f 161/161/161 162/162/162 163/163/163
f 160/160/160 161/161/161 164/164/164
f 161/161/161 163/163/163 164/164/164
f 160/160/160 164/164/164 165/165/165
f 164/164/164 166/166/166 165/165/165
f 163/163/163 167/167/167 164/164/164
f 164/164/164 167/167/167 166/166/166
f 163/163/163 168/168/168 167/167/167
f 167/167/167 168/168/168 169/169/169
f 166/166/166 167/167/167 170/170/170
f 167/167/167 169/169/169 170/170/170
f 166/166/166 170/170/170 171/171/171
f 172/172/172 170/170/170 169/169/169
f 171/171/171 170/170/170 172/172/172
f 171/171/171 172/172/172 173/173/173
f 172/172/172 169/169/169 174/174/174
f 172/172/172 175/175/175 173/173/173
f 174/174/174 176/176/176 172/172/172
f 172/172/172 176/176/176 175/175/175
f 174/174/174 177/177/177 176/176/176
f 176/176/176 177/177/177 178/178/178
f 175/175/175 176/176/176 179/179/179
f 176/176/176 178/178/178 179/179/179
f 175/175/175 179/179/179 180/180/180
f 181/181/181 179/179/179 178/178/178
f 180/180/180 179/179/179 181/181/181
f 180/180/180 181/181/181 182/182/182
f 181/181/181 178/178/178 183/183/183
f 181/181/181 184/184/184 182/182/182
f 183/183/183 185/185/185 181/181/181
f 181/181/181 185/185/185 184/184/184
f 183/183/183 186/186/186 185/185/185
f 185/185/185 186/186/186 187/187/187
f 184/184/184 185/185/185 188/188/188
f 185/185/185 187/187/187 188/188/188
f 184/184/184 188/188/188 189/189/189
f 190/190/190 188/188/188 187/187/187
f 189/189/189 188/188/188 190/190/190
f 189/189/189 190/190/190 191/191/191
f 190/190/190 187/187/187 192/192/192
f 190/190/190 193/193/193 191/191/191
f 192/192/192 194/194/194 190/190/190
f 190/190/190 194/194/194 193/193/193
f 192/192/192 195/195/195 194/194/194
f 194/194/194 195/195/195 196/196/196
f 193/193/193 194/194/194 197/197/197
f 194/194/194 196/196/196 197/197/197
f 193/193/193 197/197/197 198/198/198
f 197/197/197 199/199/199 198/198/198
f 196/196/196 200/200/200 197/197/197
f 197/197/197 200/200/200 199/199/199
f 196/196/196 201/201/201 200/200/200
f 200/200/200 201/201/201 202/202/202
f 199/199/199 200/200/200 203/203/203
f 200/200/200 202/202/202 203/203/203
f 199/199/199 203/203/203 204/204/204
f 205/205/205 203/203/203 202/202/202
f 204/204/204 203/203/203 205/205/205
f 204/204/204 205/205/205 206/206/206
f 205/205/205 202/202/202 207/207/207
f 205/205/205 208/208/208 206/206/206
f 207/207/207 209/209/209 205/205/205
f 205/205/205 209/209/209 208/208/208
f 207/207/207 210/210/210 209/209/209
f 209/209/209 210/210/210 211/211/211
f 208/208/208 209/209/209 212/212/212
f 209/209/209 211/211/211 212/212/212
f 208/208/208 212/212/212 213/213/213
f 214/214/214 212/212/212 211/211/211
f 213/213/213 212/212/212 214/214/214
f 213/213/213 214/214/214 215/215/215
f 214/214/214 211/211/211 216/216/216
f 214/214/214 217/217/217 215/215/215
f 216/216/216 218/218/218 214/214/214
f 214/214/214 218/218/218 217/217/217
f 216/216/216 219/219/219 218/218/218
f 218/218/218 219/219/219 220/220/220
f 217/217/217 218/218/218 221/221/221
f 218/218/218 220/220/220 221/221/221
f 217/217/217 221/221/221 222/222/222
f 223/223/223 221/221/221 220/220/220
f 222/222/222 221/221/221 223/223/223
f 222/222/222 223/223/223 224/224/224
f 223/223/223 220/220/220 225/225/225
f 223/223/223 226/226/226 224/224/224
f 225/225/225 227/227/227 223/223/223
f 223/223/223 227/227/227 226/226/226
f 225/225/225 228/228/228 227/227/227
f 227/227/227 228/228/228 229/229/229
f 226/226/226 227/227/227 230/230/230
f 227/227/227 229/229/229 230/230/230
f 226/226/226 230/230/230 231/231/231
f 230/230/230 232/232/232 231/231/231
f 229/229/229 233/233/233 230/230/230
f 230/230/230 233/233/233 232/232/232
f 229/229/229 234/234/234 233/233/233
f 233/233/233 234/234/234 235/235/235
f 232/232/232 233/233/233 236/236/236
f 233/233/233 235/235/235 236/236/236
f 232/232/232 236/236/236 237/237/237
f 238/238/238 236/236/236 235/235/235
f 237/237/237 236/236/236 238/238/238
f 237/237/237 238/238/238 239/239/239
f 238/238/238 235/235/235 240/240/240
f 238/238/238 241/241/241 239/239/239
f 240/240/240 242/242/242 238/238/238
f 238/238/238 242/242/242 241/241/241
f 240/240/240 243/243/243 242/242/242
f 242/242/242 243/243/243 244/244/244
f 241/241/241 242/242/242 245/245/245
f 242/242/242 244/244/244 245/245/245
f 241/241/241 245/245/245 246/246/246
f 245/245/245 247/247/247 246/246/246
f 244/244/244 248/248/248 245/245/245
f 245/245/245 248/248/248 247/247/247
f 244/244/244 249/249/249 248/248/248
f 248/248/248 249/249/249 250/250/250
f 247/247/247 248/248/248 251/251/251
f 248/248/248 250/250/250 251/251/251
f 247/247/247 251/251/251 252/252/252
f 253/253/253 251/251/251 250/250/250
f 252/252/252 251/251/251 253/253/253
f 252/252/252 253/253/253 254/254/254
f 253/253/253 250/250/250 255/255/255
f 253/253/253 256/256/256 254/254/254
f 255/255/255 257/257/257 253/253/253
f 253/253/253 257/257/257 256/256/256
f 255/255/255 258/258/258 257/257/257
f 257/257/257 258/258/258 259/259/259
f 257/257/257 259/259/259 260/260/260
f 256/256/256 257/257/257 260/260/260
f 256/256/256 260/260/260 261/261/261
f 262/262/262 263/263/263 264/264/264
f 262/262/262 264/264/264 265/265/265
f 266/266/266 265/265/265 264/264/264
f 267/267/267 264/264/264 263/263/263
f 267/267/267 268/268/268 264/264/264
f 269/269/269 264/264/264 268/268/268
f 267/267/267 263/263/263 270/270/270
f 271/271/271 270/270/270 263/263/263
f 271/271/271 272/272/272 270/270/270
f 267/267/267 270/270/270 273/273/273
f 274/274/274 270/270/270 272/272/272
f 275/275/275 273/273/273 270/270/270
f 274/274/274 275/275/275 270/270/270
f 275/275/275 276/276/276 273/273/273
f 275/275/275 277/277/277 276/276/276
f 274/274/274 278/278/278 275/275/275
f 275/275/275 278/278/278 277/277/277
f 274/274/274 279/279/279 278/278/278
f 280/280/280 277/277/277 278/278/278
f 281/281/281 278/278/278 279/279/279
f 280/280/280 278/278/278 282/282/282
f 281/281/281 282/282/282 278/278/278
f 280/280/280 282/282/282 283/283/283
f 281/281/281 283/283/283 282/282/282
f 280/280/280 283/283/283 284/284/284
f 281/281/281 285/285/285 283/283/283
f 286/286/286 284/284/284 283/283/283
f 287/287/287 283/283/283 285/285/285
f 286/286/286 283/283/283 288/288/288
f 287/287/287 288/288/288 283/283/283
f 286/286/286 288/288/288 289/289/289
f 287/287/287 289/289/289 288/288/288
f 286/286/286 289/289/289 290/290/290
f 287/287/287 291/291/291 289/289/289
f 292/292/292 290/290/290 289/289/289
f 293/293/293 289/289/289 291/291/291
f 292/292/292 289/289/289 294/294/294
f 293/293/293 294/294/294 289/289/289
f 292/292/292 294/294/294 295/295/295
f 293/293/293 295/295/295 294/294/294
f 292/292/292 295/295/295 296/296/296
f 293/293/293 297/297/297 295/295/295
f 298/298/298 296/296/296 295/295/295
f 299/299/299 295/295/295 297/297/297
f 298/298/298 295/295/295 300/300/300
f 299/299/299 300/300/300 295/295/295
f 298/298/298 300/300/300 301/301/301
f 299/299/299 301/301/301 300/300/300
f 298/298/298 301/301/301 302/302/302
f 299/299/299 303/303/303 301/301/301
f 304/304/304 302/302/302 301/301/301
f 305/305/305 301/301/301 303/303/303
f 304/304/304 301/301/301 306/306/306
f 305/305/305 306/306/306 301/301/301
f 304/304/304 306/306/306 307/307/307
f 305/305/305 307/307/307 306/306/306
f 304/304/304 307/307/307 308/308/308
f 305/305/305 309/309/309 307/307/307
f 310/310/310 308/308/308 307/307/307
f 311/311/311 307/307/307 309/309/309
f 310/310/310 307/307/307 312/312/312
f 311/311/311 312/312/312 307/307/307
f 310/310/310 312/312/312 313/313/313
f 311/311/311 313/313/313 312/312/312
f 310/310/310 313/313/313 314/314/314
f 311/311/311 315/315/315 313/313/313
f 316/316/316 314/314/314 313/313/313
f 317/317/317 313/313/313 315/315/315
f 316/316/316 313/313/313 318/318/318
f 317/317/317 318/318/318 313/313/313
f 316/316/316 318/318/318 319/319/319
f 317/317/317 319/319/319 318/318/318
f 316/316/316 319/319/319 320/320/320
f 317/317/317 321/321/321 319/319/319
f 322/322/322 320/320/320 319/319/319
f 323/323/323 319/319/319 321/321/321
f 322/322/322 319/319/319 324/324/324
f 323/323/323 324/324/324 319/319/319
f 322/322/322 324/324/324 325/325/325
f 323/323/323 325/325/325 324/324/324
f 322/322/322 325/325/325 326/326/326
f 323/323/323 327/327/327 325/325/325
f 328/328/328 326/326/326 325/325/325
f 329/329/329 325/325/325 327/327/327
f 328/328/328 325/325/325 330/330/330
f 329/329/329 330/330/330 325/325/325
f 328/328/328 330/330/330 331/331/331
f 329/329/329 331/331/331 330/330/330
f 328/328/328 331/331/331 332/332/332
f 329/329/329 333/333/333 331/331/331
f 334/334/334 332/332/332 331/331/331
f 335/335/335 331/331/331 333/333/333
f 334/334/334 331/331/331 336/336/336
f 335/335/335 336/336/336 331/331/331
f 334/334/334 336/336/336 337/337/337
f 335/335/335 337/337/337 336/336/336
f 334/334/334 337/337/337 338/338/338
f 335/335/335 339/339/339 337/337/337
f 340/340/340 338/338/338 337/337/337
f 341/341/341 337/337/337 339/339/339
f 340/340/340 337/337/337 342/342/342
f 341/341/341 342/342/342 337/337/337
f 340/340/340 342/342/342 343/343/343
f 341/341/341 343/343/343 342/342/342
f 340/340/340 343/343/343 344/344/344
f 341/341/341 345/345/345 343/343/343
f 346/346/346 344/344/344 343/343/343
f 347/347/347 343/343/343 345/345/345
f 346/346/346 343/343/343 348/348/348
f 347/347/347 348/348/348 343/343/343
f 346/346/346 348/348/348 349/349/349
f 347/347/347 349/349/349 348/348/348
f 346/346/346 349/349/349 350/350/350
f 347/347/347 351/351/351 349/349/349
f 352/352/352 350/350/350 349/349/349
f 353/353/353 349/349/349 351/351/351
f 352/352/352 349/349/349 354/354/354
f 353/353/353 354/354/354 349/349/349
f 352/352/352 354/354/354 355/355/355
f 353/353/353 355/355/355 354/354/354
f 352/352/352 355/355/355 356/356/356
f 353/353/353 357/357/357 355/355/355
f 358/358/358 356/356/356 355/355/355
f 359/359/359 355/355/355 357/357/357
f 358/358/358 355/355/355 360/360/360
f 359/359/359 360/360/360 355/355/355
f 358/358/358 360/360/360 361/361/361
f 359/359/359 361/361/361 360/360/360
f 358/358/358 361/361/361 362/362/362
f 359/359/359 363/363/363 361/361/361
f 364/364/364 362/362/362 361/361/361
f 365/365/365 361/361/361 363/363/363
f 364/364/364 361/361/361 366/366/366
f 365/365/365 366/366/366 361/361/361
f 269/269/269 367/367/367 264/264/264
f 269/269/269 368/368/368 367/367/367
f 266/266/266 264/264/264 367/367/367
f 266/266/266 367/367/367 368/368/368
f 269/269/269 369/369/369 368/368/368
f 266/266/266 368/368/368 370/370/370
f 371/371/371 368/368/368 369/369/369
f 372/372/372 370/370/370 368/368/368
f 371/371/371 373/373/373 368/368/368
f 372/372/372 368/368/368 373/373/373
f 371/371/371 374/374/374 373/373/373
f 372/372/372 373/373/373 374/374/374
f 371/371/371 375/375/375 374/374/374
f 372/372/372 374/374/374 376/376/376
f 377/377/377 374/374/374 375/375/375
f 378/378/378 376/376/376 374/374/374
f 377/377/377 379/379/379 374/374/374
f 378/378/378 374/374/374 379/379/379
f 377/377/377 380/380/380 379/379/379
f 378/378/378 379/379/379 380/380/380
f 377/377/377 381/381/381 380/380/380
f 378/378/378 380/380/380 382/382/382
f 383/383/383 380/380/380 381/381/381
f 384/384/384 382/382/382 380/380/380
f 383/383/383 385/385/385 380/380/380
f 384/384/384 380/380/380 385/385/385
f 383/383/383 386/386/386 385/385/385
f 384/384/384 385/385/385 386/386/386
f 383/383/383 387/387/387 386/386/386
f 384/384/384 386/386/386 388/388/388
f 389/389/389 386/386/386 387/387/387
f 390/390/390 388/388/388 386/386/386
f 389/389/389 391/391/391 386/386/386
f 390/390/390 386/386/386 391/391/391
f 389/389/389 392/392/392 391/391/391
f 390/390/390 391/391/391 392/392/392
f 389/389/389 393/393/393 392/392/392
f 390/390/390 392/392/392 394/394/394
f 395/395/395 392/392/392 393/393/393
f 396/396/396 394/394/394 392/392/392
f 395/395/395 397/397/397 392/392/392
f 396/396/396 392/392/392 397/397/397
f 395/395/395 398/398/398 397/397/397
f 396/396/396 397/397/397 398/398/398
f 395/395/395 399/399/399 398/398/398
f 396/396/396 398/398/398 400/400/400
f 401/401/401 398/398/398 399/399/399
f 402/402/402 400/400/400 398/398/398
f 401/401/401 403/403/403 398/398/398
f 402/402/402 398/398/398 403/403/403
f 401/401/401 404/404/404 403/403/403
f 402/402/402 403/403/403 404/404/404
f 401/401/401 405/405/405 404/404/404
f 402/402/402 404/404/404 406/406/406
f 407/407/407 404/404/404 405/405/405
f 408/408/408 406/406/406 404/404/404
f 407/407/407 409/409/409 404/404/404
f 408/408/408 404/404/404 409/409/409
f 407/407/407 410/410/410 409/409/409
f 408/408/408 409/409/409 410/410/410
f 407/407/407 411/411/411 410/410/410
f 408/408/408 410/410/410 412/412/412
f 413/413/413 410/410/410 411/411/411
f 414/414/414 412/412/412 410/410/410
f 413/413/413 415/415/415 410/410/410
f 414/414/414 410/410/410 415/415/415
f 413/413/413 416/416/416 415/415/415
f 414/414/414 415/415/415 416/416/416
f 413/413/413 417/417/417 416/416/416
f 414/414/414 416/416/416 418/418/418
f 419/419/419 416/416/416 417/417/417
f 420/420/420 418/418/418 416/416/416
f 419/419/419 421/421/421 416/416/416
f 420/420/420 416/416/416 421/421/421
f 419/419/419 422/422/422 421/421/421
f 420/420/420 421/421/421 422/422/422
f 419/419/419 423/423/423 422/422/422
f 420/420/420 422/422/422 424/424/424
f 425/425/425 422/422/422 423/423/423
f 426/426/426 424/424/424 422/422/422
f 425/425/425 427/427/427 422/422/422
f 426/426/426 422/422/422 427/427/427
f 425/425/425 428/428/428 427/427/427
f 426/426/426 427/427/427 428/428/428
f 425/425/425 429/429/429 428/428/428
f 426/426/426 428/428/428 430/430/430
f 431/431/431 428/428/428 429/429/429
f 432/432/432 430/430/430 428/428/428
f 431/431/431 433/433/433 428/428/428
f 432/432/432 428/428/428 433/433/433
f 431/431/431 434/434/434 433/433/433
f 432/432/432 433/433/433 434/434/434
f 431/431/431 435/435/435 434/434/434
f 432/432/432 434/434/434 436/436/436
f 437/437/437 434/434/434 435/435/435
f 438/438/438 436/436/436 434/434/434
f 437/437/437 439/439/439 434/434/434
f 438/438/438 434/434/434 439/439/439
f 437/437/437 440/440/440 439/439/439
f 438/438/438 439/439/439 440/440/440
f 437/437/437 441/441/441 440/440/440
f 438/438/438 440/440/440 442/442/442
f 443/443/443 440/440/440 441/441/441
f 444/444/444 442/442/442 440/440/440
f 443/443/443 444/444/444 440/440/440
f 444/444/444 445/445/445 442/442/442
f 444/444/444 446/446/446 445/445/445
f 443/443/443 447/447/447 444/444/444
f 444/444/444 447/447/447 446/446/446
f 443/443/443 448/448/448 447/447/447
f 449/449/449 446/446/446 447/447/447
f 450/450/450 447/447/447 448/448/448
f 449/449/449 447/447/447 451/451/451
f 450/450/450 451/451/451 447/447/447
f 449/449/449 451/451/451 452/452/452
f 450/450/450 452/452/452 451/451/451
f 449/449/449 452/452/452 453/453/453
f 450/450/450 454/454/454 452/452/452
f 455/455/455 453/453/453 452/452/452
f 456/456/456 452/452/452 454/454/454
f 455/455/455 452/452/452 457/457/457
f 456/456/456 457/457/457 452/452/452
