o line_03
v -0.62102145 1.44915366 0.670296371
v -0.661974251 1.27234793 0.745047808
v -0.610532403 1.28418112 0.812430322
v -0.57734108 1.46208215 0.734216928
v -0.537400961 1.63708305 0.660427868
v -0.57381171 1.62304187 0.600573301
v -0.710025489 1.26039505 0.675778627
v -0.607277632 1.60885096 0.539516449
v -0.661521137 1.43608797 0.604844451
v -0.695659161 1.42274749 0.536329448
v -0.751295686 1.24820304 0.602736115
v -0.634853959 1.59436011 0.476055205
v -0.785529494 1.23567605 0.52660203
v -0.65640676 1.57949519 0.410773098
v -0.723243773 1.40904725 0.46538654
v -0.744083166 1.39490223 0.392650664
v -0.812471807 1.222718 0.448058337
v -0.671802044 1.56418204 0.344253868
v -0.832002759 1.20924234 0.367817163
v -0.681019962 1.54835629 0.277090371
v -0.758110523 1.3802371 0.31877616
v -0.765259147 1.36497641 0.24441731
v -0.844002604 1.19516277 0.286590874
v -0.684040666 1.53195333 0.209875464
v -0.848488927 1.18040514 0.205096126
v -0.680956244 1.51492059 0.1431894
v -0.765587449 1.3490572 0.170223773
v -0.759153724 1.33241618 0.096844852
v -0.84547925 1.16489565 0.124049664
v -0.671858907 1.4972055 0.0776123703
v -0.835125387 1.14857495 0.0441464186
v -0.656947613 1.47876894 0.0136914849
v -0.746136546 1.31500459 0.0249021649
v -0.726714492 1.29677379 -0.0449829102
v -0.817579031 1.13138402 -0.0339183211
v -0.636420608 1.45957196 -0.0480264425
v -0.793118 1.11328042 -0.109495878
v -0.610573351 1.4395901 -0.107046932
v -0.701177955 1.27769053 -0.112238854
v -0.669816673 1.25772178 -0.176294476
v -0.762020171 1.09422183 -0.181937367
v -0.579700887 1.41879869 -0.162875593
v -0.724677265 1.0741837 -0.250662625
v -0.54418236 1.39718866 -0.215087324
v -0.633019686 1.23685122 -0.236647904
v -0.591175377 1.21506238 -0.292797416
v -0.681480944 1.05314183 -0.315091759
v -0.504396617 1.37475073 -0.26325655
v -0.632920086 1.03109026 -0.374732763
v -0.460790813 1.35149086 -0.307041526
v -0.544755399 1.19235551 -0.344327748
v -0.494230628 1.16873145 -0.390823543
v -0.579484046 1.00802279 -0.429094255
v -0.413811982 1.32741487 -0.346100152
v -0.521739781 0.983952045 -0.477788985
v -0.363957226 1.30254316 -0.380183816
v -0.440136075 1.14420676 -0.431969047
v -0.383006752 1.11879861 -0.467448562
v -0.460254371 0.958890438 -0.520429611
v -0.311723709 1.27689648 -0.409044027
v -0.395650744 0.932868004 -0.556745291
v -0.257639468 1.25050879 -0.432532907
v -0.323420465 1.09253955 -0.497055292
v -0.261955023 1.06546187 -0.520582318
v -0.328551948 0.905914545 -0.586465359
v -0.202232689 1.22341394 -0.450502485
v -0.259613276 0.878076315 -0.609442651
v -0.146042138 1.19565797 -0.462908
v -0.199209332 1.0376122 -0.537937045
v -0.135782361 1.00903702 -0.549026668
v -0.18949008 0.849399328 -0.625530303
v -0.0896067917 1.16728687 -0.469705015
v -0.118845701 0.819943845 -0.634708107
v -0.0334564745 1.13835645 -0.470951408
v -0.0722719133 0.979794919 -0.553873301
v -0.00927582383 0.949944377 -0.552499413
v -0.0483437181 0.789770067 -0.636955917
v 0.0218788981 1.10892296 -0.466705322
v 0.0213688016 0.758949935 -0.632378399
v 0.0758975446 1.07904971 -0.457122654
v 0.0526309013 0.919553578 -0.545038581
v 0.112873152 0.888690829 -0.531624794
v 0.0896443427 0.727555335 -0.621080458
v 0.128097728 1.04880047 -0.442359328
v 0.155874953 0.695667028 -0.603285491
v 0.178023502 1.01824403 -0.422661096
v 0.170919016 0.857431173 -0.512496054
v 0.226236761 0.825849771 -0.487890512
v 0.219452441 0.663365841 -0.579216778
v 0.225218907 0.987449229 -0.398273617
v 0.279829174 0.630738199 -0.549206078
v 0.269289315 0.956487358 -0.36952132
v 0.278355777 0.794025779 -0.45813942
v 0.3268058 0.76203841 -0.423574269
v 0.336457193 0.597870648 -0.513584673
v 0.309839934 0.925429761 -0.336728454
v 0.388692558 0.564884365 -0.472609609
v 0.346360266 0.894333184 -0.300176144
v 0.371006817 0.72998029 -0.384464622
v 0.410378277 0.697943628 -0.341079772
v 0.435890794 0.5319013 -0.426537484
v 0.378339708 0.863254309 -0.260145545
v 0.476866305 0.499206722 -0.375457883
v 0.404956996 0.832290471 -0.21696952
v 0.443913668 0.666117609 -0.293652683
v 0.470606059 0.634691298 -0.242416173
v 0.510433018 0.467087209 -0.319460005
v 0.42539078 0.801539004 -0.170981079
v 0.536719024 0.435601413 -0.259951413
v 0.439902663 0.771145165 -0.123147815
v 0.490664661 0.603767335 -0.188553035
v 0.504299104 0.573448479 -0.133246362
v 0.555852413 0.404809058 -0.198339641
v 0.448754072 0.741254032 -0.0744372904
v 0.56768626 0.374845684 -0.13546887
v 0.451939791 0.711954534 -0.0254980028
v 0.511440158 0.543846428 -0.0772446692
v 0.512018561 0.515072763 -0.0212966204
v 0.572074175 0.345846832 -0.07218346
v 0.449454278 0.683335483 0.0230214894
v 0.569102407 0.317928493 -0.00937181711
v 0.441466004 0.655472457 0.0704778433
v 0.50616926 0.487222612 0.033832401
v 0.494027227 0.46039027 0.0873769224
v 0.558857441 0.291205823 0.0520778596
v 0.428143233 0.628441036 0.116227567
v 0.541671813 0.26576364 0.111308783
v 0.409823149 0.602296054 0.159685835
v 0.475934625 0.434644878 0.138619304
v 0.452233523 0.410054624 0.18684189
v 0.517878294 0.241686225 0.167464077
v 0.386842966 0.57709223 0.200267896
v 0.48804152 0.219017625 0.219797552
v 0.359685153 0.552858531 0.237497374
v 0.423453212 0.386654794 0.231439158
v 0.390122771 0.364480197 0.271805286
v 0.452725857 0.197801471 0.267562687
v 0.328832507 0.529623687 0.270897925
v 0.412685484 0.178036571 0.310196161
v 0.294874132 0.507387578 0.300142288
v 0.352917224 0.343529165 0.307502449
v 0.312511325 0.323799551 0.338092715
v 0.368674517 0.159720778 0.34713465
v 0.258399278 0.486149967 0.324903309
v 0.321569949 0.142806888 0.378053188
v 0.220053047 0.465882242 0.345028818
v 0.269666195 0.305252492 0.363345325
v 0.225143164 0.28784889 0.38302961
v 0.272248745 0.127247453 0.402626902
v 0.180480361 0.446555793 0.360366642
v 0.221626937 0.112953067 0.420799077
v 0.140325278 0.428116739 0.370947689
v 0.179719567 0.271516681 0.397139758
v 0.134173006 0.256183982 0.405670047
v 0.170620769 0.0998352766 0.432513237
v 0.100231916 0.410511076 0.376802951
v 0.120095998 0.0877722502 0.437979609
v 0.0607872009 0.393665373 0.378135443
v 0.0892249942 0.241753459 0.408832312
v 0.0455971658 0.228127122 0.406838477
v 0.0709182918 0.0766428709 0.437408388
v 0.02257815 0.377506316 0.375148177
v 0.0238195658 0.066305995 0.431243479
v -0.013913691 0.361948192 0.36818701
v 0.00389036536 0.215192437 0.400086105
v -0.0352945477 0.202836156 0.388972759
v -0.0204682052 0.0566204786 0.41992861
v -0.0482068509 0.346905887 0.357597709
v -0.0614113361 0.0474401712 0.404080093
v -0.0799601227 0.332290351 0.343825758
v -0.0715260655 0.190941215 0.374029487
v -0.104372434 0.17939055 0.355787307
v -0.0984761417 0.0386186838 0.384314179
v -0.108832337 0.318012416 0.327316523
v -0.131363541 0.0300177336 0.361340642
v -0.134639248 0.30398792 0.30856356
v -0.133596957 0.168073654 0.334846199
v -0.158962756 0.156880021 0.311805904
v -0.159774452 0.0215004683 0.335869431
v -0.15719679 0.290131986 0.288060397
v -0.183648109 0.0129491091 0.308619559
v -0.176475078 0.276371658 0.266296625
v -0.18042779 0.145715237 0.287267596
v -0.197950065 0.134484887 0.261832476
v -0.202923924 0.00424683094 0.280310214
v -0.192444369 0.262633801 0.243761793
v -0.217752337 -0.00469481945 0.251594037
v -0.205208868 0.248861313 0.220896274
v -0.211658314 0.123116851 0.236043483
v -0.221681312 0.111539245 0.210443571
v -0.228283793 -0.0139635801 0.223123744
v -0.214872852 0.234996915 0.198140427
v -0.236666828 -0.0233961344 0.194776416
v -0.222986564 0.22108686 0.175439447
v -0.229861677 0.0998564959 0.184938192
v -0.628222942 1.45077288 0.661371827
v -0.428057075 1.37979841 0.511951268
v -0.397942007 1.39375758 0.555618048
v -0.585398793 1.46370876 0.725984514
v -0.814292192 1.53893685 0.913800716
v -0.870550513 1.5274657 0.823851526
v -0.456001312 1.36574137 0.467279643
v -0.922352672 1.51578546 0.731915236
v -0.667837918 1.43769252 0.595270753
v -0.701034546 1.42432296 0.526192904
v -0.479603767 1.35148823 0.420598328
v -0.965242565 1.50368702 0.636004865
v -0.498748243 1.33698213 0.372344226
v -0.998971581 1.49105382 0.537002087
v -0.727629602 1.41057968 0.454777837
v -0.747439802 1.39637768 0.38166526
v -0.513318062 1.32216597 0.32295379
v -1.02329159 1.47776949 0.43578881
v -0.523283362 1.30698979 0.272872835
v -1.03812647 1.46373093 0.333272099
v -0.760408163 1.38164234 0.307512462
v -0.766477227 1.36629879 0.232976675
v -0.528614104 1.29140377 0.222547203
v -1.04340029 1.44883561 0.230358779
v -0.52936542 1.27536678 0.172414958
v -1.03921008 1.43299747 0.127948344
v -0.765714765 1.35028493 0.158708572
v -0.758189201 1.33353817 0.0853588581
v -0.525592268 1.25883794 0.122914225
v -1.02565217 1.41613054 0.0269398689
v -0.517431021 1.241786 0.074459672
v -1.00298977 1.39816916 -0.0718075037
v -0.744088888 1.31601083 0.0135481358
v -0.723602176 1.29765522 -0.0561026931
v -0.505017638 1.2241801 0.0274659991
v -0.971485674 1.37904716 -0.167434454
v -0.488562107 1.20600021 -0.0176903605
v -0.931557059 1.3587203 -0.259151995
v -0.697028697 1.27843916 -0.12302494
v -0.664668024 1.25833106 -0.18664971
v -0.468274057 1.1872263 -0.0606328845
v -0.883620799 1.33714473 -0.346171141
v -0.44442752 1.16784978 -0.101036042
v -0.828230381 1.31429935 -0.427800685
v -0.62691766 1.23731554 -0.246479571
v -0.58417505 1.21537757 -0.302017152
v -0.41729638 1.14786208 -0.138574377
v -0.765939534 1.29016316 -0.503348887
v -0.387206763 1.12726581 -0.17298393
v -0.697415888 1.2647388 -0.57224524
v -0.536919296 1.19251895 -0.352852881
v -0.485629261 1.16874146 -0.398577392
v -0.354484767 1.10606396 -0.204000786
v -0.623327196 1.23802876 -0.633918762
v -0.319495142 1.08427024 -0.231430709
v -0.544429719 1.21005845 -0.687938154
v -0.430846691 1.14406335 -0.438882142
v -0.373112738 1.11850309 -0.473458797
v -0.282602757 1.06189847 -0.255079448
v -0.461479723 1.18085361 -0.733872116
v -0.244196504 1.03897238 -0.274827659
v -0.375292718 1.1504612 -0.77144134
v -0.313010454 1.09209442 -0.502108812
v -0.251122713 1.06487131 -0.524633706
v -0.204665452 1.0155164 -0.290555984
v -0.286684752 1.11892891 -0.800367117
v -0.164407402 0.991563082 -0.302222103
v -0.196500719 1.08632302 -0.820530057
v -0.18805182 1.03688145 -0.540949941
v -0.12440002 1.00817251 -0.550973952
v -0.123820543 0.967145503 -0.309784055
v -0.105585515 1.05271077 -0.83181119
v -0.0832967162 0.942304254 -0.313275963
v -0.0147826076 1.01817584 -0.834252656
v -0.0607666671 0.978804588 -0.554737687
v 0.00224870443 0.948837101 -0.552273035
v -0.0432281792 0.917079628 -0.312732369
v 0.0750648975 0.982801974 -0.827896833
v -0.00398643315 0.891518056 -0.3082605
v 0.16314584 0.946686447 -0.812943101
v 0.0640715361 0.918339252 -0.543723464
v 0.124126971 0.887380362 -0.52923274
v 0.0340567231 0.865665793 -0.299967855
v 0.248648897 0.909926593 -0.789590776
v 0.0705632269 0.839572966 -0.288028657
v 0.33082366 0.872629344 -0.75818634
v 0.181885302 0.856036305 -0.509048581
v 0.236816794 0.82438302 -0.483418584
v 0.105194896 0.813289821 -0.272617191
v 0.408919811 0.834902108 -0.719076276
v 0.137658745 0.786868453 -0.253966033
v 0.482273459 0.796857655 -0.672739148
v 0.28845489 0.792500377 -0.45268321
v 0.336333007 0.760468066 -0.417182803
v 0.167661786 0.760360897 -0.232308
v 0.550221026 0.758608937 -0.619653463
v 0.194877028 0.733827412 -0.207856029
v 0.611716747 0.720302045 -0.560109973
v 0.379832238 0.728383899 -0.377177536
v 0.418333441 0.696345508 -0.332927376
v 0.218977779 0.7073282 -0.180823386
v 0.665714681 0.682082951 -0.494398892
v 0.239403799 0.681001961 -0.151374921
v 0.710935593 0.644201815 -0.423160523
v 0.450886041 0.664541304 -0.284750223
v 0.47653991 0.633159816 -0.232964188
v 0.255594969 0.654987633 -0.119675577
v 0.746100247 0.606908143 -0.347034991
v 0.267672002 0.62934202 -0.0864300281
v 0.771542788 0.570347667 -0.267646611
v 0.495516121 0.6023013 -0.178722024
v 0.508035958 0.572066009 -0.123176664
v 0.275755644 0.604121864 -0.0523428917
v 0.787597775 0.534666002 -0.186619997
v 0.279824883 0.579400718 -0.0178675503
v 0.794212103 0.50001353 -0.105064094
v 0.514050543 0.542564094 -0.0670804679
v 0.513510823 0.513905704 -0.0111859441
v 0.279858649 0.555252135 0.0165426582
v 0.791333556 0.466541231 -0.0240877867
v 0.275954902 0.531739056 0.0504332483
v 0.779217541 0.434371889 0.0551905632
v 0.50657326 0.486183107 0.0437449217
v 0.493394077 0.459488928 0.0969501436
v 0.268211305 0.508924186 0.0833497643
v 0.758119762 0.403628886 0.13165313
v 0.256842732 0.486854732 0.114872754
v 0.728602707 0.374395072 0.204271346
v 0.474335074 0.433888495 0.14772296
v 0.449757755 0.409447253 0.195356891
v 0.242063999 0.465577066 0.144582659
v 0.691228449 0.346753418 0.272017032
v 0.224192798 0.445117533 0.172129452
v 0.646828115 0.320737302 0.33404699
v 0.420206249 0.386197031 0.239263728
v 0.386224419 0.364169538 0.278855264
v 0.203546882 0.425502002 0.197163075
v 0.596232772 0.296380222 0.389517725
v 0.180521756 0.406734049 0.219431534
v 0.540474355 0.273662984 0.437850058
v 0.348494679 0.343360126 0.313714951
v 0.307699591 0.32376343 0.343426347
v 0.15551284 0.388817132 0.238682836
v 0.480584681 0.252566218 0.478465021
v 0.128959715 0.37173146 0.254782677
v 0.417703092 0.233019233 0.511100352
v 0.264600098 0.305338323 0.367781401
v 0.219957024 0.288043082 0.386571884
v 0.101301938 0.355457485 0.267596573
v 0.352969289 0.214951396 0.53549397
v 0.0729846358 0.339954793 0.277114749
v 0.287524521 0.19824779 0.551719844
v 0.174539924 0.271804452 0.399812639
v 0.129118413 0.256549001 0.407518208
v 0.0444529951 0.32518369 0.28332749
v 0.222509801 0.18279326 0.559851646
v 0.0161194056 0.311086833 0.286343694
v 0.158961415 0.168441415 0.560280681
v 0.0844000876 0.242179036 0.409916043
v 0.0410924256 0.22859633 0.407233417
v -0.011603862 0.297607839 0.286272317
v 0.09791556 0.155045509 0.553398311
v -0.0383705348 0.284678876 0.283322573
v 0.0402103961 0.142440915 0.539859474
v -0.000220954418 0.215688825 0.399877131
v -0.038956672 0.203344345 0.388253719
v -0.0638345703 0.272232413 0.277703762
v -0.0133156776 0.130464435 0.520319045
v -0.0877404585 0.26019609 0.2696971
v -0.0620896518 0.118950963 0.495613158
v -0.0747009367 0.1914469 0.372896314
v -0.107040107 0.179881215 0.35433799
v -0.109832712 0.248497486 0.259583741
v -0.105538011 0.107735753 0.466577947
v -0.12995863 0.23706615 0.247683078
v -0.143384635 0.0966690779 0.434131771
v -0.135753214 0.168538451 0.333174497
v -0.160619259 0.157310128 0.310001582
v -0.147965536 0.225831151 0.234314471
v -0.175353289 0.0856004953 0.399193108
v -0.163802817 0.214729428 0.219800949
v -0.201458529 0.0744076967 0.362661988
v -0.181608096 0.146104217 0.285411745
v -0.198689565 0.134828091 0.259997606
v -0.177419782 0.203697562 0.204465538
v -0.221715197 0.0629674196 0.32543838
v -0.188855216 0.192682624 0.188604981
v -0.236387834 0.0511909723 0.288316488
v -0.211999401 0.123411536 0.234291047
v -0.221673459 0.111784339 0.208824128
v -0.198147967 0.181632876 0.172516137
v -0.24574101 0.0389910936 0.252090484
v -0.2063694 0.170565486 0.156313166
v -0.252434492 0.02657938 0.216312438
v -0.229529634 0.100051761 0.183477014
vt 0.015625 0.49999997
vt 0.0156250298 0.000197350979
vt 2.98023224e-08 0.000197350979
vt 0 0.5
vt 0 0.999802589
vt 0.015625 0.999802589
vt 0.0312500298 0.000197350979
vt 0.03125 0.999802589
vt 0.03125 0.49999997
vt 0.046875 0.49999997
vt 0.0468750298 0.000197350979
vt 0.046875 0.999802589
vt 0.0625000298 0.000197350979
vt 0.0625 0.999802589
vt 0.0625 0.49999997
vt 0.078125 0.49999997
vt 0.0781250298 0.000197350979
vt 0.078125 0.999802589
vt 0.0937500298 0.000197350979
vt 0.09375 0.999802589
vt 0.09375 0.49999997
vt 0.109375 0.49999997
vt 0.10937503 0.000197350979
vt 0.109375 0.999802589
vt 0.12500003 0.000197350979
vt 0.125 0.999802589
vt 0.125 0.49999997
vt 0.140625 0.49999997
vt 0.14062503 0.000197350979
vt 0.140625 0.999802589
vt 0.15625003 0.000197350979
vt 0.15625 0.999802589
vt 0.15625 0.49999997
vt 0.171875 0.5
vt 0.17187503 0.000197410583
vt 0.171875 0.999802589
vt 0.18750003 0.000197410583
vt 0.1875 0.999802589
vt 0.1875 0.5
vt 0.203125 0.5
vt 0.20312503 0.000197410583
vt 0.203125 0.999802589
vt 0.21875003 0.000197410583
vt 0.21875 0.999802589
vt 0.21875 0.5
vt 0.234375 0.5
vt 0.23437503 0.000197410583
vt 0.234375 0.999802589
vt 0.25 0.000197410583
vt 0.25 0.999802589
vt 0.25 0.5
vt 0.265625 0.5
vt 0.265625 0.000197410583
vt 0.265625 0.999802589
vt 0.28125 0.000197410583
vt 0.28125 0.999802589
vt 0.28125 0.5
vt 0.296875 0.5
vt 0.296875 0.000197410583
vt 0.296875 0.999802589
vt 0.3125 0.000197410583
vt 0.3125 0.999802589
vt 0.3125 0.5
vt 0.328125 0.5
vt 0.328125 0.000197410583
vt 0.328125 0.999802589
vt 0.34375 0.000197410583
vt 0.34375 0.999802589
vt 0.34375 0.5
vt 0.359375 0.5
vt 0.359375 0.000197410583
vt 0.359375 0.999802589
vt 0.37500003 0.000197410583
vt 0.375 0.999802589
vt 0.375 0.5
vt 0.390625 0.5
vt 0.39062503 0.000197410583
vt 0.39062497 0.999802589
vt 0.40625003 0.000197410583
vt 0.40624997 0.999802589
vt 0.40625 0.5
vt 0.421875 0.5
vt 0.42187503 0.000197410583
vt 0.42187497 0.999802589
vt 0.43750003 0.000197410583
vt 0.43749997 0.999802589
vt 0.4375 0.5
vt 0.453125 0.5
vt 0.45312503 0.000197410583
vt 0.45312497 0.999802589
vt 0.46875003 0.000197410583
vt 0.46874997 0.999802589
vt 0.46875 0.5
vt 0.484375 0.5
vt 0.48437503 0.000197410583
vt 0.48437497 0.999802589
vt 0.5 0.000197380781
vt 0.49999997 0.999802589
vt 0.5 0.5
vt 0.515625 0.5
vt 0.515625 0.000197380781
vt 0.515625 0.999802589
vt 0.53125 0.000197380781
vt 0.53125 0.999802589
vt 0.53125 0.5
vt 0.546875 0.5
vt 0.546875 0.000197380781
vt 0.546875 0.999802589
vt 0.5625 0.000197380781
vt 0.5625 0.999802589
vt 0.5625 0.5
vt 0.578125 0.5
vt 0.578125 0.000197380781
vt 0.578125 0.999802589
vt 0.59375 0.000197380781
vt 0.59375 0.999802589
vt 0.59375 0.5
vt 0.609375 0.5
vt 0.609375 0.000197380781
vt 0.609375 0.999802589
vt 0.625 0.000197380781
vt 0.625 0.999802589
vt 0.625 0.5
vt 0.640625 0.5
vt 0.640625 0.000197380781
vt 0.640625 0.999802589
vt 0.65625 0.000197380781
vt 0.65625 0.999802589
vt 0.65625 0.5
vt 0.671875 0.5
vt 0.671875 0.000197380781
vt 0.671875 0.999802589
vt 0.6875 0.000197380781
vt 0.6875 0.999802589
vt 0.6875 0.5
vt 0.703125 0.5
vt 0.703125 0.000197380781
vt 0.703125 0.999802589
vt 0.71875 0.000197380781
vt 0.71875 0.999802589
vt 0.71875 0.5
vt 0.734375 0.5
vt 0.734375 0.000197380781
vt 0.734375 0.999802589
vt 0.75 0.000197380781
vt 0.75 0.999802589
vt 0.75 0.5
vt 0.765625 0.5
vt 0.765625 0.000197380781
vt 0.765625 0.999802589
vt 0.78125 0.000197380781
vt 0.78125 0.999802589
vt 0.78125 0.5
vt 0.796875 0.5
vt 0.796875 0.000197380781
vt 0.796875 0.999802589
vt 0.8125 0.000197380781
vt 0.8125 0.999802589
vt 0.8125 0.5
vt 0.828125 0.5
vt 0.828125 0.000197380781
vt 0.828125 0.999802589
vt 0.84375 0.000197410583
vt 0.84375 0.999802589
vt 0.84375 0.5
vt 0.859375 0.5
vt 0.859375 0.000197410583
vt 0.859375 0.999802589
vt 0.875 0.000197410583
vt 0.875 0.999802589
vt 0.875 0.5
vt 0.890625 0.5
vt 0.890625 0.000197410583
vt 0.890625 0.999802589
vt 0.90625 0.000197410583
vt 0.90625 0.999802589
vt 0.90625 0.5
vt 0.921875 0.5
vt 0.921875 0.000197410583
vt 0.921875 0.999802589
vt 0.9375 0.000197410583
vt 0.9375 0.999802589
vt 0.9375 0.5
vt 0.953125 0.5
vt 0.953125 0.000197410583
vt 0.953125 0.999802589
vt 0.96875 0.000197410583
vt 0.96875 0.999802589
vt 0.96875 0.5
vt 0.984375 0.5
vt 0.984375 0.000197410583
vt 0.984375 0.999802589
vt 1 0.000197410583
vt 1 0.999802589
vt 1 0.5
vt 0.015625 0.49999997
vt 0.0156250298 0.000197350979
vt 2.98023224e-08 0.000197350979
vt 0 0.5
vt 0 0.999802589
vt 0.015625 0.999802589
vt 0.0312500298 0.000197350979
vt 0.03125 0.999802589
vt 0.03125 0.49999997
vt 0.046875 0.49999997
vt 0.0468750298 0.000197350979
vt 0.046875 0.999802589
vt 0.0625000298 0.000197350979
vt 0.0625 0.999802589
vt 0.0625 0.49999997
vt 0.078125 0.49999997
vt 0.0781250298 0.000197350979
vt 0.078125 0.999802589
vt 0.0937500298 0.000197350979
vt 0.09375 0.999802589
vt 0.09375 0.49999997
vt 0.109375 0.49999997
vt 0.10937503 0.000197350979
vt 0.109375 0.999802589
vt 0.12500003 0.000197350979
vt 0.125 0.999802589
vt 0.125 0.49999997
vt 0.140625 0.49999997
vt 0.14062503 0.000197350979
vt 0.140625 0.999802589
vt 0.15625003 0.000197350979
vt 0.15625 0.999802589
vt 0.15625 0.49999997
vt 0.171875 0.5
vt 0.17187503 0.000197410583
vt 0.171875 0.999802589
vt 0.18750003 0.000197410583
vt 0.1875 0.999802589
vt 0.1875 0.5
vt 0.203125 0.5
vt 0.20312503 0.000197410583
vt 0.203125 0.999802589
vt 0.21875003 0.000197410583
vt 0.21875 0.999802589
vt 0.21875 0.5
vt 0.234375 0.5
vt 0.23437503 0.000197410583
vt 0.234375 0.999802589
vt 0.25 0.000197410583
vt 0.25 0.999802589
vt 0.25 0.5
vt 0.265625 0.5
vt 0.265625 0.000197410583
vt 0.265625 0.999802589
vt 0.28125 0.000197410583
vt 0.28125 0.999802589
vt 0.28125 0.5
vt 0.296875 0.5
vt 0.296875 0.000197410583
vt 0.296875 0.999802589
vt 0.3125 0.000197410583
vt 0.3125 0.999802589
vt 0.3125 0.5
vt 0.328125 0.5
vt 0.328125 0.000197410583
vt 0.328125 0.999802589
vt 0.34375 0.000197410583
vt 0.34375 0.999802589
vt 0.34375 0.5
vt 0.359375 0.5
vt 0.359375 0.000197410583
vt 0.359375 0.999802589
vt 0.37500003 0.000197410583
vt 0.375 0.999802589
vt 0.375 0.5
vt 0.390625 0.5
vt 0.39062503 0.000197410583
vt 0.39062497 0.999802589
vt 0.40625003 0.000197410583
vt 0.40624997 0.999802589
vt 0.40625 0.5
vt 0.421875 0.5
vt 0.42187503 0.000197410583
vt 0.42187497 0.999802589
vt 0.43750003 0.000197410583
vt 0.43749997 0.999802589
vt 0.4375 0.5
vt 0.453125 0.5
vt 0.45312503 0.000197410583
vt 0.45312497 0.999802589
vt 0.46875003 0.000197410583
vt 0.46874997 0.999802589
vt 0.46875 0.5
vt 0.484375 0.5
vt 0.48437503 0.000197410583
vt 0.48437497 0.999802589
vt 0.5 0.000197380781
vt 0.49999997 0.999802589
vt 0.5 0.5
vt 0.515625 0.5
vt 0.515625 0.000197380781
vt 0.515625 0.999802589
vt 0.53125 0.000197380781
vt 0.53125 0.999802589
vt 0.53125 0.5
vt 0.546875 0.5
vt 0.546875 0.000197380781
vt 0.546875 0.999802589
vt 0.5625 0.000197380781
vt 0.5625 0.999802589
vt 0.5625 0.5
vt 0.578125 0.5
vt 0.578125 0.000197380781
vt 0.578125 0.999802589
vt 0.59375 0.000197380781
vt 0.59375 0.999802589
vt 0.59375 0.5
vt 0.609375 0.5
vt 0.609375 0.000197380781
vt 0.609375 0.999802589
vt 0.625 0.000197380781
vt 0.625 0.999802589
vt 0.625 0.5
vt 0.640625 0.5
vt 0.640625 0.000197380781
vt 0.640625 0.999802589
vt 0.65625 0.000197380781
vt 0.65625 0.999802589
vt 0.65625 0.5
vt 0.671875 0.5
vt 0.671875 0.000197380781
vt 0.671875 0.999802589
vt 0.6875 0.000197380781
vt 0.6875 0.999802589
vt 0.6875 0.5
vt 0.703125 0.5
vt 0.703125 0.000197380781
vt 0.703125 0.999802589
vt 0.71875 0.000197380781
vt 0.71875 0.999802589
vt 0.71875 0.5
vt 0.734375 0.5
vt 0.734375 0.000197380781
vt 0.734375 0.999802589
vt 0.75 0.000197380781
vt 0.75 0.999802589
vt 0.75 0.5
vt 0.765625 0.5
vt 0.765625 0.000197380781
vt 0.765625 0.999802589
vt 0.78125 0.000197380781
vt 0.78125 0.999802589
vt 0.78125 0.5
vt 0.796875 0.5
vt 0.796875 0.000197380781
vt 0.796875 0.999802589
vt 0.8125 0.000197380781
vt 0.8125 0.999802589
vt 0.8125 0.5
vt 0.828125 0.5
vt 0.828125 0.000197380781
vt 0.828125 0.999802589
vt 0.84375 0.000197410583
vt 0.84375 0.999802589
vt 0.84375 0.5
vt 0.859375 0.5
vt 0.859375 0.000197410583
vt 0.859375 0.999802589
vt 0.875 0.000197410583
vt 0.875 0.999802589
vt 0.875 0.5
vt 0.890625 0.5
vt 0.890625 0.000197410583
vt 0.890625 0.999802589
vt 0.90625 0.000197410583
vt 0.90625 0.999802589
vt 0.90625 0.5
vt 0.921875 0.5
vt 0.921875 0.000197410583
vt 0.921875 0.999802589
vt 0.9375 0.000197410583
vt 0.9375 0.999802589
vt 0.9375 0.5
vt 0.953125 0.5
vt 0.953125 0.000197410583
vt 0.953125 0.999802589
vt 0.96875 0.000197410583
vt 0.96875 0.999802589
vt 0.96875 0.5
vt 0.984375 0.5
vt 0.984375 0.000197410583
vt 0.984375 0.999802589
vt 1 0.000197410583
vt 1 0.999802589
vt 1 0.5
vn -0.616898477 0.745059669 0.253618479
vn -0.592086256 0.747064352 0.302206367
vn -0.589136064 0.738541842 0.327833265
vn -0.616620183 0.73539108 0.28103289
vn -0.640876472 0.733948171 0.22493875
vn -0.640095472 0.74238646 0.197838351
vn -0.600115001 0.760137081 0.249105796
vn -0.640146613 0.755105913 0.141518131
vn -0.621401548 0.757850468 0.198803544
vn -0.629797041 0.765421391 0.132233962
vn -0.613292217 0.768005967 0.184498236
vn -0.643117964 0.76226151 0.0731891394
vn -0.620190501 0.775397539 0.11883799
vn -0.639468908 0.768802047 0.00478410628
vn -0.63173759 0.772446513 0.0650682598
vn -0.627201498 0.77885437 -0.00206820969
vn -0.62075001 0.782233238 0.0527309142
vn -0.629233778 0.774653614 -0.0630599037
vn -0.614949167 0.788456082 -0.0132136131
vn -0.612487495 0.779766262 -0.129706129
vn -0.616218507 0.784585834 -0.0685559139
vn -0.598887563 0.789581001 -0.13377434
vn -0.602845609 0.793997884 -0.078387022
vn -0.589386702 0.784078717 -0.194535315
vn -0.584535062 0.798812807 -0.142185807
vn -0.560127437 0.787554562 -0.256933957
vn -0.575357378 0.793793142 -0.1971201
vn -0.545843422 0.797176898 -0.258000076
vn -0.560190558 0.802845955 -0.204021841
vn -0.524982572 0.790148258 -0.316321075
vn -0.530020714 0.806065381 -0.263318628
vn -0.484262288 0.791839004 -0.372130275
vn -0.510606945 0.799700439 -0.315847784
vn -0.469973624 0.801333308 -0.3701213
vn -0.494308561 0.808430612 -0.319529444
vn -0.438346416 0.792597353 -0.423841655
vn -0.453368962 0.809924603 -0.372127324
vn -0.387648851 0.792419791 -0.47095564
vn -0.424308628 0.80205965 -0.420312226
vn -0.374035954 0.801865995 -0.465948552
vn -0.40758419 0.810522974 -0.420627683
vn -0.3326433 0.791293442 -0.513033211
vn -0.357364118 0.810224831 -0.464571357
vn -0.273830682 0.789232373 -0.54966253
vn -0.319610924 0.800752878 -0.506600082
vn -0.261540234 0.798724055 -0.541882455
vn -0.30317688 0.809022367 -0.503554046
vn -0.211761594 0.786241829 -0.580500543
vn -0.245512024 0.806931555 -0.537201345
vn -0.147007436 0.782352805 -0.605237901
vn -0.200354055 0.79579711 -0.571458757
vn -0.136623099 0.791992307 -0.595048249
vn -0.184906572 0.803960621 -0.565205157
vn -0.080174394 0.777587533 -0.623642206
vn -0.121912822 0.800141692 -0.587290764
vn -0.0118833762 0.771993935 -0.63551873
vn -0.0709321201 0.787344098 -0.612419784
vn -0.00389552116 0.781888485 -0.623406172
vn -0.0571163446 0.795499504 -0.603256464
vn 0.0572255068 0.765609622 -0.640755057
vn 0.008887887 0.790081561 -0.612937272
vn 0.126504585 0.758498371 -0.639278352
vn 0.0638677999 0.775675416 -0.627892017
vn 0.131723091 0.768755257 -0.625831008
vn 0.0754864737 0.783926845 -0.616247058
vn 0.195303887 0.75071156 -0.631101012
vn 0.142064869 0.777097523 -0.613137007
vn 0.262973547 0.742326438 -0.616276205
vn 0.199041158 0.761191845 -0.617227376
vn 0.265189171 0.753048301 -0.602156818
vn 0.208003685 0.76964581 -0.603638828
vn 0.328877181 0.733406484 -0.59494096
vn 0.272690952 0.761645913 -0.587822378
vn 0.392387092 0.724039912 -0.567272782
vn 0.329550356 0.744400203 -0.580745101
vn 0.391518593 0.735320449 -0.553188086
vn 0.335524738 0.753160477 -0.565837801
vn 0.452904552 0.71429944 -0.53352958
vn 0.395917803 0.744274199 -0.537870824
vn 0.509847343 0.704281569 -0.494007289
vn 0.45051232 0.725893617 -0.519727886
vn 0.505974233 0.716200233 -0.480673701
vn 0.453308582 0.735057354 -0.504184544
vn 0.562677383 0.694064677 -0.449075043
vn 0.507156312 0.725601971 -0.46507448
vn 0.610879779 0.683750689 -0.399137586
vn 0.557379961 0.706331074 -0.436376065
vn 0.604241848 0.696370542 -0.38724643
vn 0.556959927 0.715984106 -0.420906633
vn 0.653997302 0.673420727 -0.344662249
vn 0.602246225 0.706299543 -0.372075945
vn 0.691602826 0.663178146 -0.286147237
vn 0.6461128 0.686412513 -0.333730638
vn 0.683416009 0.675924599 -0.275805324
vn 0.643300951 0.696144819 -0.31866309
vn 0.724243164 0.652342737 -0.223429531
vn 0.680244327 0.685157061 -0.260437071
vn 0.752161562 0.640253425 -0.155976355
vn 0.716336846 0.66441673 -0.213100865
vn 0.745521247 0.650649011 -0.144409254
vn 0.713992953 0.672083437 -0.19626008
vn 0.775641382 0.625748813 -0.0825767294
vn 0.744910479 0.655446351 -0.124492846
vn 0.794377089 0.607422352 -0.0017626764
vn 0.770998716 0.633181632 -0.0681318939
vn 0.787855268 0.61575073 0.0116258143
vn 0.767942905 0.638670921 -0.0486139357
vn 0.803878009 0.589153707 0.081718415
vn 0.779933929 0.625282705 0.0269202217
vn 0.80183059 0.57506001 0.162399933
vn 0.793365955 0.602071166 0.0898937806
vn 0.789537907 0.590400994 0.167501092
vn 0.782829404 0.613702297 0.102701843
vn 0.79023093 0.563269556 0.241376355
vn 0.77766192 0.602509439 0.179511413
vn 0.770067751 0.552002668 0.319826096
vn 0.777378857 0.579178095 0.24542816
vn 0.7566998 0.568553805 0.322725862
vn 0.764168322 0.591841578 0.25645712
vn 0.741264462 0.541396677 0.396757692
vn 0.742163777 0.58185029 0.332630724
vn 0.703844428 0.531613171 0.471158534
vn 0.727416396 0.558669806 0.398438692
vn 0.689581692 0.549654901 0.471547008
vn 0.711604297 0.572653413 0.407047212
vn 0.657993078 0.522759855 0.542002976
vn 0.672533214 0.56438905 0.47871086
vn 0.604005039 0.514974833 0.608258903
vn 0.643360257 0.541631043 0.54103905
vn 0.589064837 0.534689724 0.605895698
vn 0.625151813 0.557141423 0.546606481
vn 0.542330444 0.50832361 0.668943107
vn 0.569757342 0.551023722 0.609712481
vn 0.473536044 0.50290817 0.723081589
vn 0.527121902 0.528922498 0.665119112
vn 0.45809865 0.524372101 0.717760026
vn 0.506801963 0.546076298 0.66704756
vn 0.398316205 0.498741746 0.76980567
vn 0.436847717 0.542378366 0.717627883
vn 0.317488849 0.495883554 0.808269978
vn 0.382681191 0.521092176 0.762901127
vn 0.301664472 0.519068599 0.79972887
vn 0.360583633 0.53991431 0.760573447
vn 0.231952339 0.494289547 0.837780297
vn 0.27883023 0.538720846 0.795005441
vn 0.142736763 0.493968844 0.857683539
vn 0.215971783 0.518307447 0.827474177
vn 0.126584679 0.518732727 0.845513284
vn 0.192482024 0.53872025 0.820201874
vn 0.050890591 0.494816393 0.867506206
vn 0.10259407 0.539901078 0.835452735
vn -0.0423950665 0.496791154 0.866834044
vn 0.0346259847 0.520301998 0.853280067
vn -0.0587869398 0.522873342 0.850380838
vn 0.0102248173 0.542119145 0.840239406
vn -0.135978431 0.499728739 0.855441988
vn -0.0833754167 0.545306683 0.834079742
vn -0.228565544 0.503539205 0.833190262
vn -0.152378172 0.526353717 0.836500168
vn -0.244951561 0.530534208 0.811500013
vn -0.177035555 0.549247503 0.816691875
vn -0.318982512 0.508001268 0.800115526
vn -0.26934734 0.55382067 0.787867188
vn -0.405891985 0.512979925 0.756375134
vn -0.335129231 0.5352723 0.775352716
vn -0.421693206 0.540293694 0.728187919
vn -0.359080881 0.558735549 0.747579753
vn -0.488144457 0.518199623 0.702270567
vn -0.444726378 0.563812256 0.69594121
vn -0.564420104 0.523487985 0.638271332
vn -0.503219545 0.545409024 0.670297861
vn -0.578522384 0.550274551 0.602087855
vn -0.52504009 0.568678498 0.633196354
vn -0.633649528 0.528519094 0.564938724
vn -0.598469615 0.573092818 0.559820294
vn -0.694598436 0.533086121 0.483065516
vn -0.646197557 0.554657042 0.524198711
vn -0.705143571 0.5581429 0.437320262
vn -0.66380024 0.576596677 0.476346105
vn -0.746330559 0.536815643 0.393471122
vn -0.71951741 0.578873873 0.383666158
vn -0.787777066 0.539474607 0.297278434
vn -0.754057288 0.560453117 0.3424761
vn -0.791996837 0.561090946 0.240661547
vn -0.764500678 0.579355359 0.282641232
vn -0.818210065 0.54063493 0.195566401
vn -0.797390997 0.577635109 0.174658
vn -0.836842597 0.540025771 0.08981435
vn -0.817887247 0.559716702 0.133332625
vn -0.819832742 0.571485579 0.0357569531
vn -0.803813279 0.589911342 0.0767396614
vn -0.834290147 0.551281869 -0.00694732647
vn -0.796026587 0.604555488 0.0292280391
vn -0.823319316 0.565016866 -0.0538628809
vn -0.810240567 0.585979223 -0.0117697716
vn 0.0554674752 -0.98556596 0.159947291
vn 0.117630132 -0.966603637 0.227685317
vn 0.131602183 -0.96736151 0.216546997
vn 0.0671972707 -0.986008823 0.15254885
vn 0.0258948449 -0.993498802 0.110858358
vn 0.015758682 -0.99310112 0.116197206
vn 0.0867583677 -0.965088844 0.247136652
vn -0.00488856388 -0.99195075 0.126529783
vn 0.0307179894 -0.984281719 0.173913211
vn 0.00486858515 -0.982629895 0.185512289
vn 0.0544924438 -0.962903023 0.264288306
vn -0.0264747739 -0.99053967 0.134648636
vn 0.0205996893 -0.960235536 0.278430104
vn -0.0487919152 -0.988844156 0.140735969
vn -0.022055177 -0.980617583 0.194686353
vn -0.0498143099 -0.978252053 0.201349005
vn -0.0146255363 -0.957087278 0.289430469
vn -0.0716431662 -0.986873448 0.144734606
vn -0.0508990437 -0.953480303 0.297127396
vn -0.0948351026 -0.984642208 0.146580979
vn -0.0781812891 -0.975550234 0.205400705
vn -0.106903479 -0.972525358 0.206799686
vn -0.0879041925 -0.949423134 0.301444381
vn -0.118162669 -0.982164502 0.146255255
vn -0.125329182 -0.944945931 0.302274555
vn -0.141422734 -0.979459465 0.143731445
vn -0.135736793 -0.969200194 0.205490842
vn -0.164423287 -0.965593517 0.201479673
vn -0.162844881 -0.940064371 0.299600601
vn -0.164408967 -0.976545513 0.139027447
vn -0.200121075 -0.934817374 0.293373525
vn -0.186915845 -0.973446131 0.13215521
vn -0.192711294 -0.961734056 0.194756433
vn -0.220346197 -0.95764488 0.185374886
vn -0.236828282 -0.929226518 0.283637911
vn -0.208742484 -0.970183134 0.123171642
vn -0.272629917 -0.923338234 0.270406097
vn -0.229688197 -0.966783822 0.112126902
vn -0.247076884 -0.953359902 0.173372388
vn -0.272661418 -0.948905885 0.158850297
vn -0.307206869 -0.917178988 0.253784597
vn -0.249565139 -0.963272214 0.0991148874
vn -0.340227365 -0.910801947 0.23384887
vn -0.268183887 -0.959679127 0.0842225999
vn -0.296858013 -0.944320858 0.141892359
vn -0.319446236 -0.939634144 0.122644827
vn -0.371393889 -0.90423727 0.210764095
vn -0.285376757 -0.956029892 0.0675788149
vn -0.400391757 -0.89754343 0.18466787
vn -0.300973356 -0.952357113 0.049305547
vn -0.340202361 -0.934886992 0.101236209
vn -0.358935297 -0.930109859 0.0778527334
vn -0.426956445 -0.890752852 0.155780286
vn -0.314831257 -0.948687196 0.0295612942
vn -0.450800598 -0.883928239 0.124296986
vn -0.326804757 -0.945053637 0.00849912129
vn -0.375447333 -0.925346255 0.052664049
vn -0.389584482 -0.9206267 0.0258911122
vn -0.471703023 -0.877102196 0.0904871076
vn -0.336783051 -0.941482604 -0.0136970039
vn -0.489415109 -0.870340049 0.0545995757
vn -0.344651103 -0.938007414 -0.0368479751
vn -0.401182741 -0.9159953 -0.0022604824
vn -0.41013068 -0.911481142 -0.0315422378
vn -0.503767133 -0.863673329 0.0169435982
vn -0.35033381 -0.934652686 -0.0607503764
vn -0.514558911 -0.857167959 -0.0221860874
vn -0.353750288 -0.931450963 -0.0852049515
vn -0.416304082 -0.907128155 -0.0617191531
vn -0.419639379 -0.902963042 -0.0925233364
vn -0.521679103 -0.850853086 -0.0624494329
vn -0.354864925 -0.928424299 -0.109995976
vn -0.524984777 -0.84479326 -0.103514761
vn -0.353635311 -0.925603151 -0.134910509
vn -0.420057893 -0.899027407 -0.123697735
vn -0.417546332 -0.895344138 -0.154964194
vn -0.524429142 -0.839012802 -0.145022631
vn -0.350066066 -0.923006415 -0.159727708
vn -0.519931257 -0.833574414 -0.186615035
vn -0.344155669 -0.920661092 -0.184228301
vn -0.412074864 -0.891952276 -0.186052173
vn -0.403682798 -0.888869286 -0.216682822
vn -0.511512101 -0.828495979 -0.227924988
vn -0.335950077 -0.918581843 -0.208194166
vn -0.499159068 -0.823835552 -0.268580139
vn -0.325488299 -0.916792393 -0.231407017
vn -0.392390877 -0.886130333 -0.246581241
vn -0.378290325 -0.883746803 -0.275477588
vn -0.482961178 -0.819603384 -0.308218569
vn -0.312857002 -0.915301859 -0.25365898
vn -0.4629758 -0.815852046 -0.346466064
vn -0.298135936 -0.914129317 -0.274740905
vn -0.361453503 -0.881748438 -0.303102314
vn -0.34203282 -0.880135834 -0.329202712
vn -0.439368546 -0.812583268 -0.382967144
vn -0.281472176 -0.913271785 -0.294462234
vn -0.412260056 -0.809863865 -0.417327404
vn -0.262947053 -0.9127841 -0.312544465
vn -0.320134193 -0.878967762 -0.353454143
vn -0.295841932 -0.878355145 -0.375459522
vn -0.381660491 -0.807970524 -0.448908418
vn -0.242694229 -0.912706137 -0.32873553
vn -0.347676724 -0.807265162 -0.476910651
vn -0.220889509 -0.91309464 -0.342732906
vn -0.269301027 -0.878458083 -0.39470011
vn -0.241147399 -0.879007638 -0.411331415
vn -0.311159968 -0.807177007 -0.501642108
vn -0.197955534 -0.913815916 -0.354618341
vn -0.272631317 -0.807099342 -0.523701131
vn -0.174184144 -0.914625168 -0.364857018
vn -0.211749524 -0.879611552 -0.425964296
vn -0.181082681 -0.880374074 -0.438349932
vn -0.232097194 -0.80725354 -0.542653263
vn -0.149567425 -0.915575683 -0.373297036
vn -0.189680606 -0.808021009 -0.557784379
vn -0.124166399 -0.91682291 -0.379497558
vn -0.149224237 -0.881542146 -0.447901309
vn -0.11645183 -0.883072555 -0.454556644
vn -0.145761237 -0.809337318 -0.568969965
vn -0.0981880575 -0.918336987 -0.383427113
vn -0.100695834 -0.811210513 -0.57601887
vn -0.0718194619 -0.920102715 -0.38503629
vn -0.0830066428 -0.8849563 -0.458216429
vn -0.0491572432 -0.887136996 -0.458880663
vn -0.0548707247 -0.813557088 -0.578890443
vn -0.0452526994 -0.922082424 -0.384338558
vn -0.00866115093 -0.81636852 -0.577466428
vn -0.018662259 -0.924254596 -0.381320149
vn -0.0151411053 -0.88959682 -0.456495643
vn 0.0188009478 -0.892267585 -0.45111531
vn 0.0375626981 -0.819543242 -0.571784675
vn 0.00778942043 -0.926574588 -0.376030385
vn 0.0834272876 -0.823057353 -0.561797559
vn 0.0339519717 -0.929015458 -0.368479997
vn 0.0524480902 -0.895123601 -0.442722201
vn 0.0856012926 -0.898087621 -0.431405842
vn 0.128598675 -0.826795518 -0.547605217
vn 0.0597015731 -0.931527555 -0.358736813
vn 0.172719926 -0.830717504 -0.52922225
vn 0.0849189758 -0.93407917 -0.346821338
vn 0.118066914 -0.901124954 -0.417173862
vn 0.149695501 -0.904150128 -0.400129855
vn 0.215502262 -0.834698319 -0.506791294
vn 0.109525435 -0.936614513 -0.332802474
vn 0.256621569 -0.838680625 -0.480374992
vn 0.13343662 -0.939095438 -0.316692978
vn 0.180323794 -0.907119155 -0.380286872
vn 0.209852502 -0.909936607 -0.3577393
vn 0.295836836 -0.842530668 -0.450136125
vn 0.156618357 -0.941458941 -0.298539519
vn 0.332855821 -0.846175849 -0.416165173
vn 0.179016218 -0.943657219 -0.27832374
vn 0.238144502 -0.912546575 -0.332484484
vn 0.265140563 -0.914839089 -0.304581493
vn 0.367476612 -0.849473357 -0.378623635
vn 0.200632632 -0.945615053 -0.256044537
vn 0.399433583 -0.852331758 -0.337614477
vn 0.221431002 -0.94726795 -0.231628358
vn 0.290715069 -0.916740894 -0.273990661
vn 0.314825624 -0.918118775 -0.240712926
vn 0.42854014 -0.854598463 -0.293282539
vn 0.241433874 -0.948517084 -0.205000237
vn 0.454534858 -0.856162369 -0.245731533
vn 0.26059708 -0.94926852 -0.176006705
vn 0.337329358 -0.918871641 -0.204655439
vn 0.358165741 -0.91882807 -0.165747628
vn 0.477216989 -0.856856525 -0.195092171
vn 0.27893576 -0.949379921 -0.144473732
vn 0.496299446 -0.856545627 -0.141479835
vn 0.296357006 -0.948704123 -0.110149734
vn 0.37713173 -0.91784215 -0.123844467
vn 0.394098997 -0.915682614 -0.0788118839
vn 0.511533439 -0.85504508 -0.085037455
vn 0.312828243 -0.947019815 -0.072746411
vn 0.522575378 -0.852198899 -0.0259228237
vn 0.32814154 -0.944089353 -0.031911213
vn 0.408748209 -0.912138164 -0.0304779653
vn 0.42083329 -0.906887591 0.02130959
vn 0.529116452 -0.847800195 0.0356466807
vn 0.342159599 -0.939555287 0.0127517106
vn 0.530754626 -0.841678083 0.0993860736
vn 0.354495347 -0.933023095 0.0616509579
vn 0.429871172 -0.899629891 0.0766608566
vn 0.435490668 -0.889915228 0.135642231
vn 0.527163804 -0.833605886 0.164922997
vn 0.364851743 -0.923906863 0.115235761
vn 0.517957389 -0.823416173 0.231745377
vn 0.372605056 -0.91156286 0.173835203
vn 0.437056094 -0.877336383 0.19814837
vn 0.421530902 -0.870070577 0.255516827
vn 0.492846638 -0.818889856 0.294145584
vn 0.363325775 -0.903585136 0.22699821
vn 0.474660188 -0.81670624 0.328159392
vn 0.352818549 -0.900586843 0.253894508
vn 0.409126133 -0.866597116 0.285701424
g submesh_0
usemtl submesh_0
f 1/1/1 2/2/2 3/3/3
f 1/1/1 3/3/3 4/4/4
f 5/5/5 1/1/1 4/4/4
f 5/5/5 6/6/6 1/1/1
f 7/7/7 2/2/2 1/1/1
f 1/1/1 6/6/6 8/8/8
f 7/7/7 1/1/1 9/9/9
f 1/1/1 8/8/8 9/9/9
f 10/10/10 7/7/7 9/9/9
f 8/8/8 10/10/10 9/9/9
f 10/10/10 11/11/11 7/7/7
f 8/8/8 12/12/12 10/10/10
f 13/13/13 11/11/11 10/10/10
f 10/10/10 12/12/12 14/14/14
f 13/13/13 10/10/10 15/15/15
f 10/10/10 14/14/14 15/15/15
f 16/16/16 13/13/13 15/15/15
f 14/14/14 16/16/16 15/15/15
f 16/16/16 17/17/17 13/13/13
f 14/14/14 18/18/18 16/16/16
f 19/19/19 17/17/17 16/16/16
f 16/16/16 18/18/18 20/20/20
f 19/19/19 16/16/16 21/21/21
f 16/16/16 20/20/20 21/21/21
f 22/22/22 19/19/19 21/21/21
f 20/20/20 22/22/22 21/21/21
f 22/22/22 23/23/23 19/19/19
f 20/20/20 24/24/24 22/22/22
f 25/25/25 23/23/23 22/22/22
f 22/22/22 24/24/24 26/26/26
f 25/25/25 22/22/22 27/27/27
f 22/22/22 26/26/26 27/27/27
f 28/28/28 25/25/25 27/27/27
f 26/26/26 28/28/28 27/27/27
f 28/28/28 29/29/29 25/25/25
f 26/26/26 30/30/30 28/28/28
f 31/31/31 29/29/29 28/28/28
f 28/28/28 30/30/30 32/32/32
f 31/31/31 28/28/28 33/33/33
f 28/28/28 32/32/32 33/33/33
f 34/34/34 31/31/31 33/33/33
f 32/32/32 34/34/34 33/33/33
f 34/34/34 35/35/35 31/31/31
f 32/32/32 36/36/36 34/34/34
f 37/37/37 35/35/35 34/34/34
f 34/34/34 36/36/36 38/38/38
f 37/37/37 34/34/34 39/39/39
f 34/34/34 38/38/38 39/39/39
f 40/40/40 37/37/37 39/39/39
f 38/38/38 40/40/40 39/39/39
f 40/40/40 41/41/41 37/37/37
f 38/38/38 42/42/42 40/40/40
f 43/43/43 41/41/41 40/40/40
f 40/40/40 42/42/42 44/44/44
f 43/43/43 40/40/40 45/45/45
f 40/40/40 44/44/44 45/45/45
f 46/46/46 43/43/43 45/45/45
f 44/44/44 46/46/46 45/45/45
f 46/46/46 47/47/47 43/43/43
f 44/44/44 48/48/48 46/46/46
f 49/49/49 47/47/47 46/46/46
f 46/46/46 48/48/48 50/50/50
f 49/49/49 46/46/46 51/51/51
f 46/46/46 50/50/50 51/51/51
f 52/52/52 49/49/49 51/51/51
f 50/50/50 52/52/52 51/51/51
f 52/52/52 53/53/53 49/49/49
f 50/50/50 54/54/54 52/52/52
f 55/55/55 53/53/53 52/52/52
f 52/52/52 54/54/54 56/56/56
f 55/55/55 52/52/52 57/57/57
f 52/52/52 56/56/56 57/57/57
f 58/58/58 55/55/55 57/57/57
f 56/56/56 58/58/58 57/57/57
f 58/58/58 59/59/59 55/55/55
f 56/56/56 60/60/60 58/58/58
f 61/61/61 59/59/59 58/58/58
f 58/58/58 60/60/60 62/62/62
f 61/61/61 58/58/58 63/63/63
f 58/58/58 62/62/62 63/63/63
f 64/64/64 61/61/61 63/63/63
f 62/62/62 64/64/64 63/63/63
f 64/64/64 65/65/65 61/61/61
f 62/62/62 66/66/66 64/64/64
f 67/67/67 65/65/65 64/64/64
f 64/64/64 66/66/66 68/68/68
f 67/67/67 64/64/64 69/69/69
f 64/64/64 68/68/68 69/69/69
f 70/70/70 67/67/67 69/69/69
f 68/68/68 70/70/70 69/69/69
f 70/70/70 71/71/71 67/67/67
f 68/68/68 72/72/72 70/70/70
f 73/73/73 71/71/71 70/70/70
f 70/70/70 72/72/72 74/74/74
f 73/73/73 70/70/70 75/75/75
f 70/70/70 74/74/74 75/75/75
f 76/76/76 73/73/73 75/75/75
f 74/74/74 76/76/76 75/75/75
f 76/76/76 77/77/77 73/73/73
f 74/74/74 78/78/78 76/76/76
f 79/79/79 77/77/77 76/76/76
f 76/76/76 78/78/78 80/80/80
f 79/79/79 76/76/76 81/81/81
f 76/76/76 80/80/80 81/81/81
f 82/82/82 79/79/79 81/81/81
f 80/80/80 82/82/82 81/81/81
f 82/82/82 83/83/83 79/79/79
f 80/80/80 84/84/84 82/82/82
f 85/85/85 83/83/83 82/82/82
f 82/82/82 84/84/84 86/86/86
f 85/85/85 82/82/82 87/87/87
f 82/82/82 86/86/86 87/87/87
f 88/88/88 85/85/85 87/87/87
f 86/86/86 88/88/88 87/87/87
f 88/88/88 89/89/89 85/85/85
f 86/86/86 90/90/90 88/88/88
f 91/91/91 89/89/89 88/88/88
f 88/88/88 90/90/90 92/92/92
f 91/91/91 88/88/88 93/93/93
f 88/88/88 92/92/92 93/93/93
f 94/94/94 91/91/91 93/93/93
f 92/92/92 94/94/94 93/93/93
f 94/94/94 95/95/95 91/91/91
f 92/92/92 96/96/96 94/94/94
f 97/97/97 95/95/95 94/94/94
f 94/94/94 96/96/96 98/98/98
f 97/97/97 94/94/94 99/99/99
f 94/94/94 98/98/98 99/99/99
f 100/100/100 97/97/97 99/99/99
f 98/98/98 100/100/100 99/99/99
f 100/100/100 101/101/101 97/97/97
f 98/98/98 102/102/102 100/100/100
f 103/103/103 101/101/101 100/100/100
f 100/100/100 102/102/102 104/104/104
f 103/103/103 100/100/100 105/105/105
f 100/100/100 104/104/104 105/105/105
f 106/106/106 103/103/103 105/105/105
f 104/104/104 106/106/106 105/105/105
f 106/106/106 107/107/107 103/103/103
f 104/104/104 108/108/108 106/106/106
f 109/109/109 107/107/107 106/106/106
f 106/106/106 108/108/108 110/110/110
f 109/109/109 106/106/106 111/111/111
f 106/106/106 110/110/110 111/111/111
f 112/112/112 109/109/109 111/111/111
f 110/110/110 112/112/112 111/111/111
f 112/112/112 113/113/113 109/109/109
f 110/110/110 114/114/114 112/112/112
f 115/115/115 113/113/113 112/112/112
f 112/112/112 114/114/114 116/116/116
f 115/115/115 112/112/112 117/117/117
f 112/112/112 116/116/116 117/117/117
f 118/118/118 115/115/115 117/117/117
f 116/116/116 118/118/118 117/117/117
f 118/118/118 119/119/119 115/115/115
f 116/116/116 120/120/120 118/118/118
f 121/121/121 119/119/119 118/118/118
f 118/118/118 120/120/120 122/122/122
f 121/121/121 118/118/118 123/123/123
f 118/118/118 122/122/122 123/123/123
f 124/124/124 121/121/121 123/123/123
f 122/122/122 124/124/124 123/123/123
f 124/124/124 125/125/125 121/121/121
f 122/122/122 126/126/126 124/124/124
f 127/127/127 125/125/125 124/124/124
f 124/124/124 126/126/126 128/128/128
f 127/127/127 124/124/124 129/129/129
f 124/124/124 128/128/128 129/129/129
f 130/130/130 127/127/127 129/129/129
f 128/128/128 130/130/130 129/129/129
f 130/130/130 131/131/131 127/127/127
f 128/128/128 132/132/132 130/130/130
f 133/133/133 131/131/131 130/130/130
f 130/130/130 132/132/132 134/134/134
f 133/133/133 130/130/130 135/135/135
f 130/130/130 134/134/134 135/135/135
f 136/136/136 133/133/133 135/135/135
f 134/134/134 136/136/136 135/135/135
f 136/136/136 137/137/137 133/133/133
f 134/134/134 138/138/138 136/136/136
f 139/139/139 137/137/137 136/136/136
f 136/136/136 138/138/138 140/140/140
f 139/139/139 136/136/136 141/141/141
f 136/136/136 140/140/140 141/141/141
f 142/142/142 139/139/139 141/141/141
f 140/140/140 142/142/142 141/141/141
f 142/142/142 143/143/143 139/139/139
f 140/140/140 144/144/144 142/142/142
f 145/145/145 143/143/143 142/142/142
f 142/142/142 144/144/144 146/146/146
f 145/145/145 142/142/142 147/147/147
f 142/142/142 146/146/146 147/147/147
f 148/148/148 145/145/145 147/147/147
f 146/146/146 148/148/148 147/147/147
f 148/148/148 149/149/149 145/145/145
f 146/146/146 150/150/150 148/148/148
f 151/151/151 149/149/149 148/148/148
f 148/148/148 150/150/150 152/152/152
f 151/151/151 148/148/148 153/153/153
f 148/148/148 152/152/152 153/153/153
f 154/154/154 151/151/151 153/153/153
f 152/152/152 154/154/154 153/153/153
f 154/154/154 155/155/155 151/151/151
f 152/152/152 156/156/156 154/154/154
f 157/157/157 155/155/155 154/154/154
f 154/154/154 156/156/156 158/158/158
f 157/157/157 154/154/154 159/159/159
f 154/154/154 158/158/158 159/159/159
f 160/160/160 157/157/157 159/159/159
f 158/158/158 160/160/160 159/159/159
f 160/160/160 161/161/161 157/157/157
f 158/158/158 162/162/162 160/160/160
f 163/163/163 161/161/161 160/160/160
f 160/160/160 162/162/162 164/164/164
f 163/163/163 160/160/160 165/165/165
f 160/160/160 164/164/164 165/165/165
f 166/166/166 163/163/163 165/165/165
f 164/164/164 166/166/166 165/165/165
f 166/166/166 167/167/167 163/163/163
f 164/164/164 168/168/168 166/166/166
f 169/169/169 167/167/167 166/166/166
f 166/166/166 168/168/168 170/170/170
f 169/169/169 166/166/166 171/171/171
f 166/166/166 170/170/170 171/171/171
f 172/172/172 169/169/169 171/171/171
f 170/170/170 172/172/172 171/171/171
f 172/172/172 173/173/173 169/169/169
f 170/170/170 174/174/174 172/172/172
f 175/175/175 173/173/173 172/172/172
f 172/172/172 174/174/174 176/176/176
f 175/175/175 172/172/172 177/177/177
f 172/172/172 176/176/176 177/177/177
f 178/178/178 175/175/175 177/177/177
f 176/176/176 178/178/178 177/177/177
f 178/178/178 179/179/179 175/175/175
f 176/176/176 180/180/180 178/178/178
f 181/181/181 179/179/179 178/178/178
f 178/178/178 180/180/180 182/182/182
f 181/181/181 178/178/178 183/183/183
f 178/178/178 182/182/182 183/183/183
f 184/184/184 181/181/181 183/183/183
f 182/182/182 184/184/184 183/183/183
f 184/184/184 185/185/185 181/181/181
f 182/182/182 186/186/186 184/184/184
f 187/187/187 185/185/185 184/184/184
f 184/184/184 186/186/186 188/188/188
f 187/187/187 184/184/184 189/189/189
f 184/184/184 188/188/188 189/189/189
f 190/190/190 187/187/187 189/189/189
f 188/188/188 190/190/190 189/189/189
f 190/190/190 191/191/191 187/187/187
f 188/188/188 192/192/192 190/190/190
f 193/193/193 191/191/191 190/190/190
f 190/190/190 192/192/192 194/194/194
f 193/193/193 190/190/190 195/195/195
f 190/190/190 194/194/194 195/195/195
f 196/196/196 197/197/197 198/198/198
f 196/196/196 198/198/198 199/199/199
f 200/200/200 196/196/196 199/199/199
f 200/200/200 201/201/201 196/196/196
f 202/202/202 197/197/197 196/196/196
f 196/196/196 201/201/201 203/203/203
f 202/202/202 196/196/196 204/204/204
f 196/196/196 203/203/203 204/204/204
f 205/205/205 202/202/202 204/204/204
f 203/203/203 205/205/205 204/204/204
f 205/205/205 206/206/206 202/202/202
f 203/203/203 207/207/207 205/205/205
f 208/208/208 206/206/206 205/205/205
f 205/205/205 207/207/207 209/209/209
f 208/208/208 205/205/205 210/210/210
f 205/205/205 209/209/209 210/210/210
f 211/211/211 208/208/208 210/210/210
f 209/209/209 211/211/211 210/210/210
f 211/211/211 212/212/212 208/208/208
f 209/209/209 213/213/213 211/211/211
f 214/214/214 212/212/212 211/211/211
f 211/211/211 213/213/213 215/215/215
f 214/214/214 211/211/211 216/216/216
f 211/211/211 215/215/215 216/216/216
f 217/217/217 214/214/214 216/216/216
f 215/215/215 217/217/217 216/216/216
f 217/217/217 218/218/218 214/214/214
f 215/215/215 219/219/219 217/217/217
f 220/220/220 218/218/218 217/217/217
f 217/217/217 219/219/219 221/221/221
f 220/220/220 217/217/217 222/222/222
f 217/217/217 221/221/221 222/222/222
f 223/223/223 220/220/220 222/222/222
f 221/221/221 223/223/223 222/222/222
f 223/223/223 224/224/224 220/220/220
f 221/221/221 225/225/225 223/223/223
f 226/226/226 224/224/224 223/223/223
f 223/223/223 225/225/225 227/227/227
f 226/226/226 223/223/223 228/228/228
f 223/223/223 227/227/227 228/228/228
f 229/229/229 226/226/226 228/228/228
f 227/227/227 229/229/229 228/228/228
f 229/229/229 230/230/230 226/226/226
f 227/227/227 231/231/231 229/229/229
f 232/232/232 230/230/230 229/229/229
f 229/229/229 231/231/231 233/233/233
f 232/232/232 229/229/229 234/234/234
f 229/229/229 233/233/233 234/234/234
f 235/235/235 232/232/232 234/234/234
f 233/233/233 235/235/235 234/234/234
f 235/235/235 236/236/236 232/232/232
f 233/233/233 237/237/237 235/235/235
f 238/238/238 236/236/236 235/235/235
f 235/235/235 237/237/237 239/239/239
f 238/238/238 235/235/235 240/240/240
f 235/235/235 239/239/239 240/240/240
f 241/241/241 238/238/238 240/240/240
f 239/239/239 241/241/241 240/240/240
f 241/241/241 242/242/242 238/238/238
f 239/239/239 243/243/243 241/241/241
f 244/244/244 242/242/242 241/241/241
f 241/241/241 243/243/243 245/245/245
f 244/244/244 241/241/241 246/246/246
f 241/241/241 245/245/245 246/246/246
f 247/247/247 244/244/244 246/246/246
f 245/245/245 247/247/247 246/246/246
f 247/247/247 248/248/248 244/244/244
f 245/245/245 249/249/249 247/247/247
f 250/250/250 248/248/248 247/247/247
f 247/247/247 249/249/249 251/251/251
f 250/250/250 247/247/247 252/252/252
f 247/247/247 251/251/251 252/252/252
f 253/253/253 250/250/250 252/252/252
f 251/251/251 253/253/253 252/252/252
f 253/253/253 254/254/254 250/250/250
f 251/251/251 255/255/255 253/253/253
f 256/256/256 254/254/254 253/253/253
f 253/253/253 255/255/255 257/257/257
f 256/256/256 253/253/253 258/258/258
f 253/253/253 257/257/257 258/258/258
f 259/259/259 256/256/256 258/258/258
f 257/257/257 259/259/259 258/258/258
f 259/259/259 260/260/260 256/256/256
f 257/257/257 261/261/261 259/259/259
f 262/262/262 260/260/260 259/259/259
f 259/259/259 261/261/261 263/263/263
f 262/262/262 259/259/259 264/264/264
f 259/259/259 263/263/263 264/264/264
f 265/265/265 262/262/262 264/264/264
f 263/263/263 265/265/265 264/264/264
f 265/265/265 266/266/266 262/262/262
f 263/263/263 267/267/267 265/265/265
f 268/268/268 266/266/266 265/265/265
f 265/265/265 267/267/267 269/269/269
f 268/268/268 265/265/265 270/270/270
f 265/265/265 269/269/269 270/270/270
f 271/271/271 268/268/268 270/270/270
f 269/269/269 271/271/271 270/270/270
f 271/271/271 272/272/272 268/268/268
f 269/269/269 273/273/273 271/271/271
f 274/274/274 272/272/272 271/271/271
f 271/271/271 273/273/273 275/275/275
f 274/274/274 271/271/271 276/276/276
f 271/271/271 275/275/275 276/276/276
f 277/277/277 274/274/274 276/276/276
f 275/275/275 277/277/277 276/276/276
f 277/277/277 278/278/278 274/274/274
f 275/275/275 279/279/279 277/277/277
f 280/280/280 278/278/278 277/277/277
f 277/277/277 279/279/279 281/281/281
f 280/280/280 277/277/277 282/282/282
f 277/277/277 281/281/281 282/282/282
f 283/283/283 280/280/280 282/282/282
f 281/281/281 283/283/283 282/282/282
f 283/283/283 284/284/284 280/280/280
f 281/281/281 285/285/285 283/283/283
f 286/286/286 284/284/284 283/283/283
f 283/283/283 285/285/285 287/287/287
f 286/286/286 283/283/283 288/288/288
f 283/283/283 287/287/287 288/288/288
f 289/289/289 286/286/286 288/288/288
f 287/287/287 289/289/289 288/288/288
f 289/289/289 290/290/290 286/286/286
f 287/287/287 291/291/291 289/289/289
f 292/292/292 290/290/290 289/289/289
f 289/289/289 291/291/291 293/293/293
f 292/292/292 289/289/289 294/294/294
f 289/289/289 293/293/293 294/294/294
f 295/295/295 292/292/292 294/294/294
f 293/293/293 295/295/295 294/294/294
f 295/295/295 296/296/296 292/292/292
f 293/293/293 297/297/297 295/295/295
f 298/298/298 296/296/296 295/295/295
f 295/295/295 297/297/297 299/299/299
f 298/298/298 295/295/295 300/300/300
f 295/295/295 299/299/299 300/300/300
f 301/301/301 298/298/298 300/300/300
f 299/299/299 301/301/301 300/300/300
f 301/301/301 302/302/302 298/298/298
f 299/299/299 303/303/303 301/301/301
f 304/304/304 302/302/302 301/301/301
f 301/301/301 303/303/303 305/305/305
f 304/304/304 301/301/301 306/306/306
f 301/301/301 305/305/305 306/306/306
f 307/307/307 304/304/304 306/306/306
f 305/305/305 307/307/307 306/306/306
f 307/307/307 308/308/308 304/304/304
f 305/305/305 309/309/309 307/307/307
f 310/310/310 308/308/308 307/307/307
f 307/307/307 309/309/309 311/311/311
f 310/310/310 307/307/307 312/312/312
f 307/307/307 311/311/311 312/312/312
f 313/313/313 310/310/310 312/312/312
f 311/311/311 313/313/313 312/312/312
f 313/313/313 314/314/314 310/310/310
f 311/311/311 315/315/315 313/313/313
f 316/316/316 314/314/314 313/313/313
f 313/313/313 315/315/315 317/317/317
f 316/316/316 313/313/313 318/318/318
f 313/313/313 317/317/317 318/318/318
f 319/319/319 316/316/316 318/318/318
f 317/317/317 319/319/319 318/318/318
f 319/319/319 320/320/320 316/316/316
f 317/317/317 321/321/321 319/319/319
f 322/322/322 320/320/320 319/319/319
f 319/319/319 321/321/321 323/323/323
f 322/322/322 319/319/319 324/324/324
f 319/319/319 323/323/323 324/324/324
f 325/325/325 322/322/322 324/324/324
f 323/323/323 325/325/325 324/324/324
f 325/325/325 326/326/326 322/322/322
f 323/323/323 327/327/327 325/325/325
f 328/328/328 326/326/326 325/325/325
f 325/325/325 327/327/327 329/329/329
f 328/328/328 325/325/325 330/330/330
f 325/325/325 329/329/329 330/330/330
f 331/331/331 328/328/328 330/330/330
f 329/329/329 331/331/331 330/330/330
f 331/331/331 332/332/332 328/328/328
f 329/329/329 333/333/333 331/331/331
f 334/334/334 332/332/332 331/331/331
f 331/331/331 333/333/333 335/335/335
f 334/334/334 331/331/331 336/336/336
f 331/331/331 335/335/335 336/336/336
f 337/337/337 334/334/334 336/336/336
f 335/335/335 337/337/337 336/336/336
f 337/337/337 338/338/338 334/334/334
f 335/335/335 339/339/339 337/337/337
f 340/340/340 338/338/338 337/337/337
f 337/337/337 339/339/339 341/341/341
f 340/340/340 337/337/337 342/342/342
f 337/337/337 341/341/341 342/342/342
f 343/343/343 340/340/340 342/342/342
f 341/341/341 343/343/343 342/342/342
f 343/343/343 344/344/344 340/340/340
f 341/341/341 345/345/345 343/343/343
f 346/346/346 344/344/344 343/343/343
f 343/343/343 345/345/345 347/347/347
f 346/346/346 343/343/343 348/348/348
f 343/343/343 347/347/347 348/348/348
f 349/349/349 346/346/346 348/348/348
f 347/347/347 349/349/349 348/348/348
f 349/349/349 350/350/350 346/346/346
f 347/347/347 351/351/351 349/349/349
f 352/352/352 350/350/350 349/349/349
f 349/349/349 351/351/351 353/353/353
f 352/352/352 349/349/349 354/354/354
f 349/349/349 353/353/353 354/354/354
f 355/355/355 352/352/352 354/354/354
f 353/353/353 355/355/355 354/354/354
f 355/355/355 356/356/356 352/352/352
f 353/353/353 357/357/357 355/355/355
f 358/358/358 356/356/356 355/355/355
f 355/355/355 357/357/357 359/359/359
f 358/358/358 355/355/355 360/360/360
f 355/355/355 359/359/359 360/360/360
f 361/361/361 358/358/358 360/360/360
f 359/359/359 361/361/361 360/360/360
f 361/361/361 362/362/362 358/358/358
f 359/359/359 363/363/363 361/361/361
f 364/364/364 362/362/362 361/361/361
f 361/361/361 363/363/363 365/365/365
f 364/364/364 361/361/361 366/366/366
f 361/361/361 365/365/365 366/366/366
f 367/367/367 364/364/364 366/366/366
f 365/365/365 367/367/367 366/366/366
f 367/367/367 368/368/368 364/364/364
f 365/365/365 369/369/369 367/367/367
f 370/370/370 368/368/368 367/367/367
f 367/367/367 369/369/369 371/371/371
f 370/370/370 367/367/367 372/372/372
f 367/367/367 371/371/371 372/372/372
f 373/373/373 370/370/370 372/372/372
f 371/371/371 373/373/373 372/372/372
f 373/373/373 374/374/374 370/370/370
f 371/371/371 375/375/375 373/373/373
f 376/376/376 374/374/374 373/373/373
f 373/373/373 375/375/375 377/377/377
f 376/376/376 373/373/373 378/378/378
f 373/373/373 377/377/377 378/378/378
f 379/379/379 376/376/376 378/378/378
f 377/377/377 379/379/379 378/378/378
f 379/379/379 380/380/380 376/376/376
f 377/377/377 381/381/381 379/379/379
f 382/382/382 380/380/380 379/379/379
f 379/379/379 381/381/381 383/383/383
f 382/382/382 379/379/379 384/384/384
f 379/379/379 383/383/383 384/384/384
f 385/385/385 382/382/382 384/384/384
f 383/383/383 385/385/385 384/384/384
f 385/385/385 386/386/386 382/382/382
f 383/383/383 387/387/387 385/385/385
f 388/388/388 386/386/386 385/385/385
f 385/385/385 387/387/387 389/389/389
f 388/388/388 385/385/385 390/390/390
f 385/385/385 389/389/389 390/390/390
