o common_tunder_03
v -0.0657472834 -0.0857893825 0.020422101
v -0.0498620085 -0.00067891553 0
v 0.0122660724 -0.00067891553 0
v 0.0188858304 -0.0710777193 -0.0130485445
v -0.0529997163 -0.149980068 0.0447620153
v 0.0337468311 -0.132301211 0.00656867027
v -0.0414902419 -0.187948018 0.0553593487
v 0.0459087715 -0.174346864 0.0148488581
v -0.0337964669 -0.219831973 0.061018832
v 0.0542675033 -0.210190758 0.0178768039
v -0.0343871601 -0.25452891 0.0635367408
v 0.0544297993 -0.245851845 0.0167212486
v -0.0338522457 -0.292008638 0.0641657487
v 0.054683052 -0.282513648 0.013526395
v -0.0230705533 -0.332206279 0.0602413714
v 0.0634438396 -0.321374834 0.00670319796
v -0.0165884513 -0.37418133 0.0527600124
v 0.0675783455 -0.363190413 -0.00375281274
v -0.0273014959 -0.417190582 0.0490585342
v 0.0549334288 -0.408832937 -0.0122748613
v -0.0431766622 -0.461225837 0.0507382601
v 0.0360839404 -0.457370788 -0.0158922374
v -0.0532380641 -0.506152093 0.0539463088
v 0.0213012639 -0.50783658 -0.0167496055
v -0.0651686117 -0.550475061 0.0619511008
v 0.00487414235 -0.556835234 -0.0122354776
v -0.0841687471 -0.592998207 0.0820089728
v -0.0169767868 -0.601204157 0.00376020372
v -0.0958182067 -0.638062716 0.101917163
v -0.0319343954 -0.645333827 0.0197507143
v -0.0929354578 -0.689141989 0.103361435
v -0.0342879482 -0.692823648 0.0190892518
v -0.0889332891 -0.742084503 0.097926721
v -0.03603765 -0.742452264 0.0127757639
v -0.0887135267 -0.793758929 0.1022681
v -0.0416390635 -0.793902338 0.0159071088
v -0.0872476399 -0.839563847 0.117146701
v -0.0454210527 -0.841719866 0.0312701017
v -0.0814157948 -0.87466985 0.142503664
v -0.0422317348 -0.880388618 0.0604828745
v -0.0718098432 -0.904388309 0.163972586
v -0.033826232 -0.911136031 0.0858685821
v -0.062640883 -0.933597267 0.167263269
v -0.0278071072 -0.934489667 0.0911229998
v -0.0590180792 -0.964060545 0.152859896
v -0.0278913397 -0.957584143 0.0788307488
v -0.0664767772 -0.997490585 0.122337364
v -0.0373276807 -0.987609744 0.0516312718
v -0.077359423 -1.03078401 0.0957922488
v -0.0494921841 -1.02164316 0.027818203
v -0.0763108432 -1.061759 0.088809669
v -0.0507554747 -1.05760002 0.0216727555
v -0.0707706362 -1.09722662 0.085107252
v -0.0480664633 -1.09872043 0.0187456459
v -0.0735702962 -1.14335144 0.0717716292
v -0.0534633584 -1.14763403 0.00852142274
v -0.0767220259 -1.19771171 0.0570095703
v -0.0590305664 -1.20235276 -0.00180849433
v -0.0688214898 -1.25829518 0.0431202278
v -0.0538545437 -1.2612468 -0.0107475817
v -0.067907542 -1.3141588 0.024008736
v -0.0540231951 -1.31511438 -0.024225384
v -0.0924229771 -1.35431051 0.00689420104
v -0.0762936175 -1.3546735 -0.0366449803
v -0.122435555 -1.3899132 -0.0045029521
v -0.10300146 -1.38907731 -0.044080168
v -0.139498666 -1.43195164 -0.0158954263
v -0.117383122 -1.42736959 -0.0509538352
v -0.161626309 -1.47234285 -0.0246104896
v -0.137273997 -1.46354806 -0.0553518385
v -0.203716978 -1.50337851 -0.0198220313
v -0.178285494 -1.49187458 -0.0478979647
v -0.248204425 -1.53430355 -0.0057477802
v -0.222037807 -1.52303445 -0.0318408459
v -0.280181885 -1.5740428 0.00831434131
v -0.252060562 -1.5674839 -0.0152415484
v -0.303978086 -1.62097824 0.0209484547
v -0.272982687 -1.61898375 0.000549674034
v -0.325356722 -1.67341542 0.0337016508
v -0.288700283 -1.67128563 0.0136529803
v -0.343372136 -1.72506452 0.046493493
v -0.300668299 -1.72035289 0.024290815
v -0.356946498 -1.76968765 0.0591265038
v -0.309057057 -1.76226652 0.032303974
v -0.368048221 -1.81089401 0.0732292831
v -0.315784037 -1.8005228 0.0375977308
v -0.0310768913 -0.0417425968 -1.38595275e-20
v -0.0498620085 -0.00067891553 0
v 0.0122660724 -0.00067891553 0
v 0.0299405176 -0.0422024615 -4.03216104e-20
v -0.00819389243 -0.0795997679 0.000340159051
v 0.0524834283 -0.0813719854 -5.76184975e-05
v 0.0227880571 -0.111071236 0.00270926603
v 0.0847842097 -0.115827955 -0.000597139064
v 0.0515391566 -0.137450531 0.00656519923
v 0.115008242 -0.145031735 0.000851426797
v 0.0680073351 -0.159951851 0.00953099504
v 0.131500617 -0.168393835 0.00190928893
v 0.0718652904 -0.184399068 0.00981919188
v 0.135249063 -0.191187665 0.000624675944
v 0.0629621446 -0.216566101 0.00517039746
v 0.127360851 -0.218652368 -0.00485646725
v 0.0505806096 -0.254078835 -0.00406555273
v 0.115926228 -0.251805812 -0.0145067163
v 0.043763224 -0.294631541 -0.0158789419
v 0.10912507 -0.29164052 -0.0278104451
v 0.0508616082 -0.331737518 -0.0244913772
v 0.116288647 -0.329751045 -0.0389332324
v 0.0786040127 -0.359372586 -0.0209681988
v 0.144868046 -0.358267367 -0.0380895548
v 0.107152671 -0.383898973 -0.0140380366
v 0.174574614 -0.383636773 -0.0335843451
v 0.119093239 -0.410988122 -0.0170487314
v 0.187569857 -0.411607593 -0.0386024453
v 0.13033025 -0.438119829 -0.0210260544
v 0.199921772 -0.439237088 -0.0444178581
v 0.154735819 -0.46335265 -0.0139250308
v 0.225643441 -0.464168072 -0.0390715636
v 0.177486867 -0.48962608 -0.00698046759
v 0.249748304 -0.489716142 -0.0336345024
v 0.186317787 -0.519150317 -0.014454958
v 0.259764254 -0.518480003 -0.0422568917
v 0.190788463 -0.552937269 -0.0314532332
v 0.265462667 -0.551495314 -0.0603300668
v 0.19962199 -0.592236996 -0.0518668368
v 0.275850236 -0.590015352 -0.0820038915
v 0.21293734 -0.626942515 -0.0668641925
v 0.290700257 -0.623961866 -0.0980952382
v 0.228094772 -0.647732854 -0.0661105886
v 0.306984901 -0.644054592 -0.0980029553
v 0.243853733 -0.665795445 -0.0604106784
v 0.32386142 -0.661486268 -0.0929033458
v 0.260829359 -0.691788733 -0.0614812113
v 0.342359662 -0.686915338 -0.0947970822
v 0.277894914 -0.718001544 -0.0625903234
v 0.361003876 -0.71257782 -0.0966628417
v 0.292780995 -0.737048745 -0.0566568077
v 0.377141476 -0.731044769 -0.0911964253
v 0.307824492 -0.757942498 -0.0519270264
v 0.393675745 -0.751615584 -0.0870810375
v 0.326514423 -0.789367139 -0.0568574667
v 0.414730787 -0.783241689 -0.0931304693
v 0.347452223 -0.824348986 -0.0656622127
v 0.438189983 -0.818135679 -0.102836251
v 0.367824554 -0.856317759 -0.0723008066
v 0.460294366 -0.848977983 -0.109510623
v 0.385909081 -0.883392334 -0.0742541626
v 0.479838014 -0.875012696 -0.111354262
v 0.399641156 -0.90378958 -0.0691164657
v 0.495450556 -0.895530462 -0.106668912
v 0.410707355 -0.920852602 -0.0631634966
v 0.508961082 -0.913813949 -0.101475865
v 0.421617687 -0.937689841 -0.0625927597
v 0.523023248 -0.932910919 -0.101691946
v 0.432302594 -0.955960393 -0.0524916872
v 0.53749609 -0.954375982 -0.0903646499
v 0.440548718 -0.977933884 -0.0181752816
v 0.549307227 -0.980599105 -0.0508484989
v 0.447261333 -1.00425005 0.0192371588
v 0.558251441 -1.01041925 -0.00876840763
v 0.45645678 -1.03466165 0.0390038118
v 0.569066942 -1.04126596 0.0109421341
v 0.464234889 -1.06370676 0.0538720153
v 0.578395844 -1.0695684 0.0242956094
v 0.465090752 -1.08638036 0.0763484091
v 0.580249667 -1.09250546 0.0467344038
v 0.463690996 -1.10868263 0.0991178751
v 0.5794608 -1.11401975 0.0692455396
v 0.464811206 -1.13658178 0.114745677
v 0.581483662 -1.13787627 0.0830144063
v 0.472714663 -1.17353833 0.117138341
v 0.590935528 -1.16938245 0.084064737
v 0.49383837 -1.22239327 0.101071984
v 0.613921463 -1.21342063 0.0690459087
v 0.516650796 -1.26771832 0.0850465819
v 0.638114333 -1.25548506 0.0551229455
v 0.523713529 -1.29576993 0.0849053264
v 0.645967424 -1.28255653 0.0567355454
v 0.523931026 -1.31313026 0.0890679359
v 0.646363437 -1.30029297 0.0626278371
v 0.528298318 -1.32578444 0.0871820748
v 0.65013963 -1.31379473 0.0628637746
v 0.53776139 -1.33559453 0.0795416981
v 0.659422874 -1.32457352 0.056600567
v 0.553224266 -1.34443486 0.0663782582
v 0.676388681 -1.33412671 0.043050833
v 0.564473152 -1.36109579 0.0599400252
v 0.690710545 -1.35097373 0.0354166925
v 0.559762657 -1.39480448 0.0704366267
v 0.69045198 -1.38409197 0.0449009612
v 0.553796589 -1.43161905 0.0791019723
v 0.687210977 -1.4215436 0.0547447577
v 0.564961433 -1.45654857 0.0726133436
v 0.695860922 -1.45045722 0.0527285375
v 0.575321734 -1.47898209 0.0667798072
v 0.703634381 -1.47680557 0.0505524427
v 0.564533532 -1.50899577 0.0731475428
v 0.695805013 -1.50712037 0.0565824695
v 0.552996933 -1.54410183 0.0769428685
v 0.688102305 -1.53941226 0.0601861142
v 0.563282669 -1.58119392 0.0671809912
v 0.697813928 -1.57124889 0.0536988191
v 0.585845351 -1.61442053 0.0527924784
v 0.718028665 -1.59933269 0.0432246402
v 0.609529018 -1.63838673 0.0407880098
v 0.740876913 -1.62063861 0.0335100554
v 0.634778082 -1.65369654 0.0310238916
v 0.76629895 -1.63501728 0.0248900298
v 0.662148476 -1.66092062 0.0231004413
v 0.79421103 -1.64232504 0.0173806679
v 0.682542443 -1.6692574 0.017672956
v 0.815168738 -1.65103185 0.0124600949
v 0.686937809 -1.68788433 0.0147827035
v 0.819716156 -1.66961205 0.0108772544
v 0.689679801 -1.70794666 0.0116330134
v 0.822279453 -1.6894021 0.00919785909
v 0.705301762 -1.72053766 0.00769647909
v 0.837546289 -1.70166564 0.00625416543
v 0.728460252 -1.73368704 0.00354750012
v 0.860191345 -1.71442008 0.00313974498
v 0.753860593 -1.75541162 -0.000810200989
v 0.884878635 -1.73568714 0.00038301287
v 0.774479568 -1.77703464 -0.00398579892
v 0.90496242 -1.75702322 -0.00126713375
v 0.783119678 -1.78992867 -0.00566593744
v 0.913710296 -1.77001047 -0.00205389899
v 0.787550151 -1.79765475 -0.00667365501
v 0.918463945 -1.77794695 -0.00252168858
v 0.795586348 -1.80375922 -0.00714632776
v 0.926583052 -1.78412616 -0.00256495411
v 0.80831331 -1.80675507 -0.00660098158
v 0.939291716 -1.7871232 -0.0018094423
v 0.826817751 -1.80515432 -0.00463618804
v 0.957818091 -1.7855109 4.29070351e-05
v 0.844627619 -1.80467093 -0.00263780775
v 0.97482419 -1.78552556 0.00189702411
v 0.855267465 -1.81102061 -0.00190993201
v 0.982967913 -1.79340398 0.0026836968
v 0.867775381 -1.82576299 -0.00147392065
v 0.993029654 -1.80941153 0.00359935546
v 0.89106375 -1.85049391 0.000402433303
v 1.01561987 -1.83386195 0.00677980063
v 0.912173629 -1.87759304 0.0024540727
v 1.03702605 -1.86095893 0.0104970951
v 0.918641984 -1.89929724 0.00130772009
v 1.04412436 -1.88473761 0.0106877061
v 0.922998369 -1.91879725 -0.000558985223
v 1.0489924 -1.90671611 0.00988864526
v 0.937313974 -1.93941343 0.000814079598
v 1.06316769 -1.92856705 0.0123348143
v 0.949140251 -1.96241117 0.000881289772
v 1.07475984 -1.95271254 0.0135484943
v 0.946867526 -1.98881578 -0.00690482836
v 1.07276726 -1.98132443 0.00692695752
v 0.941909611 -2.01580882 -0.0179725084
v 1.06785452 -2.01050854 -0.00328801456
v 0.944782794 -2.04082775 -0.0258415788
v 1.06969309 -2.03665423 -0.0107244737
v 0.954351723 -2.06426907 -0.0300636347
v 1.07773304 -2.06014609 -0.0144938631
v 0.969481647 -2.08652925 -0.0303456616
v 1.09140921 -2.08137465 -0.0138570555
v 0.98315531 -2.10670853 -0.0303854272
v 1.10406876 -2.10067034 -0.0128782243
v 0.988993347 -2.12372518 -0.0348256789
v 1.10973001 -2.11817384 -0.0165675897
v 0.996334493 -2.13979602 -0.0378575437
v 1.11733317 -2.13531852 -0.0187960379
v 1.01330984 -2.15748334 -0.0322354175
v 1.13479471 -2.1538291 -0.0122363465
v 1.03299117 -2.17620206 -0.0229785312
v 1.15311348 -2.17427087 -0.00506741973
v 1.04768205 -2.1967864 -0.0192382559
v 1.16590297 -2.19526458 -0.00328460359
v 1.06111956 -2.21722698 -0.0165900271
v 1.17468584 -2.2176106 -0.00586094754
v -0.474971592 -1.36617422 -0.242869645
v -0.522649646 -1.31801748 -0.264873207
v -0.532887638 -1.34435427 -0.269064844
v -0.460716665 -1.33698571 -0.235456035
v -0.511137366 -1.29240274 -0.259930611
v -0.442086816 -1.31006169 -0.224411696
v -0.489981592 -1.26933205 -0.247219607
v -0.421801627 -1.28656793 -0.212371945
v -0.471299469 -1.24697948 -0.236208498
v -0.40409112 -1.26500702 -0.201973557
v -0.463393807 -1.22411132 -0.232996583
v -0.396999955 -1.24329102 -0.199222535
v -0.45731324 -1.20042205 -0.231184721
v -0.391271949 -1.2200141 -0.197619528
v -0.444107711 -1.17560625 -0.224374846
v -0.377651423 -1.19377077 -0.190665528
v -0.429912567 -1.14820731 -0.217132732
v -0.362633824 -1.16479766 -0.183002323
v -0.42086333 -1.116768 -0.21402441
v -0.352715254 -1.13333118 -0.179272339
v -0.416991591 -1.08094299 -0.2151099
v -0.348501086 -1.09890246 -0.179960981
v -0.418328166 -1.0403868 -0.220448524
v -0.350596845 -1.06104231 -0.185554147
v -0.416472703 -1.00138116 -0.223326162
v -0.349736333 -1.02470958 -0.188858137
v -0.403024435 -0.97020787 -0.217028201
v -0.336653203 -0.994863749 -0.182679176
v -0.387745529 -0.942367792 -0.209054932
v -0.321764112 -0.968497217 -0.17482698
v -0.380398452 -0.913362145 -0.206906959
v -0.315485239 -0.942603111 -0.173110694
v -0.370844007 -0.882200778 -0.203405634
v -0.307040483 -0.913998604 -0.170130655
v -0.348943442 -0.847893834 -0.191372439
v -0.285653442 -0.879500091 -0.158487245
v -0.326678365 -0.817110002 -0.17869705
v -0.262965173 -0.8482849 -0.145554289
v -0.316030592 -0.79651767 -0.173269108
v -0.250617087 -0.829529047 -0.138706312
v -0.308210969 -0.786634207 -0.168717235
v -0.241045639 -0.821870387 -0.132655472
v -0.294430733 -0.787978172 -0.158670262
v -0.226687923 -0.823946655 -0.122114465
v -0.279684901 -0.791611254 -0.147682369
v -0.211951047 -0.82756722 -0.111134328
v -0.268968225 -0.788595378 -0.140307426
v -0.201242 -0.824541032 -0.103765972
v -0.261492193 -0.780946255 -0.135761201
v -0.193881497 -0.816963136 -0.099295117
v -0.25646776 -0.770679057 -0.133259267
v -0.189190343 -0.806928456 -0.0970075727
v -0.247454718 -0.753959417 -0.128587827
v -0.180333778 -0.790291071 -0.092439726
v -0.228012711 -0.72695297 -0.117533199
v -0.160477623 -0.762905419 -0.0811284184
v -0.204796746 -0.700441241 -0.103713311
v -0.13663274 -0.73582685 -0.066917792
v -0.18446137 -0.685206115 -0.0907459259
v -0.115810111 -0.720110834 -0.053652212
v -0.168526188 -0.670086682 -0.0844381005
v -0.101075113 -0.704601109 -0.0447386615
v -0.161577895 -0.643921852 -0.0877185613
v -0.0954928249 -0.678141236 -0.0435839519
v -0.146929875 -0.619270921 -0.0827797875
v -0.0902978405 -0.6537624 -0.0372124352
v -0.116564922 -0.604450464 -0.0732158795
v -0.072971642 -0.645183921 -0.0261588916
v -0.0713188276 -0.594881415 -0.0443158299
v -0.0647040606 -0.618150294 -0.00878238305
v -0.044130642 -0.569149435 -0.023033347
v -0.0651371181 -0.588231921 0.017849775
v -0.0651371181 -0.588231921 0.017849775
v -0.0651686117 -0.550475061 0.0619511008
v 0.00487414235 -0.556835234 -0.0122354776
v -0.044130642 -0.569149435 -0.023033347
vt 0.000443535857 0.567720056
vt 0.000443535857 0.596060276
vt 0.999457061 0.596060276
vt 0.999457061 0.567531466
vt 0.000443535857 0.539379954
vt 0.999457061 0.541768312
vt 0.000443535857 0.525767922
vt 0.999457061 0.521536469
vt 0.000443535857 0.51215601
vt 0.999457061 0.506803155
vt 0.000443535857 0.506275177
vt 0.999457061 0.497535676
vt 0.000443535857 0.500394344
vt 0.999457061 0.488373429
vt 0.000443535857 0.480861813
vt 0.999457061 0.47395584
vt 0.000443535857 0.461329192
vt 0.999457061 0.457612902
vt 0.000443535857 0.44744119
vt 0.999457061 0.442674309
vt 0.000443535857 0.433553308
vt 0.999457061 0.428693801
vt 0.000443535857 0.420720786
vt 0.999457061 0.415225238
vt 0.000443535857 0.407888442
vt 0.999457061 0.403754145
vt 0.000443535857 0.402075201
vt 0.999457061 0.395765692
vt 0.000443535857 0.39626196
vt 0.999457061 0.388332099
vt 0.000443535857 0.385075957
vt 0.999457061 0.378525287
vt 0.000443535857 0.373889893
vt 0.999457061 0.367908388
vt 0.000443535857 0.364152938
vt 0.999457061 0.358044356
vt 0.000443535857 0.354415983
vt 0.999457061 0.346429914
vt 0.000443535857 0.336183161
vt 0.999457061 0.330561846
vt 0.000443535857 0.317950279
vt 0.999457061 0.315820128
vt 0.000443535857 0.312772721
vt 0.999457061 0.307584375
vt 0.000443535857 0.307595164
vt 0.999457061 0.298947185
vt 0.000443535857 0.287847728
vt 0.999457061 0.283000797
vt 0.000443535857 0.268100232
vt 0.999457061 0.266095072
vt 0.000443535857 0.259107143
vt 0.999457061 0.254579693
vt 0.000443535857 0.250114053
vt 0.999457061 0.245844811
vt 0.000443535857 0.242084116
vt 0.999457061 0.237280339
vt 0.000443535857 0.234054178
vt 0.999457061 0.227187306
vt 0.000443535857 0.218513519
vt 0.999457061 0.213866681
vt 0.000443535857 0.202972859
vt 0.999457061 0.200767726
vt 0.000443535857 0.19584927
vt 0.999457061 0.191339642
vt 0.000443535857 0.188725621
vt 0.999457061 0.182445198
vt 0.000443535857 0.175319999
vt 0.999457061 0.170947105
vt 0.000443535857 0.161914438
vt 0.999457061 0.158894449
vt 0.000443535857 0.152537078
vt 0.999457061 0.14833644
vt 0.000443535857 0.143159777
vt 0.999457061 0.138734311
vt 0.000443535857 0.133888692
vt 0.999457061 0.129549474
vt 0.000443535857 0.124617606
vt 0.999457061 0.120559484
vt 0.000443535857 0.115800589
vt 0.999457061 0.111541778
vt 0.000443535857 0.106983572
vt 0.999457061 0.10232839
vt 0.000443535857 0.0971882641
vt 0.999457061 0.0927512348
vt 0.000443535857 0.0873929262
vt 0.999457061 0.0829922259
vt 0 0.97165978
vt 0 1
vt 0.999013424 1
vt 0.999013424 0.97147119
vt 0 0.943319619
vt 0.999013424 0.945708036
vt 0 0.929707646
vt 0.999013424 0.925476134
vt 0 0.916095734
vt 0.999013424 0.910742879
vt 0 0.910214901
vt 0.999013424 0.90147537
vt 0 0.904334068
vt 0.999013424 0.892313123
vt 0 0.884801507
vt 0.999013424 0.877895594
vt 0 0.865268946
vt 0.999013424 0.861552656
vt 0 0.851380944
vt 0.999013424 0.846614003
vt 0 0.837493002
vt 0.999013424 0.832633555
vt 0 0.82466054
vt 0.999013424 0.819164991
vt 0 0.811828136
vt 0.999013424 0.807693899
vt 0 0.806014895
vt 0.999013424 0.799705446
vt 0 0.800201714
vt 0.999013424 0.792271793
vt 0 0.789015651
vt 0.999013424 0.782465041
vt 0 0.777829647
vt 0.999013424 0.771848142
vt 0 0.768092692
vt 0.999013424 0.76198411
vt 0 0.758355737
vt 0.999013424 0.750369668
vt 0 0.740122914
vt 0.999013424 0.7345016
vt 0 0.721890032
vt 0.999013424 0.719759881
vt 0 0.716712475
vt 0.999013424 0.711524129
vt 0 0.711534917
vt 0.999013424 0.702886939
vt 0 0.691787481
vt 0.999013424 0.686940551
vt 0 0.672039986
vt 0.999013424 0.670034826
vt 0 0.663046896
vt 0.999013424 0.658519447
vt 0 0.654053807
vt 0.999013424 0.649784565
vt 0 0.64602387
vt 0.999013424 0.641220093
vt 0 0.637993932
vt 0.999013424 0.631127059
vt 0 0.622453272
vt 0.999013424 0.617806435
vt 0 0.606912613
vt 0.999013424 0.604707479
vt 0 0.599789023
vt 0.999013424 0.595279396
vt 0 0.592665374
vt 0.999013424 0.586384952
vt 0 0.579259753
vt 0.999013424 0.574886858
vt 0 0.565854192
vt 0.999013424 0.562834203
vt 0 0.556476831
vt 0.999013424 0.552276194
vt 0 0.547099531
vt 0.999013424 0.542674065
vt 0 0.537828445
vt 0.999013424 0.533489227
vt 0 0.52855736
vt 0.999013424 0.524499238
vt 0 0.519740343
vt 0.999013424 0.515481532
vt 0 0.510923326
vt 0.999013424 0.506268144
vt 0 0.501128018
vt 0.999013424 0.496690989
vt 0 0.49133268
vt 0.999013424 0.485428959
vt 0 0.475606501
vt 0.999013424 0.471160859
vt 0 0.459880352
vt 0.999013424 0.456053555
vt 0 0.445957184
vt 0.999013424 0.442273736
vt 0 0.432033986
vt 0.999013424 0.431389332
vt 0 0.426992238
vt 0.999013424 0.424968272
vt 0 0.421950459
vt 0.999013424 0.420903802
vt 0 0.418935388
vt 0.999013424 0.417089194
vt 0 0.415920317
vt 0.999013424 0.411571205
vt 0 0.404968619
vt 0.999013424 0.402396619
vt 0 0.394016922
vt 0.999013424 0.391057432
vt 0 0.38145268
vt 0.999013424 0.379045784
vt 0 0.368888408
vt 0.999013424 0.363789886
vt 0 0.345443726
vt 0.999013424 0.342718005
vt 0 0.321999013
vt 0.999013424 0.322451472
vt 0 0.311928868
vt 0.999013424 0.309611768
vt 0 0.301858723
vt 0.999013424 0.300994396
vt 0 0.295144945
vt 0.999013424 0.293394923
vt 0 0.288431168
vt 0.999013424 0.283902645
vt 0 0.271942079
vt 0.999013424 0.269606948
vt 0 0.255452961
vt 0.999013424 0.251714289
vt 0 0.233722776
vt 0.999013424 0.231431067
vt 0 0.211992577
vt 0.999013424 0.211824849
vt 0 0.197716922
vt 0.999013424 0.195963129
vt 0 0.183441252
vt 0.999013424 0.184347421
vt 0 0.178774372
vt 0.999013424 0.177479237
vt 0 0.174107492
vt 0.999013424 0.173313707
vt 0 0.170890421
vt 0.999013424 0.169806004
vt 0 0.167673349
vt 0.999013424 0.167118043
vt 0 0.16642873
vt 0.999013424 0.165411741
vt 0 0.16518411
vt 0.999013424 0.164055616
vt 0 0.163363472
vt 0.999013424 0.162418216
vt 0 0.161542833
vt 0.999013424 0.160134435
vt 0 0.157610014
vt 0.999013424 0.156839073
vt 0 0.153677195
vt 0.999013424 0.152898312
vt 0 0.149190828
vt 0.999013424 0.148678333
vt 0 0.144704461
vt 0.999013424 0.142664745
vt 0 0.133946091
vt 0.999013424 0.13334316
vt 0 0.123187713
vt 0.999013424 0.120111741
vt 0 0.103054792
vt 0.999013424 0.102368683
vt 0 0.0829218701
vt 0.999013424 0.0857082754
vt 0 0.0765199214
vt 0.999013424 0.0757248104
vt 0 0.0701179728
vt 0.999013424 0.0694364011
vt 0 0.0644171983
vt 0.999013424 0.0638611615
vt 0 0.0587164275
vt 0.999013424 0.0584261455
vt 0 0.0527511351
vt 0.999013424 0.0525584258
vt 0 0.0467858426
vt 0.999013424 0.0455883071
vt 0 0.0357147045
vt 0.999013424 0.0368460901
vt 0 0.0246435646
vt 0.999013424 0.0277947821
vt 0 0.0170857124
vt 0.999013424 0.0198974013
vt 0 0.00952786207
vt 0.999013424 0.0128349643
vt 0 0.00476393104
vt 0.999013424 0.00628849119
vt 0 0
vt 0.999013424 0
vt 0 0.116876841
vt 0.999013424 0.123165332
vt 0.999013424 0.116876841
vt 0 0.121640772
vt 0.999013424 0.129711807
vt 0 0.126404703
vt 0.999013424 0.136774242
vt 0 0.133962557
vt 0.999013424 0.144671619
vt 0 0.141520411
vt 0.999013424 0.153722927
vt 0 0.152591541
vt 0.999013424 0.162465155
vt 0 0.163662687
vt 0.999013424 0.169435263
vt 0 0.169627979
vt 0.999013424 0.175302982
vt 0 0.175593272
vt 0.999013424 0.180738002
vt 0 0.181294039
vt 0.999013424 0.186313242
vt 0 0.186994821
vt 0.999013424 0.192601651
vt 0 0.193396762
vt 0.999013424 0.202585116
vt 0 0.199798703
vt 0.999013424 0.219245523
vt 0 0.219931632
vt 0.999013424 0.236988574
vt 0 0.240064561
vt 0.999013424 0.250220001
vt 0 0.250822932
vt 0.999013424 0.259541571
vt 0 0.261581302
vt 0.999013424 0.265555203
vt 0 0.266067684
vt 0.999013424 0.269775152
vt 0 0.270554066
vt 0.999013424 0.273715913
vt 0 0.27448684
vt 0.999013424 0.277011275
vt 0 0.278419673
vt 0.999013424 0.279295087
vt 0 0.280240297
vt 0.999013424 0.280932486
vt 0 0.282060981
vt 0.999013424 0.282288611
vt 0 0.283305585
vt 0.999013424 0.283994913
vt 0 0.28455019
vt 0.999013424 0.286682844
vt 0 0.287767261
vt 0.999013424 0.290190548
vt 0 0.290984333
vt 0.999013424 0.294356108
vt 0 0.295651197
vt 0.999013424 0.301224262
vt 0 0.300318092
vt 0.999013424 0.312839985
vt 0 0.314593762
vt 0.999013424 0.328701675
vt 0 0.328869402
vt 0.999013424 0.348307908
vt 0 0.350599617
vt 0.999013424 0.36859113
vt 0 0.372329831
vt 0.999013424 0.386483788
vt 0 0.38881892
vt 0.999013424 0.400779486
vt 0 0.405308008
vt 0.999013424 0.410271764
vt 0 0.412021816
vt 0 0.412021816
vt 0 0.418735564
vt 0.999013424 0.417362332
vt 0.999013424 0.410271764
vn -0.968554258 0.0514698811 -0.243420526
vn -0.968554258 0.0514698811 -0.243420526
vn -0.968554258 0.0514698811 -0.243420526
vn -0.968554258 0.0514698811 -0.243420526
vn -0.968554258 0.0514698811 -0.243420526
vn -0.968554258 0.0514698811 -0.243420526
vn -0.968554258 0.0514698811 -0.243420526
vn -0.968554258 0.0514698811 -0.243420526
vn -0.968554258 0.0514698811 -0.243420526
vn -0.968554258 0.0514698811 -0.243420526
vn -0.968554258 0.0514698811 -0.243420526
vn -0.968554258 0.0514698811 -0.243420526
vn -0.968554258 0.0514698811 -0.243420526
vn -0.968554258 0.0514698811 -0.243420526
vn -0.968554258 0.0514698811 -0.243420526
vn -0.968554258 0.0514698811 -0.243420526
vn -0.968554258 0.0514698811 -0.243420526
vn -0.968554258 0.0514698811 -0.243420526
vn -0.968554258 0.0514698811 -0.243420526
vn -0.968554258 0.0514698811 -0.243420526
vn -0.968554258 0.0514698811 -0.243420526
vn -0.968554258 0.0514698811 -0.243420526
vn -0.968554258 0.0514698811 -0.243420526
vn -0.968554258 0.0514698811 -0.243420526
vn -0.968554258 0.0514698811 -0.243420526
vn -0.968554258 0.0514698811 -0.243420526
vn -0.968554258 0.0514698811 -0.243420526
vn -0.968554258 0.0514698811 -0.243420526
vn -0.968554258 0.0514698811 -0.243420526
vn -0.968554258 0.0514698811 -0.243420526
vn -0.968554258 0.0514698811 -0.243420526
vn -0.968554258 0.0514698811 -0.243420526
vn -0.968554258 0.0514698811 -0.243420526
vn -0.968554258 0.0514698811 -0.243420526
vn -0.968554258 0.0514698811 -0.243420526
vn -0.968554258 0.0514698811 -0.243420526
vn -0.968554258 0.0514698811 -0.243420526
vn -0.968554258 0.0514698811 -0.243420526
vn -0.968554258 0.0514698811 -0.243420526
vn -0.968554258 0.0514698811 -0.243420526
vn -0.968554258 0.0514698811 -0.243420526
vn -0.968554258 0.0514698811 -0.243420526
vn -0.968554258 0.0514698811 -0.243420526
vn -0.968554258 0.0514698811 -0.243420526
vn -0.968554258 0.0514698811 -0.243420526
vn -0.968554258 0.0514698811 -0.243420526
vn -0.968554258 0.0514698811 -0.243420526
vn -0.968554258 0.0514698811 -0.243420526
vn -0.968554258 0.0514698811 -0.243420526
vn -0.968554258 0.0514698811 -0.243420526
vn -0.968554258 0.0514698811 -0.243420526
vn -0.968554258 0.0514698811 -0.243420526
vn -0.968554258 0.0514698811 -0.243420526
vn -0.968554258 0.0514698811 -0.243420526
vn -0.968554258 0.0514698811 -0.243420526
vn -0.968554258 0.0514698811 -0.243420526
vn -0.968554258 0.0514698811 -0.243420526
vn -0.968554258 0.0514698811 -0.243420526
vn -0.968554258 0.0514698811 -0.243420526
vn -0.968554258 0.0514698811 -0.243420526
vn -0.968554258 0.0514698811 -0.243420526
vn -0.968554258 0.0514698811 -0.243420526
vn -0.968554258 0.0514698811 -0.243420526
vn -0.968554258 0.0514698811 -0.243420526
vn -0.968554258 0.0514698811 -0.243420526
vn -0.968554258 0.0514698811 -0.243420526
vn -0.968554258 0.0514698811 -0.243420526
vn -0.968554258 0.0514698811 -0.243420526
vn -0.968554258 0.0514698811 -0.243420526
vn -0.968554258 0.0514698811 -0.243420526
vn -0.968554258 0.0514698811 -0.243420526
vn -0.968554258 0.0514698811 -0.243420526
vn -0.968554258 0.0514698811 -0.243420526
vn -0.968554258 0.0514698811 -0.243420526
vn -0.968554258 0.0514698811 -0.243420526
vn -0.968554258 0.0514698811 -0.243420526
vn -0.968554258 0.0514698811 -0.243420526
vn -0.968554258 0.0514698811 -0.243420526
vn -0.968554258 0.0514698811 -0.243420526
vn -0.968554258 0.0514698811 -0.243420526
vn -0.968554258 0.0514698811 -0.243420526
vn -0.968554258 0.0514698811 -0.243420526
vn -0.968554258 0.0514698811 -0.243420526
vn -0.968554258 0.0514698811 -0.243420526
vn -0.968554258 0.0514698811 -0.243420526
vn -0.968554258 0.0514698811 -0.243420526
vn -0.968554258 0.0514698811 -0.243420526
vn -0.968554258 0.0514698811 -0.243420526
vn -0.968554258 0.0514698811 -0.243420526
vn -0.968554258 0.0514698811 -0.243420526
vn -0.968554258 0.0514698811 -0.243420526
vn -0.968554258 0.0514698811 -0.243420526
vn -0.968554258 0.0514698811 -0.243420526
vn -0.968554258 0.0514698811 -0.243420526
vn -0.968554258 0.0514698811 -0.243420526
vn -0.968554258 0.0514698811 -0.243420526
vn -0.968554258 0.0514698811 -0.243420526
vn -0.968554258 0.0514698811 -0.243420526
vn -0.968554258 0.0514698811 -0.243420526
vn -0.968554258 0.0514698811 -0.243420526
vn -0.968554258 0.0514698811 -0.243420526
vn -0.968554258 0.0514698811 -0.243420526
vn -0.968554258 0.0514698811 -0.243420526
vn -0.968554258 0.0514698811 -0.243420526
vn -0.968554258 0.0514698811 -0.243420526
vn -0.968554258 0.0514698811 -0.243420526
vn -0.968554258 0.0514698811 -0.243420526
vn -0.968554258 0.0514698811 -0.243420526
vn -0.220910728 -0.337116092 -0.915178239
vn -0.227099016 -0.41878894 -0.879227996
vn -0.968554258 0.0514698811 -0.243420526
vn -0.968554258 0.0514698811 -0.243420526
vn -0.968554258 0.0514698811 -0.243420526
vn -0.968554258 0.0514698811 -0.243420526
vn -0.968554258 0.0514698811 -0.243420526
vn -0.968554258 0.0514698811 -0.243420526
vn -0.294155806 -0.486371577 -0.822748482
vn -0.299189657 -0.477644175 -0.826039672
vn -0.968554258 0.0514698811 -0.243420526
vn -0.968554258 0.0514698811 -0.243420526
vn -0.968554258 0.0514698811 -0.243420526
vn -0.968554258 0.0514698811 -0.243420526
vn -0.968554258 0.0514698811 -0.243420526
vn -0.968554258 0.0514698811 -0.243420526
vn -0.352624595 0.33753258 -0.872770071
vn -0.35792163 0.305687249 -0.882296681
vn -0.968554258 0.0514698811 -0.243420526
vn -0.968554258 0.0514698811 -0.243420526
vn -0.968554258 0.0514698811 -0.243420526
vn -0.968554258 0.0514698811 -0.243420526
vn -0.968554258 0.0514698811 -0.243420526
vn -0.968554258 0.0514698811 -0.243420526
vn -0.968554258 0.0514698811 -0.243420526
vn -0.968554258 0.0514698811 -0.243420526
vn -0.968554258 0.0514698811 -0.243420526
vn -0.968554258 0.0514698811 -0.243420526
vn -0.306802839 -0.468149692 -0.82867831
vn -0.311665624 -0.447092384 -0.838434815
vn -0.968554258 0.0514698811 -0.243420526
vn -0.968554258 0.0514698811 -0.243420526
vn -0.968554258 0.0514698811 -0.243420526
vn -0.968554258 0.0514698811 -0.243420526
vn -0.968554258 0.0514698811 -0.243420526
vn -0.968554258 0.0514698811 -0.243420526
vn -0.366108209 -0.0951380879 -0.925696313
vn -0.35893634 -0.138229296 -0.923069596
vn -0.968554258 0.0514698811 -0.243420526
vn -0.968554258 0.0514698811 -0.243420526
vn -0.968554258 0.0514698811 -0.243420526
vn -0.968554258 0.0514698811 -0.243420526
vn -0.968554258 0.0514698811 -0.243420526
vn -0.968554258 0.0514698811 -0.243420526
vn -0.31092155 -0.40832147 -0.85825485
vn -0.292496622 -0.491507739 -0.820284009
vn -0.968554258 0.0514698811 -0.243420526
vn -0.968554258 0.0514698811 -0.243420526
vn -0.968554258 0.0514698811 -0.243420526
vn -0.968554258 0.0514698811 -0.243420526
vn -0.968554258 0.0514698811 -0.243420526
vn -0.968554258 0.0514698811 -0.243420526
vn -0.234245703 -0.540694356 -0.807947099
vn -0.235572532 -0.529559791 -0.814906061
vn -0.968554258 0.0514698811 -0.243420526
vn -0.968554258 0.0514698811 -0.243420526
vn -0.968554258 0.0514698811 -0.243420526
vn -0.968554258 0.0514698811 -0.243420526
vn -0.968554258 0.0514698811 -0.243420526
vn -0.968554258 0.0514698811 -0.243420526
vn -0.2551682 -0.300782353 -0.918922782
vn -0.256487012 -0.280593097 -0.924922645
vn -0.968554258 0.0514698811 -0.243420526
vn -0.968554258 0.0514698811 -0.243420526
vn -0.968554258 0.0514698811 -0.243420526
vn -0.968554258 0.0514698811 -0.243420526
vn -0.968554258 0.0514698811 -0.243420526
vn -0.968554258 0.0514698811 -0.243420526
vn -0.207440987 -0.160252646 -0.965032279
vn -0.207426012 -0.160323203 -0.965023756
vn -0.192176014 -0.165058002 -0.967380166
vn -0.192699224 -0.158857495 -0.968313694
vn -0.209627345 0.127102986 -0.969485044
vn -0.212376207 0.244834825 -0.946019113
vn -0.968554258 0.0514698811 -0.243420526
vn -0.968554258 0.0514698811 -0.243420526
vn -0.968554258 0.0514698811 -0.243420526
vn -0.968554258 0.0514698811 -0.243420526
vn -0.968554258 0.0514698811 -0.243420526
vn -0.968554258 0.0514698811 -0.243420526
vn -0.163848639 -0.239559859 -0.956955969
vn -0.163622946 -0.246940866 -0.95511663
vn -0.968554258 0.0514698811 -0.243420526
vn -0.968554258 0.0514698811 -0.243420526
vn -0.968554258 0.0514698811 -0.243420526
vn -0.968554258 0.0514698811 -0.243420526
vn -0.968554258 0.0514698811 -0.243420526
vn -0.968554258 0.0514698811 -0.243420526
vn -0.968554258 0.0514698811 -0.243420526
vn -0.968554258 0.0514698811 -0.243420526
vn -0.968554258 0.0514698811 -0.243420526
vn -0.968554258 0.0514698811 -0.243420526
vn -0.116606228 0.235017464 -0.964971364
vn -0.114339553 0.262373447 -0.958168387
vn -0.968554258 0.0514698811 -0.243420526
vn -0.968554258 0.0514698811 -0.243420526
vn -0.968554258 0.0514698811 -0.243420526
vn -0.968554258 0.0514698811 -0.243420526
vn -0.968554258 0.0514698811 -0.243420526
vn -0.968554258 0.0514698811 -0.243420526
vn -0.968554258 0.0514698811 -0.243420526
vn -0.968554258 0.0514698811 -0.243420526
vn -0.968554258 0.0514698811 -0.243420526
vn -0.968554258 0.0514698811 -0.243420526
vn -0.968554258 0.0514698811 -0.243420526
vn -0.968554258 0.0514698811 -0.243420526
vn -0.968554258 0.0514698811 -0.243420526
vn -0.968554258 0.0514698811 -0.243420526
vn -0.968554258 0.0514698811 -0.243420526
vn -0.968554258 0.0514698811 -0.243420526
vn -0.968554258 0.0514698811 -0.243420526
vn -0.968554258 0.0514698811 -0.243420526
vn -0.0134498943 0.133106545 -0.991010427
vn -0.00660642842 0.11945349 -0.992817879
vn 0.000623352884 0.107771143 -0.994175494
vn 0.00392461568 0.104886986 -0.994476378
vn 0.0101448894 0.101027779 -0.9948318
vn 0.0114495782 0.10133823 -0.994786143
vn 0.0163027756 0.0939507782 -0.995443344
vn 0.0193982013 0.0827651173 -0.99638027
vn 0.0243962072 0.0606686734 -0.997859776
vn 0.0359183848 -0.00605773181 -0.999336302
vn 0.0428864509 -0.0478989594 -0.997931123
vn 0.115366884 -0.574906766 -0.810044825
vn 0.130984902 -0.706740201 -0.695241868
vn 0.103288226 -0.48965764 -0.865775347
vn 0.0798265636 -0.313257873 -0.946307182
vn 0.0439748578 -0.0604209416 -0.997203827
vn 0.0414354093 -0.0343348458 -0.998551071
vn 0.0405687653 -0.0211813282 -0.99895215
vn 0.0453845672 -0.0306360442 -0.998499751
vn 0.0496846661 -0.0438759364 -0.997800767
vn -0.968554258 0.0514698811 -0.243420526
vn -0.968554258 0.0514698811 -0.243420526
vn -0.968554258 0.0514698811 -0.243420526
vn -0.968554258 0.0514698811 -0.243420526
vn 0.0668345466 0.0572463162 -0.996120512
vn 0.0673150569 0.0606252477 -0.995888174
vn 0.0779051334 0.0359924287 -0.99631089
vn 0.0818368495 0.0140732275 -0.996546328
vn 0.0913024694 -0.0107592251 -0.99576509
vn 0.0925956443 0.0030680839 -0.995699048
vn 0.0900389031 0.135343179 -0.986699104
vn 0.0893930942 0.150833383 -0.984509051
vn 0.0872614235 0.300411701 -0.949809551
vn 0.086742565 0.288097441 -0.953664243
vn 0.0955158472 0.315951854 -0.943955004
vn 0.0945633203 0.319279879 -0.942930639
vn 0.10655316 0.258836687 -0.960025966
vn 0.10773132 0.249932304 -0.962251484
vn 0.117711298 0.164905638 -0.979260027
vn 0.121305831 0.129322037 -0.98415482
vn 0.129110754 0.0729491562 -0.988943338
vn 0.132165506 0.069897078 -0.988760114
vn 0.133497357 0.139765859 -0.981144309
vn 0.131838515 0.18935293 -0.973017991
vn 0.133139908 0.247511819 -0.959693491
vn 0.135294303 0.238034412 -0.961787403
vn 0.149816558 0.0924936011 -0.984377921
vn 0.157768011 -0.0473157875 -0.986342013
vn 0.160628483 -0.193360209 -0.967889607
vn 0.157467321 -0.230553493 -0.960233867
vn -0.968554258 0.0514698811 -0.243420526
vn -0.968554258 0.0514698811 -0.243420526
vn -0.968554258 0.0514698811 -0.243420526
vn -0.968554258 0.0514698811 -0.243420526
vn -0.968554258 0.0514698811 -0.243420526
vn -0.968554258 0.0514698811 -0.243420526
vn -0.421865433 -0.00340747903 0.906651974
vn -0.433820188 -0.00892309193 0.90095526
vn -0.421865463 -0.00340747926 0.906651974
vn -0.437576532 -0.0106643261 0.899118006
vn -0.454282105 -0.0289162379 0.890388489
vn -0.460041761 -0.0407370776 0.886962295
vn -0.465635002 -0.0519928522 0.883448243
vn -0.464648902 -0.0494763143 0.884111762
vn -0.457556933 -0.0175118577 0.889007866
vn -0.4540295 -0.00139612879 0.890985489
vn -0.44440192 0.0381538495 0.895014644
vn -0.444265813 0.0386066362 0.895062864
vn -0.447652131 0.0223912802 0.893927455
vn -0.448611438 0.0182475094 0.893540561
vn -0.452970445 -0.00175845879 0.891523838
vn -0.452863723 -0.00157997501 0.891578317
vn -0.449587137 0.0164081026 0.893085778
vn -0.448708862 0.0213243794 0.893423498
vn -0.442553848 0.0561596081 0.894981623
vn -0.442605823 0.0558629744 0.89497453
vn -0.434434325 0.0924711302 0.895944178
vn -0.435753584 0.0875153467 0.895801246
vn -0.432337791 0.0960848257 0.896577716
vn -0.431800663 0.099496372 0.896464586
vn -0.444561839 0.0519154072 0.894242465
vn -0.443471313 0.0556659997 0.894558311
vn -0.457342535 0.00792522449 0.889255226
vn -0.45806247 0.00576986745 0.888901293
vn -0.453659832 0.0202100351 0.890945733
vn -0.452973247 0.0223485194 0.891243935
vn -0.446327537 0.0421249717 0.893877625
vn -0.446142495 0.0427477248 0.893940389
vn -0.457918644 0.010926933 0.888926923
vn -0.458491027 0.00940324366 0.888649225
vn -0.46778506 -0.0161331389 0.883694947
vn -0.468420357 -0.0180093963 0.883322179
vn -0.468843937 -0.0170782041 0.883115828
vn -0.468238652 -0.0143627077 0.883485377
vn -0.47213313 -0.0154144885 0.881392479
vn -0.47587508 -0.0224055853 0.879227459
vn -0.498708487 -0.0734678134 0.86365062
vn -0.55001539 -0.226658911 0.803808868
vn -0.582384884 -0.359506458 0.729097307
vn -0.597450912 -0.453979701 0.661025643
vn -0.588469863 -0.386861056 0.709958971
vn -0.537486613 -0.173794433 0.825168848
vn -0.516541839 -0.109993391 0.849167824
vn -0.499335915 -0.0623878688 0.864159346
vn -0.480318844 -0.0139160948 0.876983523
vn -0.477027774 -0.00592068816 0.878868282
vn -0.469769835 0.0109516811 0.882721007
vn -0.469896495 0.0106201423 0.882657647
vn -0.476273507 -0.00477560004 0.879284203
vn -0.477202833 -0.00700483704 0.878765285
vn -0.482721567 -0.0202841014 0.875538945
vn -0.483984947 -0.0233337395 0.874765158
vn -0.49015978 -0.0390123092 0.87075907
vn -0.494177431 -0.0496811196 0.867940366
vn -0.4931615 -0.0328976475 0.869315505
vn -0.485318452 0.000943090359 0.874336958
vn -0.473559141 0.0973011032 0.87537092
vn -0.473204464 0.104188658 0.874769866
vn -0.525591075 0.0936034918 0.845572174
vn -0.518656254 0.100564167 0.849048018
vn -0.556097388 0.132342294 0.820512712
vn -0.542181253 0.189906612 0.81852001
vn -0.575399578 0.301647633 0.760213256
vn -0.652802706 0.279807538 0.703957736
vn -0.834176719 0.321531594 0.448069841
vn -0.862186909 0.341469347 0.374208897
vn -0.915840864 0.398609608 0.0484338887
vn -0.915840864 0.398609608 0.048433885
vn -0.495026052 0.814854085 -0.301599085
vn -0.968554258 0.0514698811 -0.243420526
vn -0.968554258 0.0514698811 -0.243420526
vn -0.495026052 0.814854145 -0.301599085
g submesh_0
usemtl submesh_0
f 1/1/1 2/2/2 3/3/3
f 1/1/1 3/3/3 4/4/4
f 5/5/5 1/1/1 4/4/4
f 5/5/5 4/4/4 6/6/6
f 7/7/7 5/5/5 6/6/6
f 7/7/7 6/6/6 8/8/8
f 9/9/9 7/7/7 8/8/8
f 9/9/9 8/8/8 10/10/10
f 11/11/11 9/9/9 10/10/10
f 11/11/11 10/10/10 12/12/12
f 13/13/13 11/11/11 12/12/12
f 13/13/13 12/12/12 14/14/14
f 15/15/15 13/13/13 14/14/14
f 15/15/15 14/14/14 16/16/16
f 17/17/17 15/15/15 16/16/16
f 17/17/17 16/16/16 18/18/18
f 19/19/19 17/17/17 18/18/18
f 19/19/19 18/18/18 20/20/20
f 21/21/21 19/19/19 20/20/20
f 21/21/21 20/20/20 22/22/22
f 23/23/23 21/21/21 22/22/22
f 23/23/23 22/22/22 24/24/24
f 25/25/25 23/23/23 24/24/24
f 25/25/25 24/24/24 26/26/26
f 27/27/27 25/25/25 26/26/26
f 27/27/27 26/26/26 28/28/28
f 29/29/29 27/27/27 28/28/28
f 29/29/29 28/28/28 30/30/30
f 31/31/31 29/29/29 30/30/30
f 31/31/31 30/30/30 32/32/32
f 33/33/33 31/31/31 32/32/32
f 33/33/33 32/32/32 34/34/34
f 35/35/35 33/33/33 34/34/34
f 35/35/35 34/34/34 36/36/36
f 37/37/37 35/35/35 36/36/36
f 37/37/37 36/36/36 38/38/38
f 39/39/39 37/37/37 38/38/38
f 39/39/39 38/38/38 40/40/40
f 41/41/41 39/39/39 40/40/40
f 41/41/41 40/40/40 42/42/42
f 43/43/43 41/41/41 42/42/42
f 43/43/43 42/42/42 44/44/44
f 45/45/45 43/43/43 44/44/44
f 45/45/45 44/44/44 46/46/46
f 47/47/47 45/45/45 46/46/46
f 47/47/47 46/46/46 48/48/48
f 49/49/49 47/47/47 48/48/48
f 49/49/49 48/48/48 50/50/50
f 51/51/51 49/49/49 50/50/50
f 51/51/51 50/50/50 52/52/52
f 53/53/53 51/51/51 52/52/52
f 53/53/53 52/52/52 54/54/54
f 55/55/55 53/53/53 54/54/54
f 55/55/55 54/54/54 56/56/56
f 57/57/57 55/55/55 56/56/56
f 57/57/57 56/56/56 58/58/58
f 59/59/59 57/57/57 58/58/58
f 59/59/59 58/58/58 60/60/60
f 61/61/61 59/59/59 60/60/60
f 61/61/61 60/60/60 62/62/62
f 63/63/63 61/61/61 62/62/62
f 63/63/63 62/62/62 64/64/64
f 65/65/65 63/63/63 64/64/64
f 65/65/65 64/64/64 66/66/66
f 67/67/67 65/65/65 66/66/66
f 67/67/67 66/66/66 68/68/68
f 69/69/69 67/67/67 68/68/68
f 69/69/69 68/68/68 70/70/70
f 71/71/71 69/69/69 70/70/70
f 71/71/71 70/70/70 72/72/72
f 73/73/73 71/71/71 72/72/72
f 73/73/73 72/72/72 74/74/74
f 75/75/75 73/73/73 74/74/74
f 75/75/75 74/74/74 76/76/76
f 77/77/77 75/75/75 76/76/76
f 77/77/77 76/76/76 78/78/78
f 79/79/79 77/77/77 78/78/78
f 79/79/79 78/78/78 80/80/80
f 81/81/81 79/79/79 80/80/80
f 81/81/81 80/80/80 82/82/82
f 83/83/83 81/81/81 82/82/82
f 83/83/83 82/82/82 84/84/84
f 85/85/85 83/83/83 84/84/84
f 85/85/85 84/84/84 86/86/86
f 87/87/87 88/88/88 89/89/89
f 87/87/87 89/89/89 90/90/90
f 91/91/91 87/87/87 90/90/90
f 91/91/91 90/90/90 92/92/92
f 93/93/93 91/91/91 92/92/92
f 93/93/93 92/92/92 94/94/94
f 95/95/95 93/93/93 94/94/94
f 95/95/95 94/94/94 96/96/96
f 97/97/97 95/95/95 96/96/96
f 97/97/97 96/96/96 98/98/98
f 99/99/99 97/97/97 98/98/98
f 99/99/99 98/98/98 100/100/100
f 101/101/101 99/99/99 100/100/100
f 101/101/101 100/100/100 102/102/102
f 103/103/103 101/101/101 102/102/102
f 103/103/103 102/102/102 104/104/104
f 105/105/105 103/103/103 104/104/104
f 105/105/105 104/104/104 106/106/106
f 107/107/107 105/105/105 106/106/106
f 107/107/107 106/106/106 108/108/108
f 109/109/109 107/107/107 108/108/108
f 109/109/109 108/108/108 110/110/110
f 111/111/111 109/109/109 110/110/110
f 111/111/111 110/110/110 112/112/112
f 113/113/113 111/111/111 112/112/112
f 113/113/113 112/112/112 114/114/114
f 115/115/115 113/113/113 114/114/114
f 115/115/115 114/114/114 116/116/116
f 117/117/117 115/115/115 116/116/116
f 117/117/117 116/116/116 118/118/118
f 119/119/119 117/117/117 118/118/118
f 119/119/119 118/118/118 120/120/120
f 121/121/121 119/119/119 120/120/120
f 121/121/121 120/120/120 122/122/122
f 123/123/123 121/121/121 122/122/122
f 123/123/123 122/122/122 124/124/124
f 125/125/125 123/123/123 124/124/124
f 125/125/125 124/124/124 126/126/126
f 127/127/127 125/125/125 126/126/126
f 127/127/127 126/126/126 128/128/128
f 129/129/129 127/127/127 128/128/128
f 129/129/129 128/128/128 130/130/130
f 131/131/131 129/129/129 130/130/130
f 131/131/131 130/130/130 132/132/132
f 133/133/133 131/131/131 132/132/132
f 133/133/133 132/132/132 134/134/134
f 135/135/135 133/133/133 134/134/134
f 135/135/135 134/134/134 136/136/136
f 137/137/137 135/135/135 136/136/136
f 137/137/137 136/136/136 138/138/138
f 139/139/139 137/137/137 138/138/138
f 139/139/139 138/138/138 140/140/140
f 141/141/141 139/139/139 140/140/140
f 141/141/141 140/140/140 142/142/142
f 143/143/143 141/141/141 142/142/142
f 143/143/143 142/142/142 144/144/144
f 145/145/145 143/143/143 144/144/144
f 145/145/145 144/144/144 146/146/146
f 147/147/147 145/145/145 146/146/146
f 147/147/147 146/146/146 148/148/148
f 149/149/149 147/147/147 148/148/148
f 149/149/149 148/148/148 150/150/150
f 151/151/151 149/149/149 150/150/150
f 151/151/151 150/150/150 152/152/152
f 153/153/153 151/151/151 152/152/152
f 153/153/153 152/152/152 154/154/154
f 155/155/155 153/153/153 154/154/154
f 155/155/155 154/154/154 156/156/156
f 157/157/157 155/155/155 156/156/156
f 157/157/157 156/156/156 158/158/158
f 159/159/159 157/157/157 158/158/158
f 159/159/159 158/158/158 160/160/160
f 161/161/161 159/159/159 160/160/160
f 161/161/161 160/160/160 162/162/162
f 163/163/163 161/161/161 162/162/162
f 163/163/163 162/162/162 164/164/164
f 165/165/165 163/163/163 164/164/164
f 165/165/165 164/164/164 166/166/166
f 167/167/167 165/165/165 166/166/166
f 167/167/167 166/166/166 168/168/168
f 169/169/169 167/167/167 168/168/168
f 169/169/169 168/168/168 170/170/170
f 171/171/171 169/169/169 170/170/170
f 171/171/171 170/170/170 172/172/172
f 173/173/173 171/171/171 172/172/172
f 173/173/173 172/172/172 174/174/174
f 175/175/175 173/173/173 174/174/174
f 175/175/175 174/174/174 176/176/176
f 177/177/177 175/175/175 176/176/176
f 177/177/177 176/176/176 178/178/178
f 179/179/179 177/177/177 178/178/178
f 179/179/179 178/178/178 180/180/180
f 181/181/181 179/179/179 180/180/180
f 181/181/181 180/180/180 182/182/182
f 183/183/183 181/181/181 182/182/182
f 183/183/183 182/182/182 184/184/184
f 185/185/185 183/183/183 184/184/184
f 185/185/185 184/184/184 186/186/186
f 187/187/187 185/185/185 186/186/186
f 187/187/187 186/186/186 188/188/188
f 189/189/189 187/187/187 188/188/188
f 189/189/189 188/188/188 190/190/190
f 191/191/191 189/189/189 190/190/190
f 191/191/191 190/190/190 192/192/192
f 193/193/193 191/191/191 192/192/192
f 193/193/193 192/192/192 194/194/194
f 195/195/195 193/193/193 194/194/194
f 195/195/195 194/194/194 196/196/196
f 197/197/197 195/195/195 196/196/196
f 197/197/197 196/196/196 198/198/198
f 199/199/199 197/197/197 198/198/198
f 199/199/199 198/198/198 200/200/200
f 201/201/201 199/199/199 200/200/200
f 201/201/201 200/200/200 202/202/202
f 203/203/203 201/201/201 202/202/202
f 203/203/203 202/202/202 204/204/204
f 205/205/205 203/203/203 204/204/204
f 205/205/205 204/204/204 206/206/206
f 207/207/207 205/205/205 206/206/206
f 207/207/207 206/206/206 208/208/208
f 209/209/209 207/207/207 208/208/208
f 209/209/209 208/208/208 210/210/210
f 211/211/211 209/209/209 210/210/210
f 211/211/211 210/210/210 212/212/212
f 213/213/213 211/211/211 212/212/212
f 213/213/213 212/212/212 214/214/214
f 215/215/215 213/213/213 214/214/214
f 215/215/215 214/214/214 216/216/216
f 217/217/217 215/215/215 216/216/216
f 217/217/217 216/216/216 218/218/218
f 219/219/219 217/217/217 218/218/218
f 219/219/219 218/218/218 220/220/220
f 221/221/221 219/219/219 220/220/220
f 221/221/221 220/220/220 222/222/222
f 223/223/223 221/221/221 222/222/222
f 223/223/223 222/222/222 224/224/224
f 225/225/225 223/223/223 224/224/224
f 225/225/225 224/224/224 226/226/226
f 227/227/227 225/225/225 226/226/226
f 227/227/227 226/226/226 228/228/228
f 229/229/229 227/227/227 228/228/228
f 229/229/229 228/228/228 230/230/230
f 231/231/231 229/229/229 230/230/230
f 231/231/231 230/230/230 232/232/232
f 233/233/233 231/231/231 232/232/232
f 233/233/233 232/232/232 234/234/234
f 235/235/235 233/233/233 234/234/234
f 235/235/235 234/234/234 236/236/236
f 237/237/237 235/235/235 236/236/236
f 237/237/237 236/236/236 238/238/238
f 239/239/239 237/237/237 238/238/238
f 239/239/239 238/238/238 240/240/240
f 241/241/241 239/239/239 240/240/240
f 241/241/241 240/240/240 242/242/242
f 243/243/243 241/241/241 242/242/242
f 243/243/243 242/242/242 244/244/244
f 245/245/245 243/243/243 244/244/244
f 245/245/245 244/244/244 246/246/246
f 247/247/247 245/245/245 246/246/246
f 247/247/247 246/246/246 248/248/248
f 249/249/249 247/247/247 248/248/248
f 249/249/249 248/248/248 250/250/250
f 251/251/251 249/249/249 250/250/250
f 251/251/251 250/250/250 252/252/252
f 253/253/253 251/251/251 252/252/252
f 253/253/253 252/252/252 254/254/254
f 255/255/255 253/253/253 254/254/254
f 255/255/255 254/254/254 256/256/256
f 257/257/257 255/255/255 256/256/256
f 257/257/257 256/256/256 258/258/258
f 259/259/259 257/257/257 258/258/258
f 259/259/259 258/258/258 260/260/260
f 261/261/261 259/259/259 260/260/260
f 261/261/261 260/260/260 262/262/262
f 263/263/263 261/261/261 262/262/262
f 263/263/263 262/262/262 264/264/264
f 265/265/265 263/263/263 264/264/264
f 265/265/265 264/264/264 266/266/266
f 267/267/267 265/265/265 266/266/266
f 267/267/267 266/266/266 268/268/268
f 269/269/269 267/267/267 268/268/268
f 269/269/269 268/268/268 270/270/270
f 271/271/271 269/269/269 270/270/270
f 271/271/271 270/270/270 272/272/272
f 273/273/273 271/271/271 272/272/272
f 273/273/273 272/272/272 274/274/274
f 275/275/275 273/273/273 274/274/274
f 275/275/275 274/274/274 276/276/276
f 277/277/277 278/278/278 279/279/279
f 277/277/277 280/280/280 278/278/278
f 280/280/280 281/281/281 278/278/278
f 280/280/280 282/282/282 281/281/281
f 282/282/282 283/283/283 281/281/281
f 282/282/282 284/284/284 283/283/283
f 284/284/284 285/285/285 283/283/283
f 284/284/284 286/286/286 285/285/285
f 286/286/286 287/287/287 285/285/285
f 286/286/286 288/288/288 287/287/287
f 288/288/288 289/289/289 287/287/287
f 288/288/288 290/290/290 289/289/289
f 290/290/290 291/291/291 289/289/289
f 290/290/290 292/292/292 291/291/291
f 292/292/292 293/293/293 291/291/291
f 292/292/292 294/294/294 293/293/293
f 294/294/294 295/295/295 293/293/293
f 294/294/294 296/296/296 295/295/295
f 296/296/296 297/297/297 295/295/295
f 296/296/296 298/298/298 297/297/297
f 298/298/298 299/299/299 297/297/297
f 298/298/298 300/300/300 299/299/299
f 300/300/300 301/301/301 299/299/299
f 300/300/300 302/302/302 301/301/301
f 302/302/302 303/303/303 301/301/301
f 302/302/302 304/304/304 303/303/303
f 304/304/304 305/305/305 303/303/303
f 304/304/304 306/306/306 305/305/305
f 306/306/306 307/307/307 305/305/305
f 306/306/306 308/308/308 307/307/307
f 308/308/308 309/309/309 307/307/307
f 308/308/308 310/310/310 309/309/309
f 310/310/310 311/311/311 309/309/309
f 310/310/310 312/312/312 311/311/311
f 312/312/312 313/313/313 311/311/311
f 312/312/312 314/314/314 313/313/313
f 314/314/314 315/315/315 313/313/313
f 314/314/314 316/316/316 315/315/315
f 316/316/316 317/317/317 315/315/315
f 316/316/316 318/318/318 317/317/317
f 318/318/318 319/319/319 317/317/317
f 318/318/318 320/320/320 319/319/319
f 320/320/320 321/321/321 319/319/319
f 320/320/320 322/322/322 321/321/321
f 322/322/322 323/323/323 321/321/321
f 322/322/322 324/324/324 323/323/323
f 324/324/324 325/325/325 323/323/323
f 324/324/324 326/326/326 325/325/325
f 326/326/326 327/327/327 325/325/325
f 326/326/326 328/328/328 327/327/327
f 328/328/328 329/329/329 327/327/327
f 328/328/328 330/330/330 329/329/329
f 330/330/330 331/331/331 329/329/329
f 330/330/330 332/332/332 331/331/331
f 332/332/332 333/333/333 331/331/331
f 332/332/332 334/334/334 333/333/333
f 334/334/334 335/335/335 333/333/333
f 334/334/334 336/336/336 335/335/335
f 336/336/336 337/337/337 335/335/335
f 336/336/336 338/338/338 337/337/337
f 338/338/338 339/339/339 337/337/337
f 338/338/338 340/340/340 339/339/339
f 340/340/340 341/341/341 339/339/339
f 340/340/340 342/342/342 341/341/341
f 342/342/342 343/343/343 341/341/341
f 342/342/342 344/344/344 343/343/343
f 344/344/344 345/345/345 343/343/343
f 344/344/344 346/346/346 345/345/345
f 346/346/346 347/347/347 345/345/345
f 346/346/346 348/348/348 347/347/347
f 349/349/349 350/350/350 351/351/351
f 349/349/349 351/351/351 352/352/352
